<?xml version="1.0" standalone="no"?>
<!-- Created by Polyform Puzzler (http://puzzler.sourceforge.net/) -->
<svg width="40.000" height="50.000"
     viewBox="0 0 40.000 50.000"
     xmlns="http://www.w3.org/2000/svg"
     xmlns:xlink="http://www.w3.org/1999/xlink">
<g>
<path stroke="black" stroke-width="2" stroke-linecap="round"
      fill="none" d="M 17.500,40.000 a 2.5,2.5 0 0,0 +2.5,-2.5 M 12.500,40.000 a 2.5,2.5 0 0,1 -2.5,-2.5 M 12.500,40.000 l 5.000,0.000 M 10.000,22.500 a 2.5,2.5 0 0,1 +2.5,-2.5 M 10.000,37.500 l 0.000,-15.000 M 20.000,22.500 a 2.5,2.5 0 0,0 -2.5,-2.5 M 20.000,37.500 l 0.000,-15.000 M 20.000,32.500 a 2.5,2.5 0 0,0 -2.5,-2.5 M 12.500,20.000 l 5.000,0.000 M 17.500,30.000 a 2.5,2.5 0 0,0 +2.5,-2.5 M 12.500,30.000 a 2.5,2.5 0 0,1 -2.5,-2.5 M 12.500,30.000 l 5.000,0.000 M 10.000,32.500 a 2.5,2.5 0 0,1 +2.5,-2.5">
<desc>d8</desc>
</path>
</g>
</svg>
