<?xml version="1.0" standalone="no"?>
<!-- Created by Polyform Puzzler (http://puzzler.sourceforge.net/) -->
<svg width="155.885" height="155.885"
     viewBox="0 0 155.885 155.885"
     xmlns="http://www.w3.org/2000/svg"
     xmlns:xlink="http://www.w3.org/1999/xlink">
<g transform="translate(77.942,38.971) rotate(-30)">
<path fill="black" stroke="white" stroke-width="0"
    d="M 10.000,63.509 L 10.000,69.282 L 15.000,72.169 L 20.000,69.282 L 20.000,63.509 L 15.000,60.622 Z M 15.000,54.848 L 15.000,60.622 L 20.000,63.509 L 25.000,60.622 L 25.000,54.848 L 30.000,51.962 L 30.000,46.188 L 35.000,43.301 L 35.000,37.528 L 40.000,34.641 L 40.000,28.868 L 35.000,25.981 L 30.000,28.868 L 30.000,34.641 L 25.000,37.528 L 25.000,43.301 L 20.000,46.188 L 20.000,51.962 Z M 35.000,20.207 L 35.000,25.981 L 40.000,28.868 L 45.000,25.981 L 45.000,20.207 L 40.000,17.321 Z">
<desc>I06</desc>
</path>
</g>
</svg>
