<?xml version="1.0" standalone="no"?>
<!-- Created by Polyform Puzzler (http://puzzler.sourceforge.net/) -->
<svg width="170.000" height="170.000"
     viewBox="0 0 170.000 170.000"
     xmlns="http://www.w3.org/2000/svg"
     xmlns:xlink="http://www.w3.org/1999/xlink">
<g transform="matrix(1,0,0,-1,0,60.622) translate(85.000,-42.500) rotate(-150)">
<path fill="black" stroke="white" stroke-width="0"
    d="M 10.000,46.188 L 10.000,51.962 L 15.000,54.848 L 20.000,51.962 L 20.000,46.188 L 15.000,43.301 Z M 15.000,37.528 L 15.000,43.301 L 20.000,46.188 L 25.000,43.301 L 30.000,46.188 L 35.000,43.301 L 35.000,37.528 L 40.000,34.641 L 45.000,37.528 L 50.000,34.641 L 50.000,28.868 L 45.000,25.981 L 40.000,28.868 L 35.000,25.981 L 30.000,28.868 L 30.000,34.641 L 25.000,37.528 L 20.000,34.641 Z M 45.000,20.207 L 45.000,25.981 L 50.000,28.868 L 55.000,25.981 L 55.000,20.207 L 50.000,17.321 Z">
<desc>M46</desc>
</path>
</g>
</svg>
