<?xml version="1.0" standalone="no"?>
<!-- Created by Polyform Puzzler (http://puzzler.sourceforge.net/) -->
<svg width="85.000" height="60.622"
     viewBox="0 0 85.000 60.622"
     xmlns="http://www.w3.org/2000/svg"
     xmlns:xlink="http://www.w3.org/1999/xlink">
<g>
<path fill="black" stroke="white" stroke-width="0"
    d="M 10.000,46.188 L 10.000,51.962 L 15.000,54.848 L 20.000,51.962 L 20.000,46.188 L 15.000,43.301 Z M 15.000,37.528 L 15.000,43.301 L 20.000,46.188 L 25.000,43.301 L 30.000,46.188 L 35.000,43.301 L 35.000,37.528 L 40.000,34.641 L 40.000,28.868 L 35.000,25.981 L 30.000,28.868 L 30.000,34.641 L 25.000,37.528 L 20.000,34.641 Z M 25.000,20.207 L 25.000,25.981 L 30.000,28.868 L 35.000,25.981 L 35.000,20.207 L 30.000,17.321 Z M 30.000,46.188 L 30.000,51.962 L 35.000,54.848 L 40.000,51.962 L 40.000,46.188 L 35.000,43.301 Z">
<desc>R06</desc>
</path>
</g>
</svg>
