<?xml version="1.0" standalone="no"?>
<!-- Created by Polyform Puzzler (http://puzzler.sourceforge.net/) -->
<svg width="190.000" height="190.000"
     viewBox="0 0 190.000 190.000"
     xmlns="http://www.w3.org/2000/svg"
     xmlns:xlink="http://www.w3.org/1999/xlink">
<g transform="translate(95.000,47.500) rotate(30)">
<path fill="black" stroke="white" stroke-width="0"
    d="M 15.000,37.528 L 15.000,43.301 L 20.000,46.188 L 25.000,43.301 L 30.000,46.188 L 35.000,43.301 L 40.000,46.188 L 45.000,43.301 L 45.000,37.528 L 50.000,34.641 L 50.000,28.868 L 45.000,25.981 L 40.000,28.868 L 40.000,34.641 L 35.000,37.528 L 30.000,34.641 L 25.000,37.528 L 20.000,34.641 Z M 40.000,46.188 L 40.000,51.962 L 45.000,54.848 L 50.000,51.962 L 50.000,46.188 L 45.000,43.301 Z M 45.000,20.207 L 45.000,25.981 L 50.000,28.868 L 55.000,25.981 L 55.000,20.207 L 50.000,17.321 Z">
<desc>Y16</desc>
</path>
</g>
</svg>
