<?xml version="1.0" standalone="no"?>
<!-- Created by Polyform Puzzler (http://puzzler.sourceforge.net/) -->
<svg width="180.000" height="180.000"
     viewBox="0 0 180.000 180.000"
     xmlns="http://www.w3.org/2000/svg"
     xmlns:xlink="http://www.w3.org/1999/xlink">
<g transform="translate(90.000,45.000) rotate(150)">
<path fill="black" stroke="white" stroke-width="0"
    d="M 15.000,46.188 L 15.000,51.962 L 20.000,54.848 L 25.000,51.962 L 30.000,54.848 L 35.000,51.962 L 35.000,46.188 L 40.000,43.301 L 40.000,37.528 L 45.000,34.641 L 45.000,28.868 L 40.000,25.981 L 35.000,28.868 L 35.000,34.641 L 30.000,37.528 L 30.000,43.301 L 25.000,46.188 L 20.000,43.301 Z M 30.000,54.848 L 30.000,60.622 L 35.000,63.509 L 40.000,60.622 L 40.000,54.848 L 35.000,51.962 Z M 40.000,20.207 L 40.000,25.981 L 45.000,28.868 L 50.000,25.981 L 50.000,20.207 L 45.000,17.321 Z">
<desc>Y26</desc>
</path>
</g>
</svg>
