<?xml version="1.0" standalone="no"?>
<!-- Created by Polyform Puzzler (http://puzzler.sourceforge.net/) -->
<svg width="305.000" height="135.000"
     viewBox="0 0 305.000 135.000"
     xmlns="http://www.w3.org/2000/svg"
     xmlns:xlink="http://www.w3.org/1999/xlink">
<defs>
<symbol id="cube0">
<polygon fill="gray" stroke="white"
         stroke-width="0.5" stroke-linejoin="round"
         points="0,13 9,15 15,12 15,2 6,0 0,3" />
<polygon fill="black" fill-opacity="0.25" stroke="white"
         stroke-width="0.5" stroke-linejoin="round"
         points="9,15 15,12 15,2 9,5" />
<polygon fill="white" fill-opacity="0.30" stroke="white"
         stroke-width="0.5" stroke-linejoin="round"
         points="0,3 9,5 15,2 6,0" />
</symbol>
<symbol id="cube1">
<polygon fill="black" stroke="white"
         stroke-width="0.5" stroke-linejoin="round"
         points="0,13 9,15 15,12 15,2 6,0 0,3" />
<polygon fill="black" fill-opacity="0.25" stroke="white"
         stroke-width="0.5" stroke-linejoin="round"
         points="9,15 15,12 15,2 9,5" />
<polygon fill="white" fill-opacity="0.30" stroke="white"
         stroke-width="0.5" stroke-linejoin="round"
         points="0,3 9,5 15,2 6,0" />
</symbol>
<symbol id="cubeA5">
<polygon fill="cadetblue" stroke="white"
         stroke-width="0.5" stroke-linejoin="round"
         points="0,13 9,15 15,12 15,2 6,0 0,3" />
<polygon fill="black" fill-opacity="0.25" stroke="white"
         stroke-width="0.5" stroke-linejoin="round"
         points="9,15 15,12 15,2 9,5" />
<polygon fill="white" fill-opacity="0.30" stroke="white"
         stroke-width="0.5" stroke-linejoin="round"
         points="0,3 9,5 15,2 6,0" />
</symbol>
<symbol id="cubeF5">
<polygon fill="green" stroke="white"
         stroke-width="0.5" stroke-linejoin="round"
         points="0,13 9,15 15,12 15,2 6,0 0,3" />
<polygon fill="black" fill-opacity="0.25" stroke="white"
         stroke-width="0.5" stroke-linejoin="round"
         points="9,15 15,12 15,2 9,5" />
<polygon fill="white" fill-opacity="0.30" stroke="white"
         stroke-width="0.5" stroke-linejoin="round"
         points="0,3 9,5 15,2 6,0" />
</symbol>
<symbol id="cubeI5">
<polygon fill="blue" stroke="white"
         stroke-width="0.5" stroke-linejoin="round"
         points="0,13 9,15 15,12 15,2 6,0 0,3" />
<polygon fill="black" fill-opacity="0.25" stroke="white"
         stroke-width="0.5" stroke-linejoin="round"
         points="9,15 15,12 15,2 9,5" />
<polygon fill="white" fill-opacity="0.30" stroke="white"
         stroke-width="0.5" stroke-linejoin="round"
         points="0,3 9,5 15,2 6,0" />
</symbol>
<symbol id="cubeJ15">
<polygon fill="steelblue" stroke="white"
         stroke-width="0.5" stroke-linejoin="round"
         points="0,13 9,15 15,12 15,2 6,0 0,3" />
<polygon fill="black" fill-opacity="0.25" stroke="white"
         stroke-width="0.5" stroke-linejoin="round"
         points="9,15 15,12 15,2 9,5" />
<polygon fill="white" fill-opacity="0.30" stroke="white"
         stroke-width="0.5" stroke-linejoin="round"
         points="0,3 9,5 15,2 6,0" />
</symbol>
<symbol id="cubeJ25">
<polygon fill="darkviolet" stroke="white"
         stroke-width="0.5" stroke-linejoin="round"
         points="0,13 9,15 15,12 15,2 6,0 0,3" />
<polygon fill="black" fill-opacity="0.25" stroke="white"
         stroke-width="0.5" stroke-linejoin="round"
         points="9,15 15,12 15,2 9,5" />
<polygon fill="white" fill-opacity="0.30" stroke="white"
         stroke-width="0.5" stroke-linejoin="round"
         points="0,3 9,5 15,2 6,0" />
</symbol>
<symbol id="cubeJ45">
<polygon fill="lightcoral" stroke="white"
         stroke-width="0.5" stroke-linejoin="round"
         points="0,13 9,15 15,12 15,2 6,0 0,3" />
<polygon fill="black" fill-opacity="0.25" stroke="white"
         stroke-width="0.5" stroke-linejoin="round"
         points="9,15 15,12 15,2 9,5" />
<polygon fill="white" fill-opacity="0.30" stroke="white"
         stroke-width="0.5" stroke-linejoin="round"
         points="0,3 9,5 15,2 6,0" />
</symbol>
<symbol id="cubeL15">
<polygon fill="darkseagreen" stroke="white"
         stroke-width="0.5" stroke-linejoin="round"
         points="0,13 9,15 15,12 15,2 6,0 0,3" />
<polygon fill="black" fill-opacity="0.25" stroke="white"
         stroke-width="0.5" stroke-linejoin="round"
         points="9,15 15,12 15,2 9,5" />
<polygon fill="white" fill-opacity="0.30" stroke="white"
         stroke-width="0.5" stroke-linejoin="round"
         points="0,3 9,5 15,2 6,0" />
</symbol>
<symbol id="cubeL25">
<polygon fill="peru" stroke="white"
         stroke-width="0.5" stroke-linejoin="round"
         points="0,13 9,15 15,12 15,2 6,0 0,3" />
<polygon fill="black" fill-opacity="0.25" stroke="white"
         stroke-width="0.5" stroke-linejoin="round"
         points="9,15 15,12 15,2 9,5" />
<polygon fill="white" fill-opacity="0.30" stroke="white"
         stroke-width="0.5" stroke-linejoin="round"
         points="0,3 9,5 15,2 6,0" />
</symbol>
<symbol id="cubeL35">
<polygon fill="rosybrown" stroke="white"
         stroke-width="0.5" stroke-linejoin="round"
         points="0,13 9,15 15,12 15,2 6,0 0,3" />
<polygon fill="black" fill-opacity="0.25" stroke="white"
         stroke-width="0.5" stroke-linejoin="round"
         points="9,15 15,12 15,2 9,5" />
<polygon fill="white" fill-opacity="0.30" stroke="white"
         stroke-width="0.5" stroke-linejoin="round"
         points="0,3 9,5 15,2 6,0" />
</symbol>
<symbol id="cubeL45">
<polygon fill="yellowgreen" stroke="white"
         stroke-width="0.5" stroke-linejoin="round"
         points="0,13 9,15 15,12 15,2 6,0 0,3" />
<polygon fill="black" fill-opacity="0.25" stroke="white"
         stroke-width="0.5" stroke-linejoin="round"
         points="9,15 15,12 15,2 9,5" />
<polygon fill="white" fill-opacity="0.30" stroke="white"
         stroke-width="0.5" stroke-linejoin="round"
         points="0,3 9,5 15,2 6,0" />
</symbol>
<symbol id="cubeL5">
<polygon fill="lime" stroke="white"
         stroke-width="0.5" stroke-linejoin="round"
         points="0,13 9,15 15,12 15,2 6,0 0,3" />
<polygon fill="black" fill-opacity="0.25" stroke="white"
         stroke-width="0.5" stroke-linejoin="round"
         points="9,15 15,12 15,2 9,5" />
<polygon fill="white" fill-opacity="0.30" stroke="white"
         stroke-width="0.5" stroke-linejoin="round"
         points="0,3 9,5 15,2 6,0" />
</symbol>
<symbol id="cubeN15">
<polygon fill="olive" stroke="white"
         stroke-width="0.5" stroke-linejoin="round"
         points="0,13 9,15 15,12 15,2 6,0 0,3" />
<polygon fill="black" fill-opacity="0.25" stroke="white"
         stroke-width="0.5" stroke-linejoin="round"
         points="9,15 15,12 15,2 9,5" />
<polygon fill="white" fill-opacity="0.30" stroke="white"
         stroke-width="0.5" stroke-linejoin="round"
         points="0,3 9,5 15,2 6,0" />
</symbol>
<symbol id="cubeN25">
<polygon fill="teal" stroke="white"
         stroke-width="0.5" stroke-linejoin="round"
         points="0,13 9,15 15,12 15,2 6,0 0,3" />
<polygon fill="black" fill-opacity="0.25" stroke="white"
         stroke-width="0.5" stroke-linejoin="round"
         points="9,15 15,12 15,2 9,5" />
<polygon fill="white" fill-opacity="0.30" stroke="white"
         stroke-width="0.5" stroke-linejoin="round"
         points="0,3 9,5 15,2 6,0" />
</symbol>
<symbol id="cubeN5">
<polygon fill="navy" stroke="white"
         stroke-width="0.5" stroke-linejoin="round"
         points="0,13 9,15 15,12 15,2 6,0 0,3" />
<polygon fill="black" fill-opacity="0.25" stroke="white"
         stroke-width="0.5" stroke-linejoin="round"
         points="9,15 15,12 15,2 9,5" />
<polygon fill="white" fill-opacity="0.30" stroke="white"
         stroke-width="0.5" stroke-linejoin="round"
         points="0,3 9,5 15,2 6,0" />
</symbol>
<symbol id="cubeP5">
<polygon fill="magenta" stroke="white"
         stroke-width="0.5" stroke-linejoin="round"
         points="0,13 9,15 15,12 15,2 6,0 0,3" />
<polygon fill="black" fill-opacity="0.25" stroke="white"
         stroke-width="0.5" stroke-linejoin="round"
         points="9,15 15,12 15,2 9,5" />
<polygon fill="white" fill-opacity="0.30" stroke="white"
         stroke-width="0.5" stroke-linejoin="round"
         points="0,3 9,5 15,2 6,0" />
</symbol>
<symbol id="cubeQ5">
<polygon fill="thistle" stroke="white"
         stroke-width="0.5" stroke-linejoin="round"
         points="0,13 9,15 15,12 15,2 6,0 0,3" />
<polygon fill="black" fill-opacity="0.25" stroke="white"
         stroke-width="0.5" stroke-linejoin="round"
         points="9,15 15,12 15,2 9,5" />
<polygon fill="white" fill-opacity="0.30" stroke="white"
         stroke-width="0.5" stroke-linejoin="round"
         points="0,3 9,5 15,2 6,0" />
</symbol>
<symbol id="cubeS15">
<polygon fill="tan" stroke="white"
         stroke-width="0.5" stroke-linejoin="round"
         points="0,13 9,15 15,12 15,2 6,0 0,3" />
<polygon fill="black" fill-opacity="0.25" stroke="white"
         stroke-width="0.5" stroke-linejoin="round"
         points="9,15 15,12 15,2 9,5" />
<polygon fill="white" fill-opacity="0.30" stroke="white"
         stroke-width="0.5" stroke-linejoin="round"
         points="0,3 9,5 15,2 6,0" />
</symbol>
<symbol id="cubeS25">
<polygon fill="indigo" stroke="white"
         stroke-width="0.5" stroke-linejoin="round"
         points="0,13 9,15 15,12 15,2 6,0 0,3" />
<polygon fill="black" fill-opacity="0.25" stroke="white"
         stroke-width="0.5" stroke-linejoin="round"
         points="9,15 15,12 15,2 9,5" />
<polygon fill="white" fill-opacity="0.30" stroke="white"
         stroke-width="0.5" stroke-linejoin="round"
         points="0,3 9,5 15,2 6,0" />
</symbol>
<symbol id="cubeT15">
<polygon fill="darkkhaki" stroke="white"
         stroke-width="0.5" stroke-linejoin="round"
         points="0,13 9,15 15,12 15,2 6,0 0,3" />
<polygon fill="black" fill-opacity="0.25" stroke="white"
         stroke-width="0.5" stroke-linejoin="round"
         points="9,15 15,12 15,2 9,5" />
<polygon fill="white" fill-opacity="0.30" stroke="white"
         stroke-width="0.5" stroke-linejoin="round"
         points="0,3 9,5 15,2 6,0" />
</symbol>
<symbol id="cubeT25">
<polygon fill="orangered" stroke="white"
         stroke-width="0.5" stroke-linejoin="round"
         points="0,13 9,15 15,12 15,2 6,0 0,3" />
<polygon fill="black" fill-opacity="0.25" stroke="white"
         stroke-width="0.5" stroke-linejoin="round"
         points="9,15 15,12 15,2 9,5" />
<polygon fill="white" fill-opacity="0.30" stroke="white"
         stroke-width="0.5" stroke-linejoin="round"
         points="0,3 9,5 15,2 6,0" />
</symbol>
<symbol id="cubeT5">
<polygon fill="darkorange" stroke="white"
         stroke-width="0.5" stroke-linejoin="round"
         points="0,13 9,15 15,12 15,2 6,0 0,3" />
<polygon fill="black" fill-opacity="0.25" stroke="white"
         stroke-width="0.5" stroke-linejoin="round"
         points="9,15 15,12 15,2 9,5" />
<polygon fill="white" fill-opacity="0.30" stroke="white"
         stroke-width="0.5" stroke-linejoin="round"
         points="0,3 9,5 15,2 6,0" />
</symbol>
<symbol id="cubeU5">
<polygon fill="turquoise" stroke="white"
         stroke-width="0.5" stroke-linejoin="round"
         points="0,13 9,15 15,12 15,2 6,0 0,3" />
<polygon fill="black" fill-opacity="0.25" stroke="white"
         stroke-width="0.5" stroke-linejoin="round"
         points="9,15 15,12 15,2 9,5" />
<polygon fill="white" fill-opacity="0.30" stroke="white"
         stroke-width="0.5" stroke-linejoin="round"
         points="0,3 9,5 15,2 6,0" />
</symbol>
<symbol id="cubeV15">
<polygon fill="darkorchid" stroke="white"
         stroke-width="0.5" stroke-linejoin="round"
         points="0,13 9,15 15,12 15,2 6,0 0,3" />
<polygon fill="black" fill-opacity="0.25" stroke="white"
         stroke-width="0.5" stroke-linejoin="round"
         points="9,15 15,12 15,2 9,5" />
<polygon fill="white" fill-opacity="0.30" stroke="white"
         stroke-width="0.5" stroke-linejoin="round"
         points="0,3 9,5 15,2 6,0" />
</symbol>
<symbol id="cubeV25">
<polygon fill="tomato" stroke="white"
         stroke-width="0.5" stroke-linejoin="round"
         points="0,13 9,15 15,12 15,2 6,0 0,3" />
<polygon fill="black" fill-opacity="0.25" stroke="white"
         stroke-width="0.5" stroke-linejoin="round"
         points="9,15 15,12 15,2 9,5" />
<polygon fill="white" fill-opacity="0.30" stroke="white"
         stroke-width="0.5" stroke-linejoin="round"
         points="0,3 9,5 15,2 6,0" />
</symbol>
<symbol id="cubeV5">
<polygon fill="blueviolet" stroke="white"
         stroke-width="0.5" stroke-linejoin="round"
         points="0,13 9,15 15,12 15,2 6,0 0,3" />
<polygon fill="black" fill-opacity="0.25" stroke="white"
         stroke-width="0.5" stroke-linejoin="round"
         points="9,15 15,12 15,2 9,5" />
<polygon fill="white" fill-opacity="0.30" stroke="white"
         stroke-width="0.5" stroke-linejoin="round"
         points="0,3 9,5 15,2 6,0" />
</symbol>
<symbol id="cubeW5">
<polygon fill="maroon" stroke="white"
         stroke-width="0.5" stroke-linejoin="round"
         points="0,13 9,15 15,12 15,2 6,0 0,3" />
<polygon fill="black" fill-opacity="0.25" stroke="white"
         stroke-width="0.5" stroke-linejoin="round"
         points="9,15 15,12 15,2 9,5" />
<polygon fill="white" fill-opacity="0.30" stroke="white"
         stroke-width="0.5" stroke-linejoin="round"
         points="0,3 9,5 15,2 6,0" />
</symbol>
<symbol id="cubeX5">
<polygon fill="red" stroke="white"
         stroke-width="0.5" stroke-linejoin="round"
         points="0,13 9,15 15,12 15,2 6,0 0,3" />
<polygon fill="black" fill-opacity="0.25" stroke="white"
         stroke-width="0.5" stroke-linejoin="round"
         points="9,15 15,12 15,2 9,5" />
<polygon fill="white" fill-opacity="0.30" stroke="white"
         stroke-width="0.5" stroke-linejoin="round"
         points="0,3 9,5 15,2 6,0" />
</symbol>
<symbol id="cubeY5">
<polygon fill="gold" stroke="white"
         stroke-width="0.5" stroke-linejoin="round"
         points="0,13 9,15 15,12 15,2 6,0 0,3" />
<polygon fill="black" fill-opacity="0.25" stroke="white"
         stroke-width="0.5" stroke-linejoin="round"
         points="9,15 15,12 15,2 9,5" />
<polygon fill="white" fill-opacity="0.30" stroke="white"
         stroke-width="0.5" stroke-linejoin="round"
         points="0,3 9,5 15,2 6,0" />
</symbol>
<symbol id="cubeZ5">
<polygon fill="plum" stroke="white"
         stroke-width="0.5" stroke-linejoin="round"
         points="0,13 9,15 15,12 15,2 6,0 0,3" />
<polygon fill="black" fill-opacity="0.25" stroke="white"
         stroke-width="0.5" stroke-linejoin="round"
         points="9,15 15,12 15,2 9,5" />
<polygon fill="white" fill-opacity="0.30" stroke="white"
         stroke-width="0.5" stroke-linejoin="round"
         points="0,3 9,5 15,2 6,0" />
</symbol>
</defs>
<g>
<use xlink:href="#cubeJ15" x="280.000" y="56.000" />
<use xlink:href="#cubeJ15" x="280.000" y="46.000" />
<use xlink:href="#cubeJ45" x="265.000" y="57.000" />
<use xlink:href="#cubeJ15" x="274.000" y="59.000" />
<use xlink:href="#cubeJ45" x="265.000" y="47.000" />
<use xlink:href="#cubeJ45" x="274.000" y="49.000" />
<use xlink:href="#cubeJ25" x="250.000" y="58.000" />
<use xlink:href="#cubeJ15" x="259.000" y="60.000" />
<use xlink:href="#cubeJ15" x="268.000" y="62.000" />
<use xlink:href="#cubeL5" x="250.000" y="48.000" />
<use xlink:href="#cubeL5" x="259.000" y="50.000" />
<use xlink:href="#cubeJ45" x="268.000" y="52.000" />
<use xlink:href="#cubeS15" x="235.000" y="59.000" />
<use xlink:href="#cubeJ25" x="244.000" y="61.000" />
<use xlink:href="#cubeJ25" x="253.000" y="63.000" />
<use xlink:href="#cubeJ25" x="262.000" y="65.000" />
<use xlink:href="#cubeS15" x="235.000" y="49.000" />
<use xlink:href="#cubeL5" x="244.000" y="51.000" />
<use xlink:href="#cubeJ25" x="253.000" y="53.000" />
<use xlink:href="#cubeJ45" x="262.000" y="55.000" />
<use xlink:href="#cubeX5" x="220.000" y="60.000" />
<use xlink:href="#cubeL25" x="229.000" y="62.000" />
<use xlink:href="#cubeL25" x="238.000" y="64.000" />
<use xlink:href="#cubeL25" x="247.000" y="66.000" />
<use xlink:href="#cubeS15" x="220.000" y="50.000" />
<use xlink:href="#cubeS15" x="229.000" y="52.000" />
<use xlink:href="#cubeL5" x="238.000" y="54.000" />
<use xlink:href="#cubeL25" x="247.000" y="56.000" />
<use xlink:href="#cubeX5" x="205.000" y="61.000" />
<use xlink:href="#cubeX5" x="214.000" y="63.000" />
<use xlink:href="#cubeX5" x="223.000" y="65.000" />
<use xlink:href="#cubeL25" x="232.000" y="67.000" />
<use xlink:href="#cubeN5" x="205.000" y="51.000" />
<use xlink:href="#cubeS15" x="214.000" y="53.000" />
<use xlink:href="#cubeS25" x="223.000" y="55.000" />
<use xlink:href="#cubeL5" x="232.000" y="57.000" />
<use xlink:href="#cubeP5" x="190.000" y="62.000" />
<use xlink:href="#cubeP5" x="199.000" y="64.000" />
<use xlink:href="#cubeX5" x="208.000" y="66.000" />
<use xlink:href="#cubeS25" x="217.000" y="68.000" />
<use xlink:href="#cubeN5" x="190.000" y="52.000" />
<use xlink:href="#cubeN5" x="199.000" y="54.000" />
<use xlink:href="#cubeS25" x="208.000" y="56.000" />
<use xlink:href="#cubeS25" x="217.000" y="58.000" />
<use xlink:href="#cubeT25" x="175.000" y="63.000" />
<use xlink:href="#cubeP5" x="184.000" y="65.000" />
<use xlink:href="#cubeP5" x="193.000" y="67.000" />
<use xlink:href="#cubeP5" x="202.000" y="69.000" />
<use xlink:href="#cubeY5" x="175.000" y="53.000" />
<use xlink:href="#cubeN5" x="184.000" y="55.000" />
<use xlink:href="#cubeV15" x="193.000" y="57.000" />
<use xlink:href="#cubeS25" x="202.000" y="59.000" />
<use xlink:href="#cubeT25" x="160.000" y="64.000" />
<use xlink:href="#cubeT25" x="169.000" y="66.000" />
<use xlink:href="#cubeV15" x="178.000" y="68.000" />
<use xlink:href="#cubeV15" x="187.000" y="70.000" />
<use xlink:href="#cubeT25" x="160.000" y="54.000" />
<use xlink:href="#cubeY5" x="169.000" y="56.000" />
<use xlink:href="#cubeN5" x="178.000" y="58.000" />
<use xlink:href="#cubeV15" x="187.000" y="60.000" />
<use xlink:href="#cubeZ5" x="145.000" y="65.000" />
<use xlink:href="#cubeZ5" x="154.000" y="67.000" />
<use xlink:href="#cubeT25" x="163.000" y="69.000" />
<use xlink:href="#cubeV15" x="172.000" y="71.000" />
<use xlink:href="#cubeN15" x="145.000" y="55.000" />
<use xlink:href="#cubeN15" x="154.000" y="57.000" />
<use xlink:href="#cubeY5" x="163.000" y="59.000" />
<use xlink:href="#cubeY5" x="172.000" y="61.000" />
<use xlink:href="#cubeN15" x="130.000" y="66.000" />
<use xlink:href="#cubeZ5" x="139.000" y="68.000" />
<use xlink:href="#cubeQ5" x="148.000" y="70.000" />
<use xlink:href="#cubeQ5" x="157.000" y="72.000" />
<use xlink:href="#cubeN15" x="130.000" y="56.000" />
<use xlink:href="#cubeN15" x="139.000" y="58.000" />
<use xlink:href="#cubeQ5" x="148.000" y="60.000" />
<use xlink:href="#cubeY5" x="157.000" y="62.000" />
<use xlink:href="#cubeL15" x="115.000" y="67.000" />
<use xlink:href="#cubeZ5" x="124.000" y="69.000" />
<use xlink:href="#cubeZ5" x="133.000" y="71.000" />
<use xlink:href="#cubeQ5" x="142.000" y="73.000" />
<use xlink:href="#cubeL15" x="115.000" y="57.000" />
<use xlink:href="#cubeL15" x="124.000" y="59.000" />
<use xlink:href="#cubeL15" x="133.000" y="61.000" />
<use xlink:href="#cubeQ5" x="142.000" y="63.000" />
<use xlink:href="#cubeV25" x="100.000" y="68.000" />
<use xlink:href="#cubeV5" x="109.000" y="70.000" />
<use xlink:href="#cubeV5" x="118.000" y="72.000" />
<use xlink:href="#cubeV5" x="127.000" y="74.000" />
<use xlink:href="#cubeV25" x="100.000" y="58.000" />
<use xlink:href="#cubeV25" x="109.000" y="60.000" />
<use xlink:href="#cubeL35" x="118.000" y="62.000" />
<use xlink:href="#cubeL15" x="127.000" y="64.000" />
<use xlink:href="#cubeV25" x="85.000" y="69.000" />
<use xlink:href="#cubeV25" x="94.000" y="71.000" />
<use xlink:href="#cubeV5" x="103.000" y="73.000" />
<use xlink:href="#cubeL35" x="112.000" y="75.000" />
<use xlink:href="#cubeW5" x="85.000" y="59.000" />
<use xlink:href="#cubeL35" x="94.000" y="61.000" />
<use xlink:href="#cubeL35" x="103.000" y="63.000" />
<use xlink:href="#cubeL35" x="112.000" y="65.000" />
<use xlink:href="#cubeT5" x="70.000" y="70.000" />
<use xlink:href="#cubeT5" x="79.000" y="72.000" />
<use xlink:href="#cubeT5" x="88.000" y="74.000" />
<use xlink:href="#cubeV5" x="97.000" y="76.000" />
<use xlink:href="#cubeW5" x="70.000" y="60.000" />
<use xlink:href="#cubeW5" x="79.000" y="62.000" />
<use xlink:href="#cubeN25" x="88.000" y="64.000" />
<use xlink:href="#cubeN25" x="97.000" y="66.000" />
<use xlink:href="#cubeU5" x="55.000" y="71.000" />
<use xlink:href="#cubeU5" x="64.000" y="73.000" />
<use xlink:href="#cubeT5" x="73.000" y="75.000" />
<use xlink:href="#cubeN25" x="82.000" y="77.000" />
<use xlink:href="#cubeW5" x="55.000" y="61.000" />
<use xlink:href="#cubeW5" x="64.000" y="63.000" />
<use xlink:href="#cubeN25" x="73.000" y="65.000" />
<use xlink:href="#cubeN25" x="82.000" y="67.000" />
<use xlink:href="#cubeL45" x="40.000" y="72.000" />
<use xlink:href="#cubeU5" x="49.000" y="74.000" />
<use xlink:href="#cubeT15" x="58.000" y="76.000" />
<use xlink:href="#cubeT5" x="67.000" y="78.000" />
<use xlink:href="#cubeF5" x="40.000" y="62.000" />
<use xlink:href="#cubeT15" x="49.000" y="64.000" />
<use xlink:href="#cubeT15" x="58.000" y="66.000" />
<use xlink:href="#cubeT15" x="67.000" y="68.000" />
<use xlink:href="#cubeA5" x="25.000" y="73.000" />
<use xlink:href="#cubeL45" x="34.000" y="75.000" />
<use xlink:href="#cubeU5" x="43.000" y="77.000" />
<use xlink:href="#cubeU5" x="52.000" y="79.000" />
<use xlink:href="#cubeA5" x="25.000" y="63.000" />
<use xlink:href="#cubeF5" x="34.000" y="65.000" />
<use xlink:href="#cubeF5" x="43.000" y="67.000" />
<use xlink:href="#cubeT15" x="52.000" y="69.000" />
<use xlink:href="#cubeA5" x="10.000" y="74.000" />
<use xlink:href="#cubeA5" x="19.000" y="76.000" />
<use xlink:href="#cubeL45" x="28.000" y="78.000" />
<use xlink:href="#cubeL45" x="37.000" y="80.000" />
<use xlink:href="#cubeA5" x="10.000" y="64.000" />
<use xlink:href="#cubeF5" x="19.000" y="66.000" />
<use xlink:href="#cubeF5" x="28.000" y="68.000" />
<use xlink:href="#cubeL45" x="37.000" y="70.000" />
</g>
</svg>
