<?xml version="1.0" standalone="no"?>
<!-- Created by Polyform Puzzler (http://puzzler.sourceforge.net/) -->
<svg width="299" height="132" viewBox="0 0 299 132"
     xmlns="http://www.w3.org/2000/svg"
     xmlns:xlink="http://www.w3.org/1999/xlink">
<defs>
<symbol id="cube0">
<polygon fill="gray" stroke="white"
         stroke-width="0.5" stroke-linejoin="round"
         points="0,13 9,15 15,12 15,2 6,0 0,3" />
<polygon fill="black" fill-opacity="0.25" stroke="white"
         stroke-width="0.5" stroke-linejoin="round"
         points="9,15 15,12 15,2 9,5" />
<polygon fill="white" fill-opacity="0.30" stroke="white"
         stroke-width="0.5" stroke-linejoin="round"
         points="0,3 9,5 15,2 6,0" />
</symbol>
<symbol id="cube1">
<polygon fill="black" stroke="white"
         stroke-width="0.5" stroke-linejoin="round"
         points="0,13 9,15 15,12 15,2 6,0 0,3" />
<polygon fill="black" fill-opacity="0.25" stroke="white"
         stroke-width="0.5" stroke-linejoin="round"
         points="9,15 15,12 15,2 9,5" />
<polygon fill="white" fill-opacity="0.30" stroke="white"
         stroke-width="0.5" stroke-linejoin="round"
         points="0,3 9,5 15,2 6,0" />
</symbol>
<symbol id="cubeA">
<polygon fill="cadetblue" stroke="white"
         stroke-width="0.5" stroke-linejoin="round"
         points="0,13 9,15 15,12 15,2 6,0 0,3" />
<polygon fill="black" fill-opacity="0.25" stroke="white"
         stroke-width="0.5" stroke-linejoin="round"
         points="9,15 15,12 15,2 9,5" />
<polygon fill="white" fill-opacity="0.30" stroke="white"
         stroke-width="0.5" stroke-linejoin="round"
         points="0,3 9,5 15,2 6,0" />
</symbol>
<symbol id="cubeF">
<polygon fill="green" stroke="white"
         stroke-width="0.5" stroke-linejoin="round"
         points="0,13 9,15 15,12 15,2 6,0 0,3" />
<polygon fill="black" fill-opacity="0.25" stroke="white"
         stroke-width="0.5" stroke-linejoin="round"
         points="9,15 15,12 15,2 9,5" />
<polygon fill="white" fill-opacity="0.30" stroke="white"
         stroke-width="0.5" stroke-linejoin="round"
         points="0,3 9,5 15,2 6,0" />
</symbol>
<symbol id="cubeI">
<polygon fill="blue" stroke="white"
         stroke-width="0.5" stroke-linejoin="round"
         points="0,13 9,15 15,12 15,2 6,0 0,3" />
<polygon fill="black" fill-opacity="0.25" stroke="white"
         stroke-width="0.5" stroke-linejoin="round"
         points="9,15 15,12 15,2 9,5" />
<polygon fill="white" fill-opacity="0.30" stroke="white"
         stroke-width="0.5" stroke-linejoin="round"
         points="0,3 9,5 15,2 6,0" />
</symbol>
<symbol id="cubeJ1">
<polygon fill="steelblue" stroke="white"
         stroke-width="0.5" stroke-linejoin="round"
         points="0,13 9,15 15,12 15,2 6,0 0,3" />
<polygon fill="black" fill-opacity="0.25" stroke="white"
         stroke-width="0.5" stroke-linejoin="round"
         points="9,15 15,12 15,2 9,5" />
<polygon fill="white" fill-opacity="0.30" stroke="white"
         stroke-width="0.5" stroke-linejoin="round"
         points="0,3 9,5 15,2 6,0" />
</symbol>
<symbol id="cubeJ2">
<polygon fill="gray" stroke="white"
         stroke-width="0.5" stroke-linejoin="round"
         points="0,13 9,15 15,12 15,2 6,0 0,3" />
<polygon fill="black" fill-opacity="0.25" stroke="white"
         stroke-width="0.5" stroke-linejoin="round"
         points="9,15 15,12 15,2 9,5" />
<polygon fill="white" fill-opacity="0.30" stroke="white"
         stroke-width="0.5" stroke-linejoin="round"
         points="0,3 9,5 15,2 6,0" />
</symbol>
<symbol id="cubeJ4">
<polygon fill="lightcoral" stroke="white"
         stroke-width="0.5" stroke-linejoin="round"
         points="0,13 9,15 15,12 15,2 6,0 0,3" />
<polygon fill="black" fill-opacity="0.25" stroke="white"
         stroke-width="0.5" stroke-linejoin="round"
         points="9,15 15,12 15,2 9,5" />
<polygon fill="white" fill-opacity="0.30" stroke="white"
         stroke-width="0.5" stroke-linejoin="round"
         points="0,3 9,5 15,2 6,0" />
</symbol>
<symbol id="cubeL">
<polygon fill="lime" stroke="white"
         stroke-width="0.5" stroke-linejoin="round"
         points="0,13 9,15 15,12 15,2 6,0 0,3" />
<polygon fill="black" fill-opacity="0.25" stroke="white"
         stroke-width="0.5" stroke-linejoin="round"
         points="9,15 15,12 15,2 9,5" />
<polygon fill="white" fill-opacity="0.30" stroke="white"
         stroke-width="0.5" stroke-linejoin="round"
         points="0,3 9,5 15,2 6,0" />
</symbol>
<symbol id="cubeL1">
<polygon fill="darkseagreen" stroke="white"
         stroke-width="0.5" stroke-linejoin="round"
         points="0,13 9,15 15,12 15,2 6,0 0,3" />
<polygon fill="black" fill-opacity="0.25" stroke="white"
         stroke-width="0.5" stroke-linejoin="round"
         points="9,15 15,12 15,2 9,5" />
<polygon fill="white" fill-opacity="0.30" stroke="white"
         stroke-width="0.5" stroke-linejoin="round"
         points="0,3 9,5 15,2 6,0" />
</symbol>
<symbol id="cubeL2">
<polygon fill="peru" stroke="white"
         stroke-width="0.5" stroke-linejoin="round"
         points="0,13 9,15 15,12 15,2 6,0 0,3" />
<polygon fill="black" fill-opacity="0.25" stroke="white"
         stroke-width="0.5" stroke-linejoin="round"
         points="9,15 15,12 15,2 9,5" />
<polygon fill="white" fill-opacity="0.30" stroke="white"
         stroke-width="0.5" stroke-linejoin="round"
         points="0,3 9,5 15,2 6,0" />
</symbol>
<symbol id="cubeL3">
<polygon fill="rosybrown" stroke="white"
         stroke-width="0.5" stroke-linejoin="round"
         points="0,13 9,15 15,12 15,2 6,0 0,3" />
<polygon fill="black" fill-opacity="0.25" stroke="white"
         stroke-width="0.5" stroke-linejoin="round"
         points="9,15 15,12 15,2 9,5" />
<polygon fill="white" fill-opacity="0.30" stroke="white"
         stroke-width="0.5" stroke-linejoin="round"
         points="0,3 9,5 15,2 6,0" />
</symbol>
<symbol id="cubeL4">
<polygon fill="yellowgreen" stroke="white"
         stroke-width="0.5" stroke-linejoin="round"
         points="0,13 9,15 15,12 15,2 6,0 0,3" />
<polygon fill="black" fill-opacity="0.25" stroke="white"
         stroke-width="0.5" stroke-linejoin="round"
         points="9,15 15,12 15,2 9,5" />
<polygon fill="white" fill-opacity="0.30" stroke="white"
         stroke-width="0.5" stroke-linejoin="round"
         points="0,3 9,5 15,2 6,0" />
</symbol>
<symbol id="cubeN">
<polygon fill="navy" stroke="white"
         stroke-width="0.5" stroke-linejoin="round"
         points="0,13 9,15 15,12 15,2 6,0 0,3" />
<polygon fill="black" fill-opacity="0.25" stroke="white"
         stroke-width="0.5" stroke-linejoin="round"
         points="9,15 15,12 15,2 9,5" />
<polygon fill="white" fill-opacity="0.30" stroke="white"
         stroke-width="0.5" stroke-linejoin="round"
         points="0,3 9,5 15,2 6,0" />
</symbol>
<symbol id="cubeN1">
<polygon fill="olive" stroke="white"
         stroke-width="0.5" stroke-linejoin="round"
         points="0,13 9,15 15,12 15,2 6,0 0,3" />
<polygon fill="black" fill-opacity="0.25" stroke="white"
         stroke-width="0.5" stroke-linejoin="round"
         points="9,15 15,12 15,2 9,5" />
<polygon fill="white" fill-opacity="0.30" stroke="white"
         stroke-width="0.5" stroke-linejoin="round"
         points="0,3 9,5 15,2 6,0" />
</symbol>
<symbol id="cubeN2">
<polygon fill="teal" stroke="white"
         stroke-width="0.5" stroke-linejoin="round"
         points="0,13 9,15 15,12 15,2 6,0 0,3" />
<polygon fill="black" fill-opacity="0.25" stroke="white"
         stroke-width="0.5" stroke-linejoin="round"
         points="9,15 15,12 15,2 9,5" />
<polygon fill="white" fill-opacity="0.30" stroke="white"
         stroke-width="0.5" stroke-linejoin="round"
         points="0,3 9,5 15,2 6,0" />
</symbol>
<symbol id="cubeP">
<polygon fill="magenta" stroke="white"
         stroke-width="0.5" stroke-linejoin="round"
         points="0,13 9,15 15,12 15,2 6,0 0,3" />
<polygon fill="black" fill-opacity="0.25" stroke="white"
         stroke-width="0.5" stroke-linejoin="round"
         points="9,15 15,12 15,2 9,5" />
<polygon fill="white" fill-opacity="0.30" stroke="white"
         stroke-width="0.5" stroke-linejoin="round"
         points="0,3 9,5 15,2 6,0" />
</symbol>
<symbol id="cubeQ">
<polygon fill="thistle" stroke="white"
         stroke-width="0.5" stroke-linejoin="round"
         points="0,13 9,15 15,12 15,2 6,0 0,3" />
<polygon fill="black" fill-opacity="0.25" stroke="white"
         stroke-width="0.5" stroke-linejoin="round"
         points="9,15 15,12 15,2 9,5" />
<polygon fill="white" fill-opacity="0.30" stroke="white"
         stroke-width="0.5" stroke-linejoin="round"
         points="0,3 9,5 15,2 6,0" />
</symbol>
<symbol id="cubeS1">
<polygon fill="tan" stroke="white"
         stroke-width="0.5" stroke-linejoin="round"
         points="0,13 9,15 15,12 15,2 6,0 0,3" />
<polygon fill="black" fill-opacity="0.25" stroke="white"
         stroke-width="0.5" stroke-linejoin="round"
         points="9,15 15,12 15,2 9,5" />
<polygon fill="white" fill-opacity="0.30" stroke="white"
         stroke-width="0.5" stroke-linejoin="round"
         points="0,3 9,5 15,2 6,0" />
</symbol>
<symbol id="cubeS2">
<polygon fill="indigo" stroke="white"
         stroke-width="0.5" stroke-linejoin="round"
         points="0,13 9,15 15,12 15,2 6,0 0,3" />
<polygon fill="black" fill-opacity="0.25" stroke="white"
         stroke-width="0.5" stroke-linejoin="round"
         points="9,15 15,12 15,2 9,5" />
<polygon fill="white" fill-opacity="0.30" stroke="white"
         stroke-width="0.5" stroke-linejoin="round"
         points="0,3 9,5 15,2 6,0" />
</symbol>
<symbol id="cubeT">
<polygon fill="darkorange" stroke="white"
         stroke-width="0.5" stroke-linejoin="round"
         points="0,13 9,15 15,12 15,2 6,0 0,3" />
<polygon fill="black" fill-opacity="0.25" stroke="white"
         stroke-width="0.5" stroke-linejoin="round"
         points="9,15 15,12 15,2 9,5" />
<polygon fill="white" fill-opacity="0.30" stroke="white"
         stroke-width="0.5" stroke-linejoin="round"
         points="0,3 9,5 15,2 6,0" />
</symbol>
<symbol id="cubeT1">
<polygon fill="yellow" stroke="white"
         stroke-width="0.5" stroke-linejoin="round"
         points="0,13 9,15 15,12 15,2 6,0 0,3" />
<polygon fill="black" fill-opacity="0.25" stroke="white"
         stroke-width="0.5" stroke-linejoin="round"
         points="9,15 15,12 15,2 9,5" />
<polygon fill="white" fill-opacity="0.30" stroke="white"
         stroke-width="0.5" stroke-linejoin="round"
         points="0,3 9,5 15,2 6,0" />
</symbol>
<symbol id="cubeT2">
<polygon fill="orangered" stroke="white"
         stroke-width="0.5" stroke-linejoin="round"
         points="0,13 9,15 15,12 15,2 6,0 0,3" />
<polygon fill="black" fill-opacity="0.25" stroke="white"
         stroke-width="0.5" stroke-linejoin="round"
         points="9,15 15,12 15,2 9,5" />
<polygon fill="white" fill-opacity="0.30" stroke="white"
         stroke-width="0.5" stroke-linejoin="round"
         points="0,3 9,5 15,2 6,0" />
</symbol>
<symbol id="cubeU">
<polygon fill="turquoise" stroke="white"
         stroke-width="0.5" stroke-linejoin="round"
         points="0,13 9,15 15,12 15,2 6,0 0,3" />
<polygon fill="black" fill-opacity="0.25" stroke="white"
         stroke-width="0.5" stroke-linejoin="round"
         points="9,15 15,12 15,2 9,5" />
<polygon fill="white" fill-opacity="0.30" stroke="white"
         stroke-width="0.5" stroke-linejoin="round"
         points="0,3 9,5 15,2 6,0" />
</symbol>
<symbol id="cubeV">
<polygon fill="blueviolet" stroke="white"
         stroke-width="0.5" stroke-linejoin="round"
         points="0,13 9,15 15,12 15,2 6,0 0,3" />
<polygon fill="black" fill-opacity="0.25" stroke="white"
         stroke-width="0.5" stroke-linejoin="round"
         points="9,15 15,12 15,2 9,5" />
<polygon fill="white" fill-opacity="0.30" stroke="white"
         stroke-width="0.5" stroke-linejoin="round"
         points="0,3 9,5 15,2 6,0" />
</symbol>
<symbol id="cubeV1">
<polygon fill="darkorchid" stroke="white"
         stroke-width="0.5" stroke-linejoin="round"
         points="0,13 9,15 15,12 15,2 6,0 0,3" />
<polygon fill="black" fill-opacity="0.25" stroke="white"
         stroke-width="0.5" stroke-linejoin="round"
         points="9,15 15,12 15,2 9,5" />
<polygon fill="white" fill-opacity="0.30" stroke="white"
         stroke-width="0.5" stroke-linejoin="round"
         points="0,3 9,5 15,2 6,0" />
</symbol>
<symbol id="cubeV2">
<polygon fill="tomato" stroke="white"
         stroke-width="0.5" stroke-linejoin="round"
         points="0,13 9,15 15,12 15,2 6,0 0,3" />
<polygon fill="black" fill-opacity="0.25" stroke="white"
         stroke-width="0.5" stroke-linejoin="round"
         points="9,15 15,12 15,2 9,5" />
<polygon fill="white" fill-opacity="0.30" stroke="white"
         stroke-width="0.5" stroke-linejoin="round"
         points="0,3 9,5 15,2 6,0" />
</symbol>
<symbol id="cubeW">
<polygon fill="maroon" stroke="white"
         stroke-width="0.5" stroke-linejoin="round"
         points="0,13 9,15 15,12 15,2 6,0 0,3" />
<polygon fill="black" fill-opacity="0.25" stroke="white"
         stroke-width="0.5" stroke-linejoin="round"
         points="9,15 15,12 15,2 9,5" />
<polygon fill="white" fill-opacity="0.30" stroke="white"
         stroke-width="0.5" stroke-linejoin="round"
         points="0,3 9,5 15,2 6,0" />
</symbol>
<symbol id="cubeX">
<polygon fill="red" stroke="white"
         stroke-width="0.5" stroke-linejoin="round"
         points="0,13 9,15 15,12 15,2 6,0 0,3" />
<polygon fill="black" fill-opacity="0.25" stroke="white"
         stroke-width="0.5" stroke-linejoin="round"
         points="9,15 15,12 15,2 9,5" />
<polygon fill="white" fill-opacity="0.30" stroke="white"
         stroke-width="0.5" stroke-linejoin="round"
         points="0,3 9,5 15,2 6,0" />
</symbol>
<symbol id="cubeY">
<polygon fill="gold" stroke="white"
         stroke-width="0.5" stroke-linejoin="round"
         points="0,13 9,15 15,12 15,2 6,0 0,3" />
<polygon fill="black" fill-opacity="0.25" stroke="white"
         stroke-width="0.5" stroke-linejoin="round"
         points="9,15 15,12 15,2 9,5" />
<polygon fill="white" fill-opacity="0.30" stroke="white"
         stroke-width="0.5" stroke-linejoin="round"
         points="0,3 9,5 15,2 6,0" />
</symbol>
<symbol id="cubeZ">
<polygon fill="plum" stroke="white"
         stroke-width="0.5" stroke-linejoin="round"
         points="0,13 9,15 15,12 15,2 6,0 0,3" />
<polygon fill="black" fill-opacity="0.25" stroke="white"
         stroke-width="0.5" stroke-linejoin="round"
         points="9,15 15,12 15,2 9,5" />
<polygon fill="white" fill-opacity="0.30" stroke="white"
         stroke-width="0.5" stroke-linejoin="round"
         points="0,3 9,5 15,2 6,0" />
</symbol>
</defs>
<g>
<use xlink:href="#cubeT1" x="256.000" y="52.000" />
<use xlink:href="#cubeT1" x="265.000" y="54.000" />
<use xlink:href="#cubeT1" x="274.000" y="56.000" />
<use xlink:href="#cubeV" x="256.000" y="42.000" />
<use xlink:href="#cubeT1" x="265.000" y="44.000" />
<use xlink:href="#cubeS2" x="274.000" y="46.000" />
<use xlink:href="#cubeZ" x="250.000" y="55.000" />
<use xlink:href="#cubeT1" x="259.000" y="57.000" />
<use xlink:href="#cubeS2" x="268.000" y="59.000" />
<use xlink:href="#cubeV" x="250.000" y="45.000" />
<use xlink:href="#cubeS2" x="259.000" y="47.000" />
<use xlink:href="#cubeS2" x="268.000" y="49.000" />
<use xlink:href="#cubeZ" x="226.000" y="54.000" />
<use xlink:href="#cubeZ" x="235.000" y="56.000" />
<use xlink:href="#cubeZ" x="244.000" y="58.000" />
<use xlink:href="#cubeL4" x="253.000" y="60.000" />
<use xlink:href="#cubeV" x="226.000" y="44.000" />
<use xlink:href="#cubeV" x="235.000" y="46.000" />
<use xlink:href="#cubeV" x="244.000" y="48.000" />
<use xlink:href="#cubeS2" x="253.000" y="50.000" />
<use xlink:href="#cubeZ" x="220.000" y="57.000" />
<use xlink:href="#cubeW" x="229.000" y="59.000" />
<use xlink:href="#cubeW" x="238.000" y="61.000" />
<use xlink:href="#cubeL4" x="247.000" y="63.000" />
<use xlink:href="#cubeN1" x="220.000" y="47.000" />
<use xlink:href="#cubeL4" x="229.000" y="49.000" />
<use xlink:href="#cubeL4" x="238.000" y="51.000" />
<use xlink:href="#cubeL4" x="247.000" y="53.000" />
<use xlink:href="#cubeV2" x="196.000" y="56.000" />
<use xlink:href="#cubeV2" x="205.000" y="58.000" />
<use xlink:href="#cubeW" x="214.000" y="60.000" />
<use xlink:href="#cubeW" x="223.000" y="62.000" />
<use xlink:href="#cubeT2" x="196.000" y="46.000" />
<use xlink:href="#cubeV2" x="205.000" y="48.000" />
<use xlink:href="#cubeN1" x="214.000" y="50.000" />
<use xlink:href="#cubeN1" x="223.000" y="52.000" />
<use xlink:href="#cubeT2" x="190.000" y="59.000" />
<use xlink:href="#cubeT2" x="199.000" y="61.000" />
<use xlink:href="#cubeW" x="208.000" y="63.000" />
<use xlink:href="#cubeN1" x="217.000" y="65.000" />
<use xlink:href="#cubeT2" x="190.000" y="49.000" />
<use xlink:href="#cubeV2" x="199.000" y="51.000" />
<use xlink:href="#cubeV2" x="208.000" y="53.000" />
<use xlink:href="#cubeN1" x="217.000" y="55.000" />
<use xlink:href="#cubeS1" x="166.000" y="58.000" />
<use xlink:href="#cubeV1" x="175.000" y="60.000" />
<use xlink:href="#cubeQ" x="184.000" y="62.000" />
<use xlink:href="#cubeQ" x="193.000" y="64.000" />
<use xlink:href="#cubeV1" x="166.000" y="48.000" />
<use xlink:href="#cubeV1" x="175.000" y="50.000" />
<use xlink:href="#cubeT2" x="184.000" y="52.000" />
<use xlink:href="#cubeQ" x="193.000" y="54.000" />
<use xlink:href="#cubeS1" x="160.000" y="61.000" />
<use xlink:href="#cubeV1" x="169.000" y="63.000" />
<use xlink:href="#cubeV1" x="178.000" y="65.000" />
<use xlink:href="#cubeQ" x="187.000" y="67.000" />
<use xlink:href="#cubeS1" x="160.000" y="51.000" />
<use xlink:href="#cubeL2" x="169.000" y="53.000" />
<use xlink:href="#cubeL2" x="178.000" y="55.000" />
<use xlink:href="#cubeQ" x="187.000" y="57.000" />
<use xlink:href="#cubeY" x="136.000" y="60.000" />
<use xlink:href="#cubeN2" x="145.000" y="62.000" />
<use xlink:href="#cubeN2" x="154.000" y="64.000" />
<use xlink:href="#cubeL2" x="163.000" y="66.000" />
<use xlink:href="#cubeT" x="136.000" y="50.000" />
<use xlink:href="#cubeS1" x="145.000" y="52.000" />
<use xlink:href="#cubeS1" x="154.000" y="54.000" />
<use xlink:href="#cubeL2" x="163.000" y="56.000" />
<use xlink:href="#cubeY" x="130.000" y="63.000" />
<use xlink:href="#cubeU" x="139.000" y="65.000" />
<use xlink:href="#cubeN2" x="148.000" y="67.000" />
<use xlink:href="#cubeN2" x="157.000" y="69.000" />
<use xlink:href="#cubeT" x="130.000" y="53.000" />
<use xlink:href="#cubeU" x="139.000" y="55.000" />
<use xlink:href="#cubeN2" x="148.000" y="57.000" />
<use xlink:href="#cubeL2" x="157.000" y="59.000" />
<use xlink:href="#cubeP" x="106.000" y="62.000" />
<use xlink:href="#cubeY" x="115.000" y="64.000" />
<use xlink:href="#cubeY" x="124.000" y="66.000" />
<use xlink:href="#cubeU" x="133.000" y="68.000" />
<use xlink:href="#cubeN" x="106.000" y="52.000" />
<use xlink:href="#cubeT" x="115.000" y="54.000" />
<use xlink:href="#cubeT" x="124.000" y="56.000" />
<use xlink:href="#cubeT" x="133.000" y="58.000" />
<use xlink:href="#cubeP" x="100.000" y="65.000" />
<use xlink:href="#cubeP" x="109.000" y="67.000" />
<use xlink:href="#cubeY" x="118.000" y="69.000" />
<use xlink:href="#cubeU" x="127.000" y="71.000" />
<use xlink:href="#cubeN" x="100.000" y="55.000" />
<use xlink:href="#cubeL1" x="109.000" y="57.000" />
<use xlink:href="#cubeL1" x="118.000" y="59.000" />
<use xlink:href="#cubeU" x="127.000" y="61.000" />
<use xlink:href="#cubeJ1" x="76.000" y="64.000" />
<use xlink:href="#cubeJ2" x="85.000" y="66.000" />
<use xlink:href="#cubeP" x="94.000" y="68.000" />
<use xlink:href="#cubeP" x="103.000" y="70.000" />
<use xlink:href="#cubeJ1" x="76.000" y="54.000" />
<use xlink:href="#cubeN" x="85.000" y="56.000" />
<use xlink:href="#cubeN" x="94.000" y="58.000" />
<use xlink:href="#cubeL1" x="103.000" y="60.000" />
<use xlink:href="#cubeJ2" x="70.000" y="67.000" />
<use xlink:href="#cubeJ2" x="79.000" y="69.000" />
<use xlink:href="#cubeJ2" x="88.000" y="71.000" />
<use xlink:href="#cubeL1" x="97.000" y="73.000" />
<use xlink:href="#cubeJ1" x="70.000" y="57.000" />
<use xlink:href="#cubeN" x="79.000" y="59.000" />
<use xlink:href="#cubeJ2" x="88.000" y="61.000" />
<use xlink:href="#cubeL1" x="97.000" y="63.000" />
<use xlink:href="#cubeJ4" x="46.000" y="66.000" />
<use xlink:href="#cubeJ4" x="55.000" y="68.000" />
<use xlink:href="#cubeJ4" x="64.000" y="70.000" />
<use xlink:href="#cubeL3" x="73.000" y="72.000" />
<use xlink:href="#cubeJ4" x="46.000" y="56.000" />
<use xlink:href="#cubeF" x="55.000" y="58.000" />
<use xlink:href="#cubeJ1" x="64.000" y="60.000" />
<use xlink:href="#cubeJ1" x="73.000" y="62.000" />
<use xlink:href="#cubeX" x="40.000" y="69.000" />
<use xlink:href="#cubeL3" x="49.000" y="71.000" />
<use xlink:href="#cubeL3" x="58.000" y="73.000" />
<use xlink:href="#cubeL3" x="67.000" y="75.000" />
<use xlink:href="#cubeJ4" x="40.000" y="59.000" />
<use xlink:href="#cubeF" x="49.000" y="61.000" />
<use xlink:href="#cubeF" x="58.000" y="63.000" />
<use xlink:href="#cubeL3" x="67.000" y="65.000" />
<use xlink:href="#cubeA" x="16.000" y="68.000" />
<use xlink:href="#cubeX" x="25.000" y="70.000" />
<use xlink:href="#cubeX" x="34.000" y="72.000" />
<use xlink:href="#cubeX" x="43.000" y="74.000" />
<use xlink:href="#cubeA" x="16.000" y="58.000" />
<use xlink:href="#cubeA" x="25.000" y="60.000" />
<use xlink:href="#cubeF" x="34.000" y="62.000" />
<use xlink:href="#cubeF" x="43.000" y="64.000" />
<use xlink:href="#cubeA" x="10.000" y="71.000" />
<use xlink:href="#cubeA" x="19.000" y="73.000" />
<use xlink:href="#cubeX" x="28.000" y="75.000" />
<use xlink:href="#cubeL" x="37.000" y="77.000" />
<use xlink:href="#cubeL" x="10.000" y="61.000" />
<use xlink:href="#cubeL" x="19.000" y="63.000" />
<use xlink:href="#cubeL" x="28.000" y="65.000" />
<use xlink:href="#cubeL" x="37.000" y="67.000" />
</g>
</svg>
