<?xml version="1.0" standalone="no"?>
<!-- Created by Polyform Puzzler (http://puzzler.sourceforge.net/) -->
<svg width="83" height="109" viewBox="0 0 83 109"
     xmlns="http://www.w3.org/2000/svg"
     xmlns:xlink="http://www.w3.org/1999/xlink">
<defs>
<symbol id="cube0">
<polygon fill="gray" stroke="white"
         stroke-width="0.5" stroke-linejoin="round"
         points="0,13 9,15 15,12 15,2 6,0 0,3" />
<polygon fill="black" fill-opacity="0.25" stroke="white"
         stroke-width="0.5" stroke-linejoin="round"
         points="9,15 15,12 15,2 9,5" />
<polygon fill="white" fill-opacity="0.30" stroke="white"
         stroke-width="0.5" stroke-linejoin="round"
         points="0,3 9,5 15,2 6,0" />
</symbol>
<symbol id="cubeF">
<polygon fill="green" stroke="white"
         stroke-width="0.5" stroke-linejoin="round"
         points="0,13 9,15 15,12 15,2 6,0 0,3" />
<polygon fill="black" fill-opacity="0.25" stroke="white"
         stroke-width="0.5" stroke-linejoin="round"
         points="9,15 15,12 15,2 9,5" />
<polygon fill="white" fill-opacity="0.30" stroke="white"
         stroke-width="0.5" stroke-linejoin="round"
         points="0,3 9,5 15,2 6,0" />
</symbol>
<symbol id="cubeI">
<polygon fill="blue" stroke="white"
         stroke-width="0.5" stroke-linejoin="round"
         points="0,13 9,15 15,12 15,2 6,0 0,3" />
<polygon fill="black" fill-opacity="0.25" stroke="white"
         stroke-width="0.5" stroke-linejoin="round"
         points="9,15 15,12 15,2 9,5" />
<polygon fill="white" fill-opacity="0.30" stroke="white"
         stroke-width="0.5" stroke-linejoin="round"
         points="0,3 9,5 15,2 6,0" />
</symbol>
<symbol id="cubeL">
<polygon fill="lime" stroke="white"
         stroke-width="0.5" stroke-linejoin="round"
         points="0,13 9,15 15,12 15,2 6,0 0,3" />
<polygon fill="black" fill-opacity="0.25" stroke="white"
         stroke-width="0.5" stroke-linejoin="round"
         points="9,15 15,12 15,2 9,5" />
<polygon fill="white" fill-opacity="0.30" stroke="white"
         stroke-width="0.5" stroke-linejoin="round"
         points="0,3 9,5 15,2 6,0" />
</symbol>
<symbol id="cubeN">
<polygon fill="navy" stroke="white"
         stroke-width="0.5" stroke-linejoin="round"
         points="0,13 9,15 15,12 15,2 6,0 0,3" />
<polygon fill="black" fill-opacity="0.25" stroke="white"
         stroke-width="0.5" stroke-linejoin="round"
         points="9,15 15,12 15,2 9,5" />
<polygon fill="white" fill-opacity="0.30" stroke="white"
         stroke-width="0.5" stroke-linejoin="round"
         points="0,3 9,5 15,2 6,0" />
</symbol>
<symbol id="cubeP">
<polygon fill="magenta" stroke="white"
         stroke-width="0.5" stroke-linejoin="round"
         points="0,13 9,15 15,12 15,2 6,0 0,3" />
<polygon fill="black" fill-opacity="0.25" stroke="white"
         stroke-width="0.5" stroke-linejoin="round"
         points="9,15 15,12 15,2 9,5" />
<polygon fill="white" fill-opacity="0.30" stroke="white"
         stroke-width="0.5" stroke-linejoin="round"
         points="0,3 9,5 15,2 6,0" />
</symbol>
<symbol id="cubeT">
<polygon fill="darkorange" stroke="white"
         stroke-width="0.5" stroke-linejoin="round"
         points="0,13 9,15 15,12 15,2 6,0 0,3" />
<polygon fill="black" fill-opacity="0.25" stroke="white"
         stroke-width="0.5" stroke-linejoin="round"
         points="9,15 15,12 15,2 9,5" />
<polygon fill="white" fill-opacity="0.30" stroke="white"
         stroke-width="0.5" stroke-linejoin="round"
         points="0,3 9,5 15,2 6,0" />
</symbol>
<symbol id="cubeU">
<polygon fill="turquoise" stroke="white"
         stroke-width="0.5" stroke-linejoin="round"
         points="0,13 9,15 15,12 15,2 6,0 0,3" />
<polygon fill="black" fill-opacity="0.25" stroke="white"
         stroke-width="0.5" stroke-linejoin="round"
         points="9,15 15,12 15,2 9,5" />
<polygon fill="white" fill-opacity="0.30" stroke="white"
         stroke-width="0.5" stroke-linejoin="round"
         points="0,3 9,5 15,2 6,0" />
</symbol>
<symbol id="cubeV">
<polygon fill="blueviolet" stroke="white"
         stroke-width="0.5" stroke-linejoin="round"
         points="0,13 9,15 15,12 15,2 6,0 0,3" />
<polygon fill="black" fill-opacity="0.25" stroke="white"
         stroke-width="0.5" stroke-linejoin="round"
         points="9,15 15,12 15,2 9,5" />
<polygon fill="white" fill-opacity="0.30" stroke="white"
         stroke-width="0.5" stroke-linejoin="round"
         points="0,3 9,5 15,2 6,0" />
</symbol>
<symbol id="cubeW">
<polygon fill="maroon" stroke="white"
         stroke-width="0.5" stroke-linejoin="round"
         points="0,13 9,15 15,12 15,2 6,0 0,3" />
<polygon fill="black" fill-opacity="0.25" stroke="white"
         stroke-width="0.5" stroke-linejoin="round"
         points="9,15 15,12 15,2 9,5" />
<polygon fill="white" fill-opacity="0.30" stroke="white"
         stroke-width="0.5" stroke-linejoin="round"
         points="0,3 9,5 15,2 6,0" />
</symbol>
<symbol id="cubeX">
<polygon fill="red" stroke="white"
         stroke-width="0.5" stroke-linejoin="round"
         points="0,13 9,15 15,12 15,2 6,0 0,3" />
<polygon fill="black" fill-opacity="0.25" stroke="white"
         stroke-width="0.5" stroke-linejoin="round"
         points="9,15 15,12 15,2 9,5" />
<polygon fill="white" fill-opacity="0.30" stroke="white"
         stroke-width="0.5" stroke-linejoin="round"
         points="0,3 9,5 15,2 6,0" />
</symbol>
<symbol id="cubeY">
<polygon fill="gold" stroke="white"
         stroke-width="0.5" stroke-linejoin="round"
         points="0,13 9,15 15,12 15,2 6,0 0,3" />
<polygon fill="black" fill-opacity="0.25" stroke="white"
         stroke-width="0.5" stroke-linejoin="round"
         points="9,15 15,12 15,2 9,5" />
<polygon fill="white" fill-opacity="0.30" stroke="white"
         stroke-width="0.5" stroke-linejoin="round"
         points="0,3 9,5 15,2 6,0" />
</symbol>
<symbol id="cubeZ">
<polygon fill="plum" stroke="white"
         stroke-width="0.5" stroke-linejoin="round"
         points="0,13 9,15 15,12 15,2 6,0 0,3" />
<polygon fill="black" fill-opacity="0.25" stroke="white"
         stroke-width="0.5" stroke-linejoin="round"
         points="9,15 15,12 15,2 9,5" />
<polygon fill="white" fill-opacity="0.30" stroke="white"
         stroke-width="0.5" stroke-linejoin="round"
         points="0,3 9,5 15,2 6,0" />
</symbol>
</defs>
<g>
<use xlink:href="#cubeI" x="22.000" y="70.000" />
<use xlink:href="#cubeT" x="31.000" y="72.000" />
<use xlink:href="#cubeF" x="40.000" y="74.000" />
<use xlink:href="#cubeU" x="49.000" y="76.000" />
<use xlink:href="#cubeU" x="58.000" y="78.000" />
<use xlink:href="#cubeI" x="22.000" y="60.000" />
<use xlink:href="#cubeT" x="31.000" y="62.000" />
<use xlink:href="#cubeT" x="40.000" y="64.000" />
<use xlink:href="#cubeT" x="49.000" y="66.000" />
<use xlink:href="#cubeU" x="58.000" y="68.000" />
<use xlink:href="#cubeI" x="22.000" y="50.000" />
<use xlink:href="#cubeT" x="31.000" y="52.000" />
<use xlink:href="#cubeX" x="40.000" y="54.000" />
<use xlink:href="#cubeU" x="49.000" y="56.000" />
<use xlink:href="#cubeU" x="58.000" y="58.000" />
<use xlink:href="#cubeI" x="22.000" y="40.000" />
<use xlink:href="#cubeX" x="31.000" y="42.000" />
<use xlink:href="#cubeX" x="40.000" y="44.000" />
<use xlink:href="#cubeX" x="49.000" y="46.000" />
<use xlink:href="#cubeI" x="22.000" y="30.000" />
<use xlink:href="#cubeW" x="31.000" y="32.000" />
<use xlink:href="#cubeX" x="40.000" y="34.000" />
<use xlink:href="#cubeN" x="22.000" y="20.000" />
<use xlink:href="#cubeW" x="31.000" y="22.000" />
<use xlink:href="#cubeN" x="22.000" y="10.000" />
<use xlink:href="#cubeF" x="16.000" y="73.000" />
<use xlink:href="#cubeF" x="25.000" y="75.000" />
<use xlink:href="#cubeF" x="34.000" y="77.000" />
<use xlink:href="#cubeP" x="43.000" y="79.000" />
<use xlink:href="#cubeP" x="52.000" y="81.000" />
<use xlink:href="#cubeZ" x="16.000" y="63.000" />
<use xlink:href="#cubeY" x="25.000" y="65.000" />
<use xlink:href="#cubeY" x="34.000" y="67.000" />
<use xlink:href="#cubeY" x="43.000" y="69.000" />
<use xlink:href="#cubeY" x="52.000" y="71.000" />
<use xlink:href="#cubeZ" x="16.000" y="53.000" />
<use xlink:href="#cubeZ" x="25.000" y="55.000" />
<use xlink:href="#cubeZ" x="34.000" y="57.000" />
<use xlink:href="#cubeY" x="43.000" y="59.000" />
<use xlink:href="#cubeN" x="16.000" y="43.000" />
<use xlink:href="#cubeW" x="25.000" y="45.000" />
<use xlink:href="#cubeZ" x="34.000" y="47.000" />
<use xlink:href="#cubeN" x="16.000" y="33.000" />
<use xlink:href="#cubeW" x="25.000" y="35.000" />
<use xlink:href="#cubeN" x="16.000" y="23.000" />
<use xlink:href="#cubeL" x="10.000" y="76.000" />
<use xlink:href="#cubeF" x="19.000" y="78.000" />
<use xlink:href="#cubeP" x="28.000" y="80.000" />
<use xlink:href="#cubeP" x="37.000" y="82.000" />
<use xlink:href="#cubeP" x="46.000" y="84.000" />
<use xlink:href="#cubeL" x="10.000" y="66.000" />
<use xlink:href="#cubeL" x="19.000" y="68.000" />
<use xlink:href="#cubeL" x="28.000" y="70.000" />
<use xlink:href="#cubeL" x="37.000" y="72.000" />
<use xlink:href="#cubeV" x="10.000" y="56.000" />
<use xlink:href="#cubeV" x="19.000" y="58.000" />
<use xlink:href="#cubeV" x="28.000" y="60.000" />
<use xlink:href="#cubeV" x="10.000" y="46.000" />
<use xlink:href="#cubeW" x="19.000" y="48.000" />
<use xlink:href="#cubeV" x="10.000" y="36.000" />
</g>
</svg>
