<?xml version="1.0" standalone="no"?>
<!-- Created by Polyform Puzzler (http://puzzler.sourceforge.net/) -->
<svg width="190.000" height="80.000"
     viewBox="0 0 190.000 80.000"
     xmlns="http://www.w3.org/2000/svg"
     xmlns:xlink="http://www.w3.org/1999/xlink">
<g>
<polygon fill="blue" stroke="white" stroke-width="1"
         points="10.000,70.000 50.000,70.000 50.000,50.000 40.000,50.000 40.000,60.000 30.000,60.000 30.000,50.000 20.000,50.000 20.000,60.000 10.000,60.000">
<desc>U06</desc>
</polygon>
<polygon fill="gold" stroke="white" stroke-width="1"
         points="50.000,70.000 80.000,70.000 80.000,60.000 60.000,60.000 60.000,40.000 40.000,40.000 40.000,50.000 50.000,50.000">
<desc>Z16</desc>
</polygon>
<polygon fill="green" stroke="white" stroke-width="1"
         points="80.000,70.000 100.000,70.000 100.000,60.000 90.000,60.000 90.000,50.000 70.000,50.000 70.000,40.000 60.000,40.000 60.000,60.000 80.000,60.000">
<desc>M06</desc>
</polygon>
<polygon fill="green" stroke="white" stroke-width="1"
         points="100.000,70.000 130.000,70.000 130.000,60.000 140.000,60.000 140.000,40.000 130.000,40.000 130.000,50.000 120.000,50.000 120.000,60.000 100.000,60.000">
<desc>W06</desc>
</polygon>
<polygon fill="turquoise" stroke="white" stroke-width="1"
         points="130.000,70.000 180.000,70.000 180.000,60.000 150.000,60.000 150.000,50.000 140.000,50.000 140.000,60.000 130.000,60.000">
<desc>Y06</desc>
</polygon>
<polygon fill="maroon" stroke="white" stroke-width="1"
         points="10.000,60.000 20.000,60.000 20.000,50.000 30.000,50.000 30.000,60.000 40.000,60.000 40.000,40.000 20.000,40.000 20.000,30.000 10.000,30.000">
<desc>H06</desc>
</polygon>
<polygon fill="darkorange" stroke="white" stroke-width="1"
         points="90.000,60.000 110.000,60.000 110.000,50.000 100.000,50.000 100.000,30.000 90.000,30.000 90.000,40.000 70.000,40.000 70.000,50.000 90.000,50.000">
<desc>F26</desc>
</polygon>
<polygon fill="navy" stroke="white" stroke-width="1"
         points="110.000,60.000 120.000,60.000 120.000,50.000 130.000,50.000 130.000,40.000 140.000,40.000 140.000,30.000 130.000,30.000 130.000,20.000 120.000,20.000 120.000,40.000 110.000,40.000">
<desc>W26</desc>
</polygon>
<polygon fill="red" stroke="white" stroke-width="1"
         points="150.000,60.000 180.000,60.000 180.000,20.000 170.000,20.000 170.000,50.000 150.000,50.000">
<desc>V06</desc>
</polygon>
<polygon fill="magenta" stroke="white" stroke-width="1"
         points="100.000,50.000 110.000,50.000 110.000,40.000 120.000,40.000 120.000,30.000 110.000,30.000 110.000,10.000 90.000,10.000 90.000,20.000 100.000,20.000">
<desc>F16</desc>
</polygon>
<polygon fill="plum" stroke="white" stroke-width="1"
         points="140.000,50.000 170.000,50.000 170.000,20.000 160.000,20.000 160.000,40.000 150.000,40.000 150.000,30.000 140.000,30.000">
<desc>J06</desc>
</polygon>
<polygon fill="navy" stroke="white" stroke-width="1"
         points="20.000,40.000 30.000,40.000 30.000,30.000 50.000,30.000 50.000,20.000 20.000,20.000 20.000,10.000 10.000,10.000 10.000,30.000 20.000,30.000">
<desc>F06</desc>
</polygon>
<polygon fill="red" stroke="white" stroke-width="1"
         points="30.000,40.000 80.000,40.000 80.000,20.000 70.000,20.000 70.000,30.000 30.000,30.000">
<desc>L06</desc>
</polygon>
<polygon fill="turquoise" stroke="white" stroke-width="1"
         points="80.000,40.000 90.000,40.000 90.000,30.000 100.000,30.000 100.000,20.000 90.000,20.000 90.000,10.000 60.000,10.000 60.000,20.000 80.000,20.000">
<desc>F36</desc>
</polygon>
<polygon fill="plum" stroke="white" stroke-width="1"
         points="150.000,40.000 160.000,40.000 160.000,20.000 180.000,20.000 180.000,10.000 140.000,10.000 140.000,20.000 150.000,20.000">
<desc>T16</desc>
</polygon>
<polygon fill="navy" stroke="white" stroke-width="1"
         points="50.000,30.000 70.000,30.000 70.000,20.000 60.000,20.000 60.000,10.000 20.000,10.000 20.000,20.000 50.000,20.000">
<desc>N16</desc>
</polygon>
<polygon fill="blueviolet" stroke="white" stroke-width="1"
         points="110.000,30.000 120.000,30.000 120.000,20.000 130.000,20.000 130.000,30.000 150.000,30.000 150.000,20.000 140.000,20.000 140.000,10.000 110.000,10.000">
<desc>G06</desc>
</polygon>
</g>
</svg>
