<?xml version="1.0" standalone="no"?>
<!-- Created by Polyform Puzzler (http://puzzler.sourceforge.net/) -->
<svg width="300.000" height="160.000"
     viewBox="0 0 300.000 160.000"
     xmlns="http://www.w3.org/2000/svg"
     xmlns:xlink="http://www.w3.org/1999/xlink">
<g>
<polygon fill="green" stroke="white" stroke-width="1"
         points="10.000,150.000 50.000,150.000 50.000,140.000 40.000,140.000 40.000,130.000 20.000,130.000 20.000,140.000 10.000,140.000">
<desc>D06</desc>
</polygon>
<polygon fill="turquoise" stroke="white" stroke-width="1"
         points="50.000,150.000 80.000,150.000 80.000,140.000 90.000,140.000 90.000,130.000 80.000,130.000 80.000,120.000 70.000,120.000 70.000,140.000 50.000,140.000">
<desc>F36</desc>
</polygon>
<polygon fill="navy" stroke="white" stroke-width="1"
         points="80.000,150.000 100.000,150.000 100.000,140.000 110.000,140.000 110.000,130.000 100.000,130.000 100.000,110.000 90.000,110.000 90.000,140.000 80.000,140.000">
<desc>F06</desc>
</polygon>
<polygon fill="darkorange" stroke="white" stroke-width="1"
         points="100.000,150.000 120.000,150.000 120.000,140.000 140.000,140.000 140.000,130.000 120.000,130.000 120.000,120.000 110.000,120.000 110.000,140.000 100.000,140.000">
<desc>F26</desc>
</polygon>
<polygon fill="plum" stroke="white" stroke-width="1"
         points="120.000,150.000 150.000,150.000 150.000,120.000 130.000,120.000 130.000,130.000 140.000,130.000 140.000,140.000 120.000,140.000">
<desc>J06</desc>
</polygon>
<polygon fill="gold" stroke="white" stroke-width="1"
         points="150.000,150.000 160.000,150.000 160.000,90.000 150.000,90.000">
<desc>I06</desc>
</polygon>
<polygon fill="lime" stroke="white" stroke-width="1"
         points="40.000,140.000 60.000,140.000 60.000,130.000 50.000,130.000 50.000,120.000 60.000,120.000 60.000,110.000 40.000,110.000 40.000,120.000 30.000,120.000 30.000,130.000 40.000,130.000">
<desc>E06</desc>
</polygon>
<polygon fill="blue" stroke="white" stroke-width="1"
         points="60.000,140.000 70.000,140.000 70.000,100.000 50.000,100.000 50.000,110.000 60.000,110.000 60.000,120.000 50.000,120.000 50.000,130.000 60.000,130.000">
<desc>U06</desc>
</polygon>
<polygon fill="red" stroke="white" stroke-width="1"
         points="160.000,140.000 170.000,140.000 170.000,100.000 180.000,100.000 180.000,90.000 160.000,90.000">
<desc>L06</desc>
</polygon>
<polygon fill="magenta" stroke="white" stroke-width="1"
         points="80.000,130.000 90.000,130.000 90.000,100.000 100.000,100.000 100.000,90.000 80.000,90.000 80.000,110.000 70.000,110.000 70.000,120.000 80.000,120.000">
<desc>F16</desc>
</polygon>
<polygon fill="blueviolet" stroke="white" stroke-width="1"
         points="100.000,130.000 110.000,130.000 110.000,120.000 120.000,120.000 120.000,100.000 90.000,100.000 90.000,110.000 100.000,110.000">
<desc>R06</desc>
</polygon>
<polygon fill="gold" stroke="white" stroke-width="1"
         points="120.000,130.000 130.000,130.000 130.000,120.000 150.000,120.000 150.000,90.000 140.000,90.000 140.000,110.000 120.000,110.000">
<desc>Z16</desc>
</polygon>
<polygon fill="lime" stroke="white" stroke-width="1"
         points="170.000,130.000 180.000,130.000 180.000,120.000 190.000,120.000 190.000,90.000 180.000,90.000 180.000,100.000 170.000,100.000">
<desc>N06</desc>
</polygon>
<polygon fill="navy" stroke="white" stroke-width="1"
         points="70.000,110.000 80.000,110.000 80.000,90.000 90.000,90.000 90.000,70.000 80.000,70.000 80.000,80.000 70.000,80.000 70.000,90.000 60.000,90.000 60.000,100.000 70.000,100.000">
<desc>W26</desc>
</polygon>
<polygon fill="maroon" stroke="white" stroke-width="1"
         points="120.000,110.000 140.000,110.000 140.000,80.000 150.000,80.000 150.000,70.000 130.000,70.000 130.000,100.000 120.000,100.000">
<desc>Z06</desc>
</polygon>
<polygon fill="blueviolet" stroke="white" stroke-width="1"
         points="190.000,110.000 200.000,110.000 200.000,100.000 210.000,100.000 210.000,70.000 190.000,70.000 190.000,80.000 200.000,80.000 200.000,90.000 190.000,90.000">
<desc>G06</desc>
</polygon>
<polygon fill="magenta" stroke="white" stroke-width="1"
         points="100.000,100.000 120.000,100.000 120.000,70.000 100.000,70.000">
<desc>O06</desc>
</polygon>
<polygon fill="gold" stroke="white" stroke-width="1"
         points="120.000,100.000 130.000,100.000 130.000,70.000 140.000,70.000 140.000,60.000 110.000,60.000 110.000,70.000 120.000,70.000">
<desc>T06</desc>
</polygon>
<polygon fill="lime" stroke="white" stroke-width="1"
         points="90.000,90.000 100.000,90.000 100.000,70.000 110.000,70.000 110.000,60.000 120.000,60.000 120.000,50.000 100.000,50.000 100.000,60.000 90.000,60.000">
<desc>W16</desc>
</polygon>
<polygon fill="darkorange" stroke="white" stroke-width="1"
         points="140.000,90.000 180.000,90.000 180.000,70.000 160.000,70.000 160.000,80.000 140.000,80.000">
<desc>P06</desc>
</polygon>
<polygon fill="red" stroke="white" stroke-width="1"
         points="180.000,90.000 200.000,90.000 200.000,80.000 190.000,80.000 190.000,60.000 200.000,60.000 200.000,50.000 180.000,50.000">
<desc>C06</desc>
</polygon>
<polygon fill="navy" stroke="white" stroke-width="1"
         points="210.000,90.000 220.000,90.000 220.000,60.000 230.000,60.000 230.000,40.000 220.000,40.000 220.000,50.000 210.000,50.000">
<desc>N16</desc>
</polygon>
<polygon fill="darkorange" stroke="white" stroke-width="1"
         points="150.000,80.000 160.000,80.000 160.000,70.000 180.000,70.000 180.000,60.000 170.000,60.000 170.000,50.000 160.000,50.000 160.000,60.000 140.000,60.000 140.000,70.000 150.000,70.000">
<desc>X16</desc>
</polygon>
<polygon fill="green" stroke="white" stroke-width="1"
         points="220.000,80.000 230.000,80.000 230.000,70.000 240.000,70.000 240.000,60.000 250.000,60.000 250.000,40.000 240.000,40.000 240.000,50.000 230.000,50.000 230.000,60.000 220.000,60.000">
<desc>W06</desc>
</polygon>
<polygon fill="maroon" stroke="white" stroke-width="1"
         points="190.000,70.000 210.000,70.000 210.000,50.000 220.000,50.000 220.000,40.000 190.000,40.000 190.000,50.000 200.000,50.000 200.000,60.000 190.000,60.000">
<desc>H06</desc>
</polygon>
<polygon fill="magenta" stroke="white" stroke-width="1"
         points="120.000,60.000 130.000,60.000 130.000,50.000 150.000,50.000 150.000,40.000 130.000,40.000 130.000,30.000 120.000,30.000 120.000,40.000 110.000,40.000 110.000,50.000 120.000,50.000">
<desc>X06</desc>
</polygon>
<polygon fill="red" stroke="white" stroke-width="1"
         points="130.000,60.000 160.000,60.000 160.000,20.000 150.000,20.000 150.000,50.000 130.000,50.000">
<desc>V06</desc>
</polygon>
<polygon fill="blue" stroke="white" stroke-width="1"
         points="170.000,60.000 180.000,60.000 180.000,50.000 190.000,50.000 190.000,40.000 180.000,40.000 180.000,30.000 160.000,30.000 160.000,50.000 170.000,50.000">
<desc>K06</desc>
</polygon>
<polygon fill="turquoise" stroke="white" stroke-width="1"
         points="230.000,50.000 240.000,50.000 240.000,40.000 250.000,40.000 250.000,30.000 200.000,30.000 200.000,40.000 230.000,40.000">
<desc>Y06</desc>
</polygon>
<polygon fill="plum" stroke="white" stroke-width="1"
         points="250.000,50.000 260.000,50.000 260.000,10.000 250.000,10.000 250.000,20.000 230.000,20.000 230.000,30.000 250.000,30.000">
<desc>T16</desc>
</polygon>
<polygon fill="turquoise" stroke="white" stroke-width="1"
         points="130.000,40.000 150.000,40.000 150.000,20.000 160.000,20.000 160.000,10.000 140.000,10.000 140.000,20.000 130.000,20.000">
<desc>Q06</desc>
</polygon>
<polygon fill="green" stroke="white" stroke-width="1"
         points="180.000,40.000 200.000,40.000 200.000,30.000 190.000,30.000 190.000,20.000 170.000,20.000 170.000,10.000 160.000,10.000 160.000,30.000 180.000,30.000">
<desc>M06</desc>
</polygon>
<polygon fill="blue" stroke="white" stroke-width="1"
         points="260.000,40.000 270.000,40.000 270.000,30.000 280.000,30.000 280.000,20.000 290.000,20.000 290.000,10.000 260.000,10.000">
<desc>A06</desc>
</polygon>
<polygon fill="blueviolet" stroke="white" stroke-width="1"
         points="190.000,30.000 200.000,30.000 200.000,20.000 220.000,20.000 220.000,10.000 170.000,10.000 170.000,20.000 190.000,20.000">
<desc>Y16</desc>
</polygon>
<polygon fill="maroon" stroke="white" stroke-width="1"
         points="200.000,30.000 230.000,30.000 230.000,20.000 250.000,20.000 250.000,10.000 220.000,10.000 220.000,20.000 200.000,20.000">
<desc>S06</desc>
</polygon>
</g>
</svg>
