<?xml version="1.0" standalone="no"?>
<!-- Created by Polyform Puzzler (http://puzzler.sourceforge.net/) -->
<svg width="260.000" height="110.000"
     viewBox="0 0 260.000 110.000"
     xmlns="http://www.w3.org/2000/svg"
     xmlns:xlink="http://www.w3.org/1999/xlink">
<g>
<polygon fill="turquoise" stroke="white" stroke-width="1"
         points="10.000,100.000 60.000,100.000 60.000,90.000 30.000,90.000 30.000,80.000 20.000,80.000 20.000,90.000 10.000,90.000">
<desc>Y06</desc>
</polygon>
<polygon fill="darkorange" stroke="white" stroke-width="1"
         points="60.000,100.000 100.000,100.000 100.000,90.000 80.000,90.000 80.000,80.000 60.000,80.000">
<desc>P06</desc>
</polygon>
<polygon fill="green" stroke="white" stroke-width="1"
         points="100.000,100.000 120.000,100.000 120.000,90.000 110.000,90.000 110.000,80.000 90.000,80.000 90.000,70.000 80.000,70.000 80.000,90.000 100.000,90.000">
<desc>M06</desc>
</polygon>
<polygon fill="navy" stroke="white" stroke-width="1"
         points="120.000,100.000 160.000,100.000 160.000,90.000 130.000,90.000 130.000,80.000 110.000,80.000 110.000,90.000 120.000,90.000">
<desc>N16</desc>
</polygon>
<polygon fill="gold" stroke="white" stroke-width="1"
         points="160.000,100.000 220.000,100.000 220.000,90.000 160.000,90.000">
<desc>I06</desc>
</polygon>
<polygon fill="blue" stroke="white" stroke-width="1"
         points="220.000,100.000 250.000,100.000 250.000,90.000 240.000,90.000 240.000,80.000 230.000,80.000 230.000,70.000 220.000,70.000">
<desc>A06</desc>
</polygon>
<polygon fill="lime" stroke="white" stroke-width="1"
         points="10.000,90.000 20.000,90.000 20.000,80.000 30.000,80.000 30.000,50.000 20.000,50.000 20.000,60.000 10.000,60.000">
<desc>S16</desc>
</polygon>
<polygon fill="maroon" stroke="white" stroke-width="1"
         points="30.000,90.000 60.000,90.000 60.000,80.000 80.000,80.000 80.000,70.000 50.000,70.000 50.000,80.000 30.000,80.000">
<desc>S06</desc>
</polygon>
<polygon fill="blueviolet" stroke="white" stroke-width="1"
         points="130.000,90.000 140.000,90.000 140.000,80.000 160.000,80.000 160.000,70.000 150.000,70.000 150.000,60.000 130.000,60.000">
<desc>R06</desc>
</polygon>
<polygon fill="turquoise" stroke="white" stroke-width="1"
         points="140.000,90.000 170.000,90.000 170.000,80.000 180.000,80.000 180.000,70.000 170.000,70.000 170.000,60.000 160.000,60.000 160.000,80.000 140.000,80.000">
<desc>F36</desc>
</polygon>
<polygon fill="red" stroke="white" stroke-width="1"
         points="170.000,90.000 220.000,90.000 220.000,70.000 210.000,70.000 210.000,80.000 170.000,80.000">
<desc>L06</desc>
</polygon>
<polygon fill="green" stroke="white" stroke-width="1"
         points="240.000,90.000 250.000,90.000 250.000,50.000 240.000,50.000 240.000,60.000 230.000,60.000 230.000,80.000 240.000,80.000">
<desc>D06</desc>
</polygon>
<polygon fill="navy" stroke="white" stroke-width="1"
         points="30.000,80.000 50.000,80.000 50.000,70.000 70.000,70.000 70.000,60.000 60.000,60.000 60.000,50.000 50.000,50.000 50.000,60.000 40.000,60.000 40.000,70.000 30.000,70.000">
<desc>W26</desc>
</polygon>
<polygon fill="blue" stroke="white" stroke-width="1"
         points="90.000,80.000 130.000,80.000 130.000,60.000 120.000,60.000 120.000,70.000 110.000,70.000 110.000,60.000 100.000,60.000 100.000,70.000 90.000,70.000">
<desc>U06</desc>
</polygon>
<polygon fill="plum" stroke="white" stroke-width="1"
         points="180.000,80.000 210.000,80.000 210.000,50.000 190.000,50.000 190.000,60.000 200.000,60.000 200.000,70.000 180.000,70.000">
<desc>J06</desc>
</polygon>
<polygon fill="darkorange" stroke="white" stroke-width="1"
         points="30.000,70.000 40.000,70.000 40.000,60.000 50.000,60.000 50.000,50.000 40.000,50.000 40.000,30.000 30.000,30.000 30.000,40.000 20.000,40.000 20.000,50.000 30.000,50.000">
<desc>X16</desc>
</polygon>
<polygon fill="green" stroke="white" stroke-width="1"
         points="70.000,70.000 100.000,70.000 100.000,60.000 110.000,60.000 110.000,40.000 100.000,40.000 100.000,50.000 90.000,50.000 90.000,60.000 70.000,60.000">
<desc>W06</desc>
</polygon>
<polygon fill="gold" stroke="white" stroke-width="1"
         points="110.000,70.000 120.000,70.000 120.000,60.000 150.000,60.000 150.000,50.000 120.000,50.000 120.000,40.000 110.000,40.000">
<desc>T06</desc>
</polygon>
<polygon fill="darkorange" stroke="white" stroke-width="1"
         points="150.000,70.000 160.000,70.000 160.000,60.000 180.000,60.000 180.000,50.000 170.000,50.000 170.000,30.000 160.000,30.000 160.000,50.000 150.000,50.000">
<desc>F26</desc>
</polygon>
<polygon fill="maroon" stroke="white" stroke-width="1"
         points="170.000,70.000 200.000,70.000 200.000,60.000 190.000,60.000 190.000,40.000 170.000,40.000 170.000,50.000 180.000,50.000 180.000,60.000 170.000,60.000">
<desc>H06</desc>
</polygon>
<polygon fill="turquoise" stroke="white" stroke-width="1"
         points="210.000,70.000 230.000,70.000 230.000,50.000 220.000,50.000 220.000,40.000 200.000,40.000 200.000,50.000 210.000,50.000">
<desc>Q06</desc>
</polygon>
<polygon fill="blueviolet" stroke="white" stroke-width="1"
         points="10.000,60.000 20.000,60.000 20.000,40.000 30.000,40.000 30.000,30.000 20.000,30.000 20.000,10.000 10.000,10.000">
<desc>Y16</desc>
</polygon>
<polygon fill="magenta" stroke="white" stroke-width="1"
         points="60.000,60.000 70.000,60.000 70.000,50.000 80.000,50.000 80.000,40.000 70.000,40.000 70.000,20.000 60.000,20.000 60.000,40.000 50.000,40.000 50.000,50.000 60.000,50.000">
<desc>X06</desc>
</polygon>
<polygon fill="maroon" stroke="white" stroke-width="1"
         points="70.000,60.000 90.000,60.000 90.000,30.000 100.000,30.000 100.000,20.000 80.000,20.000 80.000,50.000 70.000,50.000">
<desc>Z06</desc>
</polygon>
<polygon fill="blue" stroke="white" stroke-width="1"
         points="230.000,60.000 240.000,60.000 240.000,50.000 250.000,50.000 250.000,30.000 230.000,30.000 230.000,40.000 220.000,40.000 220.000,50.000 230.000,50.000">
<desc>K06</desc>
</polygon>
<polygon fill="gold" stroke="white" stroke-width="1"
         points="40.000,50.000 50.000,50.000 50.000,20.000 30.000,20.000 30.000,10.000 20.000,10.000 20.000,30.000 40.000,30.000">
<desc>Z16</desc>
</polygon>
<polygon fill="lime" stroke="white" stroke-width="1"
         points="90.000,50.000 100.000,50.000 100.000,40.000 110.000,40.000 110.000,30.000 120.000,30.000 120.000,10.000 110.000,10.000 110.000,20.000 100.000,20.000 100.000,30.000 90.000,30.000">
<desc>W16</desc>
</polygon>
<polygon fill="lime" stroke="white" stroke-width="1"
         points="120.000,50.000 150.000,50.000 150.000,40.000 140.000,40.000 140.000,30.000 110.000,30.000 110.000,40.000 120.000,40.000">
<desc>N06</desc>
</polygon>
<polygon fill="magenta" stroke="white" stroke-width="1"
         points="150.000,50.000 160.000,50.000 160.000,20.000 170.000,20.000 170.000,10.000 150.000,10.000 150.000,30.000 140.000,30.000 140.000,40.000 150.000,40.000">
<desc>F16</desc>
</polygon>
<polygon fill="navy" stroke="white" stroke-width="1"
         points="190.000,50.000 200.000,50.000 200.000,20.000 210.000,20.000 210.000,10.000 190.000,10.000 190.000,20.000 180.000,20.000 180.000,30.000 190.000,30.000">
<desc>F06</desc>
</polygon>
<polygon fill="plum" stroke="white" stroke-width="1"
         points="50.000,40.000 60.000,40.000 60.000,20.000 70.000,20.000 70.000,10.000 30.000,10.000 30.000,20.000 50.000,20.000">
<desc>T16</desc>
</polygon>
<polygon fill="red" stroke="white" stroke-width="1"
         points="70.000,40.000 80.000,40.000 80.000,20.000 110.000,20.000 110.000,10.000 70.000,10.000">
<desc>V06</desc>
</polygon>
<polygon fill="lime" stroke="white" stroke-width="1"
         points="170.000,40.000 190.000,40.000 190.000,30.000 180.000,30.000 180.000,20.000 190.000,20.000 190.000,10.000 170.000,10.000 170.000,20.000 160.000,20.000 160.000,30.000 170.000,30.000">
<desc>E06</desc>
</polygon>
<polygon fill="blueviolet" stroke="white" stroke-width="1"
         points="200.000,40.000 230.000,40.000 230.000,30.000 240.000,30.000 240.000,20.000 220.000,20.000 220.000,30.000 210.000,30.000 210.000,20.000 200.000,20.000">
<desc>G06</desc>
</polygon>
<polygon fill="magenta" stroke="white" stroke-width="1"
         points="120.000,30.000 150.000,30.000 150.000,10.000 120.000,10.000">
<desc>O06</desc>
</polygon>
<polygon fill="red" stroke="white" stroke-width="1"
         points="210.000,30.000 220.000,30.000 220.000,20.000 240.000,20.000 240.000,30.000 250.000,30.000 250.000,10.000 210.000,10.000">
<desc>C06</desc>
</polygon>
</g>
</svg>
