<?xml version="1.0" standalone="no"?>
<!-- Created by Polyform Puzzler (http://puzzler.sourceforge.net/) -->
<svg width="450.000" height="70.000"
     viewBox="0 0 450.000 70.000"
     xmlns="http://www.w3.org/2000/svg"
     xmlns:xlink="http://www.w3.org/1999/xlink">
<g>
<polygon fill="turquoise" stroke="white" stroke-width="1"
         points="20.000,60.000 50.000,60.000 50.000,50.000 60.000,50.000 60.000,40.000 50.000,40.000 50.000,30.000 40.000,30.000 40.000,50.000 20.000,50.000">
<desc>F36</desc>
</polygon>
<polygon fill="green" stroke="white" stroke-width="1"
         points="50.000,60.000 90.000,60.000 90.000,50.000 80.000,50.000 80.000,40.000 60.000,40.000 60.000,50.000 50.000,50.000">
<desc>D06</desc>
</polygon>
<polygon fill="red" stroke="white" stroke-width="1"
         points="90.000,60.000 130.000,60.000 130.000,40.000 120.000,40.000 120.000,50.000 100.000,50.000 100.000,40.000 90.000,40.000">
<desc>C06</desc>
</polygon>
<polygon fill="magenta" stroke="white" stroke-width="1"
         points="130.000,60.000 160.000,60.000 160.000,40.000 130.000,40.000">
<desc>O06</desc>
</polygon>
<polygon fill="green" stroke="white" stroke-width="1"
         points="160.000,60.000 170.000,60.000 170.000,50.000 190.000,50.000 190.000,40.000 200.000,40.000 200.000,30.000 180.000,30.000 180.000,40.000 160.000,40.000">
<desc>M06</desc>
</polygon>
<polygon fill="maroon" stroke="white" stroke-width="1"
         points="170.000,60.000 200.000,60.000 200.000,50.000 220.000,50.000 220.000,40.000 190.000,40.000 190.000,50.000 170.000,50.000">
<desc>S06</desc>
</polygon>
<polygon fill="lime" stroke="white" stroke-width="1"
         points="200.000,60.000 230.000,60.000 230.000,50.000 240.000,50.000 240.000,30.000 230.000,30.000 230.000,40.000 220.000,40.000 220.000,50.000 200.000,50.000">
<desc>W16</desc>
</polygon>
<polygon fill="plum" stroke="white" stroke-width="1"
         points="230.000,60.000 270.000,60.000 270.000,50.000 250.000,50.000 250.000,30.000 240.000,30.000 240.000,50.000 230.000,50.000">
<desc>T16</desc>
</polygon>
<polygon fill="plum" stroke="white" stroke-width="1"
         points="270.000,60.000 300.000,60.000 300.000,30.000 280.000,30.000 280.000,40.000 290.000,40.000 290.000,50.000 270.000,50.000">
<desc>J06</desc>
</polygon>
<polygon fill="gold" stroke="white" stroke-width="1"
         points="300.000,60.000 330.000,60.000 330.000,50.000 320.000,50.000 320.000,20.000 310.000,20.000 310.000,50.000 300.000,50.000">
<desc>T06</desc>
</polygon>
<polygon fill="navy" stroke="white" stroke-width="1"
         points="330.000,60.000 340.000,60.000 340.000,50.000 350.000,50.000 350.000,40.000 360.000,40.000 360.000,30.000 340.000,30.000 340.000,40.000 320.000,40.000 320.000,50.000 330.000,50.000">
<desc>W26</desc>
</polygon>
<polygon fill="blue" stroke="white" stroke-width="1"
         points="340.000,60.000 380.000,60.000 380.000,40.000 370.000,40.000 370.000,50.000 360.000,50.000 360.000,40.000 350.000,40.000 350.000,50.000 340.000,50.000">
<desc>U06</desc>
</polygon>
<polygon fill="maroon" stroke="white" stroke-width="1"
         points="380.000,60.000 400.000,60.000 400.000,50.000 390.000,50.000 390.000,20.000 370.000,20.000 370.000,30.000 380.000,30.000">
<desc>Z06</desc>
</polygon>
<polygon fill="blueviolet" stroke="white" stroke-width="1"
         points="400.000,60.000 410.000,60.000 410.000,40.000 420.000,40.000 420.000,30.000 390.000,30.000 390.000,50.000 400.000,50.000">
<desc>R06</desc>
</polygon>
<polygon fill="turquoise" stroke="white" stroke-width="1"
         points="410.000,60.000 430.000,60.000 430.000,50.000 440.000,50.000 440.000,30.000 430.000,30.000 430.000,40.000 410.000,40.000">
<desc>Q06</desc>
</polygon>
<polygon fill="blue" stroke="white" stroke-width="1"
         points="10.000,50.000 40.000,50.000 40.000,40.000 30.000,40.000 30.000,30.000 20.000,30.000 20.000,20.000 10.000,20.000">
<desc>A06</desc>
</polygon>
<polygon fill="magenta" stroke="white" stroke-width="1"
         points="80.000,50.000 90.000,50.000 90.000,30.000 70.000,30.000 70.000,20.000 60.000,20.000 60.000,30.000 50.000,30.000 50.000,40.000 80.000,40.000">
<desc>F16</desc>
</polygon>
<polygon fill="lime" stroke="white" stroke-width="1"
         points="100.000,50.000 120.000,50.000 120.000,40.000 130.000,40.000 130.000,30.000 120.000,30.000 120.000,20.000 100.000,20.000 100.000,30.000 110.000,30.000 110.000,40.000 100.000,40.000">
<desc>E06</desc>
</polygon>
<polygon fill="darkorange" stroke="white" stroke-width="1"
         points="250.000,50.000 290.000,50.000 290.000,40.000 270.000,40.000 270.000,30.000 250.000,30.000">
<desc>P06</desc>
</polygon>
<polygon fill="gold" stroke="white" stroke-width="1"
         points="300.000,50.000 310.000,50.000 310.000,20.000 290.000,20.000 290.000,10.000 280.000,10.000 280.000,30.000 300.000,30.000">
<desc>Z16</desc>
</polygon>
<polygon fill="darkorange" stroke="white" stroke-width="1"
         points="360.000,50.000 370.000,50.000 370.000,40.000 380.000,40.000 380.000,30.000 370.000,30.000 370.000,10.000 360.000,10.000 360.000,20.000 350.000,20.000 350.000,30.000 360.000,30.000">
<desc>X16</desc>
</polygon>
<polygon fill="navy" stroke="white" stroke-width="1"
         points="30.000,40.000 40.000,40.000 40.000,30.000 60.000,30.000 60.000,20.000 30.000,20.000 30.000,10.000 20.000,10.000 20.000,30.000 30.000,30.000">
<desc>F06</desc>
</polygon>
<polygon fill="darkorange" stroke="white" stroke-width="1"
         points="90.000,40.000 110.000,40.000 110.000,30.000 100.000,30.000 100.000,10.000 90.000,10.000 90.000,20.000 70.000,20.000 70.000,30.000 90.000,30.000">
<desc>F26</desc>
</polygon>
<polygon fill="blueviolet" stroke="white" stroke-width="1"
         points="130.000,40.000 160.000,40.000 160.000,20.000 150.000,20.000 150.000,30.000 140.000,30.000 140.000,20.000 120.000,20.000 120.000,30.000 130.000,30.000">
<desc>G06</desc>
</polygon>
<polygon fill="maroon" stroke="white" stroke-width="1"
         points="160.000,40.000 180.000,40.000 180.000,30.000 170.000,30.000 170.000,20.000 180.000,20.000 180.000,10.000 150.000,10.000 150.000,20.000 160.000,20.000">
<desc>H06</desc>
</polygon>
<polygon fill="blue" stroke="white" stroke-width="1"
         points="200.000,40.000 220.000,40.000 220.000,30.000 230.000,30.000 230.000,20.000 220.000,20.000 220.000,10.000 210.000,10.000 210.000,20.000 200.000,20.000">
<desc>K06</desc>
</polygon>
<polygon fill="red" stroke="white" stroke-width="1"
         points="270.000,40.000 280.000,40.000 280.000,10.000 240.000,10.000 240.000,20.000 270.000,20.000">
<desc>V06</desc>
</polygon>
<polygon fill="green" stroke="white" stroke-width="1"
         points="320.000,40.000 340.000,40.000 340.000,30.000 350.000,30.000 350.000,20.000 360.000,20.000 360.000,10.000 340.000,10.000 340.000,20.000 330.000,20.000 330.000,30.000 320.000,30.000">
<desc>W06</desc>
</polygon>
<polygon fill="magenta" stroke="white" stroke-width="1"
         points="420.000,40.000 430.000,40.000 430.000,30.000 440.000,30.000 440.000,20.000 430.000,20.000 430.000,10.000 420.000,10.000 420.000,20.000 400.000,20.000 400.000,30.000 420.000,30.000">
<desc>X06</desc>
</polygon>
<polygon fill="red" stroke="white" stroke-width="1"
         points="140.000,30.000 150.000,30.000 150.000,10.000 100.000,10.000 100.000,20.000 140.000,20.000">
<desc>L06</desc>
</polygon>
<polygon fill="lime" stroke="white" stroke-width="1"
         points="170.000,30.000 200.000,30.000 200.000,20.000 210.000,20.000 210.000,10.000 180.000,10.000 180.000,20.000 170.000,20.000">
<desc>N06</desc>
</polygon>
<polygon fill="navy" stroke="white" stroke-width="1"
         points="230.000,30.000 270.000,30.000 270.000,20.000 240.000,20.000 240.000,10.000 220.000,10.000 220.000,20.000 230.000,20.000">
<desc>N16</desc>
</polygon>
<polygon fill="turquoise" stroke="white" stroke-width="1"
         points="320.000,30.000 330.000,30.000 330.000,20.000 340.000,20.000 340.000,10.000 290.000,10.000 290.000,20.000 320.000,20.000">
<desc>Y06</desc>
</polygon>
<polygon fill="blueviolet" stroke="white" stroke-width="1"
         points="390.000,30.000 400.000,30.000 400.000,20.000 420.000,20.000 420.000,10.000 370.000,10.000 370.000,20.000 390.000,20.000">
<desc>Y16</desc>
</polygon>
<polygon fill="gold" stroke="white" stroke-width="1"
         points="30.000,20.000 90.000,20.000 90.000,10.000 30.000,10.000">
<desc>I06</desc>
</polygon>
</g>
</svg>
