<?xml version="1.0" standalone="no"?>
<!-- Created by Polyform Puzzler (http://puzzler.sourceforge.net/) -->
<svg width="550.000" height="100.000"
     viewBox="0 0 550.000 100.000"
     xmlns="http://www.w3.org/2000/svg"
     xmlns:xlink="http://www.w3.org/1999/xlink">
<g>
<polygon fill="turquoise" stroke="white" stroke-width="1"
         points="20.000,90.000 50.000,90.000 50.000,80.000 60.000,80.000 60.000,70.000 50.000,70.000 50.000,60.000 40.000,60.000 40.000,80.000 20.000,80.000">
<desc>F36</desc>
</polygon>
<polygon fill="magenta" stroke="white" stroke-width="1"
         points="50.000,90.000 70.000,90.000 70.000,70.000 80.000,70.000 80.000,60.000 70.000,60.000 70.000,50.000 60.000,50.000 60.000,80.000 50.000,80.000">
<desc>F16</desc>
</polygon>
<polygon fill="navy" stroke="white" stroke-width="1"
         points="70.000,90.000 80.000,90.000 80.000,80.000 90.000,80.000 90.000,40.000 80.000,40.000 80.000,70.000 70.000,70.000">
<desc>N16</desc>
</polygon>
<polygon fill="lime" stroke="white" stroke-width="1"
         points="110.000,90.000 130.000,90.000 130.000,80.000 140.000,80.000 140.000,70.000 130.000,70.000 130.000,60.000 110.000,60.000 110.000,70.000 120.000,70.000 120.000,80.000 110.000,80.000">
<desc>E06</desc>
</polygon>
<polygon fill="blueviolet" stroke="white" stroke-width="1"
         points="130.000,90.000 150.000,90.000 150.000,60.000 140.000,60.000 140.000,50.000 130.000,50.000 130.000,70.000 140.000,70.000 140.000,80.000 130.000,80.000">
<desc>G06</desc>
</polygon>
<polygon fill="blueviolet" stroke="white" stroke-width="1"
         points="150.000,90.000 170.000,90.000 170.000,80.000 180.000,80.000 180.000,70.000 160.000,70.000 160.000,60.000 150.000,60.000">
<desc>r06</desc>
</polygon>
<polygon fill="green" stroke="white" stroke-width="1"
         points="200.000,90.000 220.000,90.000 220.000,80.000 240.000,80.000 240.000,60.000 230.000,60.000 230.000,70.000 210.000,70.000 210.000,80.000 200.000,80.000">
<desc>M06</desc>
</polygon>
<polygon fill="plum" stroke="white" stroke-width="1"
         points="220.000,90.000 260.000,90.000 260.000,80.000 250.000,80.000 250.000,60.000 240.000,60.000 240.000,80.000 220.000,80.000">
<desc>T16</desc>
</polygon>
<polygon fill="lime" stroke="white" stroke-width="1"
         points="290.000,90.000 320.000,90.000 320.000,80.000 310.000,80.000 310.000,70.000 280.000,70.000 280.000,80.000 290.000,80.000">
<desc>N06</desc>
</polygon>
<polygon fill="lime" stroke="white" stroke-width="1"
         points="320.000,90.000 340.000,90.000 340.000,80.000 330.000,80.000 330.000,70.000 320.000,70.000 320.000,60.000 300.000,60.000 300.000,70.000 310.000,70.000 310.000,80.000 320.000,80.000">
<desc>w16</desc>
</polygon>
<polygon fill="lime" stroke="white" stroke-width="1"
         points="340.000,90.000 350.000,90.000 350.000,70.000 340.000,70.000 340.000,60.000 330.000,60.000 330.000,50.000 320.000,50.000 320.000,70.000 330.000,70.000 330.000,80.000 340.000,80.000">
<desc>W16</desc>
</polygon>
<polygon fill="darkorange" stroke="white" stroke-width="1"
         points="380.000,90.000 390.000,90.000 390.000,70.000 400.000,70.000 400.000,60.000 390.000,60.000 390.000,50.000 380.000,50.000 380.000,70.000 370.000,70.000 370.000,80.000 380.000,80.000">
<desc>X16</desc>
</polygon>
<polygon fill="darkorange" stroke="white" stroke-width="1"
         points="390.000,90.000 400.000,90.000 400.000,80.000 420.000,80.000 420.000,70.000 410.000,70.000 410.000,50.000 400.000,50.000 400.000,70.000 390.000,70.000">
<desc>f26</desc>
</polygon>
<polygon fill="gold" stroke="white" stroke-width="1"
         points="400.000,90.000 430.000,90.000 430.000,70.000 440.000,70.000 440.000,60.000 420.000,60.000 420.000,80.000 400.000,80.000">
<desc>z16</desc>
</polygon>
<polygon fill="blueviolet" stroke="white" stroke-width="1"
         points="430.000,90.000 440.000,90.000 440.000,80.000 450.000,80.000 450.000,50.000 430.000,50.000 430.000,60.000 440.000,60.000 440.000,70.000 430.000,70.000">
<desc>g06</desc>
</polygon>
<polygon fill="blue" stroke="white" stroke-width="1"
         points="470.000,90.000 510.000,90.000 510.000,70.000 500.000,70.000 500.000,80.000 490.000,80.000 490.000,70.000 480.000,70.000 480.000,80.000 470.000,80.000">
<desc>u06</desc>
</polygon>
<polygon fill="turquoise" stroke="white" stroke-width="1"
         points="510.000,90.000 530.000,90.000 530.000,80.000 540.000,80.000 540.000,60.000 520.000,60.000 520.000,80.000 510.000,80.000">
<desc>q06</desc>
</polygon>
<polygon fill="blue" stroke="white" stroke-width="1"
         points="10.000,80.000 40.000,80.000 40.000,70.000 30.000,70.000 30.000,60.000 20.000,60.000 20.000,50.000 10.000,50.000">
<desc>A06</desc>
</polygon>
<polygon fill="red" stroke="white" stroke-width="1"
         points="100.000,80.000 120.000,80.000 120.000,70.000 110.000,70.000 110.000,50.000 120.000,50.000 120.000,40.000 100.000,40.000">
<desc>C06</desc>
</polygon>
<polygon fill="red" stroke="white" stroke-width="1"
         points="190.000,80.000 210.000,80.000 210.000,70.000 200.000,70.000 200.000,30.000 190.000,30.000">
<desc>L06</desc>
</polygon>
<polygon fill="turquoise" stroke="white" stroke-width="1"
         points="250.000,80.000 270.000,80.000 270.000,60.000 260.000,60.000 260.000,50.000 240.000,50.000 240.000,60.000 250.000,60.000">
<desc>Q06</desc>
</polygon>
<polygon fill="turquoise" stroke="white" stroke-width="1"
         points="350.000,80.000 360.000,80.000 360.000,30.000 350.000,30.000 350.000,60.000 340.000,60.000 340.000,70.000 350.000,70.000">
<desc>y06</desc>
</polygon>
<polygon fill="plum" stroke="white" stroke-width="1"
         points="460.000,80.000 480.000,80.000 480.000,70.000 470.000,70.000 470.000,60.000 490.000,60.000 490.000,50.000 460.000,50.000">
<desc>j06</desc>
</polygon>
<polygon fill="navy" stroke="white" stroke-width="1"
         points="490.000,80.000 500.000,80.000 500.000,70.000 510.000,70.000 510.000,50.000 500.000,50.000 500.000,60.000 470.000,60.000 470.000,70.000 490.000,70.000">
<desc>f06</desc>
</polygon>
<polygon fill="maroon" stroke="white" stroke-width="1"
         points="510.000,80.000 520.000,80.000 520.000,60.000 530.000,60.000 530.000,30.000 520.000,30.000 520.000,50.000 510.000,50.000">
<desc>s06</desc>
</polygon>
<polygon fill="maroon" stroke="white" stroke-width="1"
         points="30.000,70.000 40.000,70.000 40.000,60.000 50.000,60.000 50.000,70.000 60.000,70.000 60.000,50.000 40.000,50.000 40.000,40.000 30.000,40.000">
<desc>H06</desc>
</polygon>
<polygon fill="magenta" stroke="white" stroke-width="1"
         points="160.000,70.000 180.000,70.000 180.000,40.000 160.000,40.000">
<desc>O06</desc>
</polygon>
<polygon fill="blueviolet" stroke="white" stroke-width="1"
         points="200.000,70.000 230.000,70.000 230.000,60.000 220.000,60.000 220.000,40.000 210.000,40.000 210.000,50.000 200.000,50.000">
<desc>R06</desc>
</polygon>
<polygon fill="red" stroke="white" stroke-width="1"
         points="280.000,70.000 290.000,70.000 290.000,30.000 300.000,30.000 300.000,20.000 280.000,20.000">
<desc>l06</desc>
</polygon>
<polygon fill="blue" stroke="white" stroke-width="1"
         points="290.000,70.000 300.000,70.000 300.000,60.000 310.000,60.000 310.000,50.000 300.000,50.000 300.000,40.000 310.000,40.000 310.000,30.000 290.000,30.000">
<desc>U06</desc>
</polygon>
<polygon fill="blueviolet" stroke="white" stroke-width="1"
         points="370.000,70.000 380.000,70.000 380.000,50.000 390.000,50.000 390.000,40.000 380.000,40.000 380.000,20.000 370.000,20.000">
<desc>Y16</desc>
</polygon>
<polygon fill="red" stroke="white" stroke-width="1"
         points="410.000,70.000 420.000,70.000 420.000,40.000 440.000,40.000 440.000,30.000 410.000,30.000">
<desc>V06</desc>
</polygon>
<polygon fill="lime" stroke="white" stroke-width="1"
         points="20.000,60.000 30.000,60.000 30.000,30.000 20.000,30.000 20.000,20.000 10.000,20.000 10.000,50.000 20.000,50.000">
<desc>n06</desc>
</polygon>
<polygon fill="navy" stroke="white" stroke-width="1"
         points="70.000,60.000 80.000,60.000 80.000,40.000 70.000,40.000 70.000,30.000 60.000,30.000 60.000,40.000 40.000,40.000 40.000,50.000 70.000,50.000">
<desc>F06</desc>
</polygon>
<polygon fill="darkorange" stroke="white" stroke-width="1"
         points="110.000,60.000 130.000,60.000 130.000,50.000 150.000,50.000 150.000,40.000 130.000,40.000 130.000,30.000 120.000,30.000 120.000,50.000 110.000,50.000">
<desc>F26</desc>
</polygon>
<polygon fill="plum" stroke="white" stroke-width="1"
         points="140.000,60.000 160.000,60.000 160.000,30.000 130.000,30.000 130.000,40.000 150.000,40.000 150.000,50.000 140.000,50.000">
<desc>J06</desc>
</polygon>
<polygon fill="maroon" stroke="white" stroke-width="1"
         points="220.000,60.000 240.000,60.000 240.000,50.000 230.000,50.000 230.000,40.000 240.000,40.000 240.000,30.000 210.000,30.000 210.000,40.000 220.000,40.000">
<desc>h06</desc>
</polygon>
<polygon fill="gold" stroke="white" stroke-width="1"
         points="260.000,60.000 270.000,60.000 270.000,30.000 260.000,30.000 260.000,40.000 230.000,40.000 230.000,50.000 260.000,50.000">
<desc>T06</desc>
</polygon>
<polygon fill="darkorange" stroke="white" stroke-width="1"
         points="310.000,60.000 320.000,60.000 320.000,50.000 340.000,50.000 340.000,40.000 330.000,40.000 330.000,30.000 320.000,30.000 320.000,40.000 300.000,40.000 300.000,50.000 310.000,50.000">
<desc>x16</desc>
</polygon>
<polygon fill="maroon" stroke="white" stroke-width="1"
         points="330.000,60.000 350.000,60.000 350.000,30.000 360.000,30.000 360.000,20.000 340.000,20.000 340.000,50.000 330.000,50.000">
<desc>z06</desc>
</polygon>
<polygon fill="navy" stroke="white" stroke-width="1"
         points="390.000,60.000 400.000,60.000 400.000,50.000 410.000,50.000 410.000,40.000 400.000,40.000 400.000,30.000 390.000,30.000 390.000,20.000 380.000,20.000 380.000,40.000 390.000,40.000">
<desc>W26</desc>
</polygon>
<polygon fill="gold" stroke="white" stroke-width="1"
         points="420.000,60.000 430.000,60.000 430.000,50.000 450.000,50.000 450.000,20.000 440.000,20.000 440.000,40.000 420.000,40.000">
<desc>Z16</desc>
</polygon>
<polygon fill="magenta" stroke="white" stroke-width="1"
         points="490.000,60.000 500.000,60.000 500.000,50.000 520.000,50.000 520.000,30.000 510.000,30.000 510.000,40.000 480.000,40.000 480.000,50.000 490.000,50.000">
<desc>f16</desc>
</polygon>
<polygon fill="red" stroke="white" stroke-width="1"
         points="530.000,60.000 540.000,60.000 540.000,20.000 510.000,20.000 510.000,30.000 530.000,30.000">
<desc>v06</desc>
</polygon>
<polygon fill="magenta" stroke="white" stroke-width="1"
         points="200.000,50.000 210.000,50.000 210.000,30.000 220.000,30.000 220.000,20.000 210.000,20.000 210.000,10.000 200.000,10.000 200.000,20.000 190.000,20.000 190.000,30.000 200.000,30.000">
<desc>X06</desc>
</polygon>
<polygon fill="navy" stroke="white" stroke-width="1"
         points="460.000,50.000 480.000,50.000 480.000,40.000 510.000,40.000 510.000,30.000 470.000,30.000 470.000,40.000 460.000,40.000">
<desc>n16</desc>
</polygon>
<polygon fill="green" stroke="white" stroke-width="1"
         points="30.000,40.000 60.000,40.000 60.000,30.000 40.000,30.000 40.000,20.000 30.000,20.000 30.000,10.000 20.000,10.000 20.000,30.000 30.000,30.000">
<desc>W06</desc>
</polygon>
<polygon fill="blue" stroke="white" stroke-width="1"
         points="70.000,40.000 90.000,40.000 90.000,20.000 80.000,20.000 80.000,10.000 70.000,10.000 70.000,20.000 60.000,20.000 60.000,30.000 70.000,30.000">
<desc>K06</desc>
</polygon>
<polygon fill="darkorange" stroke="white" stroke-width="1"
         points="100.000,40.000 120.000,40.000 120.000,30.000 140.000,30.000 140.000,20.000 100.000,20.000">
<desc>p06</desc>
</polygon>
<polygon fill="darkorange" stroke="white" stroke-width="1"
         points="160.000,40.000 180.000,40.000 180.000,20.000 140.000,20.000 140.000,30.000 160.000,30.000">
<desc>P06</desc>
</polygon>
<polygon fill="green" stroke="white" stroke-width="1"
         points="240.000,40.000 250.000,40.000 250.000,20.000 230.000,20.000 230.000,10.000 210.000,10.000 210.000,20.000 220.000,20.000 220.000,30.000 240.000,30.000">
<desc>m06</desc>
</polygon>
<polygon fill="turquoise" stroke="white" stroke-width="1"
         points="250.000,40.000 260.000,40.000 260.000,30.000 270.000,30.000 270.000,20.000 260.000,20.000 260.000,10.000 230.000,10.000 230.000,20.000 250.000,20.000">
<desc>f36</desc>
</polygon>
<polygon fill="navy" stroke="white" stroke-width="1"
         points="310.000,40.000 320.000,40.000 320.000,30.000 330.000,30.000 330.000,20.000 310.000,20.000 310.000,10.000 290.000,10.000 290.000,20.000 300.000,20.000 300.000,30.000 310.000,30.000">
<desc>w26</desc>
</polygon>
<polygon fill="plum" stroke="white" stroke-width="1"
         points="330.000,40.000 340.000,40.000 340.000,20.000 350.000,20.000 350.000,10.000 310.000,10.000 310.000,20.000 330.000,20.000">
<desc>t16</desc>
</polygon>
<polygon fill="maroon" stroke="white" stroke-width="1"
         points="400.000,40.000 410.000,40.000 410.000,30.000 440.000,30.000 440.000,10.000 430.000,10.000 430.000,20.000 400.000,20.000">
<desc>Z06</desc>
</polygon>
<polygon fill="green" stroke="white" stroke-width="1"
         points="460.000,40.000 470.000,40.000 470.000,30.000 480.000,30.000 480.000,20.000 500.000,20.000 500.000,10.000 470.000,10.000 470.000,20.000 460.000,20.000">
<desc>w06</desc>
</polygon>
<polygon fill="green" stroke="white" stroke-width="1"
         points="40.000,30.000 60.000,30.000 60.000,20.000 70.000,20.000 70.000,10.000 30.000,10.000 30.000,20.000 40.000,20.000">
<desc>D06</desc>
</polygon>
<polygon fill="turquoise" stroke="white" stroke-width="1"
         points="390.000,30.000 400.000,30.000 400.000,20.000 430.000,20.000 430.000,10.000 380.000,10.000 380.000,20.000 390.000,20.000">
<desc>Y06</desc>
</polygon>
<polygon fill="maroon" stroke="white" stroke-width="1"
         points="480.000,30.000 510.000,30.000 510.000,20.000 530.000,20.000 530.000,10.000 500.000,10.000 500.000,20.000 480.000,20.000">
<desc>S06</desc>
</polygon>
<polygon fill="gold" stroke="white" stroke-width="1"
         points="110.000,20.000 170.000,20.000 170.000,10.000 110.000,10.000">
<desc>I06</desc>
</polygon>
</g>
</svg>
