<?xml version="1.0" standalone="no"?>
<!-- Created by Polyform Puzzler (http://puzzler.sourceforge.net/) -->
<svg width="320" height="50" viewBox="0 0 320 50"
     xmlns="http://www.w3.org/2000/svg"
     xmlns:xlink="http://www.w3.org/1999/xlink">
<g>
<polygon fill="turquoise" stroke="white" stroke-width="1"
         points="10.000,40.000 30.000,40.000 30.000,30.000 20.000,30.000 20.000,20.000 30.000,20.000 30.000,10.000 10.000,10.000">
<desc>U</desc>
</polygon>
<polygon fill="red" stroke="white" stroke-width="1"
         points="30.000,40.000 40.000,40.000 40.000,30.000 50.000,30.000 50.000,20.000 40.000,20.000 40.000,10.000 30.000,10.000 30.000,20.000 20.000,20.000 20.000,30.000 30.000,30.000">
<desc>X</desc>
</polygon>
<polygon fill="blue" stroke="white" stroke-width="1"
         points="40.000,40.000 90.000,40.000 90.000,30.000 40.000,30.000">
<desc>I</desc>
</polygon>
<polygon fill="navy" stroke="white" stroke-width="1"
         points="90.000,40.000 120.000,40.000 120.000,30.000 100.000,30.000 100.000,20.000 80.000,20.000 80.000,30.000 90.000,30.000">
<desc>n</desc>
</polygon>
<polygon fill="green" stroke="white" stroke-width="1"
         points="120.000,40.000 130.000,40.000 130.000,20.000 120.000,20.000 120.000,10.000 110.000,10.000 110.000,20.000 100.000,20.000 100.000,30.000 120.000,30.000">
<desc>F</desc>
</polygon>
<polygon fill="darkorange" stroke="white" stroke-width="1"
         points="130.000,40.000 140.000,40.000 140.000,20.000 150.000,20.000 150.000,10.000 120.000,10.000 120.000,20.000 130.000,20.000">
<desc>T</desc>
</polygon>
<polygon fill="green" stroke="white" stroke-width="1"
         points="140.000,40.000 150.000,40.000 150.000,30.000 170.000,30.000 170.000,20.000 160.000,20.000 160.000,10.000 150.000,10.000 150.000,20.000 140.000,20.000">
<desc>f</desc>
</polygon>
<polygon fill="navy" stroke="white" stroke-width="1"
         points="150.000,40.000 180.000,40.000 180.000,30.000 190.000,30.000 190.000,20.000 170.000,20.000 170.000,30.000 150.000,30.000">
<desc>N</desc>
</polygon>
<polygon fill="gold" stroke="white" stroke-width="1"
         points="180.000,40.000 220.000,40.000 220.000,30.000 210.000,30.000 210.000,20.000 200.000,20.000 200.000,30.000 180.000,30.000">
<desc>Y</desc>
</polygon>
<polygon fill="maroon" stroke="white" stroke-width="1"
         points="220.000,40.000 230.000,40.000 230.000,20.000 220.000,20.000 220.000,10.000 200.000,10.000 200.000,20.000 210.000,20.000 210.000,30.000 220.000,30.000">
<desc>W</desc>
</polygon>
<polygon fill="plum" stroke="white" stroke-width="1"
         points="230.000,40.000 250.000,40.000 250.000,30.000 240.000,30.000 240.000,10.000 220.000,10.000 220.000,20.000 230.000,20.000">
<desc>Z</desc>
</polygon>
<polygon fill="gold" stroke="white" stroke-width="1"
         points="250.000,40.000 290.000,40.000 290.000,30.000 270.000,30.000 270.000,20.000 260.000,20.000 260.000,30.000 250.000,30.000">
<desc>y</desc>
</polygon>
<polygon fill="plum" stroke="white" stroke-width="1"
         points="290.000,40.000 300.000,40.000 300.000,20.000 280.000,20.000 280.000,10.000 270.000,10.000 270.000,30.000 290.000,30.000">
<desc>z</desc>
</polygon>
<polygon fill="blueviolet" stroke="white" stroke-width="1"
         points="300.000,40.000 310.000,40.000 310.000,10.000 280.000,10.000 280.000,20.000 300.000,20.000">
<desc>V</desc>
</polygon>
<polygon fill="magenta" stroke="white" stroke-width="1"
         points="50.000,30.000 70.000,30.000 70.000,10.000 40.000,10.000 40.000,20.000 50.000,20.000">
<desc>p</desc>
</polygon>
<polygon fill="lime" stroke="white" stroke-width="1"
         points="70.000,30.000 80.000,30.000 80.000,20.000 110.000,20.000 110.000,10.000 70.000,10.000">
<desc>L</desc>
</polygon>
<polygon fill="lime" stroke="white" stroke-width="1"
         points="190.000,30.000 200.000,30.000 200.000,10.000 160.000,10.000 160.000,20.000 190.000,20.000">
<desc>l</desc>
</polygon>
<polygon fill="magenta" stroke="white" stroke-width="1"
         points="240.000,30.000 260.000,30.000 260.000,20.000 270.000,20.000 270.000,10.000 240.000,10.000">
<desc>P</desc>
</polygon>
</g>

</svg>
