<?xml version="1.0" standalone="no"?>
<!-- Created by Polyform Puzzler (http://puzzler.sourceforge.net/) -->
<svg width="170" height="60" viewBox="0 0 170 60"
     xmlns="http://www.w3.org/2000/svg"
     xmlns:xlink="http://www.w3.org/1999/xlink">
<g>
<polygon fill="lime" stroke="white" stroke-width="1"
         points="10.000,50.000 30.000,50.000 30.000,40.000 20.000,40.000 20.000,10.000 10.000,10.000">
<desc>L</desc>
</polygon>
<polygon fill="red" stroke="white" stroke-width="1"
         points="30.000,50.000 40.000,50.000 40.000,40.000 50.000,40.000 50.000,30.000 40.000,30.000 40.000,20.000 30.000,20.000 30.000,30.000 20.000,30.000 20.000,40.000 30.000,40.000">
<desc>X</desc>
</polygon>
<polygon fill="green" stroke="white" stroke-width="1"
         points="40.000,50.000 60.000,50.000 60.000,40.000 70.000,40.000 70.000,30.000 60.000,30.000 60.000,20.000 50.000,20.000 50.000,40.000 40.000,40.000">
<desc>F</desc>
</polygon>
<polygon fill="magenta" stroke="white" stroke-width="1"
         points="60.000,50.000 90.000,50.000 90.000,30.000 70.000,30.000 70.000,40.000 60.000,40.000">
<desc>P</desc>
</polygon>
<polygon fill="blue" stroke="white" stroke-width="1"
         points="90.000,50.000 140.000,50.000 140.000,40.000 90.000,40.000">
<desc>I</desc>
</polygon>
<polygon fill="plum" stroke="white" stroke-width="1"
         points="140.000,50.000 160.000,50.000 160.000,40.000 150.000,40.000 150.000,20.000 130.000,20.000 130.000,30.000 140.000,30.000">
<desc>Z</desc>
</polygon>
<polygon fill="maroon" stroke="white" stroke-width="1"
         points="90.000,40.000 110.000,40.000 110.000,30.000 120.000,30.000 120.000,10.000 110.000,10.000 110.000,20.000 100.000,20.000 100.000,30.000 90.000,30.000">
<desc>W</desc>
</polygon>
<polygon fill="darkorange" stroke="white" stroke-width="1"
         points="110.000,40.000 140.000,40.000 140.000,30.000 130.000,30.000 130.000,10.000 120.000,10.000 120.000,30.000 110.000,30.000">
<desc>T</desc>
</polygon>
<polygon fill="blueviolet" stroke="white" stroke-width="1"
         points="150.000,40.000 160.000,40.000 160.000,10.000 130.000,10.000 130.000,20.000 150.000,20.000">
<desc>V</desc>
</polygon>
<polygon fill="turquoise" stroke="white" stroke-width="1"
         points="20.000,30.000 30.000,30.000 30.000,20.000 40.000,20.000 40.000,30.000 50.000,30.000 50.000,10.000 20.000,10.000">
<desc>U</desc>
</polygon>
<polygon fill="navy" stroke="white" stroke-width="1"
         points="60.000,30.000 90.000,30.000 90.000,20.000 70.000,20.000 70.000,10.000 50.000,10.000 50.000,20.000 60.000,20.000">
<desc>N</desc>
</polygon>
<polygon fill="gold" stroke="white" stroke-width="1"
         points="90.000,30.000 100.000,30.000 100.000,20.000 110.000,20.000 110.000,10.000 70.000,10.000 70.000,20.000 90.000,20.000">
<desc>Y</desc>
</polygon>
</g>

</svg>
