<?xml version="1.0" standalone="no"?>
<!-- Created by Polyform Puzzler (http://puzzler.sourceforge.net/) -->
<svg width="230" height="50" viewBox="0 0 230 50"
     xmlns="http://www.w3.org/2000/svg"
     xmlns:xlink="http://www.w3.org/1999/xlink">
<g>
<polygon fill="gray" stroke="white" stroke-width="1"
         points="10.000,40.000 20.000,40.000 20.000,30.000 10.000,30.000">
<desc>0</desc>
</polygon>
<polygon fill="gray" stroke="white" stroke-width="1"
         points="20.000,40.000 30.000,40.000 30.000,30.000 20.000,30.000">
<desc>0</desc>
</polygon>
<polygon fill="gray" stroke="white" stroke-width="1"
         points="30.000,40.000 40.000,40.000 40.000,30.000 30.000,30.000">
<desc>0</desc>
</polygon>
<polygon fill="gray" stroke="white" stroke-width="1"
         points="40.000,40.000 50.000,40.000 50.000,30.000 40.000,30.000">
<desc>0</desc>
</polygon>
<polygon fill="gray" stroke="white" stroke-width="1"
         points="50.000,40.000 60.000,40.000 60.000,30.000 50.000,30.000">
<desc>0</desc>
</polygon>
<polygon fill="gray" stroke="white" stroke-width="1"
         points="60.000,40.000 70.000,40.000 70.000,30.000 60.000,30.000">
<desc>0</desc>
</polygon>
<polygon fill="gray" stroke="white" stroke-width="1"
         points="70.000,40.000 80.000,40.000 80.000,30.000 70.000,30.000">
<desc>0</desc>
</polygon>
<polygon fill="gray" stroke="white" stroke-width="1"
         points="80.000,40.000 90.000,40.000 90.000,30.000 80.000,30.000">
<desc>0</desc>
</polygon>
<polygon fill="gray" stroke="white" stroke-width="1"
         points="90.000,40.000 100.000,40.000 100.000,30.000 90.000,30.000">
<desc>0</desc>
</polygon>
<polygon fill="gray" stroke="white" stroke-width="1"
         points="100.000,40.000 110.000,40.000 110.000,30.000 100.000,30.000">
<desc>0</desc>
</polygon>
<polygon fill="gray" stroke="white" stroke-width="1"
         points="110.000,40.000 120.000,40.000 120.000,30.000 110.000,30.000">
<desc>0</desc>
</polygon>
<polygon fill="gray" stroke="white" stroke-width="1"
         points="120.000,40.000 130.000,40.000 130.000,30.000 120.000,30.000">
<desc>0</desc>
</polygon>
<polygon fill="gray" stroke="white" stroke-width="1"
         points="130.000,40.000 140.000,40.000 140.000,30.000 130.000,30.000">
<desc>0</desc>
</polygon>
<polygon fill="gray" stroke="white" stroke-width="1"
         points="140.000,40.000 150.000,40.000 150.000,30.000 140.000,30.000">
<desc>0</desc>
</polygon>
<polygon fill="gray" stroke="white" stroke-width="1"
         points="150.000,40.000 160.000,40.000 160.000,30.000 150.000,30.000">
<desc>0</desc>
</polygon>
<polygon fill="gray" stroke="white" stroke-width="1"
         points="160.000,40.000 170.000,40.000 170.000,30.000 160.000,30.000">
<desc>0</desc>
</polygon>
<polygon fill="gray" stroke="white" stroke-width="1"
         points="170.000,40.000 180.000,40.000 180.000,30.000 170.000,30.000">
<desc>0</desc>
</polygon>
<polygon fill="gray" stroke="white" stroke-width="1"
         points="180.000,40.000 190.000,40.000 190.000,30.000 180.000,30.000">
<desc>0</desc>
</polygon>
<polygon fill="gray" stroke="white" stroke-width="1"
         points="190.000,40.000 200.000,40.000 200.000,30.000 190.000,30.000">
<desc>0</desc>
</polygon>
<polygon fill="gray" stroke="white" stroke-width="1"
         points="200.000,40.000 210.000,40.000 210.000,30.000 200.000,30.000">
<desc>0</desc>
</polygon>
<polygon fill="gray" stroke="white" stroke-width="1"
         points="210.000,40.000 220.000,40.000 220.000,30.000 210.000,30.000">
<desc>0</desc>
</polygon>
<polygon fill="gray" stroke="white" stroke-width="1"
         points="10.000,30.000 20.000,30.000 20.000,20.000 10.000,20.000">
<desc>0</desc>
</polygon>
<polygon fill="gray" stroke="white" stroke-width="1"
         points="20.000,30.000 30.000,30.000 30.000,20.000 20.000,20.000">
<desc>0</desc>
</polygon>
<polygon fill="gray" stroke="white" stroke-width="1"
         points="30.000,30.000 40.000,30.000 40.000,20.000 30.000,20.000">
<desc>0</desc>
</polygon>
<polygon fill="gray" stroke="white" stroke-width="1"
         points="40.000,30.000 50.000,30.000 50.000,20.000 40.000,20.000">
<desc>0</desc>
</polygon>
<polygon fill="gray" stroke="white" stroke-width="1"
         points="60.000,30.000 70.000,30.000 70.000,20.000 60.000,20.000">
<desc>0</desc>
</polygon>
<polygon fill="gray" stroke="white" stroke-width="1"
         points="70.000,30.000 80.000,30.000 80.000,20.000 70.000,20.000">
<desc>0</desc>
</polygon>
<polygon fill="gray" stroke="white" stroke-width="1"
         points="80.000,30.000 90.000,30.000 90.000,20.000 80.000,20.000">
<desc>0</desc>
</polygon>
<polygon fill="gray" stroke="white" stroke-width="1"
         points="90.000,30.000 100.000,30.000 100.000,20.000 90.000,20.000">
<desc>0</desc>
</polygon>
<polygon fill="gray" stroke="white" stroke-width="1"
         points="100.000,30.000 110.000,30.000 110.000,20.000 100.000,20.000">
<desc>0</desc>
</polygon>
<polygon fill="gray" stroke="white" stroke-width="1"
         points="120.000,30.000 130.000,30.000 130.000,20.000 120.000,20.000">
<desc>0</desc>
</polygon>
<polygon fill="gray" stroke="white" stroke-width="1"
         points="130.000,30.000 140.000,30.000 140.000,20.000 130.000,20.000">
<desc>0</desc>
</polygon>
<polygon fill="gray" stroke="white" stroke-width="1"
         points="140.000,30.000 150.000,30.000 150.000,20.000 140.000,20.000">
<desc>0</desc>
</polygon>
<polygon fill="gray" stroke="white" stroke-width="1"
         points="150.000,30.000 160.000,30.000 160.000,20.000 150.000,20.000">
<desc>0</desc>
</polygon>
<polygon fill="gray" stroke="white" stroke-width="1"
         points="160.000,30.000 170.000,30.000 170.000,20.000 160.000,20.000">
<desc>0</desc>
</polygon>
<polygon fill="gray" stroke="white" stroke-width="1"
         points="180.000,30.000 190.000,30.000 190.000,20.000 180.000,20.000">
<desc>0</desc>
</polygon>
<polygon fill="gray" stroke="white" stroke-width="1"
         points="190.000,30.000 200.000,30.000 200.000,20.000 190.000,20.000">
<desc>0</desc>
</polygon>
<polygon fill="gray" stroke="white" stroke-width="1"
         points="200.000,30.000 210.000,30.000 210.000,20.000 200.000,20.000">
<desc>0</desc>
</polygon>
<polygon fill="gray" stroke="white" stroke-width="1"
         points="210.000,30.000 220.000,30.000 220.000,20.000 210.000,20.000">
<desc>0</desc>
</polygon>
<polygon fill="gray" stroke="white" stroke-width="1"
         points="10.000,20.000 20.000,20.000 20.000,10.000 10.000,10.000">
<desc>0</desc>
</polygon>
<polygon fill="gray" stroke="white" stroke-width="1"
         points="20.000,20.000 30.000,20.000 30.000,10.000 20.000,10.000">
<desc>0</desc>
</polygon>
<polygon fill="gray" stroke="white" stroke-width="1"
         points="30.000,20.000 40.000,20.000 40.000,10.000 30.000,10.000">
<desc>0</desc>
</polygon>
<polygon fill="gray" stroke="white" stroke-width="1"
         points="40.000,20.000 50.000,20.000 50.000,10.000 40.000,10.000">
<desc>0</desc>
</polygon>
<polygon fill="gray" stroke="white" stroke-width="1"
         points="50.000,20.000 60.000,20.000 60.000,10.000 50.000,10.000">
<desc>0</desc>
</polygon>
<polygon fill="gray" stroke="white" stroke-width="1"
         points="60.000,20.000 70.000,20.000 70.000,10.000 60.000,10.000">
<desc>0</desc>
</polygon>
<polygon fill="gray" stroke="white" stroke-width="1"
         points="70.000,20.000 80.000,20.000 80.000,10.000 70.000,10.000">
<desc>0</desc>
</polygon>
<polygon fill="gray" stroke="white" stroke-width="1"
         points="80.000,20.000 90.000,20.000 90.000,10.000 80.000,10.000">
<desc>0</desc>
</polygon>
<polygon fill="gray" stroke="white" stroke-width="1"
         points="90.000,20.000 100.000,20.000 100.000,10.000 90.000,10.000">
<desc>0</desc>
</polygon>
<polygon fill="gray" stroke="white" stroke-width="1"
         points="100.000,20.000 110.000,20.000 110.000,10.000 100.000,10.000">
<desc>0</desc>
</polygon>
<polygon fill="gray" stroke="white" stroke-width="1"
         points="110.000,20.000 120.000,20.000 120.000,10.000 110.000,10.000">
<desc>0</desc>
</polygon>
<polygon fill="gray" stroke="white" stroke-width="1"
         points="120.000,20.000 130.000,20.000 130.000,10.000 120.000,10.000">
<desc>0</desc>
</polygon>
<polygon fill="gray" stroke="white" stroke-width="1"
         points="130.000,20.000 140.000,20.000 140.000,10.000 130.000,10.000">
<desc>0</desc>
</polygon>
<polygon fill="gray" stroke="white" stroke-width="1"
         points="140.000,20.000 150.000,20.000 150.000,10.000 140.000,10.000">
<desc>0</desc>
</polygon>
<polygon fill="gray" stroke="white" stroke-width="1"
         points="150.000,20.000 160.000,20.000 160.000,10.000 150.000,10.000">
<desc>0</desc>
</polygon>
<polygon fill="gray" stroke="white" stroke-width="1"
         points="160.000,20.000 170.000,20.000 170.000,10.000 160.000,10.000">
<desc>0</desc>
</polygon>
<polygon fill="gray" stroke="white" stroke-width="1"
         points="170.000,20.000 180.000,20.000 180.000,10.000 170.000,10.000">
<desc>0</desc>
</polygon>
<polygon fill="gray" stroke="white" stroke-width="1"
         points="180.000,20.000 190.000,20.000 190.000,10.000 180.000,10.000">
<desc>0</desc>
</polygon>
<polygon fill="gray" stroke="white" stroke-width="1"
         points="190.000,20.000 200.000,20.000 200.000,10.000 190.000,10.000">
<desc>0</desc>
</polygon>
<polygon fill="gray" stroke="white" stroke-width="1"
         points="200.000,20.000 210.000,20.000 210.000,10.000 200.000,10.000">
<desc>0</desc>
</polygon>
<polygon fill="gray" stroke="white" stroke-width="1"
         points="210.000,20.000 220.000,20.000 220.000,10.000 210.000,10.000">
<desc>0</desc>
</polygon>
</g>
</svg>
