<?xml version="1.0" standalone="no"?>
<!-- Created by Polyform Puzzler (http://puzzler.sourceforge.net/) -->
<svg width="290.000" height="310.000"
     viewBox="0 0 290.000 310.000"
     xmlns="http://www.w3.org/2000/svg"
     xmlns:xlink="http://www.w3.org/1999/xlink">
<g>
<polygon fill="gold" stroke="white" stroke-width="1"
         points="140.000,300.000 150.000,300.000 150.000,240.000 140.000,240.000">
<desc>I06</desc>
</polygon>
<polygon fill="navy" stroke="white" stroke-width="1"
         points="130.000,270.000 140.000,270.000 140.000,240.000 150.000,240.000 150.000,230.000 130.000,230.000 130.000,240.000 120.000,240.000 120.000,250.000 130.000,250.000">
<desc>F06</desc>
</polygon>
<polygon fill="turquoise" stroke="white" stroke-width="1"
         points="150.000,270.000 160.000,270.000 160.000,250.000 180.000,250.000 180.000,240.000 170.000,240.000 170.000,230.000 160.000,230.000 160.000,240.000 150.000,240.000">
<desc>F36</desc>
</polygon>
<polygon fill="navy" stroke="white" stroke-width="1"
         points="110.000,250.000 120.000,250.000 120.000,240.000 130.000,240.000 130.000,230.000 120.000,230.000 120.000,220.000 110.000,220.000 110.000,210.000 100.000,210.000 100.000,230.000 110.000,230.000">
<desc>W26</desc>
</polygon>
<polygon fill="blue" stroke="white" stroke-width="1"
         points="150.000,240.000 160.000,240.000 160.000,230.000 170.000,230.000 170.000,220.000 180.000,220.000 180.000,210.000 150.000,210.000">
<desc>A06</desc>
</polygon>
<polygon fill="turquoise" stroke="white" stroke-width="1"
         points="170.000,240.000 180.000,240.000 180.000,230.000 200.000,230.000 200.000,210.000 180.000,210.000 180.000,220.000 170.000,220.000">
<desc>Q06</desc>
</polygon>
<polygon fill="magenta" stroke="white" stroke-width="1"
         points="90.000,230.000 100.000,230.000 100.000,210.000 110.000,210.000 110.000,200.000 100.000,200.000 100.000,190.000 90.000,190.000 90.000,200.000 80.000,200.000 80.000,210.000 90.000,210.000">
<desc>X06</desc>
</polygon>
<polygon fill="blue" stroke="white" stroke-width="1"
         points="120.000,230.000 140.000,230.000 140.000,210.000 130.000,210.000 130.000,200.000 120.000,200.000 120.000,210.000 110.000,210.000 110.000,220.000 120.000,220.000">
<desc>K06</desc>
</polygon>
<polygon fill="lime" stroke="white" stroke-width="1"
         points="140.000,230.000 150.000,230.000 150.000,210.000 160.000,210.000 160.000,200.000 140.000,200.000">
<desc>L4</desc>
</polygon>
<polygon fill="darkorange" stroke="white" stroke-width="1"
         points="70.000,210.000 80.000,210.000 80.000,200.000 90.000,200.000 90.000,190.000 80.000,190.000 80.000,170.000 70.000,170.000 70.000,180.000 60.000,180.000 60.000,190.000 70.000,190.000">
<desc>X16</desc>
</polygon>
<polygon fill="lime" stroke="white" stroke-width="1"
         points="110.000,210.000 120.000,210.000 120.000,190.000 110.000,190.000 110.000,180.000 100.000,180.000 100.000,170.000 90.000,170.000 90.000,190.000 100.000,190.000 100.000,200.000 110.000,200.000">
<desc>W16</desc>
</polygon>
<polygon fill="green" stroke="white" stroke-width="1"
         points="130.000,210.000 140.000,210.000 140.000,200.000 150.000,200.000 150.000,180.000 140.000,180.000 140.000,190.000 120.000,190.000 120.000,200.000 130.000,200.000">
<desc>F</desc>
</polygon>
<polygon fill="turquoise" stroke="white" stroke-width="1"
         points="160.000,210.000 210.000,210.000 210.000,200.000 200.000,200.000 200.000,190.000 190.000,190.000 190.000,200.000 160.000,200.000">
<desc>Y06</desc>
</polygon>
<polygon fill="gold" stroke="white" stroke-width="1"
         points="210.000,210.000 220.000,210.000 220.000,190.000 240.000,190.000 240.000,170.000 230.000,170.000 230.000,180.000 210.000,180.000">
<desc>Z16</desc>
</polygon>
<polygon fill="blueviolet" stroke="white" stroke-width="1"
         points="150.000,200.000 160.000,200.000 160.000,170.000 130.000,170.000 130.000,180.000 150.000,180.000">
<desc>V</desc>
</polygon>
<polygon fill="gold" stroke="white" stroke-width="1"
         points="160.000,200.000 170.000,200.000 170.000,190.000 180.000,190.000 180.000,180.000 170.000,180.000 170.000,160.000 160.000,160.000">
<desc>Y</desc>
</polygon>
<polygon fill="blueviolet" stroke="white" stroke-width="1"
         points="170.000,200.000 190.000,200.000 190.000,190.000 200.000,190.000 200.000,200.000 210.000,200.000 210.000,180.000 180.000,180.000 180.000,190.000 170.000,190.000">
<desc>G06</desc>
</polygon>
<polygon fill="gold" stroke="white" stroke-width="1"
         points="50.000,190.000 60.000,190.000 60.000,160.000 70.000,160.000 70.000,150.000 40.000,150.000 40.000,160.000 50.000,160.000">
<desc>T06</desc>
</polygon>
<polygon fill="plum" stroke="white" stroke-width="1"
         points="80.000,190.000 90.000,190.000 90.000,160.000 60.000,160.000 60.000,180.000 70.000,180.000 70.000,170.000 80.000,170.000">
<desc>J06</desc>
</polygon>
<polygon fill="maroon" stroke="white" stroke-width="1"
         points="110.000,190.000 120.000,190.000 120.000,170.000 110.000,170.000 110.000,160.000 90.000,160.000 90.000,170.000 100.000,170.000 100.000,180.000 110.000,180.000">
<desc>W</desc>
</polygon>
<polygon fill="plum" stroke="white" stroke-width="1"
         points="120.000,190.000 140.000,190.000 140.000,180.000 130.000,180.000 130.000,160.000 110.000,160.000 110.000,170.000 120.000,170.000">
<desc>Z</desc>
</polygon>
<polygon fill="plum" stroke="white" stroke-width="1"
         points="170.000,180.000 190.000,180.000 190.000,160.000 170.000,160.000">
<desc>O4</desc>
</polygon>
<polygon fill="green" stroke="white" stroke-width="1"
         points="190.000,180.000 230.000,180.000 230.000,170.000 220.000,170.000 220.000,160.000 200.000,160.000 200.000,170.000 190.000,170.000">
<desc>D06</desc>
</polygon>
<polygon fill="darkorange" stroke="white" stroke-width="1"
         points="30.000,170.000 50.000,170.000 50.000,160.000 40.000,160.000 40.000,140.000 30.000,140.000 30.000,150.000 10.000,150.000 10.000,160.000 30.000,160.000">
<desc>F26</desc>
</polygon>
<polygon fill="green" stroke="white" stroke-width="1"
         points="130.000,170.000 140.000,170.000 140.000,140.000 130.000,140.000">
<desc>I3</desc>
</polygon>
<polygon fill="darkorange" stroke="white" stroke-width="1"
         points="140.000,170.000 160.000,170.000 160.000,150.000 150.000,150.000 150.000,160.000 140.000,160.000">
<desc>V3</desc>
</polygon>
<polygon fill="darkorange" stroke="white" stroke-width="1"
         points="190.000,170.000 200.000,170.000 200.000,160.000 220.000,160.000 220.000,150.000 200.000,150.000 200.000,140.000 190.000,140.000">
<desc>T</desc>
</polygon>
<polygon fill="green" stroke="white" stroke-width="1"
         points="220.000,170.000 230.000,170.000 230.000,160.000 250.000,160.000 250.000,150.000 260.000,150.000 260.000,140.000 240.000,140.000 240.000,150.000 220.000,150.000">
<desc>M06</desc>
</polygon>
<polygon fill="maroon" stroke="white" stroke-width="1"
         points="230.000,170.000 260.000,170.000 260.000,160.000 280.000,160.000 280.000,150.000 250.000,150.000 250.000,160.000 230.000,160.000">
<desc>S06</desc>
</polygon>
<polygon fill="magenta" stroke="white" stroke-width="1"
         points="70.000,160.000 110.000,160.000 110.000,150.000 70.000,150.000">
<desc>I4</desc>
</polygon>
<polygon fill="navy" stroke="white" stroke-width="1"
         points="110.000,160.000 130.000,160.000 130.000,150.000 120.000,150.000 120.000,140.000 90.000,140.000 90.000,150.000 110.000,150.000">
<desc>N</desc>
</polygon>
<polygon fill="blue" stroke="white" stroke-width="1"
         points="140.000,160.000 150.000,160.000 150.000,150.000 140.000,150.000">
<desc>O1</desc>
</polygon>
<polygon fill="turquoise" stroke="white" stroke-width="1"
         points="160.000,160.000 190.000,160.000 190.000,140.000 180.000,140.000 180.000,150.000 170.000,150.000 170.000,140.000 160.000,140.000">
<desc>U</desc>
</polygon>
<polygon fill="blueviolet" stroke="white" stroke-width="1"
         points="40.000,150.000 90.000,150.000 90.000,140.000 70.000,140.000 70.000,130.000 60.000,130.000 60.000,140.000 40.000,140.000">
<desc>Y16</desc>
</polygon>
<polygon fill="lime" stroke="white" stroke-width="1"
         points="120.000,150.000 130.000,150.000 130.000,140.000 160.000,140.000 160.000,130.000 120.000,130.000">
<desc>L</desc>
</polygon>
<polygon fill="red" stroke="white" stroke-width="1"
         points="140.000,150.000 160.000,150.000 160.000,140.000 140.000,140.000">
<desc>I2</desc>
</polygon>
<polygon fill="red" stroke="white" stroke-width="1"
         points="170.000,150.000 180.000,150.000 180.000,140.000 190.000,140.000 190.000,130.000 180.000,130.000 180.000,120.000 170.000,120.000 170.000,130.000 160.000,130.000 160.000,140.000 170.000,140.000">
<desc>X</desc>
</polygon>
<polygon fill="red" stroke="white" stroke-width="1"
         points="200.000,150.000 240.000,150.000 240.000,120.000 230.000,120.000 230.000,140.000 200.000,140.000">
<desc>V06</desc>
</polygon>
<polygon fill="maroon" stroke="white" stroke-width="1"
         points="50.000,140.000 60.000,140.000 60.000,130.000 70.000,130.000 70.000,140.000 80.000,140.000 80.000,110.000 70.000,110.000 70.000,120.000 50.000,120.000">
<desc>H06</desc>
</polygon>
<polygon fill="maroon" stroke="white" stroke-width="1"
         points="80.000,140.000 100.000,140.000 100.000,130.000 90.000,130.000 90.000,100.000 70.000,100.000 70.000,110.000 80.000,110.000">
<desc>Z06</desc>
</polygon>
<polygon fill="maroon" stroke="white" stroke-width="1"
         points="100.000,140.000 120.000,140.000 120.000,130.000 130.000,130.000 130.000,120.000 110.000,120.000 110.000,130.000 100.000,130.000">
<desc>Z4</desc>
</polygon>
<polygon fill="red" stroke="white" stroke-width="1"
         points="190.000,140.000 230.000,140.000 230.000,120.000 220.000,120.000 220.000,130.000 200.000,130.000 200.000,120.000 190.000,120.000">
<desc>C06</desc>
</polygon>
<polygon fill="red" stroke="white" stroke-width="1"
         points="90.000,130.000 110.000,130.000 110.000,120.000 100.000,120.000 100.000,80.000 90.000,80.000">
<desc>L06</desc>
</polygon>
<polygon fill="blueviolet" stroke="white" stroke-width="1"
         points="130.000,130.000 140.000,130.000 140.000,100.000 130.000,100.000 130.000,110.000 120.000,110.000 120.000,120.000 130.000,120.000">
<desc>T4</desc>
</polygon>
<polygon fill="blue" stroke="white" stroke-width="1"
         points="140.000,130.000 150.000,130.000 150.000,80.000 140.000,80.000">
<desc>I</desc>
</polygon>
<polygon fill="magenta" stroke="white" stroke-width="1"
         points="150.000,130.000 170.000,130.000 170.000,110.000 160.000,110.000 160.000,100.000 150.000,100.000">
<desc>P</desc>
</polygon>
<polygon fill="lime" stroke="white" stroke-width="1"
         points="180.000,130.000 190.000,130.000 190.000,120.000 200.000,120.000 200.000,90.000 190.000,90.000 190.000,100.000 180.000,100.000">
<desc>N06</desc>
</polygon>
<polygon fill="magenta" stroke="white" stroke-width="1"
         points="200.000,130.000 220.000,130.000 220.000,100.000 200.000,100.000">
<desc>O06</desc>
</polygon>
<polygon fill="blue" stroke="white" stroke-width="1"
         points="100.000,120.000 120.000,120.000 120.000,110.000 110.000,110.000 110.000,100.000 120.000,100.000 120.000,90.000 110.000,90.000 110.000,80.000 100.000,80.000">
<desc>U06</desc>
</polygon>
<polygon fill="blueviolet" stroke="white" stroke-width="1"
         points="170.000,120.000 180.000,120.000 180.000,100.000 190.000,100.000 190.000,90.000 160.000,90.000 160.000,110.000 170.000,110.000">
<desc>R06</desc>
</polygon>
<polygon fill="lime" stroke="white" stroke-width="1"
         points="110.000,110.000 130.000,110.000 130.000,100.000 140.000,100.000 140.000,90.000 130.000,90.000 130.000,80.000 110.000,80.000 110.000,90.000 120.000,90.000 120.000,100.000 110.000,100.000">
<desc>E06</desc>
</polygon>
<polygon fill="darkorange" stroke="white" stroke-width="1"
         points="150.000,100.000 160.000,100.000 160.000,80.000 170.000,80.000 170.000,60.000 150.000,60.000">
<desc>P06</desc>
</polygon>
<polygon fill="magenta" stroke="white" stroke-width="1"
         points="130.000,90.000 140.000,90.000 140.000,80.000 150.000,80.000 150.000,70.000 120.000,70.000 120.000,60.000 110.000,60.000 110.000,80.000 130.000,80.000">
<desc>F16</desc>
</polygon>
<polygon fill="plum" stroke="white" stroke-width="1"
         points="160.000,90.000 200.000,90.000 200.000,80.000 180.000,80.000 180.000,60.000 170.000,60.000 170.000,80.000 160.000,80.000">
<desc>T16</desc>
</polygon>
<polygon fill="green" stroke="white" stroke-width="1"
         points="120.000,70.000 150.000,70.000 150.000,60.000 160.000,60.000 160.000,40.000 150.000,40.000 150.000,50.000 140.000,50.000 140.000,60.000 120.000,60.000">
<desc>W06</desc>
</polygon>
<polygon fill="navy" stroke="white" stroke-width="1"
         points="130.000,60.000 140.000,60.000 140.000,50.000 150.000,50.000 150.000,10.000 140.000,10.000 140.000,40.000 130.000,40.000">
<desc>N16</desc>
</polygon>
</g>
</svg>
