<?xml version="1.0" standalone="no"?>
<!-- Created by Polyform Puzzler (http://puzzler.sourceforge.net/) -->
<svg width="95.0" height="34.6410161514" viewBox="0 0 95.0 34.6410161514"
     xmlns="http://www.w3.org/2000/svg"
     xmlns:xlink="http://www.w3.org/1999/xlink">
<g>
<path stroke="gold" stroke-width="1.6" stroke-linecap="round"
      fill="none" d="M 16.600,27.540 a 5.543,5.543 0 0,1 -4.800,2.771 M 16.600,27.540 l 1.800,-3.118 M 18.400,18.879 a 5.543,5.543 0 0,1 0.000,5.543 M 18.400,18.879 l -2.100,-3.637 M 7.600,30.311 l 4.200,0.000">
<desc>C3</desc>
</path>
<path stroke="maroon" stroke-width="1.6" stroke-linecap="round"
      fill="none" d="M 11.500,24.249 a 1.732,1.732 0 0,1 1.500,-2.598 M 13.000,21.651 l 4.400,0.000 M 13.700,28.059 l -2.200,-3.811 M 6.300,28.059 l 2.200,-3.811 M 8.400,24.422 a 5.543,5.543 0 0,1 4.800,-2.771 M 8.500,24.249 a 1.732,1.732 0 0,1 3.000,0.000">
<desc>E3</desc>
</path>
<path stroke="blue" stroke-width="1.6" stroke-linecap="round"
      fill="none" d="M 22.600,4.330 l 7.400,0.000 M 30.000,4.330 l 10.000,0.000 M 40.000,4.330 l 7.400,0.000">
<desc>I3</desc>
</path>
<path stroke="blueviolet" stroke-width="1.6" stroke-linecap="round"
      fill="none" d="M 17.600,30.311 l 7.400,0.000 M 25.000,30.311 l 7.000,0.000 M 33.500,27.713 a 1.732,1.732 0 0,1 -1.500,2.598 M 33.500,27.713 l -2.200,-3.811">
<desc>J3</desc>
</path>
<path stroke="lime" stroke-width="1.6" stroke-linecap="round"
      fill="none" d="M 11.300,19.399 l 2.100,-3.637 M 13.400,15.762 a 5.543,5.543 0 0,1 4.800,-2.771 M 18.200,12.990 l 6.800,0.000 M 25.000,12.990 l 7.400,0.000">
<desc>L3</desc>
</path>
<path stroke="red" stroke-width="1.6" stroke-linecap="round"
      fill="none" d="M 51.500,6.928 a 1.732,1.732 0 0,1 1.500,-2.598 M 53.000,4.330 l 4.000,0.000 M 53.500,10.392 l -2.000,-3.464 M 56.500,10.392 a 1.732,1.732 0 0,1 -3.000,0.000 M 56.500,10.392 l 2.000,-3.464 M 57.000,4.330 a 1.732,1.732 0 0,1 1.500,2.598">
<desc>O3</desc>
</path>
<path stroke="magenta" stroke-width="1.6" stroke-linecap="round"
      fill="none" d="M 43.500,27.713 l -2.200,-3.811 M 46.500,27.713 a 1.732,1.732 0 0,1 -3.000,0.000 M 46.500,27.713 l 1.900,-3.291 M 48.400,24.422 a 5.543,5.543 0 0,1 4.800,-2.771 M 53.200,21.651 l 4.200,0.000">
<desc>P3</desc>
</path>
<path stroke="navy" stroke-width="1.6" stroke-linecap="round"
      fill="none" d="M 22.600,21.651 l 4.200,0.000 M 31.600,18.879 a 5.543,5.543 0 0,1 -4.800,2.771 M 31.600,18.879 l 1.800,-3.118 M 33.400,15.762 a 5.543,5.543 0 0,1 4.800,-2.771 M 38.200,12.990 l 4.200,0.000">
<desc>S3</desc>
</path>
<path stroke="darkorange" stroke-width="1.6" stroke-linecap="round"
      fill="none" d="M 41.300,19.399 l 3.700,-6.409 M 43.500,15.588 a 1.732,1.732 0 0,1 3.000,0.000 M 45.000,12.990 l 3.700,-6.409 M 46.600,15.762 a 5.543,5.543 0 0,1 0.000,-5.543 M 48.700,19.399 l -2.200,-3.811">
<desc>T3</desc>
</path>
<path stroke="turquoise" stroke-width="1.6" stroke-linecap="round"
      fill="none" d="M 63.400,27.540 l -2.100,-3.637 M 68.200,30.311 a 5.543,5.543 0 0,1 -4.800,-2.771 M 68.200,30.311 l 3.800,0.000 M 73.500,27.713 a 1.732,1.732 0 0,1 -1.500,2.598 M 73.500,27.713 l -2.200,-3.811">
<desc>U3</desc>
</path>
<path stroke="green" stroke-width="1.6" stroke-linecap="round"
      fill="none" d="M 56.300,28.059 l 2.100,-3.637 M 58.400,18.879 a 5.543,5.543 0 0,1 0.000,5.543 M 58.400,18.879 l -2.100,-3.637 M 58.400,24.422 a 5.543,5.543 0 0,1 4.800,-2.771 M 63.200,21.651 a 5.543,5.543 0 0,1 -4.800,-2.771 M 63.200,21.651 l 4.200,0.000">
<desc>Y3</desc>
</path>
<path stroke="plum" stroke-width="1.6" stroke-linecap="round"
      fill="none" d="M 33.500,10.392 l -2.200,-3.811 M 36.500,10.392 a 1.732,1.732 0 0,1 -3.000,0.000 M 36.500,10.392 l 2.000,-3.464 M 38.500,6.928 a 1.732,1.732 0 0,1 3.000,0.000 M 43.700,10.739 l -2.200,-3.811">
<desc>Z3</desc>
</path>
<path stroke="blueviolet" stroke-width="1.6" stroke-linecap="round"
      fill="none" d="M 47.600,12.990 l 7.400,0.000 M 55.000,12.990 l 7.000,0.000 M 61.300,19.399 l 2.200,-3.811 M 62.000,12.990 a 1.732,1.732 0 0,1 1.500,2.598">
<desc>j3</desc>
</path>
<path stroke="lime" stroke-width="1.6" stroke-linecap="round"
      fill="none" d="M 65.000,12.990 l -3.700,-6.409 M 66.300,28.059 l 2.100,-3.637 M 68.400,18.879 a 5.543,5.543 0 0,1 0.000,5.543 M 68.400,18.879 l -3.400,-5.889">
<desc>l3</desc>
</path>
<path stroke="magenta" stroke-width="1.6" stroke-linecap="round"
      fill="none" d="M 26.300,28.059 l 2.100,-3.637 M 28.400,24.422 a 5.543,5.543 0 0,1 4.800,-2.771 M 33.200,21.651 l 3.800,0.000 M 38.500,19.053 a 1.732,1.732 0 0,1 -1.500,2.598 M 38.500,19.053 l -2.200,-3.811">
<desc>p3</desc>
</path>
<path stroke="navy" stroke-width="1.6" stroke-linecap="round"
      fill="none" d="M 36.300,28.059 l 2.100,-3.637 M 38.400,24.422 a 5.543,5.543 0 0,1 4.800,-2.771 M 43.200,21.651 l 3.600,0.000 M 51.600,18.879 a 5.543,5.543 0 0,1 -4.800,2.771 M 51.600,18.879 l 2.100,-3.637">
<desc>s3</desc>
</path>
<path stroke="darkorange" stroke-width="1.6" stroke-linecap="round"
      fill="none" d="M 47.600,30.311 l 7.400,0.000 M 53.500,27.713 a 1.732,1.732 0 0,1 -1.500,2.598 M 53.500,27.713 l -2.200,-3.811 M 55.000,30.311 l 7.400,0.000 M 58.200,30.311 a 5.543,5.543 0 0,1 -4.800,-2.771">
<desc>t3</desc>
</path>
<path stroke="turquoise" stroke-width="1.6" stroke-linecap="round"
      fill="none" d="M 21.600,18.879 l 1.900,-3.291 M 21.600,24.422 a 5.543,5.543 0 0,1 0.000,-5.543 M 23.500,15.588 a 1.732,1.732 0 0,1 3.000,0.000 M 23.700,28.059 l -2.100,-3.637 M 28.700,19.399 l -2.200,-3.811">
<desc>u3</desc>
</path>
<path stroke="plum" stroke-width="1.6" stroke-linecap="round"
      fill="none" d="M 16.300,10.739 l 2.200,-3.811 M 18.500,6.928 a 1.732,1.732 0 0,1 3.000,0.000 M 23.500,10.392 l -2.000,-3.464 M 26.500,10.392 a 1.732,1.732 0 0,1 -3.000,0.000 M 26.500,10.392 l 2.200,-3.811">
<desc>z3</desc>
</path>
</g>
</svg>
