<?xml version="1.0" standalone="no"?>
<!-- Created by Polyform Puzzler (http://puzzler.sourceforge.net/) -->
<svg width="110.0" height="77.9422863406" viewBox="0 0 110.0 77.9422863406"
     xmlns="http://www.w3.org/2000/svg"
     xmlns:xlink="http://www.w3.org/1999/xlink">
<g>
<path stroke="gold" stroke-width="1.6" stroke-linecap="round"
      fill="none" d="M 72.600,47.631 l 4.200,0.000 M 81.600,44.860 a 5.543,5.543 0 0,1 -4.800,2.771 M 81.600,44.860 l 1.800,-3.118 M 83.400,36.200 a 5.543,5.543 0 0,1 0.000,5.543 M 83.400,36.200 l -2.100,-3.637">
<desc>C3</desc>
</path>
<path stroke="maroon" stroke-width="1.6" stroke-linecap="round"
      fill="none" d="M 47.600,73.612 l 4.400,0.000 M 53.500,71.014 a 1.732,1.732 0 0,1 -1.500,2.598 M 53.500,71.014 l -2.200,-3.811 M 56.500,71.014 a 1.732,1.732 0 0,1 -3.000,0.000 M 56.500,71.014 l 2.200,-3.811 M 56.600,70.841 a 5.543,5.543 0 0,1 -4.800,2.771">
<desc>E3</desc>
</path>
<path stroke="blue" stroke-width="1.6" stroke-linecap="round"
      fill="none" d="M 46.300,71.360 l 3.700,-6.409 M 50.000,64.952 l 5.000,-8.660 M 55.000,56.292 l 3.700,-6.409">
<desc>I3</desc>
</path>
<path stroke="blueviolet" stroke-width="1.6" stroke-linecap="round"
      fill="none" d="M 56.500,58.890 a 1.732,1.732 0 0,1 1.500,-2.598 M 58.000,56.292 l 7.000,0.000 M 58.700,62.700 l -2.200,-3.811 M 65.000,56.292 l 7.400,0.000">
<desc>J3</desc>
</path>
<path stroke="lime" stroke-width="1.6" stroke-linecap="round"
      fill="none" d="M 50.000,12.990 l -3.700,-6.409 M 53.400,18.879 l -3.400,-5.889 M 58.200,21.651 a 5.543,5.543 0 0,1 -4.800,-2.771 M 58.200,21.651 l 4.200,0.000">
<desc>L3</desc>
</path>
<path stroke="red" stroke-width="1.6" stroke-linecap="round"
      fill="none" d="M 61.500,50.229 a 1.732,1.732 0 0,1 1.500,-2.598 M 63.000,47.631 l 4.000,0.000 M 63.500,53.694 l -2.000,-3.464 M 66.500,53.694 a 1.732,1.732 0 0,1 -3.000,0.000 M 66.500,53.694 l 2.000,-3.464 M 67.000,47.631 a 1.732,1.732 0 0,1 1.500,2.598">
<desc>O3</desc>
</path>
<path stroke="magenta" stroke-width="1.6" stroke-linecap="round"
      fill="none" d="M 62.600,30.311 l 4.400,0.000 M 66.600,18.879 l 2.100,-3.637 M 66.600,24.422 a 5.543,5.543 0 0,1 0.000,-5.543 M 68.500,27.713 a 1.732,1.732 0 0,1 -1.500,2.598 M 68.500,27.713 l -1.900,-3.291">
<desc>P3</desc>
</path>
<path stroke="navy" stroke-width="1.6" stroke-linecap="round"
      fill="none" d="M 61.300,28.059 l 2.100,-3.637 M 61.600,10.219 l 2.100,-3.637 M 61.600,15.762 a 5.543,5.543 0 0,1 0.000,-5.543 M 63.400,18.879 a 5.543,5.543 0 0,1 0.000,5.543 M 63.400,18.879 l -1.800,-3.118">
<desc>S3</desc>
</path>
<path stroke="darkorange" stroke-width="1.6" stroke-linecap="round"
      fill="none" d="M 62.600,12.990 l 4.400,0.000 M 66.800,12.990 a 5.543,5.543 0 0,1 4.800,2.771 M 68.500,10.392 a 1.732,1.732 0 0,1 -1.500,2.598 M 70.000,12.990 l -3.700,-6.409 M 73.700,19.399 l -3.700,-6.409">
<desc>T3</desc>
</path>
<path stroke="turquoise" stroke-width="1.6" stroke-linecap="round"
      fill="none" d="M 57.600,73.612 l 4.200,0.000 M 62.600,64.952 l 4.400,0.000 M 66.600,70.841 a 5.543,5.543 0 0,1 -4.800,2.771 M 66.600,70.841 l 1.900,-3.291 M 67.000,64.952 a 1.732,1.732 0 0,1 1.500,2.598">
<desc>U3</desc>
</path>
<path stroke="green" stroke-width="1.6" stroke-linecap="round"
      fill="none" d="M 52.600,64.952 l 4.200,0.000 M 56.800,64.952 a 5.543,5.543 0 0,1 4.800,2.771 M 61.600,62.181 a 5.543,5.543 0 0,1 -4.800,2.771 M 61.600,62.181 l 2.100,-3.637 M 61.600,67.723 a 5.543,5.543 0 0,1 0.000,-5.543 M 63.700,71.360 l -2.100,-3.637">
<desc>Y3</desc>
</path>
<path stroke="plum" stroke-width="1.6" stroke-linecap="round"
      fill="none" d="M 51.500,10.392 l 2.200,-3.811 M 53.000,12.990 a 1.732,1.732 0 0,1 -1.500,-2.598 M 53.000,12.990 l 4.000,0.000 M 56.300,19.399 l 2.200,-3.811 M 57.000,12.990 a 1.732,1.732 0 0,1 1.500,2.598">
<desc>Z3</desc>
</path>
<path stroke="blueviolet" stroke-width="1.6" stroke-linecap="round"
      fill="none" d="M 68.500,62.354 l -2.200,-3.811 M 71.500,62.354 a 1.732,1.732 0 0,1 -3.000,0.000 M 71.500,62.354 l 3.500,-6.062 M 75.000,56.292 l 3.700,-6.409">
<desc>j3</desc>
</path>
<path stroke="lime" stroke-width="1.6" stroke-linecap="round"
      fill="none" d="M 60.000,30.311 l -3.700,-6.409 M 61.300,45.380 l 2.100,-3.637 M 63.400,36.200 a 5.543,5.543 0 0,1 0.000,5.543 M 63.400,36.200 l -3.400,-5.889">
<desc>l3</desc>
</path>
<path stroke="magenta" stroke-width="1.6" stroke-linecap="round"
      fill="none" d="M 67.600,38.971 l 4.400,0.000 M 71.600,44.860 l 1.900,-3.291 M 71.600,50.403 a 5.543,5.543 0 0,1 0.000,-5.543 M 72.000,38.971 a 1.732,1.732 0 0,1 1.500,2.598 M 73.700,54.040 l -2.100,-3.637">
<desc>p3</desc>
</path>
<path stroke="navy" stroke-width="1.6" stroke-linecap="round"
      fill="none" d="M 76.600,36.200 l 1.800,-3.118 M 76.600,41.742 a 5.543,5.543 0 0,1 0.000,-5.543 M 78.400,27.540 a 5.543,5.543 0 0,1 0.000,5.543 M 78.400,27.540 l -2.100,-3.637 M 78.700,45.380 l -2.100,-3.637">
<desc>s3</desc>
</path>
<path stroke="darkorange" stroke-width="1.6" stroke-linecap="round"
      fill="none" d="M 47.600,4.330 l 7.400,0.000 M 51.800,4.330 a 5.543,5.543 0 0,1 4.800,2.771 M 55.000,4.330 l 7.400,0.000 M 56.500,6.928 a 1.732,1.732 0 0,1 1.500,-2.598 M 58.700,10.739 l -2.200,-3.811">
<desc>t3</desc>
</path>
<path stroke="turquoise" stroke-width="1.6" stroke-linecap="round"
      fill="none" d="M 66.600,36.200 l 1.900,-3.291 M 66.600,41.742 a 5.543,5.543 0 0,1 0.000,-5.543 M 68.500,32.909 a 1.732,1.732 0 0,1 3.000,0.000 M 68.700,45.380 l -2.100,-3.637 M 73.700,36.719 l -2.200,-3.811">
<desc>u3</desc>
</path>
<path stroke="plum" stroke-width="1.6" stroke-linecap="round"
      fill="none" d="M 67.600,21.651 l 4.400,0.000 M 71.500,27.713 l 2.000,-3.464 M 72.000,21.651 a 1.732,1.732 0 0,1 1.500,2.598 M 73.000,30.311 a 1.732,1.732 0 0,1 -1.500,-2.598 M 73.000,30.311 l 4.400,0.000">
<desc>z3</desc>
</path>
</g>
</svg>
