<?xml version="1.0" standalone="no"?>
<!-- Created by Polyform Puzzler (http://puzzler.sourceforge.net/) -->
<svg width="95.0" height="34.6410161514" viewBox="0 0 95.0 34.6410161514"
     xmlns="http://www.w3.org/2000/svg"
     xmlns:xlink="http://www.w3.org/1999/xlink">
<g>
<path stroke="gold" stroke-width="1.6" stroke-linecap="round"
      fill="none" d="M 42.600,21.651 l 4.200,0.000 M 51.600,18.879 a 5.543,5.543 0 0,1 -4.800,2.771 M 51.600,18.879 l 1.800,-3.118 M 53.400,10.219 a 5.543,5.543 0 0,1 0.000,5.543 M 53.400,10.219 l -2.100,-3.637">
<desc>C3</desc>
</path>
<path stroke="maroon" stroke-width="1.6" stroke-linecap="round"
      fill="none" d="M 13.500,27.713 a 1.732,1.732 0 0,1 -1.500,2.598 M 13.500,27.713 l -2.200,-3.811 M 16.500,27.713 a 1.732,1.732 0 0,1 -3.000,0.000 M 16.500,27.713 l 2.200,-3.811 M 16.600,27.540 a 5.543,5.543 0 0,1 -4.800,2.771 M 7.600,30.311 l 4.400,0.000">
<desc>E3</desc>
</path>
<path stroke="blue" stroke-width="1.6" stroke-linecap="round"
      fill="none" d="M 10.000,21.651 l 5.000,-8.660 M 15.000,12.990 l 3.700,-6.409 M 6.300,28.059 l 3.700,-6.409">
<desc>I3</desc>
</path>
<path stroke="blueviolet" stroke-width="1.6" stroke-linecap="round"
      fill="none" d="M 16.500,15.588 a 1.732,1.732 0 0,1 1.500,-2.598 M 18.000,12.990 l 7.000,0.000 M 18.700,19.399 l -2.200,-3.811 M 25.000,12.990 l 7.400,0.000">
<desc>J3</desc>
</path>
<path stroke="lime" stroke-width="1.6" stroke-linecap="round"
      fill="none" d="M 52.600,4.330 l 4.200,0.000 M 56.800,4.330 a 5.543,5.543 0 0,1 4.800,2.771 M 65.000,12.990 l -3.400,-5.889 M 68.700,19.399 l -3.700,-6.409">
<desc>L3</desc>
</path>
<path stroke="red" stroke-width="1.6" stroke-linecap="round"
      fill="none" d="M 21.500,6.928 a 1.732,1.732 0 0,1 1.500,-2.598 M 23.000,4.330 l 4.000,0.000 M 23.500,10.392 l -2.000,-3.464 M 26.500,10.392 a 1.732,1.732 0 0,1 -3.000,0.000 M 26.500,10.392 l 2.000,-3.464 M 27.000,4.330 a 1.732,1.732 0 0,1 1.500,2.598">
<desc>O3</desc>
</path>
<path stroke="magenta" stroke-width="1.6" stroke-linecap="round"
      fill="none" d="M 28.400,18.879 l -2.100,-3.637 M 33.200,21.651 a 5.543,5.543 0 0,1 -4.800,-2.771 M 33.200,21.651 l 3.800,0.000 M 36.300,28.059 l 2.200,-3.811 M 37.000,21.651 a 1.732,1.732 0 0,1 1.500,2.598">
<desc>P3</desc>
</path>
<path stroke="navy" stroke-width="1.6" stroke-linecap="round"
      fill="none" d="M 58.400,18.879 l -2.100,-3.637 M 63.200,21.651 a 5.543,5.543 0 0,1 -4.800,-2.771 M 63.200,21.651 l 3.600,0.000 M 66.800,21.651 a 5.543,5.543 0 0,1 4.800,2.771 M 73.700,28.059 l -2.100,-3.637">
<desc>S3</desc>
</path>
<path stroke="darkorange" stroke-width="1.6" stroke-linecap="round"
      fill="none" d="M 17.600,30.311 l 7.400,0.000 M 25.000,30.311 l 7.400,0.000 M 26.500,27.713 l 2.200,-3.811 M 26.600,27.540 a 5.543,5.543 0 0,1 -4.800,2.771 M 28.000,30.311 a 1.732,1.732 0 0,1 -1.500,-2.598">
<desc>T3</desc>
</path>
<path stroke="turquoise" stroke-width="1.6" stroke-linecap="round"
      fill="none" d="M 46.500,27.713 l 1.900,-3.291 M 48.000,30.311 a 1.732,1.732 0 0,1 -1.500,-2.598 M 48.000,30.311 l 4.400,0.000 M 48.400,24.422 a 5.543,5.543 0 0,1 4.800,-2.771 M 53.200,21.651 l 4.200,0.000">
<desc>U3</desc>
</path>
<path stroke="green" stroke-width="1.6" stroke-linecap="round"
      fill="none" d="M 12.600,21.651 l 4.200,0.000 M 16.800,21.651 a 5.543,5.543 0 0,1 4.800,2.771 M 21.600,18.879 a 5.543,5.543 0 0,1 -4.800,2.771 M 21.600,18.879 l 2.100,-3.637 M 21.600,24.422 a 5.543,5.543 0 0,1 0.000,-5.543 M 23.700,28.059 l -2.100,-3.637">
<desc>Y3</desc>
</path>
<path stroke="plum" stroke-width="1.6" stroke-linecap="round"
      fill="none" d="M 56.500,10.392 l 2.200,-3.811 M 58.000,12.990 a 1.732,1.732 0 0,1 -1.500,-2.598 M 58.000,12.990 l 4.000,0.000 M 61.300,19.399 l 2.200,-3.811 M 62.000,12.990 a 1.732,1.732 0 0,1 1.500,2.598">
<desc>Z3</desc>
</path>
<path stroke="blueviolet" stroke-width="1.6" stroke-linecap="round"
      fill="none" d="M 32.600,4.330 l 7.400,0.000 M 40.000,4.330 l 7.000,0.000 M 46.300,10.739 l 2.200,-3.811 M 47.000,4.330 a 1.732,1.732 0 0,1 1.500,2.598">
<desc>j3</desc>
</path>
<path stroke="lime" stroke-width="1.6" stroke-linecap="round"
      fill="none" d="M 53.400,27.540 l -2.100,-3.637 M 58.200,30.311 a 5.543,5.543 0 0,1 -4.800,-2.771 M 58.200,30.311 l 6.800,0.000 M 65.000,30.311 l 7.400,0.000">
<desc>l3</desc>
</path>
<path stroke="magenta" stroke-width="1.6" stroke-linecap="round"
      fill="none" d="M 36.300,10.739 l 2.200,-3.811 M 38.500,6.928 a 1.732,1.732 0 0,1 3.000,0.000 M 43.400,10.219 l -1.900,-3.291 M 48.200,12.990 a 5.543,5.543 0 0,1 -4.800,-2.771 M 48.200,12.990 l 4.200,0.000">
<desc>p3</desc>
</path>
<path stroke="navy" stroke-width="1.6" stroke-linecap="round"
      fill="none" d="M 22.600,21.651 l 4.200,0.000 M 26.800,21.651 a 5.543,5.543 0 0,1 4.800,2.771 M 33.400,27.540 l -1.800,-3.118 M 38.200,30.311 a 5.543,5.543 0 0,1 -4.800,-2.771 M 38.200,30.311 l 4.200,0.000">
<desc>s3</desc>
</path>
<path stroke="darkorange" stroke-width="1.6" stroke-linecap="round"
      fill="none" d="M 31.300,19.399 l 2.200,-3.811 M 33.400,10.219 a 5.543,5.543 0 0,1 0.000,5.543 M 33.500,15.588 a 1.732,1.732 0 0,1 3.000,0.000 M 35.000,12.990 l -3.700,-6.409 M 38.700,19.399 l -3.700,-6.409">
<desc>t3</desc>
</path>
<path stroke="turquoise" stroke-width="1.6" stroke-linecap="round"
      fill="none" d="M 41.600,18.879 l 1.900,-3.291 M 41.600,24.422 a 5.543,5.543 0 0,1 0.000,-5.543 M 43.500,15.588 a 1.732,1.732 0 0,1 3.000,0.000 M 43.700,28.059 l -2.100,-3.637 M 48.700,19.399 l -2.200,-3.811">
<desc>u3</desc>
</path>
<path stroke="plum" stroke-width="1.6" stroke-linecap="round"
      fill="none" d="M 56.300,28.059 l 2.200,-3.811 M 58.500,24.249 a 1.732,1.732 0 0,1 3.000,0.000 M 63.500,27.713 l -2.000,-3.464 M 66.500,27.713 a 1.732,1.732 0 0,1 -3.000,0.000 M 66.500,27.713 l 2.200,-3.811">
<desc>z3</desc>
</path>
</g>
</svg>
