<?xml version="1.0" standalone="no"?>
<!-- Created by Polyform Puzzler (http://puzzler.sourceforge.net/) -->
<svg width="90.0" height="43.3012701892" viewBox="0 0 90.0 43.3012701892"
     xmlns="http://www.w3.org/2000/svg"
     xmlns:xlink="http://www.w3.org/1999/xlink">
<g>
<path stroke="gold" stroke-width="1.6" stroke-linecap="round"
      fill="none" d="M 16.600,18.879 l 1.800,-3.118 M 16.600,24.422 a 5.543,5.543 0 0,1 0.000,-5.543 M 18.400,15.762 a 5.543,5.543 0 0,1 4.800,-2.771 M 18.700,28.059 l -2.100,-3.637 M 23.200,12.990 l 4.200,0.000">
<desc>C3</desc>
</path>
<path stroke="maroon" stroke-width="1.6" stroke-linecap="round"
      fill="none" d="M 23.500,36.373 l -2.200,-3.811 M 26.500,36.373 a 1.732,1.732 0 0,1 -3.000,0.000 M 26.500,36.373 l 2.200,-3.811 M 28.000,38.971 a 1.732,1.732 0 0,1 -1.500,-2.598 M 28.000,38.971 l 4.400,0.000 M 28.200,38.971 a 5.543,5.543 0 0,1 -4.800,-2.771">
<desc>E3</desc>
</path>
<path stroke="steelblue" stroke-width="1.6" stroke-linecap="round"
      fill="none" d="M 21.300,10.739 l 2.400,-4.157">
<desc>I1</desc>
</path>
<path stroke="gray" stroke-width="1.6" stroke-linecap="round"
      fill="none" d="M 36.300,19.399 l 3.700,-6.409 M 40.000,12.990 l 3.700,-6.409">
<desc>I2</desc>
</path>
<path stroke="blue" stroke-width="1.6" stroke-linecap="round"
      fill="none" d="M 27.600,4.330 l 7.400,0.000 M 35.000,4.330 l 10.000,0.000 M 45.000,4.330 l 7.400,0.000">
<desc>I3</desc>
</path>
<path stroke="blueviolet" stroke-width="1.6" stroke-linecap="round"
      fill="none" d="M 66.300,36.719 l 3.700,-6.409 M 67.600,21.651 l 4.400,0.000 M 70.000,30.311 l 3.500,-6.062 M 72.000,21.651 a 1.732,1.732 0 0,1 1.500,2.598">
<desc>J3</desc>
</path>
<path stroke="teal" stroke-width="1.6" stroke-linecap="round"
      fill="none" d="M 32.600,30.311 l 4.200,0.000 M 41.600,27.540 a 5.543,5.543 0 0,1 -4.800,2.771 M 41.600,27.540 l 2.100,-3.637">
<desc>L2</desc>
</path>
<path stroke="lime" stroke-width="1.6" stroke-linecap="round"
      fill="none" d="M 57.600,4.330 l 4.200,0.000 M 61.800,4.330 a 5.543,5.543 0 0,1 4.800,2.771 M 70.000,12.990 l -3.400,-5.889 M 73.700,19.399 l -3.700,-6.409">
<desc>L3</desc>
</path>
<path stroke="red" stroke-width="1.6" stroke-linecap="round"
      fill="none" d="M 36.500,36.373 l 2.000,-3.464 M 38.000,38.971 a 1.732,1.732 0 0,1 -1.500,-2.598 M 38.000,38.971 l 4.000,0.000 M 38.500,32.909 a 1.732,1.732 0 0,1 3.000,0.000 M 43.500,36.373 a 1.732,1.732 0 0,1 -1.500,2.598 M 43.500,36.373 l -2.000,-3.464">
<desc>O3</desc>
</path>
<path stroke="magenta" stroke-width="1.6" stroke-linecap="round"
      fill="none" d="M 62.600,30.311 l 4.400,0.000 M 66.600,18.879 l 2.100,-3.637 M 66.600,24.422 a 5.543,5.543 0 0,1 0.000,-5.543 M 68.500,27.713 a 1.732,1.732 0 0,1 -1.500,2.598 M 68.500,27.713 l -1.900,-3.291">
<desc>P3</desc>
</path>
<path stroke="navy" stroke-width="1.6" stroke-linecap="round"
      fill="none" d="M 56.300,36.719 l 2.100,-3.637 M 56.600,18.879 l 2.100,-3.637 M 56.600,24.422 a 5.543,5.543 0 0,1 0.000,-5.543 M 58.400,27.540 a 5.543,5.543 0 0,1 0.000,5.543 M 58.400,27.540 l -1.800,-3.118">
<desc>S3</desc>
</path>
<path stroke="darkorange" stroke-width="1.6" stroke-linecap="round"
      fill="none" d="M 21.300,28.059 l 3.700,-6.409 M 23.500,24.249 a 1.732,1.732 0 0,1 3.000,0.000 M 25.000,21.651 l 3.700,-6.409 M 26.600,24.422 a 5.543,5.543 0 0,1 0.000,-5.543 M 28.700,28.059 l -2.200,-3.811">
<desc>T3</desc>
</path>
<path stroke="turquoise" stroke-width="1.6" stroke-linecap="round"
      fill="none" d="M 46.300,19.399 l 2.200,-3.811 M 48.500,15.588 a 1.732,1.732 0 0,1 3.000,0.000 M 51.300,28.059 l 2.100,-3.637 M 53.400,18.879 a 5.543,5.543 0 0,1 0.000,5.543 M 53.400,18.879 l -1.900,-3.291">
<desc>U3</desc>
</path>
<path stroke="lightcoral" stroke-width="1.6" stroke-linecap="round"
      fill="none" d="M 17.600,21.651 l 4.400,0.000 M 23.500,19.053 a 1.732,1.732 0 0,1 -1.500,2.598 M 23.500,19.053 l -2.200,-3.811">
<desc>V2</desc>
</path>
<path stroke="green" stroke-width="1.6" stroke-linecap="round"
      fill="none" d="M 22.600,30.311 l 4.200,0.000 M 26.800,30.311 a 5.543,5.543 0 0,1 4.800,2.771 M 31.600,27.540 a 5.543,5.543 0 0,1 -4.800,2.771 M 31.600,27.540 l 2.100,-3.637 M 31.600,33.082 a 5.543,5.543 0 0,1 0.000,-5.543 M 33.700,36.719 l -2.100,-3.637">
<desc>Y3</desc>
</path>
<path stroke="plum" stroke-width="1.6" stroke-linecap="round"
      fill="none" d="M 28.500,10.392 l -2.200,-3.811 M 31.500,10.392 a 1.732,1.732 0 0,1 -3.000,0.000 M 31.500,10.392 l 2.000,-3.464 M 33.500,6.928 a 1.732,1.732 0 0,1 3.000,0.000 M 38.700,10.739 l -2.200,-3.811">
<desc>Z3</desc>
</path>
<path stroke="blueviolet" stroke-width="1.6" stroke-linecap="round"
      fill="none" d="M 31.500,15.588 a 1.732,1.732 0 0,1 1.500,-2.598 M 33.000,12.990 l 4.400,0.000 M 35.000,21.651 l -3.500,-6.062 M 38.700,28.059 l -3.700,-6.409">
<desc>j3</desc>
</path>
<path stroke="lime" stroke-width="1.6" stroke-linecap="round"
      fill="none" d="M 48.400,10.219 l -2.100,-3.637 M 53.200,12.990 a 5.543,5.543 0 0,1 -4.800,-2.771 M 53.200,12.990 l 6.800,0.000 M 60.000,12.990 l 7.400,0.000">
<desc>l3</desc>
</path>
<path stroke="magenta" stroke-width="1.6" stroke-linecap="round"
      fill="none" d="M 46.500,36.373 l 1.900,-3.291 M 48.000,38.971 a 1.732,1.732 0 0,1 -1.500,-2.598 M 48.000,38.971 l 4.400,0.000 M 48.400,27.540 a 5.543,5.543 0 0,1 0.000,5.543 M 48.400,27.540 l -2.100,-3.637">
<desc>p3</desc>
</path>
<path stroke="navy" stroke-width="1.6" stroke-linecap="round"
      fill="none" d="M 61.600,27.540 l 1.800,-3.118 M 61.600,33.082 a 5.543,5.543 0 0,1 0.000,-5.543 M 63.400,18.879 a 5.543,5.543 0 0,1 0.000,5.543 M 63.400,18.879 l -2.100,-3.637 M 63.700,36.719 l -2.100,-3.637">
<desc>s3</desc>
</path>
<path stroke="darkorange" stroke-width="1.6" stroke-linecap="round"
      fill="none" d="M 37.600,21.651 l 7.400,0.000 M 43.500,19.053 a 1.732,1.732 0 0,1 -1.500,2.598 M 43.500,19.053 l -2.200,-3.811 M 45.000,21.651 l 7.400,0.000 M 48.200,21.651 a 5.543,5.543 0 0,1 -4.800,-2.771">
<desc>t3</desc>
</path>
<path stroke="turquoise" stroke-width="1.6" stroke-linecap="round"
      fill="none" d="M 51.500,32.909 a 1.732,1.732 0 0,1 1.500,-2.598 M 53.000,30.311 l 4.400,0.000 M 53.400,36.200 l -1.900,-3.291 M 58.200,38.971 a 5.543,5.543 0 0,1 -4.800,-2.771 M 58.200,38.971 l 4.200,0.000">
<desc>u3</desc>
</path>
<path stroke="plum" stroke-width="1.6" stroke-linecap="round"
      fill="none" d="M 51.300,10.739 l 2.200,-3.811 M 53.500,6.928 a 1.732,1.732 0 0,1 3.000,0.000 M 58.500,10.392 l -2.000,-3.464 M 61.500,10.392 a 1.732,1.732 0 0,1 -3.000,0.000 M 61.500,10.392 l 2.200,-3.811">
<desc>z3</desc>
</path>
</g>
</svg>
