<?xml version="1.0" standalone="no"?>
<!-- Created by Polyform Puzzler (http://puzzler.sourceforge.net/) -->
<svg width="110.0" height="25.9807621135" viewBox="0 0 110.0 25.9807621135"
     xmlns="http://www.w3.org/2000/svg"
     xmlns:xlink="http://www.w3.org/1999/xlink">
<g>
<path stroke="gold" stroke-width="1.6" stroke-linecap="round"
      fill="none" d="M 51.300,10.739 l 2.100,-3.637 M 53.400,7.101 a 5.543,5.543 0 0,1 4.800,-2.771 M 58.200,4.330 l 3.600,0.000 M 61.800,4.330 a 5.543,5.543 0 0,1 4.800,2.771 M 68.700,10.739 l -2.100,-3.637">
<desc>C3</desc>
</path>
<path stroke="maroon" stroke-width="1.6" stroke-linecap="round"
      fill="none" d="M 11.300,10.739 l 2.200,-3.811 M 13.400,7.101 a 5.543,5.543 0 0,1 4.800,-2.771 M 13.500,6.928 a 1.732,1.732 0 0,1 3.000,0.000 M 16.500,6.928 a 1.732,1.732 0 0,1 1.500,-2.598 M 18.000,4.330 l 4.400,0.000 M 18.700,10.739 l -2.200,-3.811">
<desc>E3</desc>
</path>
<path stroke="blue" stroke-width="1.6" stroke-linecap="round"
      fill="none" d="M 67.600,21.651 l 7.400,0.000 M 75.000,21.651 l 10.000,0.000 M 85.000,21.651 l 7.400,0.000">
<desc>I3</desc>
</path>
<path stroke="blueviolet" stroke-width="1.6" stroke-linecap="round"
      fill="none" d="M 26.500,6.928 a 1.732,1.732 0 0,1 1.500,-2.598 M 28.000,4.330 l 7.000,0.000 M 28.700,10.739 l -2.200,-3.811 M 35.000,4.330 l 7.400,0.000">
<desc>J3</desc>
</path>
<path stroke="lime" stroke-width="1.6" stroke-linecap="round"
      fill="none" d="M 27.600,21.651 l 7.400,0.000 M 35.000,21.651 l 6.800,0.000 M 46.600,18.879 a 5.543,5.543 0 0,1 -4.800,2.771 M 46.600,18.879 l 2.100,-3.637">
<desc>L3</desc>
</path>
<path stroke="red" stroke-width="1.6" stroke-linecap="round"
      fill="none" d="M 13.500,19.053 a 1.732,1.732 0 0,1 -1.500,2.598 M 13.500,19.053 l -2.000,-3.464 M 6.500,19.053 l 2.000,-3.464 M 8.000,21.651 a 1.732,1.732 0 0,1 -1.500,-2.598 M 8.000,21.651 l 4.000,0.000 M 8.500,15.588 a 1.732,1.732 0 0,1 3.000,0.000">
<desc>O3</desc>
</path>
<path stroke="magenta" stroke-width="1.6" stroke-linecap="round"
      fill="none" d="M 22.600,12.990 l 4.200,0.000 M 31.600,10.219 a 5.543,5.543 0 0,1 -4.800,2.771 M 31.600,10.219 l 1.900,-3.291 M 33.500,6.928 a 1.732,1.732 0 0,1 3.000,0.000 M 38.700,10.739 l -2.200,-3.811">
<desc>P3</desc>
</path>
<path stroke="navy" stroke-width="1.6" stroke-linecap="round"
      fill="none" d="M 32.600,12.990 l 4.200,0.000 M 41.600,10.219 a 5.543,5.543 0 0,1 -4.800,2.771 M 41.600,10.219 l 1.800,-3.118 M 43.400,7.101 a 5.543,5.543 0 0,1 4.800,-2.771 M 48.200,4.330 l 4.200,0.000">
<desc>S3</desc>
</path>
<path stroke="darkorange" stroke-width="1.6" stroke-linecap="round"
      fill="none" d="M 56.300,19.399 l 3.700,-6.409 M 58.500,15.588 a 1.732,1.732 0 0,1 3.000,0.000 M 60.000,12.990 l 3.700,-6.409 M 61.600,15.762 a 5.543,5.543 0 0,1 0.000,-5.543 M 63.700,19.399 l -2.200,-3.811">
<desc>T3</desc>
</path>
<path stroke="turquoise" stroke-width="1.6" stroke-linecap="round"
      fill="none" d="M 48.400,10.219 l -2.100,-3.637 M 53.200,12.990 a 5.543,5.543 0 0,1 -4.800,-2.771 M 53.200,12.990 l 3.800,0.000 M 58.500,10.392 a 1.732,1.732 0 0,1 -1.500,2.598 M 58.500,10.392 l -2.200,-3.811">
<desc>U3</desc>
</path>
<path stroke="green" stroke-width="1.6" stroke-linecap="round"
      fill="none" d="M 12.600,12.990 l 4.200,0.000 M 16.800,12.990 a 5.543,5.543 0 0,1 4.800,2.771 M 21.600,10.219 a 5.543,5.543 0 0,1 -4.800,2.771 M 21.600,10.219 l 2.100,-3.637 M 21.600,15.762 a 5.543,5.543 0 0,1 0.000,-5.543 M 23.700,19.399 l -2.100,-3.637">
<desc>Y3</desc>
</path>
<path stroke="plum" stroke-width="1.6" stroke-linecap="round"
      fill="none" d="M 33.500,19.053 l -2.200,-3.811 M 36.500,19.053 a 1.732,1.732 0 0,1 -3.000,0.000 M 36.500,19.053 l 2.000,-3.464 M 38.500,15.588 a 1.732,1.732 0 0,1 3.000,0.000 M 43.700,19.399 l -2.200,-3.811">
<desc>Z3</desc>
</path>
<path stroke="blueviolet" stroke-width="1.6" stroke-linecap="round"
      fill="none" d="M 67.600,4.330 l 7.400,0.000 M 75.000,4.330 l 7.000,0.000 M 81.300,10.739 l 2.200,-3.811 M 82.000,4.330 a 1.732,1.732 0 0,1 1.500,2.598">
<desc>j3</desc>
</path>
<path stroke="lime" stroke-width="1.6" stroke-linecap="round"
      fill="none" d="M 62.600,12.990 l 7.400,0.000 M 70.000,12.990 l 6.800,0.000 M 76.800,12.990 a 5.543,5.543 0 0,1 4.800,2.771 M 83.700,19.399 l -2.100,-3.637">
<desc>l3</desc>
</path>
<path stroke="magenta" stroke-width="1.6" stroke-linecap="round"
      fill="none" d="M 71.300,10.739 l 2.200,-3.811 M 73.500,6.928 a 1.732,1.732 0 0,1 3.000,0.000 M 78.400,10.219 l -1.900,-3.291 M 83.200,12.990 a 5.543,5.543 0 0,1 -4.800,-2.771 M 83.200,12.990 l 4.200,0.000">
<desc>p3</desc>
</path>
<path stroke="navy" stroke-width="1.6" stroke-linecap="round"
      fill="none" d="M 42.600,12.990 l 4.200,0.000 M 46.800,12.990 a 5.543,5.543 0 0,1 4.800,2.771 M 53.400,18.879 l -1.800,-3.118 M 58.200,21.651 a 5.543,5.543 0 0,1 -4.800,-2.771 M 58.200,21.651 l 4.200,0.000">
<desc>s3</desc>
</path>
<path stroke="darkorange" stroke-width="1.6" stroke-linecap="round"
      fill="none" d="M 86.300,19.399 l 2.200,-3.811 M 88.400,10.219 a 5.543,5.543 0 0,1 0.000,5.543 M 88.500,15.588 a 1.732,1.732 0 0,1 3.000,0.000 M 90.000,12.990 l -3.700,-6.409 M 93.700,19.399 l -3.700,-6.409">
<desc>t3</desc>
</path>
<path stroke="turquoise" stroke-width="1.6" stroke-linecap="round"
      fill="none" d="M 16.500,19.053 l 2.200,-3.811 M 18.000,21.651 a 1.732,1.732 0 0,1 -1.500,-2.598 M 18.000,21.651 l 3.800,0.000 M 26.600,18.879 a 5.543,5.543 0 0,1 -4.800,2.771 M 26.600,18.879 l 2.100,-3.637">
<desc>u3</desc>
</path>
<path stroke="plum" stroke-width="1.6" stroke-linecap="round"
      fill="none" d="M 66.300,19.399 l 2.200,-3.811 M 68.500,15.588 a 1.732,1.732 0 0,1 3.000,0.000 M 73.500,19.053 l -2.000,-3.464 M 76.500,19.053 a 1.732,1.732 0 0,1 -3.000,0.000 M 76.500,19.053 l 2.200,-3.811">
<desc>z3</desc>
</path>
</g>
</svg>
