<?xml version="1.0" standalone="no"?>
<!-- Created by Polyform Puzzler (http://puzzler.sourceforge.net/) -->
<svg width="120.0" height="25.9807621135" viewBox="0 0 120.0 25.9807621135"
     xmlns="http://www.w3.org/2000/svg"
     xmlns:xlink="http://www.w3.org/1999/xlink">
<g>
<path stroke="gold" stroke-width="1.6" stroke-linecap="round"
      fill="none" d="M 106.600,18.879 a 5.543,5.543 0 0,1 -4.800,2.771 M 106.600,18.879 l 1.800,-3.118 M 108.400,10.219 a 5.543,5.543 0 0,1 0.000,5.543 M 108.400,10.219 l -2.100,-3.637 M 97.600,21.651 l 4.200,0.000">
<desc>C3</desc>
</path>
<path stroke="maroon" stroke-width="1.6" stroke-linecap="round"
      fill="none" d="M 17.600,21.651 l 4.400,0.000 M 23.500,19.053 a 1.732,1.732 0 0,1 -1.500,2.598 M 23.500,19.053 l -2.200,-3.811 M 26.500,19.053 a 1.732,1.732 0 0,1 -3.000,0.000 M 26.500,19.053 l 2.200,-3.811 M 26.600,18.879 a 5.543,5.543 0 0,1 -4.800,2.771">
<desc>E3</desc>
</path>
<path stroke="steelblue" stroke-width="1.6" stroke-linecap="round"
      fill="none" d="M 16.300,19.399 l 2.400,-4.157">
<desc>I1</desc>
</path>
<path stroke="gray" stroke-width="1.6" stroke-linecap="round"
      fill="none" d="M 27.600,21.651 l 7.400,0.000 M 35.000,21.651 l 7.400,0.000">
<desc>I2</desc>
</path>
<path stroke="blue" stroke-width="1.6" stroke-linecap="round"
      fill="none" d="M 47.600,21.651 l 7.400,0.000 M 55.000,21.651 l 10.000,0.000 M 65.000,21.651 l 7.400,0.000">
<desc>I3</desc>
</path>
<path stroke="blueviolet" stroke-width="1.6" stroke-linecap="round"
      fill="none" d="M 16.500,6.928 a 1.732,1.732 0 0,1 1.500,-2.598 M 18.000,4.330 l 7.000,0.000 M 18.700,10.739 l -2.200,-3.811 M 25.000,4.330 l 7.400,0.000">
<desc>J3</desc>
</path>
<path stroke="teal" stroke-width="1.6" stroke-linecap="round"
      fill="none" d="M 67.600,4.330 l 4.200,0.000 M 71.800,4.330 a 5.543,5.543 0 0,1 4.800,2.771 M 78.700,10.739 l -2.100,-3.637">
<desc>L2</desc>
</path>
<path stroke="lime" stroke-width="1.6" stroke-linecap="round"
      fill="none" d="M 77.600,21.651 l 7.400,0.000 M 85.000,21.651 l 6.800,0.000 M 96.600,18.879 a 5.543,5.543 0 0,1 -4.800,2.771 M 96.600,18.879 l 2.100,-3.637">
<desc>L3</desc>
</path>
<path stroke="red" stroke-width="1.6" stroke-linecap="round"
      fill="none" d="M 101.500,10.392 a 1.732,1.732 0 0,1 -3.000,0.000 M 101.500,10.392 l 2.000,-3.464 M 102.000,4.330 a 1.732,1.732 0 0,1 1.500,2.598 M 96.500,6.928 a 1.732,1.732 0 0,1 1.500,-2.598 M 98.000,4.330 l 4.000,0.000 M 98.500,10.392 l -2.000,-3.464">
<desc>O3</desc>
</path>
<path stroke="magenta" stroke-width="1.6" stroke-linecap="round"
      fill="none" d="M 73.500,19.053 l -2.200,-3.811 M 76.500,19.053 a 1.732,1.732 0 0,1 -3.000,0.000 M 76.500,19.053 l 1.900,-3.291 M 78.400,15.762 a 5.543,5.543 0 0,1 4.800,-2.771 M 83.200,12.990 l 4.200,0.000">
<desc>P3</desc>
</path>
<path stroke="navy" stroke-width="1.6" stroke-linecap="round"
      fill="none" d="M 103.700,19.399 l -2.100,-3.637 M 88.400,10.219 l -2.100,-3.637 M 93.200,12.990 a 5.543,5.543 0 0,1 -4.800,-2.771 M 93.200,12.990 l 3.600,0.000 M 96.800,12.990 a 5.543,5.543 0 0,1 4.800,2.771">
<desc>S3</desc>
</path>
<path stroke="darkorange" stroke-width="1.6" stroke-linecap="round"
      fill="none" d="M 32.600,12.990 l 7.400,0.000 M 40.000,12.990 l 7.400,0.000 M 41.500,10.392 l 2.200,-3.811 M 41.600,10.219 a 5.543,5.543 0 0,1 -4.800,2.771 M 43.000,12.990 a 1.732,1.732 0 0,1 -1.500,-2.598">
<desc>T3</desc>
</path>
<path stroke="turquoise" stroke-width="1.6" stroke-linecap="round"
      fill="none" d="M 36.500,6.928 a 1.732,1.732 0 0,1 1.500,-2.598 M 38.000,4.330 l 3.800,0.000 M 38.700,10.739 l -2.200,-3.811 M 41.800,4.330 a 5.543,5.543 0 0,1 4.800,2.771 M 48.700,10.739 l -2.100,-3.637">
<desc>U3</desc>
</path>
<path stroke="lightcoral" stroke-width="1.6" stroke-linecap="round"
      fill="none" d="M 21.300,10.739 l 2.200,-3.811 M 23.500,6.928 a 1.732,1.732 0 0,1 3.000,0.000 M 28.700,10.739 l -2.200,-3.811">
<desc>V2</desc>
</path>
<path stroke="green" stroke-width="1.6" stroke-linecap="round"
      fill="none" d="M 22.600,12.990 l 4.200,0.000 M 26.800,12.990 a 5.543,5.543 0 0,1 4.800,2.771 M 31.600,10.219 a 5.543,5.543 0 0,1 -4.800,2.771 M 31.600,10.219 l 2.100,-3.637 M 31.600,15.762 a 5.543,5.543 0 0,1 0.000,-5.543 M 33.700,19.399 l -2.100,-3.637">
<desc>Y3</desc>
</path>
<path stroke="plum" stroke-width="1.6" stroke-linecap="round"
      fill="none" d="M 83.500,19.053 l -2.200,-3.811 M 86.500,19.053 a 1.732,1.732 0 0,1 -3.000,0.000 M 86.500,19.053 l 2.000,-3.464 M 88.500,15.588 a 1.732,1.732 0 0,1 3.000,0.000 M 93.700,19.399 l -2.200,-3.811">
<desc>Z3</desc>
</path>
<path stroke="blueviolet" stroke-width="1.6" stroke-linecap="round"
      fill="none" d="M 77.600,4.330 l 7.400,0.000 M 85.000,4.330 l 7.000,0.000 M 91.300,10.739 l 2.200,-3.811 M 92.000,4.330 a 1.732,1.732 0 0,1 1.500,2.598">
<desc>j3</desc>
</path>
<path stroke="lime" stroke-width="1.6" stroke-linecap="round"
      fill="none" d="M 47.600,4.330 l 7.400,0.000 M 55.000,4.330 l 6.800,0.000 M 61.800,4.330 a 5.543,5.543 0 0,1 4.800,2.771 M 68.700,10.739 l -2.100,-3.637">
<desc>l3</desc>
</path>
<path stroke="magenta" stroke-width="1.6" stroke-linecap="round"
      fill="none" d="M 61.500,15.588 a 1.732,1.732 0 0,1 1.500,-2.598 M 63.000,12.990 l 3.800,0.000 M 63.700,19.399 l -2.200,-3.811 M 71.600,10.219 a 5.543,5.543 0 0,1 -4.800,2.771 M 71.600,10.219 l 2.100,-3.637">
<desc>p3</desc>
</path>
<path stroke="navy" stroke-width="1.6" stroke-linecap="round"
      fill="none" d="M 66.300,19.399 l 2.100,-3.637 M 68.400,15.762 a 5.543,5.543 0 0,1 4.800,-2.771 M 73.200,12.990 l 3.600,0.000 M 81.600,10.219 a 5.543,5.543 0 0,1 -4.800,2.771 M 81.600,10.219 l 2.100,-3.637">
<desc>s3</desc>
</path>
<path stroke="darkorange" stroke-width="1.6" stroke-linecap="round"
      fill="none" d="M 52.600,12.990 l 4.400,0.000 M 56.300,19.399 l 3.700,-6.409 M 57.000,12.990 a 1.732,1.732 0 0,1 1.500,2.598 M 60.000,12.990 l 3.700,-6.409 M 61.600,10.219 a 5.543,5.543 0 0,1 -4.800,2.771">
<desc>t3</desc>
</path>
<path stroke="turquoise" stroke-width="1.6" stroke-linecap="round"
      fill="none" d="M 51.600,10.219 l 1.900,-3.291 M 51.600,15.762 a 5.543,5.543 0 0,1 0.000,-5.543 M 53.500,6.928 a 1.732,1.732 0 0,1 3.000,0.000 M 53.700,19.399 l -2.100,-3.637 M 58.700,10.739 l -2.200,-3.811">
<desc>u3</desc>
</path>
<path stroke="plum" stroke-width="1.6" stroke-linecap="round"
      fill="none" d="M 36.300,19.399 l 2.200,-3.811 M 38.500,15.588 a 1.732,1.732 0 0,1 3.000,0.000 M 43.500,19.053 l -2.000,-3.464 M 46.500,19.053 a 1.732,1.732 0 0,1 -3.000,0.000 M 46.500,19.053 l 2.200,-3.811">
<desc>z3</desc>
</path>
</g>
</svg>
