<?xml version="1.0" standalone="no"?>
<!-- Created by Polyform Puzzler (http://puzzler.sourceforge.net/) -->
<svg width="85.0" height="51.9615242271" viewBox="0 0 85.0 51.9615242271"
     xmlns="http://www.w3.org/2000/svg"
     xmlns:xlink="http://www.w3.org/1999/xlink">
<g>
<path stroke="gold" stroke-width="1.6" stroke-linecap="round"
      fill="none" d="M 11.600,36.200 l 1.800,-3.118 M 11.600,41.742 a 5.543,5.543 0 0,1 0.000,-5.543 M 13.400,33.082 a 5.543,5.543 0 0,1 4.800,-2.771 M 13.700,45.380 l -2.100,-3.637 M 18.200,30.311 l 4.200,0.000">
<desc>C3</desc>
</path>
<path stroke="maroon" stroke-width="1.6" stroke-linecap="round"
      fill="none" d="M 16.300,28.059 l 2.200,-3.811 M 18.400,24.422 a 5.543,5.543 0 0,1 4.800,-2.771 M 18.500,24.249 a 1.732,1.732 0 0,1 3.000,0.000 M 21.500,24.249 a 1.732,1.732 0 0,1 1.500,-2.598 M 23.000,21.651 l 4.400,0.000 M 23.700,28.059 l -2.200,-3.811">
<desc>E3</desc>
</path>
<path stroke="blue" stroke-width="1.6" stroke-linecap="round"
      fill="none" d="M 17.600,47.631 l 7.400,0.000 M 25.000,47.631 l 10.000,0.000 M 35.000,47.631 l 7.400,0.000">
<desc>I3</desc>
</path>
<path stroke="blueviolet" stroke-width="1.6" stroke-linecap="round"
      fill="none" d="M 30.000,38.971 l -3.700,-6.409 M 33.500,45.033 l -3.500,-6.062 M 36.500,45.033 a 1.732,1.732 0 0,1 -3.000,0.000 M 36.500,45.033 l 2.200,-3.811">
<desc>J3</desc>
</path>
<path stroke="lime" stroke-width="1.6" stroke-linecap="round"
      fill="none" d="M 21.300,36.719 l 2.100,-3.637 M 23.400,33.082 a 5.543,5.543 0 0,1 4.800,-2.771 M 28.200,30.311 l 6.800,0.000 M 35.000,30.311 l 7.400,0.000">
<desc>L3</desc>
</path>
<path stroke="red" stroke-width="1.6" stroke-linecap="round"
      fill="none" d="M 36.500,10.392 l 2.000,-3.464 M 38.000,12.990 a 1.732,1.732 0 0,1 -1.500,-2.598 M 38.000,12.990 l 4.000,0.000 M 38.500,6.928 a 1.732,1.732 0 0,1 3.000,0.000 M 43.500,10.392 a 1.732,1.732 0 0,1 -1.500,2.598 M 43.500,10.392 l -2.000,-3.464">
<desc>O3</desc>
</path>
<path stroke="magenta" stroke-width="1.6" stroke-linecap="round"
      fill="none" d="M 26.300,28.059 l 2.100,-3.637 M 26.500,15.588 a 1.732,1.732 0 0,1 1.500,-2.598 M 28.000,12.990 l 4.400,0.000 M 28.400,18.879 a 5.543,5.543 0 0,1 0.000,5.543 M 28.400,18.879 l -1.900,-3.291">
<desc>P3</desc>
</path>
<path stroke="navy" stroke-width="1.6" stroke-linecap="round"
      fill="none" d="M 41.300,36.719 l 2.100,-3.637 M 41.600,18.879 l 2.100,-3.637 M 41.600,24.422 a 5.543,5.543 0 0,1 0.000,-5.543 M 43.400,27.540 a 5.543,5.543 0 0,1 0.000,5.543 M 43.400,27.540 l -1.800,-3.118">
<desc>S3</desc>
</path>
<path stroke="darkorange" stroke-width="1.6" stroke-linecap="round"
      fill="none" d="M 42.600,21.651 l 4.400,0.000 M 46.800,21.651 a 5.543,5.543 0 0,1 4.800,2.771 M 48.500,19.053 a 1.732,1.732 0 0,1 -1.500,2.598 M 50.000,21.651 l -3.700,-6.409 M 53.700,28.059 l -3.700,-6.409">
<desc>T3</desc>
</path>
<path stroke="turquoise" stroke-width="1.6" stroke-linecap="round"
      fill="none" d="M 31.600,18.879 l 2.100,-3.637 M 31.600,24.422 a 5.543,5.543 0 0,1 0.000,-5.543 M 33.500,27.713 l -1.900,-3.291 M 36.500,27.713 a 1.732,1.732 0 0,1 -3.000,0.000 M 36.500,27.713 l 2.200,-3.811">
<desc>U3</desc>
</path>
<path stroke="green" stroke-width="1.6" stroke-linecap="round"
      fill="none" d="M 46.300,45.380 l 2.100,-3.637 M 48.400,36.200 a 5.543,5.543 0 0,1 0.000,5.543 M 48.400,36.200 l -2.100,-3.637 M 48.400,41.742 a 5.543,5.543 0 0,1 4.800,-2.771 M 53.200,38.971 a 5.543,5.543 0 0,1 -4.800,-2.771 M 53.200,38.971 l 4.200,0.000">
<desc>Y3</desc>
</path>
<path stroke="plum" stroke-width="1.6" stroke-linecap="round"
      fill="none" d="M 46.500,27.713 l 2.200,-3.811 M 48.000,30.311 a 1.732,1.732 0 0,1 -1.500,-2.598 M 48.000,30.311 l 4.000,0.000 M 51.300,36.719 l 2.200,-3.811 M 52.000,30.311 a 1.732,1.732 0 0,1 1.500,2.598">
<desc>Z3</desc>
</path>
<path stroke="blueviolet" stroke-width="1.6" stroke-linecap="round"
      fill="none" d="M 32.600,21.651 l 4.400,0.000 M 35.000,12.990 l -3.700,-6.409 M 38.500,19.053 a 1.732,1.732 0 0,1 -1.500,2.598 M 38.500,19.053 l -3.500,-6.062">
<desc>j3</desc>
</path>
<path stroke="lime" stroke-width="1.6" stroke-linecap="round"
      fill="none" d="M 21.300,19.399 l 3.700,-6.409 M 25.000,12.990 l 3.400,-5.889 M 28.400,7.101 a 5.543,5.543 0 0,1 4.800,-2.771 M 33.200,4.330 l 4.200,0.000">
<desc>l3</desc>
</path>
<path stroke="magenta" stroke-width="1.6" stroke-linecap="round"
      fill="none" d="M 31.300,36.719 l 2.200,-3.811 M 33.500,32.909 a 1.732,1.732 0 0,1 3.000,0.000 M 38.400,36.200 l -1.900,-3.291 M 43.200,38.971 a 5.543,5.543 0 0,1 -4.800,-2.771 M 43.200,38.971 l 4.200,0.000">
<desc>p3</desc>
</path>
<path stroke="navy" stroke-width="1.6" stroke-linecap="round"
      fill="none" d="M 32.600,38.971 l 4.200,0.000 M 36.800,38.971 a 5.543,5.543 0 0,1 4.800,2.771 M 43.400,44.860 l -1.800,-3.118 M 48.200,47.631 a 5.543,5.543 0 0,1 -4.800,-2.771 M 48.200,47.631 l 4.200,0.000">
<desc>s3</desc>
</path>
<path stroke="darkorange" stroke-width="1.6" stroke-linecap="round"
      fill="none" d="M 12.600,38.971 l 7.400,0.000 M 18.500,36.373 a 1.732,1.732 0 0,1 -1.500,2.598 M 18.500,36.373 l -2.200,-3.811 M 20.000,38.971 l 7.400,0.000 M 23.200,38.971 a 5.543,5.543 0 0,1 -4.800,-2.771">
<desc>t3</desc>
</path>
<path stroke="turquoise" stroke-width="1.6" stroke-linecap="round"
      fill="none" d="M 53.500,45.033 l -2.200,-3.811 M 56.500,45.033 a 1.732,1.732 0 0,1 -3.000,0.000 M 56.500,45.033 l 1.900,-3.291 M 58.400,36.200 a 5.543,5.543 0 0,1 0.000,5.543 M 58.400,36.200 l -2.100,-3.637">
<desc>u3</desc>
</path>
<path stroke="plum" stroke-width="1.6" stroke-linecap="round"
      fill="none" d="M 16.300,45.380 l 2.200,-3.811 M 18.500,41.569 a 1.732,1.732 0 0,1 3.000,0.000 M 23.500,45.033 l -2.000,-3.464 M 26.500,45.033 a 1.732,1.732 0 0,1 -3.000,0.000 M 26.500,45.033 l 2.200,-3.811">
<desc>z3</desc>
</path>
</g>
</svg>
