<?xml version="1.0" standalone="no"?>
<!-- Created by Polyform Puzzler (http://puzzler.sourceforge.net/) -->
<svg width="100.0" height="60.6217782649" viewBox="0 0 100.0 60.6217782649"
     xmlns="http://www.w3.org/2000/svg"
     xmlns:xlink="http://www.w3.org/1999/xlink">
<g>
<path stroke="gold" stroke-width="1.6" stroke-linecap="round"
      fill="none" d="M 51.600,27.540 l 1.800,-3.118 M 51.600,33.082 a 5.543,5.543 0 0,1 0.000,-5.543 M 53.400,24.422 a 5.543,5.543 0 0,1 4.800,-2.771 M 53.700,36.719 l -2.100,-3.637 M 58.200,21.651 l 4.200,0.000">
<desc>C3</desc>
</path>
<path stroke="maroon" stroke-width="1.6" stroke-linecap="round"
      fill="none" d="M 37.600,56.292 l 4.400,0.000 M 43.500,53.694 a 1.732,1.732 0 0,1 -1.500,2.598 M 43.500,53.694 l -2.200,-3.811 M 46.500,53.694 a 1.732,1.732 0 0,1 -3.000,0.000 M 46.500,53.694 l 2.200,-3.811 M 46.600,53.520 a 5.543,5.543 0 0,1 -4.800,2.771">
<desc>E3</desc>
</path>
<path stroke="blue" stroke-width="1.6" stroke-linecap="round"
      fill="none" d="M 36.300,54.040 l 3.700,-6.409 M 40.000,47.631 l 5.000,-8.660 M 45.000,38.971 l 3.700,-6.409">
<desc>I3</desc>
</path>
<path stroke="blueviolet" stroke-width="1.6" stroke-linecap="round"
      fill="none" d="M 46.500,41.569 a 1.732,1.732 0 0,1 1.500,-2.598 M 48.000,38.971 l 7.000,0.000 M 48.700,45.380 l -2.200,-3.811 M 55.000,38.971 l 7.400,0.000">
<desc>J3</desc>
</path>
<path stroke="lime" stroke-width="1.6" stroke-linecap="round"
      fill="none" d="M 57.600,4.330 l 4.200,0.000 M 61.800,4.330 a 5.543,5.543 0 0,1 4.800,2.771 M 70.000,12.990 l -3.400,-5.889 M 73.700,19.399 l -3.700,-6.409">
<desc>L3</desc>
</path>
<path stroke="red" stroke-width="1.6" stroke-linecap="round"
      fill="none" d="M 36.500,6.928 a 1.732,1.732 0 0,1 1.500,-2.598 M 38.000,4.330 l 4.000,0.000 M 38.500,10.392 l -2.000,-3.464 M 41.500,10.392 a 1.732,1.732 0 0,1 -3.000,0.000 M 41.500,10.392 l 2.000,-3.464 M 42.000,4.330 a 1.732,1.732 0 0,1 1.500,2.598">
<desc>O3</desc>
</path>
<path stroke="magenta" stroke-width="1.6" stroke-linecap="round"
      fill="none" d="M 47.600,56.292 l 4.200,0.000 M 56.600,53.520 a 5.543,5.543 0 0,1 -4.800,2.771 M 56.600,53.520 l 1.900,-3.291 M 58.500,50.229 a 1.732,1.732 0 0,1 3.000,0.000 M 63.700,54.040 l -2.200,-3.811">
<desc>P3</desc>
</path>
<path stroke="navy" stroke-width="1.6" stroke-linecap="round"
      fill="none" d="M 63.400,18.879 l -2.100,-3.637 M 68.200,21.651 a 5.543,5.543 0 0,1 -4.800,-2.771 M 68.200,21.651 l 3.600,0.000 M 71.800,21.651 a 5.543,5.543 0 0,1 4.800,2.771 M 78.700,28.059 l -2.100,-3.637">
<desc>S3</desc>
</path>
<path stroke="darkorange" stroke-width="1.6" stroke-linecap="round"
      fill="none" d="M 61.300,45.380 l 3.700,-6.409 M 63.500,41.569 a 1.732,1.732 0 0,1 3.000,0.000 M 65.000,38.971 l 3.700,-6.409 M 66.600,41.742 a 5.543,5.543 0 0,1 0.000,-5.543 M 68.700,45.380 l -2.200,-3.811">
<desc>T3</desc>
</path>
<path stroke="turquoise" stroke-width="1.6" stroke-linecap="round"
      fill="none" d="M 46.500,6.928 a 1.732,1.732 0 0,1 1.500,-2.598 M 48.000,4.330 l 3.800,0.000 M 48.700,10.739 l -2.200,-3.811 M 51.800,4.330 a 5.543,5.543 0 0,1 4.800,2.771 M 58.700,10.739 l -2.100,-3.637">
<desc>U3</desc>
</path>
<path stroke="green" stroke-width="1.6" stroke-linecap="round"
      fill="none" d="M 42.600,47.631 l 4.200,0.000 M 46.800,47.631 a 5.543,5.543 0 0,1 4.800,2.771 M 51.600,44.860 a 5.543,5.543 0 0,1 -4.800,2.771 M 51.600,44.860 l 2.100,-3.637 M 51.600,50.403 a 5.543,5.543 0 0,1 0.000,-5.543 M 53.700,54.040 l -2.100,-3.637">
<desc>Y3</desc>
</path>
<path stroke="plum" stroke-width="1.6" stroke-linecap="round"
      fill="none" d="M 71.500,27.713 l 2.200,-3.811 M 73.000,30.311 a 1.732,1.732 0 0,1 -1.500,-2.598 M 73.000,30.311 l 4.000,0.000 M 76.300,36.719 l 2.200,-3.811 M 77.000,30.311 a 1.732,1.732 0 0,1 1.500,2.598">
<desc>Z3</desc>
</path>
<path stroke="blueviolet" stroke-width="1.6" stroke-linecap="round"
      fill="none" d="M 67.600,38.971 l 4.400,0.000 M 70.000,30.311 l -3.700,-6.409 M 73.500,36.373 a 1.732,1.732 0 0,1 -1.500,2.598 M 73.500,36.373 l -3.500,-6.062">
<desc>j3</desc>
</path>
<path stroke="lime" stroke-width="1.6" stroke-linecap="round"
      fill="none" d="M 57.600,56.292 l 4.200,0.000 M 66.600,53.520 a 5.543,5.543 0 0,1 -4.800,2.771 M 66.600,53.520 l 3.400,-5.889 M 70.000,47.631 l 3.700,-6.409">
<desc>l3</desc>
</path>
<path stroke="magenta" stroke-width="1.6" stroke-linecap="round"
      fill="none" d="M 41.500,15.588 a 1.732,1.732 0 0,1 1.500,-2.598 M 43.000,12.990 l 3.800,0.000 M 43.700,19.399 l -2.200,-3.811 M 51.600,10.219 a 5.543,5.543 0 0,1 -4.800,2.771 M 51.600,10.219 l 2.100,-3.637">
<desc>p3</desc>
</path>
<path stroke="navy" stroke-width="1.6" stroke-linecap="round"
      fill="none" d="M 46.300,19.399 l 2.100,-3.637 M 48.400,15.762 a 5.543,5.543 0 0,1 4.800,-2.771 M 53.200,12.990 l 3.600,0.000 M 61.600,10.219 a 5.543,5.543 0 0,1 -4.800,2.771 M 61.600,10.219 l 2.100,-3.637">
<desc>s3</desc>
</path>
<path stroke="darkorange" stroke-width="1.6" stroke-linecap="round"
      fill="none" d="M 52.600,47.631 l 7.400,0.000 M 58.500,45.033 a 1.732,1.732 0 0,1 -1.500,2.598 M 58.500,45.033 l -2.200,-3.811 M 60.000,47.631 l 7.400,0.000 M 63.200,47.631 a 5.543,5.543 0 0,1 -4.800,-2.771">
<desc>t3</desc>
</path>
<path stroke="turquoise" stroke-width="1.6" stroke-linecap="round"
      fill="none" d="M 56.300,19.399 l 2.100,-3.637 M 58.400,15.762 a 5.543,5.543 0 0,1 4.800,-2.771 M 63.200,12.990 l 3.800,0.000 M 66.300,19.399 l 2.200,-3.811 M 67.000,12.990 a 1.732,1.732 0 0,1 1.500,2.598">
<desc>u3</desc>
</path>
<path stroke="plum" stroke-width="1.6" stroke-linecap="round"
      fill="none" d="M 46.500,24.249 a 1.732,1.732 0 0,1 1.500,-2.598 M 48.000,21.651 l 4.000,0.000 M 48.700,28.059 l -2.200,-3.811 M 53.500,19.053 a 1.732,1.732 0 0,1 -1.500,2.598 M 53.500,19.053 l -2.200,-3.811">
<desc>z3</desc>
</path>
</g>
</svg>
