<?xml version="1.0" standalone="no"?>
<!-- Created by Polyform Puzzler (http://puzzler.sourceforge.net/) -->
<svg width="80.0" height="43.3012701892" viewBox="0 0 80.0 43.3012701892"
     xmlns="http://www.w3.org/2000/svg"
     xmlns:xlink="http://www.w3.org/1999/xlink">
<g>
<path stroke="gold" stroke-width="1.6" stroke-linecap="round"
      fill="none" d="M 26.600,1.559 l 2.100,-3.637 M 26.600,7.101 a 5.543,5.543 0 0,1 0.000,-5.543 M 28.400,10.219 l -1.800,-3.118 M 33.200,12.990 a 5.543,5.543 0 0,1 -4.800,-2.771 M 33.200,12.990 l 4.200,0.000">
<desc>C3</desc>
</path>
<path stroke="maroon" stroke-width="1.6" stroke-linecap="round"
      fill="none" d="M 13.500,36.373 a 1.732,1.732 0 0,1 -1.500,2.598 M 13.500,36.373 l -2.200,-3.811 M 16.500,36.373 a 1.732,1.732 0 0,1 -3.000,0.000 M 16.500,36.373 l 2.200,-3.811 M 16.600,36.200 a 5.543,5.543 0 0,1 -4.800,2.771 M 7.600,38.971 l 4.400,0.000">
<desc>E3</desc>
</path>
<path stroke="steelblue" stroke-width="1.6" stroke-linecap="round"
      fill="none" d="M 6.300,36.719 l 2.400,-4.157">
<desc>I1</desc>
</path>
<path stroke="gray" stroke-width="1.6" stroke-linecap="round"
      fill="none" d="M 11.300,28.059 l 3.700,-6.409 M 15.000,21.651 l 3.700,-6.409">
<desc>I2</desc>
</path>
<path stroke="blue" stroke-width="1.6" stroke-linecap="round"
      fill="none" d="M 22.600,30.311 l 7.400,0.000 M 30.000,30.311 l 10.000,0.000 M 40.000,30.311 l 7.400,0.000">
<desc>I3</desc>
</path>
<path stroke="blueviolet" stroke-width="1.6" stroke-linecap="round"
      fill="none" d="M 16.500,24.249 a 1.732,1.732 0 0,1 1.500,-2.598 M 18.000,21.651 l 7.000,0.000 M 18.700,28.059 l -2.200,-3.811 M 25.000,21.651 l 7.400,0.000">
<desc>J3</desc>
</path>
<path stroke="teal" stroke-width="1.6" stroke-linecap="round"
      fill="none" d="M 41.300,28.059 l 2.100,-3.637 M 43.400,18.879 a 5.543,5.543 0 0,1 0.000,5.543 M 43.400,18.879 l -2.100,-3.637">
<desc>L2</desc>
</path>
<path stroke="lime" stroke-width="1.6" stroke-linecap="round"
      fill="none" d="M 35.000,4.330 l -3.700,-6.409 M 36.300,19.399 l 2.100,-3.637 M 38.400,10.219 a 5.543,5.543 0 0,1 0.000,5.543 M 38.400,10.219 l -3.400,-5.889">
<desc>L3</desc>
</path>
<path stroke="red" stroke-width="1.6" stroke-linecap="round"
      fill="none" d="M 26.500,36.373 l 2.000,-3.464 M 28.000,38.971 a 1.732,1.732 0 0,1 -1.500,-2.598 M 28.000,38.971 l 4.000,0.000 M 28.500,32.909 a 1.732,1.732 0 0,1 3.000,0.000 M 33.500,36.373 a 1.732,1.732 0 0,1 -1.500,2.598 M 33.500,36.373 l -2.000,-3.464">
<desc>O3</desc>
</path>
<path stroke="magenta" stroke-width="1.6" stroke-linecap="round"
      fill="none" d="M 36.300,36.719 l 2.200,-3.811 M 38.500,32.909 a 1.732,1.732 0 0,1 3.000,0.000 M 43.400,36.200 l -1.900,-3.291 M 48.200,38.971 a 5.543,5.543 0 0,1 -4.800,-2.771 M 48.200,38.971 l 4.200,0.000">
<desc>P3</desc>
</path>
<path stroke="navy" stroke-width="1.6" stroke-linecap="round"
      fill="none" d="M 22.600,12.990 l 4.200,0.000 M 26.800,12.990 a 5.543,5.543 0 0,1 4.800,2.771 M 33.400,18.879 l -1.800,-3.118 M 38.200,21.651 a 5.543,5.543 0 0,1 -4.800,-2.771 M 38.200,21.651 l 4.200,0.000">
<desc>S3</desc>
</path>
<path stroke="darkorange" stroke-width="1.6" stroke-linecap="round"
      fill="none" d="M 46.300,36.719 l 2.200,-3.811 M 48.400,27.540 a 5.543,5.543 0 0,1 0.000,5.543 M 48.500,32.909 a 1.732,1.732 0 0,1 3.000,0.000 M 50.000,30.311 l -3.700,-6.409 M 53.700,36.719 l -3.700,-6.409">
<desc>T3</desc>
</path>
<path stroke="turquoise" stroke-width="1.6" stroke-linecap="round"
      fill="none" d="M 21.600,10.219 l 2.100,-3.637 M 21.600,15.762 a 5.543,5.543 0 0,1 0.000,-5.543 M 23.500,19.053 l -1.900,-3.291 M 26.500,19.053 a 1.732,1.732 0 0,1 -3.000,0.000 M 26.500,19.053 l 2.200,-3.811">
<desc>U3</desc>
</path>
<path stroke="lightcoral" stroke-width="1.6" stroke-linecap="round"
      fill="none" d="M 27.600,4.330 l 4.400,0.000 M 31.300,10.739 l 2.200,-3.811 M 32.000,4.330 a 1.732,1.732 0 0,1 1.500,2.598">
<desc>V2</desc>
</path>
<path stroke="green" stroke-width="1.6" stroke-linecap="round"
      fill="none" d="M 12.600,30.311 l 4.200,0.000 M 16.800,30.311 a 5.543,5.543 0 0,1 4.800,2.771 M 21.600,27.540 a 5.543,5.543 0 0,1 -4.800,2.771 M 21.600,27.540 l 2.100,-3.637 M 21.600,33.082 a 5.543,5.543 0 0,1 0.000,-5.543 M 23.700,36.719 l -2.100,-3.637">
<desc>Y3</desc>
</path>
<path stroke="plum" stroke-width="1.6" stroke-linecap="round"
      fill="none" d="M 28.500,27.713 l -2.200,-3.811 M 31.500,27.713 a 1.732,1.732 0 0,1 -3.000,0.000 M 31.500,27.713 l 2.000,-3.464 M 33.500,24.249 a 1.732,1.732 0 0,1 3.000,0.000 M 38.700,28.059 l -2.200,-3.811">
<desc>Z3</desc>
</path>
</g>
</svg>
