<?xml version="1.0" standalone="no"?>
<!-- Created by Polyform Puzzler (http://puzzler.sourceforge.net/) -->
<svg width="85.000" height="60.622"
     viewBox="0 0 85.000 60.622"
     xmlns="http://www.w3.org/2000/svg"
     xmlns:xlink="http://www.w3.org/1999/xlink">
<g>
<path stroke="gold" stroke-width="1.6" stroke-linecap="round"
      fill="none" d="M 32.600,12.990 l 4.200,0.000 M 36.800,12.990 a 5.543,5.543 0 0,1 4.800,2.771 M 41.300,28.059 l 2.100,-3.637 M 43.400,18.879 a 5.543,5.543 0 0,1 0.000,5.543 M 43.400,18.879 l -1.800,-3.118">
<desc>C3</desc>
</path>
<path stroke="maroon" stroke-width="1.6" stroke-linecap="round"
      fill="none" d="M 41.500,45.033 l 2.200,-3.811 M 41.500,50.229 a 1.732,1.732 0 0,1 1.500,-2.598 M 41.600,50.403 a 5.543,5.543 0 0,1 0.000,-5.543 M 43.000,47.631 a 1.732,1.732 0 0,1 -1.500,-2.598 M 43.000,47.631 l 4.400,0.000 M 43.700,54.040 l -2.200,-3.811">
<desc>E3</desc>
</path>
<path stroke="gray" stroke-width="1.6" stroke-linecap="round"
      fill="none" d="M 61.300,28.059 l 3.700,-6.409 M 65.000,21.651 l 3.700,-6.409">
<desc>I2</desc>
</path>
<path stroke="blue" stroke-width="1.6" stroke-linecap="round"
      fill="none" d="M 40.000,30.311 l -3.700,-6.409 M 45.000,38.971 l -5.000,-8.660 M 48.700,45.380 l -3.700,-6.409">
<desc>I3</desc>
</path>
<path stroke="blueviolet" stroke-width="1.6" stroke-linecap="round"
      fill="none" d="M 46.300,54.040 l 3.700,-6.409 M 47.600,38.971 l 4.400,0.000 M 50.000,47.631 l 3.500,-6.062 M 52.000,38.971 a 1.732,1.732 0 0,1 1.500,2.598">
<desc>J3</desc>
</path>
<path stroke="teal" stroke-width="1.6" stroke-linecap="round"
      fill="none" d="M 62.600,12.990 l 4.200,0.000 M 66.800,12.990 a 5.543,5.543 0 0,1 4.800,2.771 M 73.700,19.399 l -2.100,-3.637">
<desc>L2</desc>
</path>
<path stroke="lime" stroke-width="1.6" stroke-linecap="round"
      fill="none" d="M 55.000,38.971 l -3.700,-6.409 M 56.300,54.040 l 2.100,-3.637 M 58.400,44.860 a 5.543,5.543 0 0,1 0.000,5.543 M 58.400,44.860 l -3.400,-5.889">
<desc>L3</desc>
</path>
<path stroke="red" stroke-width="1.6" stroke-linecap="round"
      fill="none" d="M 66.500,24.249 a 1.732,1.732 0 0,1 1.500,-2.598 M 68.000,21.651 l 4.000,0.000 M 68.500,27.713 l -2.000,-3.464 M 71.500,27.713 a 1.732,1.732 0 0,1 -3.000,0.000 M 71.500,27.713 l 2.000,-3.464 M 72.000,21.651 a 1.732,1.732 0 0,1 1.500,2.598">
<desc>O3</desc>
</path>
<path stroke="magenta" stroke-width="1.6" stroke-linecap="round"
      fill="none" d="M 47.600,21.651 l 4.200,0.000 M 56.600,18.879 a 5.543,5.543 0 0,1 -4.800,2.771 M 56.600,18.879 l 1.900,-3.291 M 58.500,15.588 a 1.732,1.732 0 0,1 3.000,0.000 M 63.700,19.399 l -2.200,-3.811">
<desc>P3</desc>
</path>
<path stroke="navy" stroke-width="1.6" stroke-linecap="round"
      fill="none" d="M 42.600,30.311 l 4.200,0.000 M 51.600,27.540 a 5.543,5.543 0 0,1 -4.800,2.771 M 51.600,27.540 l 1.800,-3.118 M 53.400,24.422 a 5.543,5.543 0 0,1 4.800,-2.771 M 58.200,21.651 l 4.200,0.000">
<desc>S3</desc>
</path>
<path stroke="darkorange" stroke-width="1.6" stroke-linecap="round"
      fill="none" d="M 27.600,21.651 l 7.400,0.000 M 35.000,21.651 l 7.400,0.000 M 36.500,19.053 l 2.200,-3.811 M 36.600,18.879 a 5.543,5.543 0 0,1 -4.800,2.771 M 38.000,21.651 a 1.732,1.732 0 0,1 -1.500,-2.598">
<desc>T3</desc>
</path>
<path stroke="turquoise" stroke-width="1.6" stroke-linecap="round"
      fill="none" d="M 26.600,18.879 l 1.900,-3.291 M 26.600,24.422 a 5.543,5.543 0 0,1 0.000,-5.543 M 28.500,15.588 a 1.732,1.732 0 0,1 3.000,0.000 M 28.700,28.059 l -2.100,-3.637 M 33.700,19.399 l -2.200,-3.811">
<desc>U3</desc>
</path>
<path stroke="lightcoral" stroke-width="1.6" stroke-linecap="round"
      fill="none" d="M 31.500,27.713 l 2.200,-3.811 M 33.000,30.311 a 1.732,1.732 0 0,1 -1.500,-2.598 M 33.000,30.311 l 4.400,0.000">
<desc>V2</desc>
</path>
<path stroke="green" stroke-width="1.6" stroke-linecap="round"
      fill="none" d="M 56.300,36.719 l 2.100,-3.637 M 58.400,27.540 a 5.543,5.543 0 0,1 0.000,5.543 M 58.400,27.540 l -2.100,-3.637 M 58.400,33.082 a 5.543,5.543 0 0,1 4.800,-2.771 M 63.200,30.311 a 5.543,5.543 0 0,1 -4.800,-2.771 M 63.200,30.311 l 4.200,0.000">
<desc>Y3</desc>
</path>
<path stroke="plum" stroke-width="1.6" stroke-linecap="round"
      fill="none" d="M 47.600,56.292 l 4.400,0.000 M 51.500,50.229 a 1.732,1.732 0 0,1 1.500,-2.598 M 53.000,47.631 l 4.400,0.000 M 53.500,53.694 a 1.732,1.732 0 0,1 -1.500,2.598 M 53.500,53.694 l -2.000,-3.464">
<desc>Z3</desc>
</path>
</g>
</svg>
