<?xml version="1.0" standalone="no"?>
<!-- Created by Polyform Puzzler (http://puzzler.sourceforge.net/) -->
<svg width="90.0" height="43.3012701892" viewBox="0 0 90.0 43.3012701892"
     xmlns="http://www.w3.org/2000/svg"
     xmlns:xlink="http://www.w3.org/1999/xlink">
<g>
<path stroke="gold" stroke-width="1.6" stroke-linecap="round"
      fill="none" d="M 51.600,10.219 l 1.800,-3.118 M 51.600,15.762 a 5.543,5.543 0 0,1 0.000,-5.543 M 53.400,7.101 a 5.543,5.543 0 0,1 4.800,-2.771 M 53.700,19.399 l -2.100,-3.637 M 58.200,4.330 l 4.200,0.000">
<desc>C3</desc>
</path>
<path stroke="maroon" stroke-width="1.6" stroke-linecap="round"
      fill="none" d="M 27.600,38.971 l 4.400,0.000 M 33.500,36.373 a 1.732,1.732 0 0,1 -1.500,2.598 M 33.500,36.373 l -2.200,-3.811 M 36.500,36.373 a 1.732,1.732 0 0,1 -3.000,0.000 M 36.500,36.373 l 2.200,-3.811 M 36.600,36.200 a 5.543,5.543 0 0,1 -4.800,2.771">
<desc>E3</desc>
</path>
<path stroke="steelblue" stroke-width="1.6" stroke-linecap="round"
      fill="none" d="M 26.300,36.719 l 2.400,-4.157">
<desc>I1</desc>
</path>
<path stroke="gray" stroke-width="1.6" stroke-linecap="round"
      fill="none" d="M 37.600,38.971 l 7.400,0.000 M 45.000,38.971 l 7.400,0.000">
<desc>I2</desc>
</path>
<path stroke="blue" stroke-width="1.6" stroke-linecap="round"
      fill="none" d="M 27.600,4.330 l 7.400,0.000 M 35.000,4.330 l 10.000,0.000 M 45.000,4.330 l 7.400,0.000">
<desc>I3</desc>
</path>
<path stroke="blueviolet" stroke-width="1.6" stroke-linecap="round"
      fill="none" d="M 57.600,38.971 l 4.400,0.000 M 60.000,30.311 l -3.700,-6.409 M 63.500,36.373 a 1.732,1.732 0 0,1 -1.500,2.598 M 63.500,36.373 l -3.500,-6.062">
<desc>J3</desc>
</path>
<path stroke="teal" stroke-width="1.6" stroke-linecap="round"
      fill="none" d="M 36.600,18.879 l 2.100,-3.637 M 36.600,24.422 a 5.543,5.543 0 0,1 0.000,-5.543 M 38.700,28.059 l -2.100,-3.637">
<desc>L2</desc>
</path>
<path stroke="lime" stroke-width="1.6" stroke-linecap="round"
      fill="none" d="M 30.000,12.990 l -3.700,-6.409 M 31.300,28.059 l 2.100,-3.637 M 33.400,18.879 a 5.543,5.543 0 0,1 0.000,5.543 M 33.400,18.879 l -3.400,-5.889">
<desc>L3</desc>
</path>
<path stroke="red" stroke-width="1.6" stroke-linecap="round"
      fill="none" d="M 31.500,10.392 l 2.000,-3.464 M 33.000,12.990 a 1.732,1.732 0 0,1 -1.500,-2.598 M 33.000,12.990 l 4.000,0.000 M 33.500,6.928 a 1.732,1.732 0 0,1 3.000,0.000 M 38.500,10.392 a 1.732,1.732 0 0,1 -1.500,2.598 M 38.500,10.392 l -2.000,-3.464">
<desc>O3</desc>
</path>
<path stroke="magenta" stroke-width="1.6" stroke-linecap="round"
      fill="none" d="M 37.600,21.651 l 4.400,0.000 M 41.600,10.219 l 2.100,-3.637 M 41.600,15.762 a 5.543,5.543 0 0,1 0.000,-5.543 M 43.500,19.053 a 1.732,1.732 0 0,1 -1.500,2.598 M 43.500,19.053 l -1.900,-3.291">
<desc>P3</desc>
</path>
<path stroke="navy" stroke-width="1.6" stroke-linecap="round"
      fill="none" d="M 46.600,18.879 l 1.800,-3.118 M 46.600,24.422 a 5.543,5.543 0 0,1 0.000,-5.543 M 48.400,10.219 a 5.543,5.543 0 0,1 0.000,5.543 M 48.400,10.219 l -2.100,-3.637 M 48.700,28.059 l -2.100,-3.637">
<desc>S3</desc>
</path>
<path stroke="darkorange" stroke-width="1.6" stroke-linecap="round"
      fill="none" d="M 42.600,30.311 l 7.400,0.000 M 50.000,30.311 l 7.400,0.000 M 51.500,27.713 l 2.200,-3.811 M 51.600,27.540 a 5.543,5.543 0 0,1 -4.800,2.771 M 53.000,30.311 a 1.732,1.732 0 0,1 -1.500,-2.598">
<desc>T3</desc>
</path>
<path stroke="turquoise" stroke-width="1.6" stroke-linecap="round"
      fill="none" d="M 47.600,21.651 l 4.200,0.000 M 52.600,12.990 l 4.400,0.000 M 56.600,18.879 a 5.543,5.543 0 0,1 -4.800,2.771 M 56.600,18.879 l 1.900,-3.291 M 57.000,12.990 a 1.732,1.732 0 0,1 1.500,2.598">
<desc>U3</desc>
</path>
<path stroke="lightcoral" stroke-width="1.6" stroke-linecap="round"
      fill="none" d="M 58.500,10.392 l -2.200,-3.811 M 61.500,10.392 a 1.732,1.732 0 0,1 -3.000,0.000 M 61.500,10.392 l 2.200,-3.811">
<desc>V2</desc>
</path>
<path stroke="green" stroke-width="1.6" stroke-linecap="round"
      fill="none" d="M 32.600,30.311 l 4.200,0.000 M 36.800,30.311 a 5.543,5.543 0 0,1 4.800,2.771 M 41.600,27.540 a 5.543,5.543 0 0,1 -4.800,2.771 M 41.600,27.540 l 2.100,-3.637 M 41.600,33.082 a 5.543,5.543 0 0,1 0.000,-5.543 M 43.700,36.719 l -2.100,-3.637">
<desc>Y3</desc>
</path>
<path stroke="plum" stroke-width="1.6" stroke-linecap="round"
      fill="none" d="M 46.300,36.719 l 2.200,-3.811 M 48.500,32.909 a 1.732,1.732 0 0,1 3.000,0.000 M 53.500,36.373 l -2.000,-3.464 M 56.500,36.373 a 1.732,1.732 0 0,1 -3.000,0.000 M 56.500,36.373 l 2.200,-3.811">
<desc>Z3</desc>
</path>
</g>
</svg>
