<?xml version="1.0" standalone="no"?>
<!-- Created by Polyform Puzzler (http://puzzler.sourceforge.net/) -->
<svg width="130.000" height="34.641"
     viewBox="0 0 130.000 34.641"
     xmlns="http://www.w3.org/2000/svg"
     xmlns:xlink="http://www.w3.org/1999/xlink">
<g>
<path stroke="gold" stroke-width="1.6" stroke-linecap="round"
      fill="none" d="M 101.800,12.990 a 5.543,5.543 0 0,1 4.800,2.771 M 108.700,19.399 l -2.100,-3.637 M 91.300,19.399 l 2.100,-3.637 M 93.400,15.762 a 5.543,5.543 0 0,1 4.800,-2.771 M 98.200,12.990 l 3.600,0.000">
<desc>C3</desc>
</path>
<path stroke="maroon" stroke-width="1.6" stroke-linecap="round"
      fill="none" d="M 18.500,19.053 l -2.200,-3.811 M 21.500,19.053 a 1.732,1.732 0 0,1 -3.000,0.000 M 21.500,19.053 l 2.200,-3.811 M 23.000,21.651 a 1.732,1.732 0 0,1 -1.500,-2.598 M 23.000,21.651 l 4.400,0.000 M 23.200,21.651 a 5.543,5.543 0 0,1 -4.800,-2.771">
<desc>E3</desc>
</path>
<path stroke="gray" stroke-width="1.6" stroke-linecap="round"
      fill="none" d="M 17.600,30.311 l 7.400,0.000 M 25.000,30.311 l 7.400,0.000">
<desc>I2</desc>
</path>
<path stroke="blue" stroke-width="1.6" stroke-linecap="round"
      fill="none" d="M 100.000,21.651 l 10.000,0.000 M 110.000,21.651 l 7.400,0.000 M 92.600,21.651 l 7.400,0.000">
<desc>I3</desc>
</path>
<path stroke="blueviolet" stroke-width="1.6" stroke-linecap="round"
      fill="none" d="M 56.500,27.713 l 2.200,-3.811 M 58.000,30.311 a 1.732,1.732 0 0,1 -1.500,-2.598 M 58.000,30.311 l 7.000,0.000 M 65.000,30.311 l 7.400,0.000">
<desc>J3</desc>
</path>
<path stroke="teal" stroke-width="1.6" stroke-linecap="round"
      fill="none" d="M 51.600,18.879 l 2.100,-3.637 M 51.600,24.422 a 5.543,5.543 0 0,1 0.000,-5.543 M 53.700,28.059 l -2.100,-3.637">
<desc>L2</desc>
</path>
<path stroke="lime" stroke-width="1.6" stroke-linecap="round"
      fill="none" d="M 105.000,30.311 l 7.400,0.000 M 93.400,27.540 l -2.100,-3.637 M 98.200,30.311 a 5.543,5.543 0 0,1 -4.800,-2.771 M 98.200,30.311 l 6.800,0.000">
<desc>L3</desc>
</path>
<path stroke="red" stroke-width="1.6" stroke-linecap="round"
      fill="none" d="M 56.500,15.588 a 1.732,1.732 0 0,1 1.500,-2.598 M 58.000,12.990 l 4.000,0.000 M 58.500,19.053 l -2.000,-3.464 M 61.500,19.053 a 1.732,1.732 0 0,1 -3.000,0.000 M 61.500,19.053 l 2.000,-3.464 M 62.000,12.990 a 1.732,1.732 0 0,1 1.500,2.598">
<desc>O3</desc>
</path>
<path stroke="magenta" stroke-width="1.6" stroke-linecap="round"
      fill="none" d="M 12.600,21.651 l 4.200,0.000 M 16.800,21.651 a 5.543,5.543 0 0,1 4.800,2.771 M 23.500,27.713 l -1.900,-3.291 M 26.500,27.713 a 1.732,1.732 0 0,1 -3.000,0.000 M 26.500,27.713 l 2.200,-3.811">
<desc>P3</desc>
</path>
<path stroke="navy" stroke-width="1.6" stroke-linecap="round"
      fill="none" d="M 17.600,12.990 l 4.200,0.000 M 21.800,12.990 a 5.543,5.543 0 0,1 4.800,2.771 M 28.400,18.879 l -1.800,-3.118 M 33.200,21.651 a 5.543,5.543 0 0,1 -4.800,-2.771 M 33.200,21.651 l 4.200,0.000">
<desc>S3</desc>
</path>
<path stroke="darkorange" stroke-width="1.6" stroke-linecap="round"
      fill="none" d="M 52.600,21.651 l 7.400,0.000 M 56.800,21.651 a 5.543,5.543 0 0,1 4.800,2.771 M 60.000,21.651 l 7.400,0.000 M 61.500,24.249 a 1.732,1.732 0 0,1 1.500,-2.598 M 63.700,28.059 l -2.200,-3.811">
<desc>T3</desc>
</path>
<path stroke="turquoise" stroke-width="1.6" stroke-linecap="round"
      fill="none" d="M 11.600,18.879 l 2.100,-3.637 M 11.600,24.422 a 5.543,5.543 0 0,1 0.000,-5.543 M 13.500,27.713 l -1.900,-3.291 M 16.500,27.713 a 1.732,1.732 0 0,1 -3.000,0.000 M 16.500,27.713 l 2.200,-3.811">
<desc>U3</desc>
</path>
<path stroke="lightcoral" stroke-width="1.6" stroke-linecap="round"
      fill="none" d="M 101.500,19.053 a 1.732,1.732 0 0,1 -3.000,0.000 M 101.500,19.053 l 2.200,-3.811 M 98.500,19.053 l -2.200,-3.811">
<desc>V2</desc>
</path>
<path stroke="green" stroke-width="1.6" stroke-linecap="round"
      fill="none" d="M 66.300,28.059 l 2.100,-3.637 M 68.400,18.879 a 5.543,5.543 0 0,1 0.000,5.543 M 68.400,18.879 l -2.100,-3.637 M 68.400,24.422 a 5.543,5.543 0 0,1 4.800,-2.771 M 73.200,21.651 a 5.543,5.543 0 0,1 -4.800,-2.771 M 73.200,21.651 l 4.200,0.000">
<desc>Y3</desc>
</path>
<path stroke="plum" stroke-width="1.6" stroke-linecap="round"
      fill="none" d="M 103.500,27.713 l -2.000,-3.464 M 106.500,27.713 a 1.732,1.732 0 0,1 -3.000,0.000 M 106.500,27.713 l 2.200,-3.811 M 96.300,28.059 l 2.200,-3.811 M 98.500,24.249 a 1.732,1.732 0 0,1 3.000,0.000">
<desc>Z3</desc>
</path>
</g>
</svg>
