<?xml version="1.0" standalone="no"?>
<!-- Created by Polyform Puzzler (http://puzzler.sourceforge.net/) -->
<svg width="100.000" height="69.282"
     viewBox="0 0 100.000 69.282"
     xmlns="http://www.w3.org/2000/svg"
     xmlns:xlink="http://www.w3.org/1999/xlink">
<g>
<path stroke="gold" stroke-width="1.6" stroke-linecap="round"
      fill="none" d="M 21.300,36.719 l 2.100,-3.637 M 23.400,33.082 a 5.543,5.543 0 0,1 4.800,-2.771 M 28.200,30.311 l 3.600,0.000 M 31.800,30.311 a 5.543,5.543 0 0,1 4.800,2.771 M 38.700,36.719 l -2.100,-3.637">
<desc>C3</desc>
</path>
<path stroke="maroon" stroke-width="1.6" stroke-linecap="round"
      fill="none" d="M 42.600,56.292 l 4.400,0.000 M 46.300,62.700 l 2.200,-3.811 M 47.000,56.292 a 1.732,1.732 0 0,1 1.500,2.598 M 48.400,53.520 a 5.543,5.543 0 0,1 0.000,5.543 M 48.500,53.694 a 1.732,1.732 0 0,1 -1.500,2.598 M 48.500,53.694 l -2.200,-3.811">
<desc>E3</desc>
</path>
<path stroke="gray" stroke-width="1.6" stroke-linecap="round"
      fill="none" d="M 41.300,36.719 l 3.700,-6.409 M 45.000,30.311 l 3.700,-6.409">
<desc>I2</desc>
</path>
<path stroke="blue" stroke-width="1.6" stroke-linecap="round"
      fill="none" d="M 22.600,38.971 l 7.400,0.000 M 30.000,38.971 l 10.000,0.000 M 40.000,38.971 l 7.400,0.000">
<desc>I3</desc>
</path>
<path stroke="blueviolet" stroke-width="1.6" stroke-linecap="round"
      fill="none" d="M 52.600,56.292 l 4.400,0.000 M 55.000,47.631 l -3.700,-6.409 M 58.500,53.694 a 1.732,1.732 0 0,1 -1.500,2.598 M 58.500,53.694 l -3.500,-6.062">
<desc>J3</desc>
</path>
<path stroke="teal" stroke-width="1.6" stroke-linecap="round"
      fill="none" d="M 47.600,64.952 l 4.200,0.000 M 56.600,62.181 a 5.543,5.543 0 0,1 -4.800,2.771 M 56.600,62.181 l 2.100,-3.637">
<desc>L2</desc>
</path>
<path stroke="lime" stroke-width="1.6" stroke-linecap="round"
      fill="none" d="M 23.400,44.860 l -2.100,-3.637 M 28.200,47.631 a 5.543,5.543 0 0,1 -4.800,-2.771 M 28.200,47.631 l 6.800,0.000 M 35.000,47.631 l 7.400,0.000">
<desc>L3</desc>
</path>
<path stroke="red" stroke-width="1.6" stroke-linecap="round"
      fill="none" d="M 56.500,32.909 a 1.732,1.732 0 0,1 1.500,-2.598 M 58.000,30.311 l 4.000,0.000 M 58.500,36.373 l -2.000,-3.464 M 61.500,36.373 a 1.732,1.732 0 0,1 -3.000,0.000 M 61.500,36.373 l 2.000,-3.464 M 62.000,30.311 a 1.732,1.732 0 0,1 1.500,2.598">
<desc>O3</desc>
</path>
<path stroke="magenta" stroke-width="1.6" stroke-linecap="round"
      fill="none" d="M 47.600,47.631 l 4.400,0.000 M 51.600,53.520 l 1.900,-3.291 M 51.600,59.063 a 5.543,5.543 0 0,1 0.000,-5.543 M 52.000,47.631 a 1.732,1.732 0 0,1 1.500,2.598 M 53.700,62.700 l -2.100,-3.637">
<desc>P3</desc>
</path>
<path stroke="navy" stroke-width="1.6" stroke-linecap="round"
      fill="none" d="M 41.600,53.520 l 1.800,-3.118 M 41.600,59.063 a 5.543,5.543 0 0,1 0.000,-5.543 M 43.400,44.860 a 5.543,5.543 0 0,1 0.000,5.543 M 43.400,44.860 l -2.100,-3.637 M 43.700,62.700 l -2.100,-3.637">
<desc>S3</desc>
</path>
<path stroke="darkorange" stroke-width="1.6" stroke-linecap="round"
      fill="none" d="M 47.600,30.311 l 4.400,0.000 M 51.300,36.719 l 3.700,-6.409 M 52.000,30.311 a 1.732,1.732 0 0,1 1.500,2.598 M 55.000,30.311 l 3.700,-6.409 M 56.600,27.540 a 5.543,5.543 0 0,1 -4.800,2.771">
<desc>T3</desc>
</path>
<path stroke="turquoise" stroke-width="1.6" stroke-linecap="round"
      fill="none" d="M 51.500,24.249 a 1.732,1.732 0 0,1 1.500,-2.598 M 53.000,21.651 l 3.800,0.000 M 53.700,28.059 l -2.200,-3.811 M 56.800,21.651 a 5.543,5.543 0 0,1 4.800,2.771 M 63.700,28.059 l -2.100,-3.637">
<desc>U3</desc>
</path>
<path stroke="lightcoral" stroke-width="1.6" stroke-linecap="round"
      fill="none" d="M 28.500,36.373 l -2.200,-3.811 M 31.500,36.373 a 1.732,1.732 0 0,1 -3.000,0.000 M 31.500,36.373 l 2.200,-3.811">
<desc>V2</desc>
</path>
<path stroke="green" stroke-width="1.6" stroke-linecap="round"
      fill="none" d="M 46.300,45.380 l 2.100,-3.637 M 48.400,36.200 a 5.543,5.543 0 0,1 0.000,5.543 M 48.400,36.200 l -2.100,-3.637 M 48.400,41.742 a 5.543,5.543 0 0,1 4.800,-2.771 M 53.200,38.971 a 5.543,5.543 0 0,1 -4.800,-2.771 M 53.200,38.971 l 4.200,0.000">
<desc>Y3</desc>
</path>
<path stroke="plum" stroke-width="1.6" stroke-linecap="round"
      fill="none" d="M 26.300,45.380 l 2.200,-3.811 M 28.500,41.569 a 1.732,1.732 0 0,1 3.000,0.000 M 33.500,45.033 l -2.000,-3.464 M 36.500,45.033 a 1.732,1.732 0 0,1 -3.000,0.000 M 36.500,45.033 l 2.200,-3.811">
<desc>Z3</desc>
</path>
</g>
</svg>
