<?xml version="1.0" standalone="no"?>
<!-- Created by Polyform Puzzler (http://puzzler.sourceforge.net/) -->
<svg width="140.000" height="140.000"
     viewBox="0 0 140.000 140.000"
     xmlns="http://www.w3.org/2000/svg"
     xmlns:xlink="http://www.w3.org/1999/xlink">
<g transform="translate(70.000,35.000) rotate(90)">
<path stroke="yellowgreen" stroke-width="1.6" stroke-linecap="round"
      fill="none" d="M 31.300,36.719 l 2.400,-4.157 M 37.600,47.631 l 4.800,0.000">
<desc>C12</desc>
</path>
<path stroke="red" stroke-width="1.6" stroke-linecap="round"
      fill="none" d="M 27.600,12.990 l 7.400,0.000 M 35.000,12.990 l 7.400,0.000">
<desc>I02</desc>
</path>
<path stroke="cyan" stroke-width="1.6" stroke-linecap="round"
      fill="none" d="M 26.300,45.380 l 2.400,-4.157 M 36.300,28.059 l 2.400,-4.157">
<desc>I12</desc>
</path>
<path stroke="orange" stroke-width="1.6" stroke-linecap="round"
      fill="none" d="M 32.600,21.651 l 4.200,0.000 M 41.600,18.879 a 5.543,5.543 0 0,1 -4.800,2.771 M 41.600,18.879 l 2.100,-3.637">
<desc>L02</desc>
</path>
<path stroke="green" stroke-width="1.6" stroke-linecap="round"
      fill="none" d="M 31.300,19.399 l 2.400,-4.157 M 38.700,36.719 l -2.400,-4.157">
<desc>L12</desc>
</path>
<path stroke="magenta" stroke-width="1.6" stroke-linecap="round"
      fill="none" d="M 27.600,47.631 l 4.800,0.000 M 43.700,45.380 l -2.400,-4.157">
<desc>P12</desc>
</path>
<path stroke="blueviolet" stroke-width="1.6" stroke-linecap="round"
      fill="none" d="M 33.700,28.059 l -2.400,-4.157 M 33.700,45.380 l -2.400,-4.157">
<desc>S12</desc>
</path>
<path stroke="lightcoral" stroke-width="1.6" stroke-linecap="round"
      fill="none" d="M 32.600,38.971 l 4.400,0.000 M 36.300,45.380 l 2.200,-3.811 M 37.000,38.971 a 1.732,1.732 0 0,1 1.500,2.598">
<desc>V02</desc>
</path>
<path stroke="plum" stroke-width="1.6" stroke-linecap="round"
      fill="none" d="M 28.700,19.399 l -2.400,-4.157 M 38.700,19.399 l -2.400,-4.157">
<desc>Z12</desc>
</path>
</g>
</svg>
