<?xml version="1.0" standalone="no"?>
<!-- Created by Polyform Puzzler (http://puzzler.sourceforge.net/) -->
<svg width="65.000" height="43.301"
     viewBox="0 0 65.000 43.301"
     xmlns="http://www.w3.org/2000/svg"
     xmlns:xlink="http://www.w3.org/1999/xlink">
<g>
<path stroke="yellowgreen" stroke-width="1.6" stroke-linecap="round"
      fill="none" d="M 32.600,30.311 l 4.800,0.000 M 43.700,19.399 l -2.400,-4.157">
<desc>C12</desc>
</path>
<path stroke="red" stroke-width="1.6" stroke-linecap="round"
      fill="none" d="M 26.300,36.719 l 3.700,-6.409 M 30.000,30.311 l 3.700,-6.409">
<desc>I02</desc>
</path>
<path stroke="cyan" stroke-width="1.6" stroke-linecap="round"
      fill="none" d="M 27.600,21.651 l 4.800,0.000 M 47.600,21.651 l 4.800,0.000">
<desc>I12</desc>
</path>
<path stroke="orange" stroke-width="1.6" stroke-linecap="round"
      fill="none" d="M 28.400,10.219 l -2.100,-3.637 M 33.200,12.990 a 5.543,5.543 0 0,1 -4.800,-2.771 M 33.200,12.990 l 4.200,0.000">
<desc>L02</desc>
</path>
<path stroke="green" stroke-width="1.6" stroke-linecap="round"
      fill="none" d="M 38.700,28.059 l -2.400,-4.157 M 41.300,10.739 l 2.400,-4.157">
<desc>L12</desc>
</path>
<path stroke="magenta" stroke-width="1.6" stroke-linecap="round"
      fill="none" d="M 17.600,21.651 l 4.800,0.000 M 33.700,19.399 l -2.400,-4.157">
<desc>P12</desc>
</path>
<path stroke="blueviolet" stroke-width="1.6" stroke-linecap="round"
      fill="none" d="M 28.700,28.059 l -2.400,-4.157 M 43.700,36.719 l -2.400,-4.157">
<desc>S12</desc>
</path>
<path stroke="lightcoral" stroke-width="1.6" stroke-linecap="round"
      fill="none" d="M 37.600,21.651 l 4.400,0.000 M 41.300,28.059 l 2.200,-3.811 M 42.000,21.651 a 1.732,1.732 0 0,1 1.500,2.598">
<desc>V02</desc>
</path>
<path stroke="plum" stroke-width="1.6" stroke-linecap="round"
      fill="none" d="M 26.300,19.399 l 2.400,-4.157 M 36.300,19.399 l 2.400,-4.157">
<desc>Z12</desc>
</path>
</g>
</svg>
