<?xml version="1.0" standalone="no"?>
<!-- Created by Polyform Puzzler (http://puzzler.sourceforge.net/) -->
<svg width="80.0" height="25.9807621135" viewBox="0 0 80.0 25.9807621135"
     xmlns="http://www.w3.org/2000/svg"
     xmlns:xlink="http://www.w3.org/1999/xlink">
<g>
<path stroke="gold" stroke-width="1.6" stroke-linecap="round"
      fill="none" d="M 41.300,10.739 l 2.100,-3.637 M 43.400,7.101 a 5.543,5.543 0 0,1 4.800,-2.771 M 48.200,4.330 l 3.600,0.000 M 51.800,4.330 a 5.543,5.543 0 0,1 4.800,2.771 M 58.700,10.739 l -2.100,-3.637">
<desc>C3</desc>
</path>
<path stroke="maroon" stroke-width="1.6" stroke-linecap="round"
      fill="none" d="M 51.500,10.392 l 2.200,-3.811 M 51.500,15.588 a 1.732,1.732 0 0,1 1.500,-2.598 M 51.600,15.762 a 5.543,5.543 0 0,1 0.000,-5.543 M 53.000,12.990 a 1.732,1.732 0 0,1 -1.500,-2.598 M 53.000,12.990 l 4.400,0.000 M 53.700,19.399 l -2.200,-3.811">
<desc>E3</desc>
</path>
<path stroke="blue" stroke-width="1.6" stroke-linecap="round"
      fill="none" d="M 15.000,21.651 l 10.000,0.000 M 25.000,21.651 l 7.400,0.000 M 7.600,21.651 l 7.400,0.000">
<desc>I3</desc>
</path>
<path stroke="blueviolet" stroke-width="1.6" stroke-linecap="round"
      fill="none" d="M 16.500,6.928 a 1.732,1.732 0 0,1 1.500,-2.598 M 18.000,4.330 l 7.000,0.000 M 18.700,10.739 l -2.200,-3.811 M 25.000,4.330 l 7.400,0.000">
<desc>J3</desc>
</path>
<path stroke="lime" stroke-width="1.6" stroke-linecap="round"
      fill="none" d="M 33.400,18.879 l -2.100,-3.637 M 38.200,21.651 a 5.543,5.543 0 0,1 -4.800,-2.771 M 38.200,21.651 l 6.800,0.000 M 45.000,21.651 l 7.400,0.000">
<desc>L3</desc>
</path>
<path stroke="red" stroke-width="1.6" stroke-linecap="round"
      fill="none" d="M 56.500,19.053 l 2.000,-3.464 M 58.000,21.651 a 1.732,1.732 0 0,1 -1.500,-2.598 M 58.000,21.651 l 4.000,0.000 M 58.500,15.588 a 1.732,1.732 0 0,1 3.000,0.000 M 63.500,19.053 a 1.732,1.732 0 0,1 -1.500,2.598 M 63.500,19.053 l -2.000,-3.464">
<desc>O3</desc>
</path>
<path stroke="magenta" stroke-width="1.6" stroke-linecap="round"
      fill="none" d="M 12.600,12.990 l 4.200,0.000 M 21.600,10.219 a 5.543,5.543 0 0,1 -4.800,2.771 M 21.600,10.219 l 1.900,-3.291 M 23.500,6.928 a 1.732,1.732 0 0,1 3.000,0.000 M 28.700,10.739 l -2.200,-3.811">
<desc>P3</desc>
</path>
<path stroke="navy" stroke-width="1.6" stroke-linecap="round"
      fill="none" d="M 22.600,12.990 l 4.200,0.000 M 31.600,10.219 a 5.543,5.543 0 0,1 -4.800,2.771 M 31.600,10.219 l 1.800,-3.118 M 33.400,7.101 a 5.543,5.543 0 0,1 4.800,-2.771 M 38.200,4.330 l 4.200,0.000">
<desc>S3</desc>
</path>
<path stroke="darkorange" stroke-width="1.6" stroke-linecap="round"
      fill="none" d="M 10.000,12.990 l 3.700,-6.409 M 11.600,15.762 a 5.543,5.543 0 0,1 0.000,-5.543 M 13.700,19.399 l -2.200,-3.811 M 6.300,19.399 l 3.700,-6.409 M 8.500,15.588 a 1.732,1.732 0 0,1 3.000,0.000">
<desc>T3</desc>
</path>
<path stroke="turquoise" stroke-width="1.6" stroke-linecap="round"
      fill="none" d="M 43.500,19.053 l -2.200,-3.811 M 46.500,19.053 a 1.732,1.732 0 0,1 -3.000,0.000 M 46.500,19.053 l 1.900,-3.291 M 48.400,10.219 a 5.543,5.543 0 0,1 0.000,5.543 M 48.400,10.219 l -2.100,-3.637">
<desc>U3</desc>
</path>
<path stroke="green" stroke-width="1.6" stroke-linecap="round"
      fill="none" d="M 36.300,19.399 l 2.100,-3.637 M 38.400,10.219 a 5.543,5.543 0 0,1 0.000,5.543 M 38.400,10.219 l -2.100,-3.637 M 38.400,15.762 a 5.543,5.543 0 0,1 4.800,-2.771 M 43.200,12.990 a 5.543,5.543 0 0,1 -4.800,-2.771 M 43.200,12.990 l 4.200,0.000">
<desc>Y3</desc>
</path>
<path stroke="plum" stroke-width="1.6" stroke-linecap="round"
      fill="none" d="M 16.300,19.399 l 2.200,-3.811 M 18.500,15.588 a 1.732,1.732 0 0,1 3.000,0.000 M 23.500,19.053 l -2.000,-3.464 M 26.500,19.053 a 1.732,1.732 0 0,1 -3.000,0.000 M 26.500,19.053 l 2.200,-3.811">
<desc>Z3</desc>
</path>
</g>
</svg>
