<?xml version="1.0" standalone="no"?>
<!-- Created by Polyform Puzzler (http://puzzler.sourceforge.net/) -->
<svg width="85.0" height="51.9615242271" viewBox="0 0 85.0 51.9615242271"
     xmlns="http://www.w3.org/2000/svg"
     xmlns:xlink="http://www.w3.org/1999/xlink">
<g>
<path stroke="gold" stroke-width="1.6" stroke-linecap="round"
      fill="none" d="M 42.600,21.651 l 4.200,0.000 M 46.800,21.651 a 5.543,5.543 0 0,1 4.800,2.771 M 51.300,36.719 l 2.100,-3.637 M 53.400,27.540 a 5.543,5.543 0 0,1 0.000,5.543 M 53.400,27.540 l -1.800,-3.118">
<desc>C3</desc>
</path>
<path stroke="maroon" stroke-width="1.6" stroke-linecap="round"
      fill="none" d="M 41.300,36.719 l 2.200,-3.811 M 43.400,33.082 a 5.543,5.543 0 0,1 4.800,-2.771 M 43.500,32.909 a 1.732,1.732 0 0,1 3.000,0.000 M 46.500,32.909 a 1.732,1.732 0 0,1 1.500,-2.598 M 48.000,30.311 l 4.400,0.000 M 48.700,36.719 l -2.200,-3.811">
<desc>E3</desc>
</path>
<path stroke="blue" stroke-width="1.6" stroke-linecap="round"
      fill="none" d="M 32.600,38.971 l 7.400,0.000 M 40.000,38.971 l 10.000,0.000 M 50.000,38.971 l 7.400,0.000">
<desc>I3</desc>
</path>
<path stroke="blueviolet" stroke-width="1.6" stroke-linecap="round"
      fill="none" d="M 26.300,45.380 l 3.700,-6.409 M 30.000,38.971 l 3.500,-6.062 M 33.500,32.909 a 1.732,1.732 0 0,1 3.000,0.000 M 38.700,36.719 l -2.200,-3.811">
<desc>J3</desc>
</path>
<path stroke="lime" stroke-width="1.6" stroke-linecap="round"
      fill="none" d="M 21.600,36.200 l 3.400,-5.889 M 21.600,41.742 a 5.543,5.543 0 0,1 0.000,-5.543 M 23.700,45.380 l -2.100,-3.637 M 25.000,30.311 l 3.700,-6.409">
<desc>L3</desc>
</path>
<path stroke="red" stroke-width="1.6" stroke-linecap="round"
      fill="none" d="M 56.500,32.909 a 1.732,1.732 0 0,1 1.500,-2.598 M 58.000,30.311 l 4.000,0.000 M 58.500,36.373 l -2.000,-3.464 M 61.500,36.373 a 1.732,1.732 0 0,1 -3.000,0.000 M 61.500,36.373 l 2.000,-3.464 M 62.000,30.311 a 1.732,1.732 0 0,1 1.500,2.598">
<desc>O3</desc>
</path>
<path stroke="magenta" stroke-width="1.6" stroke-linecap="round"
      fill="none" d="M 32.600,4.330 l 4.400,0.000 M 36.600,10.219 l 1.900,-3.291 M 36.600,15.762 a 5.543,5.543 0 0,1 0.000,-5.543 M 37.000,4.330 a 1.732,1.732 0 0,1 1.500,2.598 M 38.700,19.399 l -2.100,-3.637">
<desc>P3</desc>
</path>
<path stroke="navy" stroke-width="1.6" stroke-linecap="round"
      fill="none" d="M 31.600,18.879 l 1.800,-3.118 M 31.600,24.422 a 5.543,5.543 0 0,1 0.000,-5.543 M 33.400,10.219 a 5.543,5.543 0 0,1 0.000,5.543 M 33.400,10.219 l -2.100,-3.637 M 33.700,28.059 l -2.100,-3.637">
<desc>S3</desc>
</path>
<path stroke="darkorange" stroke-width="1.6" stroke-linecap="round"
      fill="none" d="M 37.600,12.990 l 4.400,0.000 M 41.800,12.990 a 5.543,5.543 0 0,1 4.800,2.771 M 43.500,10.392 a 1.732,1.732 0 0,1 -1.500,2.598 M 45.000,12.990 l -3.700,-6.409 M 48.700,19.399 l -3.700,-6.409">
<desc>T3</desc>
</path>
<path stroke="turquoise" stroke-width="1.6" stroke-linecap="round"
      fill="none" d="M 36.500,27.713 l 2.200,-3.811 M 38.000,30.311 a 1.732,1.732 0 0,1 -1.500,-2.598 M 38.000,30.311 l 3.800,0.000 M 46.600,27.540 a 5.543,5.543 0 0,1 -4.800,2.771 M 46.600,27.540 l 2.100,-3.637">
<desc>U3</desc>
</path>
<path stroke="green" stroke-width="1.6" stroke-linecap="round"
      fill="none" d="M 32.600,21.651 l 4.200,0.000 M 36.800,21.651 a 5.543,5.543 0 0,1 4.800,2.771 M 41.600,18.879 a 5.543,5.543 0 0,1 -4.800,2.771 M 41.600,18.879 l 2.100,-3.637 M 41.600,24.422 a 5.543,5.543 0 0,1 0.000,-5.543 M 43.700,28.059 l -2.100,-3.637">
<desc>Y3</desc>
</path>
<path stroke="plum" stroke-width="1.6" stroke-linecap="round"
      fill="none" d="M 22.600,38.971 l 4.400,0.000 M 26.500,32.909 a 1.732,1.732 0 0,1 1.500,-2.598 M 28.000,30.311 l 4.400,0.000 M 28.500,36.373 a 1.732,1.732 0 0,1 -1.500,2.598 M 28.500,36.373 l -2.000,-3.464">
<desc>Z3</desc>
</path>
</g>
</svg>
