<?xml version="1.0" standalone="no"?>
<!-- Created by Polyform Puzzler (http://puzzler.sourceforge.net/) -->
<svg width="140.000" height="140.000"
     viewBox="0 0 140.000 140.000"
     xmlns="http://www.w3.org/2000/svg"
     xmlns:xlink="http://www.w3.org/1999/xlink">
<g transform="translate(70.000,35.000) rotate(-30)">
<path stroke="gold" stroke-width="1.6" stroke-linecap="round"
      fill="none" d="M 37.600,47.631 l 4.200,0.000 M 46.600,44.860 a 5.543,5.543 0 0,1 -4.800,2.771 M 46.600,44.860 l 1.800,-3.118 M 48.400,36.200 a 5.543,5.543 0 0,1 0.000,5.543 M 48.400,36.200 l -2.100,-3.637">
<desc>C3</desc>
</path>
<path stroke="maroon" stroke-width="1.6" stroke-linecap="round"
      fill="none" d="M 23.500,45.033 l -2.200,-3.811 M 26.500,45.033 a 1.732,1.732 0 0,1 -3.000,0.000 M 26.500,45.033 l 2.200,-3.811 M 28.000,47.631 a 1.732,1.732 0 0,1 -1.500,-2.598 M 28.000,47.631 l 4.400,0.000 M 28.200,47.631 a 5.543,5.543 0 0,1 -4.800,-2.771">
<desc>E3</desc>
</path>
<path stroke="blue" stroke-width="1.6" stroke-linecap="round"
      fill="none" d="M 22.600,38.971 l 7.400,0.000 M 30.000,38.971 l 10.000,0.000 M 40.000,38.971 l 7.400,0.000">
<desc>I3</desc>
</path>
<path stroke="blueviolet" stroke-width="1.6" stroke-linecap="round"
      fill="none" d="M 21.500,24.249 a 1.732,1.732 0 0,1 1.500,-2.598 M 23.000,21.651 l 4.400,0.000 M 25.000,30.311 l -3.500,-6.062 M 28.700,36.719 l -3.700,-6.409">
<desc>J3</desc>
</path>
<path stroke="lime" stroke-width="1.6" stroke-linecap="round"
      fill="none" d="M 16.300,28.059 l 3.700,-6.409 M 20.000,21.651 l 3.400,-5.889 M 23.400,15.762 a 5.543,5.543 0 0,1 4.800,-2.771 M 28.200,12.990 l 4.200,0.000">
<desc>L3</desc>
</path>
<path stroke="red" stroke-width="1.6" stroke-linecap="round"
      fill="none" d="M 16.500,32.909 a 1.732,1.732 0 0,1 1.500,-2.598 M 18.000,30.311 l 4.000,0.000 M 18.500,36.373 l -2.000,-3.464 M 21.500,36.373 a 1.732,1.732 0 0,1 -3.000,0.000 M 21.500,36.373 l 2.000,-3.464 M 22.000,30.311 a 1.732,1.732 0 0,1 1.500,2.598">
<desc>O3</desc>
</path>
<path stroke="magenta" stroke-width="1.6" stroke-linecap="round"
      fill="none" d="M 32.600,21.651 l 4.200,0.000 M 36.800,21.651 a 5.543,5.543 0 0,1 4.800,2.771 M 43.500,27.713 l -1.900,-3.291 M 46.500,27.713 a 1.732,1.732 0 0,1 -3.000,0.000 M 46.500,27.713 l 2.200,-3.811">
<desc>P3</desc>
</path>
<path stroke="navy" stroke-width="1.6" stroke-linecap="round"
      fill="none" d="M 38.400,18.879 l -2.100,-3.637 M 43.200,21.651 a 5.543,5.543 0 0,1 -4.800,-2.771 M 43.200,21.651 l 3.600,0.000 M 46.800,21.651 a 5.543,5.543 0 0,1 4.800,2.771 M 53.700,28.059 l -2.100,-3.637">
<desc>S3</desc>
</path>
<path stroke="darkorange" stroke-width="1.6" stroke-linecap="round"
      fill="none" d="M 26.300,28.059 l 3.700,-6.409 M 28.400,18.879 a 5.543,5.543 0 0,1 0.000,5.543 M 28.500,19.053 l -2.200,-3.811 M 30.000,21.651 l 3.700,-6.409 M 31.500,19.053 a 1.732,1.732 0 0,1 -3.000,0.000">
<desc>T3</desc>
</path>
<path stroke="turquoise" stroke-width="1.6" stroke-linecap="round"
      fill="none" d="M 41.300,36.719 l 2.100,-3.637 M 43.400,33.082 a 5.543,5.543 0 0,1 4.800,-2.771 M 48.200,30.311 l 3.800,0.000 M 51.300,36.719 l 2.200,-3.811 M 52.000,30.311 a 1.732,1.732 0 0,1 1.500,2.598">
<desc>U3</desc>
</path>
<path stroke="green" stroke-width="1.6" stroke-linecap="round"
      fill="none" d="M 27.600,30.311 l 4.200,0.000 M 31.800,30.311 a 5.543,5.543 0 0,1 4.800,2.771 M 36.600,27.540 a 5.543,5.543 0 0,1 -4.800,2.771 M 36.600,27.540 l 2.100,-3.637 M 36.600,33.082 a 5.543,5.543 0 0,1 0.000,-5.543 M 38.700,36.719 l -2.100,-3.637">
<desc>Y3</desc>
</path>
<path stroke="plum" stroke-width="1.6" stroke-linecap="round"
      fill="none" d="M 33.500,45.033 l -2.200,-3.811 M 36.500,45.033 a 1.732,1.732 0 0,1 -3.000,0.000 M 36.500,45.033 l 2.000,-3.464 M 38.500,41.569 a 1.732,1.732 0 0,1 3.000,0.000 M 43.700,45.380 l -2.200,-3.811">
<desc>Z3</desc>
</path>
</g>
</svg>
