<?xml version="1.0" standalone="no"?>
<!-- Created by Polyform Puzzler (http://puzzler.sourceforge.net/) -->
<svg width="50.000" height="25.981"
     viewBox="0 0 50.000 25.981"
     xmlns="http://www.w3.org/2000/svg"
     xmlns:xlink="http://www.w3.org/1999/xlink">
<g>
<path stroke="black" stroke-width="1.6" stroke-linecap="round"
      fill="none" d="M 12.600,12.990 l 7.400,0.000 M 16.800,12.990 a 5.543,5.543 0 0,1 4.800,2.771 M 20.000,12.990 l 7.400,0.000 M 21.500,10.392 l 2.200,-3.811 M 21.500,15.588 a 1.732,1.732 0 0,1 1.500,-2.598 M 21.600,10.219 a 5.543,5.543 0 0,1 -4.800,2.771 M 21.600,15.762 a 5.543,5.543 0 0,1 0.000,-5.543 M 23.000,12.990 a 1.732,1.732 0 0,1 -1.500,-2.598 M 23.700,19.399 l -2.200,-3.811">
<desc>E14</desc>
</path>
</g>
</svg>
