<?xml version="1.0" standalone="no"?>
<!-- Created by Polyform Puzzler (http://puzzler.sourceforge.net/) -->
<svg width="100.000" height="100.000"
     viewBox="0 0 100.000 100.000"
     xmlns="http://www.w3.org/2000/svg"
     xmlns:xlink="http://www.w3.org/1999/xlink">
<g transform="matrix(1,0,0,-1,0,25.981) translate(50.000,-25.000) rotate(-60)">
<path stroke="black" stroke-width="1.6" stroke-linecap="round"
      fill="none" d="M 16.600,18.879 a 5.543,5.543 0 0,1 -4.800,2.771 M 16.600,18.879 l 1.900,-3.291 M 18.400,15.762 a 5.543,5.543 0 0,1 4.800,-2.771 M 18.500,15.588 a 1.732,1.732 0 0,1 3.000,0.000 M 21.500,15.588 a 1.732,1.732 0 0,1 1.500,-2.598 M 23.000,12.990 l 4.400,0.000 M 23.700,19.399 l -2.200,-3.811 M 7.600,21.651 l 4.200,0.000">
<desc>E24</desc>
</path>
</g>
</svg>
