<?xml version="1.0" encoding="UTF-8" standalone="no"?>
<!-- Created by Polyform Puzzler (http://puzzler.sourceforge.net/) -->

<svg
   xmlns:dc="http://purl.org/dc/elements/1.1/"
   xmlns:cc="http://creativecommons.org/ns#"
   xmlns:rdf="http://www.w3.org/1999/02/22-rdf-syntax-ns#"
   xmlns:svg="http://www.w3.org/2000/svg"
   xmlns="http://www.w3.org/2000/svg"
   xmlns:sodipodi="http://sodipodi.sourceforge.net/DTD/sodipodi-0.dtd"
   xmlns:inkscape="http://www.inkscape.org/namespaces/inkscape"
   width="110.0"
   height="25.9807621135"
   viewBox="0 0 110.0 25.9807621135"
   id="svg2"
   version="1.1"
   inkscape:version="0.48.2 r9819"
   sodipodi:docname="one-sided-tritrigs-chevron-8x1.svg"
   inkscape:export-filename="/home/david/docs/puzzles/g4g10/one-sided-tritrigs-chevron-8x1.png"
   inkscape:export-xdpi="1066.9399"
   inkscape:export-ydpi="1066.9399">
  <metadata
     id="metadata86">
    <rdf:RDF>
      <cc:Work
         rdf:about="">
        <dc:format>image/svg+xml</dc:format>
        <dc:type
           rdf:resource="http://purl.org/dc/dcmitype/StillImage" />
        <dc:title></dc:title>
      </cc:Work>
    </rdf:RDF>
  </metadata>
  <defs
     id="defs84" />
  <sodipodi:namedview
     pagecolor="#ffffff"
     bordercolor="#666666"
     borderopacity="1"
     objecttolerance="10"
     gridtolerance="10"
     guidetolerance="10"
     inkscape:pageopacity="0"
     inkscape:pageshadow="2"
     inkscape:window-width="1920"
     inkscape:window-height="1056"
     id="namedview82"
     showgrid="false"
     inkscape:zoom="14.897015"
     inkscape:cx="62.848422"
     inkscape:cy="19.980131"
     inkscape:window-x="0"
     inkscape:window-y="24"
     inkscape:window-maximized="1"
     inkscape:current-layer="svg2" />
  <path
     style="fill:none;stroke:#ffd700;stroke-width:1.60000002;stroke-linecap:round"
     inkscape:connector-curvature="0"
     id="path6"
     d="m 87.6,21.651 4.2,0 m 4.8,-2.772 a 5.543,5.543 0 0 1 -4.8,2.771 m 4.8,-2.771 1.8,-3.118 m 0,-5.542 a 5.543,5.543 0 0 1 0,5.543 m 0,-5.543 -2.1,-3.637">
    <desc
       id="desc8">C3</desc>
  </path>
  <path
     style="fill:none;stroke:#800000;stroke-width:1.60000002;stroke-linecap:round"
     inkscape:connector-curvature="0"
     id="path10"
     d="m 17.6,21.651 4.4,0 m 1.5,-2.598 A 1.732,1.732 0 0 1 22,21.651 m 1.5,-2.598 -2.2,-3.811 m 5.2,3.811 a 1.732,1.732 0 0 1 -3,0 m 3,0 2.2,-3.811 m -2.1,3.637 a 5.543,5.543 0 0 1 -4.8,2.771">
    <desc
       id="desc12">E3</desc>
  </path>
  <path
     style="fill:none;stroke:#0000ff;stroke-width:1.60000002;stroke-linecap:round"
     inkscape:connector-curvature="0"
     id="path14"
     d="m 67.6,4.33 7.4,0 m 0,0 10,0 m 0,0 7.4,0">
    <desc
       id="desc16">I3</desc>
  </path>
  <path
     style="fill:none;stroke:#8a2be2;stroke-width:1.60000002;stroke-linecap:round"
     inkscape:connector-curvature="0"
     id="path18"
     d="m 37.6,21.651 7.4,0 m 0,0 7,0 m 1.5,-2.598 A 1.732,1.732 0 0 1 52,21.651 m 1.5,-2.598 -2.2,-3.811">
    <desc
       id="desc20">J3</desc>
  </path>
  <path
     style="fill:none;stroke:#00ff00;stroke-width:1.60000002;stroke-linecap:round"
     inkscape:connector-curvature="0"
     id="path22"
     d="m 32.6,12.99 7.4,0 m 0,0 6.8,0 m 4.8,-2.771 a 5.543,5.543 0 0 1 -4.8,2.771 m 4.8,-2.771 2.1,-3.637">
    <desc
       id="desc24">L3</desc>
  </path>
  <path
     style="fill:none;stroke:#ff0000;stroke-width:1.60000002;stroke-linecap:round"
     inkscape:connector-curvature="0"
     id="path26"
     d="M 36.5,6.928 A 1.732,1.732 0 0 1 38,4.33 m 0,0 4,0 m -3.5,6.062 -2,-3.464 m 5,3.464 a 1.732,1.732 0 0 1 -3,0 m 3,0 2,-3.464 M 42,4.33 a 1.732,1.732 0 0 1 1.5,2.598">
    <desc
       id="desc28">O3</desc>
  </path>
  <path
     style="fill:none;stroke:#ff00ff;stroke-width:1.60000002;stroke-linecap:round"
     inkscape:connector-curvature="0"
     id="path30"
     d="m 27.6,21.651 4.2,0 m 4.8,-2.772 a 5.543,5.543 0 0 1 -4.8,2.771 m 4.8,-2.771 1.9,-3.291 m 0,0 a 1.732,1.732 0 0 1 3,0 m 2.2,3.811 -2.2,-3.811">
    <desc
       id="desc32">P3</desc>
  </path>
  <path
     style="fill:none;stroke:#000080;stroke-width:1.60000002;stroke-linecap:round"
     inkscape:connector-curvature="0"
     id="path34"
     d="M 78.4,10.219 76.3,6.582 m 6.9,6.408 a 5.543,5.543 0 0 1 -4.8,-2.771 m 4.8,2.771 3.6,0 m 0,0 a 5.543,5.543 0 0 1 4.8,2.771 m 2.1,3.638 -2.1,-3.637">
    <desc
       id="desc36">S3</desc>
  </path>
  <path
     style="fill:none;stroke:#ff8c00;stroke-width:1.60000002;stroke-linecap:round"
     inkscape:connector-curvature="0"
     id="path38"
     d="M 16.3,19.399 20,12.99 m -1.6,-2.771 a 5.543,5.543 0 0 1 0,5.543 m 0.1,-5.37 -2.2,-3.811 M 20,12.99 23.7,6.581 m -2.2,3.811 a 1.732,1.732 0 0 1 -3,0">
    <desc
       id="desc40">T3</desc>
  </path>
  <path
     style="fill:#0000ff;stroke:#bf1f2f;stroke-width:1.60000001999999997;stroke-linecap:round"
     inkscape:connector-curvature="0"
     id="path42"
     d="M 46.5,6.928 A 1.732,1.732 0 0 1 48,4.33 m 0,0 3.8,0 M 48.7,10.739 46.5,6.928 M 51.8,4.33 a 5.543,5.543 0 0 1 4.8,2.771 m 2.1,3.638 -2.1,-3.637">
    <desc
       id="desc44">U3</desc>
  </path>
  <path
     style="fill:none;stroke:#008000;stroke-width:1.60000002;stroke-linecap:round"
     inkscape:connector-curvature="0"
     id="path46"
     d="m 22.6,12.99 4.2,0 m 0,0 a 5.543,5.543 0 0 1 4.8,2.771 m 0,-5.542 a 5.543,5.543 0 0 1 -4.8,2.771 m 4.8,-2.771 2.1,-3.637 m -2.1,9.18 a 5.543,5.543 0 0 1 0,-5.543 m 2.1,9.18 -2.1,-3.637">
    <desc
       id="desc48">Y3</desc>
  </path>
  <path
     style="fill:none;stroke:#dda0dd;stroke-width:1.60000002;stroke-linecap:round"
     inkscape:connector-curvature="0"
     id="path50"
     d="m 63.5,19.053 -2.2,-3.811 m 5.2,3.811 a 1.732,1.732 0 0 1 -3,0 m 3,0 2,-3.464 m 0,-0.001 a 1.732,1.732 0 0 1 3,0 m 2.2,3.811 -2.2,-3.811">
    <desc
       id="desc52">Z3</desc>
  </path>
  <path
     style="fill:none;stroke:#8a2be2;stroke-width:1.60000002;stroke-linecap:round"
     inkscape:connector-curvature="0"
     id="path54"
     d="m 56.5,19.053 2.2,-3.811 M 58,21.651 a 1.732,1.732 0 0 1 -1.5,-2.598 m 1.5,2.598 7,0 m 0,0 7.4,0">
    <desc
       id="desc56">j3</desc>
  </path>
  <path
     style="fill:none;stroke:#00ff00;stroke-width:1.60000002;stroke-linecap:round"
     inkscape:connector-curvature="0"
     id="path58"
     d="m 62.6,12.99 7.4,0 m 0,0 6.8,0 m 0,0 a 5.543,5.543 0 0 1 4.8,2.771 m 2.1,3.638 -2.1,-3.637">
    <desc
       id="desc60">l3</desc>
  </path>
  <path
     style="fill:none;stroke:#ff00ff;stroke-width:1.60000002;stroke-linecap:round"
     inkscape:connector-curvature="0"
     id="path62"
     d="m 57.6,4.33 4.2,0 m 0,0 a 5.543,5.543 0 0 1 4.8,2.771 m 1.9,3.291 -1.9,-3.291 m 4.9,3.291 a 1.732,1.732 0 0 1 -3,0 m 3,0 2.2,-3.811">
    <desc
       id="desc64">p3</desc>
  </path>
  <path
     style="fill:none;stroke:#000080;stroke-width:1.60000002;stroke-linecap:round"
     inkscape:connector-curvature="0"
     id="path66"
     d="m 46.3,19.399 2.1,-3.637 m 0,0 a 5.543,5.543 0 0 1 4.8,-2.771 m 0,-10e-4 3.6,0 m 4.8,-2.771 a 5.543,5.543 0 0 1 -4.8,2.771 m 4.8,-2.771 2.1,-3.637">
    <desc
       id="desc68">s3</desc>
  </path>
  <path
     style="fill:none;stroke:#ff8c00;stroke-width:1.60000002;stroke-linecap:round"
     inkscape:connector-curvature="0"
     id="path70"
     d="m 17.6,4.33 7.4,0 m -3.2,0 a 5.543,5.543 0 0 1 4.8,2.771 M 25,4.33 l 7.4,0 M 26.5,6.928 A 1.732,1.732 0 0 1 28,4.33 m 0.7,6.409 -2.2,-3.811">
    <desc
       id="desc72">t3</desc>
  </path>
  <path
     style="fill:none;stroke:#40e0d0;stroke-width:1.60000002;stroke-linecap:round"
     inkscape:connector-curvature="0"
     id="path74"
     d="m 76.5,19.053 2.2,-3.811 M 78,21.651 a 1.732,1.732 0 0 1 -1.5,-2.598 m 1.5,2.598 3.8,0 m 4.8,-2.772 a 5.543,5.543 0 0 1 -4.8,2.771 m 4.8,-2.771 2.1,-3.637">
    <desc
       id="desc76">u3</desc>
  </path>
  <path
     style="fill:none;stroke:#dda0dd;stroke-width:1.60000002;stroke-linecap:round"
     inkscape:connector-curvature="0"
     id="path78"
     d="m 81.3,10.739 2.2,-3.811 m 0,0 a 1.732,1.732 0 0 1 3,0 m 2,3.464 -2,-3.464 m 5,3.464 a 1.732,1.732 0 0 1 -3,0 m 3,0 2.2,-3.811">
    <desc
       id="desc80">z3</desc>
  </path>
  <path
     style="fill:#000000;fill-opacity:0.25114154;stroke:none"
     d="M 13.21875 1.28125 L 13.21875 24.4375 L 101.375 24.4375 L 101.375 1.28125 L 13.21875 1.28125 z M 70 7.3125 C 72.965882 7.3125 75.375 9.7216169 75.375 12.6875 C 75.375 15.653381 72.965882 18.0625 70 18.0625 C 67.034119 18.0625 64.65625 15.653381 64.65625 12.6875 C 64.65625 9.7216169 67.034119 7.3125 70 7.3125 z M 49.875 7.53125 C 52.840882 7.53125 55.25 9.9403676 55.25 12.90625 C 55.25 15.872131 52.840882 18.25 49.875 18.25 C 46.909119 18.25 44.5 15.872131 44.5 12.90625 C 44.5 9.9403676 46.909119 7.53125 49.875 7.53125 z "
     id="rect3888" />
</svg>
