<?xml version="1.0" encoding="UTF-8" standalone="no"?>
<!-- Created by Polyform Puzzler (http://puzzler.sourceforge.net/) -->

<svg
   xmlns:dc="http://purl.org/dc/elements/1.1/"
   xmlns:cc="http://creativecommons.org/ns#"
   xmlns:rdf="http://www.w3.org/1999/02/22-rdf-syntax-ns#"
   xmlns:svg="http://www.w3.org/2000/svg"
   xmlns="http://www.w3.org/2000/svg"
   xmlns:sodipodi="http://sodipodi.sourceforge.net/DTD/sodipodi-0.dtd"
   xmlns:inkscape="http://www.inkscape.org/namespaces/inkscape"
   width="120"
   height="80"
   viewBox="0 0 120 80"
   id="svg2"
   version="1.1"
   inkscape:version="0.48.2 r9819"
   sodipodi:docname="pentominoes.svg"
   inkscape:export-filename="/home/david/docs/puzzles/g4g10/pentominoes.png"
   inkscape:export-xdpi="799.67212"
   inkscape:export-ydpi="799.67212">
  <metadata
     id="metadata58">
    <rdf:RDF>
      <cc:Work
         rdf:about="">
        <dc:format>image/svg+xml</dc:format>
        <dc:type
           rdf:resource="http://purl.org/dc/dcmitype/StillImage" />
        <dc:title></dc:title>
      </cc:Work>
    </rdf:RDF>
  </metadata>
  <defs
     id="defs56" />
  <sodipodi:namedview
     pagecolor="#ffffff"
     bordercolor="#666666"
     borderopacity="1"
     objecttolerance="10000"
     gridtolerance="10000"
     guidetolerance="10000"
     inkscape:pageopacity="0"
     inkscape:pageshadow="2"
     inkscape:window-width="1920"
     inkscape:window-height="1056"
     id="namedview54"
     showgrid="true"
     inkscape:snap-global="true"
     showguides="true"
     inkscape:zoom="7.614754"
     inkscape:cx="88.848018"
     inkscape:cy="22.892989"
     inkscape:window-x="0"
     inkscape:window-y="24"
     inkscape:window-maximized="1"
     inkscape:current-layer="svg2">
    <inkscape:grid
       type="xygrid"
       id="grid3827"
       empspacing="5"
       visible="true"
       enabled="true"
       snapvisiblegridlinesonly="false"
       spacingx="10px"
       spacingy="10px" />
  </sodipodi:namedview>
  <polygon
     style="fill:none;fill-opacity:1;stroke:#000000;stroke-opacity:1"
     id="polygon6"
     points="10,30 10,70 30,70 30,60 20,60 20,30 "
     transform="matrix(-1,0,0,1,120,-10)">
    <desc
       id="desc8">L</desc>
  </polygon>
  <polygon
     style="fill:none;fill-opacity:1;stroke:#000000;stroke-opacity:1"
     id="polygon10"
     points="50,60 50,50 40,50 40,40 30,40 30,50 20,50 20,60 30,60 30,70 40,70 40,60 "
     transform="translate(10,-20)">
    <desc
       id="desc12">X</desc>
  </polygon>
  <polygon
     style="fill:none;fill-opacity:1;stroke:#000000;stroke-opacity:1"
     id="polygon14"
     points="70,50 60,50 60,40 50,40 50,60 40,60 40,70 60,70 60,60 70,60 "
     transform="translate(-30,-10)">
    <desc
       id="desc16">F</desc>
  </polygon>
  <polygon
     style="fill:none;fill-opacity:1;stroke:#000000;stroke-opacity:1"
     id="polygon18"
     points="70,60 60,60 60,70 90,70 90,60 80,60 80,40 70,40 "
     transform="matrix(1,0,0,-1,0,80)">
    <desc
       id="desc20">T</desc>
  </polygon>
  <polygon
     style="fill:none;fill-opacity:1;stroke:#000000;stroke-opacity:1"
     id="polygon22"
     points="100,50 90,50 90,40 80,40 80,60 90,60 90,70 110,70 110,60 100,60 "
     transform="matrix(0,1,-1,0,150,-70)">
    <desc
       id="desc24">W</desc>
  </polygon>
  <polygon
     style="fill:none;fill-opacity:1;stroke:#000000;stroke-opacity:1"
     id="polygon26"
     points="100,60 110,60 110,40 100,40 100,20 90,20 90,50 100,50 "
     transform="matrix(0,-1,1,0,-10,160)">
    <desc
       id="desc28">N</desc>
  </polygon>
  <polygon
     style="fill:none;fill-opacity:1;stroke:#000000;stroke-opacity:1"
     id="polygon30"
     points="40,50 50,50 50,30 20,30 20,50 30,50 30,40 40,40 "
     transform="matrix(0,1,-1,0,100,0)">
    <desc
       id="desc32">U</desc>
  </polygon>
  <polygon
     style="fill:none;fill-opacity:1;stroke:#000000;stroke-opacity:1"
     id="polygon34"
     points="90,20 80,20 80,30 60,30 60,50 70,50 70,40 90,40 "
     transform="translate(10,10)">
    <desc
       id="desc36">Z</desc>
  </polygon>
  <polygon
     style="fill:none;fill-opacity:1;stroke:#000000;stroke-opacity:1"
     id="polygon38"
     points="40,20 40,30 50,30 50,40 60,40 60,30 80,30 80,20 "
     transform="matrix(1,0,0,-1,30,90)">
    <desc
       id="desc40">Y</desc>
  </polygon>
  <polygon
     style="fill:none;fill-opacity:1;stroke:#000000;stroke-opacity:1"
     id="polygon42"
     points="110,40 110,10 80,10 80,20 100,20 100,40 "
     transform="matrix(0,-1,1,0,0,130)">
    <desc
       id="desc44">V</desc>
  </polygon>
  <polygon
     style="fill:none;fill-opacity:1;stroke:#000000;stroke-opacity:1"
     id="polygon46"
     points="30,20 30,10 10,10 10,30 40,30 40,20 "
     transform="matrix(-1,0,0,1,80,40)">
    <desc
       id="desc48">P</desc>
  </polygon>
  <polygon
     style="fill:none;fill-opacity:1;stroke:#000000;stroke-opacity:1"
     id="polygon50"
     points="30,10 30,20 80,20 80,10 "
     transform="translate(-20,0)">
    <desc
       id="desc52">I</desc>
  </polygon>
</svg>
