<?xml version="1.0" standalone="no"?>
<!-- Created by Polyform Puzzler (http://puzzler.sourceforge.net/) -->
<svg width="90" height="90" viewBox="0 0 90 90"
     xmlns="http://www.w3.org/2000/svg"
     xmlns:xlink="http://www.w3.org/1999/xlink">
<g>
<path stroke="blue" stroke-width="2" stroke-linecap="round"
      d="M 12.000,80.000 l 36.000,0.000">
<desc>I</desc>
</path>
<path stroke="lime" stroke-width="2" stroke-linecap="round"
      d="M 10.000,78.000 l 0.000,-25.500 M 10.000,52.500 a 2.5,2.5 0 0,1 +2.5,-2.5 M 12.500,50.000 l 5.500,0.000">
<desc>L*</desc>
</path>
<path stroke="red" stroke-width="2" stroke-linecap="round"
      d="M 20.000,78.000 l 0.000,-16.000 M 17.500,70.000 a 2.5,2.5 0 0,0 +2.5,-2.5 M 12.000,70.000 l 16.000,0.000 M 20.000,72.500 a 2.5,2.5 0 0,0 -2.5,-2.5 M 20.000,72.500 a 2.5,2.5 0 0,1 +2.5,-2.5 M 22.500,70.000 a 2.5,2.5 0 0,1 -2.5,-2.5">
<desc>X</desc>
</path>
<path stroke="peru" stroke-width="2" stroke-linecap="round"
      d="M 22.500,50.000 l 5.500,0.000 M 17.500,60.000 a 2.5,2.5 0 0,0 +2.5,-2.5 M 12.000,60.000 l 16.000,0.000 M 20.000,52.500 a 2.5,2.5 0 0,1 +2.5,-2.5 M 20.000,57.500 l 0.000,-5.000 M 22.500,60.000 a 2.5,2.5 0 0,1 -2.5,-2.5">
<desc>H</desc>
</path>
<path stroke="green" stroke-width="2" stroke-linecap="round"
      d="M 12.500,40.000 l 15.500,0.000 M 20.000,42.500 a 2.5,2.5 0 0,0 -2.5,-2.5 M 20.000,42.500 a 2.5,2.5 0 0,1 +2.5,-2.5 M 20.000,48.000 l 0.000,-5.500 M 10.000,42.500 a 2.5,2.5 0 0,1 +2.5,-2.5 M 10.000,48.000 l 0.000,-5.500">
<desc>F*</desc>
</path>
<path stroke="peru" stroke-width="2" stroke-linecap="round"
      d="M 30.000,32.500 a 2.5,2.5 0 0,0 -2.5,-2.5 M 30.000,38.000 l 0.000,-16.000 M 27.500,30.000 a 2.5,2.5 0 0,0 +2.5,-2.5 M 22.500,30.000 l 5.000,0.000 M 20.000,32.500 a 2.5,2.5 0 0,1 +2.5,-2.5 M 20.000,38.000 l 0.000,-5.500">
<desc>H*</desc>
</path>
<path stroke="green" stroke-width="2" stroke-linecap="round"
      d="M 32.500,70.000 a 2.5,2.5 0 0,1 -2.5,-2.5 M 32.500,70.000 l 5.500,0.000 M 32.500,60.000 l 5.500,0.000 M 30.000,72.500 a 2.5,2.5 0 0,1 +2.5,-2.5 M 30.000,78.000 l 0.000,-15.500 M 30.000,62.500 a 2.5,2.5 0 0,1 +2.5,-2.5">
<desc>F</desc>
</path>
<path stroke="darkseagreen" stroke-width="2" stroke-linecap="round"
      d="M 30.000,58.000 l 0.000,-15.500 M 40.000,42.500 a 2.5,2.5 0 0,0 -2.5,-2.5 M 40.000,48.000 l 0.000,-5.500 M 30.000,42.500 a 2.5,2.5 0 0,1 +2.5,-2.5 M 32.500,40.000 l 5.000,0.000">
<desc>J*</desc>
</path>
<path stroke="lime" stroke-width="2" stroke-linecap="round"
      d="M 40.000,52.500 a 2.5,2.5 0 0,0 -2.5,-2.5 M 40.000,78.000 l 0.000,-25.500 M 32.000,50.000 l 5.500,0.000">
<desc>L</desc>
</path>
<path stroke="gold" stroke-width="2" stroke-linecap="round"
      d="M 32.000,30.000 l 26.000,0.000 M 50.000,32.500 a 2.5,2.5 0 0,0 -2.5,-2.5 M 50.000,32.500 a 2.5,2.5 0 0,1 +2.5,-2.5 M 50.000,38.000 l 0.000,-5.500">
<desc>Y*</desc>
</path>
<path stroke="rosybrown" stroke-width="2" stroke-linecap="round"
      d="M 47.500,20.000 a 2.5,2.5 0 0,0 +2.5,-2.5 M 32.000,20.000 l 15.500,0.000 M 40.000,22.500 a 2.5,2.5 0 0,0 -2.5,-2.5 M 40.000,22.500 a 2.5,2.5 0 0,1 +2.5,-2.5 M 40.000,28.000 l 0.000,-5.500 M 50.000,17.500 l 0.000,-5.500">
<desc>R</desc>
</path>
<path stroke="magenta" stroke-width="2" stroke-linecap="round"
      d="M 60.000,77.500 l 0.000,-5.500 M 42.000,70.000 l 5.500,0.000 M 50.000,72.500 a 2.5,2.5 0 0,0 -2.5,-2.5 M 50.000,77.500 l 0.000,-5.000 M 57.500,80.000 a 2.5,2.5 0 0,0 +2.5,-2.5 M 52.500,80.000 a 2.5,2.5 0 0,1 -2.5,-2.5 M 52.500,80.000 l 5.000,0.000">
<desc>P</desc>
</path>
<path stroke="navy" stroke-width="2" stroke-linecap="round"
      d="M 52.500,70.000 l 15.500,0.000 M 42.000,60.000 l 5.500,0.000 M 50.000,62.500 a 2.5,2.5 0 0,0 -2.5,-2.5 M 50.000,67.500 l 0.000,-5.000 M 52.500,70.000 a 2.5,2.5 0 0,1 -2.5,-2.5">
<desc>N*</desc>
</path>
<path stroke="maroon" stroke-width="2" stroke-linecap="round"
      d="M 50.000,52.500 a 2.5,2.5 0 0,0 -2.5,-2.5 M 50.000,57.500 l 0.000,-5.000 M 42.000,50.000 l 5.500,0.000 M 60.000,62.500 a 2.5,2.5 0 0,0 -2.5,-2.5 M 60.000,68.000 l 0.000,-5.500 M 52.500,60.000 a 2.5,2.5 0 0,1 -2.5,-2.5 M 52.500,60.000 l 5.000,0.000">
<desc>W</desc>
</path>
<path stroke="plum" stroke-width="2" stroke-linecap="round"
      d="M 42.500,40.000 l 15.000,0.000 M 42.500,40.000 a 2.5,2.5 0 0,1 -2.5,-2.5 M 60.000,42.500 a 2.5,2.5 0 0,0 -2.5,-2.5 M 60.000,48.000 l 0.000,-5.500 M 40.000,37.500 l 0.000,-5.500">
<desc>Z*</desc>
</path>
<path stroke="turquoise" stroke-width="2" stroke-linecap="round"
      d="M 42.500,10.000 l 15.000,0.000 M 60.000,12.500 a 2.5,2.5 0 0,0 -2.5,-2.5 M 60.000,18.000 l 0.000,-5.500 M 40.000,12.500 a 2.5,2.5 0 0,1 +2.5,-2.5 M 40.000,18.000 l 0.000,-5.500">
<desc>U</desc>
</path>
<path stroke="rosybrown" stroke-width="2" stroke-linecap="round"
      d="M 52.500,50.000 a 2.5,2.5 0 0,1 -2.5,-2.5 M 52.500,50.000 l 15.500,0.000 M 60.000,52.500 a 2.5,2.5 0 0,0 -2.5,-2.5 M 60.000,52.500 a 2.5,2.5 0 0,1 +2.5,-2.5 M 60.000,58.000 l 0.000,-5.500 M 50.000,47.500 l 0.000,-5.500">
<desc>R*</desc>
</path>
<path stroke="plum" stroke-width="2" stroke-linecap="round"
      d="M 50.000,22.500 a 2.5,2.5 0 0,1 +2.5,-2.5 M 50.000,28.000 l 0.000,-5.500 M 70.000,17.500 l 0.000,-5.500 M 52.500,20.000 l 15.000,0.000 M 67.500,20.000 a 2.5,2.5 0 0,0 +2.5,-2.5">
<desc>Z</desc>
</path>
<path stroke="darkseagreen" stroke-width="2" stroke-linecap="round"
      d="M 62.000,80.000 l 15.500,0.000 M 80.000,72.500 a 2.5,2.5 0 0,0 -2.5,-2.5 M 80.000,77.500 l 0.000,-5.000 M 72.000,70.000 l 5.500,0.000 M 77.500,80.000 a 2.5,2.5 0 0,0 +2.5,-2.5">
<desc>J</desc>
</path>
<path stroke="darkorange" stroke-width="2" stroke-linecap="round"
      d="M 70.000,78.000 l 0.000,-15.500 M 62.000,60.000 l 16.000,0.000 M 70.000,62.500 a 2.5,2.5 0 0,0 -2.5,-2.5 M 70.000,62.500 a 2.5,2.5 0 0,1 +2.5,-2.5">
<desc>T</desc>
</path>
<path stroke="navy" stroke-width="2" stroke-linecap="round"
      d="M 70.000,42.500 a 2.5,2.5 0 0,0 -2.5,-2.5 M 70.000,58.000 l 0.000,-15.500 M 60.000,37.500 l 0.000,-5.500 M 62.500,40.000 a 2.5,2.5 0 0,1 -2.5,-2.5 M 62.500,40.000 l 5.000,0.000">
<desc>N</desc>
</path>
<path stroke="magenta" stroke-width="2" stroke-linecap="round"
      d="M 60.000,27.500 l 0.000,-5.500 M 72.500,20.000 l 5.500,0.000 M 70.000,22.500 a 2.5,2.5 0 0,1 +2.5,-2.5 M 70.000,27.500 l 0.000,-5.000 M 67.500,30.000 a 2.5,2.5 0 0,0 +2.5,-2.5 M 62.500,30.000 a 2.5,2.5 0 0,1 -2.5,-2.5 M 62.500,30.000 l 5.000,0.000">
<desc>P*</desc>
</path>
<path stroke="blueviolet" stroke-width="2" stroke-linecap="round"
      d="M 62.000,10.000 l 15.500,0.000 M 80.000,12.500 a 2.5,2.5 0 0,0 -2.5,-2.5 M 80.000,28.000 l 0.000,-15.500">
<desc>V</desc>
</path>
<path stroke="gold" stroke-width="2" stroke-linecap="round"
      d="M 80.000,68.000 l 0.000,-26.000 M 77.500,50.000 a 2.5,2.5 0 0,0 +2.5,-2.5 M 72.000,50.000 l 5.500,0.000 M 80.000,52.500 a 2.5,2.5 0 0,0 -2.5,-2.5">
<desc>Y</desc>
</path>
<path stroke="yellowgreen" stroke-width="2" stroke-linecap="round"
      d="M 72.500,30.000 l 5.000,0.000 M 77.500,40.000 a 2.5,2.5 0 0,0 +2.5,-2.5 M 72.500,40.000 a 2.5,2.5 0 0,1 -2.5,-2.5 M 72.500,40.000 l 5.000,0.000 M 70.000,32.500 a 2.5,2.5 0 0,1 +2.5,-2.5 M 70.000,37.500 l 0.000,-5.000 M 80.000,32.500 a 2.5,2.5 0 0,0 -2.5,-2.5 M 80.000,37.500 l 0.000,-5.000">
<desc>O</desc>
</path>
</g>
</svg>
