<?xml version="1.0" standalone="no"?>
<!-- Created by Polyform Puzzler (http://puzzler.sourceforge.net/) -->
<svg width="60" height="60" viewBox="0 0 60 60"
     xmlns="http://www.w3.org/2000/svg"
     xmlns:xlink="http://www.w3.org/1999/xlink">
<g>
<path stroke="green" stroke-width="2" stroke-linecap="round"
      d="M 17.500,50.000 a 2.5,2.5 0 0,0 +2.5,-2.5 M 12.500,50.000 a 2.5,2.5 0 0,1 -2.5,-2.5 M 12.500,50.000 l 15.500,0.000 M 10.000,47.500 l 0.000,-5.500 M 20.000,47.500 l 0.000,-5.500 M 22.500,50.000 a 2.5,2.5 0 0,1 -2.5,-2.5">
<desc>F</desc>
</path>
<path stroke="peru" stroke-width="2" stroke-linecap="round"
      d="M 20.000,32.500 a 2.5,2.5 0 0,0 -2.5,-2.5 M 20.000,32.500 a 2.5,2.5 0 0,1 +2.5,-2.5 M 20.000,37.500 l 0.000,-5.000 M 17.500,40.000 a 2.5,2.5 0 0,0 +2.5,-2.5 M 12.000,40.000 l 5.500,0.000 M 12.000,30.000 l 16.000,0.000">
<desc>H</desc>
</path>
<path stroke="gold" stroke-width="2" stroke-linecap="round"
      d="M 10.000,38.000 l 0.000,-26.000 M 10.000,22.500 a 2.5,2.5 0 0,1 +2.5,-2.5 M 12.500,20.000 a 2.5,2.5 0 0,1 -2.5,-2.5 M 12.500,20.000 l 5.500,0.000">
<desc>Y*</desc>
</path>
<path stroke="rosybrown" stroke-width="2" stroke-linecap="round"
      d="M 22.500,20.000 a 2.5,2.5 0 0,1 -2.5,-2.5 M 22.500,20.000 l 5.500,0.000 M 20.000,12.500 a 2.5,2.5 0 0,0 -2.5,-2.5 M 20.000,28.000 l 0.000,-15.500 M 12.000,10.000 l 5.500,0.000 M 20.000,22.500 a 2.5,2.5 0 0,1 +2.5,-2.5">
<desc>R</desc>
</path>
<path stroke="red" stroke-width="2" stroke-linecap="round"
      d="M 32.500,40.000 a 2.5,2.5 0 0,1 -2.5,-2.5 M 22.000,40.000 l 16.000,0.000 M 30.000,48.000 l 0.000,-16.000 M 30.000,42.500 a 2.5,2.5 0 0,0 -2.5,-2.5 M 30.000,42.500 a 2.5,2.5 0 0,1 +2.5,-2.5 M 27.500,40.000 a 2.5,2.5 0 0,0 +2.5,-2.5">
<desc>X</desc>
</path>
<path stroke="darkorange" stroke-width="2" stroke-linecap="round"
      d="M 22.000,10.000 l 16.000,0.000 M 30.000,28.000 l 0.000,-15.500 M 30.000,12.500 a 2.5,2.5 0 0,0 -2.5,-2.5 M 30.000,12.500 a 2.5,2.5 0 0,1 +2.5,-2.5">
<desc>T</desc>
</path>
<path stroke="green" stroke-width="2" stroke-linecap="round"
      d="M 37.500,50.000 a 2.5,2.5 0 0,0 +2.5,-2.5 M 32.000,50.000 l 15.500,0.000 M 50.000,47.500 l 0.000,-5.500 M 47.500,50.000 a 2.5,2.5 0 0,0 +2.5,-2.5 M 42.500,50.000 a 2.5,2.5 0 0,1 -2.5,-2.5 M 40.000,47.500 l 0.000,-5.500">
<desc>F*</desc>
</path>
<path stroke="peru" stroke-width="2" stroke-linecap="round"
      d="M 32.000,30.000 l 16.000,0.000 M 42.500,40.000 a 2.5,2.5 0 0,1 -2.5,-2.5 M 42.500,40.000 l 5.500,0.000 M 40.000,32.500 a 2.5,2.5 0 0,0 -2.5,-2.5 M 40.000,32.500 a 2.5,2.5 0 0,1 +2.5,-2.5 M 40.000,37.500 l 0.000,-5.000">
<desc>H*</desc>
</path>
<path stroke="rosybrown" stroke-width="2" stroke-linecap="round"
      d="M 42.500,10.000 l 5.500,0.000 M 40.000,22.500 a 2.5,2.5 0 0,0 -2.5,-2.5 M 40.000,28.000 l 0.000,-15.500 M 40.000,12.500 a 2.5,2.5 0 0,1 +2.5,-2.5 M 37.500,20.000 a 2.5,2.5 0 0,0 +2.5,-2.5 M 32.000,20.000 l 5.500,0.000">
<desc>R*</desc>
</path>
<path stroke="gold" stroke-width="2" stroke-linecap="round"
      d="M 50.000,22.500 a 2.5,2.5 0 0,0 -2.5,-2.5 M 50.000,38.000 l 0.000,-26.000 M 47.500,20.000 a 2.5,2.5 0 0,0 +2.5,-2.5 M 42.000,20.000 l 5.500,0.000">
<desc>Y</desc>
</path>
</g>
</svg>
