<?xml version="1.0" standalone="no"?>
<!-- Created by Polyform Puzzler (http://puzzler.sourceforge.net/) -->
<svg width="220.000" height="220.000"
     viewBox="0 0 220.000 220.000"
     xmlns="http://www.w3.org/2000/svg"
     xmlns:xlink="http://www.w3.org/1999/xlink">
<g transform="translate(110.000,55.000) rotate(-45)">
<path stroke="orangered" stroke-width="2" stroke-linecap="round"
      fill="none" d="M 10.000,32.500 a 2.5,2.5 0 0,1 +2.5,-2.5 M 10.000,37.500 l 0.000,-5.000 M 12.500,30.000 l 5.500,0.000 M 12.500,40.000 a 2.5,2.5 0 0,1 -2.5,-2.5 M 12.500,40.000 l 5.500,0.000">
<desc>U3</desc>
</path>
<path stroke="lime" stroke-width="2" stroke-linecap="round"
      fill="none" d="M 20.000,47.500 l 0.000,-25.500 M 22.500,50.000 a 2.5,2.5 0 0,1 -2.5,-2.5 M 22.500,50.000 l 5.500,0.000">
<desc>L</desc>
</path>
<path stroke="plum" stroke-width="2" stroke-linecap="round"
      fill="none" d="M 30.000,57.500 l 0.000,-15.000 M 22.000,40.000 l 5.500,0.000 M 30.000,42.500 a 2.5,2.5 0 0,0 -2.5,-2.5 M 32.500,60.000 a 2.5,2.5 0 0,1 -2.5,-2.5 M 32.500,60.000 l 5.500,0.000">
<desc>Z</desc>
</path>
<path stroke="maroon" stroke-width="2" stroke-linecap="round"
      fill="none" d="M 40.000,42.500 a 2.5,2.5 0 0,0 -2.5,-2.5 M 40.000,48.000 l 0.000,-5.500 M 22.000,30.000 l 5.500,0.000 M 30.000,32.500 a 2.5,2.5 0 0,0 -2.5,-2.5 M 30.000,37.500 l 0.000,-5.000 M 32.500,40.000 a 2.5,2.5 0 0,1 -2.5,-2.5 M 32.500,40.000 l 5.000,0.000">
<desc>W</desc>
</path>
<path stroke="navy" stroke-width="2" stroke-linecap="round"
      fill="none" d="M 30.000,22.500 a 2.5,2.5 0 0,0 -2.5,-2.5 M 30.000,27.500 l 0.000,-5.000 M 32.500,30.000 a 2.5,2.5 0 0,1 -2.5,-2.5 M 32.500,30.000 l 15.500,0.000 M 22.000,20.000 l 5.500,0.000">
<desc>N</desc>
</path>
<path stroke="darkorange" stroke-width="2" stroke-linecap="round"
      fill="none" d="M 47.500,50.000 a 2.5,2.5 0 0,0 +2.5,-2.5 M 32.000,50.000 l 15.500,0.000 M 50.000,52.500 a 2.5,2.5 0 0,0 -2.5,-2.5 M 50.000,58.000 l 0.000,-16.000">
<desc>T</desc>
</path>
<path stroke="yellowgreen" stroke-width="2" stroke-linecap="round"
      fill="none" d="M 32.500,10.000 l 5.000,0.000 M 37.500,20.000 a 2.5,2.5 0 0,0 +2.5,-2.5 M 32.500,20.000 a 2.5,2.5 0 0,1 -2.5,-2.5 M 32.500,20.000 l 5.000,0.000 M 30.000,12.500 a 2.5,2.5 0 0,1 +2.5,-2.5 M 30.000,17.500 l 0.000,-5.000 M 40.000,12.500 a 2.5,2.5 0 0,0 -2.5,-2.5 M 40.000,17.500 l 0.000,-5.000">
<desc>O</desc>
</path>
<path stroke="blueviolet" stroke-width="2" stroke-linecap="round"
      fill="none" d="M 42.500,70.000 l 15.500,0.000 M 40.000,67.500 l 0.000,-15.500 M 42.500,70.000 a 2.5,2.5 0 0,1 -2.5,-2.5">
<desc>V</desc>
</path>
<path stroke="tan" stroke-width="2" stroke-linecap="round"
      fill="none" d="M 42.000,60.000 l 16.000,0.000 M 50.000,62.500 a 2.5,2.5 0 0,0 -2.5,-2.5 M 50.000,62.500 a 2.5,2.5 0 0,1 +2.5,-2.5 M 50.000,68.000 l 0.000,-5.500">
<desc>T3</desc>
</path>
<path stroke="teal" stroke-width="2" stroke-linecap="round"
      fill="none" d="M 42.500,40.000 a 2.5,2.5 0 0,1 -2.5,-2.5 M 42.500,40.000 l 15.500,0.000 M 40.000,37.500 l 0.000,-5.500">
<desc>L3</desc>
</path>
<path stroke="darkseagreen" stroke-width="2" stroke-linecap="round"
      fill="none" d="M 40.000,22.500 a 2.5,2.5 0 0,1 +2.5,-2.5 M 40.000,28.000 l 0.000,-5.500 M 50.000,22.500 a 2.5,2.5 0 0,0 -2.5,-2.5 M 50.000,38.000 l 0.000,-15.500 M 42.500,20.000 l 5.000,0.000">
<desc>J</desc>
</path>
<path stroke="turquoise" stroke-width="2" stroke-linecap="round"
      fill="none" d="M 50.000,77.500 l 0.000,-5.500 M 67.500,80.000 a 2.5,2.5 0 0,0 +2.5,-2.5 M 52.500,80.000 l 15.000,0.000 M 70.000,77.500 l 0.000,-5.500 M 52.500,80.000 a 2.5,2.5 0 0,1 -2.5,-2.5">
<desc>U</desc>
</path>
<path stroke="gold" stroke-width="2" stroke-linecap="round"
      fill="none" d="M 72.500,50.000 a 2.5,2.5 0 0,1 -2.5,-2.5 M 52.000,50.000 l 26.000,0.000 M 70.000,47.500 l 0.000,-5.500 M 67.500,50.000 a 2.5,2.5 0 0,0 +2.5,-2.5">
<desc>Y</desc>
</path>
<path stroke="rosybrown" stroke-width="2" stroke-linecap="round"
      fill="none" d="M 60.000,42.500 a 2.5,2.5 0 0,1 +2.5,-2.5 M 60.000,48.000 l 0.000,-15.500 M 52.000,30.000 l 5.500,0.000 M 60.000,32.500 a 2.5,2.5 0 0,0 -2.5,-2.5 M 62.500,40.000 a 2.5,2.5 0 0,1 -2.5,-2.5 M 62.500,40.000 l 5.500,0.000">
<desc>R</desc>
</path>
<path stroke="indigo" stroke-width="2" stroke-linecap="round"
      fill="none" d="M 70.000,92.500 a 2.5,2.5 0 0,0 -2.5,-2.5 M 70.000,98.000 l 0.000,-5.500 M 62.500,90.000 a 2.5,2.5 0 0,1 -2.5,-2.5 M 62.500,90.000 l 5.000,0.000 M 60.000,87.500 l 0.000,-5.500">
<desc>Z3</desc>
</path>
<path stroke="olive" stroke-width="2" stroke-linecap="round"
      fill="none" d="M 60.000,78.000 l 0.000,-26.000">
<desc>I3</desc>
</path>
<path stroke="blue" stroke-width="2" stroke-linecap="round"
      fill="none" d="M 62.000,70.000 l 36.000,0.000">
<desc>I</desc>
</path>
<path stroke="red" stroke-width="2" stroke-linecap="round"
      fill="none" d="M 70.000,68.000 l 0.000,-16.000 M 72.500,60.000 a 2.5,2.5 0 0,1 -2.5,-2.5 M 62.000,60.000 l 16.000,0.000 M 67.500,60.000 a 2.5,2.5 0 0,0 +2.5,-2.5 M 70.000,62.500 a 2.5,2.5 0 0,0 -2.5,-2.5 M 70.000,62.500 a 2.5,2.5 0 0,1 +2.5,-2.5">
<desc>X</desc>
</path>
<path stroke="steelblue" stroke-width="2" stroke-linecap="round"
      fill="none" d="M 72.000,100.000 l 6.000,0.000">
<desc>I1</desc>
</path>
<path stroke="magenta" stroke-width="2" stroke-linecap="round"
      fill="none" d="M 70.000,82.500 a 2.5,2.5 0 0,1 +2.5,-2.5 M 70.000,87.500 l 0.000,-5.000 M 72.500,90.000 a 2.5,2.5 0 0,1 -2.5,-2.5 M 72.500,90.000 l 5.500,0.000 M 77.500,80.000 a 2.5,2.5 0 0,0 +2.5,-2.5 M 72.500,80.000 l 5.000,0.000 M 80.000,77.500 l 0.000,-5.500">
<desc>P</desc>
</path>
<path stroke="peru" stroke-width="2" stroke-linecap="round"
      fill="none" d="M 90.000,87.500 l 0.000,-5.500 M 80.000,92.500 a 2.5,2.5 0 0,1 +2.5,-2.5 M 80.000,98.000 l 0.000,-16.000 M 87.500,90.000 a 2.5,2.5 0 0,0 +2.5,-2.5 M 82.500,90.000 a 2.5,2.5 0 0,1 -2.5,-2.5 M 82.500,90.000 l 5.000,0.000">
<desc>H</desc>
</path>
<path stroke="green" stroke-width="2" stroke-linecap="round"
      fill="none" d="M 87.500,80.000 a 2.5,2.5 0 0,0 +2.5,-2.5 M 82.000,80.000 l 15.500,0.000 M 97.500,80.000 a 2.5,2.5 0 0,0 +2.5,-2.5 M 92.500,80.000 a 2.5,2.5 0 0,1 -2.5,-2.5 M 90.000,77.500 l 0.000,-5.500 M 100.000,77.500 l 0.000,-5.500">
<desc>F</desc>
</path>
<path stroke="gray" stroke-width="2" stroke-linecap="round"
      fill="none" d="M 80.000,68.000 l 0.000,-16.000">
<desc>I2</desc>
</path>
<path stroke="lightcoral" stroke-width="2" stroke-linecap="round"
      fill="none" d="M 90.000,62.500 a 2.5,2.5 0 0,0 -2.5,-2.5 M 90.000,68.000 l 0.000,-5.500 M 82.000,60.000 l 5.500,0.000">
<desc>V2</desc>
</path>
</g>
</svg>
