<?xml version="1.0" standalone="no"?>
<!-- Created by Polyform Puzzler (http://puzzler.sourceforge.net/) -->
<svg width="50.000" height="50.000"
     viewBox="0 0 50.000 50.000"
     xmlns="http://www.w3.org/2000/svg"
     xmlns:xlink="http://www.w3.org/1999/xlink">
<g>
<path stroke="olive" stroke-width="2" stroke-linecap="round"
      fill="none" d="M 12.000,40.000 l 26.000,0.000">
<desc>I3</desc>
</path>
<path stroke="steelblue" stroke-width="2" stroke-linecap="round"
      fill="none" d="M 10.000,38.000 l 0.000,-6.000">
<desc>I1</desc>
</path>
<path stroke="tan" stroke-width="2" stroke-linecap="round"
      fill="none" d="M 20.000,38.000 l 0.000,-16.000 M 17.500,30.000 a 2.5,2.5 0 0,0 +2.5,-2.5 M 12.000,30.000 l 5.500,0.000 M 20.000,32.500 a 2.5,2.5 0 0,0 -2.5,-2.5">
<desc>T3</desc>
</path>
<path stroke="teal" stroke-width="2" stroke-linecap="round"
      fill="none" d="M 10.000,22.500 a 2.5,2.5 0 0,1 +2.5,-2.5 M 10.000,28.000 l 0.000,-5.500 M 12.500,20.000 l 15.500,0.000">
<desc>L3</desc>
</path>
<path stroke="indigo" stroke-width="2" stroke-linecap="round"
      fill="none" d="M 32.500,20.000 l 5.500,0.000 M 30.000,22.500 a 2.5,2.5 0 0,1 +2.5,-2.5 M 30.000,27.500 l 0.000,-5.000 M 27.500,30.000 a 2.5,2.5 0 0,0 +2.5,-2.5 M 22.000,30.000 l 5.500,0.000">
<desc>Z3</desc>
</path>
<path stroke="orangered" stroke-width="2" stroke-linecap="round"
      fill="none" d="M 22.500,10.000 l 5.000,0.000 M 30.000,12.500 a 2.5,2.5 0 0,0 -2.5,-2.5 M 30.000,18.000 l 0.000,-5.500 M 20.000,12.500 a 2.5,2.5 0 0,1 +2.5,-2.5 M 20.000,18.000 l 0.000,-5.500">
<desc>U3</desc>
</path>
<path stroke="lightcoral" stroke-width="2" stroke-linecap="round"
      fill="none" d="M 32.500,30.000 l 5.500,0.000 M 30.000,32.500 a 2.5,2.5 0 0,1 +2.5,-2.5 M 30.000,38.000 l 0.000,-5.500">
<desc>V2</desc>
</path>
<path stroke="gray" stroke-width="2" stroke-linecap="round"
      fill="none" d="M 40.000,38.000 l 0.000,-16.000">
<desc>I2</desc>
</path>
</g>
</svg>
