<?xml version="1.0" standalone="no"?>
<!-- Created by Polyform Puzzler (http://puzzler.sourceforge.net/) -->
<svg width="70.000" height="60.000"
     viewBox="0 0 70.000 60.000"
     xmlns="http://www.w3.org/2000/svg"
     xmlns:xlink="http://www.w3.org/1999/xlink">
<g>
<path stroke="blue" stroke-width="2" stroke-linecap="round"
      fill="none" d="M 52.500,30.000 l 5.000,0.000 M 50.000,47.500 l 0.000,-15.000 M 50.000,32.500 a 2.5,2.5 0 0,1 +2.5,-2.5 M 60.000,47.500 l 0.000,-15.000 M 60.000,32.500 a 2.5,2.5 0 0,0 -2.5,-2.5 M 57.500,50.000 a 2.5,2.5 0 0,0 +2.5,-2.5 M 52.500,50.000 a 2.5,2.5 0 0,1 -2.5,-2.5 M 52.500,50.000 l 5.000,0.000">
<desc>d0</desc>
</path>
<path stroke="lime" stroke-width="2" stroke-linecap="round"
      fill="none" d="M 30.000,47.500 l 0.000,-5.500 M 17.500,50.000 a 2.5,2.5 0 0,0 +2.5,-2.5 M 12.500,50.000 a 2.5,2.5 0 0,1 -2.5,-2.5 M 12.500,50.000 l 15.000,0.000 M 10.000,47.500 l 0.000,-5.500 M 20.000,47.500 l 0.000,-5.500 M 27.500,50.000 a 2.5,2.5 0 0,0 +2.5,-2.5 M 22.500,50.000 a 2.5,2.5 0 0,1 -2.5,-2.5">
<desc>d3</desc>
</path>
<path stroke="plum" stroke-width="2" stroke-linecap="round"
      fill="none" d="M 10.000,37.500 l 0.000,-5.500 M 30.000,32.500 a 2.5,2.5 0 0,0 -2.5,-2.5 M 30.000,37.500 l 0.000,-5.000 M 20.000,32.500 a 2.5,2.5 0 0,1 +2.5,-2.5 M 20.000,37.500 l 0.000,-5.000 M 27.500,40.000 a 2.5,2.5 0 0,0 +2.5,-2.5 M 22.500,40.000 a 2.5,2.5 0 0,1 -2.5,-2.5 M 12.500,40.000 l 15.000,0.000 M 22.500,30.000 l 5.000,0.000 M 17.500,40.000 a 2.5,2.5 0 0,0 +2.5,-2.5 M 12.500,40.000 a 2.5,2.5 0 0,1 -2.5,-2.5">
<desc>d9</desc>
</path>
<path stroke="blueviolet" stroke-width="2" stroke-linecap="round"
      fill="none" d="M 17.500,20.000 a 2.5,2.5 0 0,0 +2.5,-2.5 M 12.500,20.000 a 2.5,2.5 0 0,1 -2.5,-2.5 M 12.500,20.000 l 5.000,0.000 M 10.000,12.500 a 2.5,2.5 0 0,1 +2.5,-2.5 M 10.000,27.500 l 0.000,-15.000 M 10.000,22.500 a 2.5,2.5 0 0,1 +2.5,-2.5 M 12.500,10.000 l 5.000,0.000 M 17.500,30.000 a 2.5,2.5 0 0,0 +2.5,-2.5 M 12.500,30.000 a 2.5,2.5 0 0,1 -2.5,-2.5 M 12.500,30.000 l 5.000,0.000 M 20.000,12.500 a 2.5,2.5 0 0,0 -2.5,-2.5 M 20.000,27.500 l 0.000,-15.000 M 20.000,22.500 a 2.5,2.5 0 0,0 -2.5,-2.5">
<desc>d8</desc>
</path>
<path stroke="navy" stroke-width="2" stroke-linecap="round"
      fill="none" d="M 22.000,10.000 l 16.000,0.000 M 27.500,20.000 a 2.5,2.5 0 0,0 +2.5,-2.5 M 22.000,20.000 l 5.500,0.000 M 30.000,12.500 a 2.5,2.5 0 0,0 -2.5,-2.5 M 30.000,12.500 a 2.5,2.5 0 0,1 +2.5,-2.5 M 30.000,17.500 l 0.000,-5.000">
<desc>d4</desc>
</path>
<path stroke="red" stroke-width="2" stroke-linecap="round"
      fill="none" d="M 32.000,50.000 l 16.000,0.000">
<desc>d1</desc>
</path>
<path stroke="magenta" stroke-width="2" stroke-linecap="round"
      fill="none" d="M 37.500,40.000 a 2.5,2.5 0 0,0 +2.5,-2.5 M 32.000,40.000 l 5.500,0.000 M 32.500,30.000 a 2.5,2.5 0 0,1 -2.5,-2.5 M 32.500,30.000 l 5.000,0.000 M 30.000,22.500 a 2.5,2.5 0 0,1 +2.5,-2.5 M 30.000,27.500 l 0.000,-5.000 M 32.500,20.000 l 5.500,0.000 M 40.000,32.500 a 2.5,2.5 0 0,0 -2.5,-2.5 M 40.000,37.500 l 0.000,-5.000">
<desc>d5</desc>
</path>
<path stroke="turquoise" stroke-width="2" stroke-linecap="round"
      fill="none" d="M 40.000,42.500 a 2.5,2.5 0 0,1 +2.5,-2.5 M 40.000,48.000 l 0.000,-5.500 M 42.500,40.000 l 15.500,0.000">
<desc>d7</desc>
</path>
<path stroke="green" stroke-width="2" stroke-linecap="round"
      fill="none" d="M 50.000,22.500 a 2.5,2.5 0 0,1 +2.5,-2.5 M 50.000,27.500 l 0.000,-5.000 M 52.500,20.000 l 5.000,0.000 M 40.000,27.500 l 0.000,-5.500 M 47.500,30.000 a 2.5,2.5 0 0,0 +2.5,-2.5 M 42.500,30.000 a 2.5,2.5 0 0,1 -2.5,-2.5 M 42.500,30.000 l 5.000,0.000 M 60.000,22.500 a 2.5,2.5 0 0,0 -2.5,-2.5 M 60.000,28.000 l 0.000,-5.500">
<desc>d2</desc>
</path>
<path stroke="darkorange" stroke-width="2" stroke-linecap="round"
      fill="none" d="M 40.000,12.500 a 2.5,2.5 0 0,1 +2.5,-2.5 M 40.000,17.500 l 0.000,-5.000 M 60.000,12.500 a 2.5,2.5 0 0,0 -2.5,-2.5 M 60.000,18.000 l 0.000,-5.500 M 50.000,12.500 a 2.5,2.5 0 0,0 -2.5,-2.5 M 50.000,12.500 a 2.5,2.5 0 0,1 +2.5,-2.5 M 50.000,17.500 l 0.000,-5.000 M 47.500,20.000 a 2.5,2.5 0 0,0 +2.5,-2.5 M 42.500,20.000 a 2.5,2.5 0 0,1 -2.5,-2.5 M 42.500,20.000 l 5.000,0.000 M 42.500,10.000 l 15.000,0.000">
<desc>d6</desc>
</path>
</g>
</svg>
