<?xml version="1.0" standalone="no"?>
<!-- Created by Polyform Puzzler (http://puzzler.sourceforge.net/) -->
<svg width="100.000" height="80.000"
     viewBox="0 0 100.000 80.000"
     xmlns="http://www.w3.org/2000/svg"
     xmlns:xlink="http://www.w3.org/1999/xlink">
<g>
<path stroke="green" stroke-width="2" stroke-linecap="round"
      fill="none" d="M 12.500,40.000 a 2.5,2.5 0 0,1 -2.5,-2.5 M 12.500,40.000 l 5.500,0.000 M 10.000,47.500 l 0.000,-15.500 M 12.500,50.000 a 2.5,2.5 0 0,1 -2.5,-2.5 M 12.500,50.000 l 5.500,0.000 M 10.000,42.500 a 2.5,2.5 0 0,1 +2.5,-2.5">
<desc>F</desc>
</path>
<path stroke="lime" stroke-width="2" stroke-linecap="round"
      fill="none" d="M 12.000,30.000 l 25.500,0.000 M 40.000,32.500 a 2.5,2.5 0 0,0 -2.5,-2.5 M 40.000,38.000 l 0.000,-5.500">
<desc>L</desc>
</path>
<path stroke="navy" stroke-width="2" stroke-linecap="round"
      fill="none" d="M 37.500,60.000 a 2.5,2.5 0 0,0 +2.5,-2.5 M 22.000,60.000 l 15.500,0.000 M 42.500,50.000 l 5.500,0.000 M 40.000,52.500 a 2.5,2.5 0 0,1 +2.5,-2.5 M 40.000,57.500 l 0.000,-5.000">
<desc>N</desc>
</path>
<path stroke="gold" stroke-width="2" stroke-linecap="round"
      fill="none" d="M 20.000,58.000 l 0.000,-26.000 M 22.500,40.000 a 2.5,2.5 0 0,1 -2.5,-2.5 M 22.500,40.000 l 5.500,0.000 M 20.000,42.500 a 2.5,2.5 0 0,1 +2.5,-2.5">
<desc>Y</desc>
</path>
<path stroke="rosybrown" stroke-width="2" stroke-linecap="round"
      fill="none" d="M 37.500,50.000 a 2.5,2.5 0 0,0 +2.5,-2.5 M 22.000,50.000 l 15.500,0.000 M 40.000,47.500 l 0.000,-5.500 M 30.000,52.500 a 2.5,2.5 0 0,0 -2.5,-2.5 M 30.000,52.500 a 2.5,2.5 0 0,1 +2.5,-2.5 M 30.000,58.000 l 0.000,-5.500">
<desc>R</desc>
</path>
<path stroke="maroon" stroke-width="2" stroke-linecap="round"
      fill="none" d="M 27.500,20.000 a 2.5,2.5 0 0,0 +2.5,-2.5 M 22.500,20.000 l 5.000,0.000 M 32.500,10.000 l 5.500,0.000 M 30.000,12.500 a 2.5,2.5 0 0,1 +2.5,-2.5 M 30.000,17.500 l 0.000,-5.000 M 20.000,22.500 a 2.5,2.5 0 0,1 +2.5,-2.5 M 20.000,28.000 l 0.000,-5.500">
<desc>W</desc>
</path>
<path stroke="turquoise" stroke-width="2" stroke-linecap="round"
      fill="none" d="M 32.500,70.000 a 2.5,2.5 0 0,1 -2.5,-2.5 M 32.500,70.000 l 15.000,0.000 M 30.000,67.500 l 0.000,-5.500 M 50.000,67.500 l 0.000,-5.500 M 47.500,70.000 a 2.5,2.5 0 0,0 +2.5,-2.5">
<desc>U</desc>
</path>
<path stroke="darkorange" stroke-width="2" stroke-linecap="round"
      fill="none" d="M 30.000,42.500 a 2.5,2.5 0 0,1 +2.5,-2.5 M 30.000,48.000 l 0.000,-16.000 M 32.500,40.000 l 15.500,0.000 M 32.500,40.000 a 2.5,2.5 0 0,1 -2.5,-2.5">
<desc>T</desc>
</path>
<path stroke="magenta" stroke-width="2" stroke-linecap="round"
      fill="none" d="M 30.000,22.500 a 2.5,2.5 0 0,1 +2.5,-2.5 M 30.000,28.000 l 0.000,-5.500 M 40.000,22.500 a 2.5,2.5 0 0,0 -2.5,-2.5 M 40.000,27.500 l 0.000,-5.000 M 42.500,30.000 a 2.5,2.5 0 0,1 -2.5,-2.5 M 42.500,30.000 l 5.500,0.000 M 32.500,20.000 l 5.000,0.000">
<desc>P</desc>
</path>
<path stroke="plum" stroke-width="2" stroke-linecap="round"
      fill="none" d="M 60.000,57.500 l 0.000,-5.500 M 40.000,62.500 a 2.5,2.5 0 0,1 +2.5,-2.5 M 40.000,68.000 l 0.000,-5.500 M 57.500,60.000 a 2.5,2.5 0 0,0 +2.5,-2.5 M 42.500,60.000 l 15.000,0.000">
<desc>Z</desc>
</path>
<path stroke="yellowgreen" stroke-width="2" stroke-linecap="round"
      fill="none" d="M 42.500,10.000 l 5.000,0.000 M 47.500,20.000 a 2.5,2.5 0 0,0 +2.5,-2.5 M 42.500,20.000 a 2.5,2.5 0 0,1 -2.5,-2.5 M 42.500,20.000 l 5.000,0.000 M 40.000,12.500 a 2.5,2.5 0 0,1 +2.5,-2.5 M 40.000,17.500 l 0.000,-5.000 M 50.000,12.500 a 2.5,2.5 0 0,0 -2.5,-2.5 M 50.000,17.500 l 0.000,-5.000">
<desc>O</desc>
</path>
<path stroke="blue" stroke-width="2" stroke-linecap="round"
      fill="none" d="M 50.000,58.000 l 0.000,-36.000">
<desc>I</desc>
</path>
<path stroke="blueviolet" stroke-width="2" stroke-linecap="round"
      fill="none" d="M 70.000,47.500 l 0.000,-15.500 M 67.500,50.000 a 2.5,2.5 0 0,0 +2.5,-2.5 M 52.000,50.000 l 15.500,0.000">
<desc>V</desc>
</path>
<path stroke="red" stroke-width="2" stroke-linecap="round"
      fill="none" d="M 57.500,40.000 a 2.5,2.5 0 0,0 +2.5,-2.5 M 52.000,40.000 l 16.000,0.000 M 60.000,42.500 a 2.5,2.5 0 0,0 -2.5,-2.5 M 60.000,42.500 a 2.5,2.5 0 0,1 +2.5,-2.5 M 60.000,48.000 l 0.000,-16.000 M 62.500,40.000 a 2.5,2.5 0 0,1 -2.5,-2.5">
<desc>X</desc>
</path>
<path stroke="peru" stroke-width="2" stroke-linecap="round"
      fill="none" d="M 57.500,30.000 a 2.5,2.5 0 0,0 +2.5,-2.5 M 52.000,30.000 l 16.000,0.000 M 52.000,20.000 l 5.500,0.000 M 60.000,22.500 a 2.5,2.5 0 0,0 -2.5,-2.5 M 60.000,27.500 l 0.000,-5.000 M 62.500,30.000 a 2.5,2.5 0 0,1 -2.5,-2.5">
<desc>H</desc>
</path>
<path stroke="darkseagreen" stroke-width="2" stroke-linecap="round"
      fill="none" d="M 87.500,50.000 a 2.5,2.5 0 0,0 +2.5,-2.5 M 82.500,50.000 a 2.5,2.5 0 0,1 -2.5,-2.5 M 82.500,50.000 l 5.000,0.000 M 90.000,47.500 l 0.000,-15.500 M 80.000,47.500 l 0.000,-5.500">
<desc>J</desc>
</path>
</g>
</svg>
