<?xml version="1.0" standalone="no"?>
<!-- Created by Polyform Puzzler (http://puzzler.sourceforge.net/) -->
<svg width="90.000" height="70.000"
     viewBox="0 0 90.000 70.000"
     xmlns="http://www.w3.org/2000/svg"
     xmlns:xlink="http://www.w3.org/1999/xlink">
<g>
<path stroke="blue" stroke-width="2" stroke-linecap="round"
      fill="none" d="M 12.000,60.000 l 36.000,0.000">
<desc>I</desc>
</path>
<path stroke="lime" stroke-width="2" stroke-linecap="round"
      fill="none" d="M 10.000,58.000 l 0.000,-25.500 M 10.000,32.500 a 2.5,2.5 0 0,1 +2.5,-2.5 M 12.500,30.000 l 5.500,0.000">
<desc>L</desc>
</path>
<path stroke="red" stroke-width="2" stroke-linecap="round"
      fill="none" d="M 20.000,58.000 l 0.000,-16.000 M 17.500,50.000 a 2.5,2.5 0 0,0 +2.5,-2.5 M 12.000,50.000 l 16.000,0.000 M 20.000,52.500 a 2.5,2.5 0 0,0 -2.5,-2.5 M 20.000,52.500 a 2.5,2.5 0 0,1 +2.5,-2.5 M 22.500,50.000 a 2.5,2.5 0 0,1 -2.5,-2.5">
<desc>X</desc>
</path>
<path stroke="blueviolet" stroke-width="2" stroke-linecap="round"
      fill="none" d="M 12.000,40.000 l 15.500,0.000 M 30.000,58.000 l 0.000,-15.500 M 30.000,42.500 a 2.5,2.5 0 0,0 -2.5,-2.5">
<desc>V</desc>
</path>
<path stroke="peru" stroke-width="2" stroke-linecap="round"
      fill="none" d="M 20.000,22.500 a 2.5,2.5 0 0,0 -2.5,-2.5 M 20.000,28.000 l 0.000,-5.500 M 10.000,22.500 a 2.5,2.5 0 0,1 +2.5,-2.5 M 10.000,28.000 l 0.000,-16.000 M 12.500,20.000 a 2.5,2.5 0 0,1 -2.5,-2.5 M 12.500,20.000 l 5.000,0.000">
<desc>H</desc>
</path>
<path stroke="navy" stroke-width="2" stroke-linecap="round"
      fill="none" d="M 30.000,12.500 a 2.5,2.5 0 0,0 -2.5,-2.5 M 30.000,17.500 l 0.000,-5.000 M 12.000,10.000 l 15.500,0.000 M 32.500,20.000 a 2.5,2.5 0 0,1 -2.5,-2.5 M 32.500,20.000 l 5.500,0.000">
<desc>N</desc>
</path>
<path stroke="magenta" stroke-width="2" stroke-linecap="round"
      fill="none" d="M 22.500,30.000 l 5.000,0.000 M 30.000,32.500 a 2.5,2.5 0 0,0 -2.5,-2.5 M 30.000,37.500 l 0.000,-5.000 M 20.000,32.500 a 2.5,2.5 0 0,1 +2.5,-2.5 M 20.000,38.000 l 0.000,-5.500 M 32.500,40.000 a 2.5,2.5 0 0,1 -2.5,-2.5 M 32.500,40.000 l 5.500,0.000">
<desc>P</desc>
</path>
<path stroke="maroon" stroke-width="2" stroke-linecap="round"
      fill="none" d="M 22.500,20.000 a 2.5,2.5 0 0,1 -2.5,-2.5 M 22.500,20.000 l 5.000,0.000 M 30.000,22.500 a 2.5,2.5 0 0,0 -2.5,-2.5 M 30.000,27.500 l 0.000,-5.000 M 32.500,30.000 a 2.5,2.5 0 0,1 -2.5,-2.5 M 32.500,30.000 l 5.500,0.000 M 20.000,17.500 l 0.000,-5.500">
<desc>W</desc>
</path>
<path stroke="plum" stroke-width="2" stroke-linecap="round"
      fill="none" d="M 37.500,50.000 a 2.5,2.5 0 0,0 +2.5,-2.5 M 32.000,50.000 l 5.500,0.000 M 42.500,30.000 l 5.500,0.000 M 40.000,32.500 a 2.5,2.5 0 0,1 +2.5,-2.5 M 40.000,47.500 l 0.000,-15.000">
<desc>Z</desc>
</path>
<path stroke="darkorange" stroke-width="2" stroke-linecap="round"
      fill="none" d="M 32.000,10.000 l 16.000,0.000 M 40.000,28.000 l 0.000,-15.500 M 40.000,12.500 a 2.5,2.5 0 0,0 -2.5,-2.5 M 40.000,12.500 a 2.5,2.5 0 0,1 +2.5,-2.5">
<desc>T</desc>
</path>
<path stroke="rosybrown" stroke-width="2" stroke-linecap="round"
      fill="none" d="M 50.000,47.500 l 0.000,-5.500 M 40.000,52.500 a 2.5,2.5 0 0,1 +2.5,-2.5 M 40.000,58.000 l 0.000,-5.500 M 52.500,50.000 a 2.5,2.5 0 0,1 -2.5,-2.5 M 42.500,50.000 l 15.500,0.000 M 47.500,50.000 a 2.5,2.5 0 0,0 +2.5,-2.5">
<desc>R</desc>
</path>
<path stroke="turquoise" stroke-width="2" stroke-linecap="round"
      fill="none" d="M 50.000,37.500 l 0.000,-15.000 M 42.000,20.000 l 5.500,0.000 M 47.500,40.000 a 2.5,2.5 0 0,0 +2.5,-2.5 M 42.000,40.000 l 5.500,0.000 M 50.000,22.500 a 2.5,2.5 0 0,0 -2.5,-2.5">
<desc>U</desc>
</path>
<path stroke="darkseagreen" stroke-width="2" stroke-linecap="round"
      fill="none" d="M 60.000,57.500 l 0.000,-15.500 M 57.500,60.000 a 2.5,2.5 0 0,0 +2.5,-2.5 M 52.500,60.000 a 2.5,2.5 0 0,1 -2.5,-2.5 M 52.500,60.000 l 5.000,0.000 M 50.000,57.500 l 0.000,-5.500">
<desc>J</desc>
</path>
<path stroke="green" stroke-width="2" stroke-linecap="round"
      fill="none" d="M 57.500,30.000 a 2.5,2.5 0 0,0 +2.5,-2.5 M 52.000,30.000 l 5.500,0.000 M 60.000,32.500 a 2.5,2.5 0 0,0 -2.5,-2.5 M 60.000,37.500 l 0.000,-15.500 M 57.500,40.000 a 2.5,2.5 0 0,0 +2.5,-2.5 M 52.000,40.000 l 5.500,0.000">
<desc>F</desc>
</path>
<path stroke="yellowgreen" stroke-width="2" stroke-linecap="round"
      fill="none" d="M 57.500,20.000 a 2.5,2.5 0 0,0 +2.5,-2.5 M 52.500,20.000 a 2.5,2.5 0 0,1 -2.5,-2.5 M 52.500,20.000 l 5.000,0.000 M 52.500,10.000 l 5.000,0.000 M 60.000,12.500 a 2.5,2.5 0 0,0 -2.5,-2.5 M 60.000,17.500 l 0.000,-5.000 M 50.000,12.500 a 2.5,2.5 0 0,1 +2.5,-2.5 M 50.000,17.500 l 0.000,-5.000">
<desc>O</desc>
</path>
<path stroke="gold" stroke-width="2" stroke-linecap="round"
      fill="none" d="M 80.000,48.000 l 0.000,-26.000 M 77.500,30.000 a 2.5,2.5 0 0,0 +2.5,-2.5 M 72.000,30.000 l 5.500,0.000 M 80.000,32.500 a 2.5,2.5 0 0,0 -2.5,-2.5">
<desc>Y</desc>
</path>
</g>
</svg>
