<?xml version="1.0" standalone="no"?>
<!-- Created by Polyform Puzzler (http://puzzler.sourceforge.net/) -->
<svg width="425.000" height="251.147"
     viewBox="0 0 425.000 251.147"
     xmlns="http://www.w3.org/2000/svg"
     xmlns:xlink="http://www.w3.org/1999/xlink">
<g>
<path fill="lime" stroke="white" stroke-width="1"
    d="M 140.000,236.714 L 140.000,242.487 L 145.000,245.374 L 150.000,242.487 L 155.000,245.374 L 160.000,242.487 L 160.000,236.714 L 165.000,233.827 L 165.000,228.053 L 160.000,225.167 L 160.000,219.393 L 165.000,216.506 L 165.000,210.733 L 160.000,207.846 L 155.000,210.733 L 155.000,216.506 L 150.000,219.393 L 150.000,225.167 L 145.000,228.053 L 145.000,233.827 Z">
<desc>P06</desc>
</path>
<path fill="steelblue" stroke="white" stroke-width="1"
    d="M 160.000,236.714 L 160.000,242.487 L 165.000,245.374 L 170.000,242.487 L 175.000,245.374 L 180.000,242.487 L 185.000,245.374 L 190.000,242.487 L 190.000,236.714 L 195.000,233.827 L 195.000,228.053 L 190.000,225.167 L 185.000,228.053 L 180.000,225.167 L 180.000,219.393 L 175.000,216.506 L 170.000,219.393 L 170.000,225.167 L 175.000,228.053 L 175.000,233.827 L 170.000,236.714 L 165.000,233.827 Z">
<desc>A16</desc>
</path>
<path fill="lime" stroke="white" stroke-width="1"
    d="M 190.000,236.714 L 190.000,242.487 L 195.000,245.374 L 200.000,242.487 L 205.000,245.374 L 210.000,242.487 L 215.000,245.374 L 220.000,242.487 L 220.000,236.714 L 215.000,233.827 L 215.000,228.053 L 220.000,225.167 L 220.000,219.393 L 215.000,216.506 L 210.000,219.393 L 205.000,216.506 L 200.000,219.393 L 200.000,225.167 L 205.000,228.053 L 205.000,233.827 L 200.000,236.714 L 195.000,233.827 Z">
<desc>A26</desc>
</path>
<path fill="green" stroke="white" stroke-width="1"
    d="M 215.000,228.053 L 215.000,233.827 L 220.000,236.714 L 220.000,242.487 L 225.000,245.374 L 230.000,242.487 L 235.000,245.374 L 240.000,242.487 L 240.000,236.714 L 245.000,233.827 L 245.000,228.053 L 240.000,225.167 L 240.000,219.393 L 235.000,216.506 L 230.000,219.393 L 230.000,225.167 L 225.000,228.053 L 220.000,225.167 Z">
<desc>C06</desc>
</path>
<path fill="blue" stroke="white" stroke-width="1"
    d="M 240.000,236.714 L 240.000,242.487 L 245.000,245.374 L 250.000,242.487 L 255.000,245.374 L 260.000,242.487 L 260.000,236.714 L 255.000,233.827 L 255.000,228.053 L 260.000,225.167 L 265.000,228.053 L 265.000,233.827 L 270.000,236.714 L 275.000,233.827 L 275.000,228.053 L 270.000,225.167 L 270.000,219.393 L 265.000,216.506 L 260.000,219.393 L 255.000,216.506 L 250.000,219.393 L 250.000,225.167 L 245.000,228.053 L 245.000,233.827 Z">
<desc>C36</desc>
</path>
<path fill="peru" stroke="white" stroke-width="1"
    d="M 255.000,228.053 L 255.000,233.827 L 260.000,236.714 L 260.000,242.487 L 265.000,245.374 L 270.000,242.487 L 275.000,245.374 L 280.000,242.487 L 280.000,236.714 L 285.000,233.827 L 285.000,228.053 L 280.000,225.167 L 280.000,219.393 L 285.000,216.506 L 285.000,210.733 L 280.000,207.846 L 275.000,210.733 L 275.000,216.506 L 270.000,219.393 L 270.000,225.167 L 275.000,228.053 L 275.000,233.827 L 270.000,236.714 L 265.000,233.827 L 265.000,228.053 L 260.000,225.167 Z">
<desc>C76</desc>
</path>
<path fill="maroon" stroke="white" stroke-width="1"
    d="M 125.000,210.733 L 125.000,216.506 L 130.000,219.393 L 130.000,225.167 L 135.000,228.053 L 135.000,233.827 L 140.000,236.714 L 145.000,233.827 L 145.000,228.053 L 150.000,225.167 L 150.000,219.393 L 155.000,216.506 L 155.000,210.733 L 150.000,207.846 L 145.000,210.733 L 140.000,207.846 L 135.000,210.733 L 130.000,207.846 Z">
<desc>A06</desc>
</path>
<path fill="magenta" stroke="white" stroke-width="1"
    d="M 160.000,219.393 L 160.000,225.167 L 165.000,228.053 L 165.000,233.827 L 170.000,236.714 L 175.000,233.827 L 175.000,228.053 L 170.000,225.167 L 170.000,219.393 L 175.000,216.506 L 175.000,210.733 L 180.000,207.846 L 180.000,202.073 L 185.000,199.186 L 190.000,202.073 L 195.000,199.186 L 195.000,193.412 L 190.000,190.526 L 185.000,193.412 L 180.000,190.526 L 175.000,193.412 L 175.000,199.186 L 170.000,202.073 L 170.000,207.846 L 165.000,210.733 L 165.000,216.506 Z">
<desc>C16</desc>
</path>
<path fill="indigo" stroke="white" stroke-width="1"
    d="M 190.000,219.393 L 190.000,225.167 L 195.000,228.053 L 195.000,233.827 L 200.000,236.714 L 205.000,233.827 L 205.000,228.053 L 200.000,225.167 L 200.000,219.393 L 205.000,216.506 L 210.000,219.393 L 215.000,216.506 L 220.000,219.393 L 220.000,225.167 L 225.000,228.053 L 230.000,225.167 L 230.000,219.393 L 225.000,216.506 L 225.000,210.733 L 220.000,207.846 L 215.000,210.733 L 210.000,207.846 L 205.000,210.733 L 200.000,207.846 L 195.000,210.733 L 195.000,216.506 Z">
<desc>C26</desc>
</path>
<path fill="steelblue" stroke="white" stroke-width="1"
    d="M 175.000,210.733 L 175.000,216.506 L 180.000,219.393 L 180.000,225.167 L 185.000,228.053 L 190.000,225.167 L 190.000,219.393 L 195.000,216.506 L 195.000,210.733 L 200.000,207.846 L 205.000,210.733 L 210.000,207.846 L 210.000,202.073 L 205.000,199.186 L 200.000,202.073 L 195.000,199.186 L 190.000,202.073 L 185.000,199.186 L 180.000,202.073 L 180.000,207.846 Z">
<desc>W26</desc>
</path>
<path fill="navy" stroke="white" stroke-width="1"
    d="M 240.000,202.073 L 240.000,207.846 L 245.000,210.733 L 245.000,216.506 L 240.000,219.393 L 240.000,225.167 L 245.000,228.053 L 250.000,225.167 L 250.000,219.393 L 255.000,216.506 L 260.000,219.393 L 265.000,216.506 L 265.000,210.733 L 270.000,207.846 L 270.000,202.073 L 265.000,199.186 L 260.000,202.073 L 255.000,199.186 L 250.000,202.073 L 245.000,199.186 Z">
<desc>M26</desc>
</path>
<path fill="darkseagreen" stroke="white" stroke-width="1"
    d="M 265.000,210.733 L 265.000,216.506 L 270.000,219.393 L 275.000,216.506 L 275.000,210.733 L 280.000,207.846 L 285.000,210.733 L 285.000,216.506 L 280.000,219.393 L 280.000,225.167 L 285.000,228.053 L 290.000,225.167 L 290.000,219.393 L 295.000,216.506 L 295.000,210.733 L 290.000,207.846 L 290.000,202.073 L 285.000,199.186 L 285.000,193.412 L 280.000,190.526 L 275.000,193.412 L 275.000,199.186 L 270.000,202.073 L 270.000,207.846 Z">
<desc>C46</desc>
</path>
<path fill="olive" stroke="white" stroke-width="1"
    d="M 195.000,193.412 L 195.000,199.186 L 200.000,202.073 L 205.000,199.186 L 210.000,202.073 L 210.000,207.846 L 215.000,210.733 L 220.000,207.846 L 225.000,210.733 L 225.000,216.506 L 230.000,219.393 L 235.000,216.506 L 235.000,210.733 L 230.000,207.846 L 230.000,202.073 L 225.000,199.186 L 220.000,202.073 L 215.000,199.186 L 215.000,193.412 L 210.000,190.526 L 210.000,184.752 L 205.000,181.865 L 200.000,184.752 L 200.000,190.526 Z">
<desc>M06</desc>
</path>
<path fill="steelblue" stroke="white" stroke-width="1"
    d="M 230.000,202.073 L 230.000,207.846 L 235.000,210.733 L 235.000,216.506 L 240.000,219.393 L 245.000,216.506 L 245.000,210.733 L 240.000,207.846 L 240.000,202.073 L 245.000,199.186 L 250.000,202.073 L 255.000,199.186 L 260.000,202.073 L 265.000,199.186 L 270.000,202.073 L 275.000,199.186 L 275.000,193.412 L 270.000,190.526 L 265.000,193.412 L 260.000,190.526 L 255.000,193.412 L 250.000,190.526 L 245.000,193.412 L 240.000,190.526 L 235.000,193.412 L 235.000,199.186 Z">
<desc>J06</desc>
</path>
<path fill="magenta" stroke="white" stroke-width="1"
    d="M 100.000,167.432 L 100.000,173.205 L 105.000,176.092 L 105.000,181.865 L 110.000,184.752 L 110.000,190.526 L 115.000,193.412 L 115.000,199.186 L 120.000,202.073 L 120.000,207.846 L 125.000,210.733 L 130.000,207.846 L 130.000,202.073 L 135.000,199.186 L 135.000,193.412 L 130.000,190.526 L 125.000,193.412 L 120.000,190.526 L 120.000,184.752 L 115.000,181.865 L 115.000,176.092 L 110.000,173.205 L 110.000,167.432 L 105.000,164.545 Z">
<desc>P26</desc>
</path>
<path fill="green" stroke="white" stroke-width="1"
    d="M 110.000,167.432 L 110.000,173.205 L 115.000,176.092 L 115.000,181.865 L 120.000,184.752 L 120.000,190.526 L 125.000,193.412 L 130.000,190.526 L 135.000,193.412 L 135.000,199.186 L 130.000,202.073 L 130.000,207.846 L 135.000,210.733 L 140.000,207.846 L 140.000,202.073 L 145.000,199.186 L 145.000,193.412 L 140.000,190.526 L 140.000,184.752 L 135.000,181.865 L 130.000,184.752 L 125.000,181.865 L 125.000,176.092 L 120.000,173.205 L 120.000,167.432 L 115.000,164.545 Z">
<desc>P16</desc>
</path>
<path fill="indigo" stroke="white" stroke-width="1"
    d="M 140.000,184.752 L 140.000,190.526 L 145.000,193.412 L 145.000,199.186 L 140.000,202.073 L 140.000,207.846 L 145.000,210.733 L 150.000,207.846 L 155.000,210.733 L 160.000,207.846 L 165.000,210.733 L 170.000,207.846 L 170.000,202.073 L 175.000,199.186 L 175.000,193.412 L 170.000,190.526 L 165.000,193.412 L 165.000,199.186 L 160.000,202.073 L 155.000,199.186 L 155.000,193.412 L 150.000,190.526 L 150.000,184.752 L 145.000,181.865 Z">
<desc>J46</desc>
</path>
<path fill="darkorange" stroke="white" stroke-width="1"
    d="M 285.000,193.412 L 285.000,199.186 L 290.000,202.073 L 290.000,207.846 L 295.000,210.733 L 300.000,207.846 L 300.000,202.073 L 305.000,199.186 L 305.000,193.412 L 310.000,190.526 L 310.000,184.752 L 315.000,181.865 L 315.000,176.092 L 310.000,173.205 L 310.000,167.432 L 305.000,164.545 L 300.000,167.432 L 300.000,173.205 L 305.000,176.092 L 305.000,181.865 L 300.000,184.752 L 300.000,190.526 L 295.000,193.412 L 290.000,190.526 Z">
<desc>C56</desc>
</path>
<path fill="olive" stroke="white" stroke-width="1"
    d="M 125.000,176.092 L 125.000,181.865 L 130.000,184.752 L 135.000,181.865 L 140.000,184.752 L 145.000,181.865 L 150.000,184.752 L 150.000,190.526 L 155.000,193.412 L 155.000,199.186 L 160.000,202.073 L 165.000,199.186 L 165.000,193.412 L 160.000,190.526 L 160.000,184.752 L 155.000,181.865 L 155.000,176.092 L 150.000,173.205 L 145.000,176.092 L 140.000,173.205 L 140.000,167.432 L 135.000,164.545 L 130.000,167.432 L 130.000,173.205 Z">
<desc>Q16</desc>
</path>
<path fill="lime" stroke="white" stroke-width="1"
    d="M 210.000,184.752 L 210.000,190.526 L 215.000,193.412 L 215.000,199.186 L 220.000,202.073 L 225.000,199.186 L 230.000,202.073 L 235.000,199.186 L 235.000,193.412 L 240.000,190.526 L 240.000,184.752 L 235.000,181.865 L 230.000,184.752 L 230.000,190.526 L 225.000,193.412 L 220.000,190.526 L 220.000,184.752 L 225.000,181.865 L 225.000,176.092 L 230.000,173.205 L 230.000,167.432 L 225.000,164.545 L 220.000,167.432 L 220.000,173.205 L 215.000,176.092 L 215.000,181.865 Z">
<desc>J16</desc>
</path>
<path fill="maroon" stroke="white" stroke-width="1"
    d="M 160.000,184.752 L 160.000,190.526 L 165.000,193.412 L 170.000,190.526 L 175.000,193.412 L 180.000,190.526 L 185.000,193.412 L 190.000,190.526 L 195.000,193.412 L 200.000,190.526 L 200.000,184.752 L 205.000,181.865 L 210.000,184.752 L 215.000,181.865 L 215.000,176.092 L 210.000,173.205 L 205.000,176.092 L 200.000,173.205 L 195.000,176.092 L 195.000,181.865 L 190.000,184.752 L 185.000,181.865 L 180.000,184.752 L 175.000,181.865 L 170.000,184.752 L 165.000,181.865 Z">
<desc>N16</desc>
</path>
<path fill="navy" stroke="white" stroke-width="1"
    d="M 220.000,184.752 L 220.000,190.526 L 225.000,193.412 L 230.000,190.526 L 230.000,184.752 L 235.000,181.865 L 240.000,184.752 L 245.000,181.865 L 250.000,184.752 L 255.000,181.865 L 260.000,184.752 L 265.000,181.865 L 265.000,176.092 L 260.000,173.205 L 255.000,176.092 L 250.000,173.205 L 250.000,167.432 L 245.000,164.545 L 240.000,167.432 L 240.000,173.205 L 235.000,176.092 L 230.000,173.205 L 225.000,176.092 L 225.000,181.865 Z">
<desc>F16</desc>
</path>
<path fill="maroon" stroke="white" stroke-width="1"
    d="M 240.000,184.752 L 240.000,190.526 L 245.000,193.412 L 250.000,190.526 L 255.000,193.412 L 260.000,190.526 L 265.000,193.412 L 270.000,190.526 L 275.000,193.412 L 280.000,190.526 L 285.000,193.412 L 290.000,190.526 L 295.000,193.412 L 300.000,190.526 L 300.000,184.752 L 295.000,181.865 L 290.000,184.752 L 285.000,181.865 L 280.000,184.752 L 275.000,181.865 L 270.000,184.752 L 265.000,181.865 L 260.000,184.752 L 255.000,181.865 L 250.000,184.752 L 245.000,181.865 Z">
<desc>I06</desc>
</path>
<path fill="teal" stroke="white" stroke-width="1"
    d="M 125.000,158.771 L 125.000,164.545 L 130.000,167.432 L 135.000,164.545 L 140.000,167.432 L 140.000,173.205 L 145.000,176.092 L 150.000,173.205 L 155.000,176.092 L 155.000,181.865 L 160.000,184.752 L 165.000,181.865 L 165.000,176.092 L 160.000,173.205 L 160.000,167.432 L 155.000,164.545 L 150.000,167.432 L 145.000,164.545 L 145.000,158.771 L 150.000,155.885 L 150.000,150.111 L 145.000,147.224 L 140.000,150.111 L 140.000,155.885 L 135.000,158.771 L 130.000,155.885 Z">
<desc>M16</desc>
</path>
<path fill="olive" stroke="white" stroke-width="1"
    d="M 155.000,158.771 L 155.000,164.545 L 160.000,167.432 L 160.000,173.205 L 165.000,176.092 L 165.000,181.865 L 170.000,184.752 L 175.000,181.865 L 180.000,184.752 L 185.000,181.865 L 190.000,184.752 L 195.000,181.865 L 195.000,176.092 L 190.000,173.205 L 185.000,176.092 L 180.000,173.205 L 180.000,167.432 L 175.000,164.545 L 170.000,167.432 L 165.000,164.545 L 165.000,158.771 L 160.000,155.885 Z">
<desc>E06</desc>
</path>
<path fill="blueviolet" stroke="white" stroke-width="1"
    d="M 265.000,176.092 L 265.000,181.865 L 270.000,184.752 L 275.000,181.865 L 280.000,184.752 L 285.000,181.865 L 290.000,184.752 L 295.000,181.865 L 300.000,184.752 L 305.000,181.865 L 305.000,176.092 L 300.000,173.205 L 300.000,167.432 L 305.000,164.545 L 305.000,158.771 L 300.000,155.885 L 295.000,158.771 L 295.000,164.545 L 290.000,167.432 L 290.000,173.205 L 285.000,176.092 L 280.000,173.205 L 275.000,176.092 L 270.000,173.205 Z">
<desc>H06</desc>
</path>
<path fill="blue" stroke="white" stroke-width="1"
    d="M 95.000,158.771 L 95.000,164.545 L 100.000,167.432 L 105.000,164.545 L 110.000,167.432 L 115.000,164.545 L 120.000,167.432 L 120.000,173.205 L 125.000,176.092 L 130.000,173.205 L 130.000,167.432 L 125.000,164.545 L 125.000,158.771 L 130.000,155.885 L 130.000,150.111 L 125.000,147.224 L 120.000,150.111 L 120.000,155.885 L 115.000,158.771 L 110.000,155.885 L 110.000,150.111 L 105.000,147.224 L 100.000,150.111 L 100.000,155.885 Z">
<desc>K06</desc>
</path>
<path fill="darkseagreen" stroke="white" stroke-width="1"
    d="M 170.000,150.111 L 170.000,155.885 L 175.000,158.771 L 175.000,164.545 L 180.000,167.432 L 180.000,173.205 L 185.000,176.092 L 190.000,173.205 L 195.000,176.092 L 200.000,173.205 L 205.000,176.092 L 210.000,173.205 L 215.000,176.092 L 220.000,173.205 L 220.000,167.432 L 215.000,164.545 L 210.000,167.432 L 205.000,164.545 L 200.000,167.432 L 195.000,164.545 L 190.000,167.432 L 185.000,164.545 L 185.000,158.771 L 180.000,155.885 L 180.000,150.111 L 175.000,147.224 Z">
<desc>L06</desc>
</path>
<path fill="turquoise" stroke="white" stroke-width="1"
    d="M 230.000,167.432 L 230.000,173.205 L 235.000,176.092 L 240.000,173.205 L 240.000,167.432 L 245.000,164.545 L 250.000,167.432 L 255.000,164.545 L 260.000,167.432 L 265.000,164.545 L 265.000,158.771 L 260.000,155.885 L 260.000,150.111 L 265.000,147.224 L 265.000,141.451 L 260.000,138.564 L 255.000,141.451 L 255.000,147.224 L 250.000,150.111 L 250.000,155.885 L 245.000,158.771 L 240.000,155.885 L 235.000,158.771 L 235.000,164.545 Z">
<desc>H26</desc>
</path>
<path fill="teal" stroke="white" stroke-width="1"
    d="M 250.000,167.432 L 250.000,173.205 L 255.000,176.092 L 260.000,173.205 L 265.000,176.092 L 270.000,173.205 L 275.000,176.092 L 280.000,173.205 L 285.000,176.092 L 290.000,173.205 L 290.000,167.432 L 295.000,164.545 L 295.000,158.771 L 290.000,155.885 L 285.000,158.771 L 285.000,164.545 L 280.000,167.432 L 275.000,164.545 L 275.000,158.771 L 270.000,155.885 L 265.000,158.771 L 265.000,164.545 L 260.000,167.432 L 255.000,164.545 Z">
<desc>F06</desc>
</path>
<path fill="plum" stroke="white" stroke-width="1"
    d="M 275.000,158.771 L 275.000,164.545 L 280.000,167.432 L 285.000,164.545 L 285.000,158.771 L 290.000,155.885 L 295.000,158.771 L 300.000,155.885 L 305.000,158.771 L 305.000,164.545 L 310.000,167.432 L 310.000,173.205 L 315.000,176.092 L 320.000,173.205 L 320.000,167.432 L 315.000,164.545 L 315.000,158.771 L 310.000,155.885 L 310.000,150.111 L 305.000,147.224 L 300.000,150.111 L 295.000,147.224 L 290.000,150.111 L 285.000,147.224 L 280.000,150.111 L 280.000,155.885 Z">
<desc>C66</desc>
</path>
<path fill="red" stroke="white" stroke-width="1"
    d="M 140.000,132.791 L 140.000,138.564 L 145.000,141.451 L 145.000,147.224 L 150.000,150.111 L 150.000,155.885 L 145.000,158.771 L 145.000,164.545 L 150.000,167.432 L 155.000,164.545 L 155.000,158.771 L 160.000,155.885 L 165.000,158.771 L 165.000,164.545 L 170.000,167.432 L 175.000,164.545 L 175.000,158.771 L 170.000,155.885 L 170.000,150.111 L 165.000,147.224 L 160.000,150.111 L 155.000,147.224 L 155.000,141.451 L 150.000,138.564 L 150.000,132.791 L 145.000,129.904 Z">
<desc>H16</desc>
</path>
<path fill="navy" stroke="white" stroke-width="1"
    d="M 310.000,132.791 L 310.000,138.564 L 315.000,141.451 L 315.000,147.224 L 320.000,150.111 L 320.000,155.885 L 315.000,158.771 L 315.000,164.545 L 320.000,167.432 L 325.000,164.545 L 325.000,158.771 L 330.000,155.885 L 330.000,150.111 L 325.000,147.224 L 325.000,141.451 L 330.000,138.564 L 330.000,132.791 L 325.000,129.904 L 325.000,124.130 L 320.000,121.244 L 315.000,124.130 L 315.000,129.904 Z">
<desc>Q36</desc>
</path>
<path fill="teal" stroke="white" stroke-width="1"
    d="M 75.000,124.130 L 75.000,129.904 L 80.000,132.791 L 80.000,138.564 L 85.000,141.451 L 85.000,147.224 L 90.000,150.111 L 90.000,155.885 L 95.000,158.771 L 100.000,155.885 L 100.000,150.111 L 105.000,147.224 L 105.000,141.451 L 100.000,138.564 L 95.000,141.451 L 90.000,138.564 L 90.000,132.791 L 95.000,129.904 L 95.000,124.130 L 90.000,121.244 L 85.000,124.130 L 80.000,121.244 Z">
<desc>U16</desc>
</path>
<path fill="darkorange" stroke="white" stroke-width="1"
    d="M 90.000,115.470 L 90.000,121.244 L 95.000,124.130 L 95.000,129.904 L 90.000,132.791 L 90.000,138.564 L 95.000,141.451 L 100.000,138.564 L 105.000,141.451 L 105.000,147.224 L 110.000,150.111 L 110.000,155.885 L 115.000,158.771 L 120.000,155.885 L 120.000,150.111 L 115.000,147.224 L 115.000,141.451 L 110.000,138.564 L 110.000,132.791 L 105.000,129.904 L 105.000,124.130 L 100.000,121.244 L 100.000,115.470 L 95.000,112.583 Z">
<desc>P66</desc>
</path>
<path fill="darkorange" stroke="white" stroke-width="1"
    d="M 110.000,132.791 L 110.000,138.564 L 115.000,141.451 L 115.000,147.224 L 120.000,150.111 L 125.000,147.224 L 130.000,150.111 L 130.000,155.885 L 135.000,158.771 L 140.000,155.885 L 140.000,150.111 L 145.000,147.224 L 145.000,141.451 L 140.000,138.564 L 135.000,141.451 L 130.000,138.564 L 130.000,132.791 L 125.000,129.904 L 120.000,132.791 L 115.000,129.904 Z">
<desc>T56</desc>
</path>
<path fill="green" stroke="white" stroke-width="1"
    d="M 240.000,150.111 L 240.000,155.885 L 245.000,158.771 L 250.000,155.885 L 250.000,150.111 L 255.000,147.224 L 255.000,141.451 L 260.000,138.564 L 265.000,141.451 L 265.000,147.224 L 270.000,150.111 L 275.000,147.224 L 275.000,141.451 L 280.000,138.564 L 280.000,132.791 L 275.000,129.904 L 270.000,132.791 L 265.000,129.904 L 260.000,132.791 L 255.000,129.904 L 250.000,132.791 L 250.000,138.564 L 245.000,141.451 L 245.000,147.224 Z">
<desc>J26</desc>
</path>
<path fill="darkorange" stroke="white" stroke-width="1"
    d="M 260.000,150.111 L 260.000,155.885 L 265.000,158.771 L 270.000,155.885 L 275.000,158.771 L 280.000,155.885 L 280.000,150.111 L 285.000,147.224 L 285.000,141.451 L 290.000,138.564 L 290.000,132.791 L 295.000,129.904 L 295.000,124.130 L 300.000,121.244 L 300.000,115.470 L 295.000,112.583 L 290.000,115.470 L 290.000,121.244 L 285.000,124.130 L 285.000,129.904 L 280.000,132.791 L 280.000,138.564 L 275.000,141.451 L 275.000,147.224 L 270.000,150.111 L 265.000,147.224 Z">
<desc>L16</desc>
</path>
<path fill="lime" stroke="white" stroke-width="1"
    d="M 300.000,132.791 L 300.000,138.564 L 305.000,141.451 L 305.000,147.224 L 310.000,150.111 L 310.000,155.885 L 315.000,158.771 L 320.000,155.885 L 320.000,150.111 L 315.000,147.224 L 315.000,141.451 L 310.000,138.564 L 310.000,132.791 L 315.000,129.904 L 315.000,124.130 L 320.000,121.244 L 320.000,115.470 L 315.000,112.583 L 315.000,106.810 L 310.000,103.923 L 305.000,106.810 L 305.000,112.583 L 310.000,115.470 L 310.000,121.244 L 305.000,124.130 L 305.000,129.904 Z">
<desc>S36</desc>
</path>
<path fill="magenta" stroke="white" stroke-width="1"
    d="M 130.000,132.791 L 130.000,138.564 L 135.000,141.451 L 140.000,138.564 L 140.000,132.791 L 145.000,129.904 L 150.000,132.791 L 150.000,138.564 L 155.000,141.451 L 155.000,147.224 L 160.000,150.111 L 165.000,147.224 L 170.000,150.111 L 175.000,147.224 L 175.000,141.451 L 170.000,138.564 L 165.000,141.451 L 160.000,138.564 L 160.000,132.791 L 155.000,129.904 L 155.000,124.130 L 150.000,121.244 L 145.000,124.130 L 140.000,121.244 L 135.000,124.130 L 135.000,129.904 Z">
<desc>J36</desc>
</path>
<path fill="peru" stroke="white" stroke-width="1"
    d="M 285.000,141.451 L 285.000,147.224 L 290.000,150.111 L 295.000,147.224 L 300.000,150.111 L 305.000,147.224 L 305.000,141.451 L 300.000,138.564 L 300.000,132.791 L 305.000,129.904 L 305.000,124.130 L 310.000,121.244 L 310.000,115.470 L 305.000,112.583 L 305.000,106.810 L 300.000,103.923 L 295.000,106.810 L 295.000,112.583 L 300.000,115.470 L 300.000,121.244 L 295.000,124.130 L 295.000,129.904 L 290.000,132.791 L 290.000,138.564 Z">
<desc>Q06</desc>
</path>
<path fill="darkseagreen" stroke="white" stroke-width="1"
    d="M 315.000,106.810 L 315.000,112.583 L 320.000,115.470 L 320.000,121.244 L 325.000,124.130 L 325.000,129.904 L 330.000,132.791 L 330.000,138.564 L 325.000,141.451 L 325.000,147.224 L 330.000,150.111 L 335.000,147.224 L 335.000,141.451 L 340.000,138.564 L 340.000,132.791 L 345.000,129.904 L 345.000,124.130 L 340.000,121.244 L 335.000,124.130 L 330.000,121.244 L 330.000,115.470 L 325.000,112.583 L 325.000,106.810 L 320.000,103.923 Z">
<desc>T46</desc>
</path>
<path fill="plum" stroke="white" stroke-width="1"
    d="M 135.000,106.810 L 135.000,112.583 L 140.000,115.470 L 145.000,112.583 L 150.000,115.470 L 155.000,112.583 L 160.000,115.470 L 160.000,121.244 L 155.000,124.130 L 155.000,129.904 L 160.000,132.791 L 160.000,138.564 L 165.000,141.451 L 170.000,138.564 L 170.000,132.791 L 165.000,129.904 L 165.000,124.130 L 170.000,121.244 L 170.000,115.470 L 165.000,112.583 L 165.000,106.810 L 160.000,103.923 L 155.000,106.810 L 150.000,103.923 L 145.000,106.810 L 140.000,103.923 Z">
<desc>L26</desc>
</path>
<path fill="steelblue" stroke="white" stroke-width="1"
    d="M 195.000,124.130 L 195.000,129.904 L 200.000,132.791 L 200.000,138.564 L 205.000,141.451 L 210.000,138.564 L 215.000,141.451 L 220.000,138.564 L 220.000,132.791 L 225.000,129.904 L 225.000,124.130 L 220.000,121.244 L 220.000,115.470 L 215.000,112.583 L 210.000,115.470 L 205.000,112.583 L 200.000,115.470 L 200.000,121.244 Z M 205.000,124.130 L 210.000,121.244 L 215.000,124.130 L 215.000,129.904 L 210.000,132.791 L 205.000,129.904 Z">
<desc>O06</desc>
</path>
<path fill="turquoise" stroke="white" stroke-width="1"
    d="M 105.000,124.130 L 105.000,129.904 L 110.000,132.791 L 115.000,129.904 L 120.000,132.791 L 125.000,129.904 L 130.000,132.791 L 135.000,129.904 L 135.000,124.130 L 140.000,121.244 L 145.000,124.130 L 150.000,121.244 L 155.000,124.130 L 160.000,121.244 L 160.000,115.470 L 155.000,112.583 L 150.000,115.470 L 145.000,112.583 L 140.000,115.470 L 135.000,112.583 L 130.000,115.470 L 130.000,121.244 L 125.000,124.130 L 120.000,121.244 L 115.000,124.130 L 110.000,121.244 Z">
<desc>N06</desc>
</path>
<path fill="blue" stroke="white" stroke-width="1"
    d="M 250.000,115.470 L 250.000,121.244 L 255.000,124.130 L 255.000,129.904 L 260.000,132.791 L 265.000,129.904 L 270.000,132.791 L 275.000,129.904 L 280.000,132.791 L 285.000,129.904 L 285.000,124.130 L 290.000,121.244 L 290.000,115.470 L 285.000,112.583 L 280.000,115.470 L 275.000,112.583 L 270.000,115.470 L 270.000,121.244 L 265.000,124.130 L 260.000,121.244 L 260.000,115.470 L 255.000,112.583 Z">
<desc>T36</desc>
</path>
<path fill="red" stroke="white" stroke-width="1"
    d="M 80.000,115.470 L 80.000,121.244 L 85.000,124.130 L 90.000,121.244 L 90.000,115.470 L 95.000,112.583 L 100.000,115.470 L 105.000,112.583 L 105.000,106.810 L 110.000,103.923 L 115.000,106.810 L 120.000,103.923 L 120.000,98.150 L 125.000,95.263 L 125.000,89.489 L 120.000,86.603 L 115.000,89.489 L 115.000,95.263 L 110.000,98.150 L 105.000,95.263 L 100.000,98.150 L 100.000,103.923 L 95.000,106.810 L 90.000,103.923 L 85.000,106.810 L 85.000,112.583 Z">
<desc>M46</desc>
</path>
<path fill="blueviolet" stroke="white" stroke-width="1"
    d="M 100.000,115.470 L 100.000,121.244 L 105.000,124.130 L 110.000,121.244 L 115.000,124.130 L 120.000,121.244 L 125.000,124.130 L 130.000,121.244 L 130.000,115.470 L 135.000,112.583 L 135.000,106.810 L 130.000,103.923 L 125.000,106.810 L 120.000,103.923 L 115.000,106.810 L 110.000,103.923 L 105.000,106.810 L 105.000,112.583 Z">
<desc>M36</desc>
</path>
<path fill="navy" stroke="white" stroke-width="1"
    d="M 255.000,106.810 L 255.000,112.583 L 260.000,115.470 L 260.000,121.244 L 265.000,124.130 L 270.000,121.244 L 270.000,115.470 L 275.000,112.583 L 280.000,115.470 L 285.000,112.583 L 290.000,115.470 L 295.000,112.583 L 295.000,106.810 L 290.000,103.923 L 290.000,98.150 L 285.000,95.263 L 280.000,98.150 L 280.000,103.923 L 275.000,106.810 L 270.000,103.923 L 265.000,106.810 L 260.000,103.923 Z">
<desc>Z06</desc>
</path>
<path fill="maroon" stroke="white" stroke-width="1"
    d="M 295.000,89.489 L 295.000,95.263 L 300.000,98.150 L 305.000,95.263 L 310.000,98.150 L 310.000,103.923 L 315.000,106.810 L 320.000,103.923 L 325.000,106.810 L 325.000,112.583 L 330.000,115.470 L 330.000,121.244 L 335.000,124.130 L 340.000,121.244 L 340.000,115.470 L 335.000,112.583 L 335.000,106.810 L 330.000,103.923 L 330.000,98.150 L 325.000,95.263 L 320.000,98.150 L 315.000,95.263 L 315.000,89.489 L 310.000,86.603 L 305.000,89.489 L 300.000,86.603 Z">
<desc>W16</desc>
</path>
<path fill="magenta" stroke="white" stroke-width="1"
    d="M 140.000,98.150 L 140.000,103.923 L 145.000,106.810 L 150.000,103.923 L 155.000,106.810 L 160.000,103.923 L 165.000,106.810 L 165.000,112.583 L 170.000,115.470 L 175.000,112.583 L 175.000,106.810 L 180.000,103.923 L 180.000,98.150 L 175.000,95.263 L 175.000,89.489 L 170.000,86.603 L 165.000,89.489 L 165.000,95.263 L 160.000,98.150 L 155.000,95.263 L 150.000,98.150 L 145.000,95.263 Z">
<desc>T16</desc>
</path>
<path fill="plum" stroke="white" stroke-width="1"
    d="M 240.000,80.829 L 240.000,86.603 L 245.000,89.489 L 245.000,95.263 L 250.000,98.150 L 250.000,103.923 L 245.000,106.810 L 245.000,112.583 L 250.000,115.470 L 255.000,112.583 L 255.000,106.810 L 260.000,103.923 L 260.000,98.150 L 265.000,95.263 L 265.000,89.489 L 270.000,86.603 L 270.000,80.829 L 265.000,77.942 L 260.000,80.829 L 260.000,86.603 L 255.000,89.489 L 250.000,86.603 L 250.000,80.829 L 245.000,77.942 Z">
<desc>Y36</desc>
</path>
<path fill="steelblue" stroke="white" stroke-width="1"
    d="M 90.000,98.150 L 90.000,103.923 L 95.000,106.810 L 100.000,103.923 L 100.000,98.150 L 105.000,95.263 L 110.000,98.150 L 115.000,95.263 L 115.000,89.489 L 120.000,86.603 L 120.000,80.829 L 125.000,77.942 L 125.000,72.169 L 120.000,69.282 L 115.000,72.169 L 115.000,77.942 L 110.000,80.829 L 105.000,77.942 L 100.000,80.829 L 100.000,86.603 L 95.000,89.489 L 95.000,95.263 Z">
<desc>S26</desc>
</path>
<path fill="darkseagreen" stroke="white" stroke-width="1"
    d="M 120.000,98.150 L 120.000,103.923 L 125.000,106.810 L 130.000,103.923 L 135.000,106.810 L 140.000,103.923 L 140.000,98.150 L 145.000,95.263 L 150.000,98.150 L 155.000,95.263 L 160.000,98.150 L 165.000,95.263 L 165.000,89.489 L 160.000,86.603 L 155.000,89.489 L 150.000,86.603 L 145.000,89.489 L 140.000,86.603 L 135.000,89.489 L 130.000,86.603 L 125.000,89.489 L 125.000,95.263 Z">
<desc>P56</desc>
</path>
<path fill="darkseagreen" stroke="white" stroke-width="1"
    d="M 220.000,80.829 L 220.000,86.603 L 225.000,89.489 L 230.000,86.603 L 235.000,89.489 L 235.000,95.263 L 240.000,98.150 L 240.000,103.923 L 245.000,106.810 L 250.000,103.923 L 250.000,98.150 L 245.000,95.263 L 245.000,89.489 L 240.000,86.603 L 240.000,80.829 L 245.000,77.942 L 245.000,72.169 L 250.000,69.282 L 250.000,63.509 L 245.000,60.622 L 240.000,63.509 L 240.000,69.282 L 235.000,72.169 L 235.000,77.942 L 230.000,80.829 L 225.000,77.942 Z">
<desc>Y16</desc>
</path>
<path fill="olive" stroke="white" stroke-width="1"
    d="M 260.000,98.150 L 260.000,103.923 L 265.000,106.810 L 270.000,103.923 L 275.000,106.810 L 280.000,103.923 L 280.000,98.150 L 285.000,95.263 L 290.000,98.150 L 290.000,103.923 L 295.000,106.810 L 300.000,103.923 L 305.000,106.810 L 310.000,103.923 L 310.000,98.150 L 305.000,95.263 L 300.000,98.150 L 295.000,95.263 L 295.000,89.489 L 290.000,86.603 L 285.000,89.489 L 280.000,86.603 L 275.000,89.489 L 275.000,95.263 L 270.000,98.150 L 265.000,95.263 Z">
<desc>U06</desc>
</path>
<path fill="blue" stroke="white" stroke-width="1"
    d="M 175.000,89.489 L 175.000,95.263 L 180.000,98.150 L 185.000,95.263 L 185.000,89.489 L 190.000,86.603 L 195.000,89.489 L 200.000,86.603 L 205.000,89.489 L 210.000,86.603 L 210.000,80.829 L 205.000,77.942 L 205.000,72.169 L 200.000,69.282 L 200.000,63.509 L 195.000,60.622 L 190.000,63.509 L 190.000,69.282 L 195.000,72.169 L 195.000,77.942 L 190.000,80.829 L 185.000,77.942 L 180.000,80.829 L 180.000,86.603 Z">
<desc>P46</desc>
</path>
<path fill="blueviolet" stroke="white" stroke-width="1"
    d="M 255.000,72.169 L 255.000,77.942 L 260.000,80.829 L 265.000,77.942 L 270.000,80.829 L 270.000,86.603 L 265.000,89.489 L 265.000,95.263 L 270.000,98.150 L 275.000,95.263 L 275.000,89.489 L 280.000,86.603 L 280.000,80.829 L 275.000,77.942 L 275.000,72.169 L 280.000,69.282 L 285.000,72.169 L 290.000,69.282 L 290.000,63.509 L 285.000,60.622 L 280.000,63.509 L 275.000,60.622 L 270.000,63.509 L 270.000,69.282 L 265.000,72.169 L 260.000,69.282 Z">
<desc>R06</desc>
</path>
<path fill="maroon" stroke="white" stroke-width="1"
    d="M 275.000,72.169 L 275.000,77.942 L 280.000,80.829 L 280.000,86.603 L 285.000,89.489 L 290.000,86.603 L 295.000,89.489 L 300.000,86.603 L 305.000,89.489 L 310.000,86.603 L 315.000,89.489 L 315.000,95.263 L 320.000,98.150 L 325.000,95.263 L 325.000,89.489 L 320.000,86.603 L 320.000,80.829 L 315.000,77.942 L 310.000,80.829 L 305.000,77.942 L 300.000,80.829 L 295.000,77.942 L 290.000,80.829 L 285.000,77.942 L 285.000,72.169 L 280.000,69.282 Z">
<desc>S16</desc>
</path>
<path fill="plum" stroke="white" stroke-width="1"
    d="M 120.000,80.829 L 120.000,86.603 L 125.000,89.489 L 130.000,86.603 L 135.000,89.489 L 140.000,86.603 L 145.000,89.489 L 150.000,86.603 L 150.000,80.829 L 155.000,77.942 L 160.000,80.829 L 165.000,77.942 L 165.000,72.169 L 160.000,69.282 L 155.000,72.169 L 150.000,69.282 L 145.000,72.169 L 145.000,77.942 L 140.000,80.829 L 135.000,77.942 L 135.000,72.169 L 130.000,69.282 L 125.000,72.169 L 125.000,77.942 Z">
<desc>P76</desc>
</path>
<path fill="indigo" stroke="white" stroke-width="1"
    d="M 150.000,80.829 L 150.000,86.603 L 155.000,89.489 L 160.000,86.603 L 165.000,89.489 L 170.000,86.603 L 170.000,80.829 L 175.000,77.942 L 175.000,72.169 L 180.000,69.282 L 180.000,63.509 L 175.000,60.622 L 175.000,54.848 L 180.000,51.962 L 180.000,46.188 L 175.000,43.301 L 170.000,46.188 L 170.000,51.962 L 165.000,54.848 L 165.000,60.622 L 170.000,63.509 L 170.000,69.282 L 165.000,72.169 L 165.000,77.942 L 160.000,80.829 L 155.000,77.942 Z">
<desc>P36</desc>
</path>
<path fill="indigo" stroke="white" stroke-width="1"
    d="M 170.000,80.829 L 170.000,86.603 L 175.000,89.489 L 180.000,86.603 L 180.000,80.829 L 185.000,77.942 L 190.000,80.829 L 195.000,77.942 L 195.000,72.169 L 190.000,69.282 L 190.000,63.509 L 195.000,60.622 L 195.000,54.848 L 190.000,51.962 L 185.000,54.848 L 180.000,51.962 L 175.000,54.848 L 175.000,60.622 L 180.000,63.509 L 180.000,69.282 L 175.000,72.169 L 175.000,77.942 Z">
<desc>X26</desc>
</path>
<path fill="blue" stroke="white" stroke-width="1"
    d="M 210.000,63.509 L 210.000,69.282 L 215.000,72.169 L 215.000,77.942 L 210.000,80.829 L 210.000,86.603 L 215.000,89.489 L 220.000,86.603 L 220.000,80.829 L 225.000,77.942 L 230.000,80.829 L 235.000,77.942 L 235.000,72.169 L 240.000,69.282 L 240.000,63.509 L 235.000,60.622 L 230.000,63.509 L 230.000,69.282 L 225.000,72.169 L 220.000,69.282 L 220.000,63.509 L 225.000,60.622 L 225.000,54.848 L 220.000,51.962 L 215.000,54.848 L 215.000,60.622 Z">
<desc>Y06</desc>
</path>
<path fill="green" stroke="white" stroke-width="1"
    d="M 245.000,54.848 L 245.000,60.622 L 250.000,63.509 L 250.000,69.282 L 245.000,72.169 L 245.000,77.942 L 250.000,80.829 L 250.000,86.603 L 255.000,89.489 L 260.000,86.603 L 260.000,80.829 L 255.000,77.942 L 255.000,72.169 L 260.000,69.282 L 265.000,72.169 L 270.000,69.282 L 270.000,63.509 L 265.000,60.622 L 260.000,63.509 L 255.000,60.622 L 255.000,54.848 L 260.000,51.962 L 260.000,46.188 L 255.000,43.301 L 250.000,46.188 L 250.000,51.962 Z">
<desc>T06</desc>
</path>
<path fill="peru" stroke="white" stroke-width="1"
    d="M 105.000,72.169 L 105.000,77.942 L 110.000,80.829 L 115.000,77.942 L 115.000,72.169 L 120.000,69.282 L 125.000,72.169 L 130.000,69.282 L 135.000,72.169 L 135.000,77.942 L 140.000,80.829 L 145.000,77.942 L 145.000,72.169 L 140.000,69.282 L 140.000,63.509 L 135.000,60.622 L 130.000,63.509 L 125.000,60.622 L 125.000,54.848 L 120.000,51.962 L 115.000,54.848 L 115.000,60.622 L 110.000,63.509 L 110.000,69.282 Z">
<desc>L36</desc>
</path>
<path fill="darkorange" stroke="white" stroke-width="1"
    d="M 180.000,46.188 L 180.000,51.962 L 185.000,54.848 L 190.000,51.962 L 195.000,54.848 L 195.000,60.622 L 200.000,63.509 L 200.000,69.282 L 205.000,72.169 L 205.000,77.942 L 210.000,80.829 L 215.000,77.942 L 215.000,72.169 L 210.000,69.282 L 210.000,63.509 L 205.000,60.622 L 205.000,54.848 L 200.000,51.962 L 200.000,46.188 L 205.000,43.301 L 205.000,37.528 L 200.000,34.641 L 195.000,37.528 L 195.000,43.301 L 190.000,46.188 L 185.000,43.301 Z">
<desc>Y26</desc>
</path>
<path fill="red" stroke="white" stroke-width="1"
    d="M 285.000,72.169 L 285.000,77.942 L 290.000,80.829 L 295.000,77.942 L 300.000,80.829 L 305.000,77.942 L 310.000,80.829 L 315.000,77.942 L 315.000,72.169 L 310.000,69.282 L 310.000,63.509 L 305.000,60.622 L 305.000,54.848 L 300.000,51.962 L 300.000,46.188 L 295.000,43.301 L 290.000,46.188 L 290.000,51.962 L 295.000,54.848 L 295.000,60.622 L 300.000,63.509 L 300.000,69.282 L 295.000,72.169 L 290.000,69.282 Z">
<desc>V16</desc>
</path>
<path fill="turquoise" stroke="white" stroke-width="1"
    d="M 120.000,46.188 L 120.000,51.962 L 125.000,54.848 L 125.000,60.622 L 130.000,63.509 L 135.000,60.622 L 140.000,63.509 L 140.000,69.282 L 145.000,72.169 L 150.000,69.282 L 155.000,72.169 L 160.000,69.282 L 160.000,63.509 L 155.000,60.622 L 150.000,63.509 L 145.000,60.622 L 145.000,54.848 L 140.000,51.962 L 135.000,54.848 L 130.000,51.962 L 130.000,46.188 L 135.000,43.301 L 135.000,37.528 L 130.000,34.641 L 125.000,37.528 L 125.000,43.301 Z">
<desc>W06</desc>
</path>
<path fill="peru" stroke="white" stroke-width="1"
    d="M 140.000,46.188 L 140.000,51.962 L 145.000,54.848 L 145.000,60.622 L 150.000,63.509 L 155.000,60.622 L 160.000,63.509 L 160.000,69.282 L 165.000,72.169 L 170.000,69.282 L 170.000,63.509 L 165.000,60.622 L 165.000,54.848 L 160.000,51.962 L 160.000,46.188 L 165.000,43.301 L 165.000,37.528 L 160.000,34.641 L 155.000,37.528 L 155.000,43.301 L 150.000,46.188 L 145.000,43.301 Z">
<desc>T76</desc>
</path>
<path fill="green" stroke="white" stroke-width="1"
    d="M 210.000,46.188 L 210.000,51.962 L 215.000,54.848 L 220.000,51.962 L 225.000,54.848 L 225.000,60.622 L 220.000,63.509 L 220.000,69.282 L 225.000,72.169 L 230.000,69.282 L 230.000,63.509 L 235.000,60.622 L 240.000,63.509 L 245.000,60.622 L 245.000,54.848 L 240.000,51.962 L 235.000,54.848 L 230.000,51.962 L 230.000,46.188 L 235.000,43.301 L 235.000,37.528 L 230.000,34.641 L 225.000,37.528 L 225.000,43.301 L 220.000,46.188 L 215.000,43.301 Z">
<desc>X06</desc>
</path>
<path fill="teal" stroke="white" stroke-width="1"
    d="M 265.000,54.848 L 265.000,60.622 L 270.000,63.509 L 275.000,60.622 L 280.000,63.509 L 285.000,60.622 L 290.000,63.509 L 290.000,69.282 L 295.000,72.169 L 300.000,69.282 L 300.000,63.509 L 295.000,60.622 L 295.000,54.848 L 290.000,51.962 L 290.000,46.188 L 295.000,43.301 L 295.000,37.528 L 290.000,34.641 L 285.000,37.528 L 285.000,43.301 L 280.000,46.188 L 280.000,51.962 L 275.000,54.848 L 270.000,51.962 Z">
<desc>Y66</desc>
</path>
<path fill="turquoise" stroke="white" stroke-width="1"
    d="M 200.000,46.188 L 200.000,51.962 L 205.000,54.848 L 205.000,60.622 L 210.000,63.509 L 215.000,60.622 L 215.000,54.848 L 210.000,51.962 L 210.000,46.188 L 215.000,43.301 L 220.000,46.188 L 225.000,43.301 L 225.000,37.528 L 230.000,34.641 L 230.000,28.868 L 225.000,25.981 L 225.000,20.207 L 220.000,17.321 L 215.000,20.207 L 215.000,25.981 L 220.000,28.868 L 220.000,34.641 L 215.000,37.528 L 210.000,34.641 L 205.000,37.528 L 205.000,43.301 Z">
<desc>S06</desc>
</path>
<path fill="olive" stroke="white" stroke-width="1"
    d="M 255.000,37.528 L 255.000,43.301 L 260.000,46.188 L 260.000,51.962 L 255.000,54.848 L 255.000,60.622 L 260.000,63.509 L 265.000,60.622 L 265.000,54.848 L 270.000,51.962 L 275.000,54.848 L 280.000,51.962 L 280.000,46.188 L 285.000,43.301 L 285.000,37.528 L 290.000,34.641 L 290.000,28.868 L 285.000,25.981 L 280.000,28.868 L 280.000,34.641 L 275.000,37.528 L 275.000,43.301 L 270.000,46.188 L 265.000,43.301 L 265.000,37.528 L 260.000,34.641 Z">
<desc>Y56</desc>
</path>
<path fill="magenta" stroke="white" stroke-width="1"
    d="M 130.000,28.868 L 130.000,34.641 L 135.000,37.528 L 135.000,43.301 L 130.000,46.188 L 130.000,51.962 L 135.000,54.848 L 140.000,51.962 L 140.000,46.188 L 145.000,43.301 L 150.000,46.188 L 155.000,43.301 L 155.000,37.528 L 150.000,34.641 L 150.000,28.868 L 155.000,25.981 L 155.000,20.207 L 150.000,17.321 L 145.000,20.207 L 145.000,25.981 L 140.000,28.868 L 135.000,25.981 Z">
<desc>X16</desc>
</path>
<path fill="peru" stroke="white" stroke-width="1"
    d="M 160.000,28.868 L 160.000,34.641 L 165.000,37.528 L 165.000,43.301 L 160.000,46.188 L 160.000,51.962 L 165.000,54.848 L 170.000,51.962 L 170.000,46.188 L 175.000,43.301 L 180.000,46.188 L 185.000,43.301 L 190.000,46.188 L 195.000,43.301 L 195.000,37.528 L 200.000,34.641 L 200.000,28.868 L 195.000,25.981 L 190.000,28.868 L 190.000,34.641 L 185.000,37.528 L 180.000,34.641 L 175.000,37.528 L 170.000,34.641 L 170.000,28.868 L 165.000,25.981 Z">
<desc>Y46</desc>
</path>
<path fill="lime" stroke="white" stroke-width="1"
    d="M 230.000,46.188 L 230.000,51.962 L 235.000,54.848 L 240.000,51.962 L 245.000,54.848 L 250.000,51.962 L 250.000,46.188 L 255.000,43.301 L 255.000,37.528 L 260.000,34.641 L 265.000,37.528 L 270.000,34.641 L 270.000,28.868 L 275.000,25.981 L 275.000,20.207 L 270.000,17.321 L 265.000,20.207 L 265.000,25.981 L 260.000,28.868 L 255.000,25.981 L 250.000,28.868 L 250.000,34.641 L 245.000,37.528 L 245.000,43.301 L 240.000,46.188 L 235.000,43.301 Z">
<desc>W36</desc>
</path>
<path fill="indigo" stroke="white" stroke-width="1"
    d="M 230.000,11.547 L 230.000,17.321 L 235.000,20.207 L 240.000,17.321 L 245.000,20.207 L 245.000,25.981 L 240.000,28.868 L 240.000,34.641 L 235.000,37.528 L 235.000,43.301 L 240.000,46.188 L 245.000,43.301 L 245.000,37.528 L 250.000,34.641 L 250.000,28.868 L 255.000,25.981 L 260.000,28.868 L 265.000,25.981 L 265.000,20.207 L 260.000,17.321 L 255.000,20.207 L 250.000,17.321 L 250.000,11.547 L 245.000,8.660 L 240.000,11.547 L 235.000,8.660 Z">
<desc>T26</desc>
</path>
<path fill="blueviolet" stroke="white" stroke-width="1"
    d="M 250.000,11.547 L 250.000,17.321 L 255.000,20.207 L 260.000,17.321 L 265.000,20.207 L 270.000,17.321 L 275.000,20.207 L 275.000,25.981 L 270.000,28.868 L 270.000,34.641 L 265.000,37.528 L 265.000,43.301 L 270.000,46.188 L 275.000,43.301 L 275.000,37.528 L 280.000,34.641 L 280.000,28.868 L 285.000,25.981 L 285.000,20.207 L 280.000,17.321 L 280.000,11.547 L 275.000,8.660 L 270.000,11.547 L 265.000,8.660 L 260.000,11.547 L 255.000,8.660 Z">
<desc>V06</desc>
</path>
<path fill="red" stroke="white" stroke-width="1"
    d="M 135.000,20.207 L 135.000,25.981 L 140.000,28.868 L 145.000,25.981 L 145.000,20.207 L 150.000,17.321 L 155.000,20.207 L 155.000,25.981 L 150.000,28.868 L 150.000,34.641 L 155.000,37.528 L 160.000,34.641 L 160.000,28.868 L 165.000,25.981 L 170.000,28.868 L 175.000,25.981 L 175.000,20.207 L 170.000,17.321 L 165.000,20.207 L 160.000,17.321 L 160.000,11.547 L 155.000,8.660 L 150.000,11.547 L 145.000,8.660 L 140.000,11.547 L 140.000,17.321 Z">
<desc>R16</desc>
</path>
<path fill="plum" stroke="white" stroke-width="1"
    d="M 160.000,11.547 L 160.000,17.321 L 165.000,20.207 L 170.000,17.321 L 175.000,20.207 L 175.000,25.981 L 170.000,28.868 L 170.000,34.641 L 175.000,37.528 L 180.000,34.641 L 185.000,37.528 L 190.000,34.641 L 190.000,28.868 L 195.000,25.981 L 195.000,20.207 L 190.000,17.321 L 185.000,20.207 L 180.000,17.321 L 180.000,11.547 L 175.000,8.660 L 170.000,11.547 L 165.000,8.660 Z">
<desc>T66</desc>
</path>
<path fill="navy" stroke="white" stroke-width="1"
    d="M 180.000,11.547 L 180.000,17.321 L 185.000,20.207 L 190.000,17.321 L 195.000,20.207 L 195.000,25.981 L 200.000,28.868 L 200.000,34.641 L 205.000,37.528 L 210.000,34.641 L 215.000,37.528 L 220.000,34.641 L 220.000,28.868 L 215.000,25.981 L 210.000,28.868 L 205.000,25.981 L 205.000,20.207 L 210.000,17.321 L 210.000,11.547 L 205.000,8.660 L 200.000,11.547 L 195.000,8.660 L 190.000,11.547 L 185.000,8.660 Z">
<desc>U26</desc>
</path>
<path fill="teal" stroke="white" stroke-width="1"
    d="M 205.000,20.207 L 205.000,25.981 L 210.000,28.868 L 215.000,25.981 L 215.000,20.207 L 220.000,17.321 L 225.000,20.207 L 225.000,25.981 L 230.000,28.868 L 230.000,34.641 L 235.000,37.528 L 240.000,34.641 L 240.000,28.868 L 245.000,25.981 L 245.000,20.207 L 240.000,17.321 L 235.000,20.207 L 230.000,17.321 L 230.000,11.547 L 225.000,8.660 L 220.000,11.547 L 215.000,8.660 L 210.000,11.547 L 210.000,17.321 Z">
<desc>Q26</desc>
</path>
</g>
</svg>
