<?xml version="1.0" standalone="no"?>
<!-- Created by Polyform Puzzler (http://puzzler.sourceforge.net/) -->
<svg width="275.000" height="112.583"
     viewBox="0 0 275.000 112.583"
     xmlns="http://www.w3.org/2000/svg"
     xmlns:xlink="http://www.w3.org/1999/xlink">
<g>
<polygon fill="steelblue" stroke="white" stroke-width="1"
         points="10.000,98.150 10.000,103.923 15.000,106.810 15.000,106.810 20.000,103.923 25.000,106.810 30.000,103.923 30.000,98.150 35.000,95.263 40.000,98.150 45.000,95.263 45.000,89.489 40.000,86.603 35.000,89.489 30.000,86.603 25.000,89.489 20.000,86.603 15.000,89.489 15.000,95.263">
<desc>B5</desc>
</polygon>
<polygon fill="lime" stroke="white" stroke-width="1"
         points="30.000,98.150 30.000,103.923 35.000,106.810 35.000,106.810 40.000,103.923 45.000,106.810 50.000,103.923 50.000,98.150 55.000,95.263 55.000,89.489 60.000,86.603 60.000,80.829 55.000,77.942 55.000,72.169 50.000,69.282 45.000,72.169 45.000,77.942 50.000,80.829 50.000,86.603 45.000,89.489 45.000,95.263 40.000,98.150 35.000,95.263">
<desc>C5</desc>
</polygon>
<polygon fill="lightcoral" stroke="white" stroke-width="1"
         points="50.000,98.150 50.000,103.923 55.000,106.810 55.000,106.810 60.000,103.923 65.000,106.810 70.000,103.923 75.000,106.810 80.000,103.923 80.000,98.150 85.000,95.263 85.000,89.489 80.000,86.603 75.000,89.489 75.000,95.263 70.000,98.150 65.000,95.263 65.000,89.489 60.000,86.603 55.000,89.489 55.000,95.263">
<desc>F5</desc>
</polygon>
<polygon fill="yellow" stroke="white" stroke-width="1"
         points="80.000,98.150 80.000,103.923 85.000,106.810 85.000,106.810 90.000,103.923 95.000,106.810 100.000,103.923 105.000,106.810 110.000,103.923 110.000,98.150 115.000,95.263 115.000,89.489 110.000,86.603 110.000,80.829 105.000,77.942 100.000,80.829 100.000,86.603 105.000,89.489 105.000,95.263 100.000,98.150 95.000,95.263 90.000,98.150 85.000,95.263">
<desc>R5</desc>
</polygon>
<polygon fill="gray" stroke="white" stroke-width="1"
         points="110.000,98.150 110.000,103.923 115.000,106.810 115.000,106.810 120.000,103.923 120.000,98.150 125.000,95.263 125.000,89.489 120.000,86.603 120.000,80.829 115.000,77.942 115.000,72.169 120.000,69.282 120.000,63.509 115.000,60.622 110.000,63.509 110.000,69.282 105.000,72.169 105.000,77.942 110.000,80.829 110.000,86.603 115.000,89.489 115.000,95.263">
<desc>s5</desc>
</polygon>
<polygon fill="peru" stroke="white" stroke-width="1"
         points="120.000,98.150 120.000,103.923 125.000,106.810 125.000,106.810 130.000,103.923 135.000,106.810 140.000,103.923 145.000,106.810 150.000,103.923 155.000,106.810 160.000,103.923 160.000,98.150 155.000,95.263 150.000,98.150 145.000,95.263 140.000,98.150 135.000,95.263 135.000,89.489 130.000,86.603 125.000,89.489 125.000,95.263">
<desc>p5</desc>
</polygon>
<polygon fill="turquoise" stroke="white" stroke-width="1"
         points="160.000,98.150 160.000,103.923 165.000,106.810 165.000,106.810 170.000,103.923 170.000,98.150 165.000,95.263 165.000,89.489 170.000,86.603 170.000,80.829 165.000,77.942 160.000,80.829 160.000,86.603 155.000,89.489 150.000,86.603 145.000,89.489 140.000,86.603 135.000,89.489 135.000,95.263 140.000,98.150 145.000,95.263 150.000,98.150 155.000,95.263">
<desc>Y5</desc>
</polygon>
<polygon fill="magenta" stroke="white" stroke-width="1"
         points="170.000,98.150 170.000,103.923 175.000,106.810 175.000,106.810 180.000,103.923 185.000,106.810 190.000,103.923 195.000,106.810 200.000,103.923 205.000,106.810 210.000,103.923 210.000,98.150 205.000,95.263 200.000,98.150 195.000,95.263 195.000,89.489 190.000,86.603 185.000,89.489 185.000,95.263 180.000,98.150 175.000,95.263">
<desc>E5</desc>
</polygon>
<polygon fill="blueviolet" stroke="white" stroke-width="1"
         points="65.000,89.489 65.000,95.263 70.000,98.150 70.000,98.150 75.000,95.263 75.000,89.489 80.000,86.603 80.000,80.829 85.000,77.942 85.000,72.169 80.000,69.282 75.000,72.169 75.000,77.942 70.000,80.829 65.000,77.942 65.000,72.169 60.000,69.282 55.000,72.169 55.000,77.942 60.000,80.829 60.000,86.603">
<desc>V5</desc>
</polygon>
<polygon fill="indigo" stroke="white" stroke-width="1"
         points="85.000,89.489 85.000,95.263 90.000,98.150 90.000,98.150 95.000,95.263 100.000,98.150 105.000,95.263 105.000,89.489 100.000,86.603 95.000,89.489 90.000,86.603 90.000,80.829 95.000,77.942 95.000,72.169 90.000,69.282 90.000,63.509 85.000,60.622 80.000,63.509 80.000,69.282 85.000,72.169 85.000,77.942 80.000,80.829 80.000,86.603">
<desc>g5</desc>
</polygon>
<polygon fill="indigo" stroke="white" stroke-width="1"
         points="165.000,89.489 165.000,95.263 170.000,98.150 170.000,98.150 175.000,95.263 180.000,98.150 185.000,95.263 185.000,89.489 190.000,86.603 195.000,89.489 195.000,95.263 200.000,98.150 205.000,95.263 205.000,89.489 200.000,86.603 200.000,80.829 195.000,77.942 190.000,80.829 185.000,77.942 180.000,80.829 180.000,86.603 175.000,89.489 170.000,86.603">
<desc>G5</desc>
</polygon>
<polygon fill="green" stroke="white" stroke-width="1"
         points="20.000,80.829 20.000,86.603 25.000,89.489 25.000,89.489 30.000,86.603 35.000,89.489 40.000,86.603 45.000,89.489 50.000,86.603 50.000,80.829 45.000,77.942 45.000,72.169 40.000,69.282 35.000,72.169 30.000,69.282 25.000,72.169 25.000,77.942">
<desc>D5</desc>
</polygon>
<polygon fill="teal" stroke="white" stroke-width="1"
         points="90.000,80.829 90.000,86.603 95.000,89.489 95.000,89.489 100.000,86.603 100.000,80.829 105.000,77.942 105.000,72.169 110.000,69.282 110.000,63.509 105.000,60.622 100.000,63.509 95.000,60.622 95.000,54.848 90.000,51.962 85.000,54.848 85.000,60.622 90.000,63.509 90.000,69.282 95.000,72.169 95.000,77.942">
<desc>t5</desc>
</polygon>
<polygon fill="yellow" stroke="white" stroke-width="1"
         points="120.000,80.829 120.000,86.603 125.000,89.489 125.000,89.489 130.000,86.603 135.000,89.489 140.000,86.603 145.000,89.489 150.000,86.603 150.000,80.829 145.000,77.942 140.000,80.829 135.000,77.942 130.000,80.829 125.000,77.942 125.000,72.169 130.000,69.282 130.000,63.509 125.000,60.622 120.000,63.509 120.000,69.282 115.000,72.169 115.000,77.942">
<desc>r5</desc>
</polygon>
<polygon fill="olive" stroke="white" stroke-width="1"
         points="150.000,80.829 150.000,86.603 155.000,89.489 155.000,89.489 160.000,86.603 160.000,80.829 155.000,77.942 155.000,72.169 150.000,69.282 145.000,72.169 140.000,69.282 140.000,63.509 135.000,60.622 130.000,63.509 130.000,69.282 125.000,72.169 125.000,77.942 130.000,80.829 135.000,77.942 140.000,80.829 145.000,77.942">
<desc>q5</desc>
</polygon>
<polygon fill="maroon" stroke="white" stroke-width="1"
         points="170.000,80.829 170.000,86.603 175.000,89.489 175.000,89.489 180.000,86.603 180.000,80.829 185.000,77.942 190.000,80.829 195.000,77.942 195.000,72.169 190.000,69.282 185.000,72.169 180.000,69.282 180.000,63.509 175.000,60.622 170.000,63.509 170.000,69.282 165.000,72.169 165.000,77.942">
<desc>A5</desc>
</polygon>
<polygon fill="teal" stroke="white" stroke-width="1"
         points="65.000,72.169 65.000,77.942 70.000,80.829 70.000,80.829 75.000,77.942 75.000,72.169 80.000,69.282 80.000,63.509 85.000,60.622 85.000,54.848 80.000,51.962 75.000,54.848 75.000,60.622 70.000,63.509 65.000,60.622 60.000,63.509 55.000,60.622 50.000,63.509 50.000,69.282 55.000,72.169 60.000,69.282">
<desc>T5</desc>
</polygon>
<polygon fill="tan" stroke="white" stroke-width="1"
         points="155.000,72.169 155.000,77.942 160.000,80.829 160.000,80.829 165.000,77.942 165.000,72.169 160.000,69.282 160.000,63.509 165.000,60.622 165.000,54.848 160.000,51.962 160.000,46.188 155.000,43.301 150.000,46.188 150.000,51.962 155.000,54.848 155.000,60.622 150.000,63.509 145.000,60.622 140.000,63.509 140.000,69.282 145.000,72.169 150.000,69.282">
<desc>h5</desc>
</polygon>
<polygon fill="blue" stroke="white" stroke-width="1"
         points="30.000,63.509 30.000,69.282 35.000,72.169 35.000,72.169 40.000,69.282 40.000,63.509 45.000,60.622 45.000,54.848 50.000,51.962 50.000,46.188 55.000,43.301 55.000,37.528 60.000,34.641 60.000,28.868 55.000,25.981 50.000,28.868 50.000,34.641 45.000,37.528 45.000,43.301 40.000,46.188 40.000,51.962 35.000,54.848 35.000,60.622">
<desc>I5</desc>
</polygon>
<polygon fill="gray" stroke="white" stroke-width="1"
         points="40.000,63.509 40.000,69.282 45.000,72.169 45.000,72.169 50.000,69.282 50.000,63.509 55.000,60.622 60.000,63.509 65.000,60.622 70.000,63.509 75.000,60.622 75.000,54.848 80.000,51.962 80.000,46.188 75.000,43.301 70.000,46.188 70.000,51.962 65.000,54.848 60.000,51.962 55.000,54.848 50.000,51.962 45.000,54.848 45.000,60.622">
<desc>S5</desc>
</polygon>
<polygon fill="tan" stroke="white" stroke-width="1"
         points="160.000,63.509 160.000,69.282 165.000,72.169 165.000,72.169 170.000,69.282 170.000,63.509 175.000,60.622 180.000,63.509 180.000,69.282 185.000,72.169 190.000,69.282 190.000,63.509 185.000,60.622 185.000,54.848 180.000,51.962 175.000,54.848 170.000,51.962 170.000,46.188 165.000,43.301 160.000,46.188 160.000,51.962 165.000,54.848 165.000,60.622">
<desc>H5</desc>
</polygon>
<polygon fill="gold" stroke="white" stroke-width="1"
         points="95.000,54.848 95.000,60.622 100.000,63.509 100.000,63.509 105.000,60.622 105.000,54.848 100.000,51.962 100.000,46.188 95.000,43.301 90.000,46.188 85.000,43.301 85.000,37.528 80.000,34.641 75.000,37.528 70.000,34.641 65.000,37.528 65.000,43.301 70.000,46.188 75.000,43.301 80.000,46.188 80.000,51.962 85.000,54.848 90.000,51.962">
<desc>W5</desc>
</polygon>
<polygon fill="navy" stroke="white" stroke-width="1"
         points="105.000,54.848 105.000,60.622 110.000,63.509 110.000,63.509 115.000,60.622 120.000,63.509 125.000,60.622 125.000,54.848 130.000,51.962 130.000,46.188 125.000,43.301 120.000,46.188 120.000,51.962 115.000,54.848 110.000,51.962 110.000,46.188 115.000,43.301 115.000,37.528 110.000,34.641 105.000,37.528 105.000,43.301 100.000,46.188 100.000,51.962">
<desc>U5</desc>
</polygon>
<polygon fill="darkseagreen" stroke="white" stroke-width="1"
         points="125.000,54.848 125.000,60.622 130.000,63.509 130.000,63.509 135.000,60.622 135.000,54.848 140.000,51.962 140.000,46.188 145.000,43.301 145.000,37.528 150.000,34.641 155.000,37.528 160.000,34.641 160.000,28.868 155.000,25.981 150.000,28.868 145.000,25.981 140.000,28.868 140.000,34.641 135.000,37.528 135.000,43.301 130.000,46.188 130.000,51.962">
<desc>j5</desc>
</polygon>
<polygon fill="lightcoral" stroke="white" stroke-width="1"
         points="135.000,54.848 135.000,60.622 140.000,63.509 140.000,63.509 145.000,60.622 150.000,63.509 155.000,60.622 155.000,54.848 150.000,51.962 150.000,46.188 155.000,43.301 160.000,46.188 165.000,43.301 165.000,37.528 160.000,34.641 155.000,37.528 150.000,34.641 145.000,37.528 145.000,43.301 140.000,46.188 140.000,51.962">
<desc>f5</desc>
</polygon>
<polygon fill="olive" stroke="white" stroke-width="1"
         points="50.000,46.188 50.000,51.962 55.000,54.848 55.000,54.848 60.000,51.962 65.000,54.848 70.000,51.962 70.000,46.188 65.000,43.301 65.000,37.528 70.000,34.641 70.000,28.868 65.000,25.981 65.000,20.207 60.000,17.321 55.000,20.207 55.000,25.981 60.000,28.868 60.000,34.641 55.000,37.528 55.000,43.301">
<desc>Q5</desc>
</polygon>
<polygon fill="plum" stroke="white" stroke-width="1"
         points="110.000,46.188 110.000,51.962 115.000,54.848 115.000,54.848 120.000,51.962 120.000,46.188 125.000,43.301 130.000,46.188 135.000,43.301 135.000,37.528 140.000,34.641 140.000,28.868 145.000,25.981 145.000,20.207 140.000,17.321 135.000,20.207 135.000,25.981 130.000,28.868 130.000,34.641 125.000,37.528 120.000,34.641 115.000,37.528 115.000,43.301">
<desc>n5</desc>
</polygon>
<polygon fill="darkseagreen" stroke="white" stroke-width="1"
         points="170.000,46.188 170.000,51.962 175.000,54.848 175.000,54.848 180.000,51.962 180.000,46.188 175.000,43.301 175.000,37.528 170.000,34.641 170.000,28.868 165.000,25.981 165.000,20.207 160.000,17.321 155.000,20.207 150.000,17.321 145.000,20.207 145.000,25.981 150.000,28.868 155.000,25.981 160.000,28.868 160.000,34.641 165.000,37.528 165.000,43.301">
<desc>J5</desc>
</polygon>
<polygon fill="red" stroke="white" stroke-width="1"
         points="85.000,37.528 85.000,43.301 90.000,46.188 90.000,46.188 95.000,43.301 95.000,37.528 100.000,34.641 100.000,28.868 95.000,25.981 90.000,28.868 85.000,25.981 85.000,20.207 80.000,17.321 75.000,20.207 75.000,25.981 70.000,28.868 70.000,34.641 75.000,37.528 80.000,34.641">
<desc>X5</desc>
</polygon>
<polygon fill="steelblue" stroke="white" stroke-width="1"
         points="95.000,37.528 95.000,43.301 100.000,46.188 100.000,46.188 105.000,43.301 105.000,37.528 110.000,34.641 115.000,37.528 120.000,34.641 120.000,28.868 125.000,25.981 125.000,20.207 120.000,17.321 115.000,20.207 110.000,17.321 105.000,20.207 105.000,25.981 100.000,28.868 100.000,34.641">
<desc>b5</desc>
</polygon>
<polygon fill="darkorange" stroke="white" stroke-width="1"
         points="120.000,28.868 120.000,34.641 125.000,37.528 125.000,37.528 130.000,34.641 130.000,28.868 135.000,25.981 135.000,20.207 140.000,17.321 145.000,20.207 150.000,17.321 155.000,20.207 160.000,17.321 160.000,11.547 155.000,8.660 150.000,11.547 145.000,8.660 140.000,11.547 135.000,8.660 130.000,11.547 130.000,17.321 125.000,20.207 125.000,25.981">
<desc>L5</desc>
</polygon>
<polygon fill="peru" stroke="white" stroke-width="1"
         points="65.000,20.207 65.000,25.981 70.000,28.868 70.000,28.868 75.000,25.981 75.000,20.207 80.000,17.321 85.000,20.207 90.000,17.321 95.000,20.207 100.000,17.321 100.000,11.547 95.000,8.660 90.000,11.547 85.000,8.660 80.000,11.547 75.000,8.660 70.000,11.547 65.000,8.660 60.000,11.547 60.000,17.321">
<desc>P5</desc>
</polygon>
<polygon fill="plum" stroke="white" stroke-width="1"
         points="85.000,20.207 85.000,25.981 90.000,28.868 90.000,28.868 95.000,25.981 100.000,28.868 105.000,25.981 105.000,20.207 110.000,17.321 115.000,20.207 120.000,17.321 125.000,20.207 130.000,17.321 130.000,11.547 125.000,8.660 120.000,11.547 115.000,8.660 110.000,11.547 105.000,8.660 100.000,11.547 100.000,17.321 95.000,20.207 90.000,17.321">
<desc>N5</desc>
</polygon>
</g>
</svg>
