<?xml version="1.0" standalone="no"?>
<!-- Created by Polyform Puzzler (http://puzzler.sourceforge.net/) -->
<svg width="280.000" height="103.923"
     viewBox="0 0 280.000 103.923"
     xmlns="http://www.w3.org/2000/svg"
     xmlns:xlink="http://www.w3.org/1999/xlink">
<g>
<polygon fill="steelblue" stroke="white" stroke-width="1"
         points="10.000,89.489 10.000,95.263 15.000,98.150 15.000,98.150 20.000,95.263 25.000,98.150 30.000,95.263 30.000,89.489 35.000,86.603 40.000,89.489 45.000,86.603 45.000,80.829 40.000,77.942 35.000,80.829 30.000,77.942 25.000,80.829 20.000,77.942 15.000,80.829 15.000,86.603">
<desc>B5</desc>
</polygon>
<polygon fill="lime" stroke="white" stroke-width="1"
         points="30.000,89.489 30.000,95.263 35.000,98.150 35.000,98.150 40.000,95.263 45.000,98.150 50.000,95.263 50.000,89.489 55.000,86.603 55.000,80.829 60.000,77.942 60.000,72.169 55.000,69.282 55.000,63.509 50.000,60.622 45.000,63.509 45.000,69.282 50.000,72.169 50.000,77.942 45.000,80.829 45.000,86.603 40.000,89.489 35.000,86.603">
<desc>C5</desc>
</polygon>
<polygon fill="lightcoral" stroke="white" stroke-width="1"
         points="50.000,89.489 50.000,95.263 55.000,98.150 55.000,98.150 60.000,95.263 65.000,98.150 70.000,95.263 75.000,98.150 80.000,95.263 80.000,89.489 85.000,86.603 85.000,80.829 80.000,77.942 75.000,80.829 75.000,86.603 70.000,89.489 65.000,86.603 65.000,80.829 60.000,77.942 55.000,80.829 55.000,86.603">
<desc>F5</desc>
</polygon>
<polygon fill="peru" stroke="white" stroke-width="1"
         points="80.000,89.489 80.000,95.263 85.000,98.150 85.000,98.150 90.000,95.263 95.000,98.150 100.000,95.263 100.000,89.489 95.000,86.603 95.000,80.829 100.000,77.942 100.000,72.169 105.000,69.282 105.000,63.509 100.000,60.622 95.000,63.509 95.000,69.282 90.000,72.169 90.000,77.942 85.000,80.829 85.000,86.603">
<desc>P5</desc>
</polygon>
<polygon fill="yellow" stroke="white" stroke-width="1"
         points="100.000,89.489 100.000,95.263 105.000,98.150 105.000,98.150 110.000,95.263 115.000,98.150 120.000,95.263 120.000,89.489 115.000,86.603 110.000,89.489 105.000,86.603 105.000,80.829 110.000,77.942 110.000,72.169 115.000,69.282 115.000,63.509 110.000,60.622 105.000,63.509 105.000,69.282 100.000,72.169 100.000,77.942 95.000,80.829 95.000,86.603">
<desc>R5</desc>
</polygon>
<polygon fill="olive" stroke="white" stroke-width="1"
         points="120.000,89.489 120.000,95.263 125.000,98.150 125.000,98.150 130.000,95.263 135.000,98.150 140.000,95.263 140.000,89.489 135.000,86.603 130.000,89.489 125.000,86.603 125.000,80.829 120.000,77.942 120.000,72.169 115.000,69.282 110.000,72.169 110.000,77.942 105.000,80.829 105.000,86.603 110.000,89.489 115.000,86.603">
<desc>Q5</desc>
</polygon>
<polygon fill="plum" stroke="white" stroke-width="1"
         points="140.000,89.489 140.000,95.263 145.000,98.150 145.000,98.150 150.000,95.263 150.000,89.489 145.000,86.603 145.000,80.829 140.000,77.942 135.000,80.829 130.000,77.942 130.000,72.169 125.000,69.282 125.000,63.509 120.000,60.622 115.000,63.509 115.000,69.282 120.000,72.169 120.000,77.942 125.000,80.829 125.000,86.603 130.000,89.489 135.000,86.603">
<desc>N5</desc>
</polygon>
<polygon fill="darkorange" stroke="white" stroke-width="1"
         points="150.000,89.489 150.000,95.263 155.000,98.150 155.000,98.150 160.000,95.263 165.000,98.150 170.000,95.263 175.000,98.150 180.000,95.263 180.000,89.489 175.000,86.603 170.000,89.489 165.000,86.603 160.000,89.489 155.000,86.603 155.000,80.829 150.000,77.942 150.000,72.169 145.000,69.282 140.000,72.169 140.000,77.942 145.000,80.829 145.000,86.603">
<desc>L5</desc>
</polygon>
<polygon fill="magenta" stroke="white" stroke-width="1"
         points="180.000,89.489 180.000,95.263 185.000,98.150 185.000,98.150 190.000,95.263 195.000,98.150 200.000,95.263 205.000,98.150 210.000,95.263 215.000,98.150 220.000,95.263 220.000,89.489 215.000,86.603 210.000,89.489 205.000,86.603 205.000,80.829 200.000,77.942 195.000,80.829 195.000,86.603 190.000,89.489 185.000,86.603">
<desc>E5</desc>
</polygon>
<polygon fill="indigo" stroke="white" stroke-width="1"
         points="65.000,80.829 65.000,86.603 70.000,89.489 70.000,89.489 75.000,86.603 75.000,80.829 70.000,77.942 70.000,72.169 75.000,69.282 80.000,72.169 85.000,69.282 85.000,63.509 90.000,60.622 90.000,54.848 85.000,51.962 80.000,54.848 80.000,60.622 75.000,63.509 70.000,60.622 65.000,63.509 65.000,69.282 60.000,72.169 60.000,77.942">
<desc>g5</desc>
</polygon>
<polygon fill="gray" stroke="white" stroke-width="1"
         points="155.000,80.829 155.000,86.603 160.000,89.489 160.000,89.489 165.000,86.603 170.000,89.489 175.000,86.603 175.000,80.829 170.000,77.942 165.000,80.829 160.000,77.942 160.000,72.169 155.000,69.282 155.000,63.509 150.000,60.622 145.000,63.509 140.000,60.622 135.000,63.509 135.000,69.282 140.000,72.169 145.000,69.282 150.000,72.169 150.000,77.942">
<desc>S5</desc>
</polygon>
<polygon fill="indigo" stroke="white" stroke-width="1"
         points="175.000,80.829 175.000,86.603 180.000,89.489 180.000,89.489 185.000,86.603 190.000,89.489 195.000,86.603 195.000,80.829 200.000,77.942 205.000,80.829 205.000,86.603 210.000,89.489 215.000,86.603 215.000,80.829 210.000,77.942 210.000,72.169 205.000,69.282 200.000,72.169 195.000,69.282 190.000,72.169 190.000,77.942 185.000,80.829 180.000,77.942">
<desc>G5</desc>
</polygon>
<polygon fill="green" stroke="white" stroke-width="1"
         points="20.000,72.169 20.000,77.942 25.000,80.829 25.000,80.829 30.000,77.942 35.000,80.829 40.000,77.942 45.000,80.829 50.000,77.942 50.000,72.169 45.000,69.282 45.000,63.509 40.000,60.622 35.000,63.509 30.000,60.622 25.000,63.509 25.000,69.282">
<desc>D5</desc>
</polygon>
<polygon fill="gray" stroke="white" stroke-width="1"
         points="70.000,72.169 70.000,77.942 75.000,80.829 75.000,80.829 80.000,77.942 85.000,80.829 90.000,77.942 90.000,72.169 95.000,69.282 95.000,63.509 100.000,60.622 105.000,63.509 110.000,60.622 110.000,54.848 105.000,51.962 100.000,54.848 95.000,51.962 90.000,54.848 90.000,60.622 85.000,63.509 85.000,69.282 80.000,72.169 75.000,69.282">
<desc>s5</desc>
</polygon>
<polygon fill="teal" stroke="white" stroke-width="1"
         points="130.000,72.169 130.000,77.942 135.000,80.829 135.000,80.829 140.000,77.942 140.000,72.169 135.000,69.282 135.000,63.509 140.000,60.622 140.000,54.848 145.000,51.962 145.000,46.188 140.000,43.301 135.000,46.188 135.000,51.962 130.000,54.848 125.000,51.962 120.000,54.848 120.000,60.622 125.000,63.509 125.000,69.282">
<desc>T5</desc>
</polygon>
<polygon fill="turquoise" stroke="white" stroke-width="1"
         points="160.000,72.169 160.000,77.942 165.000,80.829 165.000,80.829 170.000,77.942 170.000,72.169 165.000,69.282 165.000,63.509 160.000,60.622 160.000,54.848 165.000,51.962 165.000,46.188 160.000,43.301 155.000,46.188 155.000,51.962 150.000,54.848 145.000,51.962 140.000,54.848 140.000,60.622 145.000,63.509 150.000,60.622 155.000,63.509 155.000,69.282">
<desc>Y5</desc>
</polygon>
<polygon fill="plum" stroke="white" stroke-width="1"
         points="170.000,72.169 170.000,77.942 175.000,80.829 175.000,80.829 180.000,77.942 180.000,72.169 175.000,69.282 175.000,63.509 170.000,60.622 170.000,54.848 175.000,51.962 175.000,46.188 170.000,43.301 170.000,37.528 165.000,34.641 160.000,37.528 160.000,43.301 165.000,46.188 165.000,51.962 160.000,54.848 160.000,60.622 165.000,63.509 165.000,69.282">
<desc>n5</desc>
</polygon>
<polygon fill="maroon" stroke="white" stroke-width="1"
         points="180.000,72.169 180.000,77.942 185.000,80.829 185.000,80.829 190.000,77.942 190.000,72.169 195.000,69.282 200.000,72.169 205.000,69.282 205.000,63.509 200.000,60.622 195.000,63.509 190.000,60.622 190.000,54.848 185.000,51.962 180.000,54.848 180.000,60.622 175.000,63.509 175.000,69.282">
<desc>A5</desc>
</polygon>
<polygon fill="teal" stroke="white" stroke-width="1"
         points="55.000,63.509 55.000,69.282 60.000,72.169 60.000,72.169 65.000,69.282 65.000,63.509 60.000,60.622 60.000,54.848 55.000,51.962 55.000,46.188 60.000,43.301 60.000,37.528 55.000,34.641 50.000,37.528 50.000,43.301 45.000,46.188 45.000,51.962 40.000,54.848 40.000,60.622 45.000,63.509 50.000,60.622">
<desc>t5</desc>
</polygon>
<polygon fill="blue" stroke="white" stroke-width="1"
         points="30.000,54.848 30.000,60.622 35.000,63.509 35.000,63.509 40.000,60.622 40.000,54.848 45.000,51.962 45.000,46.188 50.000,43.301 50.000,37.528 55.000,34.641 55.000,28.868 60.000,25.981 60.000,20.207 55.000,17.321 50.000,20.207 50.000,25.981 45.000,28.868 45.000,34.641 40.000,37.528 40.000,43.301 35.000,46.188 35.000,51.962">
<desc>I5</desc>
</polygon>
<polygon fill="steelblue" stroke="white" stroke-width="1"
         points="60.000,54.848 60.000,60.622 65.000,63.509 65.000,63.509 70.000,60.622 75.000,63.509 80.000,60.622 80.000,54.848 85.000,51.962 85.000,46.188 90.000,43.301 90.000,37.528 85.000,34.641 80.000,37.528 80.000,43.301 75.000,46.188 70.000,43.301 65.000,46.188 65.000,51.962">
<desc>b5</desc>
</polygon>
<polygon fill="red" stroke="white" stroke-width="1"
         points="110.000,54.848 110.000,60.622 115.000,63.509 115.000,63.509 120.000,60.622 120.000,54.848 125.000,51.962 130.000,54.848 135.000,51.962 135.000,46.188 130.000,43.301 130.000,37.528 125.000,34.641 120.000,37.528 120.000,43.301 115.000,46.188 110.000,43.301 105.000,46.188 105.000,51.962">
<desc>X5</desc>
</polygon>
<polygon fill="tan" stroke="white" stroke-width="1"
         points="170.000,54.848 170.000,60.622 175.000,63.509 175.000,63.509 180.000,60.622 180.000,54.848 185.000,51.962 190.000,54.848 190.000,60.622 195.000,63.509 200.000,60.622 200.000,54.848 195.000,51.962 195.000,46.188 190.000,43.301 185.000,46.188 180.000,43.301 180.000,37.528 175.000,34.641 170.000,37.528 170.000,43.301 175.000,46.188 175.000,51.962">
<desc>H5</desc>
</polygon>
<polygon fill="tan" stroke="white" stroke-width="1"
         points="55.000,46.188 55.000,51.962 60.000,54.848 60.000,54.848 65.000,51.962 65.000,46.188 70.000,43.301 75.000,46.188 80.000,43.301 80.000,37.528 85.000,34.641 85.000,28.868 80.000,25.981 75.000,28.868 75.000,34.641 70.000,37.528 65.000,34.641 65.000,28.868 60.000,25.981 55.000,28.868 55.000,34.641 60.000,37.528 60.000,43.301">
<desc>h5</desc>
</polygon>
<polygon fill="olive" stroke="white" stroke-width="1"
         points="85.000,46.188 85.000,51.962 90.000,54.848 90.000,54.848 95.000,51.962 100.000,54.848 105.000,51.962 105.000,46.188 110.000,43.301 115.000,46.188 120.000,43.301 120.000,37.528 115.000,34.641 115.000,28.868 110.000,25.981 105.000,28.868 105.000,34.641 100.000,37.528 100.000,43.301 95.000,46.188 90.000,43.301">
<desc>q5</desc>
</polygon>
<polygon fill="blueviolet" stroke="white" stroke-width="1"
         points="145.000,46.188 145.000,51.962 150.000,54.848 150.000,54.848 155.000,51.962 155.000,46.188 160.000,43.301 160.000,37.528 165.000,34.641 165.000,28.868 160.000,25.981 155.000,28.868 155.000,34.641 150.000,37.528 145.000,34.641 145.000,28.868 140.000,25.981 135.000,28.868 135.000,34.641 140.000,37.528 140.000,43.301">
<desc>V5</desc>
</polygon>
<polygon fill="yellow" stroke="white" stroke-width="1"
         points="90.000,37.528 90.000,43.301 95.000,46.188 95.000,46.188 100.000,43.301 100.000,37.528 105.000,34.641 105.000,28.868 110.000,25.981 115.000,28.868 115.000,34.641 120.000,37.528 125.000,34.641 125.000,28.868 120.000,25.981 120.000,20.207 115.000,17.321 110.000,20.207 105.000,17.321 100.000,20.207 100.000,25.981 95.000,28.868 95.000,34.641">
<desc>r5</desc>
</polygon>
<polygon fill="navy" stroke="white" stroke-width="1"
         points="130.000,37.528 130.000,43.301 135.000,46.188 135.000,46.188 140.000,43.301 140.000,37.528 135.000,34.641 135.000,28.868 140.000,25.981 145.000,28.868 145.000,34.641 150.000,37.528 155.000,34.641 155.000,28.868 150.000,25.981 150.000,20.207 145.000,17.321 140.000,20.207 135.000,17.321 130.000,20.207 130.000,25.981 125.000,28.868 125.000,34.641">
<desc>U5</desc>
</polygon>
<polygon fill="darkseagreen" stroke="white" stroke-width="1"
         points="180.000,37.528 180.000,43.301 185.000,46.188 185.000,46.188 190.000,43.301 190.000,37.528 185.000,34.641 185.000,28.868 180.000,25.981 180.000,20.207 175.000,17.321 175.000,11.547 170.000,8.660 165.000,11.547 160.000,8.660 155.000,11.547 155.000,17.321 160.000,20.207 165.000,17.321 170.000,20.207 170.000,25.981 175.000,28.868 175.000,34.641">
<desc>J5</desc>
</polygon>
<polygon fill="lightcoral" stroke="white" stroke-width="1"
         points="65.000,28.868 65.000,34.641 70.000,37.528 70.000,37.528 75.000,34.641 75.000,28.868 80.000,25.981 85.000,28.868 85.000,34.641 90.000,37.528 95.000,34.641 95.000,28.868 90.000,25.981 90.000,20.207 85.000,17.321 80.000,20.207 75.000,17.321 70.000,20.207 65.000,17.321 60.000,20.207 60.000,25.981">
<desc>f5</desc>
</polygon>
<polygon fill="gold" stroke="white" stroke-width="1"
         points="165.000,28.868 165.000,34.641 170.000,37.528 170.000,37.528 175.000,34.641 175.000,28.868 170.000,25.981 170.000,20.207 165.000,17.321 160.000,20.207 155.000,17.321 155.000,11.547 150.000,8.660 145.000,11.547 140.000,8.660 135.000,11.547 135.000,17.321 140.000,20.207 145.000,17.321 150.000,20.207 150.000,25.981 155.000,28.868 160.000,25.981">
<desc>W5</desc>
</polygon>
<polygon fill="darkseagreen" stroke="white" stroke-width="1"
         points="90.000,20.207 90.000,25.981 95.000,28.868 95.000,28.868 100.000,25.981 100.000,20.207 95.000,17.321 95.000,11.547 90.000,8.660 85.000,11.547 80.000,8.660 75.000,11.547 70.000,8.660 65.000,11.547 60.000,8.660 55.000,11.547 55.000,17.321 60.000,20.207 65.000,17.321 70.000,20.207 75.000,17.321 80.000,20.207 85.000,17.321">
<desc>j5</desc>
</polygon>
<polygon fill="peru" stroke="white" stroke-width="1"
         points="120.000,20.207 120.000,25.981 125.000,28.868 125.000,28.868 130.000,25.981 130.000,20.207 135.000,17.321 135.000,11.547 130.000,8.660 125.000,11.547 120.000,8.660 115.000,11.547 110.000,8.660 105.000,11.547 100.000,8.660 95.000,11.547 95.000,17.321 100.000,20.207 105.000,17.321 110.000,20.207 115.000,17.321">
<desc>p5</desc>
</polygon>
</g>
</svg>
