<?xml version="1.0" standalone="no"?>
<!-- Created by Polyform Puzzler (http://puzzler.sourceforge.net/) -->
<svg width="350.000" height="69.282"
     viewBox="0 0 350.000 69.282"
     xmlns="http://www.w3.org/2000/svg"
     xmlns:xlink="http://www.w3.org/1999/xlink">
<g>
<polygon fill="steelblue" stroke="white" stroke-width="1"
         points="10.000,54.848 10.000,60.622 15.000,63.509 15.000,63.509 20.000,60.622 25.000,63.509 30.000,60.622 30.000,54.848 35.000,51.962 40.000,54.848 45.000,51.962 45.000,46.188 40.000,43.301 35.000,46.188 30.000,43.301 25.000,46.188 20.000,43.301 15.000,46.188 15.000,51.962">
<desc>B5</desc>
</polygon>
<polygon fill="lime" stroke="white" stroke-width="1"
         points="30.000,54.848 30.000,60.622 35.000,63.509 35.000,63.509 40.000,60.622 45.000,63.509 50.000,60.622 50.000,54.848 55.000,51.962 55.000,46.188 60.000,43.301 60.000,37.528 55.000,34.641 55.000,28.868 50.000,25.981 45.000,28.868 45.000,34.641 50.000,37.528 50.000,43.301 45.000,46.188 45.000,51.962 40.000,54.848 35.000,51.962">
<desc>C5</desc>
</polygon>
<polygon fill="lightcoral" stroke="white" stroke-width="1"
         points="50.000,54.848 50.000,60.622 55.000,63.509 55.000,63.509 60.000,60.622 65.000,63.509 70.000,60.622 75.000,63.509 80.000,60.622 80.000,54.848 85.000,51.962 85.000,46.188 80.000,43.301 75.000,46.188 75.000,51.962 70.000,54.848 65.000,51.962 65.000,46.188 60.000,43.301 55.000,46.188 55.000,51.962">
<desc>F5</desc>
</polygon>
<polygon fill="teal" stroke="white" stroke-width="1"
         points="80.000,54.848 80.000,60.622 85.000,63.509 85.000,63.509 90.000,60.622 90.000,54.848 95.000,51.962 100.000,54.848 105.000,51.962 105.000,46.188 100.000,43.301 100.000,37.528 95.000,34.641 95.000,28.868 90.000,25.981 85.000,28.868 85.000,34.641 90.000,37.528 90.000,43.301 85.000,46.188 85.000,51.962">
<desc>T5</desc>
</polygon>
<polygon fill="blueviolet" stroke="white" stroke-width="1"
         points="90.000,54.848 90.000,60.622 95.000,63.509 95.000,63.509 100.000,60.622 105.000,63.509 110.000,60.622 115.000,63.509 120.000,60.622 120.000,54.848 115.000,51.962 115.000,46.188 110.000,43.301 110.000,37.528 105.000,34.641 100.000,37.528 100.000,43.301 105.000,46.188 105.000,51.962 100.000,54.848 95.000,51.962">
<desc>V5</desc>
</polygon>
<polygon fill="gold" stroke="white" stroke-width="1"
         points="120.000,54.848 120.000,60.622 125.000,63.509 125.000,63.509 130.000,60.622 135.000,63.509 140.000,60.622 140.000,54.848 145.000,51.962 150.000,54.848 155.000,51.962 155.000,46.188 160.000,43.301 160.000,37.528 155.000,34.641 150.000,37.528 150.000,43.301 145.000,46.188 140.000,43.301 135.000,46.188 135.000,51.962 130.000,54.848 125.000,51.962">
<desc>W5</desc>
</polygon>
<polygon fill="gray" stroke="white" stroke-width="1"
         points="140.000,54.848 140.000,60.622 145.000,63.509 145.000,63.509 150.000,60.622 155.000,63.509 160.000,60.622 160.000,54.848 165.000,51.962 165.000,46.188 170.000,43.301 175.000,46.188 180.000,43.301 180.000,37.528 175.000,34.641 170.000,37.528 165.000,34.641 160.000,37.528 160.000,43.301 155.000,46.188 155.000,51.962 150.000,54.848 145.000,51.962">
<desc>s5</desc>
</polygon>
<polygon fill="indigo" stroke="white" stroke-width="1"
         points="160.000,54.848 160.000,60.622 165.000,63.509 165.000,63.509 170.000,60.622 170.000,54.848 175.000,51.962 180.000,54.848 185.000,51.962 185.000,46.188 190.000,43.301 190.000,37.528 185.000,34.641 185.000,28.868 180.000,25.981 175.000,28.868 175.000,34.641 180.000,37.528 180.000,43.301 175.000,46.188 170.000,43.301 165.000,46.188 165.000,51.962">
<desc>g5</desc>
</polygon>
<polygon fill="teal" stroke="white" stroke-width="1"
         points="170.000,54.848 170.000,60.622 175.000,63.509 175.000,63.509 180.000,60.622 185.000,63.509 190.000,60.622 195.000,63.509 200.000,60.622 200.000,54.848 195.000,51.962 195.000,46.188 200.000,43.301 200.000,37.528 195.000,34.641 190.000,37.528 190.000,43.301 185.000,46.188 185.000,51.962 180.000,54.848 175.000,51.962">
<desc>t5</desc>
</polygon>
<polygon fill="navy" stroke="white" stroke-width="1"
         points="200.000,54.848 200.000,60.622 205.000,63.509 205.000,63.509 210.000,60.622 210.000,54.848 205.000,51.962 205.000,46.188 210.000,43.301 215.000,46.188 215.000,51.962 220.000,54.848 225.000,51.962 225.000,46.188 220.000,43.301 220.000,37.528 215.000,34.641 210.000,37.528 205.000,34.641 200.000,37.528 200.000,43.301 195.000,46.188 195.000,51.962">
<desc>U5</desc>
</polygon>
<polygon fill="darkseagreen" stroke="white" stroke-width="1"
         points="210.000,54.848 210.000,60.622 215.000,63.509 215.000,63.509 220.000,60.622 225.000,63.509 230.000,60.622 235.000,63.509 240.000,60.622 245.000,63.509 250.000,60.622 250.000,54.848 245.000,51.962 240.000,54.848 235.000,51.962 230.000,54.848 225.000,51.962 220.000,54.848 215.000,51.962 215.000,46.188 210.000,43.301 205.000,46.188 205.000,51.962">
<desc>j5</desc>
</polygon>
<polygon fill="red" stroke="white" stroke-width="1"
         points="250.000,54.848 250.000,60.622 255.000,63.509 255.000,63.509 260.000,60.622 260.000,54.848 265.000,51.962 270.000,54.848 275.000,51.962 275.000,46.188 270.000,43.301 270.000,37.528 265.000,34.641 260.000,37.528 260.000,43.301 255.000,46.188 250.000,43.301 245.000,46.188 245.000,51.962">
<desc>X5</desc>
</polygon>
<polygon fill="blue" stroke="white" stroke-width="1"
         points="260.000,54.848 260.000,60.622 265.000,63.509 265.000,63.509 270.000,60.622 275.000,63.509 280.000,60.622 285.000,63.509 290.000,60.622 295.000,63.509 300.000,60.622 305.000,63.509 310.000,60.622 310.000,54.848 305.000,51.962 300.000,54.848 295.000,51.962 290.000,54.848 285.000,51.962 280.000,54.848 275.000,51.962 270.000,54.848 265.000,51.962">
<desc>I5</desc>
</polygon>
<polygon fill="maroon" stroke="white" stroke-width="1"
         points="65.000,46.188 65.000,51.962 70.000,54.848 70.000,54.848 75.000,51.962 75.000,46.188 80.000,43.301 85.000,46.188 90.000,43.301 90.000,37.528 85.000,34.641 80.000,37.528 75.000,34.641 75.000,28.868 70.000,25.981 65.000,28.868 65.000,34.641 60.000,37.528 60.000,43.301">
<desc>A5</desc>
</polygon>
<polygon fill="olive" stroke="white" stroke-width="1"
         points="115.000,46.188 115.000,51.962 120.000,54.848 120.000,54.848 125.000,51.962 125.000,46.188 130.000,43.301 130.000,37.528 125.000,34.641 120.000,37.528 115.000,34.641 115.000,28.868 110.000,25.981 105.000,28.868 100.000,25.981 95.000,28.868 95.000,34.641 100.000,37.528 105.000,34.641 110.000,37.528 110.000,43.301">
<desc>Q5</desc>
</polygon>
<polygon fill="tan" stroke="white" stroke-width="1"
         points="125.000,46.188 125.000,51.962 130.000,54.848 130.000,54.848 135.000,51.962 135.000,46.188 140.000,43.301 145.000,46.188 150.000,43.301 150.000,37.528 145.000,34.641 140.000,37.528 135.000,34.641 135.000,28.868 130.000,25.981 125.000,28.868 120.000,25.981 115.000,28.868 115.000,34.641 120.000,37.528 125.000,34.641 130.000,37.528 130.000,43.301">
<desc>h5</desc>
</polygon>
<polygon fill="tan" stroke="white" stroke-width="1"
         points="225.000,46.188 225.000,51.962 230.000,54.848 230.000,54.848 235.000,51.962 240.000,54.848 245.000,51.962 245.000,46.188 250.000,43.301 255.000,46.188 260.000,43.301 260.000,37.528 255.000,34.641 250.000,37.528 245.000,34.641 245.000,28.868 240.000,25.981 235.000,28.868 235.000,34.641 240.000,37.528 240.000,43.301 235.000,46.188 230.000,43.301">
<desc>H5</desc>
</polygon>
<polygon fill="darkorange" stroke="white" stroke-width="1"
         points="275.000,46.188 275.000,51.962 280.000,54.848 280.000,54.848 285.000,51.962 290.000,54.848 295.000,51.962 300.000,54.848 305.000,51.962 305.000,46.188 300.000,43.301 295.000,46.188 290.000,43.301 285.000,46.188 280.000,43.301 280.000,37.528 275.000,34.641 275.000,28.868 270.000,25.981 265.000,28.868 265.000,34.641 270.000,37.528 270.000,43.301">
<desc>L5</desc>
</polygon>
<polygon fill="green" stroke="white" stroke-width="1"
         points="20.000,37.528 20.000,43.301 25.000,46.188 25.000,46.188 30.000,43.301 35.000,46.188 40.000,43.301 45.000,46.188 50.000,43.301 50.000,37.528 45.000,34.641 45.000,28.868 40.000,25.981 35.000,28.868 30.000,25.981 25.000,28.868 25.000,34.641">
<desc>D5</desc>
</polygon>
<polygon fill="steelblue" stroke="white" stroke-width="1"
         points="220.000,37.528 220.000,43.301 225.000,46.188 225.000,46.188 230.000,43.301 235.000,46.188 240.000,43.301 240.000,37.528 235.000,34.641 235.000,28.868 230.000,25.981 225.000,28.868 220.000,25.981 215.000,28.868 210.000,25.981 205.000,28.868 205.000,34.641 210.000,37.528 215.000,34.641">
<desc>b5</desc>
</polygon>
<polygon fill="peru" stroke="white" stroke-width="1"
         points="280.000,37.528 280.000,43.301 285.000,46.188 285.000,46.188 290.000,43.301 295.000,46.188 300.000,43.301 300.000,37.528 295.000,34.641 295.000,28.868 290.000,25.981 290.000,20.207 285.000,17.321 285.000,11.547 280.000,8.660 275.000,11.547 275.000,17.321 280.000,20.207 280.000,25.981 285.000,28.868 285.000,34.641">
<desc>p5</desc>
</polygon>
<polygon fill="magenta" stroke="white" stroke-width="1"
         points="55.000,28.868 55.000,34.641 60.000,37.528 60.000,37.528 65.000,34.641 65.000,28.868 70.000,25.981 75.000,28.868 80.000,25.981 80.000,20.207 75.000,17.321 70.000,20.207 65.000,17.321 60.000,20.207 55.000,17.321 50.000,20.207 45.000,17.321 40.000,20.207 40.000,25.981 45.000,28.868 50.000,25.981">
<desc>E5</desc>
</polygon>
<polygon fill="turquoise" stroke="white" stroke-width="1"
         points="75.000,28.868 75.000,34.641 80.000,37.528 80.000,37.528 85.000,34.641 85.000,28.868 90.000,25.981 95.000,28.868 100.000,25.981 105.000,28.868 110.000,25.981 110.000,20.207 105.000,17.321 100.000,20.207 95.000,17.321 90.000,20.207 85.000,17.321 85.000,11.547 80.000,8.660 75.000,11.547 75.000,17.321 80.000,20.207 80.000,25.981">
<desc>Y5</desc>
</polygon>
<polygon fill="gray" stroke="white" stroke-width="1"
         points="135.000,28.868 135.000,34.641 140.000,37.528 140.000,37.528 145.000,34.641 150.000,37.528 155.000,34.641 155.000,28.868 150.000,25.981 145.000,28.868 140.000,25.981 140.000,20.207 135.000,17.321 135.000,11.547 130.000,8.660 125.000,11.547 120.000,8.660 115.000,11.547 115.000,17.321 120.000,20.207 125.000,17.321 130.000,20.207 130.000,25.981">
<desc>S5</desc>
</polygon>
<polygon fill="olive" stroke="white" stroke-width="1"
         points="155.000,28.868 155.000,34.641 160.000,37.528 160.000,37.528 165.000,34.641 165.000,28.868 170.000,25.981 170.000,20.207 165.000,17.321 160.000,20.207 155.000,17.321 150.000,20.207 145.000,17.321 145.000,11.547 140.000,8.660 135.000,11.547 135.000,17.321 140.000,20.207 140.000,25.981 145.000,28.868 150.000,25.981">
<desc>q5</desc>
</polygon>
<polygon fill="yellow" stroke="white" stroke-width="1"
         points="165.000,28.868 165.000,34.641 170.000,37.528 170.000,37.528 175.000,34.641 175.000,28.868 180.000,25.981 180.000,20.207 175.000,17.321 175.000,11.547 170.000,8.660 165.000,11.547 160.000,8.660 155.000,11.547 150.000,8.660 145.000,11.547 145.000,17.321 150.000,20.207 155.000,17.321 160.000,20.207 165.000,17.321 170.000,20.207 170.000,25.981">
<desc>r5</desc>
</polygon>
<polygon fill="yellow" stroke="white" stroke-width="1"
         points="185.000,28.868 185.000,34.641 190.000,37.528 190.000,37.528 195.000,34.641 200.000,37.528 205.000,34.641 205.000,28.868 210.000,25.981 210.000,20.207 205.000,17.321 200.000,20.207 200.000,25.981 195.000,28.868 190.000,25.981 190.000,20.207 185.000,17.321 185.000,11.547 180.000,8.660 175.000,11.547 175.000,17.321 180.000,20.207 180.000,25.981">
<desc>R5</desc>
</polygon>
<polygon fill="indigo" stroke="white" stroke-width="1"
         points="245.000,28.868 245.000,34.641 250.000,37.528 250.000,37.528 255.000,34.641 260.000,37.528 265.000,34.641 265.000,28.868 270.000,25.981 275.000,28.868 275.000,34.641 280.000,37.528 285.000,34.641 285.000,28.868 280.000,25.981 280.000,20.207 275.000,17.321 270.000,20.207 265.000,17.321 260.000,20.207 260.000,25.981 255.000,28.868 250.000,25.981">
<desc>G5</desc>
</polygon>
<polygon fill="darkseagreen" stroke="white" stroke-width="1"
         points="30.000,20.207 30.000,25.981 35.000,28.868 35.000,28.868 40.000,25.981 40.000,20.207 45.000,17.321 50.000,20.207 55.000,17.321 60.000,20.207 65.000,17.321 70.000,20.207 75.000,17.321 75.000,11.547 70.000,8.660 65.000,11.547 60.000,8.660 55.000,11.547 50.000,8.660 45.000,11.547 40.000,8.660 35.000,11.547 35.000,17.321">
<desc>J5</desc>
</polygon>
<polygon fill="plum" stroke="white" stroke-width="1"
         points="110.000,20.207 110.000,25.981 115.000,28.868 115.000,28.868 120.000,25.981 125.000,28.868 130.000,25.981 130.000,20.207 125.000,17.321 120.000,20.207 115.000,17.321 115.000,11.547 110.000,8.660 105.000,11.547 100.000,8.660 95.000,11.547 90.000,8.660 85.000,11.547 85.000,17.321 90.000,20.207 95.000,17.321 100.000,20.207 105.000,17.321">
<desc>n5</desc>
</polygon>
<polygon fill="lightcoral" stroke="white" stroke-width="1"
         points="190.000,20.207 190.000,25.981 195.000,28.868 195.000,28.868 200.000,25.981 200.000,20.207 205.000,17.321 210.000,20.207 210.000,25.981 215.000,28.868 220.000,25.981 220.000,20.207 215.000,17.321 215.000,11.547 210.000,8.660 205.000,11.547 200.000,8.660 195.000,11.547 190.000,8.660 185.000,11.547 185.000,17.321">
<desc>f5</desc>
</polygon>
<polygon fill="peru" stroke="white" stroke-width="1"
         points="220.000,20.207 220.000,25.981 225.000,28.868 225.000,28.868 230.000,25.981 230.000,20.207 235.000,17.321 240.000,20.207 245.000,17.321 250.000,20.207 255.000,17.321 255.000,11.547 250.000,8.660 245.000,11.547 240.000,8.660 235.000,11.547 230.000,8.660 225.000,11.547 220.000,8.660 215.000,11.547 215.000,17.321">
<desc>P5</desc>
</polygon>
<polygon fill="plum" stroke="white" stroke-width="1"
         points="230.000,20.207 230.000,25.981 235.000,28.868 235.000,28.868 240.000,25.981 245.000,28.868 250.000,25.981 255.000,28.868 260.000,25.981 260.000,20.207 265.000,17.321 270.000,20.207 275.000,17.321 275.000,11.547 270.000,8.660 265.000,11.547 260.000,8.660 255.000,11.547 255.000,17.321 250.000,20.207 245.000,17.321 240.000,20.207 235.000,17.321">
<desc>N5</desc>
</polygon>
</g>
</svg>
