<?xml version="1.0" standalone="no"?>
<!-- Created by Polyform Puzzler (http://puzzler.sourceforge.net/) -->
<svg width="310.000" height="138.564"
     viewBox="0 0 310.000 138.564"
     xmlns="http://www.w3.org/2000/svg"
     xmlns:xlink="http://www.w3.org/1999/xlink">
<g>
<polygon fill="olive" stroke="white" stroke-width="1"
         points="10.000,124.130 10.000,129.904 15.000,132.791 15.000,132.791 20.000,129.904 25.000,132.791 30.000,129.904 30.000,124.130 25.000,121.244 25.000,115.470 20.000,112.583 15.000,115.470 15.000,121.244">
<desc>A3</desc>
</polygon>
<polygon fill="maroon" stroke="white" stroke-width="1"
         points="30.000,124.130 30.000,129.904 35.000,132.791 35.000,132.791 40.000,129.904 40.000,124.130 45.000,121.244 50.000,124.130 55.000,121.244 55.000,115.470 50.000,112.583 45.000,115.470 40.000,112.583 40.000,106.810 35.000,103.923 30.000,106.810 30.000,112.583 25.000,115.470 25.000,121.244">
<desc>A5</desc>
</polygon>
<polygon fill="indigo" stroke="white" stroke-width="1"
         points="40.000,124.130 40.000,129.904 45.000,132.791 45.000,132.791 50.000,129.904 55.000,132.791 60.000,129.904 60.000,124.130 65.000,121.244 65.000,115.470 60.000,112.583 60.000,106.810 65.000,103.923 65.000,98.150 60.000,95.263 55.000,98.150 55.000,103.923 50.000,106.810 50.000,112.583 55.000,115.470 55.000,121.244 50.000,124.130 45.000,121.244">
<desc>G5</desc>
</polygon>
<polygon fill="tan" stroke="white" stroke-width="1"
         points="60.000,124.130 60.000,129.904 65.000,132.791 65.000,132.791 70.000,129.904 75.000,132.791 80.000,129.904 80.000,124.130 85.000,121.244 90.000,124.130 95.000,121.244 95.000,115.470 90.000,112.583 85.000,115.470 80.000,112.583 80.000,106.810 75.000,103.923 70.000,106.810 70.000,112.583 75.000,115.470 75.000,121.244 70.000,124.130 65.000,121.244">
<desc>H5</desc>
</polygon>
<polygon fill="teal" stroke="white" stroke-width="1"
         points="80.000,124.130 80.000,129.904 85.000,132.791 85.000,132.791 90.000,129.904 95.000,132.791 100.000,129.904 105.000,132.791 110.000,129.904 110.000,124.130 105.000,121.244 100.000,124.130 95.000,121.244 90.000,124.130 85.000,121.244">
<desc>I3</desc>
</polygon>
<polygon fill="yellow" stroke="white" stroke-width="1"
         points="110.000,124.130 110.000,129.904 115.000,132.791 115.000,132.791 120.000,129.904 125.000,132.791 130.000,129.904 135.000,132.791 140.000,129.904 140.000,124.130 135.000,121.244 130.000,124.130 125.000,121.244 120.000,124.130 115.000,121.244 115.000,115.470 120.000,112.583 120.000,106.810 115.000,103.923 110.000,106.810 110.000,112.583 105.000,115.470 105.000,121.244">
<desc>r5</desc>
</polygon>
<polygon fill="blueviolet" stroke="white" stroke-width="1"
         points="140.000,124.130 140.000,129.904 145.000,132.791 145.000,132.791 150.000,129.904 155.000,132.791 160.000,129.904 160.000,124.130 165.000,121.244 165.000,115.470 170.000,112.583 170.000,106.810 165.000,103.923 160.000,106.810 160.000,112.583 155.000,115.470 155.000,121.244 150.000,124.130 145.000,121.244">
<desc>j4</desc>
</polygon>
<polygon fill="plum" stroke="white" stroke-width="1"
         points="160.000,124.130 160.000,129.904 165.000,132.791 165.000,132.791 170.000,129.904 170.000,124.130 175.000,121.244 175.000,115.470 180.000,112.583 185.000,115.470 190.000,112.583 190.000,106.810 195.000,103.923 195.000,98.150 190.000,95.263 185.000,98.150 185.000,103.923 180.000,106.810 175.000,103.923 170.000,106.810 170.000,112.583 165.000,115.470 165.000,121.244">
<desc>n5</desc>
</polygon>
<polygon fill="green" stroke="white" stroke-width="1"
         points="170.000,124.130 170.000,129.904 175.000,132.791 175.000,132.791 180.000,129.904 185.000,132.791 190.000,129.904 195.000,132.791 200.000,129.904 200.000,124.130 195.000,121.244 195.000,115.470 190.000,112.583 185.000,115.470 180.000,112.583 175.000,115.470 175.000,121.244">
<desc>D5</desc>
</polygon>
<polygon fill="lime" stroke="white" stroke-width="1"
         points="200.000,124.130 200.000,129.904 205.000,132.791 205.000,132.791 210.000,129.904 215.000,132.791 220.000,129.904 220.000,124.130 215.000,121.244 210.000,124.130 205.000,121.244 205.000,115.470 200.000,112.583 200.000,106.810 205.000,103.923 205.000,98.150 200.000,95.263 195.000,98.150 195.000,103.923 190.000,106.810 190.000,112.583 195.000,115.470 195.000,121.244">
<desc>C5</desc>
</polygon>
<polygon fill="steelblue" stroke="white" stroke-width="1"
         points="220.000,124.130 220.000,129.904 225.000,132.791 225.000,132.791 230.000,129.904 230.000,124.130 225.000,121.244 225.000,115.470 220.000,112.583 220.000,106.810 215.000,103.923 210.000,106.810 205.000,103.923 200.000,106.810 200.000,112.583 205.000,115.470 205.000,121.244 210.000,124.130 215.000,121.244">
<desc>B5</desc>
</polygon>
<polygon fill="steelblue" stroke="white" stroke-width="1"
         points="65.000,115.470 65.000,121.244 70.000,124.130 70.000,124.130 75.000,121.244 75.000,115.470 70.000,112.583 70.000,106.810 65.000,103.923 60.000,106.810 60.000,112.583">
<desc>I2</desc>
</polygon>
<polygon fill="olive" stroke="white" stroke-width="1"
         points="95.000,115.470 95.000,121.244 100.000,124.130 100.000,124.130 105.000,121.244 105.000,115.470 110.000,112.583 110.000,106.810 115.000,103.923 120.000,106.810 125.000,103.923 125.000,98.150 120.000,95.263 115.000,98.150 110.000,95.263 105.000,98.150 105.000,103.923 100.000,106.810 95.000,103.923 90.000,106.810 90.000,112.583">
<desc>q5</desc>
</polygon>
<polygon fill="peru" stroke="white" stroke-width="1"
         points="115.000,115.470 115.000,121.244 120.000,124.130 120.000,124.130 125.000,121.244 130.000,124.130 135.000,121.244 140.000,124.130 145.000,121.244 150.000,124.130 155.000,121.244 155.000,115.470 150.000,112.583 145.000,115.470 140.000,112.583 135.000,115.470 130.000,112.583 130.000,106.810 125.000,103.923 120.000,106.810 120.000,112.583">
<desc>p5</desc>
</polygon>
<polygon fill="lightcoral" stroke="white" stroke-width="1"
         points="20.000,106.810 20.000,112.583 25.000,115.470 25.000,115.470 30.000,112.583 30.000,106.810 35.000,103.923 40.000,106.810 40.000,112.583 45.000,115.470 50.000,112.583 50.000,106.810 55.000,103.923 55.000,98.150 50.000,95.263 45.000,98.150 40.000,95.263 35.000,98.150 30.000,95.263 25.000,98.150 25.000,103.923">
<desc>F5</desc>
</polygon>
<polygon fill="plum" stroke="white" stroke-width="1"
         points="80.000,106.810 80.000,112.583 85.000,115.470 85.000,115.470 90.000,112.583 90.000,106.810 85.000,103.923 85.000,98.150 80.000,95.263 75.000,98.150 70.000,95.263 65.000,98.150 65.000,103.923 70.000,106.810 75.000,103.923">
<desc>V3</desc>
</polygon>
<polygon fill="turquoise" stroke="white" stroke-width="1"
         points="130.000,106.810 130.000,112.583 135.000,115.470 135.000,115.470 140.000,112.583 140.000,106.810 135.000,103.923 135.000,98.150 130.000,95.263 130.000,89.489 135.000,86.603 135.000,80.829 130.000,77.942 125.000,80.829 125.000,86.603 120.000,89.489 115.000,86.603 110.000,89.489 110.000,95.263 115.000,98.150 120.000,95.263 125.000,98.150 125.000,103.923">
<desc>Y5</desc>
</polygon>
<polygon fill="teal" stroke="white" stroke-width="1"
         points="140.000,106.810 140.000,112.583 145.000,115.470 145.000,115.470 150.000,112.583 150.000,106.810 155.000,103.923 155.000,98.150 160.000,95.263 165.000,98.150 170.000,95.263 170.000,89.489 165.000,86.603 160.000,89.489 155.000,86.603 150.000,89.489 145.000,86.603 140.000,89.489 140.000,95.263 145.000,98.150 145.000,103.923">
<desc>t5</desc>
</polygon>
<polygon fill="indigo" stroke="white" stroke-width="1"
         points="150.000,106.810 150.000,112.583 155.000,115.470 155.000,115.470 160.000,112.583 160.000,106.810 165.000,103.923 170.000,106.810 175.000,103.923 175.000,98.150 180.000,95.263 180.000,89.489 175.000,86.603 175.000,80.829 170.000,77.942 165.000,80.829 165.000,86.603 170.000,89.489 170.000,95.263 165.000,98.150 160.000,95.263 155.000,98.150 155.000,103.923">
<desc>g5</desc>
</polygon>
<polygon fill="gray" stroke="white" stroke-width="1"
         points="85.000,98.150 85.000,103.923 90.000,106.810 90.000,106.810 95.000,103.923 100.000,106.810 105.000,103.923 105.000,98.150 110.000,95.263 110.000,89.489 115.000,86.603 120.000,89.489 125.000,86.603 125.000,80.829 120.000,77.942 115.000,80.829 110.000,77.942 105.000,80.829 105.000,86.603 100.000,89.489 100.000,95.263 95.000,98.150 90.000,95.263">
<desc>s5</desc>
</polygon>
<polygon fill="tan" stroke="white" stroke-width="1"
         points="135.000,98.150 135.000,103.923 140.000,106.810 140.000,106.810 145.000,103.923 145.000,98.150 140.000,95.263 140.000,89.489 145.000,86.603 150.000,89.489 155.000,86.603 155.000,80.829 150.000,77.942 145.000,80.829 140.000,77.942 140.000,72.169 135.000,69.282 130.000,72.169 130.000,77.942 135.000,80.829 135.000,86.603 130.000,89.489 130.000,95.263">
<desc>h5</desc>
</polygon>
<polygon fill="darkseagreen" stroke="white" stroke-width="1"
         points="175.000,98.150 175.000,103.923 180.000,106.810 180.000,106.810 185.000,103.923 185.000,98.150 190.000,95.263 190.000,89.489 185.000,86.603 185.000,80.829 180.000,77.942 180.000,72.169 175.000,69.282 175.000,63.509 170.000,60.622 165.000,63.509 165.000,69.282 170.000,72.169 170.000,77.942 175.000,80.829 175.000,86.603 180.000,89.489 180.000,95.263">
<desc>j5</desc>
</polygon>
<polygon fill="magenta" stroke="white" stroke-width="1"
         points="205.000,98.150 205.000,103.923 210.000,106.810 210.000,106.810 215.000,103.923 215.000,98.150 210.000,95.263 210.000,89.489 205.000,86.603 205.000,80.829 200.000,77.942 200.000,72.169 195.000,69.282 190.000,72.169 190.000,77.942 195.000,80.829 195.000,86.603 190.000,89.489 190.000,95.263 195.000,98.150 200.000,95.263">
<desc>E5</desc>
</polygon>
<polygon fill="gray" stroke="white" stroke-width="1"
         points="30.000,89.489 30.000,95.263 35.000,98.150 35.000,98.150 40.000,95.263 40.000,89.489 35.000,86.603">
<desc>H1</desc>
</polygon>
<polygon fill="blue" stroke="white" stroke-width="1"
         points="40.000,89.489 40.000,95.263 45.000,98.150 45.000,98.150 50.000,95.263 50.000,89.489 55.000,86.603 55.000,80.829 60.000,77.942 60.000,72.169 65.000,69.282 65.000,63.509 70.000,60.622 70.000,54.848 65.000,51.962 60.000,54.848 60.000,60.622 55.000,63.509 55.000,69.282 50.000,72.169 50.000,77.942 45.000,80.829 45.000,86.603">
<desc>I5</desc>
</polygon>
<polygon fill="blueviolet" stroke="white" stroke-width="1"
         points="50.000,89.489 50.000,95.263 55.000,98.150 55.000,98.150 60.000,95.263 60.000,89.489 65.000,86.603 70.000,89.489 75.000,86.603 80.000,89.489 85.000,86.603 85.000,80.829 80.000,77.942 75.000,80.829 70.000,77.942 65.000,80.829 60.000,77.942 55.000,80.829 55.000,86.603">
<desc>J4</desc>
</polygon>
<polygon fill="darkseagreen" stroke="white" stroke-width="1"
         points="60.000,89.489 60.000,95.263 65.000,98.150 65.000,98.150 70.000,95.263 75.000,98.150 80.000,95.263 85.000,98.150 90.000,95.263 95.000,98.150 100.000,95.263 100.000,89.489 105.000,86.603 105.000,80.829 100.000,77.942 95.000,80.829 95.000,86.603 90.000,89.489 85.000,86.603 80.000,89.489 75.000,86.603 70.000,89.489 65.000,86.603">
<desc>J5</desc>
</polygon>
<polygon fill="blue" stroke="white" stroke-width="1"
         points="35.000,80.829 35.000,86.603 40.000,89.489 40.000,89.489 45.000,86.603 45.000,80.829 50.000,77.942 50.000,72.169 55.000,69.282 55.000,63.509 60.000,60.622 60.000,54.848 55.000,51.962 50.000,54.848 50.000,60.622 45.000,63.509 45.000,69.282 40.000,72.169 40.000,77.942">
<desc>I4</desc>
</polygon>
<polygon fill="olive" stroke="white" stroke-width="1"
         points="85.000,80.829 85.000,86.603 90.000,89.489 90.000,89.489 95.000,86.603 95.000,80.829 100.000,77.942 105.000,80.829 110.000,77.942 115.000,80.829 120.000,77.942 120.000,72.169 115.000,69.282 115.000,63.509 110.000,60.622 105.000,63.509 105.000,69.282 100.000,72.169 95.000,69.282 90.000,72.169 90.000,77.942">
<desc>Q5</desc>
</polygon>
<polygon fill="lightcoral" stroke="white" stroke-width="1"
         points="155.000,80.829 155.000,86.603 160.000,89.489 160.000,89.489 165.000,86.603 165.000,80.829 170.000,77.942 170.000,72.169 165.000,69.282 165.000,63.509 160.000,60.622 160.000,54.848 155.000,51.962 150.000,54.848 150.000,60.622 145.000,63.509 145.000,69.282 150.000,72.169 155.000,69.282 160.000,72.169 160.000,77.942">
<desc>f5</desc>
</polygon>
<polygon fill="navy" stroke="white" stroke-width="1"
         points="185.000,80.829 185.000,86.603 190.000,89.489 190.000,89.489 195.000,86.603 195.000,80.829 190.000,77.942 190.000,72.169 195.000,69.282 195.000,63.509 190.000,60.622 190.000,54.848 185.000,51.962 180.000,54.848 180.000,60.622 185.000,63.509 185.000,69.282 180.000,72.169 180.000,77.942">
<desc>s4</desc>
</polygon>
<polygon fill="darkorange" stroke="white" stroke-width="1"
         points="60.000,72.169 60.000,77.942 65.000,80.829 65.000,80.829 70.000,77.942 70.000,72.169 75.000,69.282 75.000,63.509 80.000,60.622 85.000,63.509 90.000,60.622 95.000,63.509 100.000,60.622 100.000,54.848 95.000,51.962 90.000,54.848 85.000,51.962 80.000,54.848 75.000,51.962 70.000,54.848 70.000,60.622 65.000,63.509 65.000,69.282">
<desc>L5</desc>
</polygon>
<polygon fill="red" stroke="white" stroke-width="1"
         points="70.000,72.169 70.000,77.942 75.000,80.829 75.000,80.829 80.000,77.942 85.000,80.829 90.000,77.942 90.000,72.169 95.000,69.282 95.000,63.509 90.000,60.622 85.000,63.509 80.000,60.622 75.000,63.509 75.000,69.282">
<desc>O4</desc>
</polygon>
<polygon fill="yellow" stroke="white" stroke-width="1"
         points="120.000,72.169 120.000,77.942 125.000,80.829 125.000,80.829 130.000,77.942 130.000,72.169 125.000,69.282 125.000,63.509 120.000,60.622 120.000,54.848 115.000,51.962 110.000,54.848 105.000,51.962 100.000,54.848 100.000,60.622 95.000,63.509 95.000,69.282 100.000,72.169 105.000,69.282 105.000,63.509 110.000,60.622 115.000,63.509 115.000,69.282">
<desc>R5</desc>
</polygon>
<polygon fill="gold" stroke="white" stroke-width="1"
         points="140.000,72.169 140.000,77.942 145.000,80.829 145.000,80.829 150.000,77.942 155.000,80.829 160.000,77.942 160.000,72.169 155.000,69.282 150.000,72.169 145.000,69.282 145.000,63.509 140.000,60.622 135.000,63.509 130.000,60.622 130.000,54.848 125.000,51.962 120.000,54.848 120.000,60.622 125.000,63.509 125.000,69.282 130.000,72.169 135.000,69.282">
<desc>W5</desc>
</polygon>
<polygon fill="green" stroke="white" stroke-width="1"
         points="175.000,63.509 175.000,69.282 180.000,72.169 180.000,72.169 185.000,69.282 185.000,63.509 180.000,60.622 180.000,54.848 185.000,51.962 185.000,46.188 180.000,43.301 175.000,46.188 175.000,51.962 170.000,54.848 165.000,51.962 160.000,54.848 160.000,60.622 165.000,63.509 170.000,60.622">
<desc>Y4</desc>
</polygon>
<polygon fill="blueviolet" stroke="white" stroke-width="1"
         points="130.000,54.848 130.000,60.622 135.000,63.509 135.000,63.509 140.000,60.622 140.000,54.848 145.000,51.962 145.000,46.188 150.000,43.301 150.000,37.528 145.000,34.641 140.000,37.528 135.000,34.641 130.000,37.528 125.000,34.641 120.000,37.528 120.000,43.301 125.000,46.188 130.000,43.301 135.000,46.188 135.000,51.962">
<desc>V5</desc>
</polygon>
<polygon fill="gold" stroke="white" stroke-width="1"
         points="140.000,54.848 140.000,60.622 145.000,63.509 145.000,63.509 150.000,60.622 150.000,54.848 155.000,51.962 160.000,54.848 165.000,51.962 165.000,46.188 160.000,43.301 160.000,37.528 155.000,34.641 150.000,37.528 150.000,43.301 145.000,46.188 145.000,51.962">
<desc>p4</desc>
</polygon>
<polygon fill="plum" stroke="white" stroke-width="1"
         points="55.000,46.188 55.000,51.962 60.000,54.848 60.000,54.848 65.000,51.962 70.000,54.848 75.000,51.962 75.000,46.188 80.000,43.301 85.000,46.188 90.000,43.301 95.000,46.188 100.000,43.301 100.000,37.528 95.000,34.641 90.000,37.528 85.000,34.641 80.000,37.528 75.000,34.641 70.000,37.528 70.000,43.301 65.000,46.188 60.000,43.301">
<desc>N5</desc>
</polygon>
<polygon fill="peru" stroke="white" stroke-width="1"
         points="75.000,46.188 75.000,51.962 80.000,54.848 80.000,54.848 85.000,51.962 90.000,54.848 95.000,51.962 100.000,54.848 105.000,51.962 110.000,54.848 115.000,51.962 115.000,46.188 110.000,43.301 110.000,37.528 105.000,34.641 100.000,37.528 100.000,43.301 95.000,46.188 90.000,43.301 85.000,46.188 80.000,43.301">
<desc>P5</desc>
</polygon>
<polygon fill="gray" stroke="white" stroke-width="1"
         points="115.000,46.188 115.000,51.962 120.000,54.848 120.000,54.848 125.000,51.962 130.000,54.848 135.000,51.962 135.000,46.188 130.000,43.301 125.000,46.188 120.000,43.301 120.000,37.528 115.000,34.641 115.000,28.868 110.000,25.981 105.000,28.868 100.000,25.981 95.000,28.868 95.000,34.641 100.000,37.528 105.000,34.641 110.000,37.528 110.000,43.301">
<desc>S5</desc>
</polygon>
<polygon fill="steelblue" stroke="white" stroke-width="1"
         points="165.000,46.188 165.000,51.962 170.000,54.848 170.000,54.848 175.000,51.962 175.000,46.188 180.000,43.301 180.000,37.528 175.000,34.641 175.000,28.868 170.000,25.981 170.000,20.207 165.000,17.321 160.000,20.207 160.000,25.981 165.000,28.868 165.000,34.641 160.000,37.528 160.000,43.301">
<desc>b5</desc>
</polygon>
<polygon fill="teal" stroke="white" stroke-width="1"
         points="60.000,37.528 60.000,43.301 65.000,46.188 65.000,46.188 70.000,43.301 70.000,37.528 75.000,34.641 80.000,37.528 85.000,34.641 90.000,37.528 95.000,34.641 95.000,28.868 90.000,25.981 85.000,28.868 80.000,25.981 80.000,20.207 75.000,17.321 70.000,20.207 70.000,25.981 65.000,28.868 65.000,34.641">
<desc>T5</desc>
</polygon>
<polygon fill="lime" stroke="white" stroke-width="1"
         points="115.000,28.868 115.000,34.641 120.000,37.528 120.000,37.528 125.000,34.641 130.000,37.528 135.000,34.641 135.000,28.868 140.000,25.981 140.000,20.207 135.000,17.321 130.000,20.207 130.000,25.981 125.000,28.868 120.000,25.981 120.000,20.207 115.000,17.321 110.000,20.207 110.000,25.981">
<desc>U4</desc>
</polygon>
<polygon fill="navy" stroke="white" stroke-width="1"
         points="135.000,28.868 135.000,34.641 140.000,37.528 140.000,37.528 145.000,34.641 145.000,28.868 150.000,25.981 150.000,20.207 145.000,17.321 145.000,11.547 140.000,8.660 135.000,11.547 130.000,8.660 125.000,11.547 125.000,17.321 120.000,20.207 120.000,25.981 125.000,28.868 130.000,25.981 130.000,20.207 135.000,17.321 140.000,20.207 140.000,25.981">
<desc>U5</desc>
</polygon>
<polygon fill="red" stroke="white" stroke-width="1"
         points="145.000,28.868 145.000,34.641 150.000,37.528 150.000,37.528 155.000,34.641 160.000,37.528 165.000,34.641 165.000,28.868 160.000,25.981 160.000,20.207 165.000,17.321 165.000,11.547 160.000,8.660 155.000,11.547 150.000,8.660 145.000,11.547 145.000,17.321 150.000,20.207 150.000,25.981">
<desc>X5</desc>
</polygon>
<polygon fill="gold" stroke="white" stroke-width="1"
         points="80.000,20.207 80.000,25.981 85.000,28.868 85.000,28.868 90.000,25.981 90.000,20.207 95.000,17.321 100.000,20.207 105.000,17.321 105.000,11.547 100.000,8.660 95.000,11.547 90.000,8.660 85.000,11.547 80.000,8.660 75.000,11.547 75.000,17.321">
<desc>P4</desc>
</polygon>
<polygon fill="navy" stroke="white" stroke-width="1"
         points="90.000,20.207 90.000,25.981 95.000,28.868 95.000,28.868 100.000,25.981 105.000,28.868 110.000,25.981 110.000,20.207 115.000,17.321 120.000,20.207 125.000,17.321 125.000,11.547 120.000,8.660 115.000,11.547 110.000,8.660 105.000,11.547 105.000,17.321 100.000,20.207 95.000,17.321">
<desc>S4</desc>
</polygon>
</g>
</svg>
