<?xml version="1.0" standalone="no"?>
<!-- Created by Polyform Puzzler (http://puzzler.sourceforge.net/) -->
<svg width="365.000" height="77.942"
     viewBox="0 0 365.000 77.942"
     xmlns="http://www.w3.org/2000/svg"
     xmlns:xlink="http://www.w3.org/1999/xlink">
<g>
<polygon fill="olive" stroke="white" stroke-width="1"
         points="10.000,63.509 10.000,69.282 15.000,72.169 15.000,72.169 20.000,69.282 25.000,72.169 30.000,69.282 30.000,63.509 25.000,60.622 25.000,54.848 20.000,51.962 15.000,54.848 15.000,60.622">
<desc>A3</desc>
</polygon>
<polygon fill="darkseagreen" stroke="white" stroke-width="1"
         points="30.000,63.509 30.000,69.282 35.000,72.169 35.000,72.169 40.000,69.282 45.000,72.169 50.000,69.282 55.000,72.169 60.000,69.282 65.000,72.169 70.000,69.282 70.000,63.509 65.000,60.622 60.000,63.509 55.000,60.622 50.000,63.509 45.000,60.622 40.000,63.509 35.000,60.622 35.000,54.848 30.000,51.962 25.000,54.848 25.000,60.622">
<desc>j5</desc>
</polygon>
<polygon fill="plum" stroke="white" stroke-width="1"
         points="70.000,63.509 70.000,69.282 75.000,72.169 75.000,72.169 80.000,69.282 85.000,72.169 90.000,69.282 90.000,63.509 85.000,60.622 80.000,63.509 75.000,60.622 75.000,54.848 70.000,51.962 65.000,54.848 60.000,51.962 55.000,54.848 50.000,51.962 45.000,54.848 45.000,60.622 50.000,63.509 55.000,60.622 60.000,63.509 65.000,60.622">
<desc>n5</desc>
</polygon>
<polygon fill="indigo" stroke="white" stroke-width="1"
         points="90.000,63.509 90.000,69.282 95.000,72.169 95.000,72.169 100.000,69.282 100.000,63.509 95.000,60.622 95.000,54.848 100.000,51.962 105.000,54.848 110.000,51.962 110.000,46.188 115.000,43.301 115.000,37.528 110.000,34.641 105.000,37.528 105.000,43.301 100.000,46.188 95.000,43.301 90.000,46.188 90.000,51.962 85.000,54.848 85.000,60.622">
<desc>g5</desc>
</polygon>
<polygon fill="olive" stroke="white" stroke-width="1"
         points="100.000,63.509 100.000,69.282 105.000,72.169 105.000,72.169 110.000,69.282 110.000,63.509 115.000,60.622 115.000,54.848 120.000,51.962 125.000,54.848 130.000,51.962 130.000,46.188 125.000,43.301 120.000,46.188 115.000,43.301 110.000,46.188 110.000,51.962 105.000,54.848 100.000,51.962 95.000,54.848 95.000,60.622">
<desc>q5</desc>
</polygon>
<polygon fill="steelblue" stroke="white" stroke-width="1"
         points="110.000,63.509 110.000,69.282 115.000,72.169 115.000,72.169 120.000,69.282 125.000,72.169 130.000,69.282 130.000,63.509 135.000,60.622 135.000,54.848 140.000,51.962 140.000,46.188 135.000,43.301 130.000,46.188 130.000,51.962 125.000,54.848 120.000,51.962 115.000,54.848 115.000,60.622">
<desc>b5</desc>
</polygon>
<polygon fill="blueviolet" stroke="white" stroke-width="1"
         points="130.000,63.509 130.000,69.282 135.000,72.169 135.000,72.169 140.000,69.282 145.000,72.169 150.000,69.282 155.000,72.169 160.000,69.282 160.000,63.509 155.000,60.622 150.000,63.509 145.000,60.622 145.000,54.848 150.000,51.962 150.000,46.188 145.000,43.301 140.000,46.188 140.000,51.962 135.000,54.848 135.000,60.622">
<desc>V5</desc>
</polygon>
<polygon fill="green" stroke="white" stroke-width="1"
         points="160.000,63.509 160.000,69.282 165.000,72.169 165.000,72.169 170.000,69.282 170.000,63.509 165.000,60.622 165.000,54.848 170.000,51.962 170.000,46.188 165.000,43.301 160.000,46.188 160.000,51.962 155.000,54.848 150.000,51.962 145.000,54.848 145.000,60.622 150.000,63.509 155.000,60.622">
<desc>Y4</desc>
</polygon>
<polygon fill="olive" stroke="white" stroke-width="1"
         points="170.000,63.509 170.000,69.282 175.000,72.169 175.000,72.169 180.000,69.282 185.000,72.169 190.000,69.282 190.000,63.509 185.000,60.622 185.000,54.848 190.000,51.962 190.000,46.188 185.000,43.301 185.000,37.528 180.000,34.641 175.000,37.528 175.000,43.301 180.000,46.188 180.000,51.962 175.000,54.848 175.000,60.622">
<desc>Q5</desc>
</polygon>
<polygon fill="blueviolet" stroke="white" stroke-width="1"
         points="190.000,63.509 190.000,69.282 195.000,72.169 195.000,72.169 200.000,69.282 205.000,72.169 210.000,69.282 215.000,72.169 220.000,69.282 220.000,63.509 215.000,60.622 210.000,63.509 205.000,60.622 200.000,63.509 195.000,60.622 195.000,54.848 190.000,51.962 185.000,54.848 185.000,60.622">
<desc>j4</desc>
</polygon>
<polygon fill="blue" stroke="white" stroke-width="1"
         points="220.000,63.509 220.000,69.282 225.000,72.169 225.000,72.169 230.000,69.282 235.000,72.169 240.000,69.282 245.000,72.169 250.000,69.282 255.000,72.169 260.000,69.282 265.000,72.169 270.000,69.282 270.000,63.509 265.000,60.622 260.000,63.509 255.000,60.622 250.000,63.509 245.000,60.622 240.000,63.509 235.000,60.622 230.000,63.509 225.000,60.622">
<desc>I5</desc>
</polygon>
<polygon fill="teal" stroke="white" stroke-width="1"
         points="270.000,63.509 270.000,69.282 275.000,72.169 275.000,72.169 280.000,69.282 285.000,72.169 290.000,69.282 295.000,72.169 300.000,69.282 300.000,63.509 295.000,60.622 290.000,63.509 285.000,60.622 280.000,63.509 275.000,60.622">
<desc>I3</desc>
</polygon>
<polygon fill="lightcoral" stroke="white" stroke-width="1"
         points="300.000,63.509 300.000,69.282 305.000,72.169 305.000,72.169 310.000,69.282 315.000,72.169 320.000,69.282 320.000,63.509 315.000,60.622 310.000,63.509 305.000,60.622 305.000,54.848 310.000,51.962 310.000,46.188 305.000,43.301 300.000,46.188 295.000,43.301 290.000,46.188 290.000,51.962 295.000,54.848 295.000,60.622">
<desc>F5</desc>
</polygon>
<polygon fill="red" stroke="white" stroke-width="1"
         points="35.000,54.848 35.000,60.622 40.000,63.509 40.000,63.509 45.000,60.622 45.000,54.848 50.000,51.962 50.000,46.188 45.000,43.301 40.000,46.188 35.000,43.301 35.000,37.528 30.000,34.641 25.000,37.528 25.000,43.301 20.000,46.188 20.000,51.962 25.000,54.848 30.000,51.962">
<desc>X5</desc>
</polygon>
<polygon fill="peru" stroke="white" stroke-width="1"
         points="75.000,54.848 75.000,60.622 80.000,63.509 80.000,63.509 85.000,60.622 85.000,54.848 90.000,51.962 90.000,46.188 95.000,43.301 95.000,37.528 100.000,34.641 100.000,28.868 95.000,25.981 90.000,28.868 90.000,34.641 85.000,37.528 85.000,43.301 80.000,46.188 75.000,43.301 70.000,46.188 70.000,51.962">
<desc>p5</desc>
</polygon>
<polygon fill="navy" stroke="white" stroke-width="1"
         points="165.000,54.848 165.000,60.622 170.000,63.509 170.000,63.509 175.000,60.622 175.000,54.848 180.000,51.962 180.000,46.188 175.000,43.301 175.000,37.528 170.000,34.641 165.000,37.528 160.000,34.641 155.000,37.528 155.000,43.301 150.000,46.188 150.000,51.962 155.000,54.848 160.000,51.962 160.000,46.188 165.000,43.301 170.000,46.188 170.000,51.962">
<desc>U5</desc>
</polygon>
<polygon fill="darkorange" stroke="white" stroke-width="1"
         points="195.000,54.848 195.000,60.622 200.000,63.509 200.000,63.509 205.000,60.622 210.000,63.509 215.000,60.622 220.000,63.509 225.000,60.622 225.000,54.848 220.000,51.962 215.000,54.848 210.000,51.962 205.000,54.848 200.000,51.962 200.000,46.188 195.000,43.301 195.000,37.528 190.000,34.641 185.000,37.528 185.000,43.301 190.000,46.188 190.000,51.962">
<desc>L5</desc>
</polygon>
<polygon fill="darkseagreen" stroke="white" stroke-width="1"
         points="225.000,54.848 225.000,60.622 230.000,63.509 230.000,63.509 235.000,60.622 240.000,63.509 245.000,60.622 245.000,54.848 240.000,51.962 235.000,54.848 230.000,51.962 230.000,46.188 225.000,43.301 225.000,37.528 220.000,34.641 220.000,28.868 215.000,25.981 210.000,28.868 210.000,34.641 215.000,37.528 215.000,43.301 220.000,46.188 220.000,51.962">
<desc>J5</desc>
</polygon>
<polygon fill="blueviolet" stroke="white" stroke-width="1"
         points="245.000,54.848 245.000,60.622 250.000,63.509 250.000,63.509 255.000,60.622 255.000,54.848 260.000,51.962 265.000,54.848 270.000,51.962 275.000,54.848 280.000,51.962 280.000,46.188 275.000,43.301 270.000,46.188 265.000,43.301 260.000,46.188 255.000,43.301 250.000,46.188 250.000,51.962">
<desc>J4</desc>
</polygon>
<polygon fill="blue" stroke="white" stroke-width="1"
         points="255.000,54.848 255.000,60.622 260.000,63.509 260.000,63.509 265.000,60.622 270.000,63.509 275.000,60.622 280.000,63.509 285.000,60.622 290.000,63.509 295.000,60.622 295.000,54.848 290.000,51.962 285.000,54.848 280.000,51.962 275.000,54.848 270.000,51.962 265.000,54.848 260.000,51.962">
<desc>I4</desc>
</polygon>
<polygon fill="gray" stroke="white" stroke-width="1"
         points="305.000,54.848 305.000,60.622 310.000,63.509 310.000,63.509 315.000,60.622 315.000,54.848 310.000,51.962">
<desc>H1</desc>
</polygon>
<polygon fill="green" stroke="white" stroke-width="1"
         points="315.000,54.848 315.000,60.622 320.000,63.509 320.000,63.509 325.000,60.622 325.000,54.848 330.000,51.962 330.000,46.188 335.000,43.301 335.000,37.528 330.000,34.641 325.000,37.528 320.000,34.641 315.000,37.528 315.000,43.301 310.000,46.188 310.000,51.962">
<desc>D5</desc>
</polygon>
<polygon fill="gold" stroke="white" stroke-width="1"
         points="50.000,46.188 50.000,51.962 55.000,54.848 55.000,54.848 60.000,51.962 65.000,54.848 70.000,51.962 70.000,46.188 75.000,43.301 80.000,46.188 85.000,43.301 85.000,37.528 90.000,34.641 90.000,28.868 85.000,25.981 80.000,28.868 80.000,34.641 75.000,37.528 70.000,34.641 65.000,37.528 65.000,43.301 60.000,46.188 55.000,43.301">
<desc>W5</desc>
</polygon>
<polygon fill="gray" stroke="white" stroke-width="1"
         points="200.000,46.188 200.000,51.962 205.000,54.848 205.000,54.848 210.000,51.962 215.000,54.848 220.000,51.962 220.000,46.188 215.000,43.301 210.000,46.188 205.000,43.301 205.000,37.528 200.000,34.641 200.000,28.868 195.000,25.981 190.000,28.868 185.000,25.981 180.000,28.868 180.000,34.641 185.000,37.528 190.000,34.641 195.000,37.528 195.000,43.301">
<desc>S5</desc>
</polygon>
<polygon fill="tan" stroke="white" stroke-width="1"
         points="230.000,46.188 230.000,51.962 235.000,54.848 235.000,54.848 240.000,51.962 245.000,54.848 250.000,51.962 250.000,46.188 255.000,43.301 260.000,46.188 265.000,43.301 265.000,37.528 260.000,34.641 255.000,37.528 250.000,34.641 250.000,28.868 245.000,25.981 240.000,28.868 240.000,34.641 245.000,37.528 245.000,43.301 240.000,46.188 235.000,43.301">
<desc>H5</desc>
</polygon>
<polygon fill="indigo" stroke="white" stroke-width="1"
         points="280.000,46.188 280.000,51.962 285.000,54.848 285.000,54.848 290.000,51.962 290.000,46.188 285.000,43.301 285.000,37.528 280.000,34.641 275.000,37.528 270.000,34.641 270.000,28.868 275.000,25.981 275.000,20.207 270.000,17.321 265.000,20.207 265.000,25.981 260.000,28.868 260.000,34.641 265.000,37.528 265.000,43.301 270.000,46.188 275.000,43.301">
<desc>G5</desc>
</polygon>
<polygon fill="yellow" stroke="white" stroke-width="1"
         points="35.000,37.528 35.000,43.301 40.000,46.188 40.000,46.188 45.000,43.301 50.000,46.188 55.000,43.301 60.000,46.188 65.000,43.301 65.000,37.528 60.000,34.641 55.000,37.528 50.000,34.641 45.000,37.528 40.000,34.641 40.000,28.868 45.000,25.981 45.000,20.207 40.000,17.321 35.000,20.207 35.000,25.981 30.000,28.868 30.000,34.641">
<desc>r5</desc>
</polygon>
<polygon fill="tan" stroke="white" stroke-width="1"
         points="95.000,37.528 95.000,43.301 100.000,46.188 100.000,46.188 105.000,43.301 105.000,37.528 110.000,34.641 115.000,37.528 120.000,34.641 120.000,28.868 115.000,25.981 110.000,28.868 105.000,25.981 105.000,20.207 100.000,17.321 95.000,20.207 90.000,17.321 85.000,20.207 85.000,25.981 90.000,28.868 95.000,25.981 100.000,28.868 100.000,34.641">
<desc>h5</desc>
</polygon>
<polygon fill="turquoise" stroke="white" stroke-width="1"
         points="115.000,37.528 115.000,43.301 120.000,46.188 120.000,46.188 125.000,43.301 125.000,37.528 130.000,34.641 135.000,37.528 140.000,34.641 145.000,37.528 150.000,34.641 150.000,28.868 145.000,25.981 140.000,28.868 135.000,25.981 130.000,28.868 125.000,25.981 125.000,20.207 120.000,17.321 115.000,20.207 115.000,25.981 120.000,28.868 120.000,34.641">
<desc>Y5</desc>
</polygon>
<polygon fill="yellow" stroke="white" stroke-width="1"
         points="125.000,37.528 125.000,43.301 130.000,46.188 130.000,46.188 135.000,43.301 140.000,46.188 145.000,43.301 150.000,46.188 155.000,43.301 155.000,37.528 160.000,34.641 160.000,28.868 155.000,25.981 155.000,20.207 150.000,17.321 145.000,20.207 145.000,25.981 150.000,28.868 150.000,34.641 145.000,37.528 140.000,34.641 135.000,37.528 130.000,34.641">
<desc>R5</desc>
</polygon>
<polygon fill="gold" stroke="white" stroke-width="1"
         points="205.000,37.528 205.000,43.301 210.000,46.188 210.000,46.188 215.000,43.301 215.000,37.528 210.000,34.641 210.000,28.868 215.000,25.981 215.000,20.207 210.000,17.321 205.000,20.207 200.000,17.321 195.000,20.207 195.000,25.981 200.000,28.868 200.000,34.641">
<desc>p4</desc>
</polygon>
<polygon fill="gold" stroke="white" stroke-width="1"
         points="225.000,37.528 225.000,43.301 230.000,46.188 230.000,46.188 235.000,43.301 240.000,46.188 245.000,43.301 245.000,37.528 240.000,34.641 240.000,28.868 245.000,25.981 245.000,20.207 240.000,17.321 235.000,20.207 235.000,25.981 230.000,28.868 230.000,34.641">
<desc>P4</desc>
</polygon>
<polygon fill="maroon" stroke="white" stroke-width="1"
         points="285.000,37.528 285.000,43.301 290.000,46.188 290.000,46.188 295.000,43.301 295.000,37.528 300.000,34.641 305.000,37.528 310.000,34.641 310.000,28.868 305.000,25.981 300.000,28.868 295.000,25.981 295.000,20.207 290.000,17.321 285.000,20.207 285.000,25.981 280.000,28.868 280.000,34.641">
<desc>A5</desc>
</polygon>
<polygon fill="steelblue" stroke="white" stroke-width="1"
         points="295.000,37.528 295.000,43.301 300.000,46.188 300.000,46.188 305.000,43.301 310.000,46.188 315.000,43.301 315.000,37.528 310.000,34.641 305.000,37.528 300.000,34.641">
<desc>I2</desc>
</polygon>
<polygon fill="teal" stroke="white" stroke-width="1"
         points="40.000,28.868 40.000,34.641 45.000,37.528 45.000,37.528 50.000,34.641 50.000,28.868 55.000,25.981 55.000,20.207 60.000,17.321 65.000,20.207 70.000,17.321 70.000,11.547 65.000,8.660 60.000,11.547 55.000,8.660 50.000,11.547 45.000,8.660 40.000,11.547 40.000,17.321 45.000,20.207 45.000,25.981">
<desc>t5</desc>
</polygon>
<polygon fill="navy" stroke="white" stroke-width="1"
         points="50.000,28.868 50.000,34.641 55.000,37.528 55.000,37.528 60.000,34.641 60.000,28.868 65.000,25.981 70.000,28.868 75.000,25.981 75.000,20.207 80.000,17.321 80.000,11.547 75.000,8.660 70.000,11.547 70.000,17.321 65.000,20.207 60.000,17.321 55.000,20.207 55.000,25.981">
<desc>s4</desc>
</polygon>
<polygon fill="gray" stroke="white" stroke-width="1"
         points="60.000,28.868 60.000,34.641 65.000,37.528 65.000,37.528 70.000,34.641 75.000,37.528 80.000,34.641 80.000,28.868 85.000,25.981 85.000,20.207 90.000,17.321 95.000,20.207 100.000,17.321 100.000,11.547 95.000,8.660 90.000,11.547 85.000,8.660 80.000,11.547 80.000,17.321 75.000,20.207 75.000,25.981 70.000,28.868 65.000,25.981">
<desc>s5</desc>
</polygon>
<polygon fill="navy" stroke="white" stroke-width="1"
         points="160.000,28.868 160.000,34.641 165.000,37.528 165.000,37.528 170.000,34.641 175.000,37.528 180.000,34.641 180.000,28.868 185.000,25.981 190.000,28.868 195.000,25.981 195.000,20.207 190.000,17.321 185.000,20.207 180.000,17.321 175.000,20.207 175.000,25.981 170.000,28.868 165.000,25.981">
<desc>S4</desc>
</polygon>
<polygon fill="teal" stroke="white" stroke-width="1"
         points="220.000,28.868 220.000,34.641 225.000,37.528 225.000,37.528 230.000,34.641 230.000,28.868 225.000,25.981 225.000,20.207 230.000,17.321 230.000,11.547 225.000,8.660 220.000,11.547 215.000,8.660 210.000,11.547 205.000,8.660 200.000,11.547 200.000,17.321 205.000,20.207 210.000,17.321 215.000,20.207 215.000,25.981">
<desc>T5</desc>
</polygon>
<polygon fill="red" stroke="white" stroke-width="1"
         points="250.000,28.868 250.000,34.641 255.000,37.528 255.000,37.528 260.000,34.641 260.000,28.868 265.000,25.981 265.000,20.207 260.000,17.321 260.000,11.547 255.000,8.660 250.000,11.547 250.000,17.321 245.000,20.207 245.000,25.981">
<desc>O4</desc>
</polygon>
<polygon fill="lime" stroke="white" stroke-width="1"
         points="270.000,28.868 270.000,34.641 275.000,37.528 275.000,37.528 280.000,34.641 280.000,28.868 285.000,25.981 285.000,20.207 280.000,17.321 280.000,11.547 275.000,8.660 270.000,11.547 265.000,8.660 260.000,11.547 260.000,17.321 265.000,20.207 270.000,17.321 275.000,20.207 275.000,25.981">
<desc>U4</desc>
</polygon>
<polygon fill="lime" stroke="white" stroke-width="1"
         points="310.000,28.868 310.000,34.641 315.000,37.528 315.000,37.528 320.000,34.641 325.000,37.528 330.000,34.641 335.000,37.528 340.000,34.641 340.000,28.868 345.000,25.981 345.000,20.207 340.000,17.321 335.000,20.207 335.000,25.981 330.000,28.868 325.000,25.981 320.000,28.868 315.000,25.981 315.000,20.207 310.000,17.321 305.000,20.207 305.000,25.981">
<desc>C5</desc>
</polygon>
<polygon fill="lightcoral" stroke="white" stroke-width="1"
         points="105.000,20.207 105.000,25.981 110.000,28.868 110.000,28.868 115.000,25.981 115.000,20.207 120.000,17.321 125.000,20.207 125.000,25.981 130.000,28.868 135.000,25.981 135.000,20.207 130.000,17.321 130.000,11.547 125.000,8.660 120.000,11.547 115.000,8.660 110.000,11.547 105.000,8.660 100.000,11.547 100.000,17.321">
<desc>f5</desc>
</polygon>
<polygon fill="peru" stroke="white" stroke-width="1"
         points="135.000,20.207 135.000,25.981 140.000,28.868 140.000,28.868 145.000,25.981 145.000,20.207 150.000,17.321 155.000,20.207 160.000,17.321 165.000,20.207 170.000,17.321 170.000,11.547 165.000,8.660 160.000,11.547 155.000,8.660 150.000,11.547 145.000,8.660 140.000,11.547 135.000,8.660 130.000,11.547 130.000,17.321">
<desc>P5</desc>
</polygon>
<polygon fill="plum" stroke="white" stroke-width="1"
         points="155.000,20.207 155.000,25.981 160.000,28.868 160.000,28.868 165.000,25.981 170.000,28.868 175.000,25.981 175.000,20.207 180.000,17.321 185.000,20.207 190.000,17.321 195.000,20.207 200.000,17.321 200.000,11.547 195.000,8.660 190.000,11.547 185.000,8.660 180.000,11.547 175.000,8.660 170.000,11.547 170.000,17.321 165.000,20.207 160.000,17.321">
<desc>N5</desc>
</polygon>
<polygon fill="plum" stroke="white" stroke-width="1"
         points="225.000,20.207 225.000,25.981 230.000,28.868 230.000,28.868 235.000,25.981 235.000,20.207 240.000,17.321 245.000,20.207 250.000,17.321 250.000,11.547 245.000,8.660 240.000,11.547 235.000,8.660 230.000,11.547 230.000,17.321">
<desc>V3</desc>
</polygon>
<polygon fill="magenta" stroke="white" stroke-width="1"
         points="295.000,20.207 295.000,25.981 300.000,28.868 300.000,28.868 305.000,25.981 305.000,20.207 310.000,17.321 315.000,20.207 320.000,17.321 320.000,11.547 315.000,8.660 310.000,11.547 305.000,8.660 300.000,11.547 295.000,8.660 290.000,11.547 285.000,8.660 280.000,11.547 280.000,17.321 285.000,20.207 290.000,17.321">
<desc>E5</desc>
</polygon>
<polygon fill="steelblue" stroke="white" stroke-width="1"
         points="315.000,20.207 315.000,25.981 320.000,28.868 320.000,28.868 325.000,25.981 330.000,28.868 335.000,25.981 335.000,20.207 340.000,17.321 345.000,20.207 350.000,17.321 350.000,11.547 345.000,8.660 340.000,11.547 335.000,8.660 330.000,11.547 325.000,8.660 320.000,11.547 320.000,17.321">
<desc>B5</desc>
</polygon>
</g>
</svg>
