<?xml version="1.0" standalone="no"?>
<!-- Created by Polyform Puzzler (http://puzzler.sourceforge.net/) -->
<svg width="390.000" height="390.000"
     viewBox="0 0 390.000 390.000"
     xmlns="http://www.w3.org/2000/svg"
     xmlns:xlink="http://www.w3.org/1999/xlink">
<g transform="translate(195.000,97.500) rotate(60)">
<polygon fill="olive" stroke="white" stroke-width="1"
         points="110.000,115.470 110.000,121.244 115.000,124.130 115.000,124.130 120.000,121.244 120.000,115.470 125.000,112.583 125.000,106.810 120.000,103.923 115.000,106.810 110.000,103.923 105.000,106.810 105.000,112.583">
<desc>A3</desc>
</polygon>
<polygon fill="blueviolet" stroke="white" stroke-width="1"
         points="100.000,98.150 100.000,103.923 105.000,106.810 105.000,106.810 110.000,103.923 115.000,106.810 120.000,103.923 125.000,106.810 130.000,103.923 130.000,98.150 125.000,95.263 120.000,98.150 115.000,95.263 110.000,98.150 105.000,95.263 105.000,89.489 100.000,86.603 95.000,89.489 95.000,95.263">
<desc>j4</desc>
</polygon>
<polygon fill="red" stroke="white" stroke-width="1"
         points="105.000,89.489 105.000,95.263 110.000,98.150 110.000,98.150 115.000,95.263 120.000,98.150 125.000,95.263 125.000,89.489 120.000,86.603 120.000,80.829 115.000,77.942 110.000,80.829 105.000,77.942 100.000,80.829 100.000,86.603">
<desc>O4</desc>
</polygon>
<polygon fill="navy" stroke="white" stroke-width="1"
         points="90.000,80.829 90.000,86.603 95.000,89.489 95.000,89.489 100.000,86.603 100.000,80.829 95.000,77.942 95.000,72.169 90.000,69.282 85.000,72.169 80.000,69.282 80.000,63.509 75.000,60.622 70.000,63.509 70.000,69.282 75.000,72.169 75.000,77.942 80.000,80.829 85.000,77.942">
<desc>S4</desc>
</polygon>
<polygon fill="gray" stroke="white" stroke-width="1"
         points="35.000,72.169 35.000,77.942 40.000,80.829 40.000,80.829 45.000,77.942 45.000,72.169 40.000,69.282">
<desc>H1</desc>
</polygon>
<polygon fill="plum" stroke="white" stroke-width="1"
         points="45.000,72.169 45.000,77.942 50.000,80.829 50.000,80.829 55.000,77.942 55.000,72.169 50.000,69.282 50.000,63.509 55.000,60.622 55.000,54.848 50.000,51.962 45.000,54.848 45.000,60.622 40.000,63.509 40.000,69.282">
<desc>V3</desc>
</polygon>
<polygon fill="lime" stroke="white" stroke-width="1"
         points="55.000,72.169 55.000,77.942 60.000,80.829 60.000,80.829 65.000,77.942 70.000,80.829 75.000,77.942 75.000,72.169 70.000,69.282 65.000,72.169 60.000,69.282 60.000,63.509 65.000,60.622 65.000,54.848 60.000,51.962 55.000,54.848 55.000,60.622 50.000,63.509 50.000,69.282">
<desc>U4</desc>
</polygon>
<polygon fill="gold" stroke="white" stroke-width="1"
         points="105.000,72.169 105.000,77.942 110.000,80.829 110.000,80.829 115.000,77.942 120.000,80.829 125.000,77.942 130.000,80.829 135.000,77.942 135.000,72.169 130.000,69.282 125.000,72.169 120.000,69.282 120.000,63.509 115.000,60.622 110.000,63.509 110.000,69.282">
<desc>p4</desc>
</polygon>
<polygon fill="green" stroke="white" stroke-width="1"
         points="135.000,72.169 135.000,77.942 140.000,80.829 140.000,80.829 145.000,77.942 145.000,72.169 140.000,69.282 140.000,63.509 145.000,60.622 145.000,54.848 140.000,51.962 135.000,54.848 135.000,60.622 130.000,63.509 125.000,60.622 120.000,63.509 120.000,69.282 125.000,72.169 130.000,69.282">
<desc>Y4</desc>
</polygon>
<polygon fill="navy" stroke="white" stroke-width="1"
         points="60.000,63.509 60.000,69.282 65.000,72.169 65.000,72.169 70.000,69.282 70.000,63.509 75.000,60.622 80.000,63.509 85.000,60.622 85.000,54.848 90.000,51.962 90.000,46.188 85.000,43.301 80.000,46.188 80.000,51.962 75.000,54.848 70.000,51.962 65.000,54.848 65.000,60.622">
<desc>s4</desc>
</polygon>
<polygon fill="steelblue" stroke="white" stroke-width="1"
         points="140.000,63.509 140.000,69.282 145.000,72.169 145.000,72.169 150.000,69.282 150.000,63.509 155.000,60.622 155.000,54.848 150.000,51.962 145.000,54.848 145.000,60.622">
<desc>I2</desc>
</polygon>
<polygon fill="blue" stroke="white" stroke-width="1"
         points="95.000,54.848 95.000,60.622 100.000,63.509 100.000,63.509 105.000,60.622 110.000,63.509 115.000,60.622 120.000,63.509 125.000,60.622 130.000,63.509 135.000,60.622 135.000,54.848 130.000,51.962 125.000,54.848 120.000,51.962 115.000,54.848 110.000,51.962 105.000,54.848 100.000,51.962">
<desc>I4</desc>
</polygon>
<polygon fill="blueviolet" stroke="white" stroke-width="1"
         points="70.000,46.188 70.000,51.962 75.000,54.848 75.000,54.848 80.000,51.962 80.000,46.188 75.000,43.301 75.000,37.528 80.000,34.641 80.000,28.868 85.000,25.981 85.000,20.207 80.000,17.321 75.000,20.207 75.000,25.981 70.000,28.868 70.000,34.641 65.000,37.528 65.000,43.301">
<desc>J4</desc>
</polygon>
<polygon fill="gold" stroke="white" stroke-width="1"
         points="90.000,46.188 90.000,51.962 95.000,54.848 95.000,54.848 100.000,51.962 100.000,46.188 95.000,43.301 95.000,37.528 90.000,34.641 90.000,28.868 85.000,25.981 80.000,28.868 80.000,34.641 75.000,37.528 75.000,43.301 80.000,46.188 85.000,43.301">
<desc>P4</desc>
</polygon>
<polygon fill="teal" stroke="white" stroke-width="1"
         points="60.000,28.868 60.000,34.641 65.000,37.528 65.000,37.528 70.000,34.641 70.000,28.868 75.000,25.981 75.000,20.207 80.000,17.321 80.000,11.547 75.000,8.660 70.000,11.547 70.000,17.321 65.000,20.207 65.000,25.981">
<desc>I3</desc>
</polygon>
</g>
</svg>
