<?xml version="1.0" standalone="no"?>
<!-- Created by Polyform Puzzler (http://puzzler.sourceforge.net/) -->
<svg width="180.0" height="103.923048454" viewBox="0 0 180.0 103.923048454"
     xmlns="http://www.w3.org/2000/svg"
     xmlns:xlink="http://www.w3.org/1999/xlink">
<g>
<polygon fill="green" stroke="white" stroke-width="1"
         points="10.000,89.489 10.000,95.263 15.000,98.150 15.000,98.150 20.000,95.263 25.000,98.150 30.000,95.263 30.000,89.489 35.000,86.603 35.000,80.829 30.000,77.942 30.000,72.169 25.000,69.282 20.000,72.169 20.000,77.942 15.000,80.829 15.000,86.603">
<desc>D5</desc>
</polygon>
<polygon fill="lightcoral" stroke="white" stroke-width="1"
         points="30.000,89.489 30.000,95.263 35.000,98.150 35.000,98.150 40.000,95.263 45.000,98.150 50.000,95.263 55.000,98.150 60.000,95.263 60.000,89.489 65.000,86.603 65.000,80.829 60.000,77.942 55.000,80.829 55.000,86.603 50.000,89.489 45.000,86.603 45.000,80.829 40.000,77.942 35.000,80.829 35.000,86.603">
<desc>u5</desc>
</polygon>
<polygon fill="blueviolet" stroke="white" stroke-width="1"
         points="60.000,89.489 60.000,95.263 65.000,98.150 65.000,98.150 70.000,95.263 75.000,98.150 80.000,95.263 85.000,98.150 90.000,95.263 90.000,89.489 85.000,86.603 80.000,89.489 75.000,86.603 75.000,80.829 80.000,77.942 80.000,72.169 75.000,69.282 70.000,72.169 70.000,77.942 65.000,80.829 65.000,86.603">
<desc>V5</desc>
</polygon>
<polygon fill="yellow" stroke="white" stroke-width="1"
         points="90.000,89.489 90.000,95.263 95.000,98.150 95.000,98.150 100.000,95.263 105.000,98.150 110.000,95.263 115.000,98.150 120.000,95.263 120.000,89.489 115.000,86.603 110.000,89.489 105.000,86.603 100.000,89.489 95.000,86.603 95.000,80.829 100.000,77.942 100.000,72.169 95.000,69.282 90.000,72.169 90.000,77.942 85.000,80.829 85.000,86.603">
<desc>r5</desc>
</polygon>
<polygon fill="tan" stroke="white" stroke-width="1"
         points="45.000,80.829 45.000,86.603 50.000,89.489 50.000,89.489 55.000,86.603 55.000,80.829 50.000,77.942 50.000,72.169 55.000,69.282 55.000,63.509 50.000,60.622 45.000,63.509 45.000,69.282 40.000,72.169 35.000,69.282 35.000,63.509 30.000,60.622 25.000,63.509 25.000,69.282 30.000,72.169 30.000,77.942 35.000,80.829 40.000,77.942">
<desc>y5</desc>
</polygon>
<polygon fill="navy" stroke="white" stroke-width="1"
         points="75.000,80.829 75.000,86.603 80.000,89.489 80.000,89.489 85.000,86.603 85.000,80.829 90.000,77.942 90.000,72.169 85.000,69.282 85.000,63.509 80.000,60.622 75.000,63.509 70.000,60.622 65.000,63.509 65.000,69.282 60.000,72.169 60.000,77.942 65.000,80.829 70.000,77.942 70.000,72.169 75.000,69.282 80.000,72.169 80.000,77.942">
<desc>U5</desc>
</polygon>
<polygon fill="darkorange" stroke="white" stroke-width="1"
         points="95.000,80.829 95.000,86.603 100.000,89.489 100.000,89.489 105.000,86.603 110.000,89.489 115.000,86.603 120.000,89.489 125.000,86.603 125.000,80.829 130.000,77.942 130.000,72.169 135.000,69.282 135.000,63.509 130.000,60.622 125.000,63.509 125.000,69.282 120.000,72.169 120.000,77.942 115.000,80.829 110.000,77.942 105.000,80.829 100.000,77.942">
<desc>L5</desc>
</polygon>
<polygon fill="turquoise" stroke="white" stroke-width="1"
         points="50.000,72.169 50.000,77.942 55.000,80.829 55.000,80.829 60.000,77.942 60.000,72.169 65.000,69.282 65.000,63.509 70.000,60.622 75.000,63.509 80.000,60.622 80.000,54.848 75.000,51.962 70.000,54.848 65.000,51.962 65.000,46.188 60.000,43.301 55.000,46.188 55.000,51.962 60.000,54.848 60.000,60.622 55.000,63.509 55.000,69.282">
<desc>Y5</desc>
</polygon>
<polygon fill="olive" stroke="white" stroke-width="1"
         points="100.000,72.169 100.000,77.942 105.000,80.829 105.000,80.829 110.000,77.942 115.000,80.829 120.000,77.942 120.000,72.169 115.000,69.282 110.000,72.169 105.000,69.282 105.000,63.509 100.000,60.622 100.000,54.848 95.000,51.962 90.000,54.848 90.000,60.622 85.000,63.509 85.000,69.282 90.000,72.169 95.000,69.282">
<desc>q5</desc>
</polygon>
<polygon fill="red" stroke="white" stroke-width="1"
         points="35.000,63.509 35.000,69.282 40.000,72.169 40.000,72.169 45.000,69.282 45.000,63.509 50.000,60.622 55.000,63.509 60.000,60.622 60.000,54.848 55.000,51.962 55.000,46.188 50.000,43.301 45.000,46.188 45.000,51.962 40.000,54.848 35.000,51.962 30.000,54.848 30.000,60.622">
<desc>X5</desc>
</polygon>
<polygon fill="gray" stroke="white" stroke-width="1"
         points="105.000,63.509 105.000,69.282 110.000,72.169 110.000,72.169 115.000,69.282 120.000,72.169 125.000,69.282 125.000,63.509 120.000,60.622 115.000,63.509 110.000,60.622 110.000,54.848 105.000,51.962 105.000,46.188 100.000,43.301 95.000,46.188 90.000,43.301 85.000,46.188 85.000,51.962 90.000,54.848 95.000,51.962 100.000,54.848 100.000,60.622">
<desc>S5</desc>
</polygon>
<polygon fill="steelblue" stroke="white" stroke-width="1"
         points="80.000,54.848 80.000,60.622 85.000,63.509 85.000,63.509 90.000,60.622 90.000,54.848 85.000,51.962 85.000,46.188 80.000,43.301 80.000,37.528 75.000,34.641 70.000,37.528 65.000,34.641 60.000,37.528 60.000,43.301 65.000,46.188 65.000,51.962 70.000,54.848 75.000,51.962">
<desc>p5</desc>
</polygon>
<polygon fill="lime" stroke="white" stroke-width="1"
         points="110.000,54.848 110.000,60.622 115.000,63.509 115.000,63.509 120.000,60.622 125.000,63.509 130.000,60.622 135.000,63.509 140.000,60.622 140.000,54.848 145.000,51.962 145.000,46.188 140.000,43.301 135.000,46.188 135.000,51.962 130.000,54.848 125.000,51.962 120.000,54.848 115.000,51.962 115.000,46.188 110.000,43.301 105.000,46.188 105.000,51.962">
<desc>C5</desc>
</polygon>
<polygon fill="gold" stroke="white" stroke-width="1"
         points="35.000,46.188 35.000,51.962 40.000,54.848 40.000,54.848 45.000,51.962 45.000,46.188 50.000,43.301 55.000,46.188 60.000,43.301 60.000,37.528 65.000,34.641 70.000,37.528 75.000,34.641 75.000,28.868 70.000,25.981 65.000,28.868 60.000,25.981 55.000,28.868 55.000,34.641 50.000,37.528 45.000,34.641 40.000,37.528 40.000,43.301">
<desc>W5</desc>
</polygon>
<polygon fill="darkseagreen" stroke="white" stroke-width="1"
         points="115.000,46.188 115.000,51.962 120.000,54.848 120.000,54.848 125.000,51.962 125.000,46.188 120.000,43.301 120.000,37.528 115.000,34.641 110.000,37.528 105.000,34.641 100.000,37.528 95.000,34.641 90.000,37.528 85.000,34.641 80.000,37.528 80.000,43.301 85.000,46.188 90.000,43.301 95.000,46.188 100.000,43.301 105.000,46.188 110.000,43.301">
<desc>J5</desc>
</polygon>
<polygon fill="maroon" stroke="white" stroke-width="1"
         points="125.000,46.188 125.000,51.962 130.000,54.848 130.000,54.848 135.000,51.962 135.000,46.188 140.000,43.301 145.000,46.188 150.000,43.301 150.000,37.528 145.000,34.641 140.000,37.528 135.000,34.641 135.000,28.868 130.000,25.981 125.000,28.868 125.000,34.641 120.000,37.528 120.000,43.301">
<desc>A5</desc>
</polygon>
<polygon fill="teal" stroke="white" stroke-width="1"
         points="45.000,28.868 45.000,34.641 50.000,37.528 50.000,37.528 55.000,34.641 55.000,28.868 60.000,25.981 65.000,28.868 70.000,25.981 75.000,28.868 80.000,25.981 80.000,20.207 75.000,17.321 70.000,20.207 65.000,17.321 65.000,11.547 60.000,8.660 55.000,11.547 55.000,17.321 50.000,20.207 50.000,25.981">
<desc>T5</desc>
</polygon>
<polygon fill="blue" stroke="white" stroke-width="1"
         points="75.000,28.868 75.000,34.641 80.000,37.528 80.000,37.528 85.000,34.641 90.000,37.528 95.000,34.641 100.000,37.528 105.000,34.641 110.000,37.528 115.000,34.641 120.000,37.528 125.000,34.641 125.000,28.868 120.000,25.981 115.000,28.868 110.000,25.981 105.000,28.868 100.000,25.981 95.000,28.868 90.000,25.981 85.000,28.868 80.000,25.981">
<desc>I5</desc>
</polygon>
<polygon fill="indigo" stroke="white" stroke-width="1"
         points="135.000,28.868 135.000,34.641 140.000,37.528 140.000,37.528 145.000,34.641 150.000,37.528 155.000,34.641 155.000,28.868 160.000,25.981 160.000,20.207 155.000,17.321 150.000,20.207 150.000,25.981 145.000,28.868 140.000,25.981 140.000,20.207 135.000,17.321 130.000,20.207 125.000,17.321 120.000,20.207 120.000,25.981 125.000,28.868 130.000,25.981">
<desc>G5</desc>
</polygon>
<polygon fill="plum" stroke="white" stroke-width="1"
         points="80.000,20.207 80.000,25.981 85.000,28.868 85.000,28.868 90.000,25.981 95.000,28.868 100.000,25.981 105.000,28.868 110.000,25.981 110.000,20.207 105.000,17.321 100.000,20.207 95.000,17.321 90.000,20.207 85.000,17.321 85.000,11.547 80.000,8.660 75.000,11.547 70.000,8.660 65.000,11.547 65.000,17.321 70.000,20.207 75.000,17.321">
<desc>N5</desc>
</polygon>
<polygon fill="peru" stroke="white" stroke-width="1"
         points="110.000,20.207 110.000,25.981 115.000,28.868 115.000,28.868 120.000,25.981 120.000,20.207 125.000,17.321 125.000,11.547 120.000,8.660 115.000,11.547 110.000,8.660 105.000,11.547 100.000,8.660 95.000,11.547 90.000,8.660 85.000,11.547 85.000,17.321 90.000,20.207 95.000,17.321 100.000,20.207 105.000,17.321">
<desc>P5</desc>
</polygon>
<polygon fill="magenta" stroke="white" stroke-width="1"
         points="140.000,20.207 140.000,25.981 145.000,28.868 145.000,28.868 150.000,25.981 150.000,20.207 155.000,17.321 160.000,20.207 165.000,17.321 165.000,11.547 160.000,8.660 155.000,11.547 150.000,8.660 145.000,11.547 140.000,8.660 135.000,11.547 130.000,8.660 125.000,11.547 125.000,17.321 130.000,20.207 135.000,17.321">
<desc>E5</desc>
</polygon>
</g>

</svg>
