<?xml version="1.0" standalone="no"?>
<!-- Created by Polyform Puzzler (http://puzzler.sourceforge.net/) -->
<svg width="215.0" height="129.903810568" viewBox="0 0 215.0 129.903810568"
     xmlns="http://www.w3.org/2000/svg"
     xmlns:xlink="http://www.w3.org/1999/xlink">
<g>
<polygon fill="green" stroke="white" stroke-width="1"
         points="70.000,115.470 70.000,121.244 75.000,124.130 75.000,124.130 80.000,121.244 80.000,115.470 85.000,112.583 85.000,106.810 90.000,103.923 90.000,98.150 85.000,95.263 80.000,98.150 75.000,95.263 70.000,98.150 70.000,103.923 65.000,106.810 65.000,112.583">
<desc>D5</desc>
</polygon>
<polygon fill="blue" stroke="white" stroke-width="1"
         points="80.000,115.470 80.000,121.244 85.000,124.130 85.000,124.130 90.000,121.244 90.000,115.470 95.000,112.583 95.000,106.810 100.000,103.923 100.000,98.150 105.000,95.263 105.000,89.489 110.000,86.603 110.000,80.829 105.000,77.942 100.000,80.829 100.000,86.603 95.000,89.489 95.000,95.263 90.000,98.150 90.000,103.923 85.000,106.810 85.000,112.583">
<desc>I5</desc>
</polygon>
<polygon fill="magenta" stroke="white" stroke-width="1"
         points="90.000,115.470 90.000,121.244 95.000,124.130 95.000,124.130 100.000,121.244 100.000,115.470 105.000,112.583 110.000,115.470 115.000,112.583 115.000,106.810 110.000,103.923 110.000,98.150 115.000,95.263 115.000,89.489 110.000,86.603 105.000,89.489 105.000,95.263 100.000,98.150 100.000,103.923 95.000,106.810 95.000,112.583">
<desc>E5</desc>
</polygon>
<polygon fill="indigo" stroke="white" stroke-width="1"
         points="100.000,115.470 100.000,121.244 105.000,124.130 105.000,124.130 110.000,121.244 115.000,124.130 120.000,121.244 120.000,115.470 125.000,112.583 125.000,106.810 120.000,103.923 120.000,98.150 125.000,95.263 125.000,89.489 120.000,86.603 115.000,89.489 115.000,95.263 110.000,98.150 110.000,103.923 115.000,106.810 115.000,112.583 110.000,115.470 105.000,112.583">
<desc>G5</desc>
</polygon>
<polygon fill="maroon" stroke="white" stroke-width="1"
         points="120.000,115.470 120.000,121.244 125.000,124.130 125.000,124.130 130.000,121.244 135.000,124.130 140.000,121.244 140.000,115.470 145.000,112.583 145.000,106.810 140.000,103.923 135.000,106.810 130.000,103.923 130.000,98.150 125.000,95.263 120.000,98.150 120.000,103.923 125.000,106.810 125.000,112.583">
<desc>A5</desc>
</polygon>
<polygon fill="plum" stroke="white" stroke-width="1"
         points="60.000,98.150 60.000,103.923 65.000,106.810 65.000,106.810 70.000,103.923 70.000,98.150 65.000,95.263 65.000,89.489 70.000,86.603 70.000,80.829 65.000,77.942 65.000,72.169 60.000,69.282 60.000,63.509 55.000,60.622 50.000,63.509 50.000,69.282 55.000,72.169 55.000,77.942 60.000,80.829 60.000,86.603 55.000,89.489 55.000,95.263">
<desc>N5</desc>
</polygon>
<polygon fill="lime" stroke="white" stroke-width="1"
         points="130.000,98.150 130.000,103.923 135.000,106.810 135.000,106.810 140.000,103.923 145.000,106.810 150.000,103.923 150.000,98.150 155.000,95.263 155.000,89.489 160.000,86.603 160.000,80.829 155.000,77.942 155.000,72.169 150.000,69.282 145.000,72.169 145.000,77.942 150.000,80.829 150.000,86.603 145.000,89.489 145.000,95.263 140.000,98.150 135.000,95.263">
<desc>C5</desc>
</polygon>
<polygon fill="peru" stroke="white" stroke-width="1"
         points="65.000,89.489 65.000,95.263 70.000,98.150 70.000,98.150 75.000,95.263 80.000,98.150 85.000,95.263 85.000,89.489 80.000,86.603 80.000,80.829 75.000,77.942 75.000,72.169 70.000,69.282 70.000,63.509 65.000,60.622 60.000,63.509 60.000,69.282 65.000,72.169 65.000,77.942 70.000,80.829 70.000,86.603">
<desc>P5</desc>
</polygon>
<polygon fill="darkseagreen" stroke="white" stroke-width="1"
         points="85.000,89.489 85.000,95.263 90.000,98.150 90.000,98.150 95.000,95.263 95.000,89.489 90.000,86.603 90.000,80.829 85.000,77.942 85.000,72.169 80.000,69.282 80.000,63.509 85.000,60.622 85.000,54.848 80.000,51.962 75.000,54.848 75.000,60.622 70.000,63.509 70.000,69.282 75.000,72.169 75.000,77.942 80.000,80.829 80.000,86.603">
<desc>J5</desc>
</polygon>
<polygon fill="navy" stroke="white" stroke-width="1"
         points="125.000,89.489 125.000,95.263 130.000,98.150 130.000,98.150 135.000,95.263 140.000,98.150 145.000,95.263 145.000,89.489 150.000,86.603 150.000,80.829 145.000,77.942 145.000,72.169 140.000,69.282 135.000,72.169 135.000,77.942 140.000,80.829 140.000,86.603 135.000,89.489 130.000,86.603 130.000,80.829 125.000,77.942 120.000,80.829 120.000,86.603">
<desc>U5</desc>
</polygon>
<polygon fill="darkorange" stroke="white" stroke-width="1"
         points="50.000,80.829 50.000,86.603 55.000,89.489 55.000,89.489 60.000,86.603 60.000,80.829 55.000,77.942 55.000,72.169 50.000,69.282 50.000,63.509 55.000,60.622 55.000,54.848 60.000,51.962 60.000,46.188 55.000,43.301 50.000,46.188 50.000,51.962 45.000,54.848 45.000,60.622 40.000,63.509 40.000,69.282 45.000,72.169 45.000,77.942">
<desc>L5</desc>
</polygon>
<polygon fill="tan" stroke="white" stroke-width="1"
         points="130.000,80.829 130.000,86.603 135.000,89.489 135.000,89.489 140.000,86.603 140.000,80.829 135.000,77.942 135.000,72.169 140.000,69.282 145.000,72.169 150.000,69.282 150.000,63.509 145.000,60.622 140.000,63.509 135.000,60.622 135.000,54.848 130.000,51.962 125.000,54.848 125.000,60.622 130.000,63.509 130.000,69.282 125.000,72.169 125.000,77.942">
<desc>y5</desc>
</polygon>
<polygon fill="steelblue" stroke="white" stroke-width="1"
         points="155.000,72.169 155.000,77.942 160.000,80.829 160.000,80.829 165.000,77.942 165.000,72.169 170.000,69.282 170.000,63.509 165.000,60.622 165.000,54.848 160.000,51.962 160.000,46.188 155.000,43.301 150.000,46.188 150.000,51.962 155.000,54.848 155.000,60.622 150.000,63.509 150.000,69.282">
<desc>p5</desc>
</polygon>
<polygon fill="teal" stroke="white" stroke-width="1"
         points="55.000,54.848 55.000,60.622 60.000,63.509 60.000,63.509 65.000,60.622 65.000,54.848 70.000,51.962 70.000,46.188 75.000,43.301 80.000,46.188 85.000,43.301 85.000,37.528 80.000,34.641 75.000,37.528 70.000,34.641 65.000,37.528 60.000,34.641 55.000,37.528 55.000,43.301 60.000,46.188 60.000,51.962">
<desc>T5</desc>
</polygon>
<polygon fill="gold" stroke="white" stroke-width="1"
         points="65.000,54.848 65.000,60.622 70.000,63.509 70.000,63.509 75.000,60.622 75.000,54.848 80.000,51.962 85.000,54.848 90.000,51.962 90.000,46.188 95.000,43.301 100.000,46.188 105.000,43.301 105.000,37.528 100.000,34.641 95.000,37.528 90.000,34.641 85.000,37.528 85.000,43.301 80.000,46.188 75.000,43.301 70.000,46.188 70.000,51.962">
<desc>W5</desc>
</polygon>
<polygon fill="olive" stroke="white" stroke-width="1"
         points="135.000,54.848 135.000,60.622 140.000,63.509 140.000,63.509 145.000,60.622 150.000,63.509 155.000,60.622 155.000,54.848 150.000,51.962 150.000,46.188 155.000,43.301 155.000,37.528 150.000,34.641 150.000,28.868 145.000,25.981 140.000,28.868 140.000,34.641 145.000,37.528 145.000,43.301 140.000,46.188 140.000,51.962">
<desc>q5</desc>
</polygon>
<polygon fill="turquoise" stroke="white" stroke-width="1"
         points="100.000,46.188 100.000,51.962 105.000,54.848 105.000,54.848 110.000,51.962 110.000,46.188 115.000,43.301 120.000,46.188 125.000,43.301 130.000,46.188 135.000,43.301 135.000,37.528 130.000,34.641 125.000,37.528 120.000,34.641 115.000,37.528 110.000,34.641 110.000,28.868 105.000,25.981 100.000,28.868 100.000,34.641 105.000,37.528 105.000,43.301">
<desc>Y5</desc>
</polygon>
<polygon fill="yellow" stroke="white" stroke-width="1"
         points="120.000,46.188 120.000,51.962 125.000,54.848 125.000,54.848 130.000,51.962 135.000,54.848 140.000,51.962 140.000,46.188 145.000,43.301 145.000,37.528 140.000,34.641 140.000,28.868 135.000,25.981 135.000,20.207 130.000,17.321 125.000,20.207 125.000,25.981 130.000,28.868 130.000,34.641 135.000,37.528 135.000,43.301 130.000,46.188 125.000,43.301">
<desc>r5</desc>
</polygon>
<polygon fill="blueviolet" stroke="white" stroke-width="1"
         points="60.000,28.868 60.000,34.641 65.000,37.528 65.000,37.528 70.000,34.641 75.000,37.528 80.000,34.641 85.000,37.528 90.000,34.641 90.000,28.868 85.000,25.981 80.000,28.868 75.000,25.981 75.000,20.207 80.000,17.321 80.000,11.547 75.000,8.660 70.000,11.547 70.000,17.321 65.000,20.207 65.000,25.981">
<desc>V5</desc>
</polygon>
<polygon fill="red" stroke="white" stroke-width="1"
         points="90.000,28.868 90.000,34.641 95.000,37.528 95.000,37.528 100.000,34.641 100.000,28.868 105.000,25.981 105.000,20.207 100.000,17.321 95.000,20.207 90.000,17.321 90.000,11.547 85.000,8.660 80.000,11.547 80.000,17.321 75.000,20.207 75.000,25.981 80.000,28.868 85.000,25.981">
<desc>X5</desc>
</polygon>
<polygon fill="gray" stroke="white" stroke-width="1"
         points="110.000,28.868 110.000,34.641 115.000,37.528 115.000,37.528 120.000,34.641 125.000,37.528 130.000,34.641 130.000,28.868 125.000,25.981 120.000,28.868 115.000,25.981 115.000,20.207 110.000,17.321 110.000,11.547 105.000,8.660 100.000,11.547 95.000,8.660 90.000,11.547 90.000,17.321 95.000,20.207 100.000,17.321 105.000,20.207 105.000,25.981">
<desc>S5</desc>
</polygon>
<polygon fill="lightcoral" stroke="white" stroke-width="1"
         points="115.000,20.207 115.000,25.981 120.000,28.868 120.000,28.868 125.000,25.981 125.000,20.207 130.000,17.321 135.000,20.207 135.000,25.981 140.000,28.868 145.000,25.981 145.000,20.207 140.000,17.321 140.000,11.547 135.000,8.660 130.000,11.547 125.000,8.660 120.000,11.547 115.000,8.660 110.000,11.547 110.000,17.321">
<desc>u5</desc>
</polygon>
</g>
</svg>
