<?xml version="1.0" standalone="no"?>
<!-- Created by Polyform Puzzler (http://puzzler.sourceforge.net/) -->
<svg width="275.0" height="164.544826719" viewBox="0 0 275.0 164.544826719"
     xmlns="http://www.w3.org/2000/svg"
     xmlns:xlink="http://www.w3.org/1999/xlink">
<g>
<polygon fill="blue" stroke="white" stroke-width="1"
         points="130.000,150.111 130.000,155.885 135.000,158.771 135.000,158.771 140.000,155.885 140.000,150.111 145.000,147.224 145.000,141.451 150.000,138.564 150.000,132.791 155.000,129.904 155.000,124.130 160.000,121.244 160.000,115.470 155.000,112.583 150.000,115.470 150.000,121.244 145.000,124.130 145.000,129.904 140.000,132.791 140.000,138.564 135.000,141.451 135.000,147.224">
<desc>I5</desc>
</polygon>
<polygon fill="blueviolet" stroke="white" stroke-width="1"
         points="125.000,141.451 125.000,147.224 130.000,150.111 130.000,150.111 135.000,147.224 135.000,141.451 140.000,138.564 140.000,132.791 145.000,129.904 145.000,124.130 140.000,121.244 135.000,124.130 135.000,129.904 130.000,132.791 125.000,129.904 125.000,124.130 120.000,121.244 115.000,124.130 115.000,129.904 120.000,132.791 120.000,138.564">
<desc>V5</desc>
</polygon>
<polygon fill="peru" stroke="white" stroke-width="1"
         points="125.000,124.130 125.000,129.904 130.000,132.791 130.000,132.791 135.000,129.904 135.000,124.130 140.000,121.244 140.000,115.470 145.000,112.583 145.000,106.810 150.000,103.923 150.000,98.150 145.000,95.263 140.000,98.150 140.000,103.923 135.000,106.810 135.000,112.583 130.000,115.470 125.000,112.583 120.000,115.470 120.000,121.244">
<desc>P5</desc>
</polygon>
<polygon fill="green" stroke="white" stroke-width="1"
         points="70.000,115.470 70.000,121.244 75.000,124.130 75.000,124.130 80.000,121.244 85.000,124.130 90.000,121.244 90.000,115.470 95.000,112.583 95.000,106.810 90.000,103.923 90.000,98.150 85.000,95.263 80.000,98.150 80.000,103.923 75.000,106.810 75.000,112.583">
<desc>D5</desc>
</polygon>
<polygon fill="darkorange" stroke="white" stroke-width="1"
         points="90.000,115.470 90.000,121.244 95.000,124.130 95.000,124.130 100.000,121.244 100.000,115.470 105.000,112.583 105.000,106.810 110.000,103.923 115.000,106.810 120.000,103.923 125.000,106.810 130.000,103.923 130.000,98.150 125.000,95.263 120.000,98.150 115.000,95.263 110.000,98.150 105.000,95.263 100.000,98.150 100.000,103.923 95.000,106.810 95.000,112.583">
<desc>L5</desc>
</polygon>
<polygon fill="steelblue" stroke="white" stroke-width="1"
         points="100.000,115.470 100.000,121.244 105.000,124.130 105.000,124.130 110.000,121.244 115.000,124.130 120.000,121.244 120.000,115.470 125.000,112.583 130.000,115.470 135.000,112.583 135.000,106.810 130.000,103.923 125.000,106.810 120.000,103.923 115.000,106.810 110.000,103.923 105.000,106.810 105.000,112.583">
<desc>p5</desc>
</polygon>
<polygon fill="plum" stroke="white" stroke-width="1"
         points="140.000,115.470 140.000,121.244 145.000,124.130 145.000,124.130 150.000,121.244 150.000,115.470 155.000,112.583 155.000,106.810 160.000,103.923 165.000,106.810 170.000,103.923 170.000,98.150 175.000,95.263 175.000,89.489 170.000,86.603 165.000,89.489 165.000,95.263 160.000,98.150 155.000,95.263 150.000,98.150 150.000,103.923 145.000,106.810 145.000,112.583">
<desc>N5</desc>
</polygon>
<polygon fill="magenta" stroke="white" stroke-width="1"
         points="160.000,115.470 160.000,121.244 165.000,124.130 165.000,124.130 170.000,121.244 175.000,124.130 180.000,121.244 185.000,124.130 190.000,121.244 195.000,124.130 200.000,121.244 200.000,115.470 195.000,112.583 190.000,115.470 185.000,112.583 185.000,106.810 180.000,103.923 175.000,106.810 175.000,112.583 170.000,115.470 165.000,112.583">
<desc>E5</desc>
</polygon>
<polygon fill="indigo" stroke="white" stroke-width="1"
         points="155.000,106.810 155.000,112.583 160.000,115.470 160.000,115.470 165.000,112.583 170.000,115.470 175.000,112.583 175.000,106.810 180.000,103.923 185.000,106.810 185.000,112.583 190.000,115.470 195.000,112.583 195.000,106.810 190.000,103.923 190.000,98.150 185.000,95.263 180.000,98.150 175.000,95.263 170.000,98.150 170.000,103.923 165.000,106.810 160.000,103.923">
<desc>G5</desc>
</polygon>
<polygon fill="gold" stroke="white" stroke-width="1"
         points="90.000,98.150 90.000,103.923 95.000,106.810 95.000,106.810 100.000,103.923 100.000,98.150 105.000,95.263 110.000,98.150 115.000,95.263 115.000,89.489 120.000,86.603 125.000,89.489 130.000,86.603 130.000,80.829 125.000,77.942 120.000,80.829 115.000,77.942 110.000,80.829 110.000,86.603 105.000,89.489 100.000,86.603 95.000,89.489 95.000,95.263">
<desc>W5</desc>
</polygon>
<polygon fill="turquoise" stroke="white" stroke-width="1"
         points="85.000,89.489 85.000,95.263 90.000,98.150 90.000,98.150 95.000,95.263 95.000,89.489 100.000,86.603 105.000,89.489 110.000,86.603 110.000,80.829 105.000,77.942 100.000,80.829 95.000,77.942 95.000,72.169 90.000,69.282 90.000,63.509 85.000,60.622 80.000,63.509 80.000,69.282 85.000,72.169 85.000,77.942 90.000,80.829 90.000,86.603">
<desc>Y5</desc>
</polygon>
<polygon fill="maroon" stroke="white" stroke-width="1"
         points="155.000,89.489 155.000,95.263 160.000,98.150 160.000,98.150 165.000,95.263 165.000,89.489 170.000,86.603 170.000,80.829 165.000,77.942 165.000,72.169 160.000,69.282 155.000,72.169 155.000,77.942 150.000,80.829 145.000,77.942 140.000,80.829 140.000,86.603 145.000,89.489 150.000,86.603">
<desc>A5</desc>
</polygon>
<polygon fill="darkseagreen" stroke="white" stroke-width="1"
         points="175.000,89.489 175.000,95.263 180.000,98.150 180.000,98.150 185.000,95.263 185.000,89.489 180.000,86.603 180.000,80.829 185.000,77.942 185.000,72.169 190.000,69.282 190.000,63.509 195.000,60.622 195.000,54.848 190.000,51.962 185.000,54.848 185.000,60.622 180.000,63.509 180.000,69.282 175.000,72.169 175.000,77.942 170.000,80.829 170.000,86.603">
<desc>J5</desc>
</polygon>
<polygon fill="lime" stroke="white" stroke-width="1"
         points="95.000,72.169 95.000,77.942 100.000,80.829 100.000,80.829 105.000,77.942 110.000,80.829 115.000,77.942 115.000,72.169 120.000,69.282 120.000,63.509 125.000,60.622 125.000,54.848 120.000,51.962 120.000,46.188 115.000,43.301 110.000,46.188 110.000,51.962 115.000,54.848 115.000,60.622 110.000,63.509 110.000,69.282 105.000,72.169 100.000,69.282">
<desc>C5</desc>
</polygon>
<polygon fill="tan" stroke="white" stroke-width="1"
         points="165.000,72.169 165.000,77.942 170.000,80.829 170.000,80.829 175.000,77.942 175.000,72.169 170.000,69.282 170.000,63.509 175.000,60.622 175.000,54.848 170.000,51.962 170.000,46.188 165.000,43.301 160.000,46.188 160.000,51.962 165.000,54.848 165.000,60.622 160.000,63.509 155.000,60.622 150.000,63.509 150.000,69.282 155.000,72.169 160.000,69.282">
<desc>y5</desc>
</polygon>
<polygon fill="navy" stroke="white" stroke-width="1"
         points="90.000,63.509 90.000,69.282 95.000,72.169 95.000,72.169 100.000,69.282 105.000,72.169 110.000,69.282 110.000,63.509 115.000,60.622 115.000,54.848 110.000,51.962 110.000,46.188 105.000,43.301 100.000,46.188 100.000,51.962 105.000,54.848 105.000,60.622 100.000,63.509 95.000,60.622 95.000,54.848 90.000,51.962 85.000,54.848 85.000,60.622">
<desc>U5</desc>
</polygon>
<polygon fill="gray" stroke="white" stroke-width="1"
         points="120.000,63.509 120.000,69.282 125.000,72.169 125.000,72.169 130.000,69.282 130.000,63.509 135.000,60.622 135.000,54.848 130.000,51.962 130.000,46.188 125.000,43.301 125.000,37.528 130.000,34.641 130.000,28.868 125.000,25.981 120.000,28.868 120.000,34.641 115.000,37.528 115.000,43.301 120.000,46.188 120.000,51.962 125.000,54.848 125.000,60.622">
<desc>S5</desc>
</polygon>
<polygon fill="red" stroke="white" stroke-width="1"
         points="140.000,63.509 140.000,69.282 145.000,72.169 145.000,72.169 150.000,69.282 150.000,63.509 155.000,60.622 160.000,63.509 165.000,60.622 165.000,54.848 160.000,51.962 160.000,46.188 155.000,43.301 150.000,46.188 150.000,51.962 145.000,54.848 140.000,51.962 135.000,54.848 135.000,60.622">
<desc>X5</desc>
</polygon>
<polygon fill="teal" stroke="white" stroke-width="1"
         points="170.000,63.509 170.000,69.282 175.000,72.169 175.000,72.169 180.000,69.282 180.000,63.509 185.000,60.622 185.000,54.848 190.000,51.962 195.000,54.848 200.000,51.962 200.000,46.188 195.000,43.301 190.000,46.188 185.000,43.301 180.000,46.188 175.000,43.301 170.000,46.188 170.000,51.962 175.000,54.848 175.000,60.622">
<desc>T5</desc>
</polygon>
<polygon fill="lightcoral" stroke="white" stroke-width="1"
         points="75.000,54.848 75.000,60.622 80.000,63.509 80.000,63.509 85.000,60.622 85.000,54.848 90.000,51.962 95.000,54.848 95.000,60.622 100.000,63.509 105.000,60.622 105.000,54.848 100.000,51.962 100.000,46.188 95.000,43.301 90.000,46.188 85.000,43.301 80.000,46.188 75.000,43.301 70.000,46.188 70.000,51.962">
<desc>u5</desc>
</polygon>
<polygon fill="yellow" stroke="white" stroke-width="1"
         points="130.000,46.188 130.000,51.962 135.000,54.848 135.000,54.848 140.000,51.962 145.000,54.848 150.000,51.962 150.000,46.188 155.000,43.301 155.000,37.528 150.000,34.641 150.000,28.868 145.000,25.981 145.000,20.207 140.000,17.321 135.000,20.207 135.000,25.981 140.000,28.868 140.000,34.641 145.000,37.528 145.000,43.301 140.000,46.188 135.000,43.301">
<desc>r5</desc>
</polygon>
<polygon fill="olive" stroke="white" stroke-width="1"
         points="125.000,37.528 125.000,43.301 130.000,46.188 130.000,46.188 135.000,43.301 140.000,46.188 145.000,43.301 145.000,37.528 140.000,34.641 140.000,28.868 135.000,25.981 135.000,20.207 140.000,17.321 140.000,11.547 135.000,8.660 130.000,11.547 130.000,17.321 125.000,20.207 125.000,25.981 130.000,28.868 130.000,34.641">
<desc>q5</desc>
</polygon>
</g>
</svg>
