<?xml version="1.0" standalone="no"?>
<!-- Created by Polyform Puzzler (http://puzzler.sourceforge.net/) -->
<svg width="190.000" height="103.923"
     viewBox="0 0 190.000 103.923"
     xmlns="http://www.w3.org/2000/svg"
     xmlns:xlink="http://www.w3.org/1999/xlink">
<g>
<path fill="peru" stroke="white" stroke-width="1"
    d="M 10.000,89.489 L 10.000,95.263 L 15.000,98.150 L 20.000,95.263 L 25.000,98.150 L 30.000,95.263 L 35.000,98.150 L 40.000,95.263 L 45.000,98.150 L 50.000,95.263 L 50.000,89.489 L 45.000,86.603 L 40.000,89.489 L 35.000,86.603 L 30.000,89.489 L 25.000,86.603 L 25.000,80.829 L 20.000,77.942 L 15.000,80.829 L 15.000,86.603 Z">
<desc>P5</desc>
</path>
<path fill="darkorange" stroke="white" stroke-width="1"
    d="M 40.000,72.169 L 40.000,77.942 L 45.000,80.829 L 45.000,86.603 L 50.000,89.489 L 50.000,95.263 L 55.000,98.150 L 60.000,95.263 L 65.000,98.150 L 70.000,95.263 L 75.000,98.150 L 80.000,95.263 L 80.000,89.489 L 75.000,86.603 L 70.000,89.489 L 65.000,86.603 L 60.000,89.489 L 55.000,86.603 L 55.000,80.829 L 50.000,77.942 L 50.000,72.169 L 45.000,69.282 Z">
<desc>L5</desc>
</path>
<path fill="lightcoral" stroke="white" stroke-width="1"
    d="M 75.000,80.829 L 75.000,86.603 L 80.000,89.489 L 80.000,95.263 L 85.000,98.150 L 90.000,95.263 L 95.000,98.150 L 100.000,95.263 L 105.000,98.150 L 110.000,95.263 L 110.000,89.489 L 105.000,86.603 L 105.000,80.829 L 100.000,77.942 L 95.000,80.829 L 95.000,86.603 L 90.000,89.489 L 85.000,86.603 L 85.000,80.829 L 80.000,77.942 Z">
<desc>F5</desc>
</path>
<path fill="olive" stroke="white" stroke-width="1"
    d="M 115.000,63.509 L 115.000,69.282 L 120.000,72.169 L 120.000,77.942 L 125.000,80.829 L 125.000,86.603 L 120.000,89.489 L 120.000,95.263 L 125.000,98.150 L 130.000,95.263 L 130.000,89.489 L 135.000,86.603 L 135.000,80.829 L 130.000,77.942 L 130.000,72.169 L 135.000,69.282 L 135.000,63.509 L 130.000,60.622 L 125.000,63.509 L 120.000,60.622 Z">
<desc>Q5</desc>
</path>
<path fill="maroon" stroke="white" stroke-width="1"
    d="M 20.000,72.169 L 20.000,77.942 L 25.000,80.829 L 25.000,86.603 L 30.000,89.489 L 35.000,86.603 L 40.000,89.489 L 45.000,86.603 L 45.000,80.829 L 40.000,77.942 L 40.000,72.169 L 45.000,69.282 L 45.000,63.509 L 40.000,60.622 L 35.000,63.509 L 35.000,69.282 L 30.000,72.169 L 25.000,69.282 Z">
<desc>A5</desc>
</path>
<path fill="indigo" stroke="white" stroke-width="1"
    d="M 50.000,72.169 L 50.000,77.942 L 55.000,80.829 L 55.000,86.603 L 60.000,89.489 L 65.000,86.603 L 65.000,80.829 L 60.000,77.942 L 60.000,72.169 L 65.000,69.282 L 70.000,72.169 L 75.000,69.282 L 75.000,63.509 L 80.000,60.622 L 80.000,54.848 L 75.000,51.962 L 70.000,54.848 L 70.000,60.622 L 65.000,63.509 L 60.000,60.622 L 55.000,63.509 L 55.000,69.282 Z">
<desc>G5</desc>
</path>
<path fill="red" stroke="white" stroke-width="1"
    d="M 60.000,72.169 L 60.000,77.942 L 65.000,80.829 L 65.000,86.603 L 70.000,89.489 L 75.000,86.603 L 75.000,80.829 L 80.000,77.942 L 85.000,80.829 L 90.000,77.942 L 90.000,72.169 L 85.000,69.282 L 85.000,63.509 L 80.000,60.622 L 75.000,63.509 L 75.000,69.282 L 70.000,72.169 L 65.000,69.282 Z">
<desc>X5</desc>
</path>
<path fill="darkseagreen" stroke="white" stroke-width="1"
    d="M 75.000,46.188 L 75.000,51.962 L 80.000,54.848 L 80.000,60.622 L 85.000,63.509 L 85.000,69.282 L 90.000,72.169 L 90.000,77.942 L 85.000,80.829 L 85.000,86.603 L 90.000,89.489 L 95.000,86.603 L 95.000,80.829 L 100.000,77.942 L 100.000,72.169 L 95.000,69.282 L 95.000,63.509 L 90.000,60.622 L 90.000,54.848 L 85.000,51.962 L 85.000,46.188 L 80.000,43.301 Z">
<desc>J5</desc>
</path>
<path fill="yellow" stroke="white" stroke-width="1"
    d="M 105.000,63.509 L 105.000,69.282 L 110.000,72.169 L 110.000,77.942 L 115.000,80.829 L 115.000,86.603 L 120.000,89.489 L 125.000,86.603 L 125.000,80.829 L 120.000,77.942 L 120.000,72.169 L 115.000,69.282 L 115.000,63.509 L 120.000,60.622 L 125.000,63.509 L 130.000,60.622 L 130.000,54.848 L 125.000,51.962 L 120.000,54.848 L 115.000,51.962 L 110.000,54.848 L 110.000,60.622 Z">
<desc>R5</desc>
</path>
<path fill="gray" stroke="white" stroke-width="1"
    d="M 125.000,46.188 L 125.000,51.962 L 130.000,54.848 L 130.000,60.622 L 135.000,63.509 L 135.000,69.282 L 130.000,72.169 L 130.000,77.942 L 135.000,80.829 L 140.000,77.942 L 140.000,72.169 L 145.000,69.282 L 145.000,63.509 L 140.000,60.622 L 140.000,54.848 L 135.000,51.962 L 135.000,46.188 L 140.000,43.301 L 140.000,37.528 L 135.000,34.641 L 130.000,37.528 L 130.000,43.301 Z">
<desc>S5</desc>
</path>
<path fill="magenta" stroke="white" stroke-width="1"
    d="M 25.000,63.509 L 25.000,69.282 L 30.000,72.169 L 35.000,69.282 L 35.000,63.509 L 40.000,60.622 L 45.000,63.509 L 50.000,60.622 L 50.000,54.848 L 45.000,51.962 L 45.000,46.188 L 50.000,43.301 L 50.000,37.528 L 45.000,34.641 L 40.000,37.528 L 40.000,43.301 L 35.000,46.188 L 35.000,51.962 L 30.000,54.848 L 30.000,60.622 Z">
<desc>E5</desc>
</path>
<path fill="plum" stroke="white" stroke-width="1"
    d="M 45.000,63.509 L 45.000,69.282 L 50.000,72.169 L 55.000,69.282 L 55.000,63.509 L 60.000,60.622 L 65.000,63.509 L 70.000,60.622 L 70.000,54.848 L 75.000,51.962 L 75.000,46.188 L 80.000,43.301 L 80.000,37.528 L 75.000,34.641 L 70.000,37.528 L 70.000,43.301 L 65.000,46.188 L 65.000,51.962 L 60.000,54.848 L 55.000,51.962 L 50.000,54.848 L 50.000,60.622 Z">
<desc>N5</desc>
</path>
<path fill="blueviolet" stroke="white" stroke-width="1"
    d="M 90.000,37.528 L 90.000,43.301 L 95.000,46.188 L 95.000,51.962 L 100.000,54.848 L 100.000,60.622 L 105.000,63.509 L 110.000,60.622 L 110.000,54.848 L 115.000,51.962 L 115.000,46.188 L 120.000,43.301 L 120.000,37.528 L 115.000,34.641 L 110.000,37.528 L 110.000,43.301 L 105.000,46.188 L 100.000,43.301 L 100.000,37.528 L 95.000,34.641 Z">
<desc>V5</desc>
</path>
<path fill="blue" stroke="white" stroke-width="1"
    d="M 140.000,54.848 L 140.000,60.622 L 145.000,63.509 L 150.000,60.622 L 150.000,54.848 L 155.000,51.962 L 155.000,46.188 L 160.000,43.301 L 160.000,37.528 L 165.000,34.641 L 165.000,28.868 L 170.000,25.981 L 170.000,20.207 L 165.000,17.321 L 160.000,20.207 L 160.000,25.981 L 155.000,28.868 L 155.000,34.641 L 150.000,37.528 L 150.000,43.301 L 145.000,46.188 L 145.000,51.962 Z">
<desc>I5</desc>
</path>
<path fill="lime" stroke="white" stroke-width="1"
    d="M 45.000,46.188 L 45.000,51.962 L 50.000,54.848 L 55.000,51.962 L 60.000,54.848 L 65.000,51.962 L 65.000,46.188 L 70.000,43.301 L 70.000,37.528 L 75.000,34.641 L 75.000,28.868 L 70.000,25.981 L 70.000,20.207 L 65.000,17.321 L 60.000,20.207 L 60.000,25.981 L 65.000,28.868 L 65.000,34.641 L 60.000,37.528 L 60.000,43.301 L 55.000,46.188 L 50.000,43.301 Z">
<desc>C5</desc>
</path>
<path fill="tan" stroke="white" stroke-width="1"
    d="M 105.000,28.868 L 105.000,34.641 L 110.000,37.528 L 115.000,34.641 L 120.000,37.528 L 120.000,43.301 L 115.000,46.188 L 115.000,51.962 L 120.000,54.848 L 125.000,51.962 L 125.000,46.188 L 130.000,43.301 L 130.000,37.528 L 125.000,34.641 L 125.000,28.868 L 130.000,25.981 L 130.000,20.207 L 125.000,17.321 L 120.000,20.207 L 120.000,25.981 L 115.000,28.868 L 110.000,25.981 Z">
<desc>H5</desc>
</path>
<path fill="gold" stroke="white" stroke-width="1"
    d="M 135.000,11.547 L 135.000,17.321 L 140.000,20.207 L 140.000,25.981 L 135.000,28.868 L 135.000,34.641 L 140.000,37.528 L 140.000,43.301 L 135.000,46.188 L 135.000,51.962 L 140.000,54.848 L 145.000,51.962 L 145.000,46.188 L 150.000,43.301 L 150.000,37.528 L 145.000,34.641 L 145.000,28.868 L 150.000,25.981 L 150.000,20.207 L 145.000,17.321 L 145.000,11.547 L 140.000,8.660 Z">
<desc>W5</desc>
</path>
<path fill="steelblue" stroke="white" stroke-width="1"
    d="M 45.000,28.868 L 45.000,34.641 L 50.000,37.528 L 50.000,43.301 L 55.000,46.188 L 60.000,43.301 L 60.000,37.528 L 65.000,34.641 L 65.000,28.868 L 60.000,25.981 L 60.000,20.207 L 65.000,17.321 L 65.000,11.547 L 60.000,8.660 L 55.000,11.547 L 55.000,17.321 L 50.000,20.207 L 50.000,25.981 Z">
<desc>B5</desc>
</path>
<path fill="turquoise" stroke="white" stroke-width="1"
    d="M 85.000,28.868 L 85.000,34.641 L 90.000,37.528 L 95.000,34.641 L 100.000,37.528 L 100.000,43.301 L 105.000,46.188 L 110.000,43.301 L 110.000,37.528 L 105.000,34.641 L 105.000,28.868 L 110.000,25.981 L 110.000,20.207 L 115.000,17.321 L 115.000,11.547 L 110.000,8.660 L 105.000,11.547 L 105.000,17.321 L 100.000,20.207 L 100.000,25.981 L 95.000,28.868 L 90.000,25.981 Z">
<desc>Y5</desc>
</path>
<path fill="navy" stroke="white" stroke-width="1"
    d="M 110.000,20.207 L 110.000,25.981 L 115.000,28.868 L 120.000,25.981 L 120.000,20.207 L 125.000,17.321 L 130.000,20.207 L 130.000,25.981 L 125.000,28.868 L 125.000,34.641 L 130.000,37.528 L 135.000,34.641 L 135.000,28.868 L 140.000,25.981 L 140.000,20.207 L 135.000,17.321 L 135.000,11.547 L 130.000,8.660 L 125.000,11.547 L 120.000,8.660 L 115.000,11.547 L 115.000,17.321 Z">
<desc>U5</desc>
</path>
<path fill="teal" stroke="white" stroke-width="1"
    d="M 145.000,11.547 L 145.000,17.321 L 150.000,20.207 L 150.000,25.981 L 145.000,28.868 L 145.000,34.641 L 150.000,37.528 L 155.000,34.641 L 155.000,28.868 L 160.000,25.981 L 160.000,20.207 L 165.000,17.321 L 170.000,20.207 L 175.000,17.321 L 175.000,11.547 L 170.000,8.660 L 165.000,11.547 L 160.000,8.660 L 155.000,11.547 L 150.000,8.660 Z">
<desc>T5</desc>
</path>
<path fill="green" stroke="white" stroke-width="1"
    d="M 75.000,11.547 L 75.000,17.321 L 80.000,20.207 L 80.000,25.981 L 85.000,28.868 L 90.000,25.981 L 95.000,28.868 L 100.000,25.981 L 100.000,20.207 L 105.000,17.321 L 105.000,11.547 L 100.000,8.660 L 95.000,11.547 L 90.000,8.660 L 85.000,11.547 L 80.000,8.660 Z">
<desc>D5</desc>
</path>
</g>
</svg>
