<?xml version="1.0" standalone="no"?>
<!-- Created by Polyform Puzzler (http://puzzler.sourceforge.net/) -->
<svg width="245.0" height="147.224318643" viewBox="0 0 245.0 147.224318643"
     xmlns="http://www.w3.org/2000/svg"
     xmlns:xlink="http://www.w3.org/1999/xlink">
<g>
<polygon fill="green" stroke="white" stroke-width="1"
         points="10.000,132.791 10.000,138.564 15.000,141.451 15.000,141.451 20.000,138.564 25.000,141.451 30.000,138.564 30.000,132.791 35.000,129.904 35.000,124.130 30.000,121.244 30.000,115.470 25.000,112.583 20.000,115.470 20.000,121.244 15.000,124.130 15.000,129.904">
<desc>D5</desc>
</polygon>
<polygon fill="teal" stroke="white" stroke-width="1"
         points="30.000,132.791 30.000,138.564 35.000,141.451 35.000,141.451 40.000,138.564 40.000,132.791 45.000,129.904 50.000,132.791 55.000,129.904 55.000,124.130 50.000,121.244 50.000,115.470 45.000,112.583 45.000,106.810 40.000,103.923 35.000,106.810 35.000,112.583 40.000,115.470 40.000,121.244 35.000,124.130 35.000,129.904">
<desc>T5</desc>
</polygon>
<polygon fill="blueviolet" stroke="white" stroke-width="1"
         points="40.000,132.791 40.000,138.564 45.000,141.451 45.000,141.451 50.000,138.564 55.000,141.451 60.000,138.564 65.000,141.451 70.000,138.564 70.000,132.791 65.000,129.904 65.000,124.130 60.000,121.244 60.000,115.470 55.000,112.583 50.000,115.470 50.000,121.244 55.000,124.130 55.000,129.904 50.000,132.791 45.000,129.904">
<desc>V5</desc>
</polygon>
<polygon fill="navy" stroke="white" stroke-width="1"
         points="70.000,132.791 70.000,138.564 75.000,141.451 75.000,141.451 80.000,138.564 85.000,141.451 90.000,138.564 90.000,132.791 95.000,129.904 95.000,124.130 90.000,121.244 85.000,124.130 85.000,129.904 80.000,132.791 75.000,129.904 75.000,124.130 80.000,121.244 80.000,115.470 75.000,112.583 70.000,115.470 70.000,121.244 65.000,124.130 65.000,129.904">
<desc>U5</desc>
</polygon>
<polygon fill="yellow" stroke="white" stroke-width="1"
         points="90.000,132.791 90.000,138.564 95.000,141.451 95.000,141.451 100.000,138.564 100.000,132.791 105.000,129.904 105.000,124.130 110.000,121.244 110.000,115.470 105.000,112.583 105.000,106.810 100.000,103.923 95.000,106.810 90.000,103.923 85.000,106.810 85.000,112.583 90.000,115.470 95.000,112.583 100.000,115.470 100.000,121.244 95.000,124.130 95.000,129.904">
<desc>r5</desc>
</polygon>
<polygon fill="olive" stroke="white" stroke-width="1"
         points="100.000,132.791 100.000,138.564 105.000,141.451 105.000,141.451 110.000,138.564 115.000,141.451 120.000,138.564 120.000,132.791 115.000,129.904 115.000,124.130 120.000,121.244 120.000,115.470 115.000,112.583 115.000,106.810 110.000,103.923 105.000,106.810 105.000,112.583 110.000,115.470 110.000,121.244 105.000,124.130 105.000,129.904">
<desc>q5</desc>
</polygon>
<polygon fill="magenta" stroke="white" stroke-width="1"
         points="120.000,132.791 120.000,138.564 125.000,141.451 125.000,141.451 130.000,138.564 135.000,141.451 140.000,138.564 145.000,141.451 150.000,138.564 155.000,141.451 160.000,138.564 160.000,132.791 155.000,129.904 150.000,132.791 145.000,129.904 145.000,124.130 140.000,121.244 135.000,124.130 135.000,129.904 130.000,132.791 125.000,129.904">
<desc>E5</desc>
</polygon>
<polygon fill="tan" stroke="white" stroke-width="1"
         points="75.000,124.130 75.000,129.904 80.000,132.791 80.000,132.791 85.000,129.904 85.000,124.130 90.000,121.244 95.000,124.130 100.000,121.244 100.000,115.470 95.000,112.583 90.000,115.470 85.000,112.583 85.000,106.810 80.000,103.923 75.000,106.810 70.000,103.923 65.000,106.810 65.000,112.583 70.000,115.470 75.000,112.583 80.000,115.470 80.000,121.244">
<desc>y5</desc>
</polygon>
<polygon fill="indigo" stroke="white" stroke-width="1"
         points="115.000,124.130 115.000,129.904 120.000,132.791 120.000,132.791 125.000,129.904 130.000,132.791 135.000,129.904 135.000,124.130 140.000,121.244 145.000,124.130 145.000,129.904 150.000,132.791 155.000,129.904 155.000,124.130 150.000,121.244 150.000,115.470 145.000,112.583 140.000,115.470 135.000,112.583 130.000,115.470 130.000,121.244 125.000,124.130 120.000,121.244">
<desc>G5</desc>
</polygon>
<polygon fill="lightcoral" stroke="white" stroke-width="1"
         points="30.000,115.470 30.000,121.244 35.000,124.130 35.000,124.130 40.000,121.244 40.000,115.470 35.000,112.583 35.000,106.810 40.000,103.923 45.000,106.810 50.000,103.923 50.000,98.150 45.000,95.263 45.000,89.489 40.000,86.603 35.000,89.489 35.000,95.263 30.000,98.150 30.000,103.923 25.000,106.810 25.000,112.583">
<desc>u5</desc>
</polygon>
<polygon fill="gold" stroke="white" stroke-width="1"
         points="60.000,115.470 60.000,121.244 65.000,124.130 65.000,124.130 70.000,121.244 70.000,115.470 65.000,112.583 65.000,106.810 70.000,103.923 70.000,98.150 65.000,95.263 65.000,89.489 70.000,86.603 70.000,80.829 65.000,77.942 60.000,80.829 60.000,86.603 55.000,89.489 55.000,95.263 60.000,98.150 60.000,103.923 55.000,106.810 55.000,112.583">
<desc>W5</desc>
</polygon>
<polygon fill="red" stroke="white" stroke-width="1"
         points="120.000,115.470 120.000,121.244 125.000,124.130 125.000,124.130 130.000,121.244 130.000,115.470 135.000,112.583 140.000,115.470 145.000,112.583 145.000,106.810 140.000,103.923 140.000,98.150 135.000,95.263 130.000,98.150 130.000,103.923 125.000,106.810 120.000,103.923 115.000,106.810 115.000,112.583">
<desc>X5</desc>
</polygon>
<polygon fill="gray" stroke="white" stroke-width="1"
         points="45.000,106.810 45.000,112.583 50.000,115.470 50.000,115.470 55.000,112.583 55.000,106.810 60.000,103.923 60.000,98.150 55.000,95.263 55.000,89.489 50.000,86.603 50.000,80.829 55.000,77.942 55.000,72.169 50.000,69.282 45.000,72.169 45.000,77.942 40.000,80.829 40.000,86.603 45.000,89.489 45.000,95.263 50.000,98.150 50.000,103.923">
<desc>S5</desc>
</polygon>
<polygon fill="lime" stroke="white" stroke-width="1"
         points="100.000,98.150 100.000,103.923 105.000,106.810 105.000,106.810 110.000,103.923 110.000,98.150 115.000,95.263 115.000,89.489 110.000,86.603 110.000,80.829 105.000,77.942 105.000,72.169 100.000,69.282 95.000,72.169 90.000,69.282 85.000,72.169 85.000,77.942 90.000,80.829 95.000,77.942 100.000,80.829 100.000,86.603 105.000,89.489 105.000,95.263">
<desc>C5</desc>
</polygon>
<polygon fill="maroon" stroke="white" stroke-width="1"
         points="110.000,98.150 110.000,103.923 115.000,106.810 115.000,106.810 120.000,103.923 125.000,106.810 130.000,103.923 130.000,98.150 135.000,95.263 135.000,89.489 130.000,86.603 125.000,89.489 120.000,86.603 120.000,80.829 115.000,77.942 110.000,80.829 110.000,86.603 115.000,89.489 115.000,95.263">
<desc>A5</desc>
</polygon>
<polygon fill="turquoise" stroke="white" stroke-width="1"
         points="50.000,80.829 50.000,86.603 55.000,89.489 55.000,89.489 60.000,86.603 60.000,80.829 65.000,77.942 70.000,80.829 75.000,77.942 80.000,80.829 85.000,77.942 85.000,72.169 80.000,69.282 75.000,72.169 70.000,69.282 65.000,72.169 60.000,69.282 60.000,63.509 55.000,60.622 50.000,63.509 50.000,69.282 55.000,72.169 55.000,77.942">
<desc>Y5</desc>
</polygon>
<polygon fill="plum" stroke="white" stroke-width="1"
         points="120.000,80.829 120.000,86.603 125.000,89.489 125.000,89.489 130.000,86.603 130.000,80.829 125.000,77.942 125.000,72.169 120.000,69.282 115.000,72.169 110.000,69.282 110.000,63.509 105.000,60.622 105.000,54.848 100.000,51.962 95.000,54.848 95.000,60.622 100.000,63.509 100.000,69.282 105.000,72.169 105.000,77.942 110.000,80.829 115.000,77.942">
<desc>N5</desc>
</polygon>
<polygon fill="steelblue" stroke="white" stroke-width="1"
         points="60.000,63.509 60.000,69.282 65.000,72.169 65.000,72.169 70.000,69.282 75.000,72.169 80.000,69.282 85.000,72.169 90.000,69.282 90.000,63.509 85.000,60.622 80.000,63.509 75.000,60.622 75.000,54.848 70.000,51.962 65.000,54.848 60.000,51.962 55.000,54.848 55.000,60.622">
<desc>p5</desc>
</polygon>
<polygon fill="darkorange" stroke="white" stroke-width="1"
         points="90.000,63.509 90.000,69.282 95.000,72.169 95.000,72.169 100.000,69.282 100.000,63.509 95.000,60.622 95.000,54.848 90.000,51.962 90.000,46.188 95.000,43.301 95.000,37.528 100.000,34.641 100.000,28.868 95.000,25.981 90.000,28.868 90.000,34.641 85.000,37.528 85.000,43.301 80.000,46.188 80.000,51.962 85.000,54.848 85.000,60.622">
<desc>L5</desc>
</polygon>
<polygon fill="peru" stroke="white" stroke-width="1"
         points="110.000,63.509 110.000,69.282 115.000,72.169 115.000,72.169 120.000,69.282 120.000,63.509 115.000,60.622 115.000,54.848 110.000,51.962 110.000,46.188 105.000,43.301 105.000,37.528 100.000,34.641 95.000,37.528 95.000,43.301 90.000,46.188 90.000,51.962 95.000,54.848 100.000,51.962 105.000,54.848 105.000,60.622">
<desc>P5</desc>
</polygon>
<polygon fill="darkseagreen" stroke="white" stroke-width="1"
         points="75.000,54.848 75.000,60.622 80.000,63.509 80.000,63.509 85.000,60.622 85.000,54.848 80.000,51.962 80.000,46.188 85.000,43.301 85.000,37.528 90.000,34.641 90.000,28.868 95.000,25.981 95.000,20.207 90.000,17.321 85.000,20.207 85.000,25.981 80.000,28.868 80.000,34.641 75.000,37.528 75.000,43.301 70.000,46.188 70.000,51.962">
<desc>J5</desc>
</polygon>
<polygon fill="blue" stroke="white" stroke-width="1"
         points="60.000,46.188 60.000,51.962 65.000,54.848 65.000,54.848 70.000,51.962 70.000,46.188 75.000,43.301 75.000,37.528 80.000,34.641 80.000,28.868 85.000,25.981 85.000,20.207 90.000,17.321 90.000,11.547 85.000,8.660 80.000,11.547 80.000,17.321 75.000,20.207 75.000,25.981 70.000,28.868 70.000,34.641 65.000,37.528 65.000,43.301">
<desc>I5</desc>
</polygon>
</g>
</svg>
