<?xml version="1.0" standalone="no"?>
<!-- Created by Polyform Puzzler (http://puzzler.sourceforge.net/) -->
<svg width="320.000" height="320.000"
     viewBox="0 0 320.000 320.000"
     xmlns="http://www.w3.org/2000/svg"
     xmlns:xlink="http://www.w3.org/1999/xlink">
<g transform="translate(160.000,80.000) rotate(-30)">
<polygon fill="plum" stroke="white" stroke-width="1"
         points="90.000,72.169 90.000,77.942 95.000,80.829 95.000,80.829 100.000,77.942 105.000,80.829 110.000,77.942 110.000,72.169 105.000,69.282 100.000,72.169 95.000,69.282 95.000,63.509 90.000,60.622 85.000,63.509 85.000,69.282">
<desc>V3</desc>
</polygon>
<polygon fill="navy" stroke="white" stroke-width="1"
         points="75.000,63.509 75.000,69.282 80.000,72.169 80.000,72.169 85.000,69.282 85.000,63.509 80.000,60.622 80.000,54.848 75.000,51.962 70.000,54.848 65.000,51.962 65.000,46.188 60.000,43.301 55.000,46.188 55.000,51.962 60.000,54.848 60.000,60.622 65.000,63.509 70.000,60.622">
<desc>S4</desc>
</polygon>
<polygon fill="green" stroke="white" stroke-width="1"
         points="95.000,63.509 95.000,69.282 100.000,72.169 100.000,72.169 105.000,69.282 105.000,63.509 100.000,60.622 100.000,54.848 105.000,51.962 105.000,46.188 100.000,43.301 95.000,46.188 95.000,51.962 90.000,54.848 85.000,51.962 80.000,54.848 80.000,60.622 85.000,63.509 90.000,60.622">
<desc>Y4</desc>
</polygon>
<polygon fill="red" stroke="white" stroke-width="1"
         points="105.000,63.509 105.000,69.282 110.000,72.169 110.000,72.169 115.000,69.282 115.000,63.509 120.000,60.622 120.000,54.848 115.000,51.962 115.000,46.188 110.000,43.301 105.000,46.188 105.000,51.962 100.000,54.848 100.000,60.622">
<desc>O4</desc>
</polygon>
<polygon fill="blue" stroke="white" stroke-width="1"
         points="45.000,46.188 45.000,51.962 50.000,54.848 50.000,54.848 55.000,51.962 55.000,46.188 60.000,43.301 60.000,37.528 65.000,34.641 65.000,28.868 70.000,25.981 70.000,20.207 65.000,17.321 60.000,20.207 60.000,25.981 55.000,28.868 55.000,34.641 50.000,37.528 50.000,43.301">
<desc>I4</desc>
</polygon>
<polygon fill="blueviolet" stroke="white" stroke-width="1"
         points="65.000,46.188 65.000,51.962 70.000,54.848 70.000,54.848 75.000,51.962 75.000,46.188 70.000,43.301 70.000,37.528 75.000,34.641 75.000,28.868 80.000,25.981 80.000,20.207 75.000,17.321 70.000,20.207 70.000,25.981 65.000,28.868 65.000,34.641 60.000,37.528 60.000,43.301">
<desc>J4</desc>
</polygon>
<polygon fill="lime" stroke="white" stroke-width="1"
         points="75.000,46.188 75.000,51.962 80.000,54.848 80.000,54.848 85.000,51.962 90.000,54.848 95.000,51.962 95.000,46.188 90.000,43.301 85.000,46.188 80.000,43.301 80.000,37.528 85.000,34.641 85.000,28.868 80.000,25.981 75.000,28.868 75.000,34.641 70.000,37.528 70.000,43.301">
<desc>U4</desc>
</polygon>
<polygon fill="gray" stroke="white" stroke-width="1"
         points="115.000,46.188 115.000,51.962 120.000,54.848 120.000,54.848 125.000,51.962 125.000,46.188 120.000,43.301">
<desc>H1</desc>
</polygon>
<polygon fill="olive" stroke="white" stroke-width="1"
         points="30.000,37.528 30.000,43.301 35.000,46.188 35.000,46.188 40.000,43.301 45.000,46.188 50.000,43.301 50.000,37.528 45.000,34.641 45.000,28.868 40.000,25.981 35.000,28.868 35.000,34.641">
<desc>A3</desc>
</polygon>
<polygon fill="gold" stroke="white" stroke-width="1"
         points="80.000,37.528 80.000,43.301 85.000,46.188 85.000,46.188 90.000,43.301 95.000,46.188 100.000,43.301 105.000,46.188 110.000,43.301 110.000,37.528 105.000,34.641 100.000,37.528 95.000,34.641 95.000,28.868 90.000,25.981 85.000,28.868 85.000,34.641">
<desc>P4</desc>
</polygon>
<polygon fill="teal" stroke="white" stroke-width="1"
         points="45.000,28.868 45.000,34.641 50.000,37.528 50.000,37.528 55.000,34.641 55.000,28.868 60.000,25.981 60.000,20.207 65.000,17.321 65.000,11.547 60.000,8.660 55.000,11.547 55.000,17.321 50.000,20.207 50.000,25.981">
<desc>I3</desc>
</polygon>
<polygon fill="steelblue" stroke="white" stroke-width="1"
         points="40.000,20.207 40.000,25.981 45.000,28.868 45.000,28.868 50.000,25.981 50.000,20.207 55.000,17.321 55.000,11.547 50.000,8.660 45.000,11.547 45.000,17.321">
<desc>I2</desc>
</polygon>
</g>
</svg>
