<?xml version="1.0" standalone="no"?>
<!-- Created by Polyform Puzzler (http://puzzler.sourceforge.net/) -->
<svg width="155.000" height="95.263"
     viewBox="0 0 155.000 95.263"
     xmlns="http://www.w3.org/2000/svg"
     xmlns:xlink="http://www.w3.org/1999/xlink">
<g>
<polygon fill="gold" stroke="white" stroke-width="1"
         points="50.000,80.829 50.000,86.603 55.000,89.489 55.000,89.489 60.000,86.603 65.000,89.489 70.000,86.603 75.000,89.489 80.000,86.603 80.000,80.829 75.000,77.942 75.000,72.169 70.000,69.282 65.000,72.169 65.000,77.942 60.000,80.829 55.000,77.942">
<desc>P4</desc>
</polygon>
<polygon fill="gray" stroke="white" stroke-width="1"
         points="80.000,80.829 80.000,86.603 85.000,89.489 85.000,89.489 90.000,86.603 90.000,80.829 85.000,77.942">
<desc>H1</desc>
</polygon>
<polygon fill="green" stroke="white" stroke-width="1"
         points="90.000,80.829 90.000,86.603 95.000,89.489 95.000,89.489 100.000,86.603 100.000,80.829 95.000,77.942 95.000,72.169 100.000,69.282 100.000,63.509 95.000,60.622 90.000,63.509 90.000,69.282 85.000,72.169 80.000,69.282 75.000,72.169 75.000,77.942 80.000,80.829 85.000,77.942">
<desc>Y4</desc>
</polygon>
<polygon fill="blueviolet" stroke="white" stroke-width="1"
         points="45.000,72.169 45.000,77.942 50.000,80.829 50.000,80.829 55.000,77.942 60.000,80.829 65.000,77.942 65.000,72.169 60.000,69.282 55.000,72.169 50.000,69.282 50.000,63.509 45.000,60.622 45.000,54.848 40.000,51.962 35.000,54.848 35.000,60.622 40.000,63.509 40.000,69.282">
<desc>J4</desc>
</polygon>
<polygon fill="teal" stroke="white" stroke-width="1"
         points="95.000,72.169 95.000,77.942 100.000,80.829 100.000,80.829 105.000,77.942 105.000,72.169 110.000,69.282 110.000,63.509 115.000,60.622 115.000,54.848 110.000,51.962 105.000,54.848 105.000,60.622 100.000,63.509 100.000,69.282">
<desc>I3</desc>
</polygon>
<polygon fill="blue" stroke="white" stroke-width="1"
         points="50.000,63.509 50.000,69.282 55.000,72.169 55.000,72.169 60.000,69.282 60.000,63.509 55.000,60.622 55.000,54.848 50.000,51.962 50.000,46.188 45.000,43.301 45.000,37.528 40.000,34.641 35.000,37.528 35.000,43.301 40.000,46.188 40.000,51.962 45.000,54.848 45.000,60.622">
<desc>I4</desc>
</polygon>
<polygon fill="steelblue" stroke="white" stroke-width="1"
         points="95.000,54.848 95.000,60.622 100.000,63.509 100.000,63.509 105.000,60.622 105.000,54.848 110.000,51.962 110.000,46.188 105.000,43.301 100.000,46.188 100.000,51.962">
<desc>I2</desc>
</polygon>
<polygon fill="red" stroke="white" stroke-width="1"
         points="45.000,37.528 45.000,43.301 50.000,46.188 50.000,46.188 55.000,43.301 55.000,37.528 60.000,34.641 60.000,28.868 55.000,25.981 55.000,20.207 50.000,17.321 45.000,20.207 45.000,25.981 40.000,28.868 40.000,34.641">
<desc>O4</desc>
</polygon>
<polygon fill="olive" stroke="white" stroke-width="1"
         points="95.000,37.528 95.000,43.301 100.000,46.188 100.000,46.188 105.000,43.301 110.000,46.188 115.000,43.301 115.000,37.528 110.000,34.641 110.000,28.868 105.000,25.981 100.000,28.868 100.000,34.641">
<desc>A3</desc>
</polygon>
<polygon fill="lime" stroke="white" stroke-width="1"
         points="90.000,28.868 90.000,34.641 95.000,37.528 95.000,37.528 100.000,34.641 100.000,28.868 105.000,25.981 105.000,20.207 100.000,17.321 100.000,11.547 95.000,8.660 90.000,11.547 85.000,8.660 80.000,11.547 80.000,17.321 85.000,20.207 90.000,17.321 95.000,20.207 95.000,25.981">
<desc>U4</desc>
</polygon>
<polygon fill="plum" stroke="white" stroke-width="1"
         points="55.000,20.207 55.000,25.981 60.000,28.868 60.000,28.868 65.000,25.981 70.000,28.868 75.000,25.981 75.000,20.207 70.000,17.321 65.000,20.207 60.000,17.321 60.000,11.547 55.000,8.660 50.000,11.547 50.000,17.321">
<desc>V3</desc>
</polygon>
<polygon fill="navy" stroke="white" stroke-width="1"
         points="75.000,20.207 75.000,25.981 80.000,28.868 80.000,28.868 85.000,25.981 90.000,28.868 95.000,25.981 95.000,20.207 90.000,17.321 85.000,20.207 80.000,17.321 80.000,11.547 75.000,8.660 70.000,11.547 65.000,8.660 60.000,11.547 60.000,17.321 65.000,20.207 70.000,17.321">
<desc>S4</desc>
</polygon>
</g>
</svg>
