<?xml version="1.0" standalone="no"?>
<!-- Created by Polyform Puzzler (http://puzzler.sourceforge.net/) -->
<svg width="155.000" height="95.263"
     viewBox="0 0 155.000 95.263"
     xmlns="http://www.w3.org/2000/svg"
     xmlns:xlink="http://www.w3.org/1999/xlink">
<g>
<polygon fill="teal" stroke="white" stroke-width="1"
         points="50.000,80.829 50.000,86.603 55.000,89.489 55.000,89.489 60.000,86.603 60.000,80.829 65.000,77.942 65.000,72.169 70.000,69.282 70.000,63.509 65.000,60.622 60.000,63.509 60.000,69.282 55.000,72.169 55.000,77.942">
<desc>I3</desc>
</polygon>
<polygon fill="blueviolet" stroke="white" stroke-width="1"
         points="90.000,80.829 90.000,86.603 95.000,89.489 95.000,89.489 100.000,86.603 100.000,80.829 95.000,77.942 95.000,72.169 100.000,69.282 100.000,63.509 105.000,60.622 105.000,54.848 100.000,51.962 95.000,54.848 95.000,60.622 90.000,63.509 90.000,69.282 85.000,72.169 85.000,77.942">
<desc>J4</desc>
</polygon>
<polygon fill="red" stroke="white" stroke-width="1"
         points="65.000,72.169 65.000,77.942 70.000,80.829 70.000,80.829 75.000,77.942 80.000,80.829 85.000,77.942 85.000,72.169 90.000,69.282 90.000,63.509 85.000,60.622 80.000,63.509 75.000,60.622 70.000,63.509 70.000,69.282">
<desc>O4</desc>
</polygon>
<polygon fill="gold" stroke="white" stroke-width="1"
         points="50.000,63.509 50.000,69.282 55.000,72.169 55.000,72.169 60.000,69.282 60.000,63.509 65.000,60.622 65.000,54.848 70.000,51.962 70.000,46.188 65.000,43.301 60.000,46.188 55.000,43.301 50.000,46.188 50.000,51.962 55.000,54.848 55.000,60.622">
<desc>P4</desc>
</polygon>
<polygon fill="green" stroke="white" stroke-width="1"
         points="45.000,54.848 45.000,60.622 50.000,63.509 50.000,63.509 55.000,60.622 55.000,54.848 50.000,51.962 50.000,46.188 55.000,43.301 55.000,37.528 50.000,34.641 45.000,37.528 45.000,43.301 40.000,46.188 35.000,43.301 30.000,46.188 30.000,51.962 35.000,54.848 40.000,51.962">
<desc>Y4</desc>
</polygon>
<polygon fill="lime" stroke="white" stroke-width="1"
         points="75.000,54.848 75.000,60.622 80.000,63.509 80.000,63.509 85.000,60.622 90.000,63.509 95.000,60.622 95.000,54.848 100.000,51.962 100.000,46.188 95.000,43.301 90.000,46.188 90.000,51.962 85.000,54.848 80.000,51.962 80.000,46.188 75.000,43.301 70.000,46.188 70.000,51.962">
<desc>U4</desc>
</polygon>
<polygon fill="steelblue" stroke="white" stroke-width="1"
         points="100.000,46.188 100.000,51.962 105.000,54.848 105.000,54.848 110.000,51.962 115.000,54.848 120.000,51.962 120.000,46.188 115.000,43.301 110.000,46.188 105.000,43.301">
<desc>I2</desc>
</polygon>
<polygon fill="navy" stroke="white" stroke-width="1"
         points="55.000,37.528 55.000,43.301 60.000,46.188 60.000,46.188 65.000,43.301 65.000,37.528 70.000,34.641 75.000,37.528 80.000,34.641 80.000,28.868 85.000,25.981 85.000,20.207 80.000,17.321 75.000,20.207 75.000,25.981 70.000,28.868 65.000,25.981 60.000,28.868 60.000,34.641">
<desc>S4</desc>
</polygon>
<polygon fill="blue" stroke="white" stroke-width="1"
         points="75.000,37.528 75.000,43.301 80.000,46.188 80.000,46.188 85.000,43.301 85.000,37.528 90.000,34.641 90.000,28.868 95.000,25.981 95.000,20.207 100.000,17.321 100.000,11.547 95.000,8.660 90.000,11.547 90.000,17.321 85.000,20.207 85.000,25.981 80.000,28.868 80.000,34.641">
<desc>I4</desc>
</polygon>
<polygon fill="olive" stroke="white" stroke-width="1"
         points="85.000,37.528 85.000,43.301 90.000,46.188 90.000,46.188 95.000,43.301 100.000,46.188 105.000,43.301 105.000,37.528 100.000,34.641 100.000,28.868 95.000,25.981 90.000,28.868 90.000,34.641">
<desc>A3</desc>
</polygon>
<polygon fill="plum" stroke="white" stroke-width="1"
         points="50.000,28.868 50.000,34.641 55.000,37.528 55.000,37.528 60.000,34.641 60.000,28.868 65.000,25.981 70.000,28.868 75.000,25.981 75.000,20.207 70.000,17.321 65.000,20.207 60.000,17.321 55.000,20.207 55.000,25.981">
<desc>V3</desc>
</polygon>
<polygon fill="gray" stroke="white" stroke-width="1"
         points="50.000,11.547 50.000,17.321 55.000,20.207 55.000,20.207 60.000,17.321 60.000,11.547 55.000,8.660">
<desc>H1</desc>
</polygon>
</g>
</svg>
