<?xml version="1.0" standalone="no"?>
<!-- Created by Polyform Puzzler (http://puzzler.sourceforge.net/) -->
<svg width="120.000" height="69.282"
     viewBox="0 0 120.000 69.282"
     xmlns="http://www.w3.org/2000/svg"
     xmlns:xlink="http://www.w3.org/1999/xlink">
<g>
<polygon fill="olive" stroke="white" stroke-width="1"
         points="10.000,54.848 10.000,60.622 15.000,63.509 15.000,63.509 20.000,60.622 25.000,63.509 30.000,60.622 30.000,54.848 25.000,51.962 25.000,46.188 20.000,43.301 15.000,46.188 15.000,51.962">
<desc>A3</desc>
</polygon>
<polygon fill="navy" stroke="white" stroke-width="1"
         points="30.000,54.848 30.000,60.622 35.000,63.509 35.000,63.509 40.000,60.622 40.000,54.848 45.000,51.962 45.000,46.188 40.000,43.301 40.000,37.528 45.000,34.641 45.000,28.868 40.000,25.981 35.000,28.868 35.000,34.641 30.000,37.528 30.000,43.301 35.000,46.188 35.000,51.962">
<desc>S4</desc>
</polygon>
<polygon fill="steelblue" stroke="white" stroke-width="1"
         points="40.000,54.848 40.000,60.622 45.000,63.509 45.000,63.509 50.000,60.622 55.000,63.509 60.000,60.622 60.000,54.848 55.000,51.962 50.000,54.848 45.000,51.962">
<desc>I2</desc>
</polygon>
<polygon fill="green" stroke="white" stroke-width="1"
         points="60.000,54.848 60.000,60.622 65.000,63.509 65.000,63.509 70.000,60.622 70.000,54.848 65.000,51.962 65.000,46.188 70.000,43.301 70.000,37.528 65.000,34.641 60.000,37.528 60.000,43.301 55.000,46.188 50.000,43.301 45.000,46.188 45.000,51.962 50.000,54.848 55.000,51.962">
<desc>Y4</desc>
</polygon>
<polygon fill="teal" stroke="white" stroke-width="1"
         points="70.000,54.848 70.000,60.622 75.000,63.509 75.000,63.509 80.000,60.622 80.000,54.848 85.000,51.962 85.000,46.188 90.000,43.301 90.000,37.528 85.000,34.641 80.000,37.528 80.000,43.301 75.000,46.188 75.000,51.962">
<desc>I3</desc>
</polygon>
<polygon fill="plum" stroke="white" stroke-width="1"
         points="25.000,46.188 25.000,51.962 30.000,54.848 30.000,54.848 35.000,51.962 35.000,46.188 30.000,43.301 30.000,37.528 35.000,34.641 35.000,28.868 30.000,25.981 25.000,28.868 25.000,34.641 20.000,37.528 20.000,43.301">
<desc>V3</desc>
</polygon>
<polygon fill="blue" stroke="white" stroke-width="1"
         points="65.000,46.188 65.000,51.962 70.000,54.848 70.000,54.848 75.000,51.962 75.000,46.188 80.000,43.301 80.000,37.528 85.000,34.641 85.000,28.868 90.000,25.981 90.000,20.207 85.000,17.321 80.000,20.207 80.000,25.981 75.000,28.868 75.000,34.641 70.000,37.528 70.000,43.301">
<desc>I4</desc>
</polygon>
<polygon fill="gold" stroke="white" stroke-width="1"
         points="40.000,37.528 40.000,43.301 45.000,46.188 45.000,46.188 50.000,43.301 50.000,37.528 55.000,34.641 55.000,28.868 60.000,25.981 60.000,20.207 55.000,17.321 50.000,20.207 45.000,17.321 40.000,20.207 40.000,25.981 45.000,28.868 45.000,34.641">
<desc>P4</desc>
</polygon>
<polygon fill="red" stroke="white" stroke-width="1"
         points="65.000,28.868 65.000,34.641 70.000,37.528 70.000,37.528 75.000,34.641 75.000,28.868 80.000,25.981 80.000,20.207 75.000,17.321 75.000,11.547 70.000,8.660 65.000,11.547 65.000,17.321 60.000,20.207 60.000,25.981">
<desc>O4</desc>
</polygon>
<polygon fill="lime" stroke="white" stroke-width="1"
         points="85.000,28.868 85.000,34.641 90.000,37.528 90.000,37.528 95.000,34.641 95.000,28.868 100.000,25.981 100.000,20.207 95.000,17.321 95.000,11.547 90.000,8.660 85.000,11.547 80.000,8.660 75.000,11.547 75.000,17.321 80.000,20.207 85.000,17.321 90.000,20.207 90.000,25.981">
<desc>U4</desc>
</polygon>
<polygon fill="blueviolet" stroke="white" stroke-width="1"
         points="30.000,20.207 30.000,25.981 35.000,28.868 35.000,28.868 40.000,25.981 40.000,20.207 45.000,17.321 50.000,20.207 55.000,17.321 60.000,20.207 65.000,17.321 65.000,11.547 60.000,8.660 55.000,11.547 50.000,8.660 45.000,11.547 40.000,8.660 35.000,11.547 35.000,17.321">
<desc>J4</desc>
</polygon>
<polygon fill="gray" stroke="white" stroke-width="1"
         points="95.000,11.547 95.000,17.321 100.000,20.207 100.000,20.207 105.000,17.321 105.000,11.547 100.000,8.660">
<desc>H1</desc>
</polygon>
</g>
</svg>
