<?xml version="1.0" standalone="no"?>
<!-- Created by Polyform Puzzler (http://puzzler.sourceforge.net/) -->
<svg width="260.000" height="121.244"
     viewBox="0 0 260.000 121.244"
     xmlns="http://www.w3.org/2000/svg"
     xmlns:xlink="http://www.w3.org/1999/xlink">
<g>
<polygon fill="olive" stroke="white" stroke-width="1"
         points="10.000,106.810 10.000,112.583 15.000,115.470 15.000,115.470 20.000,112.583 25.000,115.470 30.000,112.583 30.000,106.810 25.000,103.923 25.000,98.150 20.000,95.263 15.000,98.150 15.000,103.923">
<desc>A3</desc>
</polygon>
<polygon fill="lime" stroke="white" stroke-width="1"
         points="30.000,106.810 30.000,112.583 35.000,115.470 35.000,115.470 40.000,112.583 45.000,115.470 50.000,112.583 50.000,106.810 55.000,103.923 55.000,98.150 50.000,95.263 45.000,98.150 45.000,103.923 40.000,106.810 35.000,103.923 35.000,98.150 30.000,95.263 25.000,98.150 25.000,103.923">
<desc>U4</desc>
</polygon>
<polygon fill="peru" stroke="white" stroke-width="1"
         points="50.000,106.810 50.000,112.583 55.000,115.470 55.000,115.470 60.000,112.583 65.000,115.470 70.000,112.583 75.000,115.470 80.000,112.583 85.000,115.470 90.000,112.583 90.000,106.810 85.000,103.923 80.000,106.810 75.000,103.923 70.000,106.810 65.000,103.923 65.000,98.150 60.000,95.263 55.000,98.150 55.000,103.923">
<desc>P5</desc>
</polygon>
<polygon fill="blueviolet" stroke="white" stroke-width="1"
         points="90.000,106.810 90.000,112.583 95.000,115.470 95.000,115.470 100.000,112.583 105.000,115.470 110.000,112.583 115.000,115.470 120.000,112.583 120.000,106.810 115.000,103.923 110.000,106.810 105.000,103.923 100.000,106.810 95.000,103.923 95.000,98.150 90.000,95.263 85.000,98.150 85.000,103.923">
<desc>J4</desc>
</polygon>
<polygon fill="magenta" stroke="white" stroke-width="1"
         points="120.000,106.810 120.000,112.583 125.000,115.470 125.000,115.470 130.000,112.583 135.000,115.470 140.000,112.583 145.000,115.470 150.000,112.583 155.000,115.470 160.000,112.583 160.000,106.810 155.000,103.923 150.000,106.810 145.000,103.923 145.000,98.150 140.000,95.263 135.000,98.150 135.000,103.923 130.000,106.810 125.000,103.923">
<desc>E5</desc>
</polygon>
<polygon fill="steelblue" stroke="white" stroke-width="1"
         points="160.000,106.810 160.000,112.583 165.000,115.470 165.000,115.470 170.000,112.583 175.000,115.470 180.000,112.583 185.000,115.470 190.000,112.583 190.000,106.810 185.000,103.923 180.000,106.810 175.000,103.923 175.000,98.150 170.000,95.263 165.000,98.150 160.000,95.263 155.000,98.150 155.000,103.923">
<desc>B5</desc>
</polygon>
<polygon fill="teal" stroke="white" stroke-width="1"
         points="35.000,98.150 35.000,103.923 40.000,106.810 40.000,106.810 45.000,103.923 45.000,98.150 40.000,95.263 40.000,89.489 35.000,86.603 35.000,80.829 40.000,77.942 40.000,72.169 35.000,69.282 30.000,72.169 30.000,77.942 25.000,80.829 25.000,86.603 20.000,89.489 20.000,95.263 25.000,98.150 30.000,95.263">
<desc>T5</desc>
</polygon>
<polygon fill="gold" stroke="white" stroke-width="1"
         points="65.000,98.150 65.000,103.923 70.000,106.810 70.000,106.810 75.000,103.923 75.000,98.150 70.000,95.263 70.000,89.489 65.000,86.603 65.000,80.829 60.000,77.942 55.000,80.829 55.000,86.603 50.000,89.489 50.000,95.263 55.000,98.150 60.000,95.263">
<desc>P4</desc>
</polygon>
<polygon fill="darkorange" stroke="white" stroke-width="1"
         points="75.000,98.150 75.000,103.923 80.000,106.810 80.000,106.810 85.000,103.923 85.000,98.150 90.000,95.263 90.000,89.489 95.000,86.603 100.000,89.489 105.000,86.603 110.000,89.489 115.000,86.603 115.000,80.829 110.000,77.942 105.000,80.829 100.000,77.942 95.000,80.829 90.000,77.942 85.000,80.829 85.000,86.603 80.000,89.489 80.000,95.263">
<desc>L5</desc>
</polygon>
<polygon fill="darkseagreen" stroke="white" stroke-width="1"
         points="95.000,98.150 95.000,103.923 100.000,106.810 100.000,106.810 105.000,103.923 110.000,106.810 115.000,103.923 120.000,106.810 125.000,103.923 130.000,106.810 135.000,103.923 135.000,98.150 130.000,95.263 125.000,98.150 120.000,95.263 115.000,98.150 110.000,95.263 105.000,98.150 100.000,95.263 100.000,89.489 95.000,86.603 90.000,89.489 90.000,95.263">
<desc>J5</desc>
</polygon>
<polygon fill="lime" stroke="white" stroke-width="1"
         points="145.000,98.150 145.000,103.923 150.000,106.810 150.000,106.810 155.000,103.923 155.000,98.150 160.000,95.263 165.000,98.150 170.000,95.263 175.000,98.150 175.000,103.923 180.000,106.810 185.000,103.923 185.000,98.150 180.000,95.263 180.000,89.489 175.000,86.603 170.000,89.489 165.000,86.603 160.000,89.489 155.000,86.603 150.000,89.489 150.000,95.263">
<desc>C5</desc>
</polygon>
<polygon fill="navy" stroke="white" stroke-width="1"
         points="40.000,89.489 40.000,95.263 45.000,98.150 45.000,98.150 50.000,95.263 50.000,89.489 45.000,86.603 45.000,80.829 50.000,77.942 50.000,72.169 45.000,69.282 45.000,63.509 40.000,60.622 35.000,63.509 35.000,69.282 40.000,72.169 40.000,77.942 35.000,80.829 35.000,86.603">
<desc>S4</desc>
</polygon>
<polygon fill="yellow" stroke="white" stroke-width="1"
         points="70.000,89.489 70.000,95.263 75.000,98.150 75.000,98.150 80.000,95.263 80.000,89.489 75.000,86.603 75.000,80.829 70.000,77.942 70.000,72.169 65.000,69.282 60.000,72.169 55.000,69.282 50.000,72.169 50.000,77.942 45.000,80.829 45.000,86.603 50.000,89.489 55.000,86.603 55.000,80.829 60.000,77.942 65.000,80.829 65.000,86.603">
<desc>R5</desc>
</polygon>
<polygon fill="blue" stroke="white" stroke-width="1"
         points="100.000,89.489 100.000,95.263 105.000,98.150 105.000,98.150 110.000,95.263 115.000,98.150 120.000,95.263 125.000,98.150 130.000,95.263 135.000,98.150 140.000,95.263 145.000,98.150 150.000,95.263 150.000,89.489 145.000,86.603 140.000,89.489 135.000,86.603 130.000,89.489 125.000,86.603 120.000,89.489 115.000,86.603 110.000,89.489 105.000,86.603">
<desc>I5</desc>
</polygon>
<polygon fill="turquoise" stroke="white" stroke-width="1"
         points="75.000,80.829 75.000,86.603 80.000,89.489 80.000,89.489 85.000,86.603 85.000,80.829 80.000,77.942 80.000,72.169 75.000,69.282 75.000,63.509 80.000,60.622 80.000,54.848 75.000,51.962 70.000,54.848 70.000,60.622 65.000,63.509 60.000,60.622 55.000,63.509 55.000,69.282 60.000,72.169 65.000,69.282 70.000,72.169 70.000,77.942">
<desc>Y5</desc>
</polygon>
<polygon fill="plum" stroke="white" stroke-width="1"
         points="115.000,80.829 115.000,86.603 120.000,89.489 120.000,89.489 125.000,86.603 130.000,89.489 135.000,86.603 140.000,89.489 145.000,86.603 145.000,80.829 140.000,77.942 135.000,80.829 130.000,77.942 125.000,80.829 120.000,77.942 120.000,72.169 115.000,69.282 110.000,72.169 105.000,69.282 100.000,72.169 100.000,77.942 105.000,80.829 110.000,77.942">
<desc>N5</desc>
</polygon>
<polygon fill="green" stroke="white" stroke-width="1"
         points="145.000,80.829 145.000,86.603 150.000,89.489 150.000,89.489 155.000,86.603 160.000,89.489 165.000,86.603 170.000,89.489 175.000,86.603 175.000,80.829 170.000,77.942 170.000,72.169 165.000,69.282 160.000,72.169 155.000,69.282 150.000,72.169 150.000,77.942">
<desc>D5</desc>
</polygon>
<polygon fill="gold" stroke="white" stroke-width="1"
         points="80.000,72.169 80.000,77.942 85.000,80.829 85.000,80.829 90.000,77.942 90.000,72.169 85.000,69.282 85.000,63.509 90.000,60.622 90.000,54.848 85.000,51.962 85.000,46.188 90.000,43.301 90.000,37.528 85.000,34.641 80.000,37.528 80.000,43.301 75.000,46.188 75.000,51.962 80.000,54.848 80.000,60.622 75.000,63.509 75.000,69.282">
<desc>W5</desc>
</polygon>
<polygon fill="olive" stroke="white" stroke-width="1"
         points="90.000,72.169 90.000,77.942 95.000,80.829 95.000,80.829 100.000,77.942 100.000,72.169 105.000,69.282 110.000,72.169 115.000,69.282 115.000,63.509 120.000,60.622 120.000,54.848 115.000,51.962 110.000,54.848 110.000,60.622 105.000,63.509 100.000,60.622 95.000,63.509 90.000,60.622 85.000,63.509 85.000,69.282">
<desc>Q5</desc>
</polygon>
<polygon fill="red" stroke="white" stroke-width="1"
         points="120.000,72.169 120.000,77.942 125.000,80.829 125.000,80.829 130.000,77.942 135.000,80.829 140.000,77.942 140.000,72.169 135.000,69.282 135.000,63.509 130.000,60.622 125.000,63.509 120.000,60.622 115.000,63.509 115.000,69.282">
<desc>O4</desc>
</polygon>
<polygon fill="maroon" stroke="white" stroke-width="1"
         points="140.000,72.169 140.000,77.942 145.000,80.829 145.000,80.829 150.000,77.942 150.000,72.169 155.000,69.282 160.000,72.169 165.000,69.282 165.000,63.509 160.000,60.622 155.000,63.509 150.000,60.622 150.000,54.848 145.000,51.962 140.000,54.848 140.000,60.622 135.000,63.509 135.000,69.282">
<desc>A5</desc>
</polygon>
<polygon fill="red" stroke="white" stroke-width="1"
         points="45.000,63.509 45.000,69.282 50.000,72.169 50.000,72.169 55.000,69.282 55.000,63.509 60.000,60.622 65.000,63.509 70.000,60.622 70.000,54.848 65.000,51.962 65.000,46.188 60.000,43.301 55.000,46.188 55.000,51.962 50.000,54.848 45.000,51.962 40.000,54.848 40.000,60.622">
<desc>X5</desc>
</polygon>
<polygon fill="gray" stroke="white" stroke-width="1"
         points="90.000,54.848 90.000,60.622 95.000,63.509 95.000,63.509 100.000,60.622 100.000,54.848 95.000,51.962 95.000,46.188 100.000,43.301 100.000,37.528 105.000,34.641 105.000,28.868 100.000,25.981 100.000,20.207 95.000,17.321 90.000,20.207 90.000,25.981 95.000,28.868 95.000,34.641 90.000,37.528 90.000,43.301 85.000,46.188 85.000,51.962">
<desc>S5</desc>
</polygon>
<polygon fill="tan" stroke="white" stroke-width="1"
         points="100.000,54.848 100.000,60.622 105.000,63.509 105.000,63.509 110.000,60.622 110.000,54.848 115.000,51.962 120.000,54.848 120.000,60.622 125.000,63.509 130.000,60.622 130.000,54.848 125.000,51.962 125.000,46.188 130.000,43.301 130.000,37.528 125.000,34.641 120.000,37.528 120.000,43.301 115.000,46.188 110.000,43.301 105.000,46.188 105.000,51.962">
<desc>H5</desc>
</polygon>
<polygon fill="lightcoral" stroke="white" stroke-width="1"
         points="130.000,54.848 130.000,60.622 135.000,63.509 135.000,63.509 140.000,60.622 140.000,54.848 145.000,51.962 150.000,54.848 150.000,60.622 155.000,63.509 160.000,60.622 160.000,54.848 155.000,51.962 155.000,46.188 150.000,43.301 145.000,46.188 140.000,43.301 135.000,46.188 130.000,43.301 125.000,46.188 125.000,51.962">
<desc>F5</desc>
</polygon>
<polygon fill="blueviolet" stroke="white" stroke-width="1"
         points="45.000,46.188 45.000,51.962 50.000,54.848 50.000,54.848 55.000,51.962 55.000,46.188 60.000,43.301 65.000,46.188 65.000,51.962 70.000,54.848 75.000,51.962 75.000,46.188 70.000,43.301 70.000,37.528 65.000,34.641 65.000,28.868 60.000,25.981 55.000,28.868 55.000,34.641 50.000,37.528 50.000,43.301">
<desc>V5</desc>
</polygon>
<polygon fill="blue" stroke="white" stroke-width="1"
         points="95.000,46.188 95.000,51.962 100.000,54.848 100.000,54.848 105.000,51.962 105.000,46.188 110.000,43.301 110.000,37.528 115.000,34.641 115.000,28.868 120.000,25.981 120.000,20.207 115.000,17.321 110.000,20.207 110.000,25.981 105.000,28.868 105.000,34.641 100.000,37.528 100.000,43.301">
<desc>I4</desc>
</polygon>
<polygon fill="green" stroke="white" stroke-width="1"
         points="70.000,37.528 70.000,43.301 75.000,46.188 75.000,46.188 80.000,43.301 80.000,37.528 85.000,34.641 90.000,37.528 95.000,34.641 95.000,28.868 90.000,25.981 85.000,28.868 80.000,25.981 80.000,20.207 75.000,17.321 70.000,20.207 70.000,25.981 75.000,28.868 75.000,34.641">
<desc>Y4</desc>
</polygon>
<polygon fill="indigo" stroke="white" stroke-width="1"
         points="110.000,37.528 110.000,43.301 115.000,46.188 115.000,46.188 120.000,43.301 120.000,37.528 125.000,34.641 130.000,37.528 130.000,43.301 135.000,46.188 140.000,43.301 145.000,46.188 150.000,43.301 150.000,37.528 145.000,34.641 140.000,37.528 135.000,34.641 135.000,28.868 130.000,25.981 125.000,28.868 120.000,25.981 115.000,28.868 115.000,34.641">
<desc>G5</desc>
</polygon>
<polygon fill="navy" stroke="white" stroke-width="1"
         points="65.000,28.868 65.000,34.641 70.000,37.528 70.000,37.528 75.000,34.641 75.000,28.868 70.000,25.981 70.000,20.207 75.000,17.321 80.000,20.207 80.000,25.981 85.000,28.868 90.000,25.981 90.000,20.207 85.000,17.321 85.000,11.547 80.000,8.660 75.000,11.547 70.000,8.660 65.000,11.547 65.000,17.321 60.000,20.207 60.000,25.981">
<desc>U5</desc>
</polygon>
<polygon fill="gray" stroke="white" stroke-width="1"
         points="135.000,28.868 135.000,34.641 140.000,37.528 140.000,37.528 145.000,34.641 145.000,28.868 140.000,25.981">
<desc>H1</desc>
</polygon>
<polygon fill="plum" stroke="white" stroke-width="1"
         points="100.000,20.207 100.000,25.981 105.000,28.868 105.000,28.868 110.000,25.981 110.000,20.207 105.000,17.321 105.000,11.547 100.000,8.660 95.000,11.547 90.000,8.660 85.000,11.547 85.000,17.321 90.000,20.207 95.000,17.321">
<desc>V3</desc>
</polygon>
<polygon fill="steelblue" stroke="white" stroke-width="1"
         points="120.000,20.207 120.000,25.981 125.000,28.868 125.000,28.868 130.000,25.981 135.000,28.868 140.000,25.981 140.000,20.207 135.000,17.321 130.000,20.207 125.000,17.321">
<desc>I2</desc>
</polygon>
<polygon fill="teal" stroke="white" stroke-width="1"
         points="105.000,11.547 105.000,17.321 110.000,20.207 110.000,20.207 115.000,17.321 120.000,20.207 125.000,17.321 130.000,20.207 135.000,17.321 135.000,11.547 130.000,8.660 125.000,11.547 120.000,8.660 115.000,11.547 110.000,8.660">
<desc>I3</desc>
</polygon>
</g>
</svg>
