<?xml version="1.0" standalone="no"?>
<!-- Created by Polyform Puzzler (http://puzzler.sourceforge.net/) -->
<svg width="135.000" height="77.942"
     viewBox="0 0 135.000 77.942"
     xmlns="http://www.w3.org/2000/svg"
     xmlns:xlink="http://www.w3.org/1999/xlink">
<g>
<polygon fill="olive" stroke="white" stroke-width="1"
         points="20.000,63.509 20.000,69.282 25.000,72.169 25.000,72.169 30.000,69.282 35.000,72.169 40.000,69.282 40.000,63.509 35.000,60.622 35.000,54.848 30.000,51.962 25.000,54.848 25.000,60.622">
<desc>A3</desc>
</polygon>
<polygon fill="blueviolet" stroke="white" stroke-width="1"
         points="40.000,63.509 40.000,69.282 45.000,72.169 45.000,72.169 50.000,69.282 50.000,63.509 45.000,60.622 45.000,54.848 50.000,51.962 50.000,46.188 55.000,43.301 55.000,37.528 50.000,34.641 45.000,37.528 45.000,43.301 40.000,46.188 40.000,51.962 35.000,54.848 35.000,60.622">
<desc>J4</desc>
</polygon>
<polygon fill="lime" stroke="white" stroke-width="1"
         points="50.000,63.509 50.000,69.282 55.000,72.169 55.000,72.169 60.000,69.282 60.000,63.509 55.000,60.622 55.000,54.848 60.000,51.962 65.000,54.848 70.000,51.962 70.000,46.188 65.000,43.301 60.000,46.188 55.000,43.301 50.000,46.188 50.000,51.962 45.000,54.848 45.000,60.622">
<desc>U4</desc>
</polygon>
<polygon fill="teal" stroke="white" stroke-width="1"
         points="60.000,63.509 60.000,69.282 65.000,72.169 65.000,72.169 70.000,69.282 75.000,72.169 80.000,69.282 85.000,72.169 90.000,69.282 90.000,63.509 85.000,60.622 80.000,63.509 75.000,60.622 70.000,63.509 65.000,60.622">
<desc>I3</desc>
</polygon>
<polygon fill="gray" stroke="white" stroke-width="1"
         points="15.000,54.848 15.000,60.622 20.000,63.509 20.000,63.509 25.000,60.622 25.000,54.848 20.000,51.962">
<desc>H1</desc>
</polygon>
<polygon fill="blue" stroke="white" stroke-width="1"
         points="55.000,54.848 55.000,60.622 60.000,63.509 60.000,63.509 65.000,60.622 70.000,63.509 75.000,60.622 80.000,63.509 85.000,60.622 90.000,63.509 95.000,60.622 95.000,54.848 90.000,51.962 85.000,54.848 80.000,51.962 75.000,54.848 70.000,51.962 65.000,54.848 60.000,51.962">
<desc>I4</desc>
</polygon>
<polygon fill="steelblue" stroke="white" stroke-width="1"
         points="20.000,46.188 20.000,51.962 25.000,54.848 25.000,54.848 30.000,51.962 30.000,46.188 35.000,43.301 35.000,37.528 30.000,34.641 25.000,37.528 25.000,43.301">
<desc>I2</desc>
</polygon>
<polygon fill="navy" stroke="white" stroke-width="1"
         points="30.000,46.188 30.000,51.962 35.000,54.848 35.000,54.848 40.000,51.962 40.000,46.188 45.000,43.301 45.000,37.528 40.000,34.641 40.000,28.868 45.000,25.981 45.000,20.207 40.000,17.321 35.000,20.207 35.000,25.981 30.000,28.868 30.000,34.641 35.000,37.528 35.000,43.301">
<desc>S4</desc>
</polygon>
<polygon fill="red" stroke="white" stroke-width="1"
         points="70.000,46.188 70.000,51.962 75.000,54.848 75.000,54.848 80.000,51.962 85.000,54.848 90.000,51.962 90.000,46.188 85.000,43.301 85.000,37.528 80.000,34.641 75.000,37.528 70.000,34.641 65.000,37.528 65.000,43.301">
<desc>O4</desc>
</polygon>
<polygon fill="gold" stroke="white" stroke-width="1"
         points="55.000,37.528 55.000,43.301 60.000,46.188 60.000,46.188 65.000,43.301 65.000,37.528 70.000,34.641 75.000,37.528 80.000,34.641 80.000,28.868 75.000,25.981 70.000,28.868 65.000,25.981 60.000,28.868 55.000,25.981 50.000,28.868 50.000,34.641">
<desc>P4</desc>
</polygon>
<polygon fill="green" stroke="white" stroke-width="1"
         points="40.000,28.868 40.000,34.641 45.000,37.528 45.000,37.528 50.000,34.641 50.000,28.868 55.000,25.981 60.000,28.868 65.000,25.981 65.000,20.207 60.000,17.321 55.000,20.207 50.000,17.321 50.000,11.547 45.000,8.660 40.000,11.547 40.000,17.321 45.000,20.207 45.000,25.981">
<desc>Y4</desc>
</polygon>
<polygon fill="plum" stroke="white" stroke-width="1"
         points="65.000,20.207 65.000,25.981 70.000,28.868 70.000,28.868 75.000,25.981 75.000,20.207 70.000,17.321 70.000,11.547 65.000,8.660 60.000,11.547 55.000,8.660 50.000,11.547 50.000,17.321 55.000,20.207 60.000,17.321">
<desc>V3</desc>
</polygon>
</g>
</svg>
