<?xml version="1.0" standalone="no"?>
<!-- Created by Polyform Puzzler (http://puzzler.sourceforge.net/) -->
<svg width="245.000" height="147.224"
     viewBox="0 0 245.000 147.224"
     xmlns="http://www.w3.org/2000/svg"
     xmlns:xlink="http://www.w3.org/1999/xlink">
<g>
<polygon fill="peru" stroke="white" stroke-width="1"
         points="80.000,132.791 80.000,138.564 85.000,141.451 85.000,141.451 90.000,138.564 95.000,141.451 100.000,138.564 105.000,141.451 110.000,138.564 115.000,141.451 120.000,138.564 120.000,132.791 115.000,129.904 115.000,124.130 110.000,121.244 105.000,124.130 105.000,129.904 100.000,132.791 95.000,129.904 90.000,132.791 85.000,129.904">
<desc>P5</desc>
</polygon>
<polygon fill="indigo" stroke="white" stroke-width="1"
         points="120.000,132.791 120.000,138.564 125.000,141.451 125.000,141.451 130.000,138.564 135.000,141.451 140.000,138.564 140.000,132.791 145.000,129.904 150.000,132.791 155.000,129.904 155.000,124.130 150.000,121.244 145.000,124.130 140.000,121.244 135.000,124.130 135.000,129.904 130.000,132.791 125.000,129.904 125.000,124.130 120.000,121.244 115.000,124.130 115.000,129.904">
<desc>G5</desc>
</polygon>
<polygon fill="lime" stroke="white" stroke-width="1"
         points="140.000,132.791 140.000,138.564 145.000,141.451 145.000,141.451 150.000,138.564 155.000,141.451 160.000,138.564 160.000,132.791 165.000,129.904 165.000,124.130 170.000,121.244 170.000,115.470 165.000,112.583 165.000,106.810 160.000,103.923 155.000,106.810 155.000,112.583 160.000,115.470 160.000,121.244 155.000,124.130 155.000,129.904 150.000,132.791 145.000,129.904">
<desc>C5</desc>
</polygon>
<polygon fill="green" stroke="white" stroke-width="1"
         points="75.000,124.130 75.000,129.904 80.000,132.791 80.000,132.791 85.000,129.904 85.000,124.130 90.000,121.244 90.000,115.470 85.000,112.583 85.000,106.810 80.000,103.923 75.000,106.810 70.000,103.923 65.000,106.810 65.000,112.583 70.000,115.470 70.000,121.244">
<desc>D5</desc>
</polygon>
<polygon fill="maroon" stroke="white" stroke-width="1"
         points="85.000,124.130 85.000,129.904 90.000,132.791 90.000,132.791 95.000,129.904 100.000,132.791 105.000,129.904 105.000,124.130 110.000,121.244 110.000,115.470 105.000,112.583 100.000,115.470 95.000,112.583 95.000,106.810 90.000,103.923 85.000,106.810 85.000,112.583 90.000,115.470 90.000,121.244">
<desc>A5</desc>
</polygon>
<polygon fill="magenta" stroke="white" stroke-width="1"
         points="125.000,124.130 125.000,129.904 130.000,132.791 130.000,132.791 135.000,129.904 135.000,124.130 140.000,121.244 145.000,124.130 150.000,121.244 150.000,115.470 145.000,112.583 140.000,115.470 135.000,112.583 130.000,115.470 125.000,112.583 120.000,115.470 115.000,112.583 110.000,115.470 110.000,121.244 115.000,124.130 120.000,121.244">
<desc>E5</desc>
</polygon>
<polygon fill="darkseagreen" stroke="white" stroke-width="1"
         points="150.000,115.470 150.000,121.244 155.000,124.130 155.000,124.130 160.000,121.244 160.000,115.470 155.000,112.583 155.000,106.810 160.000,103.923 160.000,98.150 165.000,95.263 165.000,89.489 170.000,86.603 170.000,80.829 165.000,77.942 160.000,80.829 160.000,86.603 155.000,89.489 155.000,95.263 150.000,98.150 150.000,103.923 145.000,106.810 145.000,112.583">
<desc>J5</desc>
</polygon>
<polygon fill="lime" stroke="white" stroke-width="1"
         points="95.000,106.810 95.000,112.583 100.000,115.470 100.000,115.470 105.000,112.583 110.000,115.470 115.000,112.583 115.000,106.810 120.000,103.923 120.000,98.150 115.000,95.263 110.000,98.150 110.000,103.923 105.000,106.810 100.000,103.923 100.000,98.150 95.000,95.263 90.000,98.150 90.000,103.923">
<desc>U4</desc>
</polygon>
<polygon fill="steelblue" stroke="white" stroke-width="1"
         points="115.000,106.810 115.000,112.583 120.000,115.470 120.000,115.470 125.000,112.583 130.000,115.470 135.000,112.583 135.000,106.810 130.000,103.923 125.000,106.810 120.000,103.923">
<desc>I2</desc>
</polygon>
<polygon fill="green" stroke="white" stroke-width="1"
         points="135.000,106.810 135.000,112.583 140.000,115.470 140.000,115.470 145.000,112.583 145.000,106.810 140.000,103.923 140.000,98.150 145.000,95.263 145.000,89.489 140.000,86.603 135.000,89.489 135.000,95.263 130.000,98.150 125.000,95.263 120.000,98.150 120.000,103.923 125.000,106.810 130.000,103.923">
<desc>Y4</desc>
</polygon>
<polygon fill="gray" stroke="white" stroke-width="1"
         points="165.000,106.810 165.000,112.583 170.000,115.470 170.000,115.470 175.000,112.583 175.000,106.810 170.000,103.923 170.000,98.150 175.000,95.263 175.000,89.489 180.000,86.603 180.000,80.829 175.000,77.942 175.000,72.169 170.000,69.282 165.000,72.169 165.000,77.942 170.000,80.829 170.000,86.603 165.000,89.489 165.000,95.263 160.000,98.150 160.000,103.923">
<desc>S5</desc>
</polygon>
<polygon fill="blueviolet" stroke="white" stroke-width="1"
         points="60.000,98.150 60.000,103.923 65.000,106.810 65.000,106.810 70.000,103.923 75.000,106.810 80.000,103.923 85.000,106.810 90.000,103.923 90.000,98.150 85.000,95.263 85.000,89.489 80.000,86.603 80.000,80.829 75.000,77.942 70.000,80.829 70.000,86.603 75.000,89.489 75.000,95.263 70.000,98.150 65.000,95.263">
<desc>V5</desc>
</polygon>
<polygon fill="navy" stroke="white" stroke-width="1"
         points="100.000,98.150 100.000,103.923 105.000,106.810 105.000,106.810 110.000,103.923 110.000,98.150 105.000,95.263 105.000,89.489 100.000,86.603 95.000,89.489 90.000,86.603 90.000,80.829 85.000,77.942 80.000,80.829 80.000,86.603 85.000,89.489 85.000,95.263 90.000,98.150 95.000,95.263">
<desc>S4</desc>
</polygon>
<polygon fill="gray" stroke="white" stroke-width="1"
         points="140.000,98.150 140.000,103.923 145.000,106.810 145.000,106.810 150.000,103.923 150.000,98.150 145.000,95.263">
<desc>H1</desc>
</polygon>
<polygon fill="darkorange" stroke="white" stroke-width="1"
         points="170.000,98.150 170.000,103.923 175.000,106.810 175.000,106.810 180.000,103.923 180.000,98.150 185.000,95.263 185.000,89.489 190.000,86.603 190.000,80.829 185.000,77.942 185.000,72.169 180.000,69.282 180.000,63.509 175.000,60.622 170.000,63.509 170.000,69.282 175.000,72.169 175.000,77.942 180.000,80.829 180.000,86.603 175.000,89.489 175.000,95.263">
<desc>L5</desc>
</polygon>
<polygon fill="steelblue" stroke="white" stroke-width="1"
         points="55.000,89.489 55.000,95.263 60.000,98.150 60.000,98.150 65.000,95.263 65.000,89.489 60.000,86.603 60.000,80.829 65.000,77.942 65.000,72.169 60.000,69.282 60.000,63.509 55.000,60.622 50.000,63.509 50.000,69.282 45.000,72.169 45.000,77.942 50.000,80.829 50.000,86.603">
<desc>p5</desc>
</polygon>
<polygon fill="gold" stroke="white" stroke-width="1"
         points="65.000,89.489 65.000,95.263 70.000,98.150 70.000,98.150 75.000,95.263 75.000,89.489 70.000,86.603 70.000,80.829 75.000,77.942 75.000,72.169 70.000,69.282 70.000,63.509 75.000,60.622 75.000,54.848 70.000,51.962 65.000,54.848 65.000,60.622 60.000,63.509 60.000,69.282 65.000,72.169 65.000,77.942 60.000,80.829 60.000,86.603">
<desc>W5</desc>
</polygon>
<polygon fill="olive" stroke="white" stroke-width="1"
         points="145.000,89.489 145.000,95.263 150.000,98.150 150.000,98.150 155.000,95.263 155.000,89.489 160.000,86.603 160.000,80.829 155.000,77.942 150.000,80.829 145.000,77.942 140.000,80.829 140.000,86.603">
<desc>A3</desc>
</polygon>
<polygon fill="gold" stroke="white" stroke-width="1"
         points="90.000,80.829 90.000,86.603 95.000,89.489 95.000,89.489 100.000,86.603 100.000,80.829 95.000,77.942 95.000,72.169 100.000,69.282 100.000,63.509 95.000,60.622 90.000,63.509 85.000,60.622 80.000,63.509 80.000,69.282 85.000,72.169 85.000,77.942">
<desc>P4</desc>
</polygon>
<polygon fill="olive" stroke="white" stroke-width="1"
         points="75.000,72.169 75.000,77.942 80.000,80.829 80.000,80.829 85.000,77.942 85.000,72.169 80.000,69.282 80.000,63.509 85.000,60.622 85.000,54.848 90.000,51.962 90.000,46.188 85.000,43.301 80.000,46.188 75.000,43.301 70.000,46.188 70.000,51.962 75.000,54.848 75.000,60.622 70.000,63.509 70.000,69.282">
<desc>q5</desc>
</polygon>
<polygon fill="teal" stroke="white" stroke-width="1"
         points="145.000,72.169 145.000,77.942 150.000,80.829 150.000,80.829 155.000,77.942 155.000,72.169 150.000,69.282 150.000,63.509 145.000,60.622 145.000,54.848 140.000,51.962 135.000,54.848 135.000,60.622 140.000,63.509 140.000,69.282">
<desc>I3</desc>
</polygon>
<polygon fill="teal" stroke="white" stroke-width="1"
         points="155.000,72.169 155.000,77.942 160.000,80.829 160.000,80.829 165.000,77.942 165.000,72.169 170.000,69.282 170.000,63.509 175.000,60.622 175.000,54.848 170.000,51.962 165.000,54.848 160.000,51.962 160.000,46.188 155.000,43.301 150.000,46.188 150.000,51.962 155.000,54.848 155.000,60.622 160.000,63.509 160.000,69.282">
<desc>T5</desc>
</polygon>
<polygon fill="blue" stroke="white" stroke-width="1"
         points="185.000,72.169 185.000,77.942 190.000,80.829 190.000,80.829 195.000,77.942 195.000,72.169 190.000,69.282 190.000,63.509 185.000,60.622 185.000,54.848 180.000,51.962 180.000,46.188 175.000,43.301 175.000,37.528 170.000,34.641 165.000,37.528 165.000,43.301 170.000,46.188 170.000,51.962 175.000,54.848 175.000,60.622 180.000,63.509 180.000,69.282">
<desc>I5</desc>
</polygon>
<polygon fill="blue" stroke="white" stroke-width="1"
         points="150.000,63.509 150.000,69.282 155.000,72.169 155.000,72.169 160.000,69.282 160.000,63.509 155.000,60.622 155.000,54.848 150.000,51.962 150.000,46.188 145.000,43.301 145.000,37.528 140.000,34.641 135.000,37.528 135.000,43.301 140.000,46.188 140.000,51.962 145.000,54.848 145.000,60.622">
<desc>I4</desc>
</polygon>
<polygon fill="plum" stroke="white" stroke-width="1"
         points="55.000,54.848 55.000,60.622 60.000,63.509 60.000,63.509 65.000,60.622 65.000,54.848 70.000,51.962 70.000,46.188 75.000,43.301 80.000,46.188 85.000,43.301 85.000,37.528 90.000,34.641 90.000,28.868 85.000,25.981 80.000,28.868 80.000,34.641 75.000,37.528 70.000,34.641 65.000,37.528 65.000,43.301 60.000,46.188 60.000,51.962">
<desc>N5</desc>
</polygon>
<polygon fill="blueviolet" stroke="white" stroke-width="1"
         points="85.000,54.848 85.000,60.622 90.000,63.509 90.000,63.509 95.000,60.622 95.000,54.848 100.000,51.962 100.000,46.188 105.000,43.301 110.000,46.188 115.000,43.301 115.000,37.528 110.000,34.641 105.000,37.528 100.000,34.641 95.000,37.528 95.000,43.301 90.000,46.188 90.000,51.962">
<desc>J4</desc>
</polygon>
<polygon fill="plum" stroke="white" stroke-width="1"
         points="95.000,54.848 95.000,60.622 100.000,63.509 100.000,63.509 105.000,60.622 105.000,54.848 110.000,51.962 115.000,54.848 120.000,51.962 120.000,46.188 115.000,43.301 110.000,46.188 105.000,43.301 100.000,46.188 100.000,51.962">
<desc>V3</desc>
</polygon>
<polygon fill="red" stroke="white" stroke-width="1"
         points="120.000,46.188 120.000,51.962 125.000,54.848 125.000,54.848 130.000,51.962 135.000,54.848 140.000,51.962 140.000,46.188 135.000,43.301 135.000,37.528 130.000,34.641 125.000,37.528 120.000,34.641 115.000,37.528 115.000,43.301">
<desc>O4</desc>
</polygon>
<polygon fill="tan" stroke="white" stroke-width="1"
         points="160.000,46.188 160.000,51.962 165.000,54.848 165.000,54.848 170.000,51.962 170.000,46.188 165.000,43.301 165.000,37.528 170.000,34.641 170.000,28.868 165.000,25.981 165.000,20.207 160.000,17.321 155.000,20.207 155.000,25.981 160.000,28.868 160.000,34.641 155.000,37.528 150.000,34.641 145.000,37.528 145.000,43.301 150.000,46.188 155.000,43.301">
<desc>y5</desc>
</polygon>
<polygon fill="turquoise" stroke="white" stroke-width="1"
         points="85.000,37.528 85.000,43.301 90.000,46.188 90.000,46.188 95.000,43.301 95.000,37.528 100.000,34.641 105.000,37.528 110.000,34.641 115.000,37.528 120.000,34.641 120.000,28.868 115.000,25.981 110.000,28.868 105.000,25.981 100.000,28.868 95.000,25.981 95.000,20.207 90.000,17.321 85.000,20.207 85.000,25.981 90.000,28.868 90.000,34.641">
<desc>Y5</desc>
</polygon>
<polygon fill="yellow" stroke="white" stroke-width="1"
         points="70.000,28.868 70.000,34.641 75.000,37.528 75.000,37.528 80.000,34.641 80.000,28.868 85.000,25.981 85.000,20.207 90.000,17.321 95.000,20.207 95.000,25.981 100.000,28.868 105.000,25.981 105.000,20.207 100.000,17.321 100.000,11.547 95.000,8.660 90.000,11.547 85.000,8.660 80.000,11.547 80.000,17.321 75.000,20.207 75.000,25.981">
<desc>r5</desc>
</polygon>
<polygon fill="navy" stroke="white" stroke-width="1"
         points="120.000,28.868 120.000,34.641 125.000,37.528 125.000,37.528 130.000,34.641 135.000,37.528 140.000,34.641 140.000,28.868 145.000,25.981 145.000,20.207 140.000,17.321 140.000,11.547 135.000,8.660 130.000,11.547 130.000,17.321 135.000,20.207 135.000,25.981 130.000,28.868 125.000,25.981 125.000,20.207 120.000,17.321 115.000,20.207 115.000,25.981">
<desc>U5</desc>
</polygon>
<polygon fill="red" stroke="white" stroke-width="1"
         points="140.000,28.868 140.000,34.641 145.000,37.528 145.000,37.528 150.000,34.641 155.000,37.528 160.000,34.641 160.000,28.868 155.000,25.981 155.000,20.207 160.000,17.321 160.000,11.547 155.000,8.660 150.000,11.547 145.000,8.660 140.000,11.547 140.000,17.321 145.000,20.207 145.000,25.981">
<desc>X5</desc>
</polygon>
<polygon fill="lightcoral" stroke="white" stroke-width="1"
         points="105.000,20.207 105.000,25.981 110.000,28.868 110.000,28.868 115.000,25.981 115.000,20.207 120.000,17.321 125.000,20.207 125.000,25.981 130.000,28.868 135.000,25.981 135.000,20.207 130.000,17.321 130.000,11.547 125.000,8.660 120.000,11.547 115.000,8.660 110.000,11.547 105.000,8.660 100.000,11.547 100.000,17.321">
<desc>u5</desc>
</polygon>
</g>
</svg>
