<?xml version="1.0" standalone="no"?>
<!-- Created by Polyform Puzzler (http://puzzler.sourceforge.net/) -->
<svg width="145.000" height="77.942"
     viewBox="0 0 145.000 77.942"
     xmlns="http://www.w3.org/2000/svg"
     xmlns:xlink="http://www.w3.org/1999/xlink">
<g>
<polygon fill="gray" stroke="white" stroke-width="1"
         points="20.000,63.509 20.000,69.282 25.000,72.169 25.000,72.169 30.000,69.282 30.000,63.509 25.000,60.622">
<desc>H1</desc>
</polygon>
<polygon fill="green" stroke="white" stroke-width="1"
         points="30.000,63.509 30.000,69.282 35.000,72.169 35.000,72.169 40.000,69.282 40.000,63.509 35.000,60.622 35.000,54.848 40.000,51.962 40.000,46.188 35.000,43.301 30.000,46.188 30.000,51.962 25.000,54.848 20.000,51.962 15.000,54.848 15.000,60.622 20.000,63.509 25.000,60.622">
<desc>Y4</desc>
</polygon>
<polygon fill="teal" stroke="white" stroke-width="1"
         points="40.000,63.509 40.000,69.282 45.000,72.169 45.000,72.169 50.000,69.282 55.000,72.169 60.000,69.282 65.000,72.169 70.000,69.282 70.000,63.509 65.000,60.622 60.000,63.509 55.000,60.622 50.000,63.509 45.000,60.622">
<desc>I3</desc>
</polygon>
<polygon fill="plum" stroke="white" stroke-width="1"
         points="70.000,63.509 70.000,69.282 75.000,72.169 75.000,72.169 80.000,69.282 80.000,63.509 85.000,60.622 90.000,63.509 95.000,60.622 95.000,54.848 90.000,51.962 85.000,54.848 80.000,51.962 75.000,54.848 75.000,60.622">
<desc>V3</desc>
</polygon>
<polygon fill="lime" stroke="white" stroke-width="1"
         points="80.000,63.509 80.000,69.282 85.000,72.169 85.000,72.169 90.000,69.282 95.000,72.169 100.000,69.282 100.000,63.509 105.000,60.622 105.000,54.848 100.000,51.962 100.000,46.188 95.000,43.301 90.000,46.188 90.000,51.962 95.000,54.848 95.000,60.622 90.000,63.509 85.000,60.622">
<desc>U4</desc>
</polygon>
<polygon fill="olive" stroke="white" stroke-width="1"
         points="35.000,54.848 35.000,60.622 40.000,63.509 40.000,63.509 45.000,60.622 50.000,63.509 55.000,60.622 55.000,54.848 50.000,51.962 50.000,46.188 45.000,43.301 40.000,46.188 40.000,51.962">
<desc>A3</desc>
</polygon>
<polygon fill="navy" stroke="white" stroke-width="1"
         points="55.000,54.848 55.000,60.622 60.000,63.509 60.000,63.509 65.000,60.622 70.000,63.509 75.000,60.622 75.000,54.848 80.000,51.962 85.000,54.848 90.000,51.962 90.000,46.188 85.000,43.301 80.000,46.188 75.000,43.301 70.000,46.188 70.000,51.962 65.000,54.848 60.000,51.962">
<desc>S4</desc>
</polygon>
<polygon fill="steelblue" stroke="white" stroke-width="1"
         points="20.000,46.188 20.000,51.962 25.000,54.848 25.000,54.848 30.000,51.962 30.000,46.188 35.000,43.301 35.000,37.528 30.000,34.641 25.000,37.528 25.000,43.301">
<desc>I2</desc>
</polygon>
<polygon fill="red" stroke="white" stroke-width="1"
         points="35.000,37.528 35.000,43.301 40.000,46.188 40.000,46.188 45.000,43.301 45.000,37.528 50.000,34.641 50.000,28.868 45.000,25.981 45.000,20.207 40.000,17.321 35.000,20.207 35.000,25.981 30.000,28.868 30.000,34.641">
<desc>O4</desc>
</polygon>
<polygon fill="blueviolet" stroke="white" stroke-width="1"
         points="75.000,37.528 75.000,43.301 80.000,46.188 80.000,46.188 85.000,43.301 85.000,37.528 80.000,34.641 80.000,28.868 75.000,25.981 75.000,20.207 70.000,17.321 65.000,20.207 60.000,17.321 55.000,20.207 55.000,25.981 60.000,28.868 65.000,25.981 70.000,28.868 70.000,34.641">
<desc>J4</desc>
</polygon>
<polygon fill="blue" stroke="white" stroke-width="1"
         points="85.000,37.528 85.000,43.301 90.000,46.188 90.000,46.188 95.000,43.301 95.000,37.528 90.000,34.641 90.000,28.868 85.000,25.981 85.000,20.207 80.000,17.321 80.000,11.547 75.000,8.660 70.000,11.547 70.000,17.321 75.000,20.207 75.000,25.981 80.000,28.868 80.000,34.641">
<desc>I4</desc>
</polygon>
<polygon fill="gold" stroke="white" stroke-width="1"
         points="45.000,20.207 45.000,25.981 50.000,28.868 50.000,28.868 55.000,25.981 55.000,20.207 60.000,17.321 65.000,20.207 70.000,17.321 70.000,11.547 65.000,8.660 60.000,11.547 55.000,8.660 50.000,11.547 45.000,8.660 40.000,11.547 40.000,17.321">
<desc>P4</desc>
</polygon>
</g>
</svg>
