<?xml version="1.0" standalone="no"?>
<!-- Created by Polyform Puzzler (http://puzzler.sourceforge.net/) -->
<svg width="220.0" height="103.923048454" viewBox="0 0 220.0 103.923048454"
     xmlns="http://www.w3.org/2000/svg"
     xmlns:xlink="http://www.w3.org/1999/xlink">
<g>
<polygon fill="olive" stroke="white" stroke-width="1"
         points="10.000,89.489 10.000,95.263 15.000,98.150 15.000,98.150 20.000,95.263 25.000,98.150 30.000,95.263 30.000,89.489 25.000,86.603 25.000,80.829 20.000,77.942 15.000,80.829 15.000,86.603">
<desc>A3</desc>
</polygon>
<polygon fill="lightcoral" stroke="white" stroke-width="1"
         points="30.000,89.489 30.000,95.263 35.000,98.150 35.000,98.150 40.000,95.263 45.000,98.150 50.000,95.263 50.000,89.489 45.000,86.603 40.000,89.489 35.000,86.603 35.000,80.829 40.000,77.942 40.000,72.169 35.000,69.282 30.000,72.169 25.000,69.282 20.000,72.169 20.000,77.942 25.000,80.829 25.000,86.603">
<desc>u5</desc>
</polygon>
<polygon fill="navy" stroke="white" stroke-width="1"
         points="50.000,89.489 50.000,95.263 55.000,98.150 55.000,98.150 60.000,95.263 65.000,98.150 70.000,95.263 70.000,89.489 65.000,86.603 60.000,89.489 55.000,86.603 55.000,80.829 50.000,77.942 45.000,80.829 40.000,77.942 35.000,80.829 35.000,86.603 40.000,89.489 45.000,86.603">
<desc>S4</desc>
</polygon>
<polygon fill="teal" stroke="white" stroke-width="1"
         points="70.000,89.489 70.000,95.263 75.000,98.150 75.000,98.150 80.000,95.263 85.000,98.150 90.000,95.263 95.000,98.150 100.000,95.263 100.000,89.489 95.000,86.603 90.000,89.489 85.000,86.603 85.000,80.829 80.000,77.942 80.000,72.169 75.000,69.282 70.000,72.169 70.000,77.942 75.000,80.829 75.000,86.603">
<desc>T5</desc>
</polygon>
<polygon fill="plum" stroke="white" stroke-width="1"
         points="100.000,89.489 100.000,95.263 105.000,98.150 105.000,98.150 110.000,95.263 110.000,89.489 105.000,86.603 105.000,80.829 100.000,77.942 95.000,80.829 90.000,77.942 85.000,80.829 85.000,86.603 90.000,89.489 95.000,86.603">
<desc>V3</desc>
</polygon>
<polygon fill="gray" stroke="white" stroke-width="1"
         points="110.000,89.489 110.000,95.263 115.000,98.150 115.000,98.150 120.000,95.263 125.000,98.150 130.000,95.263 130.000,89.489 125.000,86.603 120.000,89.489 115.000,86.603 115.000,80.829 110.000,77.942 110.000,72.169 105.000,69.282 100.000,72.169 95.000,69.282 90.000,72.169 90.000,77.942 95.000,80.829 100.000,77.942 105.000,80.829 105.000,86.603">
<desc>S5</desc>
</polygon>
<polygon fill="olive" stroke="white" stroke-width="1"
         points="130.000,89.489 130.000,95.263 135.000,98.150 135.000,98.150 140.000,95.263 145.000,98.150 150.000,95.263 150.000,89.489 145.000,86.603 140.000,89.489 135.000,86.603 135.000,80.829 130.000,77.942 130.000,72.169 125.000,69.282 120.000,72.169 120.000,77.942 115.000,80.829 115.000,86.603 120.000,89.489 125.000,86.603">
<desc>q5</desc>
</polygon>
<polygon fill="tan" stroke="white" stroke-width="1"
         points="150.000,89.489 150.000,95.263 155.000,98.150 155.000,98.150 160.000,95.263 160.000,89.489 155.000,86.603 155.000,80.829 160.000,77.942 160.000,72.169 155.000,69.282 150.000,72.169 150.000,77.942 145.000,80.829 140.000,77.942 140.000,72.169 135.000,69.282 130.000,72.169 130.000,77.942 135.000,80.829 135.000,86.603 140.000,89.489 145.000,86.603">
<desc>y5</desc>
</polygon>
<polygon fill="gold" stroke="white" stroke-width="1"
         points="55.000,80.829 55.000,86.603 60.000,89.489 60.000,89.489 65.000,86.603 70.000,89.489 75.000,86.603 75.000,80.829 70.000,77.942 70.000,72.169 75.000,69.282 75.000,63.509 70.000,60.622 65.000,63.509 65.000,69.282 60.000,72.169 60.000,77.942">
<desc>P4</desc>
</polygon>
<polygon fill="navy" stroke="white" stroke-width="1"
         points="155.000,80.829 155.000,86.603 160.000,89.489 160.000,89.489 165.000,86.603 165.000,80.829 170.000,77.942 170.000,72.169 165.000,69.282 165.000,63.509 160.000,60.622 155.000,63.509 150.000,60.622 145.000,63.509 145.000,69.282 140.000,72.169 140.000,77.942 145.000,80.829 150.000,77.942 150.000,72.169 155.000,69.282 160.000,72.169 160.000,77.942">
<desc>U5</desc>
</polygon>
<polygon fill="steelblue" stroke="white" stroke-width="1"
         points="40.000,72.169 40.000,77.942 45.000,80.829 45.000,80.829 50.000,77.942 55.000,80.829 60.000,77.942 60.000,72.169 55.000,69.282 55.000,63.509 50.000,60.622 45.000,63.509 40.000,60.622 35.000,63.509 30.000,60.622 25.000,63.509 25.000,69.282 30.000,72.169 35.000,69.282">
<desc>p5</desc>
</polygon>
<polygon fill="blue" stroke="white" stroke-width="1"
         points="80.000,72.169 80.000,77.942 85.000,80.829 85.000,80.829 90.000,77.942 90.000,72.169 95.000,69.282 95.000,63.509 100.000,60.622 100.000,54.848 105.000,51.962 105.000,46.188 110.000,43.301 110.000,37.528 105.000,34.641 100.000,37.528 100.000,43.301 95.000,46.188 95.000,51.962 90.000,54.848 90.000,60.622 85.000,63.509 85.000,69.282">
<desc>I5</desc>
</polygon>
<polygon fill="red" stroke="white" stroke-width="1"
         points="110.000,72.169 110.000,77.942 115.000,80.829 115.000,80.829 120.000,77.942 120.000,72.169 125.000,69.282 125.000,63.509 120.000,60.622 115.000,63.509 110.000,60.622 110.000,54.848 105.000,51.962 100.000,54.848 100.000,60.622 95.000,63.509 95.000,69.282 100.000,72.169 105.000,69.282">
<desc>X5</desc>
</polygon>
<polygon fill="darkorange" stroke="white" stroke-width="1"
         points="55.000,63.509 55.000,69.282 60.000,72.169 60.000,72.169 65.000,69.282 65.000,63.509 60.000,60.622 60.000,54.848 55.000,51.962 55.000,46.188 60.000,43.301 60.000,37.528 65.000,34.641 65.000,28.868 60.000,25.981 55.000,28.868 55.000,34.641 50.000,37.528 50.000,43.301 45.000,46.188 45.000,51.962 50.000,54.848 50.000,60.622">
<desc>L5</desc>
</polygon>
<polygon fill="plum" stroke="white" stroke-width="1"
         points="75.000,63.509 75.000,69.282 80.000,72.169 80.000,72.169 85.000,69.282 85.000,63.509 90.000,60.622 90.000,54.848 85.000,51.962 85.000,46.188 90.000,43.301 90.000,37.528 95.000,34.641 95.000,28.868 90.000,25.981 85.000,28.868 85.000,34.641 80.000,37.528 80.000,43.301 75.000,46.188 75.000,51.962 80.000,54.848 80.000,60.622">
<desc>N5</desc>
</polygon>
<polygon fill="gold" stroke="white" stroke-width="1"
         points="125.000,63.509 125.000,69.282 130.000,72.169 130.000,72.169 135.000,69.282 140.000,72.169 145.000,69.282 145.000,63.509 140.000,60.622 135.000,63.509 130.000,60.622 130.000,54.848 125.000,51.962 120.000,54.848 115.000,51.962 115.000,46.188 110.000,43.301 105.000,46.188 105.000,51.962 110.000,54.848 110.000,60.622 115.000,63.509 120.000,60.622">
<desc>W5</desc>
</polygon>
<polygon fill="turquoise" stroke="white" stroke-width="1"
         points="165.000,63.509 165.000,69.282 170.000,72.169 170.000,72.169 175.000,69.282 175.000,63.509 170.000,60.622 170.000,54.848 175.000,51.962 175.000,46.188 170.000,43.301 165.000,46.188 165.000,51.962 160.000,54.848 155.000,51.962 150.000,54.848 145.000,51.962 140.000,54.848 140.000,60.622 145.000,63.509 150.000,60.622 155.000,63.509 160.000,60.622">
<desc>Y5</desc>
</polygon>
<polygon fill="peru" stroke="white" stroke-width="1"
         points="30.000,54.848 30.000,60.622 35.000,63.509 35.000,63.509 40.000,60.622 45.000,63.509 50.000,60.622 50.000,54.848 45.000,51.962 45.000,46.188 50.000,43.301 50.000,37.528 55.000,34.641 55.000,28.868 50.000,25.981 45.000,28.868 45.000,34.641 40.000,37.528 40.000,43.301 35.000,46.188 35.000,51.962">
<desc>P5</desc>
</polygon>
<polygon fill="lime" stroke="white" stroke-width="1"
         points="60.000,54.848 60.000,60.622 65.000,63.509 65.000,63.509 70.000,60.622 75.000,63.509 80.000,60.622 80.000,54.848 75.000,51.962 70.000,54.848 65.000,51.962 65.000,46.188 70.000,43.301 70.000,37.528 65.000,34.641 60.000,37.528 60.000,43.301 55.000,46.188 55.000,51.962">
<desc>U4</desc>
</polygon>
<polygon fill="green" stroke="white" stroke-width="1"
         points="130.000,54.848 130.000,60.622 135.000,63.509 135.000,63.509 140.000,60.622 140.000,54.848 135.000,51.962 135.000,46.188 140.000,43.301 140.000,37.528 135.000,34.641 130.000,37.528 130.000,43.301 125.000,46.188 120.000,43.301 115.000,46.188 115.000,51.962 120.000,54.848 125.000,51.962">
<desc>Y4</desc>
</polygon>
<polygon fill="yellow" stroke="white" stroke-width="1"
         points="170.000,54.848 170.000,60.622 175.000,63.509 175.000,63.509 180.000,60.622 180.000,54.848 185.000,51.962 185.000,46.188 180.000,43.301 180.000,37.528 175.000,34.641 170.000,37.528 165.000,34.641 160.000,37.528 155.000,34.641 150.000,37.528 150.000,43.301 155.000,46.188 160.000,43.301 165.000,46.188 170.000,43.301 175.000,46.188 175.000,51.962">
<desc>r5</desc>
</polygon>
<polygon fill="darkseagreen" stroke="white" stroke-width="1"
         points="65.000,46.188 65.000,51.962 70.000,54.848 70.000,54.848 75.000,51.962 75.000,46.188 80.000,43.301 80.000,37.528 85.000,34.641 85.000,28.868 90.000,25.981 95.000,28.868 100.000,25.981 100.000,20.207 95.000,17.321 90.000,20.207 85.000,17.321 80.000,20.207 80.000,25.981 75.000,28.868 75.000,34.641 70.000,37.528 70.000,43.301">
<desc>J5</desc>
</polygon>
<polygon fill="blue" stroke="white" stroke-width="1"
         points="85.000,46.188 85.000,51.962 90.000,54.848 90.000,54.848 95.000,51.962 95.000,46.188 100.000,43.301 100.000,37.528 105.000,34.641 105.000,28.868 110.000,25.981 110.000,20.207 105.000,17.321 100.000,20.207 100.000,25.981 95.000,28.868 95.000,34.641 90.000,37.528 90.000,43.301">
<desc>I4</desc>
</polygon>
<polygon fill="blueviolet" stroke="white" stroke-width="1"
         points="135.000,46.188 135.000,51.962 140.000,54.848 140.000,54.848 145.000,51.962 150.000,54.848 155.000,51.962 160.000,54.848 165.000,51.962 165.000,46.188 160.000,43.301 155.000,46.188 150.000,43.301 150.000,37.528 155.000,34.641 155.000,28.868 150.000,25.981 145.000,28.868 145.000,34.641 140.000,37.528 140.000,43.301">
<desc>V5</desc>
</polygon>
<polygon fill="indigo" stroke="white" stroke-width="1"
         points="110.000,37.528 110.000,43.301 115.000,46.188 115.000,46.188 120.000,43.301 120.000,37.528 115.000,34.641 115.000,28.868 120.000,25.981 125.000,28.868 130.000,25.981 130.000,20.207 135.000,17.321 135.000,11.547 130.000,8.660 125.000,11.547 125.000,17.321 120.000,20.207 115.000,17.321 110.000,20.207 110.000,25.981 105.000,28.868 105.000,34.641">
<desc>G5</desc>
</polygon>
<polygon fill="magenta" stroke="white" stroke-width="1"
         points="120.000,37.528 120.000,43.301 125.000,46.188 125.000,46.188 130.000,43.301 130.000,37.528 135.000,34.641 140.000,37.528 145.000,34.641 145.000,28.868 140.000,25.981 140.000,20.207 145.000,17.321 145.000,11.547 140.000,8.660 135.000,11.547 135.000,17.321 130.000,20.207 130.000,25.981 125.000,28.868 125.000,34.641">
<desc>E5</desc>
</polygon>
<polygon fill="lime" stroke="white" stroke-width="1"
         points="180.000,37.528 180.000,43.301 185.000,46.188 185.000,46.188 190.000,43.301 190.000,37.528 185.000,34.641 185.000,28.868 190.000,25.981 190.000,20.207 195.000,17.321 200.000,20.207 205.000,17.321 205.000,11.547 200.000,8.660 195.000,11.547 190.000,8.660 185.000,11.547 185.000,17.321 180.000,20.207 180.000,25.981 175.000,28.868 175.000,34.641">
<desc>C5</desc>
</polygon>
<polygon fill="blueviolet" stroke="white" stroke-width="1"
         points="65.000,28.868 65.000,34.641 70.000,37.528 70.000,37.528 75.000,34.641 75.000,28.868 80.000,25.981 80.000,20.207 85.000,17.321 90.000,20.207 95.000,17.321 95.000,11.547 90.000,8.660 85.000,11.547 80.000,8.660 75.000,11.547 75.000,17.321 70.000,20.207 70.000,25.981">
<desc>J4</desc>
</polygon>
<polygon fill="gray" stroke="white" stroke-width="1"
         points="115.000,28.868 115.000,34.641 120.000,37.528 120.000,37.528 125.000,34.641 125.000,28.868 120.000,25.981">
<desc>H1</desc>
</polygon>
<polygon fill="maroon" stroke="white" stroke-width="1"
         points="155.000,28.868 155.000,34.641 160.000,37.528 160.000,37.528 165.000,34.641 165.000,28.868 160.000,25.981 160.000,20.207 165.000,17.321 165.000,11.547 160.000,8.660 155.000,11.547 150.000,8.660 145.000,11.547 145.000,17.321 140.000,20.207 140.000,25.981 145.000,28.868 150.000,25.981">
<desc>A5</desc>
</polygon>
<polygon fill="green" stroke="white" stroke-width="1"
         points="165.000,28.868 165.000,34.641 170.000,37.528 170.000,37.528 175.000,34.641 175.000,28.868 180.000,25.981 180.000,20.207 185.000,17.321 185.000,11.547 180.000,8.660 175.000,11.547 170.000,8.660 165.000,11.547 165.000,17.321 160.000,20.207 160.000,25.981">
<desc>D5</desc>
</polygon>
<polygon fill="steelblue" stroke="white" stroke-width="1"
         points="185.000,28.868 185.000,34.641 190.000,37.528 190.000,37.528 195.000,34.641 195.000,28.868 200.000,25.981 200.000,20.207 195.000,17.321 190.000,20.207 190.000,25.981">
<desc>I2</desc>
</polygon>
<polygon fill="red" stroke="white" stroke-width="1"
         points="50.000,20.207 50.000,25.981 55.000,28.868 55.000,28.868 60.000,25.981 65.000,28.868 70.000,25.981 70.000,20.207 75.000,17.321 75.000,11.547 70.000,8.660 65.000,11.547 60.000,8.660 55.000,11.547 55.000,17.321">
<desc>O4</desc>
</polygon>
<polygon fill="teal" stroke="white" stroke-width="1"
         points="95.000,11.547 95.000,17.321 100.000,20.207 100.000,20.207 105.000,17.321 110.000,20.207 115.000,17.321 120.000,20.207 125.000,17.321 125.000,11.547 120.000,8.660 115.000,11.547 110.000,8.660 105.000,11.547 100.000,8.660">
<desc>I3</desc>
</polygon>
</g>
</svg>
