<?xml version="1.0" standalone="no"?>
<!-- Created by Polyform Puzzler (http://puzzler.sourceforge.net/) -->
<svg width="240.000" height="240.000"
     viewBox="0 0 240.000 240.000"
     xmlns="http://www.w3.org/2000/svg"
     xmlns:xlink="http://www.w3.org/1999/xlink">
<g transform="translate(120.000,60.000) rotate(-30)">
<polygon fill="green" stroke="white" stroke-width="1"
         points="40.000,89.489 40.000,95.263 45.000,98.150 45.000,98.150 50.000,95.263 50.000,89.489 45.000,86.603 45.000,80.829 50.000,77.942 50.000,72.169 45.000,69.282 40.000,72.169 40.000,77.942 35.000,80.829 30.000,77.942 25.000,80.829 25.000,86.603 30.000,89.489 35.000,86.603">
<desc>Y4</desc>
</polygon>
<polygon fill="red" stroke="white" stroke-width="1"
         points="50.000,89.489 50.000,95.263 55.000,98.150 55.000,98.150 60.000,95.263 60.000,89.489 65.000,86.603 65.000,80.829 60.000,77.942 60.000,72.169 55.000,69.282 50.000,72.169 50.000,77.942 45.000,80.829 45.000,86.603">
<desc>O4</desc>
</polygon>
<polygon fill="blueviolet" stroke="white" stroke-width="1"
         points="20.000,72.169 20.000,77.942 25.000,80.829 25.000,80.829 30.000,77.942 30.000,72.169 35.000,69.282 35.000,63.509 40.000,60.622 45.000,63.509 50.000,60.622 50.000,54.848 45.000,51.962 40.000,54.848 35.000,51.962 30.000,54.848 30.000,60.622 25.000,63.509 25.000,69.282">
<desc>J4</desc>
</polygon>
<polygon fill="navy" stroke="white" stroke-width="1"
         points="30.000,72.169 30.000,77.942 35.000,80.829 35.000,80.829 40.000,77.942 40.000,72.169 45.000,69.282 50.000,72.169 55.000,69.282 55.000,63.509 60.000,60.622 60.000,54.848 55.000,51.962 50.000,54.848 50.000,60.622 45.000,63.509 40.000,60.622 35.000,63.509 35.000,69.282">
<desc>S4</desc>
</polygon>
<polygon fill="plum" stroke="white" stroke-width="1"
         points="60.000,72.169 60.000,77.942 65.000,80.829 65.000,80.829 70.000,77.942 70.000,72.169 65.000,69.282 65.000,63.509 70.000,60.622 70.000,54.848 65.000,51.962 60.000,54.848 60.000,60.622 55.000,63.509 55.000,69.282">
<desc>V3</desc>
</polygon>
<polygon fill="blue" stroke="white" stroke-width="1"
         points="65.000,63.509 65.000,69.282 70.000,72.169 70.000,72.169 75.000,69.282 75.000,63.509 80.000,60.622 80.000,54.848 85.000,51.962 85.000,46.188 90.000,43.301 90.000,37.528 85.000,34.641 80.000,37.528 80.000,43.301 75.000,46.188 75.000,51.962 70.000,54.848 70.000,60.622">
<desc>I4</desc>
</polygon>
<polygon fill="gold" stroke="white" stroke-width="1"
         points="35.000,46.188 35.000,51.962 40.000,54.848 40.000,54.848 45.000,51.962 50.000,54.848 55.000,51.962 60.000,54.848 65.000,51.962 65.000,46.188 60.000,43.301 60.000,37.528 55.000,34.641 50.000,37.528 50.000,43.301 45.000,46.188 40.000,43.301">
<desc>P4</desc>
</polygon>
<polygon fill="teal" stroke="white" stroke-width="1"
         points="65.000,46.188 65.000,51.962 70.000,54.848 70.000,54.848 75.000,51.962 75.000,46.188 80.000,43.301 80.000,37.528 85.000,34.641 85.000,28.868 80.000,25.981 75.000,28.868 75.000,34.641 70.000,37.528 70.000,43.301">
<desc>I3</desc>
</polygon>
<polygon fill="lime" stroke="white" stroke-width="1"
         points="40.000,37.528 40.000,43.301 45.000,46.188 45.000,46.188 50.000,43.301 50.000,37.528 55.000,34.641 60.000,37.528 60.000,43.301 65.000,46.188 70.000,43.301 70.000,37.528 65.000,34.641 65.000,28.868 60.000,25.981 55.000,28.868 50.000,25.981 45.000,28.868 45.000,34.641">
<desc>U4</desc>
</polygon>
<polygon fill="steelblue" stroke="white" stroke-width="1"
         points="65.000,28.868 65.000,34.641 70.000,37.528 70.000,37.528 75.000,34.641 75.000,28.868 80.000,25.981 80.000,20.207 75.000,17.321 70.000,20.207 70.000,25.981">
<desc>I2</desc>
</polygon>
<polygon fill="gray" stroke="white" stroke-width="1"
         points="85.000,28.868 85.000,34.641 90.000,37.528 90.000,37.528 95.000,34.641 95.000,28.868 90.000,25.981">
<desc>H1</desc>
</polygon>
<polygon fill="olive" stroke="white" stroke-width="1"
         points="50.000,20.207 50.000,25.981 55.000,28.868 55.000,28.868 60.000,25.981 65.000,28.868 70.000,25.981 70.000,20.207 65.000,17.321 65.000,11.547 60.000,8.660 55.000,11.547 55.000,17.321">
<desc>A3</desc>
</polygon>
</g>
</svg>
