<?xml version="1.0" standalone="no"?>
<!-- Created by Polyform Puzzler (http://puzzler.sourceforge.net/) -->
<svg width="145.000" height="95.263"
     viewBox="0 0 145.000 95.263"
     xmlns="http://www.w3.org/2000/svg"
     xmlns:xlink="http://www.w3.org/1999/xlink">
<g>
<polygon fill="gray" stroke="white" stroke-width="1"
         points="30.000,80.829 30.000,86.603 35.000,89.489 35.000,89.489 40.000,86.603 40.000,80.829 35.000,77.942">
<desc>H1</desc>
</polygon>
<polygon fill="green" stroke="white" stroke-width="1"
         points="40.000,80.829 40.000,86.603 45.000,89.489 45.000,89.489 50.000,86.603 50.000,80.829 45.000,77.942 45.000,72.169 50.000,69.282 50.000,63.509 45.000,60.622 40.000,63.509 40.000,69.282 35.000,72.169 30.000,69.282 25.000,72.169 25.000,77.942 30.000,80.829 35.000,77.942">
<desc>Y4</desc>
</polygon>
<polygon fill="blue" stroke="white" stroke-width="1"
         points="50.000,80.829 50.000,86.603 55.000,89.489 55.000,89.489 60.000,86.603 65.000,89.489 70.000,86.603 75.000,89.489 80.000,86.603 85.000,89.489 90.000,86.603 90.000,80.829 85.000,77.942 80.000,80.829 75.000,77.942 70.000,80.829 65.000,77.942 60.000,80.829 55.000,77.942">
<desc>I4</desc>
</polygon>
<polygon fill="blueviolet" stroke="white" stroke-width="1"
         points="45.000,72.169 45.000,77.942 50.000,80.829 50.000,80.829 55.000,77.942 60.000,80.829 65.000,77.942 70.000,80.829 75.000,77.942 75.000,72.169 80.000,69.282 80.000,63.509 75.000,60.622 70.000,63.509 70.000,69.282 65.000,72.169 60.000,69.282 55.000,72.169 50.000,69.282">
<desc>J4</desc>
</polygon>
<polygon fill="navy" stroke="white" stroke-width="1"
         points="75.000,72.169 75.000,77.942 80.000,80.829 80.000,80.829 85.000,77.942 85.000,72.169 90.000,69.282 90.000,63.509 85.000,60.622 85.000,54.848 90.000,51.962 90.000,46.188 85.000,43.301 80.000,46.188 80.000,51.962 75.000,54.848 75.000,60.622 80.000,63.509 80.000,69.282">
<desc>S4</desc>
</polygon>
<polygon fill="plum" stroke="white" stroke-width="1"
         points="85.000,72.169 85.000,77.942 90.000,80.829 90.000,80.829 95.000,77.942 95.000,72.169 100.000,69.282 100.000,63.509 95.000,60.622 95.000,54.848 90.000,51.962 85.000,54.848 85.000,60.622 90.000,63.509 90.000,69.282">
<desc>V3</desc>
</polygon>
<polygon fill="olive" stroke="white" stroke-width="1"
         points="20.000,63.509 20.000,69.282 25.000,72.169 25.000,72.169 30.000,69.282 35.000,72.169 40.000,69.282 40.000,63.509 35.000,60.622 35.000,54.848 30.000,51.962 25.000,54.848 25.000,60.622">
<desc>A3</desc>
</polygon>
<polygon fill="steelblue" stroke="white" stroke-width="1"
         points="35.000,54.848 35.000,60.622 40.000,63.509 40.000,63.509 45.000,60.622 45.000,54.848 50.000,51.962 50.000,46.188 45.000,43.301 40.000,46.188 40.000,51.962">
<desc>I2</desc>
</polygon>
<polygon fill="teal" stroke="white" stroke-width="1"
         points="30.000,46.188 30.000,51.962 35.000,54.848 35.000,54.848 40.000,51.962 40.000,46.188 45.000,43.301 45.000,37.528 50.000,34.641 50.000,28.868 45.000,25.981 40.000,28.868 40.000,34.641 35.000,37.528 35.000,43.301">
<desc>I3</desc>
</polygon>
<polygon fill="red" stroke="white" stroke-width="1"
         points="70.000,46.188 70.000,51.962 75.000,54.848 75.000,54.848 80.000,51.962 80.000,46.188 85.000,43.301 85.000,37.528 80.000,34.641 80.000,28.868 75.000,25.981 70.000,28.868 70.000,34.641 65.000,37.528 65.000,43.301">
<desc>O4</desc>
</polygon>
<polygon fill="gold" stroke="white" stroke-width="1"
         points="45.000,37.528 45.000,43.301 50.000,46.188 50.000,46.188 55.000,43.301 55.000,37.528 60.000,34.641 60.000,28.868 65.000,25.981 65.000,20.207 60.000,17.321 55.000,20.207 50.000,17.321 45.000,20.207 45.000,25.981 50.000,28.868 50.000,34.641">
<desc>P4</desc>
</polygon>
<polygon fill="lime" stroke="white" stroke-width="1"
         points="60.000,28.868 60.000,34.641 65.000,37.528 65.000,37.528 70.000,34.641 70.000,28.868 75.000,25.981 75.000,20.207 70.000,17.321 70.000,11.547 65.000,8.660 60.000,11.547 55.000,8.660 50.000,11.547 50.000,17.321 55.000,20.207 60.000,17.321 65.000,20.207 65.000,25.981">
<desc>U4</desc>
</polygon>
</g>
</svg>
