<?xml version="1.0" standalone="no"?>
<!-- Created by Polyform Puzzler (http://puzzler.sourceforge.net/) -->
<svg width="155.000" height="95.263"
     viewBox="0 0 155.000 95.263"
     xmlns="http://www.w3.org/2000/svg"
     xmlns:xlink="http://www.w3.org/1999/xlink">
<g>
<polygon fill="olive" stroke="white" stroke-width="1"
         points="10.000,80.829 10.000,86.603 15.000,89.489 15.000,89.489 20.000,86.603 25.000,89.489 30.000,86.603 30.000,80.829 25.000,77.942 25.000,72.169 20.000,69.282 15.000,72.169 15.000,77.942">
<desc>A3</desc>
</polygon>
<polygon fill="green" stroke="white" stroke-width="1"
         points="30.000,80.829 30.000,86.603 35.000,89.489 35.000,89.489 40.000,86.603 40.000,80.829 45.000,77.942 50.000,80.829 55.000,77.942 55.000,72.169 50.000,69.282 45.000,72.169 40.000,69.282 40.000,63.509 35.000,60.622 30.000,63.509 30.000,69.282 35.000,72.169 35.000,77.942">
<desc>Y4</desc>
</polygon>
<polygon fill="blue" stroke="white" stroke-width="1"
         points="40.000,80.829 40.000,86.603 45.000,89.489 45.000,89.489 50.000,86.603 55.000,89.489 60.000,86.603 65.000,89.489 70.000,86.603 75.000,89.489 80.000,86.603 80.000,80.829 75.000,77.942 70.000,80.829 65.000,77.942 60.000,80.829 55.000,77.942 50.000,80.829 45.000,77.942">
<desc>I4</desc>
</polygon>
<polygon fill="steelblue" stroke="white" stroke-width="1"
         points="80.000,80.829 80.000,86.603 85.000,89.489 85.000,89.489 90.000,86.603 95.000,89.489 100.000,86.603 100.000,80.829 95.000,77.942 90.000,80.829 85.000,77.942">
<desc>I2</desc>
</polygon>
<polygon fill="plum" stroke="white" stroke-width="1"
         points="25.000,72.169 25.000,77.942 30.000,80.829 30.000,80.829 35.000,77.942 35.000,72.169 30.000,69.282 30.000,63.509 35.000,60.622 35.000,54.848 30.000,51.962 25.000,54.848 25.000,60.622 20.000,63.509 20.000,69.282">
<desc>V3</desc>
</polygon>
<polygon fill="blueviolet" stroke="white" stroke-width="1"
         points="55.000,72.169 55.000,77.942 60.000,80.829 60.000,80.829 65.000,77.942 65.000,72.169 70.000,69.282 75.000,72.169 80.000,69.282 85.000,72.169 90.000,69.282 90.000,63.509 85.000,60.622 80.000,63.509 75.000,60.622 70.000,63.509 65.000,60.622 60.000,63.509 60.000,69.282">
<desc>J4</desc>
</polygon>
<polygon fill="teal" stroke="white" stroke-width="1"
         points="65.000,72.169 65.000,77.942 70.000,80.829 70.000,80.829 75.000,77.942 80.000,80.829 85.000,77.942 90.000,80.829 95.000,77.942 95.000,72.169 90.000,69.282 85.000,72.169 80.000,69.282 75.000,72.169 70.000,69.282">
<desc>I3</desc>
</polygon>
<polygon fill="navy" stroke="white" stroke-width="1"
         points="40.000,63.509 40.000,69.282 45.000,72.169 45.000,72.169 50.000,69.282 55.000,72.169 60.000,69.282 60.000,63.509 65.000,60.622 70.000,63.509 75.000,60.622 75.000,54.848 70.000,51.962 65.000,54.848 60.000,51.962 55.000,54.848 55.000,60.622 50.000,63.509 45.000,60.622">
<desc>S4</desc>
</polygon>
<polygon fill="lime" stroke="white" stroke-width="1"
         points="35.000,54.848 35.000,60.622 40.000,63.509 40.000,63.509 45.000,60.622 50.000,63.509 55.000,60.622 55.000,54.848 50.000,51.962 45.000,54.848 40.000,51.962 40.000,46.188 45.000,43.301 45.000,37.528 40.000,34.641 35.000,37.528 35.000,43.301 30.000,46.188 30.000,51.962">
<desc>U4</desc>
</polygon>
<polygon fill="gold" stroke="white" stroke-width="1"
         points="75.000,54.848 75.000,60.622 80.000,63.509 80.000,63.509 85.000,60.622 85.000,54.848 80.000,51.962 80.000,46.188 75.000,43.301 75.000,37.528 70.000,34.641 65.000,37.528 65.000,43.301 60.000,46.188 60.000,51.962 65.000,54.848 70.000,51.962">
<desc>P4</desc>
</polygon>
<polygon fill="red" stroke="white" stroke-width="1"
         points="40.000,46.188 40.000,51.962 45.000,54.848 45.000,54.848 50.000,51.962 55.000,54.848 60.000,51.962 60.000,46.188 65.000,43.301 65.000,37.528 60.000,34.641 55.000,37.528 50.000,34.641 45.000,37.528 45.000,43.301">
<desc>O4</desc>
</polygon>
<polygon fill="gray" stroke="white" stroke-width="1"
         points="50.000,11.547 50.000,17.321 55.000,20.207 55.000,20.207 60.000,17.321 60.000,11.547 55.000,8.660">
<desc>H1</desc>
</polygon>
</g>
</svg>
