<?xml version="1.0" standalone="no"?>
<!-- Created by Polyform Puzzler (http://puzzler.sourceforge.net/) -->
<svg width="290.000" height="290.000"
     viewBox="0 0 290.000 290.000"
     xmlns="http://www.w3.org/2000/svg"
     xmlns:xlink="http://www.w3.org/1999/xlink">
<g transform="translate(145.000,72.500) rotate(90)">
<polygon fill="gray" stroke="white" stroke-width="1"
         points="60.000,98.150 60.000,103.923 65.000,106.810 65.000,106.810 70.000,103.923 70.000,98.150 65.000,95.263">
<desc>H1</desc>
</polygon>
<polygon fill="green" stroke="white" stroke-width="1"
         points="70.000,98.150 70.000,103.923 75.000,106.810 75.000,106.810 80.000,103.923 80.000,98.150 75.000,95.263 75.000,89.489 80.000,86.603 80.000,80.829 75.000,77.942 70.000,80.829 70.000,86.603 65.000,89.489 60.000,86.603 55.000,89.489 55.000,95.263 60.000,98.150 65.000,95.263">
<desc>Y4</desc>
</polygon>
<polygon fill="steelblue" stroke="white" stroke-width="1"
         points="75.000,89.489 75.000,95.263 80.000,98.150 80.000,98.150 85.000,95.263 85.000,89.489 90.000,86.603 90.000,80.829 85.000,77.942 80.000,80.829 80.000,86.603">
<desc>I2</desc>
</polygon>
<polygon fill="olive" stroke="white" stroke-width="1"
         points="50.000,80.829 50.000,86.603 55.000,89.489 55.000,89.489 60.000,86.603 65.000,89.489 70.000,86.603 70.000,80.829 65.000,77.942 65.000,72.169 60.000,69.282 55.000,72.169 55.000,77.942">
<desc>A3</desc>
</polygon>
<polygon fill="red" stroke="white" stroke-width="1"
         points="45.000,72.169 45.000,77.942 50.000,80.829 50.000,80.829 55.000,77.942 55.000,72.169 60.000,69.282 60.000,63.509 55.000,60.622 55.000,54.848 50.000,51.962 45.000,54.848 45.000,60.622 40.000,63.509 40.000,69.282">
<desc>O4</desc>
</polygon>
<polygon fill="teal" stroke="white" stroke-width="1"
         points="65.000,72.169 65.000,77.942 70.000,80.829 70.000,80.829 75.000,77.942 80.000,80.829 85.000,77.942 90.000,80.829 95.000,77.942 95.000,72.169 90.000,69.282 85.000,72.169 80.000,69.282 75.000,72.169 70.000,69.282">
<desc>I3</desc>
</polygon>
<polygon fill="navy" stroke="white" stroke-width="1"
         points="80.000,63.509 80.000,69.282 85.000,72.169 85.000,72.169 90.000,69.282 90.000,63.509 95.000,60.622 95.000,54.848 90.000,51.962 90.000,46.188 95.000,43.301 95.000,37.528 90.000,34.641 85.000,37.528 85.000,43.301 80.000,46.188 80.000,51.962 85.000,54.848 85.000,60.622">
<desc>S4</desc>
</polygon>
<polygon fill="plum" stroke="white" stroke-width="1"
         points="90.000,63.509 90.000,69.282 95.000,72.169 95.000,72.169 100.000,69.282 100.000,63.509 105.000,60.622 105.000,54.848 100.000,51.962 100.000,46.188 95.000,43.301 90.000,46.188 90.000,51.962 95.000,54.848 95.000,60.622">
<desc>V3</desc>
</polygon>
<polygon fill="blue" stroke="white" stroke-width="1"
         points="35.000,54.848 35.000,60.622 40.000,63.509 40.000,63.509 45.000,60.622 45.000,54.848 50.000,51.962 50.000,46.188 55.000,43.301 55.000,37.528 60.000,34.641 60.000,28.868 55.000,25.981 50.000,28.868 50.000,34.641 45.000,37.528 45.000,43.301 40.000,46.188 40.000,51.962">
<desc>I4</desc>
</polygon>
<polygon fill="blueviolet" stroke="white" stroke-width="1"
         points="50.000,46.188 50.000,51.962 55.000,54.848 55.000,54.848 60.000,51.962 60.000,46.188 65.000,43.301 70.000,46.188 75.000,43.301 80.000,46.188 85.000,43.301 85.000,37.528 80.000,34.641 75.000,37.528 70.000,34.641 65.000,37.528 60.000,34.641 55.000,37.528 55.000,43.301">
<desc>J4</desc>
</polygon>
<polygon fill="lime" stroke="white" stroke-width="1"
         points="60.000,28.868 60.000,34.641 65.000,37.528 65.000,37.528 70.000,34.641 75.000,37.528 80.000,34.641 80.000,28.868 75.000,25.981 70.000,28.868 65.000,25.981 65.000,20.207 70.000,17.321 70.000,11.547 65.000,8.660 60.000,11.547 60.000,17.321 55.000,20.207 55.000,25.981">
<desc>U4</desc>
</polygon>
<polygon fill="gold" stroke="white" stroke-width="1"
         points="80.000,28.868 80.000,34.641 85.000,37.528 85.000,37.528 90.000,34.641 90.000,28.868 85.000,25.981 85.000,20.207 80.000,17.321 80.000,11.547 75.000,8.660 70.000,11.547 70.000,17.321 65.000,20.207 65.000,25.981 70.000,28.868 75.000,25.981">
<desc>P4</desc>
</polygon>
</g>
</svg>
