<?xml version="1.0" standalone="no"?>
<!-- Created by Polyform Puzzler (http://puzzler.sourceforge.net/) -->
<svg width="365.000" height="60.622"
     viewBox="0 0 365.000 60.622"
     xmlns="http://www.w3.org/2000/svg"
     xmlns:xlink="http://www.w3.org/1999/xlink">
<g>
<polygon fill="olive" stroke="white" stroke-width="1"
         points="10.000,46.188 10.000,51.962 15.000,54.848 15.000,54.848 20.000,51.962 25.000,54.848 30.000,51.962 30.000,46.188 25.000,43.301 25.000,37.528 20.000,34.641 15.000,37.528 15.000,43.301">
<desc>A3</desc>
</polygon>
<polygon fill="teal" stroke="white" stroke-width="1"
         points="30.000,46.188 30.000,51.962 35.000,54.848 35.000,54.848 40.000,51.962 40.000,46.188 45.000,43.301 50.000,46.188 55.000,43.301 55.000,37.528 50.000,34.641 45.000,37.528 40.000,34.641 35.000,37.528 30.000,34.641 30.000,28.868 25.000,25.981 20.000,28.868 20.000,34.641 25.000,37.528 25.000,43.301">
<desc>T5</desc>
</polygon>
<polygon fill="lime" stroke="white" stroke-width="1"
         points="40.000,46.188 40.000,51.962 45.000,54.848 45.000,54.848 50.000,51.962 55.000,54.848 60.000,51.962 60.000,46.188 65.000,43.301 65.000,37.528 60.000,34.641 60.000,28.868 55.000,25.981 50.000,28.868 50.000,34.641 55.000,37.528 55.000,43.301 50.000,46.188 45.000,43.301">
<desc>U4</desc>
</polygon>
<polygon fill="turquoise" stroke="white" stroke-width="1"
         points="60.000,46.188 60.000,51.962 65.000,54.848 65.000,54.848 70.000,51.962 70.000,46.188 75.000,43.301 80.000,46.188 85.000,43.301 85.000,37.528 80.000,34.641 75.000,37.528 70.000,34.641 70.000,28.868 65.000,25.981 65.000,20.207 60.000,17.321 55.000,20.207 55.000,25.981 60.000,28.868 60.000,34.641 65.000,37.528 65.000,43.301">
<desc>Y5</desc>
</polygon>
<polygon fill="gold" stroke="white" stroke-width="1"
         points="70.000,46.188 70.000,51.962 75.000,54.848 75.000,54.848 80.000,51.962 85.000,54.848 90.000,51.962 90.000,46.188 95.000,43.301 100.000,46.188 105.000,43.301 105.000,37.528 110.000,34.641 110.000,28.868 105.000,25.981 100.000,28.868 100.000,34.641 95.000,37.528 90.000,34.641 85.000,37.528 85.000,43.301 80.000,46.188 75.000,43.301">
<desc>W5</desc>
</polygon>
<polygon fill="navy" stroke="white" stroke-width="1"
         points="90.000,46.188 90.000,51.962 95.000,54.848 95.000,54.848 100.000,51.962 105.000,54.848 110.000,51.962 110.000,46.188 115.000,43.301 120.000,46.188 125.000,43.301 125.000,37.528 120.000,34.641 115.000,37.528 110.000,34.641 105.000,37.528 105.000,43.301 100.000,46.188 95.000,43.301">
<desc>S4</desc>
</polygon>
<polygon fill="gold" stroke="white" stroke-width="1"
         points="110.000,46.188 110.000,51.962 115.000,54.848 115.000,54.848 120.000,51.962 125.000,54.848 130.000,51.962 135.000,54.848 140.000,51.962 140.000,46.188 135.000,43.301 135.000,37.528 130.000,34.641 125.000,37.528 125.000,43.301 120.000,46.188 115.000,43.301">
<desc>P4</desc>
</polygon>
<polygon fill="darkorange" stroke="white" stroke-width="1"
         points="140.000,46.188 140.000,51.962 145.000,54.848 145.000,54.848 150.000,51.962 155.000,54.848 160.000,51.962 165.000,54.848 170.000,51.962 170.000,46.188 165.000,43.301 160.000,46.188 155.000,43.301 150.000,46.188 145.000,43.301 145.000,37.528 140.000,34.641 140.000,28.868 135.000,25.981 130.000,28.868 130.000,34.641 135.000,37.528 135.000,43.301">
<desc>L5</desc>
</polygon>
<polygon fill="olive" stroke="white" stroke-width="1"
         points="170.000,46.188 170.000,51.962 175.000,54.848 175.000,54.848 180.000,51.962 185.000,54.848 190.000,51.962 190.000,46.188 185.000,43.301 180.000,46.188 175.000,43.301 175.000,37.528 170.000,34.641 170.000,28.868 165.000,25.981 160.000,28.868 160.000,34.641 155.000,37.528 155.000,43.301 160.000,46.188 165.000,43.301">
<desc>Q5</desc>
</polygon>
<polygon fill="blueviolet" stroke="white" stroke-width="1"
         points="190.000,46.188 190.000,51.962 195.000,54.848 195.000,54.848 200.000,51.962 205.000,54.848 210.000,51.962 215.000,54.848 220.000,51.962 220.000,46.188 225.000,43.301 225.000,37.528 220.000,34.641 215.000,37.528 215.000,43.301 210.000,46.188 205.000,43.301 200.000,46.188 195.000,43.301">
<desc>J4</desc>
</polygon>
<polygon fill="indigo" stroke="white" stroke-width="1"
         points="220.000,46.188 220.000,51.962 225.000,54.848 225.000,54.848 230.000,51.962 230.000,46.188 235.000,43.301 240.000,46.188 240.000,51.962 245.000,54.848 250.000,51.962 255.000,54.848 260.000,51.962 260.000,46.188 255.000,43.301 250.000,46.188 245.000,43.301 245.000,37.528 240.000,34.641 235.000,37.528 230.000,34.641 225.000,37.528 225.000,43.301">
<desc>G5</desc>
</polygon>
<polygon fill="gray" stroke="white" stroke-width="1"
         points="230.000,46.188 230.000,51.962 235.000,54.848 235.000,54.848 240.000,51.962 240.000,46.188 235.000,43.301">
<desc>H1</desc>
</polygon>
<polygon fill="magenta" stroke="white" stroke-width="1"
         points="260.000,46.188 260.000,51.962 265.000,54.848 265.000,54.848 270.000,51.962 275.000,54.848 280.000,51.962 285.000,54.848 290.000,51.962 295.000,54.848 300.000,51.962 300.000,46.188 295.000,43.301 290.000,46.188 285.000,43.301 285.000,37.528 280.000,34.641 275.000,37.528 275.000,43.301 270.000,46.188 265.000,43.301">
<desc>E5</desc>
</polygon>
<polygon fill="steelblue" stroke="white" stroke-width="1"
         points="300.000,46.188 300.000,51.962 305.000,54.848 305.000,54.848 310.000,51.962 315.000,54.848 320.000,51.962 325.000,54.848 330.000,51.962 330.000,46.188 325.000,43.301 320.000,46.188 315.000,43.301 315.000,37.528 310.000,34.641 305.000,37.528 300.000,34.641 295.000,37.528 295.000,43.301">
<desc>B5</desc>
</polygon>
<polygon fill="plum" stroke="white" stroke-width="1"
         points="145.000,37.528 145.000,43.301 150.000,46.188 150.000,46.188 155.000,43.301 155.000,37.528 160.000,34.641 160.000,28.868 155.000,25.981 155.000,20.207 150.000,17.321 145.000,20.207 145.000,25.981 150.000,28.868 150.000,34.641">
<desc>V3</desc>
</polygon>
<polygon fill="darkseagreen" stroke="white" stroke-width="1"
         points="175.000,37.528 175.000,43.301 180.000,46.188 180.000,46.188 185.000,43.301 190.000,46.188 195.000,43.301 200.000,46.188 205.000,43.301 210.000,46.188 215.000,43.301 215.000,37.528 210.000,34.641 205.000,37.528 200.000,34.641 195.000,37.528 190.000,34.641 185.000,37.528 180.000,34.641 180.000,28.868 175.000,25.981 170.000,28.868 170.000,34.641">
<desc>J5</desc>
</polygon>
<polygon fill="lightcoral" stroke="white" stroke-width="1"
         points="245.000,37.528 245.000,43.301 250.000,46.188 250.000,46.188 255.000,43.301 260.000,46.188 265.000,43.301 270.000,46.188 275.000,43.301 275.000,37.528 280.000,34.641 280.000,28.868 275.000,25.981 270.000,28.868 270.000,34.641 265.000,37.528 260.000,34.641 260.000,28.868 255.000,25.981 250.000,28.868 250.000,34.641">
<desc>F5</desc>
</polygon>
<polygon fill="lime" stroke="white" stroke-width="1"
         points="285.000,37.528 285.000,43.301 290.000,46.188 290.000,46.188 295.000,43.301 295.000,37.528 300.000,34.641 305.000,37.528 310.000,34.641 315.000,37.528 315.000,43.301 320.000,46.188 325.000,43.301 325.000,37.528 320.000,34.641 320.000,28.868 315.000,25.981 310.000,28.868 305.000,25.981 300.000,28.868 295.000,25.981 290.000,28.868 290.000,34.641">
<desc>C5</desc>
</polygon>
<polygon fill="gray" stroke="white" stroke-width="1"
         points="30.000,28.868 30.000,34.641 35.000,37.528 35.000,37.528 40.000,34.641 45.000,37.528 50.000,34.641 50.000,28.868 55.000,25.981 55.000,20.207 60.000,17.321 65.000,20.207 70.000,17.321 70.000,11.547 65.000,8.660 60.000,11.547 55.000,8.660 50.000,11.547 50.000,17.321 45.000,20.207 45.000,25.981 40.000,28.868 35.000,25.981">
<desc>S5</desc>
</polygon>
<polygon fill="navy" stroke="white" stroke-width="1"
         points="70.000,28.868 70.000,34.641 75.000,37.528 75.000,37.528 80.000,34.641 85.000,37.528 90.000,34.641 90.000,28.868 85.000,25.981 80.000,28.868 75.000,25.981 75.000,20.207 80.000,17.321 85.000,20.207 90.000,17.321 90.000,11.547 85.000,8.660 80.000,11.547 75.000,8.660 70.000,11.547 70.000,17.321 65.000,20.207 65.000,25.981">
<desc>U5</desc>
</polygon>
<polygon fill="green" stroke="white" stroke-width="1"
         points="90.000,28.868 90.000,34.641 95.000,37.528 95.000,37.528 100.000,34.641 100.000,28.868 95.000,25.981 95.000,20.207 100.000,17.321 100.000,11.547 95.000,8.660 90.000,11.547 90.000,17.321 85.000,20.207 80.000,17.321 75.000,20.207 75.000,25.981 80.000,28.868 85.000,25.981">
<desc>Y4</desc>
</polygon>
<polygon fill="red" stroke="white" stroke-width="1"
         points="110.000,28.868 110.000,34.641 115.000,37.528 115.000,37.528 120.000,34.641 120.000,28.868 125.000,25.981 125.000,20.207 120.000,17.321 115.000,20.207 110.000,17.321 110.000,11.547 105.000,8.660 100.000,11.547 100.000,17.321 95.000,20.207 95.000,25.981 100.000,28.868 105.000,25.981">
<desc>X5</desc>
</polygon>
<polygon fill="blueviolet" stroke="white" stroke-width="1"
         points="120.000,28.868 120.000,34.641 125.000,37.528 125.000,37.528 130.000,34.641 130.000,28.868 135.000,25.981 135.000,20.207 140.000,17.321 140.000,11.547 135.000,8.660 130.000,11.547 125.000,8.660 120.000,11.547 115.000,8.660 110.000,11.547 110.000,17.321 115.000,20.207 120.000,17.321 125.000,20.207 125.000,25.981">
<desc>V5</desc>
</polygon>
<polygon fill="yellow" stroke="white" stroke-width="1"
         points="140.000,28.868 140.000,34.641 145.000,37.528 145.000,37.528 150.000,34.641 150.000,28.868 145.000,25.981 145.000,20.207 150.000,17.321 155.000,20.207 160.000,17.321 165.000,20.207 170.000,17.321 170.000,11.547 165.000,8.660 160.000,11.547 155.000,8.660 150.000,11.547 145.000,8.660 140.000,11.547 140.000,17.321 135.000,20.207 135.000,25.981">
<desc>R5</desc>
</polygon>
<polygon fill="peru" stroke="white" stroke-width="1"
         points="180.000,28.868 180.000,34.641 185.000,37.528 185.000,37.528 190.000,34.641 190.000,28.868 195.000,25.981 195.000,20.207 190.000,17.321 185.000,20.207 180.000,17.321 175.000,20.207 170.000,17.321 165.000,20.207 160.000,17.321 155.000,20.207 155.000,25.981 160.000,28.868 165.000,25.981 170.000,28.868 175.000,25.981">
<desc>P5</desc>
</polygon>
<polygon fill="blue" stroke="white" stroke-width="1"
         points="190.000,28.868 190.000,34.641 195.000,37.528 195.000,37.528 200.000,34.641 205.000,37.528 210.000,34.641 215.000,37.528 220.000,34.641 225.000,37.528 230.000,34.641 235.000,37.528 240.000,34.641 240.000,28.868 235.000,25.981 230.000,28.868 225.000,25.981 220.000,28.868 215.000,25.981 210.000,28.868 205.000,25.981 200.000,28.868 195.000,25.981">
<desc>I5</desc>
</polygon>
<polygon fill="tan" stroke="white" stroke-width="1"
         points="240.000,28.868 240.000,34.641 245.000,37.528 245.000,37.528 250.000,34.641 250.000,28.868 255.000,25.981 260.000,28.868 260.000,34.641 265.000,37.528 270.000,34.641 270.000,28.868 265.000,25.981 265.000,20.207 270.000,17.321 270.000,11.547 265.000,8.660 260.000,11.547 260.000,17.321 255.000,20.207 250.000,17.321 245.000,20.207 245.000,25.981">
<desc>H5</desc>
</polygon>
<polygon fill="maroon" stroke="white" stroke-width="1"
         points="280.000,28.868 280.000,34.641 285.000,37.528 285.000,37.528 290.000,34.641 290.000,28.868 285.000,25.981 285.000,20.207 290.000,17.321 290.000,11.547 285.000,8.660 280.000,11.547 275.000,8.660 270.000,11.547 270.000,17.321 265.000,20.207 265.000,25.981 270.000,28.868 275.000,25.981">
<desc>A5</desc>
</polygon>
<polygon fill="red" stroke="white" stroke-width="1"
         points="25.000,20.207 25.000,25.981 30.000,28.868 30.000,28.868 35.000,25.981 40.000,28.868 45.000,25.981 45.000,20.207 50.000,17.321 50.000,11.547 45.000,8.660 40.000,11.547 35.000,8.660 30.000,11.547 30.000,17.321">
<desc>O4</desc>
</polygon>
<polygon fill="plum" stroke="white" stroke-width="1"
         points="195.000,20.207 195.000,25.981 200.000,28.868 200.000,28.868 205.000,25.981 210.000,28.868 215.000,25.981 215.000,20.207 210.000,17.321 205.000,20.207 200.000,17.321 200.000,11.547 195.000,8.660 190.000,11.547 185.000,8.660 180.000,11.547 175.000,8.660 170.000,11.547 170.000,17.321 175.000,20.207 180.000,17.321 185.000,20.207 190.000,17.321">
<desc>N5</desc>
</polygon>
<polygon fill="teal" stroke="white" stroke-width="1"
         points="215.000,20.207 215.000,25.981 220.000,28.868 220.000,28.868 225.000,25.981 230.000,28.868 235.000,25.981 240.000,28.868 245.000,25.981 245.000,20.207 240.000,17.321 235.000,20.207 230.000,17.321 225.000,20.207 220.000,17.321">
<desc>I3</desc>
</polygon>
<polygon fill="green" stroke="white" stroke-width="1"
         points="285.000,20.207 285.000,25.981 290.000,28.868 290.000,28.868 295.000,25.981 300.000,28.868 305.000,25.981 310.000,28.868 315.000,25.981 315.000,20.207 310.000,17.321 310.000,11.547 305.000,8.660 300.000,11.547 295.000,8.660 290.000,11.547 290.000,17.321">
<desc>D5</desc>
</polygon>
<polygon fill="blue" stroke="white" stroke-width="1"
         points="200.000,11.547 200.000,17.321 205.000,20.207 205.000,20.207 210.000,17.321 215.000,20.207 220.000,17.321 225.000,20.207 230.000,17.321 235.000,20.207 240.000,17.321 240.000,11.547 235.000,8.660 230.000,11.547 225.000,8.660 220.000,11.547 215.000,8.660 210.000,11.547 205.000,8.660">
<desc>I4</desc>
</polygon>
<polygon fill="steelblue" stroke="white" stroke-width="1"
         points="240.000,11.547 240.000,17.321 245.000,20.207 245.000,20.207 250.000,17.321 255.000,20.207 260.000,17.321 260.000,11.547 255.000,8.660 250.000,11.547 245.000,8.660">
<desc>I2</desc>
</polygon>
</g>
</svg>
