<?xml version="1.0" standalone="no"?>
<!-- Created by Polyform Puzzler (http://puzzler.sourceforge.net/) -->
<svg width="300.0" height="69.2820323028" viewBox="0 0 300.0 69.2820323028"
     xmlns="http://www.w3.org/2000/svg"
     xmlns:xlink="http://www.w3.org/1999/xlink">
<g>
<polygon fill="olive" stroke="white" stroke-width="1"
         points="10.000,54.848 10.000,60.622 15.000,63.509 15.000,63.509 20.000,60.622 25.000,63.509 30.000,60.622 30.000,54.848 25.000,51.962 25.000,46.188 20.000,43.301 15.000,46.188 15.000,51.962">
<desc>A3</desc>
</polygon>
<polygon fill="lightcoral" stroke="white" stroke-width="1"
         points="30.000,54.848 30.000,60.622 35.000,63.509 35.000,63.509 40.000,60.622 40.000,54.848 45.000,51.962 45.000,46.188 40.000,43.301 35.000,46.188 30.000,43.301 30.000,37.528 35.000,34.641 35.000,28.868 30.000,25.981 25.000,28.868 25.000,34.641 20.000,37.528 20.000,43.301 25.000,46.188 25.000,51.962">
<desc>u5</desc>
</polygon>
<polygon fill="tan" stroke="white" stroke-width="1"
         points="40.000,54.848 40.000,60.622 45.000,63.509 45.000,63.509 50.000,60.622 50.000,54.848 55.000,51.962 60.000,54.848 65.000,51.962 65.000,46.188 60.000,43.301 55.000,46.188 50.000,43.301 50.000,37.528 45.000,34.641 40.000,37.528 35.000,34.641 30.000,37.528 30.000,43.301 35.000,46.188 40.000,43.301 45.000,46.188 45.000,51.962">
<desc>y5</desc>
</polygon>
<polygon fill="blueviolet" stroke="white" stroke-width="1"
         points="50.000,54.848 50.000,60.622 55.000,63.509 55.000,63.509 60.000,60.622 65.000,63.509 70.000,60.622 75.000,63.509 80.000,60.622 80.000,54.848 75.000,51.962 75.000,46.188 70.000,43.301 70.000,37.528 65.000,34.641 60.000,37.528 60.000,43.301 65.000,46.188 65.000,51.962 60.000,54.848 55.000,51.962">
<desc>V5</desc>
</polygon>
<polygon fill="red" stroke="white" stroke-width="1"
         points="80.000,54.848 80.000,60.622 85.000,63.509 85.000,63.509 90.000,60.622 95.000,63.509 100.000,60.622 100.000,54.848 95.000,51.962 95.000,46.188 100.000,43.301 100.000,37.528 95.000,34.641 90.000,37.528 85.000,34.641 80.000,37.528 80.000,43.301 85.000,46.188 85.000,51.962">
<desc>X5</desc>
</polygon>
<polygon fill="lime" stroke="white" stroke-width="1"
         points="100.000,54.848 100.000,60.622 105.000,63.509 105.000,63.509 110.000,60.622 115.000,63.509 120.000,60.622 120.000,54.848 125.000,51.962 125.000,46.188 120.000,43.301 115.000,46.188 115.000,51.962 110.000,54.848 105.000,51.962 105.000,46.188 100.000,43.301 95.000,46.188 95.000,51.962">
<desc>U4</desc>
</polygon>
<polygon fill="peru" stroke="white" stroke-width="1"
         points="120.000,54.848 120.000,60.622 125.000,63.509 125.000,63.509 130.000,60.622 135.000,63.509 140.000,60.622 140.000,54.848 135.000,51.962 135.000,46.188 140.000,43.301 140.000,37.528 145.000,34.641 145.000,28.868 140.000,25.981 135.000,28.868 135.000,34.641 130.000,37.528 130.000,43.301 125.000,46.188 125.000,51.962">
<desc>P5</desc>
</polygon>
<polygon fill="plum" stroke="white" stroke-width="1"
         points="140.000,54.848 140.000,60.622 145.000,63.509 145.000,63.509 150.000,60.622 155.000,63.509 160.000,60.622 160.000,54.848 165.000,51.962 165.000,46.188 160.000,43.301 155.000,46.188 155.000,51.962 150.000,54.848 145.000,51.962">
<desc>V3</desc>
</polygon>
<polygon fill="blue" stroke="white" stroke-width="1"
         points="160.000,54.848 160.000,60.622 165.000,63.509 165.000,63.509 170.000,60.622 175.000,63.509 180.000,60.622 185.000,63.509 190.000,60.622 195.000,63.509 200.000,60.622 205.000,63.509 210.000,60.622 210.000,54.848 205.000,51.962 200.000,54.848 195.000,51.962 190.000,54.848 185.000,51.962 180.000,54.848 175.000,51.962 170.000,54.848 165.000,51.962">
<desc>I5</desc>
</polygon>
<polygon fill="magenta" stroke="white" stroke-width="1"
         points="210.000,54.848 210.000,60.622 215.000,63.509 215.000,63.509 220.000,60.622 225.000,63.509 230.000,60.622 235.000,63.509 240.000,60.622 245.000,63.509 250.000,60.622 250.000,54.848 245.000,51.962 240.000,54.848 235.000,51.962 235.000,46.188 230.000,43.301 225.000,46.188 225.000,51.962 220.000,54.848 215.000,51.962">
<desc>E5</desc>
</polygon>
<polygon fill="maroon" stroke="white" stroke-width="1"
         points="250.000,54.848 250.000,60.622 255.000,63.509 255.000,63.509 260.000,60.622 260.000,54.848 265.000,51.962 265.000,46.188 260.000,43.301 260.000,37.528 255.000,34.641 250.000,37.528 250.000,43.301 245.000,46.188 240.000,43.301 235.000,46.188 235.000,51.962 240.000,54.848 245.000,51.962">
<desc>A5</desc>
</polygon>
<polygon fill="turquoise" stroke="white" stroke-width="1"
         points="75.000,46.188 75.000,51.962 80.000,54.848 80.000,54.848 85.000,51.962 85.000,46.188 80.000,43.301 80.000,37.528 75.000,34.641 75.000,28.868 80.000,25.981 80.000,20.207 75.000,17.321 70.000,20.207 70.000,25.981 65.000,28.868 60.000,25.981 55.000,28.868 55.000,34.641 60.000,37.528 65.000,34.641 70.000,37.528 70.000,43.301">
<desc>Y5</desc>
</polygon>
<polygon fill="olive" stroke="white" stroke-width="1"
         points="105.000,46.188 105.000,51.962 110.000,54.848 110.000,54.848 115.000,51.962 115.000,46.188 120.000,43.301 125.000,46.188 130.000,43.301 130.000,37.528 135.000,34.641 135.000,28.868 130.000,25.981 125.000,28.868 125.000,34.641 120.000,37.528 115.000,34.641 110.000,37.528 105.000,34.641 100.000,37.528 100.000,43.301">
<desc>q5</desc>
</polygon>
<polygon fill="gray" stroke="white" stroke-width="1"
         points="135.000,46.188 135.000,51.962 140.000,54.848 140.000,54.848 145.000,51.962 150.000,54.848 155.000,51.962 155.000,46.188 160.000,43.301 160.000,37.528 165.000,34.641 170.000,37.528 175.000,34.641 175.000,28.868 170.000,25.981 165.000,28.868 160.000,25.981 155.000,28.868 155.000,34.641 150.000,37.528 150.000,43.301 145.000,46.188 140.000,43.301">
<desc>S5</desc>
</polygon>
<polygon fill="yellow" stroke="white" stroke-width="1"
         points="165.000,46.188 165.000,51.962 170.000,54.848 170.000,54.848 175.000,51.962 180.000,54.848 185.000,51.962 185.000,46.188 190.000,43.301 190.000,37.528 195.000,34.641 195.000,28.868 190.000,25.981 185.000,28.868 185.000,34.641 180.000,37.528 180.000,43.301 175.000,46.188 170.000,43.301 170.000,37.528 165.000,34.641 160.000,37.528 160.000,43.301">
<desc>r5</desc>
</polygon>
<polygon fill="blue" stroke="white" stroke-width="1"
         points="185.000,46.188 185.000,51.962 190.000,54.848 190.000,54.848 195.000,51.962 200.000,54.848 205.000,51.962 210.000,54.848 215.000,51.962 220.000,54.848 225.000,51.962 225.000,46.188 220.000,43.301 215.000,46.188 210.000,43.301 205.000,46.188 200.000,43.301 195.000,46.188 190.000,43.301">
<desc>I4</desc>
</polygon>
<polygon fill="green" stroke="white" stroke-width="1"
         points="50.000,37.528 50.000,43.301 55.000,46.188 55.000,46.188 60.000,43.301 60.000,37.528 55.000,34.641 55.000,28.868 60.000,25.981 60.000,20.207 55.000,17.321 50.000,20.207 50.000,25.981 45.000,28.868 40.000,25.981 35.000,28.868 35.000,34.641 40.000,37.528 45.000,34.641">
<desc>Y4</desc>
</polygon>
<polygon fill="plum" stroke="white" stroke-width="1"
         points="140.000,37.528 140.000,43.301 145.000,46.188 145.000,46.188 150.000,43.301 150.000,37.528 155.000,34.641 155.000,28.868 160.000,25.981 165.000,28.868 170.000,25.981 170.000,20.207 175.000,17.321 175.000,11.547 170.000,8.660 165.000,11.547 165.000,17.321 160.000,20.207 155.000,17.321 150.000,20.207 150.000,25.981 145.000,28.868 145.000,34.641">
<desc>N5</desc>
</polygon>
<polygon fill="darkorange" stroke="white" stroke-width="1"
         points="170.000,37.528 170.000,43.301 175.000,46.188 175.000,46.188 180.000,43.301 180.000,37.528 185.000,34.641 185.000,28.868 190.000,25.981 195.000,28.868 200.000,25.981 205.000,28.868 210.000,25.981 210.000,20.207 205.000,17.321 200.000,20.207 195.000,17.321 190.000,20.207 185.000,17.321 180.000,20.207 180.000,25.981 175.000,28.868 175.000,34.641">
<desc>L5</desc>
</polygon>
<polygon fill="red" stroke="white" stroke-width="1"
         points="190.000,37.528 190.000,43.301 195.000,46.188 195.000,46.188 200.000,43.301 205.000,46.188 210.000,43.301 210.000,37.528 215.000,34.641 215.000,28.868 210.000,25.981 205.000,28.868 200.000,25.981 195.000,28.868 195.000,34.641">
<desc>O4</desc>
</polygon>
<polygon fill="indigo" stroke="white" stroke-width="1"
         points="210.000,37.528 210.000,43.301 215.000,46.188 215.000,46.188 220.000,43.301 220.000,37.528 225.000,34.641 230.000,37.528 230.000,43.301 235.000,46.188 240.000,43.301 245.000,46.188 250.000,43.301 250.000,37.528 245.000,34.641 240.000,37.528 235.000,34.641 235.000,28.868 230.000,25.981 225.000,28.868 220.000,25.981 215.000,28.868 215.000,34.641">
<desc>G5</desc>
</polygon>
<polygon fill="gray" stroke="white" stroke-width="1"
         points="220.000,37.528 220.000,43.301 225.000,46.188 225.000,46.188 230.000,43.301 230.000,37.528 225.000,34.641">
<desc>H1</desc>
</polygon>
<polygon fill="lime" stroke="white" stroke-width="1"
         points="260.000,37.528 260.000,43.301 265.000,46.188 265.000,46.188 270.000,43.301 270.000,37.528 265.000,34.641 265.000,28.868 270.000,25.981 270.000,20.207 275.000,17.321 280.000,20.207 285.000,17.321 285.000,11.547 280.000,8.660 275.000,11.547 270.000,8.660 265.000,11.547 265.000,17.321 260.000,20.207 260.000,25.981 255.000,28.868 255.000,34.641">
<desc>C5</desc>
</polygon>
<polygon fill="navy" stroke="white" stroke-width="1"
         points="75.000,28.868 75.000,34.641 80.000,37.528 80.000,37.528 85.000,34.641 85.000,28.868 90.000,25.981 90.000,20.207 85.000,17.321 85.000,11.547 80.000,8.660 75.000,11.547 70.000,8.660 65.000,11.547 65.000,17.321 60.000,20.207 60.000,25.981 65.000,28.868 70.000,25.981 70.000,20.207 75.000,17.321 80.000,20.207 80.000,25.981">
<desc>U5</desc>
</polygon>
<polygon fill="teal" stroke="white" stroke-width="1"
         points="85.000,28.868 85.000,34.641 90.000,37.528 90.000,37.528 95.000,34.641 95.000,28.868 100.000,25.981 100.000,20.207 105.000,17.321 110.000,20.207 115.000,17.321 115.000,11.547 110.000,8.660 105.000,11.547 100.000,8.660 95.000,11.547 90.000,8.660 85.000,11.547 85.000,17.321 90.000,20.207 90.000,25.981">
<desc>T5</desc>
</polygon>
<polygon fill="gold" stroke="white" stroke-width="1"
         points="95.000,28.868 95.000,34.641 100.000,37.528 100.000,37.528 105.000,34.641 105.000,28.868 110.000,25.981 115.000,28.868 120.000,25.981 120.000,20.207 125.000,17.321 130.000,20.207 135.000,17.321 135.000,11.547 130.000,8.660 125.000,11.547 120.000,8.660 115.000,11.547 115.000,17.321 110.000,20.207 105.000,17.321 100.000,20.207 100.000,25.981">
<desc>W5</desc>
</polygon>
<polygon fill="navy" stroke="white" stroke-width="1"
         points="105.000,28.868 105.000,34.641 110.000,37.528 110.000,37.528 115.000,34.641 120.000,37.528 125.000,34.641 125.000,28.868 130.000,25.981 135.000,28.868 140.000,25.981 140.000,20.207 135.000,17.321 130.000,20.207 125.000,17.321 120.000,20.207 120.000,25.981 115.000,28.868 110.000,25.981">
<desc>S4</desc>
</polygon>
<polygon fill="blueviolet" stroke="white" stroke-width="1"
         points="235.000,28.868 235.000,34.641 240.000,37.528 240.000,37.528 245.000,34.641 245.000,28.868 240.000,25.981 240.000,20.207 235.000,17.321 230.000,20.207 225.000,17.321 220.000,20.207 215.000,17.321 210.000,20.207 210.000,25.981 215.000,28.868 220.000,25.981 225.000,28.868 230.000,25.981">
<desc>J4</desc>
</polygon>
<polygon fill="green" stroke="white" stroke-width="1"
         points="245.000,28.868 245.000,34.641 250.000,37.528 250.000,37.528 255.000,34.641 255.000,28.868 260.000,25.981 260.000,20.207 265.000,17.321 265.000,11.547 260.000,8.660 255.000,11.547 250.000,8.660 245.000,11.547 245.000,17.321 240.000,20.207 240.000,25.981">
<desc>D5</desc>
</polygon>
<polygon fill="steelblue" stroke="white" stroke-width="1"
         points="265.000,28.868 265.000,34.641 270.000,37.528 270.000,37.528 275.000,34.641 275.000,28.868 280.000,25.981 280.000,20.207 275.000,17.321 270.000,20.207 270.000,25.981">
<desc>I2</desc>
</polygon>
<polygon fill="steelblue" stroke="white" stroke-width="1"
         points="30.000,20.207 30.000,25.981 35.000,28.868 35.000,28.868 40.000,25.981 45.000,28.868 50.000,25.981 50.000,20.207 55.000,17.321 60.000,20.207 65.000,17.321 65.000,11.547 60.000,8.660 55.000,11.547 50.000,8.660 45.000,11.547 40.000,8.660 35.000,11.547 35.000,17.321">
<desc>p5</desc>
</polygon>
<polygon fill="gold" stroke="white" stroke-width="1"
         points="140.000,20.207 140.000,25.981 145.000,28.868 145.000,28.868 150.000,25.981 150.000,20.207 155.000,17.321 160.000,20.207 165.000,17.321 165.000,11.547 160.000,8.660 155.000,11.547 150.000,8.660 145.000,11.547 140.000,8.660 135.000,11.547 135.000,17.321">
<desc>P4</desc>
</polygon>
<polygon fill="darkseagreen" stroke="white" stroke-width="1"
         points="170.000,20.207 170.000,25.981 175.000,28.868 175.000,28.868 180.000,25.981 180.000,20.207 185.000,17.321 190.000,20.207 195.000,17.321 200.000,20.207 205.000,17.321 210.000,20.207 215.000,17.321 215.000,11.547 210.000,8.660 205.000,11.547 200.000,8.660 195.000,11.547 190.000,8.660 185.000,11.547 180.000,8.660 175.000,11.547 175.000,17.321">
<desc>J5</desc>
</polygon>
<polygon fill="teal" stroke="white" stroke-width="1"
         points="215.000,11.547 215.000,17.321 220.000,20.207 220.000,20.207 225.000,17.321 230.000,20.207 235.000,17.321 240.000,20.207 245.000,17.321 245.000,11.547 240.000,8.660 235.000,11.547 230.000,8.660 225.000,11.547 220.000,8.660">
<desc>I3</desc>
</polygon>
</g>
</svg>
