<?xml version="1.0" standalone="no"?>
<!-- Created by Polyform Puzzler (http://puzzler.sourceforge.net/) -->
<svg width="260.000" height="155.885"
     viewBox="0 0 260.000 155.885"
     xmlns="http://www.w3.org/2000/svg"
     xmlns:xlink="http://www.w3.org/1999/xlink">
<g>
<polygon fill="darkseagreen" stroke="white" stroke-width="1"
         points="20.000,141.451 20.000,147.224 25.000,150.111 25.000,150.111 30.000,147.224 30.000,141.451 35.000,138.564 35.000,132.791 40.000,129.904 40.000,124.130 45.000,121.244 50.000,124.130 55.000,121.244 55.000,115.470 50.000,112.583 45.000,115.470 40.000,112.583 35.000,115.470 35.000,121.244 30.000,124.130 30.000,129.904 25.000,132.791 25.000,138.564">
<desc>J5</desc>
</polygon>
<polygon fill="darkorange" stroke="white" stroke-width="1"
         points="30.000,141.451 30.000,147.224 35.000,150.111 35.000,150.111 40.000,147.224 40.000,141.451 45.000,138.564 45.000,132.791 50.000,129.904 55.000,132.791 60.000,129.904 65.000,132.791 70.000,129.904 70.000,124.130 65.000,121.244 60.000,124.130 55.000,121.244 50.000,124.130 45.000,121.244 40.000,124.130 40.000,129.904 35.000,132.791 35.000,138.564">
<desc>L5</desc>
</polygon>
<polygon fill="red" stroke="white" stroke-width="1"
         points="40.000,141.451 40.000,147.224 45.000,150.111 45.000,150.111 50.000,147.224 55.000,150.111 60.000,147.224 60.000,141.451 65.000,138.564 65.000,132.791 60.000,129.904 55.000,132.791 50.000,129.904 45.000,132.791 45.000,138.564">
<desc>O4</desc>
</polygon>
<polygon fill="plum" stroke="white" stroke-width="1"
         points="60.000,141.451 60.000,147.224 65.000,150.111 65.000,150.111 70.000,147.224 70.000,141.451 75.000,138.564 75.000,132.791 80.000,129.904 85.000,132.791 90.000,129.904 90.000,124.130 95.000,121.244 95.000,115.470 90.000,112.583 85.000,115.470 85.000,121.244 80.000,124.130 75.000,121.244 70.000,124.130 70.000,129.904 65.000,132.791 65.000,138.564">
<desc>N5</desc>
</polygon>
<polygon fill="navy" stroke="white" stroke-width="1"
         points="70.000,141.451 70.000,147.224 75.000,150.111 75.000,150.111 80.000,147.224 80.000,141.451 85.000,138.564 90.000,141.451 95.000,138.564 95.000,132.791 100.000,129.904 100.000,124.130 95.000,121.244 90.000,124.130 90.000,129.904 85.000,132.791 80.000,129.904 75.000,132.791 75.000,138.564">
<desc>S4</desc>
</polygon>
<polygon fill="blueviolet" stroke="white" stroke-width="1"
         points="80.000,141.451 80.000,147.224 85.000,150.111 85.000,150.111 90.000,147.224 95.000,150.111 100.000,147.224 105.000,150.111 110.000,147.224 110.000,141.451 115.000,138.564 115.000,132.791 110.000,129.904 105.000,132.791 105.000,138.564 100.000,141.451 95.000,138.564 90.000,141.451 85.000,138.564">
<desc>J4</desc>
</polygon>
<polygon fill="lightcoral" stroke="white" stroke-width="1"
         points="110.000,141.451 110.000,147.224 115.000,150.111 115.000,150.111 120.000,147.224 125.000,150.111 130.000,147.224 130.000,141.451 125.000,138.564 125.000,132.791 130.000,129.904 135.000,132.791 140.000,129.904 140.000,124.130 135.000,121.244 130.000,124.130 125.000,121.244 120.000,124.130 120.000,129.904 115.000,132.791 115.000,138.564">
<desc>F5</desc>
</polygon>
<polygon fill="green" stroke="white" stroke-width="1"
         points="130.000,141.451 130.000,147.224 135.000,150.111 135.000,150.111 140.000,147.224 145.000,150.111 150.000,147.224 150.000,141.451 155.000,138.564 155.000,132.791 150.000,129.904 150.000,124.130 145.000,121.244 140.000,124.130 140.000,129.904 135.000,132.791 135.000,138.564">
<desc>D5</desc>
</polygon>
<polygon fill="olive" stroke="white" stroke-width="1"
         points="150.000,141.451 150.000,147.224 155.000,150.111 155.000,150.111 160.000,147.224 165.000,150.111 170.000,147.224 170.000,141.451 165.000,138.564 165.000,132.791 160.000,129.904 155.000,132.791 155.000,138.564">
<desc>A3</desc>
</polygon>
<polygon fill="blue" stroke="white" stroke-width="1"
         points="15.000,132.791 15.000,138.564 20.000,141.451 20.000,141.451 25.000,138.564 25.000,132.791 30.000,129.904 30.000,124.130 35.000,121.244 35.000,115.470 40.000,112.583 40.000,106.810 45.000,103.923 45.000,98.150 40.000,95.263 35.000,98.150 35.000,103.923 30.000,106.810 30.000,112.583 25.000,115.470 25.000,121.244 20.000,124.130 20.000,129.904">
<desc>I5</desc>
</polygon>
<polygon fill="blue" stroke="white" stroke-width="1"
         points="95.000,132.791 95.000,138.564 100.000,141.451 100.000,141.451 105.000,138.564 105.000,132.791 110.000,129.904 110.000,124.130 115.000,121.244 115.000,115.470 120.000,112.583 120.000,106.810 115.000,103.923 110.000,106.810 110.000,112.583 105.000,115.470 105.000,121.244 100.000,124.130 100.000,129.904">
<desc>I4</desc>
</polygon>
<polygon fill="gray" stroke="white" stroke-width="1"
         points="125.000,132.791 125.000,138.564 130.000,141.451 130.000,141.451 135.000,138.564 135.000,132.791 130.000,129.904">
<desc>H1</desc>
</polygon>
<polygon fill="steelblue" stroke="white" stroke-width="1"
         points="165.000,132.791 165.000,138.564 170.000,141.451 170.000,141.451 175.000,138.564 175.000,132.791 170.000,129.904 170.000,124.130 165.000,121.244 165.000,115.470 160.000,112.583 155.000,115.470 150.000,112.583 145.000,115.470 145.000,121.244 150.000,124.130 150.000,129.904 155.000,132.791 160.000,129.904">
<desc>B5</desc>
</polygon>
<polygon fill="magenta" stroke="white" stroke-width="1"
         points="110.000,124.130 110.000,129.904 115.000,132.791 115.000,132.791 120.000,129.904 120.000,124.130 125.000,121.244 130.000,124.130 135.000,121.244 135.000,115.470 130.000,112.583 130.000,106.810 135.000,103.923 135.000,98.150 130.000,95.263 125.000,98.150 125.000,103.923 120.000,106.810 120.000,112.583 115.000,115.470 115.000,121.244">
<desc>E5</desc>
</polygon>
<polygon fill="yellow" stroke="white" stroke-width="1"
         points="55.000,115.470 55.000,121.244 60.000,124.130 60.000,124.130 65.000,121.244 70.000,124.130 75.000,121.244 80.000,124.130 85.000,121.244 85.000,115.470 90.000,112.583 90.000,106.810 85.000,103.923 85.000,98.150 80.000,95.263 75.000,98.150 75.000,103.923 80.000,106.810 80.000,112.583 75.000,115.470 70.000,112.583 65.000,115.470 60.000,112.583">
<desc>R5</desc>
</polygon>
<polygon fill="teal" stroke="white" stroke-width="1"
         points="95.000,115.470 95.000,121.244 100.000,124.130 100.000,124.130 105.000,121.244 105.000,115.470 110.000,112.583 110.000,106.810 115.000,103.923 115.000,98.150 110.000,95.263 105.000,98.150 105.000,103.923 100.000,106.810 100.000,112.583">
<desc>I3</desc>
</polygon>
<polygon fill="maroon" stroke="white" stroke-width="1"
         points="135.000,115.470 135.000,121.244 140.000,124.130 140.000,124.130 145.000,121.244 145.000,115.470 150.000,112.583 155.000,115.470 160.000,112.583 160.000,106.810 155.000,103.923 150.000,106.810 145.000,103.923 145.000,98.150 140.000,95.263 135.000,98.150 135.000,103.923 130.000,106.810 130.000,112.583">
<desc>A5</desc>
</polygon>
<polygon fill="gold" stroke="white" stroke-width="1"
         points="40.000,106.810 40.000,112.583 45.000,115.470 45.000,115.470 50.000,112.583 55.000,115.470 60.000,112.583 65.000,115.470 70.000,112.583 70.000,106.810 65.000,103.923 65.000,98.150 60.000,95.263 55.000,98.150 55.000,103.923 50.000,106.810 45.000,103.923">
<desc>P4</desc>
</polygon>
<polygon fill="gray" stroke="white" stroke-width="1"
         points="70.000,106.810 70.000,112.583 75.000,115.470 75.000,115.470 80.000,112.583 80.000,106.810 75.000,103.923 75.000,98.150 80.000,95.263 80.000,89.489 85.000,86.603 85.000,80.829 80.000,77.942 80.000,72.169 75.000,69.282 70.000,72.169 70.000,77.942 75.000,80.829 75.000,86.603 70.000,89.489 70.000,95.263 65.000,98.150 65.000,103.923">
<desc>S5</desc>
</polygon>
<polygon fill="plum" stroke="white" stroke-width="1"
         points="90.000,106.810 90.000,112.583 95.000,115.470 95.000,115.470 100.000,112.583 100.000,106.810 95.000,103.923 95.000,98.150 100.000,95.263 100.000,89.489 95.000,86.603 90.000,89.489 90.000,95.263 85.000,98.150 85.000,103.923">
<desc>V3</desc>
</polygon>
<polygon fill="olive" stroke="white" stroke-width="1"
         points="45.000,98.150 45.000,103.923 50.000,106.810 50.000,106.810 55.000,103.923 55.000,98.150 60.000,95.263 65.000,98.150 70.000,95.263 70.000,89.489 75.000,86.603 75.000,80.829 70.000,77.942 65.000,80.829 65.000,86.603 60.000,89.489 55.000,86.603 50.000,89.489 45.000,86.603 40.000,89.489 40.000,95.263">
<desc>Q5</desc>
</polygon>
<polygon fill="tan" stroke="white" stroke-width="1"
         points="95.000,98.150 95.000,103.923 100.000,106.810 100.000,106.810 105.000,103.923 105.000,98.150 110.000,95.263 115.000,98.150 120.000,95.263 120.000,89.489 125.000,86.603 125.000,80.829 120.000,77.942 115.000,80.829 115.000,86.603 110.000,89.489 105.000,86.603 105.000,80.829 100.000,77.942 95.000,80.829 95.000,86.603 100.000,89.489 100.000,95.263">
<desc>H5</desc>
</polygon>
<polygon fill="lime" stroke="white" stroke-width="1"
         points="115.000,98.150 115.000,103.923 120.000,106.810 120.000,106.810 125.000,103.923 125.000,98.150 130.000,95.263 135.000,98.150 140.000,95.263 145.000,98.150 145.000,103.923 150.000,106.810 155.000,103.923 155.000,98.150 150.000,95.263 150.000,89.489 145.000,86.603 140.000,89.489 135.000,86.603 130.000,89.489 125.000,86.603 120.000,89.489 120.000,95.263">
<desc>C5</desc>
</polygon>
<polygon fill="turquoise" stroke="white" stroke-width="1"
         points="80.000,89.489 80.000,95.263 85.000,98.150 85.000,98.150 90.000,95.263 90.000,89.489 95.000,86.603 95.000,80.829 100.000,77.942 105.000,80.829 110.000,77.942 110.000,72.169 105.000,69.282 100.000,72.169 95.000,69.282 95.000,63.509 90.000,60.622 85.000,63.509 85.000,69.282 90.000,72.169 90.000,77.942 85.000,80.829 85.000,86.603">
<desc>Y5</desc>
</polygon>
<polygon fill="peru" stroke="white" stroke-width="1"
         points="45.000,80.829 45.000,86.603 50.000,89.489 50.000,89.489 55.000,86.603 60.000,89.489 65.000,86.603 65.000,80.829 60.000,77.942 60.000,72.169 65.000,69.282 65.000,63.509 70.000,60.622 70.000,54.848 65.000,51.962 60.000,54.848 60.000,60.622 55.000,63.509 55.000,69.282 50.000,72.169 50.000,77.942">
<desc>P5</desc>
</polygon>
<polygon fill="indigo" stroke="white" stroke-width="1"
         points="105.000,80.829 105.000,86.603 110.000,89.489 110.000,89.489 115.000,86.603 115.000,80.829 120.000,77.942 125.000,80.829 125.000,86.603 130.000,89.489 135.000,86.603 140.000,89.489 145.000,86.603 145.000,80.829 140.000,77.942 135.000,80.829 130.000,77.942 130.000,72.169 125.000,69.282 120.000,72.169 115.000,69.282 110.000,72.169 110.000,77.942">
<desc>G5</desc>
</polygon>
<polygon fill="blueviolet" stroke="white" stroke-width="1"
         points="60.000,72.169 60.000,77.942 65.000,80.829 65.000,80.829 70.000,77.942 70.000,72.169 75.000,69.282 80.000,72.169 80.000,77.942 85.000,80.829 90.000,77.942 90.000,72.169 85.000,69.282 85.000,63.509 80.000,60.622 80.000,54.848 75.000,51.962 70.000,54.848 70.000,60.622 65.000,63.509 65.000,69.282">
<desc>V5</desc>
</polygon>
<polygon fill="steelblue" stroke="white" stroke-width="1"
         points="130.000,72.169 130.000,77.942 135.000,80.829 135.000,80.829 140.000,77.942 140.000,72.169 135.000,69.282 135.000,63.509 130.000,60.622 125.000,63.509 125.000,69.282">
<desc>I2</desc>
</polygon>
<polygon fill="gold" stroke="white" stroke-width="1"
         points="95.000,63.509 95.000,69.282 100.000,72.169 100.000,72.169 105.000,69.282 105.000,63.509 100.000,60.622 100.000,54.848 95.000,51.962 90.000,54.848 85.000,51.962 85.000,46.188 80.000,43.301 75.000,46.188 70.000,43.301 65.000,46.188 65.000,51.962 70.000,54.848 75.000,51.962 80.000,54.848 80.000,60.622 85.000,63.509 90.000,60.622">
<desc>W5</desc>
</polygon>
<polygon fill="navy" stroke="white" stroke-width="1"
         points="105.000,63.509 105.000,69.282 110.000,72.169 110.000,72.169 115.000,69.282 120.000,72.169 125.000,69.282 125.000,63.509 130.000,60.622 130.000,54.848 125.000,51.962 125.000,46.188 120.000,43.301 115.000,46.188 115.000,51.962 120.000,54.848 120.000,60.622 115.000,63.509 110.000,60.622 110.000,54.848 105.000,51.962 100.000,54.848 100.000,60.622">
<desc>U5</desc>
</polygon>
<polygon fill="green" stroke="white" stroke-width="1"
         points="110.000,54.848 110.000,60.622 115.000,63.509 115.000,63.509 120.000,60.622 120.000,54.848 115.000,51.962 115.000,46.188 120.000,43.301 120.000,37.528 115.000,34.641 110.000,37.528 110.000,43.301 105.000,46.188 100.000,43.301 95.000,46.188 95.000,51.962 100.000,54.848 105.000,51.962">
<desc>Y4</desc>
</polygon>
<polygon fill="teal" stroke="white" stroke-width="1"
         points="85.000,46.188 85.000,51.962 90.000,54.848 90.000,54.848 95.000,51.962 95.000,46.188 90.000,43.301 90.000,37.528 85.000,34.641 85.000,28.868 90.000,25.981 90.000,20.207 85.000,17.321 80.000,20.207 80.000,25.981 75.000,28.868 75.000,34.641 70.000,37.528 70.000,43.301 75.000,46.188 80.000,43.301">
<desc>T5</desc>
</polygon>
<polygon fill="lime" stroke="white" stroke-width="1"
         points="90.000,37.528 90.000,43.301 95.000,46.188 95.000,46.188 100.000,43.301 105.000,46.188 110.000,43.301 110.000,37.528 115.000,34.641 115.000,28.868 110.000,25.981 110.000,20.207 105.000,17.321 100.000,20.207 100.000,25.981 105.000,28.868 105.000,34.641 100.000,37.528 95.000,34.641">
<desc>U4</desc>
</polygon>
<polygon fill="red" stroke="white" stroke-width="1"
         points="85.000,28.868 85.000,34.641 90.000,37.528 90.000,37.528 95.000,34.641 100.000,37.528 105.000,34.641 105.000,28.868 100.000,25.981 100.000,20.207 105.000,17.321 105.000,11.547 100.000,8.660 95.000,11.547 90.000,8.660 85.000,11.547 85.000,17.321 90.000,20.207 90.000,25.981">
<desc>X5</desc>
</polygon>
</g>
</svg>
