<?xml version="1.0" standalone="no"?>
<!-- Created by Polyform Puzzler (http://puzzler.sourceforge.net/) -->
<svg width="175.000" height="43.301"
     viewBox="0 0 175.000 43.301"
     xmlns="http://www.w3.org/2000/svg"
     xmlns:xlink="http://www.w3.org/1999/xlink">
<g>
<polygon fill="lime" stroke="white" stroke-width="1"
         points="20.000,28.868 20.000,34.641 25.000,37.528 25.000,37.528 30.000,34.641 30.000,28.868 25.000,25.981 25.000,20.207 30.000,17.321 35.000,20.207 40.000,17.321 40.000,11.547 35.000,8.660 30.000,11.547 25.000,8.660 20.000,11.547 20.000,17.321 15.000,20.207 15.000,25.981">
<desc>U4</desc>
</polygon>
<polygon fill="gray" stroke="white" stroke-width="1"
         points="30.000,28.868 30.000,34.641 35.000,37.528 35.000,37.528 40.000,34.641 40.000,28.868 35.000,25.981">
<desc>H1</desc>
</polygon>
<polygon fill="green" stroke="white" stroke-width="1"
         points="40.000,28.868 40.000,34.641 45.000,37.528 45.000,37.528 50.000,34.641 50.000,28.868 45.000,25.981 45.000,20.207 50.000,17.321 50.000,11.547 45.000,8.660 40.000,11.547 40.000,17.321 35.000,20.207 30.000,17.321 25.000,20.207 25.000,25.981 30.000,28.868 35.000,25.981">
<desc>Y4</desc>
</polygon>
<polygon fill="blue" stroke="white" stroke-width="1"
         points="50.000,28.868 50.000,34.641 55.000,37.528 55.000,37.528 60.000,34.641 65.000,37.528 70.000,34.641 75.000,37.528 80.000,34.641 85.000,37.528 90.000,34.641 90.000,28.868 85.000,25.981 80.000,28.868 75.000,25.981 70.000,28.868 65.000,25.981 60.000,28.868 55.000,25.981">
<desc>I4</desc>
</polygon>
<polygon fill="blueviolet" stroke="white" stroke-width="1"
         points="90.000,28.868 90.000,34.641 95.000,37.528 95.000,37.528 100.000,34.641 100.000,28.868 95.000,25.981 95.000,20.207 90.000,17.321 85.000,20.207 80.000,17.321 75.000,20.207 70.000,17.321 65.000,20.207 65.000,25.981 70.000,28.868 75.000,25.981 80.000,28.868 85.000,25.981">
<desc>J4</desc>
</polygon>
<polygon fill="gold" stroke="white" stroke-width="1"
         points="100.000,28.868 100.000,34.641 105.000,37.528 105.000,37.528 110.000,34.641 115.000,37.528 120.000,34.641 125.000,37.528 130.000,34.641 130.000,28.868 125.000,25.981 125.000,20.207 120.000,17.321 115.000,20.207 115.000,25.981 110.000,28.868 105.000,25.981">
<desc>P4</desc>
</polygon>
<polygon fill="red" stroke="white" stroke-width="1"
         points="130.000,28.868 130.000,34.641 135.000,37.528 135.000,37.528 140.000,34.641 145.000,37.528 150.000,34.641 150.000,28.868 155.000,25.981 155.000,20.207 150.000,17.321 145.000,20.207 140.000,17.321 135.000,20.207 135.000,25.981">
<desc>O4</desc>
</polygon>
<polygon fill="olive" stroke="white" stroke-width="1"
         points="45.000,20.207 45.000,25.981 50.000,28.868 50.000,28.868 55.000,25.981 60.000,28.868 65.000,25.981 65.000,20.207 60.000,17.321 60.000,11.547 55.000,8.660 50.000,11.547 50.000,17.321">
<desc>A3</desc>
</polygon>
<polygon fill="navy" stroke="white" stroke-width="1"
         points="95.000,20.207 95.000,25.981 100.000,28.868 100.000,28.868 105.000,25.981 110.000,28.868 115.000,25.981 115.000,20.207 120.000,17.321 125.000,20.207 130.000,17.321 130.000,11.547 125.000,8.660 120.000,11.547 115.000,8.660 110.000,11.547 110.000,17.321 105.000,20.207 100.000,17.321">
<desc>S4</desc>
</polygon>
<polygon fill="plum" stroke="white" stroke-width="1"
         points="125.000,20.207 125.000,25.981 130.000,28.868 130.000,28.868 135.000,25.981 135.000,20.207 140.000,17.321 145.000,20.207 150.000,17.321 150.000,11.547 145.000,8.660 140.000,11.547 135.000,8.660 130.000,11.547 130.000,17.321">
<desc>V3</desc>
</polygon>
<polygon fill="steelblue" stroke="white" stroke-width="1"
         points="60.000,11.547 60.000,17.321 65.000,20.207 65.000,20.207 70.000,17.321 75.000,20.207 80.000,17.321 80.000,11.547 75.000,8.660 70.000,11.547 65.000,8.660">
<desc>I2</desc>
</polygon>
<polygon fill="teal" stroke="white" stroke-width="1"
         points="80.000,11.547 80.000,17.321 85.000,20.207 85.000,20.207 90.000,17.321 95.000,20.207 100.000,17.321 105.000,20.207 110.000,17.321 110.000,11.547 105.000,8.660 100.000,11.547 95.000,8.660 90.000,11.547 85.000,8.660">
<desc>I3</desc>
</polygon>
</g>
</svg>
