<?xml version="1.0" standalone="no"?>
<!-- Created by Polyform Puzzler (http://puzzler.sourceforge.net/) -->
<svg width="275.000" height="164.545"
     viewBox="0 0 275.000 164.545"
     xmlns="http://www.w3.org/2000/svg"
     xmlns:xlink="http://www.w3.org/1999/xlink">
<g>
<polygon fill="steelblue" stroke="white" stroke-width="1"
         points="10.000,150.111 10.000,155.885 15.000,158.771 15.000,158.771 20.000,155.885 20.000,150.111 25.000,147.224 30.000,150.111 35.000,147.224 35.000,141.451 40.000,138.564 40.000,132.791 35.000,129.904 30.000,132.791 25.000,129.904 20.000,132.791 20.000,138.564 15.000,141.451 15.000,147.224">
<desc>B5</desc>
</polygon>
<polygon fill="lime" stroke="white" stroke-width="1"
         points="20.000,150.111 20.000,155.885 25.000,158.771 25.000,158.771 30.000,155.885 35.000,158.771 40.000,155.885 40.000,150.111 45.000,147.224 45.000,141.451 50.000,138.564 50.000,132.791 45.000,129.904 45.000,124.130 40.000,121.244 35.000,124.130 35.000,129.904 40.000,132.791 40.000,138.564 35.000,141.451 35.000,147.224 30.000,150.111 25.000,147.224">
<desc>C5</desc>
</polygon>
<polygon fill="lightcoral" stroke="white" stroke-width="1"
         points="40.000,150.111 40.000,155.885 45.000,158.771 45.000,158.771 50.000,155.885 55.000,158.771 60.000,155.885 60.000,150.111 55.000,147.224 55.000,141.451 60.000,138.564 65.000,141.451 70.000,138.564 70.000,132.791 65.000,129.904 60.000,132.791 55.000,129.904 50.000,132.791 50.000,138.564 45.000,141.451 45.000,147.224">
<desc>F5</desc>
</polygon>
<polygon fill="maroon" stroke="white" stroke-width="1"
         points="60.000,150.111 60.000,155.885 65.000,158.771 65.000,158.771 70.000,155.885 75.000,158.771 80.000,155.885 80.000,150.111 75.000,147.224 75.000,141.451 80.000,138.564 80.000,132.791 75.000,129.904 70.000,132.791 70.000,138.564 65.000,141.451 60.000,138.564 55.000,141.451 55.000,147.224">
<desc>A5</desc>
</polygon>
<polygon fill="blueviolet" stroke="white" stroke-width="1"
         points="80.000,150.111 80.000,155.885 85.000,158.771 85.000,158.771 90.000,155.885 95.000,158.771 100.000,155.885 105.000,158.771 110.000,155.885 110.000,150.111 105.000,147.224 100.000,150.111 95.000,147.224 90.000,150.111 85.000,147.224 85.000,141.451 80.000,138.564 75.000,141.451 75.000,147.224">
<desc>J4</desc>
</polygon>
<polygon fill="darkseagreen" stroke="white" stroke-width="1"
         points="110.000,150.111 110.000,155.885 115.000,158.771 115.000,158.771 120.000,155.885 125.000,158.771 130.000,155.885 135.000,158.771 140.000,155.885 145.000,158.771 150.000,155.885 150.000,150.111 155.000,147.224 155.000,141.451 150.000,138.564 145.000,141.451 145.000,147.224 140.000,150.111 135.000,147.224 130.000,150.111 125.000,147.224 120.000,150.111 115.000,147.224">
<desc>J5</desc>
</polygon>
<polygon fill="green" stroke="white" stroke-width="1"
         points="150.000,150.111 150.000,155.885 155.000,158.771 155.000,158.771 160.000,155.885 165.000,158.771 170.000,155.885 175.000,158.771 180.000,155.885 180.000,150.111 175.000,147.224 175.000,141.451 170.000,138.564 165.000,141.451 160.000,138.564 155.000,141.451 155.000,147.224">
<desc>D5</desc>
</polygon>
<polygon fill="blue" stroke="white" stroke-width="1"
         points="85.000,141.451 85.000,147.224 90.000,150.111 90.000,150.111 95.000,147.224 100.000,150.111 105.000,147.224 110.000,150.111 115.000,147.224 120.000,150.111 125.000,147.224 130.000,150.111 135.000,147.224 135.000,141.451 130.000,138.564 125.000,141.451 120.000,138.564 115.000,141.451 110.000,138.564 105.000,141.451 100.000,138.564 95.000,141.451 90.000,138.564">
<desc>I5</desc>
</polygon>
<polygon fill="olive" stroke="white" stroke-width="1"
         points="135.000,141.451 135.000,147.224 140.000,150.111 140.000,150.111 145.000,147.224 145.000,141.451 150.000,138.564 155.000,141.451 160.000,138.564 165.000,141.451 170.000,138.564 170.000,132.791 165.000,129.904 165.000,124.130 160.000,121.244 155.000,124.130 155.000,129.904 150.000,132.791 145.000,129.904 140.000,132.791 140.000,138.564">
<desc>Q5</desc>
</polygon>
<polygon fill="tan" stroke="white" stroke-width="1"
         points="80.000,132.791 80.000,138.564 85.000,141.451 85.000,141.451 90.000,138.564 90.000,132.791 95.000,129.904 100.000,132.791 105.000,129.904 105.000,124.130 100.000,121.244 95.000,124.130 90.000,121.244 90.000,115.470 85.000,112.583 80.000,115.470 75.000,112.583 70.000,115.470 70.000,121.244 75.000,124.130 80.000,121.244 85.000,124.130 85.000,129.904">
<desc>H5</desc>
</polygon>
<polygon fill="darkorange" stroke="white" stroke-width="1"
         points="90.000,132.791 90.000,138.564 95.000,141.451 95.000,141.451 100.000,138.564 105.000,141.451 110.000,138.564 115.000,141.451 120.000,138.564 120.000,132.791 125.000,129.904 125.000,124.130 130.000,121.244 130.000,115.470 125.000,112.583 120.000,115.470 120.000,121.244 115.000,124.130 115.000,129.904 110.000,132.791 105.000,129.904 100.000,132.791 95.000,129.904">
<desc>L5</desc>
</polygon>
<polygon fill="gold" stroke="white" stroke-width="1"
         points="120.000,132.791 120.000,138.564 125.000,141.451 125.000,141.451 130.000,138.564 135.000,141.451 140.000,138.564 140.000,132.791 145.000,129.904 150.000,132.791 155.000,129.904 155.000,124.130 160.000,121.244 160.000,115.470 155.000,112.583 150.000,115.470 150.000,121.244 145.000,124.130 140.000,121.244 135.000,124.130 135.000,129.904 130.000,132.791 125.000,129.904">
<desc>W5</desc>
</polygon>
<polygon fill="magenta" stroke="white" stroke-width="1"
         points="25.000,124.130 25.000,129.904 30.000,132.791 30.000,132.791 35.000,129.904 35.000,124.130 40.000,121.244 45.000,124.130 50.000,121.244 50.000,115.470 45.000,112.583 45.000,106.810 50.000,103.923 50.000,98.150 45.000,95.263 40.000,98.150 40.000,103.923 35.000,106.810 35.000,112.583 30.000,115.470 30.000,121.244">
<desc>E5</desc>
</polygon>
<polygon fill="indigo" stroke="white" stroke-width="1"
         points="45.000,124.130 45.000,129.904 50.000,132.791 50.000,132.791 55.000,129.904 55.000,124.130 60.000,121.244 65.000,124.130 70.000,121.244 70.000,115.470 75.000,112.583 75.000,106.810 70.000,103.923 70.000,98.150 65.000,95.263 60.000,98.150 60.000,103.923 65.000,106.810 65.000,112.583 60.000,115.470 55.000,112.583 50.000,115.470 50.000,121.244">
<desc>G5</desc>
</polygon>
<polygon fill="teal" stroke="white" stroke-width="1"
         points="55.000,124.130 55.000,129.904 60.000,132.791 60.000,132.791 65.000,129.904 70.000,132.791 75.000,129.904 80.000,132.791 85.000,129.904 85.000,124.130 80.000,121.244 75.000,124.130 70.000,121.244 65.000,124.130 60.000,121.244">
<desc>I3</desc>
</polygon>
<polygon fill="plum" stroke="white" stroke-width="1"
         points="105.000,124.130 105.000,129.904 110.000,132.791 110.000,132.791 115.000,129.904 115.000,124.130 120.000,121.244 120.000,115.470 125.000,112.583 130.000,115.470 135.000,112.583 135.000,106.810 140.000,103.923 140.000,98.150 135.000,95.263 130.000,98.150 130.000,103.923 125.000,106.810 120.000,103.923 115.000,106.810 115.000,112.583 110.000,115.470 110.000,121.244">
<desc>N5</desc>
</polygon>
<polygon fill="navy" stroke="white" stroke-width="1"
         points="125.000,124.130 125.000,129.904 130.000,132.791 130.000,132.791 135.000,129.904 135.000,124.130 140.000,121.244 145.000,124.130 150.000,121.244 150.000,115.470 155.000,112.583 155.000,106.810 150.000,103.923 145.000,106.810 145.000,112.583 140.000,115.470 135.000,112.583 130.000,115.470 130.000,121.244">
<desc>S4</desc>
</polygon>
<polygon fill="yellow" stroke="white" stroke-width="1"
         points="90.000,115.470 90.000,121.244 95.000,124.130 95.000,124.130 100.000,121.244 105.000,124.130 110.000,121.244 110.000,115.470 115.000,112.583 115.000,106.810 110.000,103.923 110.000,98.150 105.000,95.263 105.000,89.489 100.000,86.603 95.000,89.489 95.000,95.263 100.000,98.150 100.000,103.923 105.000,106.810 105.000,112.583 100.000,115.470 95.000,112.583">
<desc>R5</desc>
</polygon>
<polygon fill="steelblue" stroke="white" stroke-width="1"
         points="45.000,106.810 45.000,112.583 50.000,115.470 50.000,115.470 55.000,112.583 55.000,106.810 60.000,103.923 60.000,98.150 55.000,95.263 50.000,98.150 50.000,103.923">
<desc>I2</desc>
</polygon>
<polygon fill="gray" stroke="white" stroke-width="1"
         points="55.000,106.810 55.000,112.583 60.000,115.470 60.000,115.470 65.000,112.583 65.000,106.810 60.000,103.923">
<desc>H1</desc>
</polygon>
<polygon fill="red" stroke="white" stroke-width="1"
         points="75.000,106.810 75.000,112.583 80.000,115.470 80.000,115.470 85.000,112.583 85.000,106.810 90.000,103.923 90.000,98.150 85.000,95.263 85.000,89.489 80.000,86.603 75.000,89.489 75.000,95.263 70.000,98.150 70.000,103.923">
<desc>O4</desc>
</polygon>
<polygon fill="lime" stroke="white" stroke-width="1"
         points="135.000,106.810 135.000,112.583 140.000,115.470 140.000,115.470 145.000,112.583 145.000,106.810 150.000,103.923 150.000,98.150 145.000,95.263 145.000,89.489 140.000,86.603 135.000,89.489 130.000,86.603 125.000,89.489 125.000,95.263 130.000,98.150 135.000,95.263 140.000,98.150 140.000,103.923">
<desc>U4</desc>
</polygon>
<polygon fill="gray" stroke="white" stroke-width="1"
         points="110.000,98.150 110.000,103.923 115.000,106.810 115.000,106.810 120.000,103.923 125.000,106.810 130.000,103.923 130.000,98.150 125.000,95.263 120.000,98.150 115.000,95.263 115.000,89.489 110.000,86.603 110.000,80.829 105.000,77.942 100.000,80.829 95.000,77.942 90.000,80.829 90.000,86.603 95.000,89.489 100.000,86.603 105.000,89.489 105.000,95.263">
<desc>S5</desc>
</polygon>
<polygon fill="blue" stroke="white" stroke-width="1"
         points="45.000,89.489 45.000,95.263 50.000,98.150 50.000,98.150 55.000,95.263 55.000,89.489 60.000,86.603 60.000,80.829 65.000,77.942 65.000,72.169 70.000,69.282 70.000,63.509 65.000,60.622 60.000,63.509 60.000,69.282 55.000,72.169 55.000,77.942 50.000,80.829 50.000,86.603">
<desc>I4</desc>
</polygon>
<polygon fill="peru" stroke="white" stroke-width="1"
         points="55.000,89.489 55.000,95.263 60.000,98.150 60.000,98.150 65.000,95.263 70.000,98.150 75.000,95.263 75.000,89.489 70.000,86.603 70.000,80.829 75.000,77.942 75.000,72.169 80.000,69.282 80.000,63.509 75.000,60.622 70.000,63.509 70.000,69.282 65.000,72.169 65.000,77.942 60.000,80.829 60.000,86.603">
<desc>P5</desc>
</polygon>
<polygon fill="green" stroke="white" stroke-width="1"
         points="85.000,89.489 85.000,95.263 90.000,98.150 90.000,98.150 95.000,95.263 95.000,89.489 90.000,86.603 90.000,80.829 95.000,77.942 95.000,72.169 90.000,69.282 85.000,72.169 85.000,77.942 80.000,80.829 75.000,77.942 70.000,80.829 70.000,86.603 75.000,89.489 80.000,86.603">
<desc>Y4</desc>
</polygon>
<polygon fill="red" stroke="white" stroke-width="1"
         points="115.000,89.489 115.000,95.263 120.000,98.150 120.000,98.150 125.000,95.263 125.000,89.489 130.000,86.603 135.000,89.489 140.000,86.603 140.000,80.829 135.000,77.942 135.000,72.169 130.000,69.282 125.000,72.169 125.000,77.942 120.000,80.829 115.000,77.942 110.000,80.829 110.000,86.603">
<desc>X5</desc>
</polygon>
<polygon fill="turquoise" stroke="white" stroke-width="1"
         points="75.000,72.169 75.000,77.942 80.000,80.829 80.000,80.829 85.000,77.942 85.000,72.169 90.000,69.282 95.000,72.169 100.000,69.282 105.000,72.169 110.000,69.282 110.000,63.509 105.000,60.622 100.000,63.509 95.000,60.622 90.000,63.509 85.000,60.622 85.000,54.848 80.000,51.962 75.000,54.848 75.000,60.622 80.000,63.509 80.000,69.282">
<desc>Y5</desc>
</polygon>
<polygon fill="gold" stroke="white" stroke-width="1"
         points="95.000,72.169 95.000,77.942 100.000,80.829 100.000,80.829 105.000,77.942 110.000,80.829 115.000,77.942 120.000,80.829 125.000,77.942 125.000,72.169 120.000,69.282 120.000,63.509 115.000,60.622 110.000,63.509 110.000,69.282 105.000,72.169 100.000,69.282">
<desc>P4</desc>
</polygon>
<polygon fill="teal" stroke="white" stroke-width="1"
         points="120.000,63.509 120.000,69.282 125.000,72.169 125.000,72.169 130.000,69.282 130.000,63.509 125.000,60.622 125.000,54.848 120.000,51.962 120.000,46.188 115.000,43.301 110.000,46.188 110.000,51.962 105.000,54.848 100.000,51.962 95.000,54.848 95.000,60.622 100.000,63.509 105.000,60.622 110.000,63.509 115.000,60.622">
<desc>T5</desc>
</polygon>
<polygon fill="blueviolet" stroke="white" stroke-width="1"
         points="65.000,54.848 65.000,60.622 70.000,63.509 70.000,63.509 75.000,60.622 75.000,54.848 80.000,51.962 85.000,54.848 85.000,60.622 90.000,63.509 95.000,60.622 95.000,54.848 90.000,51.962 90.000,46.188 85.000,43.301 85.000,37.528 80.000,34.641 75.000,37.528 75.000,43.301 70.000,46.188 70.000,51.962">
<desc>V5</desc>
</polygon>
<polygon fill="navy" stroke="white" stroke-width="1"
         points="90.000,46.188 90.000,51.962 95.000,54.848 95.000,54.848 100.000,51.962 105.000,54.848 110.000,51.962 110.000,46.188 115.000,43.301 115.000,37.528 110.000,34.641 110.000,28.868 105.000,25.981 100.000,28.868 95.000,25.981 90.000,28.868 90.000,34.641 95.000,37.528 100.000,34.641 105.000,37.528 105.000,43.301 100.000,46.188 95.000,43.301">
<desc>U5</desc>
</polygon>
<polygon fill="plum" stroke="white" stroke-width="1"
         points="85.000,37.528 85.000,43.301 90.000,46.188 90.000,46.188 95.000,43.301 100.000,46.188 105.000,43.301 105.000,37.528 100.000,34.641 95.000,37.528 90.000,34.641 90.000,28.868 85.000,25.981 80.000,28.868 80.000,34.641">
<desc>V3</desc>
</polygon>
<polygon fill="olive" stroke="white" stroke-width="1"
         points="85.000,20.207 85.000,25.981 90.000,28.868 90.000,28.868 95.000,25.981 100.000,28.868 105.000,25.981 105.000,20.207 100.000,17.321 100.000,11.547 95.000,8.660 90.000,11.547 90.000,17.321">
<desc>A3</desc>
</polygon>
</g>
</svg>
