<?xml version="1.0" standalone="no"?>
<!-- Created by Polyform Puzzler (http://puzzler.sourceforge.net/) -->
<svg width="150.000" height="86.603"
     viewBox="0 0 150.000 86.603"
     xmlns="http://www.w3.org/2000/svg"
     xmlns:xlink="http://www.w3.org/1999/xlink">
<g>
<polygon fill="steelblue" stroke="white" stroke-width="1"
         points="10.000,72.169 10.000,77.942 15.000,80.829 15.000,80.829 20.000,77.942 25.000,80.829 30.000,77.942 30.000,72.169 25.000,69.282 20.000,72.169 15.000,69.282">
<desc>I2</desc>
</polygon>
<polygon fill="green" stroke="white" stroke-width="1"
         points="30.000,72.169 30.000,77.942 35.000,80.829 35.000,80.829 40.000,77.942 40.000,72.169 35.000,69.282 35.000,63.509 40.000,60.622 40.000,54.848 35.000,51.962 30.000,54.848 30.000,60.622 25.000,63.509 20.000,60.622 15.000,63.509 15.000,69.282 20.000,72.169 25.000,69.282">
<desc>Y4</desc>
</polygon>
<polygon fill="red" stroke="white" stroke-width="1"
         points="40.000,72.169 40.000,77.942 45.000,80.829 45.000,80.829 50.000,77.942 50.000,72.169 55.000,69.282 55.000,63.509 50.000,60.622 50.000,54.848 45.000,51.962 40.000,54.848 40.000,60.622 35.000,63.509 35.000,69.282">
<desc>O4</desc>
</polygon>
<polygon fill="navy" stroke="white" stroke-width="1"
         points="50.000,72.169 50.000,77.942 55.000,80.829 55.000,80.829 60.000,77.942 60.000,72.169 65.000,69.282 70.000,72.169 75.000,69.282 75.000,63.509 80.000,60.622 80.000,54.848 75.000,51.962 70.000,54.848 70.000,60.622 65.000,63.509 60.000,60.622 55.000,63.509 55.000,69.282">
<desc>S4</desc>
</polygon>
<polygon fill="teal" stroke="white" stroke-width="1"
         points="60.000,72.169 60.000,77.942 65.000,80.829 65.000,80.829 70.000,77.942 75.000,80.829 80.000,77.942 85.000,80.829 90.000,77.942 90.000,72.169 85.000,69.282 80.000,72.169 75.000,69.282 70.000,72.169 65.000,69.282">
<desc>I3</desc>
</polygon>
<polygon fill="plum" stroke="white" stroke-width="1"
         points="90.000,72.169 90.000,77.942 95.000,80.829 95.000,80.829 100.000,77.942 100.000,72.169 95.000,69.282 95.000,63.509 90.000,60.622 85.000,63.509 80.000,60.622 75.000,63.509 75.000,69.282 80.000,72.169 85.000,69.282">
<desc>V3</desc>
</polygon>
<polygon fill="gray" stroke="white" stroke-width="1"
         points="20.000,54.848 20.000,60.622 25.000,63.509 25.000,63.509 30.000,60.622 30.000,54.848 25.000,51.962">
<desc>H1</desc>
</polygon>
<polygon fill="lime" stroke="white" stroke-width="1"
         points="60.000,54.848 60.000,60.622 65.000,63.509 65.000,63.509 70.000,60.622 70.000,54.848 75.000,51.962 80.000,54.848 80.000,60.622 85.000,63.509 90.000,60.622 90.000,54.848 85.000,51.962 85.000,46.188 80.000,43.301 75.000,46.188 70.000,43.301 65.000,46.188 65.000,51.962">
<desc>U4</desc>
</polygon>
<polygon fill="olive" stroke="white" stroke-width="1"
         points="25.000,46.188 25.000,51.962 30.000,54.848 30.000,54.848 35.000,51.962 40.000,54.848 45.000,51.962 45.000,46.188 40.000,43.301 40.000,37.528 35.000,34.641 30.000,37.528 30.000,43.301">
<desc>A3</desc>
</polygon>
<polygon fill="blueviolet" stroke="white" stroke-width="1"
         points="40.000,37.528 40.000,43.301 45.000,46.188 45.000,46.188 50.000,43.301 50.000,37.528 45.000,34.641 45.000,28.868 50.000,25.981 50.000,20.207 55.000,17.321 55.000,11.547 50.000,8.660 45.000,11.547 45.000,17.321 40.000,20.207 40.000,25.981 35.000,28.868 35.000,34.641">
<desc>J4</desc>
</polygon>
<polygon fill="gold" stroke="white" stroke-width="1"
         points="60.000,37.528 60.000,43.301 65.000,46.188 65.000,46.188 70.000,43.301 70.000,37.528 65.000,34.641 65.000,28.868 60.000,25.981 60.000,20.207 55.000,17.321 50.000,20.207 50.000,25.981 45.000,28.868 45.000,34.641 50.000,37.528 55.000,34.641">
<desc>P4</desc>
</polygon>
<polygon fill="blue" stroke="white" stroke-width="1"
         points="70.000,37.528 70.000,43.301 75.000,46.188 75.000,46.188 80.000,43.301 80.000,37.528 75.000,34.641 75.000,28.868 70.000,25.981 70.000,20.207 65.000,17.321 65.000,11.547 60.000,8.660 55.000,11.547 55.000,17.321 60.000,20.207 60.000,25.981 65.000,28.868 65.000,34.641">
<desc>I4</desc>
</polygon>
</g>
</svg>
