<?xml version="1.0" standalone="no"?>
<!-- Created by Polyform Puzzler (http://puzzler.sourceforge.net/) -->
<svg width="155.000" height="95.263"
     viewBox="0 0 155.000 95.263"
     xmlns="http://www.w3.org/2000/svg"
     xmlns:xlink="http://www.w3.org/1999/xlink">
<g>
<path fill="olive" stroke="white" stroke-width="1"
    d="M 65.000,72.169 L 65.000,77.942 L 70.000,80.829 L 70.000,86.603 L 75.000,89.489 L 80.000,86.603 L 80.000,80.829 L 85.000,77.942 L 85.000,72.169 L 80.000,69.282 L 75.000,72.169 L 70.000,69.282 Z">
<desc>A3</desc>
</path>
<path fill="gray" stroke="white" stroke-width="1"
    d="M 55.000,72.169 L 55.000,77.942 L 60.000,80.829 L 65.000,77.942 L 65.000,72.169 L 60.000,69.282 Z">
<desc>H1</desc>
</path>
<path fill="steelblue" stroke="white" stroke-width="1"
    d="M 85.000,72.169 L 85.000,77.942 L 90.000,80.829 L 95.000,77.942 L 95.000,72.169 L 100.000,69.282 L 100.000,63.509 L 95.000,60.622 L 90.000,63.509 L 90.000,69.282 Z">
<desc>I2</desc>
</path>
<path fill="blue" stroke="white" stroke-width="1"
    d="M 50.000,63.509 L 50.000,69.282 L 55.000,72.169 L 60.000,69.282 L 65.000,72.169 L 70.000,69.282 L 75.000,72.169 L 80.000,69.282 L 85.000,72.169 L 90.000,69.282 L 90.000,63.509 L 85.000,60.622 L 80.000,63.509 L 75.000,60.622 L 70.000,63.509 L 65.000,60.622 L 60.000,63.509 L 55.000,60.622 Z">
<desc>I4</desc>
</path>
<path fill="red" stroke="white" stroke-width="1"
    d="M 40.000,46.188 L 40.000,51.962 L 45.000,54.848 L 45.000,60.622 L 50.000,63.509 L 55.000,60.622 L 60.000,63.509 L 65.000,60.622 L 65.000,54.848 L 60.000,51.962 L 60.000,46.188 L 55.000,43.301 L 50.000,46.188 L 45.000,43.301 Z">
<desc>O4</desc>
</path>
<path fill="gold" stroke="white" stroke-width="1"
    d="M 65.000,37.528 L 65.000,43.301 L 70.000,46.188 L 70.000,51.962 L 65.000,54.848 L 65.000,60.622 L 70.000,63.509 L 75.000,60.622 L 75.000,54.848 L 80.000,51.962 L 80.000,46.188 L 85.000,43.301 L 85.000,37.528 L 80.000,34.641 L 75.000,37.528 L 70.000,34.641 Z">
<desc>P4</desc>
</path>
<path fill="blueviolet" stroke="white" stroke-width="1"
    d="M 75.000,54.848 L 75.000,60.622 L 80.000,63.509 L 85.000,60.622 L 90.000,63.509 L 95.000,60.622 L 100.000,63.509 L 105.000,60.622 L 105.000,54.848 L 110.000,51.962 L 110.000,46.188 L 105.000,43.301 L 100.000,46.188 L 100.000,51.962 L 95.000,54.848 L 90.000,51.962 L 85.000,54.848 L 80.000,51.962 Z">
<desc>J4</desc>
</path>
<path fill="green" stroke="white" stroke-width="1"
    d="M 45.000,37.528 L 45.000,43.301 L 50.000,46.188 L 55.000,43.301 L 60.000,46.188 L 60.000,51.962 L 65.000,54.848 L 70.000,51.962 L 70.000,46.188 L 65.000,43.301 L 65.000,37.528 L 70.000,34.641 L 70.000,28.868 L 65.000,25.981 L 60.000,28.868 L 60.000,34.641 L 55.000,37.528 L 50.000,34.641 Z">
<desc>Y4</desc>
</path>
<path fill="lime" stroke="white" stroke-width="1"
    d="M 70.000,28.868 L 70.000,34.641 L 75.000,37.528 L 80.000,34.641 L 85.000,37.528 L 85.000,43.301 L 80.000,46.188 L 80.000,51.962 L 85.000,54.848 L 90.000,51.962 L 90.000,46.188 L 95.000,43.301 L 95.000,37.528 L 90.000,34.641 L 90.000,28.868 L 85.000,25.981 L 80.000,28.868 L 75.000,25.981 Z">
<desc>U4</desc>
</path>
<path fill="teal" stroke="white" stroke-width="1"
    d="M 90.000,46.188 L 90.000,51.962 L 95.000,54.848 L 100.000,51.962 L 100.000,46.188 L 105.000,43.301 L 105.000,37.528 L 110.000,34.641 L 110.000,28.868 L 105.000,25.981 L 100.000,28.868 L 100.000,34.641 L 95.000,37.528 L 95.000,43.301 Z">
<desc>I3</desc>
</path>
<path fill="navy" stroke="white" stroke-width="1"
    d="M 40.000,28.868 L 40.000,34.641 L 45.000,37.528 L 50.000,34.641 L 55.000,37.528 L 60.000,34.641 L 60.000,28.868 L 65.000,25.981 L 70.000,28.868 L 75.000,25.981 L 75.000,20.207 L 70.000,17.321 L 65.000,20.207 L 60.000,17.321 L 55.000,20.207 L 55.000,25.981 L 50.000,28.868 L 45.000,25.981 Z">
<desc>S4</desc>
</path>
<path fill="plum" stroke="white" stroke-width="1"
    d="M 75.000,20.207 L 75.000,25.981 L 80.000,28.868 L 85.000,25.981 L 90.000,28.868 L 90.000,34.641 L 95.000,37.528 L 100.000,34.641 L 100.000,28.868 L 95.000,25.981 L 95.000,20.207 L 90.000,17.321 L 85.000,20.207 L 80.000,17.321 Z">
<desc>V3</desc>
</path>
</g>
</svg>
