<?xml version="1.0" standalone="no"?>
<!-- Created by Polyform Puzzler (http://puzzler.sourceforge.net/) -->
<svg width="310.000" height="310.000"
     viewBox="0 0 310.000 310.000"
     xmlns="http://www.w3.org/2000/svg"
     xmlns:xlink="http://www.w3.org/1999/xlink">
<g transform="translate(155.000,77.500) rotate(-30)">
<polygon fill="green" stroke="white" stroke-width="1"
         points="70.000,80.829 70.000,86.603 75.000,89.489 75.000,89.489 80.000,86.603 80.000,80.829 85.000,77.942 90.000,80.829 95.000,77.942 95.000,72.169 90.000,69.282 85.000,72.169 80.000,69.282 80.000,63.509 75.000,60.622 70.000,63.509 70.000,69.282 75.000,72.169 75.000,77.942">
<desc>Y4</desc>
</polygon>
<polygon fill="blueviolet" stroke="white" stroke-width="1"
         points="65.000,72.169 65.000,77.942 70.000,80.829 70.000,80.829 75.000,77.942 75.000,72.169 70.000,69.282 70.000,63.509 65.000,60.622 60.000,63.509 55.000,60.622 50.000,63.509 45.000,60.622 40.000,63.509 40.000,69.282 45.000,72.169 50.000,69.282 55.000,72.169 60.000,69.282">
<desc>J4</desc>
</polygon>
<polygon fill="gold" stroke="white" stroke-width="1"
         points="80.000,63.509 80.000,69.282 85.000,72.169 85.000,72.169 90.000,69.282 95.000,72.169 100.000,69.282 105.000,72.169 110.000,69.282 110.000,63.509 105.000,60.622 105.000,54.848 100.000,51.962 95.000,54.848 95.000,60.622 90.000,63.509 85.000,60.622">
<desc>P4</desc>
</polygon>
<polygon fill="red" stroke="white" stroke-width="1"
         points="45.000,54.848 45.000,60.622 50.000,63.509 50.000,63.509 55.000,60.622 60.000,63.509 65.000,60.622 65.000,54.848 60.000,51.962 60.000,46.188 55.000,43.301 50.000,46.188 45.000,43.301 40.000,46.188 40.000,51.962">
<desc>O4</desc>
</polygon>
<polygon fill="plum" stroke="white" stroke-width="1"
         points="75.000,54.848 75.000,60.622 80.000,63.509 80.000,63.509 85.000,60.622 90.000,63.509 95.000,60.622 95.000,54.848 90.000,51.962 85.000,54.848 80.000,51.962 80.000,46.188 75.000,43.301 70.000,46.188 70.000,51.962">
<desc>V3</desc>
</polygon>
<polygon fill="navy" stroke="white" stroke-width="1"
         points="60.000,46.188 60.000,51.962 65.000,54.848 65.000,54.848 70.000,51.962 70.000,46.188 65.000,43.301 65.000,37.528 60.000,34.641 55.000,37.528 50.000,34.641 50.000,28.868 45.000,25.981 40.000,28.868 40.000,34.641 45.000,37.528 45.000,43.301 50.000,46.188 55.000,43.301">
<desc>S4</desc>
</polygon>
<polygon fill="teal" stroke="white" stroke-width="1"
         points="90.000,46.188 90.000,51.962 95.000,54.848 95.000,54.848 100.000,51.962 100.000,46.188 105.000,43.301 105.000,37.528 110.000,34.641 110.000,28.868 105.000,25.981 100.000,28.868 100.000,34.641 95.000,37.528 95.000,43.301">
<desc>I3</desc>
</polygon>
<polygon fill="lime" stroke="white" stroke-width="1"
         points="75.000,37.528 75.000,43.301 80.000,46.188 80.000,46.188 85.000,43.301 90.000,46.188 95.000,43.301 95.000,37.528 100.000,34.641 100.000,28.868 95.000,25.981 95.000,20.207 90.000,17.321 85.000,20.207 85.000,25.981 90.000,28.868 90.000,34.641 85.000,37.528 80.000,34.641">
<desc>U4</desc>
</polygon>
<polygon fill="blue" stroke="white" stroke-width="1"
         points="50.000,28.868 50.000,34.641 55.000,37.528 55.000,37.528 60.000,34.641 65.000,37.528 70.000,34.641 75.000,37.528 80.000,34.641 85.000,37.528 90.000,34.641 90.000,28.868 85.000,25.981 80.000,28.868 75.000,25.981 70.000,28.868 65.000,25.981 60.000,28.868 55.000,25.981">
<desc>I4</desc>
</polygon>
<polygon fill="olive" stroke="white" stroke-width="1"
         points="65.000,20.207 65.000,25.981 70.000,28.868 70.000,28.868 75.000,25.981 80.000,28.868 85.000,25.981 85.000,20.207 80.000,17.321 80.000,11.547 75.000,8.660 70.000,11.547 70.000,17.321">
<desc>A3</desc>
</polygon>
</g>
</svg>
