<?xml version="1.0" standalone="no"?>
<!-- Created by Polyform Puzzler (http://puzzler.sourceforge.net/) -->
<svg width="425.000" height="251.147"
     viewBox="0 0 425.000 251.147"
     xmlns="http://www.w3.org/2000/svg"
     xmlns:xlink="http://www.w3.org/1999/xlink">
<g>
<polygon fill="gold" stroke="white" stroke-width="1"
         points="40.000,236.714 40.000,242.487 45.000,245.374 45.000,245.374 50.000,242.487 55.000,245.374 60.000,242.487 65.000,245.374 70.000,242.487 70.000,236.714 65.000,233.827 65.000,228.053 60.000,225.167 55.000,228.053 55.000,233.827 50.000,236.714 45.000,233.827">
<desc>P4</desc>
</polygon>
<polygon fill="olive" stroke="white" stroke-width="1"
         points="70.000,236.714 70.000,242.487 75.000,245.374 75.000,245.374 80.000,242.487 80.000,236.714 85.000,233.827 85.000,228.053 80.000,225.167 75.000,228.053 70.000,225.167 65.000,228.053 65.000,233.827">
<desc>A3</desc>
</polygon>
<polygon fill="lime" stroke="white" stroke-width="1"
         points="35.000,228.053 35.000,233.827 40.000,236.714 40.000,236.714 45.000,233.827 50.000,236.714 55.000,233.827 55.000,228.053 60.000,225.167 60.000,219.393 55.000,216.506 50.000,219.393 50.000,225.167 45.000,228.053 40.000,225.167 40.000,219.393 35.000,216.506 30.000,219.393 30.000,225.167">
<desc>U4</desc>
</polygon>
<polygon fill="green" stroke="white" stroke-width="1"
         points="40.000,219.393 40.000,225.167 45.000,228.053 45.000,228.053 50.000,225.167 50.000,219.393 45.000,216.506 45.000,210.733 50.000,207.846 50.000,202.073 45.000,199.186 40.000,202.073 40.000,207.846 35.000,210.733 30.000,207.846 25.000,210.733 25.000,216.506 30.000,219.393 35.000,216.506">
<desc>Y4</desc>
</polygon>
<polygon fill="navy" stroke="white" stroke-width="1"
         points="60.000,219.393 60.000,225.167 65.000,228.053 65.000,228.053 70.000,225.167 70.000,219.393 65.000,216.506 65.000,210.733 70.000,207.846 70.000,202.073 65.000,199.186 65.000,193.412 60.000,190.526 55.000,193.412 55.000,199.186 60.000,202.073 60.000,207.846 55.000,210.733 55.000,216.506">
<desc>S4</desc>
</polygon>
<polygon fill="red" stroke="white" stroke-width="1"
         points="70.000,219.393 70.000,225.167 75.000,228.053 75.000,228.053 80.000,225.167 85.000,228.053 90.000,225.167 90.000,219.393 85.000,216.506 85.000,210.733 80.000,207.846 75.000,210.733 70.000,207.846 65.000,210.733 65.000,216.506">
<desc>O4</desc>
</polygon>
<polygon fill="plum" stroke="white" stroke-width="1"
         points="45.000,210.733 45.000,216.506 50.000,219.393 50.000,219.393 55.000,216.506 55.000,210.733 60.000,207.846 60.000,202.073 55.000,199.186 55.000,193.412 50.000,190.526 45.000,193.412 45.000,199.186 50.000,202.073 50.000,207.846">
<desc>V3</desc>
</polygon>
<polygon fill="blue" stroke="white" stroke-width="1"
         points="85.000,210.733 85.000,216.506 90.000,219.393 90.000,219.393 95.000,216.506 95.000,210.733 90.000,207.846 90.000,202.073 85.000,199.186 85.000,193.412 80.000,190.526 80.000,184.752 75.000,181.865 70.000,184.752 70.000,190.526 75.000,193.412 75.000,199.186 80.000,202.073 80.000,207.846">
<desc>I4</desc>
</polygon>
<polygon fill="teal" stroke="white" stroke-width="1"
         points="30.000,202.073 30.000,207.846 35.000,210.733 35.000,210.733 40.000,207.846 40.000,202.073 45.000,199.186 45.000,193.412 50.000,190.526 50.000,184.752 45.000,181.865 40.000,184.752 40.000,190.526 35.000,193.412 35.000,199.186">
<desc>I3</desc>
</polygon>
<polygon fill="blueviolet" stroke="white" stroke-width="1"
         points="70.000,202.073 70.000,207.846 75.000,210.733 75.000,210.733 80.000,207.846 80.000,202.073 75.000,199.186 75.000,193.412 70.000,190.526 70.000,184.752 65.000,181.865 60.000,184.752 55.000,181.865 50.000,184.752 50.000,190.526 55.000,193.412 60.000,190.526 65.000,193.412 65.000,199.186">
<desc>J4</desc>
</polygon>
</g>
</svg>
