<?xml version="1.0" standalone="no"?>
<!-- Created by Polyform Puzzler (http://puzzler.sourceforge.net/) -->
<svg width="320.000" height="320.000"
     viewBox="0 0 320.000 320.000"
     xmlns="http://www.w3.org/2000/svg"
     xmlns:xlink="http://www.w3.org/1999/xlink">
<g transform="translate(160.000,80.000) rotate(-30)">
<polygon fill="lime" stroke="white" stroke-width="1"
         points="80.000,54.848 80.000,60.622 85.000,63.509 85.000,63.509 90.000,60.622 95.000,63.509 100.000,60.622 100.000,54.848 95.000,51.962 90.000,54.848 85.000,51.962 85.000,46.188 90.000,43.301 90.000,37.528 85.000,34.641 80.000,37.528 80.000,43.301 75.000,46.188 75.000,51.962">
<desc>U4</desc>
</polygon>
<polygon fill="navy" stroke="white" stroke-width="1"
         points="100.000,54.848 100.000,60.622 105.000,63.509 105.000,63.509 110.000,60.622 115.000,63.509 120.000,60.622 120.000,54.848 115.000,51.962 110.000,54.848 105.000,51.962 105.000,46.188 100.000,43.301 95.000,46.188 90.000,43.301 85.000,46.188 85.000,51.962 90.000,54.848 95.000,51.962">
<desc>S4</desc>
</polygon>
<polygon fill="gold" stroke="white" stroke-width="1"
         points="105.000,46.188 105.000,51.962 110.000,54.848 110.000,54.848 115.000,51.962 115.000,46.188 110.000,43.301 110.000,37.528 105.000,34.641 105.000,28.868 100.000,25.981 95.000,28.868 95.000,34.641 90.000,37.528 90.000,43.301 95.000,46.188 100.000,43.301">
<desc>P4</desc>
</polygon>
<polygon fill="red" stroke="white" stroke-width="1"
         points="50.000,37.528 50.000,43.301 55.000,46.188 55.000,46.188 60.000,43.301 65.000,46.188 70.000,43.301 70.000,37.528 65.000,34.641 65.000,28.868 60.000,25.981 55.000,28.868 50.000,25.981 45.000,28.868 45.000,34.641">
<desc>O4</desc>
</polygon>
<polygon fill="green" stroke="white" stroke-width="1"
         points="70.000,37.528 70.000,43.301 75.000,46.188 75.000,46.188 80.000,43.301 80.000,37.528 85.000,34.641 90.000,37.528 95.000,34.641 95.000,28.868 90.000,25.981 85.000,28.868 80.000,25.981 80.000,20.207 75.000,17.321 70.000,20.207 70.000,25.981 75.000,28.868 75.000,34.641">
<desc>Y4</desc>
</polygon>
<polygon fill="blueviolet" stroke="white" stroke-width="1"
         points="65.000,28.868 65.000,34.641 70.000,37.528 70.000,37.528 75.000,34.641 75.000,28.868 70.000,25.981 70.000,20.207 65.000,17.321 60.000,20.207 55.000,17.321 50.000,20.207 45.000,17.321 40.000,20.207 40.000,25.981 45.000,28.868 50.000,25.981 55.000,28.868 60.000,25.981">
<desc>J4</desc>
</polygon>
<polygon fill="blue" stroke="white" stroke-width="1"
         points="35.000,11.547 35.000,17.321 40.000,20.207 40.000,20.207 45.000,17.321 50.000,20.207 55.000,17.321 60.000,20.207 65.000,17.321 70.000,20.207 75.000,17.321 75.000,11.547 70.000,8.660 65.000,11.547 60.000,8.660 55.000,11.547 50.000,8.660 45.000,11.547 40.000,8.660">
<desc>I4</desc>
</polygon>
</g>
</svg>
