<?xml version="1.0" standalone="no"?>
<!-- Created by Polyform Puzzler (http://puzzler.sourceforge.net/) -->
<svg width="115.000" height="77.942"
     viewBox="0 0 115.000 77.942"
     xmlns="http://www.w3.org/2000/svg"
     xmlns:xlink="http://www.w3.org/1999/xlink">
<g>
<path fill="navy" stroke="white" stroke-width="1"
    d="M 40.000,63.509 L 40.000,69.282 L 45.000,72.169 L 50.000,69.282 L 50.000,63.509 L 55.000,60.622 L 60.000,63.509 L 65.000,60.622 L 65.000,54.848 L 70.000,51.962 L 70.000,46.188 L 65.000,43.301 L 60.000,46.188 L 60.000,51.962 L 55.000,54.848 L 50.000,51.962 L 45.000,54.848 L 45.000,60.622 Z">
<desc>S4</desc>
</path>
<path fill="blueviolet" stroke="white" stroke-width="1"
    d="M 50.000,63.509 L 50.000,69.282 L 55.000,72.169 L 60.000,69.282 L 65.000,72.169 L 70.000,69.282 L 70.000,63.509 L 75.000,60.622 L 75.000,54.848 L 80.000,51.962 L 80.000,46.188 L 75.000,43.301 L 70.000,46.188 L 70.000,51.962 L 65.000,54.848 L 65.000,60.622 L 60.000,63.509 L 55.000,60.622 Z">
<desc>J4</desc>
</path>
<path fill="green" stroke="white" stroke-width="1"
    d="M 35.000,37.528 L 35.000,43.301 L 40.000,46.188 L 40.000,51.962 L 35.000,54.848 L 35.000,60.622 L 40.000,63.509 L 45.000,60.622 L 45.000,54.848 L 50.000,51.962 L 55.000,54.848 L 60.000,51.962 L 60.000,46.188 L 55.000,43.301 L 50.000,46.188 L 45.000,43.301 L 45.000,37.528 L 40.000,34.641 Z">
<desc>Y4</desc>
</path>
<path fill="lime" stroke="white" stroke-width="1"
    d="M 25.000,37.528 L 25.000,43.301 L 30.000,46.188 L 30.000,51.962 L 35.000,54.848 L 40.000,51.962 L 40.000,46.188 L 35.000,43.301 L 35.000,37.528 L 40.000,34.641 L 45.000,37.528 L 50.000,34.641 L 50.000,28.868 L 45.000,25.981 L 40.000,28.868 L 35.000,25.981 L 30.000,28.868 L 30.000,34.641 Z">
<desc>U4</desc>
</path>
<path fill="gold" stroke="white" stroke-width="1"
    d="M 50.000,28.868 L 50.000,34.641 L 55.000,37.528 L 60.000,34.641 L 65.000,37.528 L 65.000,43.301 L 70.000,46.188 L 75.000,43.301 L 75.000,37.528 L 70.000,34.641 L 70.000,28.868 L 65.000,25.981 L 65.000,20.207 L 60.000,17.321 L 55.000,20.207 L 55.000,25.981 Z">
<desc>P4</desc>
</path>
<path fill="blue" stroke="white" stroke-width="1"
    d="M 60.000,11.547 L 60.000,17.321 L 65.000,20.207 L 65.000,25.981 L 70.000,28.868 L 70.000,34.641 L 75.000,37.528 L 75.000,43.301 L 80.000,46.188 L 85.000,43.301 L 85.000,37.528 L 80.000,34.641 L 80.000,28.868 L 75.000,25.981 L 75.000,20.207 L 70.000,17.321 L 70.000,11.547 L 65.000,8.660 Z">
<desc>I4</desc>
</path>
<path fill="red" stroke="white" stroke-width="1"
    d="M 35.000,20.207 L 35.000,25.981 L 40.000,28.868 L 45.000,25.981 L 50.000,28.868 L 55.000,25.981 L 55.000,20.207 L 60.000,17.321 L 60.000,11.547 L 55.000,8.660 L 50.000,11.547 L 45.000,8.660 L 40.000,11.547 L 40.000,17.321 Z">
<desc>O4</desc>
</path>
</g>
</svg>
