<?xml version="1.0" standalone="no"?>
<!-- Created by Polyform Puzzler (http://puzzler.sourceforge.net/) -->
<svg width="250.000" height="250.000"
     viewBox="0 0 250.000 250.000"
     xmlns="http://www.w3.org/2000/svg"
     xmlns:xlink="http://www.w3.org/1999/xlink">
<g transform="translate(125.000,62.500) rotate(-30)">
<polygon fill="lime" stroke="white" stroke-width="1"
         points="60.000,63.509 60.000,69.282 65.000,72.169 65.000,72.169 70.000,69.282 75.000,72.169 80.000,69.282 80.000,63.509 85.000,60.622 85.000,54.848 80.000,51.962 75.000,54.848 75.000,60.622 70.000,63.509 65.000,60.622 65.000,54.848 60.000,51.962 55.000,54.848 55.000,60.622">
<desc>U4</desc>
</polygon>
<polygon fill="gold" stroke="white" stroke-width="1"
         points="45.000,54.848 45.000,60.622 50.000,63.509 50.000,63.509 55.000,60.622 55.000,54.848 60.000,51.962 65.000,54.848 70.000,51.962 70.000,46.188 65.000,43.301 60.000,46.188 55.000,43.301 50.000,46.188 45.000,43.301 40.000,46.188 40.000,51.962">
<desc>P4</desc>
</polygon>
<polygon fill="green" stroke="white" stroke-width="1"
         points="65.000,54.848 65.000,60.622 70.000,63.509 70.000,63.509 75.000,60.622 75.000,54.848 80.000,51.962 85.000,54.848 90.000,51.962 90.000,46.188 85.000,43.301 80.000,46.188 75.000,43.301 75.000,37.528 70.000,34.641 65.000,37.528 65.000,43.301 70.000,46.188 70.000,51.962">
<desc>Y4</desc>
</polygon>
<polygon fill="blueviolet" stroke="white" stroke-width="1"
         points="30.000,46.188 30.000,51.962 35.000,54.848 35.000,54.848 40.000,51.962 40.000,46.188 45.000,43.301 50.000,46.188 55.000,43.301 60.000,46.188 65.000,43.301 65.000,37.528 60.000,34.641 55.000,37.528 50.000,34.641 45.000,37.528 40.000,34.641 35.000,37.528 35.000,43.301">
<desc>J4</desc>
</polygon>
<polygon fill="blue" stroke="white" stroke-width="1"
         points="25.000,37.528 25.000,43.301 30.000,46.188 30.000,46.188 35.000,43.301 35.000,37.528 40.000,34.641 40.000,28.868 45.000,25.981 45.000,20.207 50.000,17.321 50.000,11.547 45.000,8.660 40.000,11.547 40.000,17.321 35.000,20.207 35.000,25.981 30.000,28.868 30.000,34.641">
<desc>I4</desc>
</polygon>
<polygon fill="navy" stroke="white" stroke-width="1"
         points="75.000,37.528 75.000,43.301 80.000,46.188 80.000,46.188 85.000,43.301 90.000,46.188 95.000,43.301 95.000,37.528 90.000,34.641 85.000,37.528 80.000,34.641 80.000,28.868 75.000,25.981 70.000,28.868 65.000,25.981 60.000,28.868 60.000,34.641 65.000,37.528 70.000,34.641">
<desc>S4</desc>
</polygon>
<polygon fill="red" stroke="white" stroke-width="1"
         points="40.000,28.868 40.000,34.641 45.000,37.528 45.000,37.528 50.000,34.641 55.000,37.528 60.000,34.641 60.000,28.868 65.000,25.981 65.000,20.207 60.000,17.321 55.000,20.207 50.000,17.321 45.000,20.207 45.000,25.981">
<desc>O4</desc>
</polygon>
</g>
</svg>
