<?xml version="1.0" standalone="no"?>
<!-- Created by Polyform Puzzler (http://puzzler.sourceforge.net/) -->
<svg width="310.000" height="310.000"
     viewBox="0 0 310.000 310.000"
     xmlns="http://www.w3.org/2000/svg"
     xmlns:xlink="http://www.w3.org/1999/xlink">
<g transform="translate(155.000,77.500) rotate(90)">
<path fill="blue" stroke="white" stroke-width="1"
    d="M 55.000,54.848 L 55.000,60.622 L 60.000,63.509 L 60.000,69.282 L 65.000,72.169 L 65.000,77.942 L 70.000,80.829 L 70.000,86.603 L 75.000,89.489 L 80.000,86.603 L 80.000,80.829 L 75.000,77.942 L 75.000,72.169 L 70.000,69.282 L 70.000,63.509 L 65.000,60.622 L 65.000,54.848 L 60.000,51.962 Z">
<desc>I4</desc>
</path>
<path fill="lime" stroke="white" stroke-width="1"
    d="M 65.000,54.848 L 65.000,60.622 L 70.000,63.509 L 75.000,60.622 L 80.000,63.509 L 80.000,69.282 L 75.000,72.169 L 75.000,77.942 L 80.000,80.829 L 85.000,77.942 L 85.000,72.169 L 90.000,69.282 L 90.000,63.509 L 85.000,60.622 L 85.000,54.848 L 80.000,51.962 L 75.000,54.848 L 70.000,51.962 Z">
<desc>U4</desc>
</path>
<path fill="green" stroke="white" stroke-width="1"
    d="M 30.000,46.188 L 30.000,51.962 L 35.000,54.848 L 40.000,51.962 L 45.000,54.848 L 45.000,60.622 L 50.000,63.509 L 55.000,60.622 L 55.000,54.848 L 50.000,51.962 L 50.000,46.188 L 55.000,43.301 L 55.000,37.528 L 50.000,34.641 L 45.000,37.528 L 45.000,43.301 L 40.000,46.188 L 35.000,43.301 Z">
<desc>Y4</desc>
</path>
<path fill="blueviolet" stroke="white" stroke-width="1"
    d="M 75.000,37.528 L 75.000,43.301 L 80.000,46.188 L 80.000,51.962 L 85.000,54.848 L 85.000,60.622 L 90.000,63.509 L 95.000,60.622 L 100.000,63.509 L 105.000,60.622 L 105.000,54.848 L 100.000,51.962 L 95.000,54.848 L 90.000,51.962 L 90.000,46.188 L 85.000,43.301 L 85.000,37.528 L 80.000,34.641 Z">
<desc>J4</desc>
</path>
<path fill="red" stroke="white" stroke-width="1"
    d="M 55.000,37.528 L 55.000,43.301 L 60.000,46.188 L 60.000,51.962 L 65.000,54.848 L 70.000,51.962 L 70.000,46.188 L 75.000,43.301 L 75.000,37.528 L 70.000,34.641 L 70.000,28.868 L 65.000,25.981 L 60.000,28.868 L 60.000,34.641 Z">
<desc>O4</desc>
</path>
<path fill="navy" stroke="white" stroke-width="1"
    d="M 85.000,37.528 L 85.000,43.301 L 90.000,46.188 L 95.000,43.301 L 100.000,46.188 L 100.000,51.962 L 105.000,54.848 L 110.000,51.962 L 115.000,54.848 L 120.000,51.962 L 120.000,46.188 L 115.000,43.301 L 110.000,46.188 L 105.000,43.301 L 105.000,37.528 L 100.000,34.641 L 95.000,37.528 L 90.000,34.641 Z">
<desc>S4</desc>
</path>
<path fill="gold" stroke="white" stroke-width="1"
    d="M 65.000,20.207 L 65.000,25.981 L 70.000,28.868 L 75.000,25.981 L 80.000,28.868 L 80.000,34.641 L 85.000,37.528 L 90.000,34.641 L 90.000,28.868 L 85.000,25.981 L 85.000,20.207 L 80.000,17.321 L 80.000,11.547 L 75.000,8.660 L 70.000,11.547 L 70.000,17.321 Z">
<desc>P4</desc>
</path>
</g>
</svg>
