<?xml version="1.0" standalone="no"?>
<!-- Created by Polyform Puzzler (http://puzzler.sourceforge.net/) -->
<svg width="110.0" height="51.9615242271" viewBox="0 0 110.0 51.9615242271"
     xmlns="http://www.w3.org/2000/svg"
     xmlns:xlink="http://www.w3.org/1999/xlink">
<g>
<polygon fill="blue" stroke="white" stroke-width="1"
         points="10.000,37.528 10.000,43.301 15.000,46.188 15.000,46.188 20.000,43.301 20.000,37.528 25.000,34.641 25.000,28.868 30.000,25.981 30.000,20.207 35.000,17.321 35.000,11.547 30.000,8.660 25.000,11.547 25.000,17.321 20.000,20.207 20.000,25.981 15.000,28.868 15.000,34.641">
<desc>I4</desc>
</polygon>
<polygon fill="red" stroke="white" stroke-width="1"
         points="20.000,37.528 20.000,43.301 25.000,46.188 25.000,46.188 30.000,43.301 35.000,46.188 40.000,43.301 40.000,37.528 45.000,34.641 45.000,28.868 40.000,25.981 35.000,28.868 30.000,25.981 25.000,28.868 25.000,34.641">
<desc>O4</desc>
</polygon>
<polygon fill="green" stroke="white" stroke-width="1"
         points="40.000,37.528 40.000,43.301 45.000,46.188 45.000,46.188 50.000,43.301 50.000,37.528 55.000,34.641 60.000,37.528 65.000,34.641 65.000,28.868 60.000,25.981 55.000,28.868 50.000,25.981 50.000,20.207 45.000,17.321 40.000,20.207 40.000,25.981 45.000,28.868 45.000,34.641">
<desc>Y4</desc>
</polygon>
<polygon fill="blueviolet" stroke="white" stroke-width="1"
         points="50.000,37.528 50.000,43.301 55.000,46.188 55.000,46.188 60.000,43.301 65.000,46.188 70.000,43.301 75.000,46.188 80.000,43.301 80.000,37.528 85.000,34.641 85.000,28.868 80.000,25.981 75.000,28.868 75.000,34.641 70.000,37.528 65.000,34.641 60.000,37.528 55.000,34.641">
<desc>J4</desc>
</polygon>
<polygon fill="navy" stroke="white" stroke-width="1"
         points="65.000,28.868 65.000,34.641 70.000,37.528 70.000,37.528 75.000,34.641 75.000,28.868 80.000,25.981 85.000,28.868 90.000,25.981 90.000,20.207 95.000,17.321 95.000,11.547 90.000,8.660 85.000,11.547 85.000,17.321 80.000,20.207 75.000,17.321 70.000,20.207 70.000,25.981">
<desc>S4</desc>
</polygon>
<polygon fill="lime" stroke="white" stroke-width="1"
         points="30.000,20.207 30.000,25.981 35.000,28.868 35.000,28.868 40.000,25.981 40.000,20.207 45.000,17.321 50.000,20.207 50.000,25.981 55.000,28.868 60.000,25.981 60.000,20.207 55.000,17.321 55.000,11.547 50.000,8.660 45.000,11.547 40.000,8.660 35.000,11.547 35.000,17.321">
<desc>U4</desc>
</polygon>
<polygon fill="gold" stroke="white" stroke-width="1"
         points="60.000,20.207 60.000,25.981 65.000,28.868 65.000,28.868 70.000,25.981 70.000,20.207 75.000,17.321 80.000,20.207 85.000,17.321 85.000,11.547 80.000,8.660 75.000,11.547 70.000,8.660 65.000,11.547 60.000,8.660 55.000,11.547 55.000,17.321">
<desc>P4</desc>
</polygon>
</g>

</svg>
