<?xml version="1.0" standalone="no"?>
<!-- Created by Polyform Puzzler (http://puzzler.sourceforge.net/) -->
<svg width="240.000" height="240.000"
     viewBox="0 0 240.000 240.000"
     xmlns="http://www.w3.org/2000/svg"
     xmlns:xlink="http://www.w3.org/1999/xlink">
<g transform="translate(120.000,60.000) rotate(-30)">
<polygon fill="blue" stroke="white" stroke-width="1"
         points="40.000,54.848 40.000,60.622 45.000,63.509 45.000,63.509 50.000,60.622 50.000,54.848 45.000,51.962 45.000,46.188 40.000,43.301 40.000,37.528 35.000,34.641 35.000,28.868 30.000,25.981 25.000,28.868 25.000,34.641 30.000,37.528 30.000,43.301 35.000,46.188 35.000,51.962">
<desc>I4</desc>
</polygon>
<polygon fill="blueviolet" stroke="white" stroke-width="1"
         points="50.000,54.848 50.000,60.622 55.000,63.509 55.000,63.509 60.000,60.622 65.000,63.509 70.000,60.622 70.000,54.848 65.000,51.962 60.000,54.848 55.000,51.962 55.000,46.188 50.000,43.301 50.000,37.528 45.000,34.641 40.000,37.528 40.000,43.301 45.000,46.188 45.000,51.962">
<desc>J4</desc>
</polygon>
<polygon fill="green" stroke="white" stroke-width="1"
         points="70.000,54.848 70.000,60.622 75.000,63.509 75.000,63.509 80.000,60.622 80.000,54.848 75.000,51.962 75.000,46.188 80.000,43.301 80.000,37.528 75.000,34.641 70.000,37.528 70.000,43.301 65.000,46.188 60.000,43.301 55.000,46.188 55.000,51.962 60.000,54.848 65.000,51.962">
<desc>Y4</desc>
</polygon>
<polygon fill="red" stroke="white" stroke-width="1"
         points="50.000,37.528 50.000,43.301 55.000,46.188 55.000,46.188 60.000,43.301 65.000,46.188 70.000,43.301 70.000,37.528 65.000,34.641 65.000,28.868 60.000,25.981 55.000,28.868 50.000,25.981 45.000,28.868 45.000,34.641">
<desc>O4</desc>
</polygon>
<polygon fill="navy" stroke="white" stroke-width="1"
         points="80.000,37.528 80.000,43.301 85.000,46.188 85.000,46.188 90.000,43.301 90.000,37.528 85.000,34.641 85.000,28.868 80.000,25.981 75.000,28.868 70.000,25.981 70.000,20.207 65.000,17.321 60.000,20.207 60.000,25.981 65.000,28.868 65.000,34.641 70.000,37.528 75.000,34.641">
<desc>S4</desc>
</polygon>
<polygon fill="gold" stroke="white" stroke-width="1"
         points="35.000,28.868 35.000,34.641 40.000,37.528 40.000,37.528 45.000,34.641 45.000,28.868 50.000,25.981 50.000,20.207 55.000,17.321 55.000,11.547 50.000,8.660 45.000,11.547 40.000,8.660 35.000,11.547 35.000,17.321 40.000,20.207 40.000,25.981">
<desc>P4</desc>
</polygon>
<polygon fill="lime" stroke="white" stroke-width="1"
         points="50.000,20.207 50.000,25.981 55.000,28.868 55.000,28.868 60.000,25.981 60.000,20.207 65.000,17.321 70.000,20.207 70.000,25.981 75.000,28.868 80.000,25.981 80.000,20.207 75.000,17.321 75.000,11.547 70.000,8.660 65.000,11.547 60.000,8.660 55.000,11.547 55.000,17.321">
<desc>U4</desc>
</polygon>
</g>
</svg>
