<?xml version="1.0" standalone="no"?>
<!-- Created by Polyform Puzzler (http://puzzler.sourceforge.net/) -->
<svg width="115.0" height="60.6217782649" viewBox="0 0 115.0 60.6217782649"
     xmlns="http://www.w3.org/2000/svg"
     xmlns:xlink="http://www.w3.org/1999/xlink">
<g>
<polygon fill="blue" stroke="white" stroke-width="1"
         points="30.000,46.188 30.000,51.962 35.000,54.848 35.000,54.848 40.000,51.962 45.000,54.848 50.000,51.962 55.000,54.848 60.000,51.962 65.000,54.848 70.000,51.962 70.000,46.188 65.000,43.301 60.000,46.188 55.000,43.301 50.000,46.188 45.000,43.301 40.000,46.188 35.000,43.301">
<desc>I4</desc>
</polygon>
<polygon fill="green" stroke="white" stroke-width="1"
         points="70.000,46.188 70.000,51.962 75.000,54.848 75.000,54.848 80.000,51.962 80.000,46.188 75.000,43.301 75.000,37.528 80.000,34.641 80.000,28.868 75.000,25.981 70.000,28.868 70.000,34.641 65.000,37.528 60.000,34.641 55.000,37.528 55.000,43.301 60.000,46.188 65.000,43.301">
<desc>Y4</desc>
</polygon>
<polygon fill="gold" stroke="white" stroke-width="1"
         points="25.000,37.528 25.000,43.301 30.000,46.188 30.000,46.188 35.000,43.301 40.000,46.188 45.000,43.301 50.000,46.188 55.000,43.301 55.000,37.528 50.000,34.641 50.000,28.868 45.000,25.981 40.000,28.868 40.000,34.641 35.000,37.528 30.000,34.641">
<desc>P4</desc>
</polygon>
<polygon fill="blueviolet" stroke="white" stroke-width="1"
         points="75.000,37.528 75.000,43.301 80.000,46.188 80.000,46.188 85.000,43.301 85.000,37.528 90.000,34.641 90.000,28.868 85.000,25.981 85.000,20.207 80.000,17.321 80.000,11.547 75.000,8.660 70.000,11.547 70.000,17.321 75.000,20.207 75.000,25.981 80.000,28.868 80.000,34.641">
<desc>J4</desc>
</polygon>
<polygon fill="red" stroke="white" stroke-width="1"
         points="20.000,28.868 20.000,34.641 25.000,37.528 25.000,37.528 30.000,34.641 35.000,37.528 40.000,34.641 40.000,28.868 45.000,25.981 45.000,20.207 40.000,17.321 35.000,20.207 30.000,17.321 25.000,20.207 25.000,25.981">
<desc>O4</desc>
</polygon>
<polygon fill="lime" stroke="white" stroke-width="1"
         points="60.000,28.868 60.000,34.641 65.000,37.528 65.000,37.528 70.000,34.641 70.000,28.868 75.000,25.981 75.000,20.207 70.000,17.321 70.000,11.547 65.000,8.660 60.000,11.547 55.000,8.660 50.000,11.547 50.000,17.321 55.000,20.207 60.000,17.321 65.000,20.207 65.000,25.981">
<desc>U4</desc>
</polygon>
<polygon fill="navy" stroke="white" stroke-width="1"
         points="45.000,20.207 45.000,25.981 50.000,28.868 50.000,28.868 55.000,25.981 60.000,28.868 65.000,25.981 65.000,20.207 60.000,17.321 55.000,20.207 50.000,17.321 50.000,11.547 45.000,8.660 40.000,11.547 35.000,8.660 30.000,11.547 30.000,17.321 35.000,20.207 40.000,17.321">
<desc>S4</desc>
</polygon>
</g>

</svg>
