<?xml version="1.0" standalone="no"?>
<!-- Created by Polyform Puzzler (http://puzzler.sourceforge.net/) -->
<svg width="623.538" height="623.538"
     viewBox="0 0 623.538 623.538"
     xmlns="http://www.w3.org/2000/svg"
     xmlns:xlink="http://www.w3.org/1999/xlink">
<g transform="translate(311.769,155.885) rotate(30)">
<path stroke="tan" stroke-width="2" stroke-linecap="round"
      fill="none" d="M 73.400,222.395 l -2.700,-4.677 M 76.400,242.487 l 5.400,0.000 M 78.200,225.167 a 5.543,5.543 0 0,1 -4.800,-2.771 M 78.200,225.167 l 3.600,0.000 M 81.800,225.167 a 5.543,5.543 0 0,1 4.800,2.771 M 81.800,242.487 a 5.543,5.543 0 0,1 4.800,2.771 M 86.600,239.716 a 5.543,5.543 0 0,1 -4.800,2.771 M 86.600,245.258 a 5.543,5.543 0 0,1 0.000,-5.543 M 88.400,231.056 a 5.543,5.543 0 0,1 0.000,5.543 M 88.400,231.056 l -1.800,-3.118 M 88.400,236.598 l -1.800,3.118 M 89.300,249.935 l -2.700,-4.677">
<desc>C06</desc>
</path>
<path stroke="slateblue" stroke-width="2" stroke-linecap="round"
      fill="none" d="M 61.400,251.147 l 5.400,0.000 M 61.400,268.468 l 5.400,0.000 M 66.800,251.147 a 5.543,5.543 0 0,1 4.800,2.771 M 71.600,248.376 a 5.543,5.543 0 0,1 -4.800,2.771 M 71.600,253.919 a 5.543,5.543 0 0,1 0.000,-5.543 M 71.600,265.697 a 5.543,5.543 0 0,1 -4.800,2.771 M 73.400,239.716 a 5.543,5.543 0 0,1 0.000,5.543 M 73.400,239.716 l -2.700,-4.677 M 73.400,245.258 l -1.800,3.118 M 73.400,257.036 a 5.543,5.543 0 0,1 0.000,5.543 M 73.400,257.036 l -1.800,-3.118 M 73.400,262.579 l -1.800,3.118">
<desc>F06</desc>
</path>
<path stroke="aquamarine" stroke-width="2" stroke-linecap="round"
      fill="none" d="M 56.600,245.258 a 5.543,5.543 0 0,1 0.000,-5.543 M 58.400,231.056 a 5.543,5.543 0 0,1 0.000,5.543 M 58.400,231.056 l -2.700,-4.677 M 58.400,236.598 a 5.543,5.543 0 0,1 4.800,-2.771 M 58.400,236.598 l -1.800,3.118 M 58.400,248.376 a 5.543,5.543 0 0,1 0.000,5.543 M 58.400,248.376 l -1.800,-3.118 M 58.400,253.919 l -2.700,4.677 M 63.200,233.827 a 5.543,5.543 0 0,1 -4.800,-2.771 M 63.200,233.827 l 3.600,0.000 M 71.600,231.056 a 5.543,5.543 0 0,1 -4.800,2.771 M 74.300,226.379 l -2.700,4.677">
<desc>H06</desc>
</path>
<path stroke="cadetblue" stroke-width="2" stroke-linecap="round"
      fill="none" d="M 41.600,236.598 a 5.543,5.543 0 0,1 0.000,-5.543 M 41.600,253.919 a 5.543,5.543 0 0,1 0.000,-5.543 M 43.400,222.395 a 5.543,5.543 0 0,1 0.000,5.543 M 43.400,222.395 l -2.700,-4.677 M 43.400,227.938 l -1.800,3.118 M 43.400,239.716 a 5.543,5.543 0 0,1 0.000,5.543 M 43.400,239.716 l -1.800,-3.118 M 43.400,245.258 a 5.543,5.543 0 0,1 4.800,-2.771 M 43.400,245.258 l -1.800,3.118 M 44.300,258.595 l -2.700,-4.677 M 48.200,242.487 a 5.543,5.543 0 0,1 -4.800,-2.771 M 48.200,242.487 l 5.400,0.000">
<desc>H16</desc>
</path>
<path stroke="burlywood" stroke-width="2" stroke-linecap="round"
      fill="none" d="M 101.600,196.415 a 5.543,5.543 0 0,1 -4.800,2.771 M 104.300,191.738 l -2.700,4.677 M 61.400,216.506 l 5.400,0.000 M 71.600,213.735 a 5.543,5.543 0 0,1 -4.800,2.771 M 73.400,210.617 a 5.543,5.543 0 0,1 4.800,-2.771 M 73.400,210.617 l -1.800,3.118 M 78.200,207.846 l 3.600,0.000 M 86.600,205.075 a 5.543,5.543 0 0,1 -4.800,2.771 M 88.400,201.957 a 5.543,5.543 0 0,1 4.800,-2.771 M 88.400,201.957 l -1.800,3.118 M 93.200,199.186 l 3.600,0.000">
<desc>I06</desc>
</path>
<path stroke="crimson" stroke-width="2" stroke-linecap="round"
      fill="none" d="M 101.600,248.376 a 5.543,5.543 0 0,1 -4.800,2.771 M 103.400,239.716 a 5.543,5.543 0 0,1 0.000,5.543 M 103.400,239.716 l -1.800,-3.118 M 103.400,245.258 l -1.800,3.118 M 76.400,259.808 l 5.400,0.000 M 86.600,257.036 a 5.543,5.543 0 0,1 -4.800,2.771 M 88.400,253.919 a 5.543,5.543 0 0,1 4.800,-2.771 M 88.400,253.919 l -1.800,3.118 M 91.400,233.827 l 5.400,0.000 M 93.200,251.147 l 3.600,0.000 M 96.800,233.827 a 5.543,5.543 0 0,1 4.800,2.771">
<desc>J06</desc>
</path>
<path stroke="darkgoldenrod" stroke-width="2" stroke-linecap="round"
      fill="none" d="M 121.400,164.545 l 5.400,0.000 M 126.800,164.545 a 5.543,5.543 0 0,1 4.800,2.771 M 133.400,170.434 l -1.800,-3.118 M 138.200,173.205 a 5.543,5.543 0 0,1 -4.800,-2.771 M 138.200,173.205 l 3.600,0.000 M 141.800,173.205 a 5.543,5.543 0 0,1 4.800,2.771 M 148.400,179.094 l -1.800,-3.118 M 153.200,181.865 a 5.543,5.543 0 0,1 -4.800,-2.771 M 153.200,181.865 l 3.600,0.000 M 161.600,179.094 a 5.543,5.543 0 0,1 -4.800,2.771 M 164.300,174.418 l -2.700,4.677">
<desc>L06</desc>
</path>
<path stroke="deepskyblue" stroke-width="2" stroke-linecap="round"
      fill="none" d="M 103.400,187.754 l -1.800,-3.118 M 108.200,190.526 a 5.543,5.543 0 0,1 -4.800,-2.771 M 108.200,190.526 l 3.600,0.000 M 111.800,190.526 a 5.543,5.543 0 0,1 4.800,2.771 M 116.600,187.754 a 5.543,5.543 0 0,1 -4.800,2.771 M 116.600,193.297 a 5.543,5.543 0 0,1 0.000,-5.543 M 119.300,183.078 l -2.700,4.677 M 119.300,197.973 l -2.700,-4.677 M 88.400,179.094 l -2.700,-4.677 M 93.200,181.865 a 5.543,5.543 0 0,1 -4.800,-2.771 M 93.200,181.865 l 3.600,0.000 M 96.800,181.865 a 5.543,5.543 0 0,1 4.800,2.771">
<desc>L16</desc>
</path>
<path stroke="peachpuff" stroke-width="2" stroke-linecap="round"
      fill="none" d="M 41.600,132.675 a 5.543,5.543 0 0,1 0.000,-5.543 M 43.400,135.793 a 5.543,5.543 0 0,1 0.000,5.543 M 43.400,135.793 l -1.800,-3.118 M 43.400,141.335 a 5.543,5.543 0 0,1 4.800,-2.771 M 43.400,141.335 l -2.700,4.677 M 44.300,122.456 l -2.700,4.677 M 48.200,138.564 a 5.543,5.543 0 0,1 -4.800,-2.771 M 48.200,138.564 l 3.600,0.000 M 51.800,138.564 a 5.543,5.543 0 0,1 4.800,2.771 M 58.400,144.453 l -1.800,-3.118 M 63.200,147.224 a 5.543,5.543 0 0,1 -4.800,-2.771 M 63.200,147.224 l 5.400,0.000">
<desc>L26</desc>
</path>
<path stroke="darkkhaki" stroke-width="2" stroke-linecap="round"
      fill="none" d="M 28.400,115.355 a 5.543,5.543 0 0,1 4.800,-2.771 M 28.400,115.355 l -2.700,4.677 M 33.200,112.583 l 3.600,0.000 M 36.800,112.583 a 5.543,5.543 0 0,1 4.800,2.771 M 43.400,118.472 l -1.800,-3.118 M 48.200,121.244 a 5.543,5.543 0 0,1 -4.800,-2.771 M 48.200,121.244 l 3.600,0.000 M 51.800,121.244 a 5.543,5.543 0 0,1 4.800,2.771 M 58.400,127.133 a 5.543,5.543 0 0,1 0.000,5.543 M 58.400,127.133 l -1.800,-3.118 M 58.400,132.675 l -2.700,4.677">
<desc>M06</desc>
</path>
<path stroke="darkseagreen" stroke-width="2" stroke-linecap="round"
      fill="none" d="M 41.600,271.239 a 5.543,5.543 0 0,1 0.000,-5.543 M 43.400,262.579 a 5.543,5.543 0 0,1 4.800,-2.771 M 43.400,262.579 l -1.800,3.118 M 43.400,274.357 l -1.800,-3.118 M 48.200,259.808 l 3.600,0.000 M 48.200,277.128 a 5.543,5.543 0 0,1 -4.800,-2.771 M 48.200,277.128 l 3.600,0.000 M 51.800,259.808 a 5.543,5.543 0 0,1 4.800,2.771 M 56.600,274.357 a 5.543,5.543 0 0,1 -4.800,2.771 M 58.400,265.697 a 5.543,5.543 0 0,1 0.000,5.543 M 58.400,265.697 l -1.800,-3.118 M 58.400,271.239 l -1.800,3.118">
<desc>O06</desc>
</path>
<path stroke="deeppink" stroke-width="2" stroke-linecap="round"
      fill="none" d="M 11.600,115.355 a 5.543,5.543 0 0,1 0.000,-5.543 M 13.400,106.694 a 5.543,5.543 0 0,1 4.800,-2.771 M 13.400,106.694 l -1.800,3.118 M 13.400,118.472 l -1.800,-3.118 M 18.200,103.923 l 3.600,0.000 M 18.200,121.244 a 5.543,5.543 0 0,1 -4.800,-2.771 M 18.200,121.244 l 3.600,0.000 M 21.800,103.923 a 5.543,5.543 0 0,1 4.800,2.771 M 21.800,121.244 a 5.543,5.543 0 0,1 4.800,2.771 M 29.300,111.371 l -2.700,-4.677 M 29.300,128.691 l -2.700,-4.677">
<desc>Q06</desc>
</path>
<path stroke="greenyellow" stroke-width="2" stroke-linecap="round"
      fill="none" d="M 116.600,141.335 a 5.543,5.543 0 0,1 0.000,-5.543 M 118.400,132.675 a 5.543,5.543 0 0,1 4.800,-2.771 M 118.400,132.675 l -1.800,3.118 M 118.400,144.453 a 5.543,5.543 0 0,1 0.000,5.543 M 118.400,144.453 l -1.800,-3.118 M 118.400,149.996 a 5.543,5.543 0 0,1 4.800,-2.771 M 118.400,149.996 l -2.700,4.677 M 123.200,129.904 l 3.600,0.000 M 123.200,147.224 a 5.543,5.543 0 0,1 -4.800,-2.771 M 123.200,147.224 l 5.400,0.000 M 126.800,129.904 a 5.543,5.543 0 0,1 4.800,2.771 M 134.300,137.352 l -2.700,-4.677">
<desc>Q16</desc>
</path>
<path stroke="hotpink" stroke-width="2" stroke-linecap="round"
      fill="none" d="M 43.400,210.617 a 5.543,5.543 0 0,1 4.800,-2.771 M 43.400,210.617 l -2.700,4.677 M 46.400,225.167 l 5.400,0.000 M 48.200,207.846 l 3.600,0.000 M 51.800,207.846 a 5.543,5.543 0 0,1 4.800,2.771 M 56.600,205.075 a 5.543,5.543 0 0,1 -4.800,2.771 M 56.600,210.617 a 5.543,5.543 0 0,1 0.000,-5.543 M 56.600,222.395 a 5.543,5.543 0 0,1 -4.800,2.771 M 58.400,213.735 a 5.543,5.543 0 0,1 0.000,5.543 M 58.400,213.735 l -1.800,-3.118 M 58.400,219.278 l -1.800,3.118 M 59.300,200.398 l -2.700,4.677">
<desc>Q26</desc>
</path>
<path stroke="indianred" stroke-width="2" stroke-linecap="round"
      fill="none" d="M 131.600,149.996 a 5.543,5.543 0 0,1 0.000,-5.543 M 133.400,141.335 a 5.543,5.543 0 0,1 4.800,-2.771 M 133.400,141.335 l -1.800,3.118 M 133.400,153.113 a 5.543,5.543 0 0,1 0.000,5.543 M 133.400,153.113 l -1.800,-3.118 M 133.400,158.656 a 5.543,5.543 0 0,1 4.800,-2.771 M 133.400,158.656 l -2.700,4.677 M 138.200,138.564 l 5.400,0.000 M 138.200,155.885 a 5.543,5.543 0 0,1 -4.800,-2.771 M 138.200,155.885 l 3.600,0.000 M 141.800,155.885 a 5.543,5.543 0 0,1 4.800,2.771 M 149.300,163.332 l -2.700,-4.677">
<desc>R06</desc>
</path>
<path stroke="olivedrab" stroke-width="2" stroke-linecap="round"
      fill="none" d="M 43.400,158.656 a 5.543,5.543 0 0,1 4.800,-2.771 M 43.400,158.656 l -2.700,4.677 M 48.200,155.885 l 3.600,0.000 M 51.800,155.885 a 5.543,5.543 0 0,1 4.800,2.771 M 56.600,153.113 a 5.543,5.543 0 0,1 -4.800,2.771 M 56.600,158.656 a 5.543,5.543 0 0,1 0.000,-5.543 M 58.400,161.774 l -1.800,-3.118 M 59.300,148.437 l -2.700,4.677 M 63.200,164.545 a 5.543,5.543 0 0,1 -4.800,-2.771 M 63.200,164.545 l 3.600,0.000 M 71.600,161.774 a 5.543,5.543 0 0,1 -4.800,2.771 M 74.300,157.097 l -2.700,4.677">
<desc>R16</desc>
</path>
<path stroke="limegreen" stroke-width="2" stroke-linecap="round"
      fill="none" d="M 148.400,167.316 a 5.543,5.543 0 0,1 4.800,-2.771 M 148.400,167.316 l -2.700,4.677 M 153.200,164.545 l 3.600,0.000 M 156.800,164.545 a 5.543,5.543 0 0,1 4.800,2.771 M 163.400,170.434 l -1.800,-3.118 M 168.200,173.205 a 5.543,5.543 0 0,1 -4.800,-2.771 M 168.200,173.205 l 3.600,0.000 M 176.600,170.434 a 5.543,5.543 0 0,1 -4.800,2.771 M 178.400,161.774 a 5.543,5.543 0 0,1 0.000,5.543 M 178.400,161.774 l -2.700,-4.677 M 178.400,167.316 l -1.800,3.118">
<desc>S06</desc>
</path>
<path stroke="mediumpurple" stroke-width="2" stroke-linecap="round"
      fill="none" d="M 61.400,129.904 l 5.400,0.000 M 66.800,129.904 a 5.543,5.543 0 0,1 4.800,2.771 M 71.600,149.996 a 5.543,5.543 0 0,1 0.000,-5.543 M 73.400,135.793 a 5.543,5.543 0 0,1 0.000,5.543 M 73.400,135.793 l -1.800,-3.118 M 73.400,141.335 l -1.800,3.118 M 73.400,153.113 l -1.800,-3.118 M 78.200,155.885 a 5.543,5.543 0 0,1 -4.800,-2.771 M 78.200,155.885 l 3.600,0.000 M 81.800,155.885 a 5.543,5.543 0 0,1 4.800,2.771 M 89.300,163.332 l -2.700,-4.677">
<desc>S16</desc>
</path>
<path stroke="orange" stroke-width="2" stroke-linecap="round"
      fill="none" d="M 104.300,171.993 l -2.700,-4.677 M 73.400,170.434 a 5.543,5.543 0 0,1 0.000,5.543 M 73.400,170.434 l -2.700,-4.677 M 73.400,175.976 a 5.543,5.543 0 0,1 4.800,-2.771 M 73.400,175.976 l -2.700,4.677 M 78.200,173.205 a 5.543,5.543 0 0,1 -4.800,-2.771 M 78.200,173.205 l 3.600,0.000 M 86.600,170.434 a 5.543,5.543 0 0,1 -4.800,2.771 M 88.400,167.316 a 5.543,5.543 0 0,1 4.800,-2.771 M 88.400,167.316 l -1.800,3.118 M 93.200,164.545 l 3.600,0.000 M 96.800,164.545 a 5.543,5.543 0 0,1 4.800,2.771">
<desc>S26</desc>
</path>
<path stroke="palegreen" stroke-width="2" stroke-linecap="round"
      fill="none" d="M 148.400,144.453 a 5.543,5.543 0 0,1 0.000,5.543 M 148.400,144.453 l -2.700,-4.677 M 148.400,149.996 a 5.543,5.543 0 0,1 4.800,-2.771 M 148.400,149.996 l -2.700,4.677 M 153.200,147.224 a 5.543,5.543 0 0,1 -4.800,-2.771 M 153.200,147.224 l 3.600,0.000 M 156.800,147.224 a 5.543,5.543 0 0,1 4.800,2.771 M 163.400,153.113 a 5.543,5.543 0 0,1 0.000,5.543 M 163.400,153.113 l -1.800,-3.118 M 163.400,158.656 a 5.543,5.543 0 0,1 4.800,-2.771 M 163.400,158.656 l -2.700,4.677 M 168.200,155.885 a 5.543,5.543 0 0,1 -4.800,-2.771 M 168.200,155.885 l 5.400,0.000">
<desc>U06</desc>
</path>
<path stroke="paleturquoise" stroke-width="2" stroke-linecap="round"
      fill="none" d="M 11.600,167.316 a 5.543,5.543 0 0,1 0.000,-5.543 M 13.400,153.113 a 5.543,5.543 0 0,1 0.000,5.543 M 13.400,153.113 l -2.700,-4.677 M 13.400,158.656 l -1.800,3.118 M 13.400,170.434 l -1.800,-3.118 M 18.200,173.205 a 5.543,5.543 0 0,1 -4.800,-2.771 M 18.200,173.205 l 3.600,0.000 M 26.600,170.434 a 5.543,5.543 0 0,1 -4.800,2.771 M 28.400,167.316 a 5.543,5.543 0 0,1 4.800,-2.771 M 28.400,167.316 l -1.800,3.118 M 33.200,164.545 l 5.400,0.000">
<desc>V06</desc>
</path>
<path stroke="darkorchid" stroke-width="2" stroke-linecap="round"
      fill="none" d="M 56.600,175.976 a 5.543,5.543 0 0,1 0.000,-5.543 M 56.600,193.297 a 5.543,5.543 0 0,1 0.000,-5.543 M 58.400,179.094 a 5.543,5.543 0 0,1 0.000,5.543 M 58.400,179.094 l -1.800,-3.118 M 58.400,184.637 l -1.800,3.118 M 58.400,196.415 l -1.800,-3.118 M 59.300,165.757 l -2.700,4.677 M 63.200,199.186 a 5.543,5.543 0 0,1 -4.800,-2.771 M 63.200,199.186 l 3.600,0.000 M 66.800,199.186 a 5.543,5.543 0 0,1 4.800,2.771 M 74.300,206.634 l -2.700,-4.677">
<desc>W06</desc>
</path>
<path stroke="silver" stroke-width="2" stroke-linecap="round"
      fill="none" d="M 61.400,181.865 l 5.400,0.000 M 66.800,181.865 a 5.543,5.543 0 0,1 4.800,2.771 M 73.400,187.754 a 5.543,5.543 0 0,1 0.000,5.543 M 73.400,187.754 l -1.800,-3.118 M 73.400,193.297 a 5.543,5.543 0 0,1 4.800,-2.771 M 73.400,193.297 l -2.700,4.677 M 78.200,190.526 a 5.543,5.543 0 0,1 -4.800,-2.771 M 78.200,190.526 l 3.600,0.000 M 81.800,190.526 a 5.543,5.543 0 0,1 4.800,2.771 M 86.600,187.754 a 5.543,5.543 0 0,1 -4.800,2.771 M 86.600,193.297 a 5.543,5.543 0 0,1 0.000,-5.543 M 89.300,183.078 l -2.700,4.677 M 89.300,197.973 l -2.700,-4.677">
<desc>X06</desc>
</path>
<path stroke="thistle" stroke-width="2" stroke-linecap="round"
      fill="none" d="M 16.400,155.885 l 5.400,0.000 M 21.800,155.885 a 5.543,5.543 0 0,1 4.800,2.771 M 26.600,153.113 a 5.543,5.543 0 0,1 -4.800,2.771 M 26.600,158.656 a 5.543,5.543 0 0,1 0.000,-5.543 M 28.400,144.453 a 5.543,5.543 0 0,1 0.000,5.543 M 28.400,144.453 l -2.700,-4.677 M 28.400,149.996 a 5.543,5.543 0 0,1 4.800,-2.771 M 28.400,149.996 l -1.800,3.118 M 29.300,163.332 l -2.700,-4.677 M 33.200,147.224 a 5.543,5.543 0 0,1 -4.800,-2.771 M 33.200,147.224 l 3.600,0.000 M 36.800,147.224 a 5.543,5.543 0 0,1 4.800,2.771 M 44.300,154.672 l -2.700,-4.677">
<desc>X16</desc>
</path>
<path stroke="tomato" stroke-width="2" stroke-linecap="round"
      fill="none" d="M 103.400,175.976 a 5.543,5.543 0 0,1 4.800,-2.771 M 103.400,175.976 l -2.700,4.677 M 108.200,173.205 l 3.600,0.000 M 111.800,173.205 a 5.543,5.543 0 0,1 4.800,2.771 M 116.600,170.434 a 5.543,5.543 0 0,1 -4.800,2.771 M 116.600,175.976 a 5.543,5.543 0 0,1 0.000,-5.543 M 118.400,161.774 a 5.543,5.543 0 0,1 0.000,5.543 M 118.400,161.774 l -2.700,-4.677 M 118.400,167.316 l -1.800,3.118 M 118.400,179.094 l -1.800,-3.118 M 123.200,181.865 a 5.543,5.543 0 0,1 -4.800,-2.771 M 123.200,181.865 l 5.400,0.000">
<desc>Y06</desc>
</path>
<path stroke="violet" stroke-width="2" stroke-linecap="round"
      fill="none" d="M 121.400,199.186 l 5.400,0.000 M 131.600,184.637 a 5.543,5.543 0 0,1 0.000,-5.543 M 131.600,196.415 a 5.543,5.543 0 0,1 -4.800,2.771 M 133.400,187.754 a 5.543,5.543 0 0,1 0.000,5.543 M 133.400,187.754 l -1.800,-3.118 M 133.400,193.297 a 5.543,5.543 0 0,1 4.800,-2.771 M 133.400,193.297 l -1.800,3.118 M 134.300,174.418 l -2.700,4.677 M 138.200,190.526 a 5.543,5.543 0 0,1 -4.800,-2.771 M 138.200,190.526 l 3.600,0.000 M 146.600,187.754 a 5.543,5.543 0 0,1 -4.800,2.771 M 149.300,183.078 l -2.700,4.677">
<desc>Y16</desc>
</path>
<path stroke="darkmagenta" stroke-width="2" stroke-linecap="round"
      fill="none" d="M 11.600,132.675 a 5.543,5.543 0 0,1 0.000,-5.543 M 13.400,135.793 a 5.543,5.543 0 0,1 0.000,5.543 M 13.400,135.793 l -1.800,-3.118 M 13.400,141.335 a 5.543,5.543 0 0,1 4.800,-2.771 M 13.400,141.335 l -2.700,4.677 M 14.300,122.456 l -2.700,4.677 M 18.200,138.564 a 5.543,5.543 0 0,1 -4.800,-2.771 M 18.200,138.564 l 3.600,0.000 M 26.600,135.793 a 5.543,5.543 0 0,1 -4.800,2.771 M 28.400,132.675 a 5.543,5.543 0 0,1 4.800,-2.771 M 28.400,132.675 l -1.800,3.118 M 33.200,129.904 l 5.400,0.000">
<desc>Y26</desc>
</path>
</g>
</svg>
