<?xml version="1.0" standalone="no"?>
<!-- Created by Polyform Puzzler (http://puzzler.sourceforge.net/) -->
<svg width="519.615" height="519.615"
     viewBox="0 0 519.615 519.615"
     xmlns="http://www.w3.org/2000/svg"
     xmlns:xlink="http://www.w3.org/1999/xlink">
<g transform="translate(259.808,259.808) rotate(30)">
<path stroke="tan" stroke-width="2" stroke-linecap="round"
      fill="none" d="M 28.400,213.735 a 5.543,5.543 0 0,1 0.000,5.543 M 28.400,213.735 l -2.700,-4.677 M 28.400,219.278 a 5.543,5.543 0 0,1 4.800,-2.771 M 28.400,219.278 l -2.700,4.677 M 33.200,216.506 a 5.543,5.543 0 0,1 -4.800,-2.771 M 33.200,216.506 l 3.600,0.000 M 41.600,201.957 a 5.543,5.543 0 0,1 0.000,-5.543 M 41.600,213.735 a 5.543,5.543 0 0,1 -4.800,2.771 M 43.400,205.075 a 5.543,5.543 0 0,1 0.000,5.543 M 43.400,205.075 l -1.800,-3.118 M 43.400,210.617 l -1.800,3.118 M 44.300,191.738 l -2.700,4.677">
<desc>C06</desc>
</path>
<path stroke="slateblue" stroke-width="2" stroke-linecap="round"
      fill="none" d="M 121.400,181.865 l 5.400,0.000 M 131.600,179.094 a 5.543,5.543 0 0,1 -4.800,2.771 M 133.400,170.434 a 5.543,5.543 0 0,1 0.000,5.543 M 133.400,170.434 l -2.700,-4.677 M 133.400,175.976 a 5.543,5.543 0 0,1 4.800,-2.771 M 133.400,175.976 l -1.800,3.118 M 138.200,173.205 a 5.543,5.543 0 0,1 -4.800,-2.771 M 138.200,173.205 l 3.600,0.000 M 146.600,170.434 a 5.543,5.543 0 0,1 -4.800,2.771 M 148.400,161.774 a 5.543,5.543 0 0,1 0.000,5.543 M 148.400,161.774 l -2.700,-4.677 M 148.400,167.316 l -1.800,3.118">
<desc>F06</desc>
</path>
<path stroke="aquamarine" stroke-width="2" stroke-linecap="round"
      fill="none" d="M 28.400,109.812 l -2.700,-4.677 M 33.200,112.583 a 5.543,5.543 0 0,1 -4.800,-2.771 M 33.200,112.583 l 3.600,0.000 M 36.800,112.583 a 5.543,5.543 0 0,1 4.800,2.771 M 41.600,109.812 a 5.543,5.543 0 0,1 -4.800,2.771 M 41.600,115.355 a 5.543,5.543 0 0,1 0.000,-5.543 M 41.600,132.675 a 5.543,5.543 0 0,1 0.000,-5.543 M 43.400,118.472 a 5.543,5.543 0 0,1 0.000,5.543 M 43.400,118.472 l -1.800,-3.118 M 43.400,124.015 l -1.800,3.118 M 44.300,105.135 l -2.700,4.677 M 44.300,137.352 l -2.700,-4.677">
<desc>H06</desc>
</path>
<path stroke="cadetblue" stroke-width="2" stroke-linecap="round"
      fill="none" d="M 31.400,233.827 l 5.400,0.000 M 41.600,231.056 a 5.543,5.543 0 0,1 -4.800,2.771 M 43.400,222.395 a 5.543,5.543 0 0,1 0.000,5.543 M 43.400,222.395 l -2.700,-4.677 M 43.400,227.938 a 5.543,5.543 0 0,1 4.800,-2.771 M 43.400,227.938 l -1.800,3.118 M 48.200,225.167 a 5.543,5.543 0 0,1 -4.800,-2.771 M 48.200,225.167 l 3.600,0.000 M 56.600,222.395 a 5.543,5.543 0 0,1 -4.800,2.771 M 58.400,219.278 a 5.543,5.543 0 0,1 4.800,-2.771 M 58.400,219.278 l -1.800,3.118 M 63.200,216.506 l 5.400,0.000">
<desc>H16</desc>
</path>
<path stroke="burlywood" stroke-width="2" stroke-linecap="round"
      fill="none" d="M 11.600,184.637 a 5.543,5.543 0 0,1 0.000,-5.543 M 11.600,201.957 a 5.543,5.543 0 0,1 0.000,-5.543 M 11.600,219.278 a 5.543,5.543 0 0,1 0.000,-5.543 M 13.400,187.754 a 5.543,5.543 0 0,1 0.000,5.543 M 13.400,187.754 l -1.800,-3.118 M 13.400,193.297 l -1.800,3.118 M 13.400,205.075 a 5.543,5.543 0 0,1 0.000,5.543 M 13.400,205.075 l -1.800,-3.118 M 13.400,210.617 l -1.800,3.118 M 14.300,174.418 l -2.700,4.677 M 14.300,223.954 l -2.700,-4.677">
<desc>I06</desc>
</path>
<path stroke="crimson" stroke-width="2" stroke-linecap="round"
      fill="none" d="M 11.600,115.355 a 5.543,5.543 0 0,1 0.000,-5.543 M 11.600,98.034 a 5.543,5.543 0 0,1 0.000,-5.543 M 13.400,101.152 a 5.543,5.543 0 0,1 0.000,5.543 M 13.400,101.152 l -1.800,-3.118 M 13.400,106.694 l -1.800,3.118 M 13.400,89.374 a 5.543,5.543 0 0,1 4.800,-2.771 M 13.400,89.374 l -1.800,3.118 M 14.300,120.031 l -2.700,-4.677 M 18.200,86.603 l 3.600,0.000 M 21.800,86.603 a 5.543,5.543 0 0,1 4.800,2.771 M 29.300,94.050 l -2.700,-4.677">
<desc>J06</desc>
</path>
<path stroke="darkgoldenrod" stroke-width="2" stroke-linecap="round"
      fill="none" d="M 103.400,141.335 a 5.543,5.543 0 0,1 4.800,-2.771 M 103.400,141.335 l -2.700,4.677 M 108.200,138.564 l 3.600,0.000 M 111.800,138.564 a 5.543,5.543 0 0,1 4.800,2.771 M 118.400,144.453 l -1.800,-3.118 M 123.200,147.224 a 5.543,5.543 0 0,1 -4.800,-2.771 M 123.200,147.224 l 3.600,0.000 M 126.800,147.224 a 5.543,5.543 0 0,1 4.800,2.771 M 133.400,153.113 l -1.800,-3.118 M 138.200,155.885 a 5.543,5.543 0 0,1 -4.800,-2.771 M 138.200,155.885 l 5.400,0.000">
<desc>L06</desc>
</path>
<path stroke="deepskyblue" stroke-width="2" stroke-linecap="round"
      fill="none" d="M 103.400,153.113 l -1.800,-3.118 M 108.200,155.885 a 5.543,5.543 0 0,1 -4.800,-2.771 M 108.200,155.885 l 3.600,0.000 M 111.800,155.885 a 5.543,5.543 0 0,1 4.800,2.771 M 116.600,153.113 a 5.543,5.543 0 0,1 -4.800,2.771 M 116.600,158.656 a 5.543,5.543 0 0,1 0.000,-5.543 M 119.300,148.437 l -2.700,4.677 M 119.300,163.332 l -2.700,-4.677 M 88.400,144.453 l -2.700,-4.677 M 93.200,147.224 a 5.543,5.543 0 0,1 -4.800,-2.771 M 93.200,147.224 l 3.600,0.000 M 96.800,147.224 a 5.543,5.543 0 0,1 4.800,2.771">
<desc>L16</desc>
</path>
<path stroke="peachpuff" stroke-width="2" stroke-linecap="round"
      fill="none" d="M 28.400,167.316 a 5.543,5.543 0 0,1 4.800,-2.771 M 28.400,167.316 l -2.700,4.677 M 33.200,164.545 l 3.600,0.000 M 36.800,164.545 a 5.543,5.543 0 0,1 4.800,2.771 M 41.600,161.774 a 5.543,5.543 0 0,1 -4.800,2.771 M 41.600,167.316 a 5.543,5.543 0 0,1 0.000,-5.543 M 43.400,170.434 l -1.800,-3.118 M 44.300,157.097 l -2.700,4.677 M 48.200,173.205 a 5.543,5.543 0 0,1 -4.800,-2.771 M 48.200,173.205 l 3.600,0.000 M 51.800,173.205 a 5.543,5.543 0 0,1 4.800,2.771 M 59.300,180.653 l -2.700,-4.677">
<desc>L26</desc>
</path>
<path stroke="darkkhaki" stroke-width="2" stroke-linecap="round"
      fill="none" d="M 11.600,167.316 a 5.543,5.543 0 0,1 0.000,-5.543 M 13.400,170.434 l -1.800,-3.118 M 14.300,157.097 l -2.700,4.677 M 18.200,173.205 a 5.543,5.543 0 0,1 -4.800,-2.771 M 18.200,173.205 l 3.600,0.000 M 21.800,173.205 a 5.543,5.543 0 0,1 4.800,2.771 M 28.400,179.094 l -1.800,-3.118 M 33.200,181.865 a 5.543,5.543 0 0,1 -4.800,-2.771 M 33.200,181.865 l 3.600,0.000 M 41.600,179.094 a 5.543,5.543 0 0,1 -4.800,2.771 M 44.300,174.418 l -2.700,4.677">
<desc>M06</desc>
</path>
<path stroke="darkseagreen" stroke-width="2" stroke-linecap="round"
      fill="none" d="M 11.600,236.598 a 5.543,5.543 0 0,1 0.000,-5.543 M 13.400,227.938 a 5.543,5.543 0 0,1 4.800,-2.771 M 13.400,227.938 l -1.800,3.118 M 13.400,239.716 l -1.800,-3.118 M 18.200,225.167 l 3.600,0.000 M 18.200,242.487 a 5.543,5.543 0 0,1 -4.800,-2.771 M 18.200,242.487 l 3.600,0.000 M 21.800,225.167 a 5.543,5.543 0 0,1 4.800,2.771 M 26.600,239.716 a 5.543,5.543 0 0,1 -4.800,2.771 M 28.400,231.056 a 5.543,5.543 0 0,1 0.000,5.543 M 28.400,231.056 l -1.800,-3.118 M 28.400,236.598 l -1.800,3.118">
<desc>O06</desc>
</path>
<path stroke="deeppink" stroke-width="2" stroke-linecap="round"
      fill="none" d="M 46.400,121.244 l 5.400,0.000 M 56.600,118.472 a 5.543,5.543 0 0,1 -4.800,2.771 M 58.400,115.355 a 5.543,5.543 0 0,1 4.800,-2.771 M 58.400,115.355 l -1.800,3.118 M 61.400,129.904 l 5.400,0.000 M 63.200,112.583 l 3.600,0.000 M 66.800,112.583 a 5.543,5.543 0 0,1 4.800,2.771 M 71.600,127.133 a 5.543,5.543 0 0,1 -4.800,2.771 M 73.400,118.472 a 5.543,5.543 0 0,1 0.000,5.543 M 73.400,118.472 l -1.800,-3.118 M 73.400,124.015 l -1.800,3.118">
<desc>Q06</desc>
</path>
<path stroke="greenyellow" stroke-width="2" stroke-linecap="round"
      fill="none" d="M 46.400,207.846 l 5.400,0.000 M 51.800,207.846 a 5.543,5.543 0 0,1 4.800,2.771 M 56.600,205.075 a 5.543,5.543 0 0,1 -4.800,2.771 M 56.600,210.617 a 5.543,5.543 0 0,1 0.000,-5.543 M 58.400,201.957 a 5.543,5.543 0 0,1 4.800,-2.771 M 58.400,201.957 l -1.800,3.118 M 59.300,215.294 l -2.700,-4.677 M 63.200,199.186 l 3.600,0.000 M 66.800,199.186 a 5.543,5.543 0 0,1 4.800,2.771 M 73.400,205.075 a 5.543,5.543 0 0,1 0.000,5.543 M 73.400,205.075 l -1.800,-3.118 M 73.400,210.617 l -2.700,4.677">
<desc>Q16</desc>
</path>
<path stroke="hotpink" stroke-width="2" stroke-linecap="round"
      fill="none" d="M 73.400,193.297 a 5.543,5.543 0 0,1 4.800,-2.771 M 73.400,193.297 l -2.700,4.677 M 76.400,207.846 l 5.400,0.000 M 78.200,190.526 l 3.600,0.000 M 81.800,190.526 a 5.543,5.543 0 0,1 4.800,2.771 M 86.600,187.754 a 5.543,5.543 0 0,1 -4.800,2.771 M 86.600,193.297 a 5.543,5.543 0 0,1 0.000,-5.543 M 86.600,205.075 a 5.543,5.543 0 0,1 -4.800,2.771 M 88.400,196.415 a 5.543,5.543 0 0,1 0.000,5.543 M 88.400,196.415 l -1.800,-3.118 M 88.400,201.957 l -1.800,3.118 M 89.300,183.078 l -2.700,4.677">
<desc>Q26</desc>
</path>
<path stroke="indianred" stroke-width="2" stroke-linecap="round"
      fill="none" d="M 11.600,132.675 a 5.543,5.543 0 0,1 0.000,-5.543 M 13.400,124.015 a 5.543,5.543 0 0,1 4.800,-2.771 M 13.400,124.015 l -1.800,3.118 M 14.300,137.352 l -2.700,-4.677 M 18.200,121.244 l 3.600,0.000 M 21.800,121.244 a 5.543,5.543 0 0,1 4.800,2.771 M 26.600,118.472 a 5.543,5.543 0 0,1 -4.800,2.771 M 26.600,124.015 a 5.543,5.543 0 0,1 0.000,-5.543 M 28.400,127.133 l -1.800,-3.118 M 29.300,113.796 l -2.700,4.677 M 33.200,129.904 a 5.543,5.543 0 0,1 -4.800,-2.771 M 33.200,129.904 l 5.400,0.000">
<desc>R06</desc>
</path>
<path stroke="olivedrab" stroke-width="2" stroke-linecap="round"
      fill="none" d="M 43.400,187.754 l -2.700,-4.677 M 48.200,190.526 a 5.543,5.543 0 0,1 -4.800,-2.771 M 48.200,190.526 l 3.600,0.000 M 51.800,190.526 a 5.543,5.543 0 0,1 4.800,2.771 M 56.600,187.754 a 5.543,5.543 0 0,1 -4.800,2.771 M 56.600,193.297 a 5.543,5.543 0 0,1 0.000,-5.543 M 58.400,184.637 a 5.543,5.543 0 0,1 4.800,-2.771 M 58.400,184.637 l -1.800,3.118 M 59.300,197.973 l -2.700,-4.677 M 63.200,181.865 l 3.600,0.000 M 66.800,181.865 a 5.543,5.543 0 0,1 4.800,2.771 M 74.300,189.313 l -2.700,-4.677">
<desc>R16</desc>
</path>
<path stroke="limegreen" stroke-width="2" stroke-linecap="round"
      fill="none" d="M 101.600,196.415 a 5.543,5.543 0 0,1 -4.800,2.771 M 103.400,187.754 a 5.543,5.543 0 0,1 0.000,5.543 M 103.400,187.754 l -1.800,-3.118 M 103.400,193.297 l -1.800,3.118 M 86.600,175.976 a 5.543,5.543 0 0,1 0.000,-5.543 M 88.400,179.094 l -1.800,-3.118 M 89.300,165.757 l -2.700,4.677 M 91.400,199.186 l 5.400,0.000 M 93.200,181.865 a 5.543,5.543 0 0,1 -4.800,-2.771 M 93.200,181.865 l 3.600,0.000 M 96.800,181.865 a 5.543,5.543 0 0,1 4.800,2.771">
<desc>S06</desc>
</path>
<path stroke="mediumpurple" stroke-width="2" stroke-linecap="round"
      fill="none" d="M 106.400,190.526 l 5.400,0.000 M 116.600,175.976 a 5.543,5.543 0 0,1 0.000,-5.543 M 116.600,187.754 a 5.543,5.543 0 0,1 -4.800,2.771 M 118.400,167.316 a 5.543,5.543 0 0,1 4.800,-2.771 M 118.400,167.316 l -1.800,3.118 M 118.400,179.094 a 5.543,5.543 0 0,1 0.000,5.543 M 118.400,179.094 l -1.800,-3.118 M 118.400,184.637 l -1.800,3.118 M 123.200,164.545 l 3.600,0.000 M 131.600,161.774 a 5.543,5.543 0 0,1 -4.800,2.771 M 134.300,157.097 l -2.700,4.677">
<desc>S16</desc>
</path>
<path stroke="orange" stroke-width="2" stroke-linecap="round"
      fill="none" d="M 28.400,144.453 a 5.543,5.543 0 0,1 0.000,5.543 M 28.400,144.453 l -2.700,-4.677 M 28.400,149.996 a 5.543,5.543 0 0,1 4.800,-2.771 M 28.400,149.996 l -2.700,4.677 M 33.200,147.224 a 5.543,5.543 0 0,1 -4.800,-2.771 M 33.200,147.224 l 3.600,0.000 M 36.800,147.224 a 5.543,5.543 0 0,1 4.800,2.771 M 43.400,153.113 l -1.800,-3.118 M 48.200,155.885 a 5.543,5.543 0 0,1 -4.800,-2.771 M 48.200,155.885 l 3.600,0.000 M 56.600,153.113 a 5.543,5.543 0 0,1 -4.800,2.771 M 59.300,148.437 l -2.700,4.677">
<desc>S26</desc>
</path>
<path stroke="palegreen" stroke-width="2" stroke-linecap="round"
      fill="none" d="M 58.400,161.774 a 5.543,5.543 0 0,1 0.000,5.543 M 58.400,161.774 l -2.700,-4.677 M 58.400,167.316 a 5.543,5.543 0 0,1 4.800,-2.771 M 58.400,167.316 l -2.700,4.677 M 63.200,164.545 a 5.543,5.543 0 0,1 -4.800,-2.771 M 63.200,164.545 l 3.600,0.000 M 66.800,164.545 a 5.543,5.543 0 0,1 4.800,2.771 M 73.400,170.434 a 5.543,5.543 0 0,1 0.000,5.543 M 73.400,170.434 l -1.800,-3.118 M 73.400,175.976 a 5.543,5.543 0 0,1 4.800,-2.771 M 73.400,175.976 l -2.700,4.677 M 78.200,173.205 a 5.543,5.543 0 0,1 -4.800,-2.771 M 78.200,173.205 l 5.400,0.000">
<desc>U06</desc>
</path>
<path stroke="paleturquoise" stroke-width="2" stroke-linecap="round"
      fill="none" d="M 11.600,149.996 a 5.543,5.543 0 0,1 0.000,-5.543 M 13.400,141.335 a 5.543,5.543 0 0,1 4.800,-2.771 M 13.400,141.335 l -1.800,3.118 M 13.400,153.113 l -1.800,-3.118 M 18.200,138.564 l 3.600,0.000 M 18.200,155.885 a 5.543,5.543 0 0,1 -4.800,-2.771 M 18.200,155.885 l 3.600,0.000 M 21.800,155.885 a 5.543,5.543 0 0,1 4.800,2.771 M 26.600,135.793 a 5.543,5.543 0 0,1 -4.800,2.771 M 29.300,131.116 l -2.700,4.677 M 29.300,163.332 l -2.700,-4.677">
<desc>V06</desc>
</path>
<path stroke="darkorchid" stroke-width="2" stroke-linecap="round"
      fill="none" d="M 16.400,103.923 l 5.400,0.000 M 26.600,101.152 a 5.543,5.543 0 0,1 -4.800,2.771 M 28.400,98.034 a 5.543,5.543 0 0,1 4.800,-2.771 M 28.400,98.034 l -1.800,3.118 M 33.200,95.263 l 3.600,0.000 M 36.800,95.263 a 5.543,5.543 0 0,1 4.800,2.771 M 43.400,101.152 l -1.800,-3.118 M 48.200,103.923 a 5.543,5.543 0 0,1 -4.800,-2.771 M 48.200,103.923 l 3.600,0.000 M 51.800,103.923 a 5.543,5.543 0 0,1 4.800,2.771 M 59.300,111.371 l -2.700,-4.677">
<desc>W06</desc>
</path>
<path stroke="silver" stroke-width="2" stroke-linecap="round"
      fill="none" d="M 101.600,161.774 a 5.543,5.543 0 0,1 -4.800,2.771 M 101.600,167.316 a 5.543,5.543 0 0,1 0.000,-5.543 M 103.400,170.434 a 5.543,5.543 0 0,1 0.000,5.543 M 103.400,170.434 l -1.800,-3.118 M 103.400,175.976 a 5.543,5.543 0 0,1 4.800,-2.771 M 103.400,175.976 l -2.700,4.677 M 104.300,157.097 l -2.700,4.677 M 108.200,173.205 a 5.543,5.543 0 0,1 -4.800,-2.771 M 108.200,173.205 l 5.400,0.000 M 88.400,161.774 l -2.700,-4.677 M 93.200,164.545 a 5.543,5.543 0 0,1 -4.800,-2.771 M 93.200,164.545 l 3.600,0.000 M 96.800,164.545 a 5.543,5.543 0 0,1 4.800,2.771">
<desc>X06</desc>
</path>
<path stroke="thistle" stroke-width="2" stroke-linecap="round"
      fill="none" d="M 16.400,190.526 l 5.400,0.000 M 16.400,207.846 l 5.400,0.000 M 21.800,190.526 a 5.543,5.543 0 0,1 4.800,2.771 M 26.600,187.754 a 5.543,5.543 0 0,1 -4.800,2.771 M 26.600,193.297 a 5.543,5.543 0 0,1 0.000,-5.543 M 26.600,205.075 a 5.543,5.543 0 0,1 -4.800,2.771 M 28.400,196.415 a 5.543,5.543 0 0,1 0.000,5.543 M 28.400,196.415 l -1.800,-3.118 M 28.400,201.957 a 5.543,5.543 0 0,1 4.800,-2.771 M 28.400,201.957 l -1.800,3.118 M 29.300,183.078 l -2.700,4.677 M 33.200,199.186 a 5.543,5.543 0 0,1 -4.800,-2.771 M 33.200,199.186 l 5.400,0.000">
<desc>X16</desc>
</path>
<path stroke="tomato" stroke-width="2" stroke-linecap="round"
      fill="none" d="M 43.400,141.335 a 5.543,5.543 0 0,1 4.800,-2.771 M 43.400,141.335 l -2.700,4.677 M 48.200,138.564 l 3.600,0.000 M 51.800,138.564 a 5.543,5.543 0 0,1 4.800,2.771 M 56.600,135.793 a 5.543,5.543 0 0,1 -4.800,2.771 M 56.600,141.335 a 5.543,5.543 0 0,1 0.000,-5.543 M 58.400,127.133 a 5.543,5.543 0 0,1 0.000,5.543 M 58.400,127.133 l -2.700,-4.677 M 58.400,132.675 l -1.800,3.118 M 58.400,144.453 l -1.800,-3.118 M 63.200,147.224 a 5.543,5.543 0 0,1 -4.800,-2.771 M 63.200,147.224 l 5.400,0.000">
<desc>Y06</desc>
</path>
<path stroke="violet" stroke-width="2" stroke-linecap="round"
      fill="none" d="M 104.300,137.352 l -2.700,-4.677 M 76.400,121.244 l 5.400,0.000 M 76.400,138.564 l 5.400,0.000 M 81.800,121.244 a 5.543,5.543 0 0,1 4.800,2.771 M 86.600,135.793 a 5.543,5.543 0 0,1 -4.800,2.771 M 88.400,127.133 a 5.543,5.543 0 0,1 0.000,5.543 M 88.400,127.133 l -1.800,-3.118 M 88.400,132.675 a 5.543,5.543 0 0,1 4.800,-2.771 M 88.400,132.675 l -1.800,3.118 M 93.200,129.904 a 5.543,5.543 0 0,1 -4.800,-2.771 M 93.200,129.904 l 3.600,0.000 M 96.800,129.904 a 5.543,5.543 0 0,1 4.800,2.771">
<desc>Y16</desc>
</path>
<path stroke="darkmagenta" stroke-width="2" stroke-linecap="round"
      fill="none" d="M 71.600,149.996 a 5.543,5.543 0 0,1 0.000,-5.543 M 73.400,135.793 a 5.543,5.543 0 0,1 0.000,5.543 M 73.400,135.793 l -2.700,-4.677 M 73.400,141.335 l -1.800,3.118 M 73.400,153.113 a 5.543,5.543 0 0,1 0.000,5.543 M 73.400,153.113 l -1.800,-3.118 M 73.400,158.656 a 5.543,5.543 0 0,1 4.800,-2.771 M 73.400,158.656 l -2.700,4.677 M 78.200,155.885 a 5.543,5.543 0 0,1 -4.800,-2.771 M 78.200,155.885 l 3.600,0.000 M 86.600,153.113 a 5.543,5.543 0 0,1 -4.800,2.771 M 89.300,148.437 l -2.700,4.677">
<desc>Y26</desc>
</path>
</g>
</svg>
