<?xml version="1.0" encoding="UTF-8" standalone="no"?>
<svg
   xmlns:dc="http://purl.org/dc/elements/1.1/"
   xmlns:cc="http://creativecommons.org/ns#"
   xmlns:rdf="http://www.w3.org/1999/02/22-rdf-syntax-ns#"
   xmlns:svg="http://www.w3.org/2000/svg"
   xmlns="http://www.w3.org/2000/svg"
   xmlns:sodipodi="http://sodipodi.sourceforge.net/DTD/sodipodi-0.dtd"
   xmlns:inkscape="http://www.inkscape.org/namespaces/inkscape"
   width="1769.172"
   height="1018.1212"
   id="svg2884"
   version="1.1"
   inkscape:version="0.48.2 r9819"
   sodipodi:docname="hexatwigs-pieces-esser.svg">
  <metadata
     id="metadata2948">
    <rdf:RDF>
      <cc:Work
         rdf:about="">
        <dc:format>image/svg+xml</dc:format>
        <dc:type
           rdf:resource="http://purl.org/dc/dcmitype/StillImage" />
        <dc:title />
      </cc:Work>
    </rdf:RDF>
  </metadata>
  <sodipodi:namedview
     pagecolor="#ffffff"
     bordercolor="#666666"
     borderopacity="1"
     objecttolerance="10"
     gridtolerance="10"
     guidetolerance="10"
     inkscape:pageopacity="0"
     inkscape:pageshadow="2"
     inkscape:window-width="1920"
     inkscape:window-height="1056"
     id="namedview2946"
     showgrid="false"
     inkscape:zoom="0.3337544"
     inkscape:cx="875.98108"
     inkscape:cy="684.57551"
     inkscape:window-x="0"
     inkscape:window-y="24"
     inkscape:window-maximized="1"
     inkscape:current-layer="svg2884"
     fit-margin-top="10"
     fit-margin-left="10"
     fit-margin-right="10"
     fit-margin-bottom="10" />
  <defs
     id="defs2886">
    <inkscape:perspective
       sodipodi:type="inkscape:persp3d"
       inkscape:vp_x="0 : 4000 : 1"
       inkscape:vp_y="0 : 1000 : 0"
       inkscape:vp_z="1800 : 4000 : 1"
       inkscape:persp3d-origin="900 : 2666.6667 : 1"
       id="perspective2950" />
    <style
       type="text/css"
       id="style2888"> path {fill:none; stroke:black } line {stroke:black} </style>
  </defs>
  <path
     d="m 1167.5391,738.6535 0,0 90,0 15,8.6602 45,77.9423 90,0 45,-77.9423 15,8.6603 -45,77.9423 -15,8.6602 -90,0 -45,77.9423 45,77.9422 -15,8.6602 -45,-77.9421 0,-17.3205 45,-77.9423 -45,-77.9423 -90,0 0,-17.3205 z"
     id="path2890"
     style="fill:none;stroke:#000000;stroke-width:2"
     inkscape:connector-curvature="0" />
  <path
     d="m 917.24686,504.9487 0,0 89.99994,0 15,8.6603 45,77.9422 90,0 45,-77.9422 15,8.6602 -45,77.9423 -15,8.6603 -90,0 -45,77.9422 -15,8.6603 -89.99994,0 0,-17.3205 89.99994,0 45,-77.9423 -45,-77.9423 -89.99994,0 0,-17.3205 z"
     id="path2892"
     style="fill:none;stroke:#000000;stroke-width:2"
     inkscape:connector-curvature="0" />
  <path
     d="m 583.06056,22.558 0,0 90,0 15,8.6603 45,77.9423 90,0 45,-77.9423 15,8.6602 -45,77.9423 45,77.9423 0,17.3205 -45,77.9423 -15,-8.6602 45,-77.9423 -45,-77.9423 -90,0 -15,-8.6603 -45,-77.9423 -90,0 0,-17.3205 z"
     id="path2894"
     style="fill:none;stroke:#000000;stroke-width:2"
     inkscape:connector-curvature="0" />
  <path
     d="m 1222.6442,19.5618 0,0 90,0 15,8.6603 45,77.9423 90,0 45,-77.9423 15,8.6602 -45,77.9423 45,77.9423 90,0 0,17.3205 -90,0 -15,-8.6603 -45,-77.9422 -90,0 -15,-8.6603 -45,-77.9423 -90,0 0,-17.3205 z"
     id="path2896"
     style="fill:none;stroke:#000000;stroke-width:2"
     inkscape:connector-curvature="0" />
  <path
     d="m 373.54204,57.8646 0,0 90,0 15,8.6603 45,77.9422 90,0 0,17.3206 -90,0 -45,77.9422 45,77.9423 90,0 0,17.3205 -90,0 -15,-8.6602 -45,-77.9423 0,-17.3205 45,-77.9423 -45,-77.9423 -90,0 0,-17.3205 z"
     id="path2898"
     style="fill:none;stroke:#000000;stroke-width:2"
     inkscape:connector-curvature="0" />
  <path
     d="m 545.64045,75.8419 0,0 90,0 15,8.6603 45,77.9422 90,0 0,17.3205 -90,0 -45,77.9423 45,77.9423 -15,8.6603 -45,-77.9423 -90,0 0,-17.3205 90,0 45,-77.9423 -45,-77.9423 -90,0 0,-17.3205 z"
     id="path2900"
     style="fill:none;stroke:#000000;stroke-width:2"
     inkscape:connector-curvature="0" />
  <path
     d="m 1212.1143,114.7927 0,0 90,0 15,8.6603 45,77.9422 90,0 15,8.6603 45,77.9423 90,0 45,-77.9423 15,8.6602 -45,77.9423 -15,8.6603 -90,0 -15,-8.6603 -45,-77.9423 -90,0 -15,-8.6602 -45,-77.9423 -90,0 0,-17.3205 z"
     id="path2902"
     style="fill:none;stroke:#000000;stroke-width:2"
     inkscape:connector-curvature="0" />
  <path
     d="m 321.1998,550.7202 0,0 -90,0 -15,-8.6603 -45,-77.9422 -90.000004,0 -15.000002,-8.6603 -45,-77.9423 0,-17.3205 45,-77.9424 15.000002,-8.6602 90.000004,0 0,17.3205 -90.000004,0 -45.000002,77.9424 45.000002,77.9422 90.000004,0 15,8.6603 45,77.9423 90,0 0,17.3205 z"
     id="path2904"
     style="fill:none;stroke:#000000;stroke-width:2"
     inkscape:connector-curvature="0" />
  <path
     d="m 1017.7283,81.1977 0,0 90,0 15,8.6602 45,77.9423 90,0 15,8.6603 45,77.9423 90,0 15,8.6602 45,77.9423 -15,8.6602 -45,-77.9422 -90,0 -15,-8.6603 -45,-77.9423 -90,0 -15,-8.6602 -45,-77.9423 -90,0 0,-17.3205 z"
     id="path2906"
     style="fill:none;stroke:#000000;stroke-width:2"
     inkscape:connector-curvature="0" />
  <path
     d="m 968.37172,141.122 0,0 89.99998,0 15,8.6602 45,77.9423 90,0 15,8.6603 45,77.9423 90,0 0,17.3205 -90,0 -45,77.9423 -15,-8.6603 45,-77.9423 -45,-77.9423 -90,0 -15,-8.6602 -45,-77.9423 -89.99998,0 0,-17.3205 z"
     id="path2908"
     style="fill:none;stroke:#000000;stroke-width:2"
     inkscape:connector-curvature="0" />
  <path
     d="m 350.03694,325.6958 0,0 -90,0 -15,-8.6602 -45,-77.9423 -90,0 -15.000004,-8.6602 -44.999997,-77.9423 0,-17.3205 44.999997,-77.9423 15.000004,8.6603 -45.000001,77.9422 45.000001,77.9423 90,0 45,-77.9423 15,8.6603 -45,77.9423 45,77.9422 90,0 0,17.3205 z"
     id="path2910"
     style="fill:none;stroke:#000000;stroke-width:2"
     inkscape:connector-curvature="0" />
  <path
     d="m 1758.172,714.8435 0,0 -90,0 -15,-8.6603 -45,-77.9422 -90,0 -45,77.9422 -15.0001,-8.6602 45.0001,-77.9423 -45.0001,-77.9423 15.0001,-8.6602 45,77.9422 90,0 45,-77.9422 15,8.6602 -45,77.9423 45,77.9423 90,0 0,17.3205 z"
     id="path2912"
     style="fill:none;stroke:#000000;stroke-width:2"
     inkscape:connector-curvature="0" />
  <path
     d="m 1285.7813,383.1674 0,0 90,0 15,8.6602 45,77.9423 90,0 45,-77.9423 15,-8.6602 90,0 0,17.3205 -90,0 -45,77.9422 -15,8.6603 -90,0 -45,77.9423 -15,-8.6603 45,-77.9423 -45,-77.9422 -90,0 0,-17.3205 z"
     id="path2914"
     style="fill:none;stroke:#000000;stroke-width:2"
     inkscape:connector-curvature="0" />
  <path
     d="m 694.03407,374.1787 0,0 90,0 15,8.6603 45,77.9423 0,17.3205 -45,77.9423 45,77.9423 90,0 45.00001,-77.9423 15,8.6602 -45.00001,77.9423 -15,8.6603 -90,0 -15,-8.6603 -45,-77.9423 0,-17.3205 45,-77.9423 -45,-77.9422 -90,0 0,-17.3206 z"
     id="path2916"
     style="fill:none;stroke:#000000;stroke-width:2"
     inkscape:connector-curvature="0" />
  <path
     d="m 26,628.2204 0,0 45,77.9423 90,0 45,-77.9423 15,8.6602 -45,77.9423 -15,8.6603 -90,0 -45,77.9423 45,77.9422 90,0 0,17.3206 -90,0 -15,-8.6603 -45,-77.9422 0,-17.3205 45,-77.9424 -45,-77.9423 15,-8.6602 z"
     id="path2918"
     style="fill:none;stroke:#000000;stroke-width:2"
     inkscape:connector-curvature="0" />
  <path
     d="m 763.51718,438.4603 0,0 0,90 -8.6603,15 -77.9423,45 -17.3205,0 -77.9423,-45 -77.9423,45 -17.3205,0 -77.9423,-45 -8.6602,-15 0,-90 17.3205,0 0,90 77.9423,45 77.9423,-45 17.3205,0 77.9423,45 77.9423,-45 0,-90 17.3205,0 z"
     id="path2920"
     style="fill:none;stroke:#000000;stroke-width:2"
     inkscape:connector-curvature="0" />
  <path
     d="m 238.19303,484.4021 0,0 90,0 15,8.6602 45,77.9423 0,17.3205 -45,77.9423 45,77.9423 90,0 0,17.3205 -90,0 -45,77.9423 -15,-8.6602 45,-77.9423 -45,-77.9424 0,-17.3205 45,-77.9423 -45,-77.9422 -90,0 0,-17.3205 z"
     id="path2922"
     style="fill:none;stroke:#000000;stroke-width:2"
     inkscape:connector-curvature="0" />
  <path
     d="m 155.63207,11 0,0 45,77.9423 90,0 15,8.6603 45,77.9423 90,0 0,17.3205 -90,0 -45,77.9423 -15,-8.6603 45,-77.9423 -45,-77.9423 -90,0 -45,77.9423 -15,-8.6602 45,-77.9423 -45,-77.9423 15,-8.6603 z"
     id="path2924"
     style="fill:none;stroke:#000000;stroke-width:2"
     inkscape:connector-curvature="0" />
  <path
     d="m 891.09462,127.8524 0,0 45,77.9423 89.99998,0 15,8.6603 45,77.9423 90,0 0,17.3205 -90,0 -15,-8.6603 -45,-77.9423 -89.99998,0 -45,77.9423 45,77.9423 -15,8.6603 -45,-77.9423 0,-17.3205 45,-77.9423 -45,-77.9423 15,-8.6603 z"
     id="path2926"
     style="fill:none;stroke:#000000;stroke-width:2"
     inkscape:connector-curvature="0" />
  <path
     d="m 1221.717,965.0742 0,0 -45,-77.9423 -90,0 -15,-8.6603 -45,-77.9422 0,-17.3205 45,-77.9423 15,-8.6602 90,0 0,17.3205 -90,0 -45,77.9421 45,77.9424 90,0 45,-77.9424 15,8.6604 -45,77.9422 45,77.9424 -15,8.6602 z"
     id="path2928"
     style="fill:none;stroke:#000000;stroke-width:2"
     inkscape:connector-curvature="0" />
  <path
     d="m 803.29602,666.6443 0,0 45,77.9423 90,0 15,8.6602 44.99996,77.9424 0,17.3205 -44.99996,77.9422 -15,-8.6602 44.99996,-77.9423 -44.99996,-77.9423 -90,0 -45,77.9423 45,77.9423 -15,8.6602 -45,-77.9422 0,-17.3205 45,-77.9424 -45,-77.9422 15,-8.6603 z"
     id="path2930"
     style="fill:none;stroke:#000000;stroke-width:2"
     inkscape:connector-curvature="0" />
  <path
     d="m 1023.2771,346.0493 0,0 90,0 15,8.6602 45,77.9423 90,0 15,8.6603 45,77.9422 0,17.3206 -45,77.9422 45,77.9423 -15,8.6603 -45,-77.9423 0,-17.3205 45,-77.9423 -45,-77.9423 -90,0 -15,-8.6602 -45,-77.9423 -90,0 0,-17.3205 z"
     id="path2932"
     style="fill:none;stroke:#000000;stroke-width:2"
     inkscape:connector-curvature="0" />
  <path
     d="m 92.843966,352.0418 0,0 90.000004,0 15,8.6602 45,77.9423 90,0 45,-77.9423 15,-8.6602 90,0 15,8.6602 45,77.9423 -15,8.6603 -45,-77.9423 -90,0 -45,77.9423 -15,8.6602 -90,0 -15,-8.6602 -45,-77.9423 -90.000004,0 0,-17.3205 z"
     id="path2934"
     style="fill:none;stroke:#000000;stroke-width:2"
     inkscape:connector-curvature="0" />
  <path
     d="m 412.51176,615.1704 0,0 45,77.9423 90,0 15,8.6602 45,77.9423 0,17.3206 -45,77.9421 -15,8.6604 -90,0 -15,-8.6604 -45,-77.9421 15,-8.6604 45,77.9424 90,0 45,-77.9424 -45,-77.9422 -90,0 -15,-8.6603 -45,-77.9423 15,-8.6602 z"
     id="path2936"
     style="fill:none;stroke:#000000;stroke-width:2"
     inkscape:connector-curvature="0" />
  <path
     d="m 579.85618,606.1817 0,0 45,77.9423 90,0 15,8.6602 45,77.9424 0,17.3205 -45,77.9423 -15,8.6603 -90,0 -45,77.9423 -15,-8.6603 45,-77.9423 15,-8.6602 90,0 45,-77.9423 -45,-77.9424 -90,0 -15,-8.6603 -45,-77.9422 15,-8.6603 z"
     id="path2942"
     style="fill:none;stroke:#000000;stroke-width:2"
     inkscape:connector-curvature="0" />
  <path
     d="m 92.749396,489.3293 0,0 45.000004,77.9423 90,0 15,8.6603 45,77.9423 0,17.3205 -45,77.9423 45,77.9423 -15,8.6602 -45,-77.9423 0,-17.3205 45,-77.9423 -45,-77.9423 -90,0 -45.000004,77.9423 -15,-8.6602 45.000004,-77.9423 -45.000004,-77.9423 15,-8.6603 z"
     id="path2944"
     style="fill:none;stroke:#000000;stroke-width:2"
     inkscape:connector-curvature="0" />
  <path
     id="path2952"
     d="m 1546.4142,741.0115 0,0 90,0 15,8.6602 45,77.9423 0,17.3205 -45,77.9423 -15,8.6602 -90,0 -15,-8.6602 -45,-77.9423 0,-17.3205 45,-77.9423 15,-8.6602 z"
     style="fill:none;stroke:#000000;stroke-width:2"
     inkscape:connector-curvature="0" />
  <path
     id="path2954"
     d="m 1636.4142,758.332 0,0 -90,0 -45,77.9422 45,77.9423 90,0 45,-77.9423 -45,-77.9422 z"
     style="fill:none;stroke:#000000;stroke-width:2"
     inkscape:connector-curvature="0" />
</svg>
