<?xml version="1.0" standalone="no"?>
<!-- Created by Polyform Puzzler (http://puzzler.sourceforge.net/) -->
<svg width="1039.230" height="1039.230"
     viewBox="0 0 1039.230 1039.230"
     xmlns="http://www.w3.org/2000/svg"
     xmlns:xlink="http://www.w3.org/1999/xlink">
<g transform="translate(519.615,259.808) rotate(30)">
<path stroke="tan" stroke-width="2" stroke-linecap="round"
      fill="none" d="M 43.400,464.882 a 5.543,5.543 0 0,1 0.000,5.543 M 43.400,464.882 l -2.700,-4.677 M 43.400,470.425 a 5.543,5.543 0 0,1 4.800,-2.771 M 43.400,470.425 l -2.700,4.677 M 48.200,467.654 a 5.543,5.543 0 0,1 -4.800,-2.771 M 48.200,467.654 l 3.600,0.000 M 56.600,453.104 a 5.543,5.543 0 0,1 0.000,-5.543 M 56.600,464.882 a 5.543,5.543 0 0,1 -4.800,2.771 M 58.400,456.222 a 5.543,5.543 0 0,1 0.000,5.543 M 58.400,456.222 l -1.800,-3.118 M 58.400,461.765 l -1.800,3.118 M 59.300,442.885 l -2.700,4.677">
<desc>C06</desc>
</path>
<path stroke="slateblue" stroke-width="2" stroke-linecap="round"
      fill="none" d="M 11.600,461.765 a 5.543,5.543 0 0,1 0.000,-5.543 M 11.600,479.085 a 5.543,5.543 0 0,1 0.000,-5.543 M 13.400,464.882 a 5.543,5.543 0 0,1 0.000,5.543 M 13.400,464.882 l -1.800,-3.118 M 13.400,470.425 a 5.543,5.543 0 0,1 4.800,-2.771 M 13.400,470.425 l -1.800,3.118 M 13.400,482.203 l -1.800,-3.118 M 14.300,451.546 l -2.700,4.677 M 18.200,467.654 a 5.543,5.543 0 0,1 -4.800,-2.771 M 18.200,467.654 l 5.400,0.000 M 18.200,484.974 a 5.543,5.543 0 0,1 -4.800,-2.771 M 18.200,484.974 l 5.400,0.000">
<desc>F06</desc>
</path>
<path stroke="aquamarine" stroke-width="2" stroke-linecap="round"
      fill="none" d="M 101.600,444.444 a 5.543,5.543 0 0,1 0.000,-5.543 M 101.600,456.222 a 5.543,5.543 0 0,1 -4.800,2.771 M 103.400,447.562 a 5.543,5.543 0 0,1 0.000,5.543 M 103.400,447.562 l -1.800,-3.118 M 103.400,453.104 a 5.543,5.543 0 0,1 4.800,-2.771 M 103.400,453.104 l -1.800,3.118 M 104.300,434.225 l -2.700,4.677 M 108.200,450.333 a 5.543,5.543 0 0,1 -4.800,-2.771 M 108.200,450.333 l 5.400,0.000 M 88.400,461.765 a 5.543,5.543 0 0,1 4.800,-2.771 M 88.400,461.765 l -2.700,4.677 M 93.200,458.993 l 3.600,0.000">
<desc>H06</desc>
</path>
<path stroke="cadetblue" stroke-width="2" stroke-linecap="round"
      fill="none" d="M 46.400,484.974 l 5.400,0.000 M 56.600,482.203 a 5.543,5.543 0 0,1 -4.800,2.771 M 58.400,473.543 a 5.543,5.543 0 0,1 0.000,5.543 M 58.400,473.543 l -2.700,-4.677 M 58.400,479.085 a 5.543,5.543 0 0,1 4.800,-2.771 M 58.400,479.085 l -1.800,3.118 M 63.200,476.314 a 5.543,5.543 0 0,1 -4.800,-2.771 M 63.200,476.314 l 3.600,0.000 M 71.600,473.543 a 5.543,5.543 0 0,1 -4.800,2.771 M 73.400,470.425 a 5.543,5.543 0 0,1 4.800,-2.771 M 73.400,470.425 l -1.800,3.118 M 78.200,467.654 l 5.400,0.000">
<desc>H16</desc>
</path>
<path stroke="burlywood" stroke-width="2" stroke-linecap="round"
      fill="none" d="M 148.400,375.162 a 5.543,5.543 0 0,1 4.800,-2.771 M 148.400,375.162 l -2.700,4.677 M 153.200,372.391 l 3.600,0.000 M 161.600,369.620 a 5.543,5.543 0 0,1 -4.800,2.771 M 163.400,366.502 a 5.543,5.543 0 0,1 4.800,-2.771 M 163.400,366.502 l -1.800,3.118 M 168.200,363.731 l 3.600,0.000 M 176.600,360.959 a 5.543,5.543 0 0,1 -4.800,2.771 M 178.400,357.842 a 5.543,5.543 0 0,1 4.800,-2.771 M 178.400,357.842 l -1.800,3.118 M 183.200,355.070 l 5.400,0.000">
<desc>I06</desc>
</path>
<path stroke="crimson" stroke-width="2" stroke-linecap="round"
      fill="none" d="M 56.600,435.784 a 5.543,5.543 0 0,1 0.000,-5.543 M 58.400,427.124 a 5.543,5.543 0 0,1 4.800,-2.771 M 58.400,427.124 l -1.800,3.118 M 58.400,438.902 l -1.800,-3.118 M 63.200,424.352 l 3.600,0.000 M 63.200,441.673 a 5.543,5.543 0 0,1 -4.800,-2.771 M 63.200,441.673 l 5.400,0.000 M 71.600,421.581 a 5.543,5.543 0 0,1 -4.800,2.771 M 73.400,418.463 a 5.543,5.543 0 0,1 4.800,-2.771 M 73.400,418.463 l -1.800,3.118 M 78.200,415.692 l 5.400,0.000">
<desc>J06</desc>
</path>
<path stroke="darkgoldenrod" stroke-width="2" stroke-linecap="round"
      fill="none" d="M 121.400,441.673 l 5.400,0.000 M 131.600,409.803 a 5.543,5.543 0 0,1 0.000,-5.543 M 131.600,427.124 a 5.543,5.543 0 0,1 0.000,-5.543 M 131.600,438.902 a 5.543,5.543 0 0,1 -4.800,2.771 M 133.400,412.921 a 5.543,5.543 0 0,1 0.000,5.543 M 133.400,412.921 l -1.800,-3.118 M 133.400,418.463 l -1.800,3.118 M 133.400,430.241 a 5.543,5.543 0 0,1 0.000,5.543 M 133.400,430.241 l -1.800,-3.118 M 133.400,435.784 l -1.800,3.118 M 134.300,399.584 l -2.700,4.677">
<desc>L06</desc>
</path>
<path stroke="deepskyblue" stroke-width="2" stroke-linecap="round"
      fill="none" d="M 61.400,458.993 l 5.400,0.000 M 66.800,458.993 a 5.543,5.543 0 0,1 4.800,2.771 M 71.600,444.444 a 5.543,5.543 0 0,1 0.000,-5.543 M 71.600,456.222 a 5.543,5.543 0 0,1 -4.800,2.771 M 71.600,461.765 a 5.543,5.543 0 0,1 0.000,-5.543 M 73.400,430.241 a 5.543,5.543 0 0,1 0.000,5.543 M 73.400,430.241 l -2.700,-4.677 M 73.400,435.784 l -1.800,3.118 M 73.400,447.562 a 5.543,5.543 0 0,1 0.000,5.543 M 73.400,447.562 l -1.800,-3.118 M 73.400,453.104 l -1.800,3.118 M 74.300,466.441 l -2.700,-4.677">
<desc>L16</desc>
</path>
<path stroke="peachpuff" stroke-width="2" stroke-linecap="round"
      fill="none" d="M 16.400,450.333 l 5.400,0.000 M 21.800,450.333 a 5.543,5.543 0 0,1 4.800,2.771 M 26.600,447.562 a 5.543,5.543 0 0,1 -4.800,2.771 M 26.600,453.104 a 5.543,5.543 0 0,1 0.000,-5.543 M 26.600,470.425 a 5.543,5.543 0 0,1 0.000,-5.543 M 28.400,444.444 a 5.543,5.543 0 0,1 4.800,-2.771 M 28.400,444.444 l -1.800,3.118 M 28.400,456.222 a 5.543,5.543 0 0,1 0.000,5.543 M 28.400,456.222 l -1.800,-3.118 M 28.400,461.765 l -1.800,3.118 M 29.300,475.102 l -2.700,-4.677 M 33.200,441.673 l 5.400,0.000">
<desc>L26</desc>
</path>
<path stroke="darkkhaki" stroke-width="2" stroke-linecap="round"
      fill="none" d="M 226.400,346.410 l 5.400,0.000 M 226.400,381.051 l 5.400,0.000 M 231.800,346.410 a 5.543,5.543 0 0,1 4.800,2.771 M 236.600,366.502 a 5.543,5.543 0 0,1 0.000,-5.543 M 236.600,378.280 a 5.543,5.543 0 0,1 -4.800,2.771 M 238.400,352.299 a 5.543,5.543 0 0,1 0.000,5.543 M 238.400,352.299 l -1.800,-3.118 M 238.400,357.842 l -1.800,3.118 M 238.400,369.620 a 5.543,5.543 0 0,1 0.000,5.543 M 238.400,369.620 l -1.800,-3.118 M 238.400,375.162 l -1.800,3.118">
<desc>M06</desc>
</path>
<path stroke="darkseagreen" stroke-width="2" stroke-linecap="round"
      fill="none" d="M 26.600,487.746 a 5.543,5.543 0 0,1 0.000,-5.543 M 28.400,479.085 a 5.543,5.543 0 0,1 4.800,-2.771 M 28.400,479.085 l -1.800,3.118 M 28.400,490.863 l -1.800,-3.118 M 33.200,476.314 l 3.600,0.000 M 33.200,493.634 a 5.543,5.543 0 0,1 -4.800,-2.771 M 33.200,493.634 l 3.600,0.000 M 36.800,476.314 a 5.543,5.543 0 0,1 4.800,2.771 M 41.600,490.863 a 5.543,5.543 0 0,1 -4.800,2.771 M 43.400,482.203 a 5.543,5.543 0 0,1 0.000,5.543 M 43.400,482.203 l -1.800,-3.118 M 43.400,487.746 l -1.800,3.118">
<desc>O06</desc>
</path>
<path stroke="deeppink" stroke-width="2" stroke-linecap="round"
      fill="none" d="M 116.600,401.143 a 5.543,5.543 0 0,1 0.000,-5.543 M 118.400,392.483 a 5.543,5.543 0 0,1 4.800,-2.771 M 118.400,392.483 l -1.800,3.118 M 118.400,404.261 l -1.800,-3.118 M 123.200,389.711 l 3.600,0.000 M 123.200,407.032 a 5.543,5.543 0 0,1 -4.800,-2.771 M 123.200,407.032 l 5.400,0.000 M 126.800,389.711 a 5.543,5.543 0 0,1 4.800,2.771 M 133.400,395.600 l -1.800,-3.118 M 138.200,398.372 a 5.543,5.543 0 0,1 -4.800,-2.771 M 138.200,398.372 l 5.400,0.000">
<desc>Q06</desc>
</path>
<path stroke="greenyellow" stroke-width="2" stroke-linecap="round"
      fill="none" d="M 191.600,357.842 a 5.543,5.543 0 0,1 0.000,-5.543 M 193.400,349.181 a 5.543,5.543 0 0,1 4.800,-2.771 M 193.400,349.181 l -1.800,3.118 M 194.300,362.518 l -2.700,-4.677 M 198.200,346.410 l 3.600,0.000 M 201.800,346.410 a 5.543,5.543 0 0,1 4.800,2.771 M 208.400,352.299 a 5.543,5.543 0 0,1 0.000,5.543 M 208.400,352.299 l -1.800,-3.118 M 208.400,357.842 a 5.543,5.543 0 0,1 4.800,-2.771 M 208.400,357.842 l -2.700,4.677 M 213.200,355.070 a 5.543,5.543 0 0,1 -4.800,-2.771 M 213.200,355.070 l 5.400,0.000">
<desc>Q16</desc>
</path>
<path stroke="hotpink" stroke-width="2" stroke-linecap="round"
      fill="none" d="M 208.400,375.162 a 5.543,5.543 0 0,1 4.800,-2.771 M 208.400,375.162 l -2.700,4.677 M 211.400,389.711 l 5.400,0.000 M 213.200,372.391 l 3.600,0.000 M 216.800,372.391 a 5.543,5.543 0 0,1 4.800,2.771 M 221.600,369.620 a 5.543,5.543 0 0,1 -4.800,2.771 M 221.600,375.162 a 5.543,5.543 0 0,1 0.000,-5.543 M 221.600,386.940 a 5.543,5.543 0 0,1 -4.800,2.771 M 223.400,378.280 a 5.543,5.543 0 0,1 0.000,5.543 M 223.400,378.280 l -1.800,-3.118 M 223.400,383.822 l -1.800,3.118 M 224.300,364.943 l -2.700,4.677">
<desc>Q26</desc>
</path>
<path stroke="indianred" stroke-width="2" stroke-linecap="round"
      fill="none" d="M 133.400,383.822 a 5.543,5.543 0 0,1 4.800,-2.771 M 133.400,383.822 l -2.700,4.677 M 138.200,381.051 l 3.600,0.000 M 141.800,381.051 a 5.543,5.543 0 0,1 4.800,2.771 M 146.600,401.143 a 5.543,5.543 0 0,1 0.000,-5.543 M 148.400,386.940 a 5.543,5.543 0 0,1 0.000,5.543 M 148.400,386.940 l -1.800,-3.118 M 148.400,392.483 a 5.543,5.543 0 0,1 4.800,-2.771 M 148.400,392.483 l -1.800,3.118 M 149.300,405.820 l -2.700,-4.677 M 153.200,389.711 a 5.543,5.543 0 0,1 -4.800,-2.771 M 153.200,389.711 l 5.400,0.000">
<desc>R06</desc>
</path>
<path stroke="olivedrab" stroke-width="2" stroke-linecap="round"
      fill="none" d="M 31.400,458.993 l 5.400,0.000 M 41.600,444.444 a 5.543,5.543 0 0,1 0.000,-5.543 M 41.600,456.222 a 5.543,5.543 0 0,1 -4.800,2.771 M 43.400,435.784 a 5.543,5.543 0 0,1 4.800,-2.771 M 43.400,435.784 l -1.800,3.118 M 43.400,447.562 a 5.543,5.543 0 0,1 0.000,5.543 M 43.400,447.562 l -1.800,-3.118 M 43.400,453.104 a 5.543,5.543 0 0,1 4.800,-2.771 M 43.400,453.104 l -1.800,3.118 M 48.200,433.013 l 5.400,0.000 M 48.200,450.333 a 5.543,5.543 0 0,1 -4.800,-2.771 M 48.200,450.333 l 5.400,0.000">
<desc>R16</desc>
</path>
<path stroke="limegreen" stroke-width="2" stroke-linecap="round"
      fill="none" d="M 208.400,340.521 a 5.543,5.543 0 0,1 4.800,-2.771 M 208.400,340.521 l -2.700,4.677 M 213.200,337.750 l 3.600,0.000 M 216.800,337.750 a 5.543,5.543 0 0,1 4.800,2.771 M 221.600,357.842 a 5.543,5.543 0 0,1 0.000,-5.543 M 223.400,343.639 a 5.543,5.543 0 0,1 0.000,5.543 M 223.400,343.639 l -1.800,-3.118 M 223.400,349.181 l -1.800,3.118 M 223.400,360.959 l -1.800,-3.118 M 228.200,363.731 a 5.543,5.543 0 0,1 -4.800,-2.771 M 228.200,363.731 l 5.400,0.000">
<desc>S06</desc>
</path>
<path stroke="mediumpurple" stroke-width="2" stroke-linecap="round"
      fill="none" d="M 148.400,409.803 a 5.543,5.543 0 0,1 4.800,-2.771 M 148.400,409.803 l -2.700,4.677 M 153.200,407.032 l 3.600,0.000 M 156.800,407.032 a 5.543,5.543 0 0,1 4.800,2.771 M 163.400,412.921 l -1.800,-3.118 M 168.200,415.692 a 5.543,5.543 0 0,1 -4.800,-2.771 M 168.200,415.692 l 3.600,0.000 M 176.600,412.921 a 5.543,5.543 0 0,1 -4.800,2.771 M 178.400,409.803 a 5.543,5.543 0 0,1 4.800,-2.771 M 178.400,409.803 l -1.800,3.118 M 183.200,407.032 l 5.400,0.000">
<desc>S16</desc>
</path>
<path stroke="orange" stroke-width="2" stroke-linecap="round"
      fill="none" d="M 178.400,369.620 a 5.543,5.543 0 0,1 0.000,5.543 M 178.400,369.620 l -2.700,-4.677 M 178.400,375.162 a 5.543,5.543 0 0,1 4.800,-2.771 M 178.400,375.162 l -2.700,4.677 M 183.200,372.391 a 5.543,5.543 0 0,1 -4.800,-2.771 M 183.200,372.391 l 3.600,0.000 M 191.600,369.620 a 5.543,5.543 0 0,1 -4.800,2.771 M 193.400,366.502 a 5.543,5.543 0 0,1 4.800,-2.771 M 193.400,366.502 l -1.800,3.118 M 198.200,363.731 l 3.600,0.000 M 201.800,363.731 a 5.543,5.543 0 0,1 4.800,2.771 M 209.300,371.178 l -2.700,-4.677">
<desc>S26</desc>
</path>
<path stroke="palegreen" stroke-width="2" stroke-linecap="round"
      fill="none" d="M 166.400,398.372 l 5.400,0.000 M 171.800,398.372 a 5.543,5.543 0 0,1 4.800,2.771 M 176.600,395.600 a 5.543,5.543 0 0,1 -4.800,2.771 M 176.600,401.143 a 5.543,5.543 0 0,1 0.000,-5.543 M 178.400,392.483 a 5.543,5.543 0 0,1 4.800,-2.771 M 178.400,392.483 l -1.800,3.118 M 179.300,405.820 l -2.700,-4.677 M 183.200,389.711 l 3.600,0.000 M 186.800,389.711 a 5.543,5.543 0 0,1 4.800,2.771 M 191.600,386.940 a 5.543,5.543 0 0,1 -4.800,2.771 M 191.600,392.483 a 5.543,5.543 0 0,1 0.000,-5.543 M 194.300,382.264 l -2.700,4.677 M 194.300,397.159 l -2.700,-4.677">
<desc>U06</desc>
</path>
<path stroke="paleturquoise" stroke-width="2" stroke-linecap="round"
      fill="none" d="M 193.400,378.280 l -2.700,-4.677 M 193.400,401.143 a 5.543,5.543 0 0,1 4.800,-2.771 M 193.400,401.143 l -2.700,4.677 M 198.200,381.051 a 5.543,5.543 0 0,1 -4.800,-2.771 M 198.200,381.051 l 3.600,0.000 M 198.200,398.372 l 3.600,0.000 M 201.800,381.051 a 5.543,5.543 0 0,1 4.800,2.771 M 206.600,395.600 a 5.543,5.543 0 0,1 -4.800,2.771 M 208.400,386.940 a 5.543,5.543 0 0,1 0.000,5.543 M 208.400,386.940 l -1.800,-3.118 M 208.400,392.483 l -1.800,3.118">
<desc>V06</desc>
</path>
<path stroke="darkorchid" stroke-width="2" stroke-linecap="round"
      fill="none" d="M 101.600,404.261 a 5.543,5.543 0 0,1 -4.800,2.771 M 103.400,401.143 a 5.543,5.543 0 0,1 4.800,-2.771 M 103.400,401.143 l -1.800,3.118 M 108.200,398.372 l 5.400,0.000 M 86.600,418.463 a 5.543,5.543 0 0,1 0.000,-5.543 M 88.400,409.803 a 5.543,5.543 0 0,1 4.800,-2.771 M 88.400,409.803 l -1.800,3.118 M 88.400,421.581 a 5.543,5.543 0 0,1 0.000,5.543 M 88.400,421.581 l -1.800,-3.118 M 88.400,427.124 l -2.700,4.677 M 93.200,407.032 l 3.600,0.000">
<desc>W06</desc>
</path>
<path stroke="silver" stroke-width="2" stroke-linecap="round"
      fill="none" d="M 101.600,421.581 a 5.543,5.543 0 0,1 -4.800,2.771 M 103.400,412.921 a 5.543,5.543 0 0,1 0.000,5.543 M 103.400,412.921 l -2.700,-4.677 M 103.400,418.463 a 5.543,5.543 0 0,1 4.800,-2.771 M 103.400,418.463 l -1.800,3.118 M 108.200,415.692 a 5.543,5.543 0 0,1 -4.800,-2.771 M 108.200,415.692 l 3.600,0.000 M 111.800,415.692 a 5.543,5.543 0 0,1 4.800,2.771 M 116.600,412.921 a 5.543,5.543 0 0,1 -4.800,2.771 M 116.600,418.463 a 5.543,5.543 0 0,1 0.000,-5.543 M 119.300,408.244 l -2.700,4.677 M 119.300,423.140 l -2.700,-4.677 M 91.400,424.352 l 5.400,0.000">
<desc>X06</desc>
</path>
<path stroke="thistle" stroke-width="2" stroke-linecap="round"
      fill="none" d="M 76.400,433.013 l 5.400,0.000 M 76.400,450.333 l 5.400,0.000 M 81.800,433.013 a 5.543,5.543 0 0,1 4.800,2.771 M 81.800,450.333 a 5.543,5.543 0 0,1 4.800,2.771 M 86.600,447.562 a 5.543,5.543 0 0,1 -4.800,2.771 M 86.600,453.104 a 5.543,5.543 0 0,1 0.000,-5.543 M 88.400,438.902 a 5.543,5.543 0 0,1 0.000,5.543 M 88.400,438.902 l -1.800,-3.118 M 88.400,444.444 a 5.543,5.543 0 0,1 4.800,-2.771 M 88.400,444.444 l -1.800,3.118 M 89.300,457.781 l -2.700,-4.677 M 93.200,441.673 a 5.543,5.543 0 0,1 -4.800,-2.771 M 93.200,441.673 l 5.400,0.000">
<desc>X16</desc>
</path>
<path stroke="tomato" stroke-width="2" stroke-linecap="round"
      fill="none" d="M 103.400,430.241 l -2.700,-4.677 M 108.200,433.013 a 5.543,5.543 0 0,1 -4.800,-2.771 M 108.200,433.013 l 3.600,0.000 M 111.800,433.013 a 5.543,5.543 0 0,1 4.800,2.771 M 116.600,430.241 a 5.543,5.543 0 0,1 -4.800,2.771 M 116.600,435.784 a 5.543,5.543 0 0,1 0.000,-5.543 M 118.400,427.124 a 5.543,5.543 0 0,1 4.800,-2.771 M 118.400,427.124 l -1.800,3.118 M 118.400,438.902 a 5.543,5.543 0 0,1 0.000,5.543 M 118.400,438.902 l -1.800,-3.118 M 118.400,444.444 l -2.700,4.677 M 123.200,424.352 l 5.400,0.000">
<desc>Y06</desc>
</path>
<path stroke="violet" stroke-width="2" stroke-linecap="round"
      fill="none" d="M 136.400,415.692 l 5.400,0.000 M 136.400,433.013 l 5.400,0.000 M 141.800,415.692 a 5.543,5.543 0 0,1 4.800,2.771 M 146.600,430.241 a 5.543,5.543 0 0,1 -4.800,2.771 M 148.400,421.581 a 5.543,5.543 0 0,1 0.000,5.543 M 148.400,421.581 l -1.800,-3.118 M 148.400,427.124 a 5.543,5.543 0 0,1 4.800,-2.771 M 148.400,427.124 l -1.800,3.118 M 153.200,424.352 a 5.543,5.543 0 0,1 -4.800,-2.771 M 153.200,424.352 l 3.600,0.000 M 161.600,421.581 a 5.543,5.543 0 0,1 -4.800,2.771 M 164.300,416.905 l -2.700,4.677">
<desc>Y16</desc>
</path>
<path stroke="darkmagenta" stroke-width="2" stroke-linecap="round"
      fill="none" d="M 161.600,392.483 a 5.543,5.543 0 0,1 0.000,-5.543 M 163.400,378.280 a 5.543,5.543 0 0,1 0.000,5.543 M 163.400,378.280 l -2.700,-4.677 M 163.400,383.822 a 5.543,5.543 0 0,1 4.800,-2.771 M 163.400,383.822 l -1.800,3.118 M 163.400,395.600 a 5.543,5.543 0 0,1 0.000,5.543 M 163.400,395.600 l -1.800,-3.118 M 163.400,401.143 l -2.700,4.677 M 168.200,381.051 a 5.543,5.543 0 0,1 -4.800,-2.771 M 168.200,381.051 l 3.600,0.000 M 171.800,381.051 a 5.543,5.543 0 0,1 4.800,2.771 M 179.300,388.499 l -2.700,-4.677">
<desc>Y26</desc>
</path>
</g>
</svg>
