<?xml version="1.0" standalone="no"?>
<!-- Created by Polyform Puzzler (http://puzzler.sourceforge.net/) -->
<svg width="135.000" height="207.846"
     viewBox="0 0 135.000 207.846"
     xmlns="http://www.w3.org/2000/svg"
     xmlns:xlink="http://www.w3.org/1999/xlink">
<g>
<path stroke="blue" stroke-width="2" stroke-linecap="round"
      fill="none" d="M 11.600,132.675 a 5.543,5.543 0 0,1 0.000,-5.543 M 13.400,124.015 a 5.543,5.543 0 0,1 4.800,-2.771 M 13.400,124.015 l -1.800,3.118 M 13.400,135.793 l -1.800,-3.118 M 18.200,121.244 l 3.600,0.000 M 18.200,138.564 a 5.543,5.543 0 0,1 -4.800,-2.771 M 18.200,138.564 l 5.400,0.000 M 21.800,121.244 a 5.543,5.543 0 0,1 4.800,2.771 M 29.300,128.691 l -2.700,-4.677">
<desc>C5</desc>
</path>
<path stroke="red" stroke-width="2" stroke-linecap="round"
      fill="none" d="M 104.300,120.031 l -2.700,-4.677 M 76.400,121.244 l 5.400,0.000 M 86.600,118.472 a 5.543,5.543 0 0,1 -4.800,2.771 M 88.400,109.812 a 5.543,5.543 0 0,1 0.000,5.543 M 88.400,109.812 l -2.700,-4.677 M 88.400,115.355 a 5.543,5.543 0 0,1 4.800,-2.771 M 88.400,115.355 l -1.800,3.118 M 93.200,112.583 a 5.543,5.543 0 0,1 -4.800,-2.771 M 93.200,112.583 l 3.600,0.000 M 96.800,112.583 a 5.543,5.543 0 0,1 4.800,2.771">
<desc>H5</desc>
</path>
<path stroke="lightcoral" stroke-width="2" stroke-linecap="round"
      fill="none" d="M 101.600,75.171 a 5.543,5.543 0 0,1 -4.800,2.771 M 103.400,72.053 a 5.543,5.543 0 0,1 4.800,-2.771 M 103.400,72.053 l -1.800,3.118 M 108.200,69.282 l 5.400,0.000 M 76.400,86.603 l 5.400,0.000 M 86.600,83.831 a 5.543,5.543 0 0,1 -4.800,2.771 M 88.400,80.714 a 5.543,5.543 0 0,1 4.800,-2.771 M 88.400,80.714 l -1.800,3.118 M 93.200,77.942 l 3.600,0.000">
<desc>I5</desc>
</path>
<path stroke="peru" stroke-width="2" stroke-linecap="round"
      fill="none" d="M 73.400,106.694 a 5.543,5.543 0 0,1 4.800,-2.771 M 73.400,106.694 l -2.700,4.677 M 78.200,103.923 l 3.600,0.000 M 86.600,101.152 a 5.543,5.543 0 0,1 -4.800,2.771 M 88.400,92.492 a 5.543,5.543 0 0,1 0.000,5.543 M 88.400,92.492 l -2.700,-4.677 M 88.400,98.034 a 5.543,5.543 0 0,1 4.800,-2.771 M 88.400,98.034 l -1.800,3.118 M 93.200,95.263 a 5.543,5.543 0 0,1 -4.800,-2.771 M 93.200,95.263 l 5.400,0.000">
<desc>L5</desc>
</path>
<path stroke="green" stroke-width="2" stroke-linecap="round"
      fill="none" d="M 43.400,72.053 a 5.543,5.543 0 0,1 4.800,-2.771 M 43.400,72.053 l -2.700,4.677 M 48.200,69.282 l 3.600,0.000 M 51.800,69.282 a 5.543,5.543 0 0,1 4.800,2.771 M 56.600,89.374 a 5.543,5.543 0 0,1 0.000,-5.543 M 58.400,75.171 a 5.543,5.543 0 0,1 0.000,5.543 M 58.400,75.171 l -1.800,-3.118 M 58.400,80.714 l -1.800,3.118 M 59.300,94.050 l -2.700,-4.677">
<desc>P5</desc>
</path>
<path stroke="navy" stroke-width="2" stroke-linecap="round"
      fill="none" d="M 11.600,80.714 a 5.543,5.543 0 0,1 0.000,-5.543 M 13.400,83.831 l -1.800,-3.118 M 14.300,70.494 l -2.700,4.677 M 18.200,86.603 a 5.543,5.543 0 0,1 -4.800,-2.771 M 18.200,86.603 l 3.600,0.000 M 21.800,86.603 a 5.543,5.543 0 0,1 4.800,2.771 M 26.600,83.831 a 5.543,5.543 0 0,1 -4.800,2.771 M 26.600,89.374 a 5.543,5.543 0 0,1 0.000,-5.543 M 29.300,79.155 l -2.700,4.677 M 29.300,94.050 l -2.700,-4.677">
<desc>R5</desc>
</path>
<path stroke="turquoise" stroke-width="2" stroke-linecap="round"
      fill="none" d="M 28.400,132.675 a 5.543,5.543 0 0,1 4.800,-2.771 M 28.400,132.675 l -2.700,4.677 M 33.200,129.904 l 3.600,0.000 M 36.800,129.904 a 5.543,5.543 0 0,1 4.800,2.771 M 43.400,135.793 l -1.800,-3.118 M 48.200,138.564 a 5.543,5.543 0 0,1 -4.800,-2.771 M 48.200,138.564 l 3.600,0.000 M 56.600,135.793 a 5.543,5.543 0 0,1 -4.800,2.771 M 59.300,131.116 l -2.700,4.677">
<desc>S5</desc>
</path>
<path stroke="brown" stroke-width="2" stroke-linecap="round"
      fill="none" d="M 11.600,115.355 a 5.543,5.543 0 0,1 0.000,-5.543 M 11.600,98.034 a 5.543,5.543 0 0,1 0.000,-5.543 M 13.400,101.152 a 5.543,5.543 0 0,1 0.000,5.543 M 13.400,101.152 l -1.800,-3.118 M 13.400,106.694 a 5.543,5.543 0 0,1 4.800,-2.771 M 13.400,106.694 l -1.800,3.118 M 14.300,120.031 l -2.700,-4.677 M 14.300,87.815 l -2.700,4.677 M 18.200,103.923 a 5.543,5.543 0 0,1 -4.800,-2.771 M 18.200,103.923 l 5.400,0.000">
<desc>T5</desc>
</path>
<path stroke="maroon" stroke-width="2" stroke-linecap="round"
      fill="none" d="M 26.600,106.694 a 5.543,5.543 0 0,1 0.000,-5.543 M 28.400,109.812 a 5.543,5.543 0 0,1 0.000,5.543 M 28.400,109.812 l -1.800,-3.118 M 28.400,115.355 l -2.700,4.677 M 28.400,98.034 a 5.543,5.543 0 0,1 4.800,-2.771 M 28.400,98.034 l -1.800,3.118 M 33.200,95.263 l 3.600,0.000 M 41.600,92.492 a 5.543,5.543 0 0,1 -4.800,2.771 M 44.300,87.815 l -2.700,4.677">
<desc>U5</desc>
</path>
<path stroke="plum" stroke-width="2" stroke-linecap="round"
      fill="none" d="M 103.400,135.793 l -1.800,-3.118 M 108.200,138.564 a 5.543,5.543 0 0,1 -4.800,-2.771 M 108.200,138.564 l 3.600,0.000 M 116.600,135.793 a 5.543,5.543 0 0,1 -4.800,2.771 M 119.300,131.116 l -2.700,4.677 M 88.400,127.133 l -2.700,-4.677 M 93.200,129.904 a 5.543,5.543 0 0,1 -4.800,-2.771 M 93.200,129.904 l 3.600,0.000 M 96.800,129.904 a 5.543,5.543 0 0,1 4.800,2.771">
<desc>W5</desc>
</path>
<path stroke="indigo" stroke-width="2" stroke-linecap="round"
      fill="none" d="M 31.400,112.583 l 5.400,0.000 M 36.800,112.583 a 5.543,5.543 0 0,1 4.800,2.771 M 41.600,109.812 a 5.543,5.543 0 0,1 -4.800,2.771 M 41.600,115.355 a 5.543,5.543 0 0,1 0.000,-5.543 M 43.400,118.472 a 5.543,5.543 0 0,1 0.000,5.543 M 43.400,118.472 l -1.800,-3.118 M 43.400,124.015 a 5.543,5.543 0 0,1 4.800,-2.771 M 43.400,124.015 l -2.700,4.677 M 44.300,105.135 l -2.700,4.677 M 48.200,121.244 a 5.543,5.543 0 0,1 -4.800,-2.771 M 48.200,121.244 l 5.400,0.000">
<desc>X5</desc>
</path>
<path stroke="olive" stroke-width="2" stroke-linecap="round"
      fill="none" d="M 56.600,124.015 a 5.543,5.543 0 0,1 0.000,-5.543 M 58.400,109.812 a 5.543,5.543 0 0,1 0.000,5.543 M 58.400,109.812 l -2.700,-4.677 M 58.400,115.355 a 5.543,5.543 0 0,1 4.800,-2.771 M 58.400,115.355 l -1.800,3.118 M 59.300,128.691 l -2.700,-4.677 M 63.200,112.583 a 5.543,5.543 0 0,1 -4.800,-2.771 M 63.200,112.583 l 3.600,0.000 M 66.800,112.583 a 5.543,5.543 0 0,1 4.800,2.771 M 74.300,120.031 l -2.700,-4.677">
<desc>Y5</desc>
</path>
<path stroke="red" stroke-width="2" stroke-linecap="round"
      fill="none" d="M 103.400,124.015 a 5.543,5.543 0 0,1 4.800,-2.771 M 103.400,124.015 l -2.700,4.677 M 108.200,121.244 l 3.600,0.000 M 111.800,121.244 a 5.543,5.543 0 0,1 4.800,2.771 M 116.600,118.472 a 5.543,5.543 0 0,1 -4.800,2.771 M 116.600,124.015 a 5.543,5.543 0 0,1 0.000,-5.543 M 118.400,109.812 a 5.543,5.543 0 0,1 0.000,5.543 M 118.400,109.812 l -2.700,-4.677 M 118.400,115.355 l -1.800,3.118 M 119.300,128.691 l -2.700,-4.677">
<desc>h5</desc>
</path>
<path stroke="lightcoral" stroke-width="2" stroke-linecap="round"
      fill="none" d="M 16.400,69.282 l 5.400,0.000 M 21.800,69.282 a 5.543,5.543 0 0,1 4.800,2.771 M 28.400,75.171 l -1.800,-3.118 M 33.200,77.942 a 5.543,5.543 0 0,1 -4.800,-2.771 M 33.200,77.942 l 3.600,0.000 M 36.800,77.942 a 5.543,5.543 0 0,1 4.800,2.771 M 43.400,83.831 l -1.800,-3.118 M 48.200,86.603 a 5.543,5.543 0 0,1 -4.800,-2.771 M 48.200,86.603 l 5.400,0.000">
<desc>i5</desc>
</path>
<path stroke="peru" stroke-width="2" stroke-linecap="round"
      fill="none" d="M 101.600,98.034 a 5.543,5.543 0 0,1 0.000,-5.543 M 103.400,101.152 a 5.543,5.543 0 0,1 0.000,5.543 M 103.400,101.152 l -1.800,-3.118 M 103.400,106.694 l -2.700,4.677 M 103.400,83.831 a 5.543,5.543 0 0,1 0.000,5.543 M 103.400,83.831 l -2.700,-4.677 M 103.400,89.374 a 5.543,5.543 0 0,1 4.800,-2.771 M 103.400,89.374 l -1.800,3.118 M 108.200,86.603 a 5.543,5.543 0 0,1 -4.800,-2.771 M 108.200,86.603 l 5.400,0.000">
<desc>l5</desc>
</path>
<path stroke="green" stroke-width="2" stroke-linecap="round"
      fill="none" d="M 71.600,80.714 a 5.543,5.543 0 0,1 0.000,-5.543 M 73.400,72.053 a 5.543,5.543 0 0,1 4.800,-2.771 M 73.400,72.053 l -1.800,3.118 M 73.400,83.831 a 5.543,5.543 0 0,1 0.000,5.543 M 73.400,83.831 l -1.800,-3.118 M 73.400,89.374 l -2.700,4.677 M 78.200,69.282 l 3.600,0.000 M 81.800,69.282 a 5.543,5.543 0 0,1 4.800,2.771 M 89.300,76.730 l -2.700,-4.677">
<desc>p5</desc>
</path>
<path stroke="navy" stroke-width="2" stroke-linecap="round"
      fill="none" d="M 61.400,129.904 l 5.400,0.000 M 66.800,129.904 a 5.543,5.543 0 0,1 4.800,2.771 M 71.600,127.133 a 5.543,5.543 0 0,1 -4.800,2.771 M 71.600,132.675 a 5.543,5.543 0 0,1 0.000,-5.543 M 73.400,135.793 l -1.800,-3.118 M 74.300,122.456 l -2.700,4.677 M 78.200,138.564 a 5.543,5.543 0 0,1 -4.800,-2.771 M 78.200,138.564 l 3.600,0.000 M 86.600,135.793 a 5.543,5.543 0 0,1 -4.800,2.771 M 89.300,131.116 l -2.700,4.677">
<desc>r5</desc>
</path>
<path stroke="turquoise" stroke-width="2" stroke-linecap="round"
      fill="none" d="M 43.400,101.152 l -2.700,-4.677 M 48.200,103.923 a 5.543,5.543 0 0,1 -4.800,-2.771 M 48.200,103.923 l 3.600,0.000 M 56.600,101.152 a 5.543,5.543 0 0,1 -4.800,2.771 M 58.400,98.034 a 5.543,5.543 0 0,1 4.800,-2.771 M 58.400,98.034 l -1.800,3.118 M 63.200,95.263 l 3.600,0.000 M 66.800,95.263 a 5.543,5.543 0 0,1 4.800,2.771 M 74.300,102.711 l -2.700,-4.677">
<desc>s5</desc>
</path>
<path stroke="plum" stroke-width="2" stroke-linecap="round"
      fill="none" d="M 106.400,103.923 l 5.400,0.000 M 116.600,101.152 a 5.543,5.543 0 0,1 -4.800,2.771 M 116.600,89.374 a 5.543,5.543 0 0,1 0.000,-5.543 M 118.400,75.171 a 5.543,5.543 0 0,1 0.000,5.543 M 118.400,75.171 l -2.700,-4.677 M 118.400,80.714 l -1.800,3.118 M 118.400,92.492 a 5.543,5.543 0 0,1 0.000,5.543 M 118.400,92.492 l -1.800,-3.118 M 118.400,98.034 l -1.800,3.118">
<desc>w5</desc>
</path>
</g>
</svg>
