<?xml version="1.0" standalone="no"?>
<!-- Created by Polyform Puzzler (http://puzzler.sourceforge.net/) -->
<svg width="870.000" height="870.000"
     viewBox="0 0 870.000 870.000"
     xmlns="http://www.w3.org/2000/svg"
     xmlns:xlink="http://www.w3.org/1999/xlink">
<g transform="translate(435.000,217.500) rotate(30)">
<path stroke="tan" stroke-width="2" stroke-linecap="round"
      fill="none" d="M 56.600,245.258 a 5.543,5.543 0 0,1 0.000,-5.543 M 58.400,236.598 a 5.543,5.543 0 0,1 4.800,-2.771 M 58.400,236.598 l -1.800,3.118 M 58.400,248.376 a 5.543,5.543 0 0,1 0.000,5.543 M 58.400,248.376 l -1.800,-3.118 M 58.400,253.919 l -2.700,4.677 M 63.200,233.827 l 3.600,0.000 M 66.800,233.827 a 5.543,5.543 0 0,1 4.800,2.771 M 71.600,231.056 a 5.543,5.543 0 0,1 -4.800,2.771 M 71.600,236.598 a 5.543,5.543 0 0,1 0.000,-5.543 M 74.300,226.379 l -2.700,4.677 M 74.300,241.275 l -2.700,-4.677">
<desc>C06</desc>
</path>
<path stroke="slateblue" stroke-width="2" stroke-linecap="round"
      fill="none" d="M 56.600,227.938 a 5.543,5.543 0 0,1 0.000,-5.543 M 58.400,219.278 a 5.543,5.543 0 0,1 4.800,-2.771 M 58.400,219.278 l -1.800,3.118 M 59.300,232.614 l -2.700,-4.677 M 63.200,216.506 l 3.600,0.000 M 66.800,216.506 a 5.543,5.543 0 0,1 4.800,2.771 M 71.600,213.735 a 5.543,5.543 0 0,1 -4.800,2.771 M 71.600,219.278 a 5.543,5.543 0 0,1 0.000,-5.543 M 73.400,210.617 a 5.543,5.543 0 0,1 4.800,-2.771 M 73.400,210.617 l -1.800,3.118 M 74.300,223.954 l -2.700,-4.677 M 78.200,207.846 l 5.400,0.000">
<desc>F06</desc>
</path>
<path stroke="aquamarine" stroke-width="2" stroke-linecap="round"
      fill="none" d="M 373.400,72.053 a 5.543,5.543 0 0,1 4.800,-2.771 M 373.400,72.053 l -2.700,4.677 M 378.200,69.282 l 3.600,0.000 M 381.800,69.282 a 5.543,5.543 0 0,1 4.800,2.771 M 386.600,54.733 a 5.543,5.543 0 0,1 0.000,-5.543 M 386.600,66.511 a 5.543,5.543 0 0,1 -4.800,2.771 M 386.600,72.053 a 5.543,5.543 0 0,1 0.000,-5.543 M 388.400,57.850 a 5.543,5.543 0 0,1 0.000,5.543 M 388.400,57.850 l -1.800,-3.118 M 388.400,63.393 l -1.800,3.118 M 389.300,44.514 l -2.700,4.677 M 389.300,76.730 l -2.700,-4.677">
<desc>H06</desc>
</path>
<path stroke="cadetblue" stroke-width="2" stroke-linecap="round"
      fill="none" d="M 346.400,69.282 l 5.400,0.000 M 356.600,66.511 a 5.543,5.543 0 0,1 -4.800,2.771 M 358.400,63.393 a 5.543,5.543 0 0,1 4.800,-2.771 M 358.400,63.393 l -1.800,3.118 M 363.200,60.622 l 3.600,0.000 M 366.800,60.622 a 5.543,5.543 0 0,1 4.800,2.771 M 371.600,57.850 a 5.543,5.543 0 0,1 -4.800,2.771 M 371.600,63.393 a 5.543,5.543 0 0,1 0.000,-5.543 M 373.400,54.733 a 5.543,5.543 0 0,1 4.800,-2.771 M 373.400,54.733 l -1.800,3.118 M 374.300,68.070 l -2.700,-4.677 M 378.200,51.962 l 5.400,0.000">
<desc>H16</desc>
</path>
<path stroke="burlywood" stroke-width="2" stroke-linecap="round"
      fill="none" d="M 226.400,173.205 l 5.400,0.000 M 236.600,170.434 a 5.543,5.543 0 0,1 -4.800,2.771 M 238.400,167.316 a 5.543,5.543 0 0,1 4.800,-2.771 M 238.400,167.316 l -1.800,3.118 M 243.200,164.545 l 3.600,0.000 M 251.600,161.774 a 5.543,5.543 0 0,1 -4.800,2.771 M 253.400,158.656 a 5.543,5.543 0 0,1 4.800,-2.771 M 253.400,158.656 l -1.800,3.118 M 258.200,155.885 l 3.600,0.000 M 266.600,153.113 a 5.543,5.543 0 0,1 -4.800,2.771 M 269.300,148.437 l -2.700,4.677">
<desc>I06</desc>
</path>
<path stroke="crimson" stroke-width="2" stroke-linecap="round"
      fill="none" d="M 313.400,72.053 a 5.543,5.543 0 0,1 4.800,-2.771 M 313.400,72.053 l -2.700,4.677 M 318.200,69.282 l 3.600,0.000 M 326.600,66.511 a 5.543,5.543 0 0,1 -4.800,2.771 M 328.400,63.393 a 5.543,5.543 0 0,1 4.800,-2.771 M 328.400,63.393 l -1.800,3.118 M 333.200,60.622 l 3.600,0.000 M 336.800,60.622 a 5.543,5.543 0 0,1 4.800,2.771 M 343.400,66.511 a 5.543,5.543 0 0,1 0.000,5.543 M 343.400,66.511 l -1.800,-3.118 M 343.400,72.053 l -2.700,4.677">
<desc>J06</desc>
</path>
<path stroke="darkgoldenrod" stroke-width="2" stroke-linecap="round"
      fill="none" d="M 181.400,199.186 l 5.400,0.000 M 191.600,167.316 a 5.543,5.543 0 0,1 0.000,-5.543 M 191.600,184.637 a 5.543,5.543 0 0,1 0.000,-5.543 M 191.600,196.415 a 5.543,5.543 0 0,1 -4.800,2.771 M 193.400,170.434 a 5.543,5.543 0 0,1 0.000,5.543 M 193.400,170.434 l -1.800,-3.118 M 193.400,175.976 l -1.800,3.118 M 193.400,187.754 a 5.543,5.543 0 0,1 0.000,5.543 M 193.400,187.754 l -1.800,-3.118 M 193.400,193.297 l -1.800,3.118 M 194.300,157.097 l -2.700,4.677">
<desc>L06</desc>
</path>
<path stroke="deepskyblue" stroke-width="2" stroke-linecap="round"
      fill="none" d="M 133.400,175.976 a 5.543,5.543 0 0,1 4.800,-2.771 M 133.400,175.976 l -2.700,4.677 M 138.200,173.205 l 3.600,0.000 M 146.600,170.434 a 5.543,5.543 0 0,1 -4.800,2.771 M 148.400,167.316 a 5.543,5.543 0 0,1 4.800,-2.771 M 148.400,167.316 l -1.800,3.118 M 153.200,164.545 l 3.600,0.000 M 156.800,164.545 a 5.543,5.543 0 0,1 4.800,2.771 M 161.600,161.774 a 5.543,5.543 0 0,1 -4.800,2.771 M 161.600,167.316 a 5.543,5.543 0 0,1 0.000,-5.543 M 164.300,157.097 l -2.700,4.677 M 164.300,171.993 l -2.700,-4.677">
<desc>L16</desc>
</path>
<path stroke="peachpuff" stroke-width="2" stroke-linecap="round"
      fill="none" d="M 253.400,106.694 a 5.543,5.543 0 0,1 4.800,-2.771 M 253.400,106.694 l -2.700,4.677 M 258.200,103.923 l 3.600,0.000 M 261.800,103.923 a 5.543,5.543 0 0,1 4.800,2.771 M 266.600,101.152 a 5.543,5.543 0 0,1 -4.800,2.771 M 266.600,106.694 a 5.543,5.543 0 0,1 0.000,-5.543 M 268.400,109.812 l -1.800,-3.118 M 269.300,96.475 l -2.700,4.677 M 273.200,112.583 a 5.543,5.543 0 0,1 -4.800,-2.771 M 273.200,112.583 l 3.600,0.000 M 276.800,112.583 a 5.543,5.543 0 0,1 4.800,2.771 M 284.300,120.031 l -2.700,-4.677">
<desc>L26</desc>
</path>
<path stroke="darkkhaki" stroke-width="2" stroke-linecap="round"
      fill="none" d="M 388.400,28.752 a 5.543,5.543 0 0,1 4.800,-2.771 M 388.400,28.752 l -2.700,4.677 M 393.200,25.981 l 3.600,0.000 M 396.800,25.981 a 5.543,5.543 0 0,1 4.800,2.771 M 403.400,31.870 l -1.800,-3.118 M 408.200,34.641 a 5.543,5.543 0 0,1 -4.800,-2.771 M 408.200,34.641 l 3.600,0.000 M 411.800,34.641 a 5.543,5.543 0 0,1 4.800,2.771 M 418.400,40.530 a 5.543,5.543 0 0,1 0.000,5.543 M 418.400,40.530 l -1.800,-3.118 M 418.400,46.073 l -2.700,4.677">
<desc>M06</desc>
</path>
<path stroke="darkseagreen" stroke-width="2" stroke-linecap="round"
      fill="none" d="M 161.600,201.957 a 5.543,5.543 0 0,1 0.000,-5.543 M 163.400,193.297 a 5.543,5.543 0 0,1 4.800,-2.771 M 163.400,193.297 l -1.800,3.118 M 163.400,205.075 l -1.800,-3.118 M 168.200,190.526 l 3.600,0.000 M 168.200,207.846 a 5.543,5.543 0 0,1 -4.800,-2.771 M 168.200,207.846 l 3.600,0.000 M 171.800,190.526 a 5.543,5.543 0 0,1 4.800,2.771 M 176.600,205.075 a 5.543,5.543 0 0,1 -4.800,2.771 M 178.400,196.415 a 5.543,5.543 0 0,1 0.000,5.543 M 178.400,196.415 l -1.800,-3.118 M 178.400,201.957 l -1.800,3.118">
<desc>O06</desc>
</path>
<path stroke="deeppink" stroke-width="2" stroke-linecap="round"
      fill="none" d="M 391.400,60.622 l 5.400,0.000 M 401.600,57.850 a 5.543,5.543 0 0,1 -4.800,2.771 M 403.400,54.733 a 5.543,5.543 0 0,1 4.800,-2.771 M 403.400,54.733 l -1.800,3.118 M 406.400,69.282 l 5.400,0.000 M 408.200,51.962 l 3.600,0.000 M 411.800,51.962 a 5.543,5.543 0 0,1 4.800,2.771 M 416.600,66.511 a 5.543,5.543 0 0,1 -4.800,2.771 M 418.400,57.850 a 5.543,5.543 0 0,1 0.000,5.543 M 418.400,57.850 l -1.800,-3.118 M 418.400,63.393 l -1.800,3.118">
<desc>Q06</desc>
</path>
<path stroke="greenyellow" stroke-width="2" stroke-linecap="round"
      fill="none" d="M 161.600,184.637 a 5.543,5.543 0 0,1 0.000,-5.543 M 163.400,175.976 a 5.543,5.543 0 0,1 4.800,-2.771 M 163.400,175.976 l -1.800,3.118 M 164.300,189.313 l -2.700,-4.677 M 168.200,173.205 l 3.600,0.000 M 171.800,173.205 a 5.543,5.543 0 0,1 4.800,2.771 M 178.400,179.094 a 5.543,5.543 0 0,1 0.000,5.543 M 178.400,179.094 l -1.800,-3.118 M 178.400,184.637 a 5.543,5.543 0 0,1 4.800,-2.771 M 178.400,184.637 l -2.700,4.677 M 183.200,181.865 a 5.543,5.543 0 0,1 -4.800,-2.771 M 183.200,181.865 l 5.400,0.000">
<desc>Q16</desc>
</path>
<path stroke="hotpink" stroke-width="2" stroke-linecap="round"
      fill="none" d="M 356.600,89.374 a 5.543,5.543 0 0,1 0.000,-5.543 M 358.400,75.171 a 5.543,5.543 0 0,1 0.000,5.543 M 358.400,75.171 l -2.700,-4.677 M 358.400,80.714 a 5.543,5.543 0 0,1 4.800,-2.771 M 358.400,80.714 l -1.800,3.118 M 358.400,92.492 l -1.800,-3.118 M 363.200,77.942 a 5.543,5.543 0 0,1 -4.800,-2.771 M 363.200,77.942 l 3.600,0.000 M 363.200,95.263 a 5.543,5.543 0 0,1 -4.800,-2.771 M 363.200,95.263 l 5.400,0.000 M 366.800,77.942 a 5.543,5.543 0 0,1 4.800,2.771 M 374.300,85.390 l -2.700,-4.677">
<desc>Q26</desc>
</path>
<path stroke="indianred" stroke-width="2" stroke-linecap="round"
      fill="none" d="M 298.400,80.714 a 5.543,5.543 0 0,1 4.800,-2.771 M 298.400,80.714 l -2.700,4.677 M 303.200,77.942 l 3.600,0.000 M 306.800,77.942 a 5.543,5.543 0 0,1 4.800,2.771 M 311.600,98.034 a 5.543,5.543 0 0,1 0.000,-5.543 M 313.400,83.831 a 5.543,5.543 0 0,1 0.000,5.543 M 313.400,83.831 l -1.800,-3.118 M 313.400,89.374 a 5.543,5.543 0 0,1 4.800,-2.771 M 313.400,89.374 l -1.800,3.118 M 314.300,102.711 l -2.700,-4.677 M 318.200,86.603 a 5.543,5.543 0 0,1 -4.800,-2.771 M 318.200,86.603 l 5.400,0.000">
<desc>R06</desc>
</path>
<path stroke="olivedrab" stroke-width="2" stroke-linecap="round"
      fill="none" d="M 328.400,98.034 a 5.543,5.543 0 0,1 4.800,-2.771 M 328.400,98.034 l -2.700,4.677 M 333.200,95.263 l 3.600,0.000 M 336.800,95.263 a 5.543,5.543 0 0,1 4.800,2.771 M 341.600,92.492 a 5.543,5.543 0 0,1 -4.800,2.771 M 341.600,98.034 a 5.543,5.543 0 0,1 0.000,-5.543 M 343.400,101.152 l -1.800,-3.118 M 344.300,87.815 l -2.700,4.677 M 348.200,103.923 a 5.543,5.543 0 0,1 -4.800,-2.771 M 348.200,103.923 l 3.600,0.000 M 356.600,101.152 a 5.543,5.543 0 0,1 -4.800,2.771 M 359.300,96.475 l -2.700,4.677">
<desc>R16</desc>
</path>
<path stroke="limegreen" stroke-width="2" stroke-linecap="round"
      fill="none" d="M 41.600,253.919 a 5.543,5.543 0 0,1 0.000,-5.543 M 43.400,257.036 l -1.800,-3.118 M 44.300,243.700 l -2.700,4.677 M 46.400,277.128 l 5.400,0.000 M 48.200,259.808 a 5.543,5.543 0 0,1 -4.800,-2.771 M 48.200,259.808 l 3.600,0.000 M 51.800,259.808 a 5.543,5.543 0 0,1 4.800,2.771 M 56.600,274.357 a 5.543,5.543 0 0,1 -4.800,2.771 M 58.400,265.697 a 5.543,5.543 0 0,1 0.000,5.543 M 58.400,265.697 l -1.800,-3.118 M 58.400,271.239 l -1.800,3.118">
<desc>S06</desc>
</path>
<path stroke="mediumpurple" stroke-width="2" stroke-linecap="round"
      fill="none" d="M 101.600,196.415 a 5.543,5.543 0 0,1 -4.800,2.771 M 104.300,191.738 l -2.700,4.677 M 76.400,225.167 l 5.400,0.000 M 86.600,210.617 a 5.543,5.543 0 0,1 0.000,-5.543 M 86.600,222.395 a 5.543,5.543 0 0,1 -4.800,2.771 M 88.400,201.957 a 5.543,5.543 0 0,1 4.800,-2.771 M 88.400,201.957 l -1.800,3.118 M 88.400,213.735 a 5.543,5.543 0 0,1 0.000,5.543 M 88.400,213.735 l -1.800,-3.118 M 88.400,219.278 l -1.800,3.118 M 93.200,199.186 l 3.600,0.000">
<desc>S16</desc>
</path>
<path stroke="orange" stroke-width="2" stroke-linecap="round"
      fill="none" d="M 76.400,259.808 l 5.400,0.000 M 86.600,245.258 a 5.543,5.543 0 0,1 0.000,-5.543 M 86.600,257.036 a 5.543,5.543 0 0,1 -4.800,2.771 M 88.400,231.056 a 5.543,5.543 0 0,1 0.000,5.543 M 88.400,231.056 l -2.700,-4.677 M 88.400,236.598 a 5.543,5.543 0 0,1 4.800,-2.771 M 88.400,236.598 l -1.800,3.118 M 88.400,248.376 a 5.543,5.543 0 0,1 0.000,5.543 M 88.400,248.376 l -1.800,-3.118 M 88.400,253.919 l -1.800,3.118 M 93.200,233.827 a 5.543,5.543 0 0,1 -4.800,-2.771 M 93.200,233.827 l 5.400,0.000">
<desc>S26</desc>
</path>
<path stroke="palegreen" stroke-width="2" stroke-linecap="round"
      fill="none" d="M 103.400,205.075 a 5.543,5.543 0 0,1 0.000,5.543 M 103.400,205.075 l -2.700,-4.677 M 103.400,210.617 a 5.543,5.543 0 0,1 4.800,-2.771 M 103.400,210.617 l -2.700,4.677 M 108.200,207.846 a 5.543,5.543 0 0,1 -4.800,-2.771 M 108.200,207.846 l 3.600,0.000 M 116.600,205.075 a 5.543,5.543 0 0,1 -4.800,2.771 M 118.400,196.415 a 5.543,5.543 0 0,1 0.000,5.543 M 118.400,196.415 l -2.700,-4.677 M 118.400,201.957 a 5.543,5.543 0 0,1 4.800,-2.771 M 118.400,201.957 l -1.800,3.118 M 123.200,199.186 a 5.543,5.543 0 0,1 -4.800,-2.771 M 123.200,199.186 l 5.400,0.000">
<desc>U06</desc>
</path>
<path stroke="paleturquoise" stroke-width="2" stroke-linecap="round"
      fill="none" d="M 106.400,190.526 l 5.400,0.000 M 116.600,187.754 a 5.543,5.543 0 0,1 -4.800,2.771 M 118.400,184.637 a 5.543,5.543 0 0,1 4.800,-2.771 M 118.400,184.637 l -1.800,3.118 M 123.200,181.865 l 3.600,0.000 M 126.800,181.865 a 5.543,5.543 0 0,1 4.800,2.771 M 131.600,201.957 a 5.543,5.543 0 0,1 0.000,-5.543 M 133.400,187.754 a 5.543,5.543 0 0,1 0.000,5.543 M 133.400,187.754 l -1.800,-3.118 M 133.400,193.297 l -1.800,3.118 M 134.300,206.634 l -2.700,-4.677">
<desc>V06</desc>
</path>
<path stroke="darkorchid" stroke-width="2" stroke-linecap="round"
      fill="none" d="M 223.400,124.015 a 5.543,5.543 0 0,1 4.800,-2.771 M 223.400,124.015 l -2.700,4.677 M 228.200,121.244 l 3.600,0.000 M 236.600,118.472 a 5.543,5.543 0 0,1 -4.800,2.771 M 238.400,115.355 a 5.543,5.543 0 0,1 4.800,-2.771 M 238.400,115.355 l -1.800,3.118 M 243.200,112.583 l 3.600,0.000 M 246.800,112.583 a 5.543,5.543 0 0,1 4.800,2.771 M 253.400,118.472 l -1.800,-3.118 M 258.200,121.244 a 5.543,5.543 0 0,1 -4.800,-2.771 M 258.200,121.244 l 5.400,0.000">
<desc>W06</desc>
</path>
<path stroke="silver" stroke-width="2" stroke-linecap="round"
      fill="none" d="M 196.400,173.205 l 5.400,0.000 M 201.800,173.205 a 5.543,5.543 0 0,1 4.800,2.771 M 206.600,158.656 a 5.543,5.543 0 0,1 0.000,-5.543 M 206.600,170.434 a 5.543,5.543 0 0,1 -4.800,2.771 M 206.600,175.976 a 5.543,5.543 0 0,1 0.000,-5.543 M 208.400,161.774 a 5.543,5.543 0 0,1 0.000,5.543 M 208.400,161.774 l -1.800,-3.118 M 208.400,167.316 a 5.543,5.543 0 0,1 4.800,-2.771 M 208.400,167.316 l -1.800,3.118 M 209.300,148.437 l -2.700,4.677 M 209.300,180.653 l -2.700,-4.677 M 213.200,164.545 a 5.543,5.543 0 0,1 -4.800,-2.771 M 213.200,164.545 l 5.400,0.000">
<desc>X06</desc>
</path>
<path stroke="thistle" stroke-width="2" stroke-linecap="round"
      fill="none" d="M 136.400,190.526 l 5.400,0.000 M 141.800,190.526 a 5.543,5.543 0 0,1 4.800,2.771 M 146.600,187.754 a 5.543,5.543 0 0,1 -4.800,2.771 M 146.600,193.297 a 5.543,5.543 0 0,1 0.000,-5.543 M 148.400,179.094 a 5.543,5.543 0 0,1 0.000,5.543 M 148.400,179.094 l -2.700,-4.677 M 148.400,184.637 a 5.543,5.543 0 0,1 4.800,-2.771 M 148.400,184.637 l -1.800,3.118 M 148.400,196.415 l -1.800,-3.118 M 153.200,181.865 a 5.543,5.543 0 0,1 -4.800,-2.771 M 153.200,181.865 l 5.400,0.000 M 153.200,199.186 a 5.543,5.543 0 0,1 -4.800,-2.771 M 153.200,199.186 l 5.400,0.000">
<desc>X16</desc>
</path>
<path stroke="tomato" stroke-width="2" stroke-linecap="round"
      fill="none" d="M 101.600,236.598 a 5.543,5.543 0 0,1 0.000,-5.543 M 103.400,222.395 a 5.543,5.543 0 0,1 0.000,5.543 M 103.400,222.395 l -1.800,-3.118 M 103.400,227.938 a 5.543,5.543 0 0,1 4.800,-2.771 M 103.400,227.938 l -1.800,3.118 M 104.300,241.275 l -2.700,-4.677 M 108.200,225.167 a 5.543,5.543 0 0,1 -4.800,-2.771 M 108.200,225.167 l 3.600,0.000 M 116.600,222.395 a 5.543,5.543 0 0,1 -4.800,2.771 M 119.300,217.719 l -2.700,4.677 M 91.400,216.506 l 5.400,0.000 M 96.800,216.506 a 5.543,5.543 0 0,1 4.800,2.771">
<desc>Y06</desc>
</path>
<path stroke="violet" stroke-width="2" stroke-linecap="round"
      fill="none" d="M 28.400,236.598 a 5.543,5.543 0 0,1 4.800,-2.771 M 28.400,236.598 l -2.700,4.677 M 33.200,233.827 l 3.600,0.000 M 36.800,233.827 a 5.543,5.543 0 0,1 4.800,2.771 M 41.600,231.056 a 5.543,5.543 0 0,1 -4.800,2.771 M 41.600,236.598 a 5.543,5.543 0 0,1 0.000,-5.543 M 43.400,227.938 a 5.543,5.543 0 0,1 4.800,-2.771 M 43.400,227.938 l -1.800,3.118 M 43.400,239.716 l -1.800,-3.118 M 48.200,225.167 l 5.400,0.000 M 48.200,242.487 a 5.543,5.543 0 0,1 -4.800,-2.771 M 48.200,242.487 l 5.400,0.000">
<desc>Y16</desc>
</path>
<path stroke="darkmagenta" stroke-width="2" stroke-linecap="round"
      fill="none" d="M 266.600,124.015 a 5.543,5.543 0 0,1 0.000,-5.543 M 268.400,127.133 a 5.543,5.543 0 0,1 0.000,5.543 M 268.400,127.133 l -1.800,-3.118 M 268.400,132.675 a 5.543,5.543 0 0,1 4.800,-2.771 M 268.400,132.675 l -2.700,4.677 M 269.300,113.796 l -2.700,4.677 M 273.200,129.904 a 5.543,5.543 0 0,1 -4.800,-2.771 M 273.200,129.904 l 3.600,0.000 M 281.600,127.133 a 5.543,5.543 0 0,1 -4.800,2.771 M 283.400,124.015 a 5.543,5.543 0 0,1 4.800,-2.771 M 283.400,124.015 l -1.800,3.118 M 288.200,121.244 l 5.400,0.000">
<desc>Y26</desc>
</path>
<path stroke="tan" stroke-width="2" stroke-linecap="round"
      fill="none" d="M 256.400,138.564 l 5.400,0.000 M 261.800,138.564 a 5.543,5.543 0 0,1 4.800,2.771 M 268.400,144.453 l -1.800,-3.118 M 273.200,147.224 a 5.543,5.543 0 0,1 -4.800,-2.771 M 273.200,147.224 l 3.600,0.000 M 281.600,144.453 a 5.543,5.543 0 0,1 -4.800,2.771 M 283.400,135.793 a 5.543,5.543 0 0,1 0.000,5.543 M 283.400,135.793 l -2.700,-4.677 M 283.400,141.335 a 5.543,5.543 0 0,1 4.800,-2.771 M 283.400,141.335 l -1.800,3.118 M 288.200,138.564 a 5.543,5.543 0 0,1 -4.800,-2.771 M 288.200,138.564 l 5.400,0.000">
<desc>c06</desc>
</path>
<path stroke="slateblue" stroke-width="2" stroke-linecap="round"
      fill="none" d="M 343.400,54.733 a 5.543,5.543 0 0,1 4.800,-2.771 M 343.400,54.733 l -2.700,4.677 M 348.200,51.962 l 3.600,0.000 M 351.800,51.962 a 5.543,5.543 0 0,1 4.800,2.771 M 356.600,49.190 a 5.543,5.543 0 0,1 -4.800,2.771 M 356.600,54.733 a 5.543,5.543 0 0,1 0.000,-5.543 M 358.400,46.073 a 5.543,5.543 0 0,1 4.800,-2.771 M 358.400,46.073 l -1.800,3.118 M 359.300,59.409 l -2.700,-4.677 M 363.200,43.301 l 3.600,0.000 M 366.800,43.301 a 5.543,5.543 0 0,1 4.800,2.771 M 374.300,50.749 l -2.700,-4.677">
<desc>f06</desc>
</path>
<path stroke="aquamarine" stroke-width="2" stroke-linecap="round"
      fill="none" d="M 238.400,127.133 l -2.700,-4.677 M 243.200,129.904 a 5.543,5.543 0 0,1 -4.800,-2.771 M 243.200,129.904 l 3.600,0.000 M 246.800,129.904 a 5.543,5.543 0 0,1 4.800,2.771 M 251.600,127.133 a 5.543,5.543 0 0,1 -4.800,2.771 M 251.600,132.675 a 5.543,5.543 0 0,1 0.000,-5.543 M 251.600,149.996 a 5.543,5.543 0 0,1 0.000,-5.543 M 253.400,135.793 a 5.543,5.543 0 0,1 0.000,5.543 M 253.400,135.793 l -1.800,-3.118 M 253.400,141.335 l -1.800,3.118 M 254.300,122.456 l -2.700,4.677 M 254.300,154.672 l -2.700,-4.677">
<desc>h06</desc>
</path>
<path stroke="cadetblue" stroke-width="2" stroke-linecap="round"
      fill="none" d="M 298.400,132.675 a 5.543,5.543 0 0,1 4.800,-2.771 M 298.400,132.675 l -2.700,4.677 M 303.200,129.904 l 3.600,0.000 M 311.600,127.133 a 5.543,5.543 0 0,1 -4.800,2.771 M 313.400,118.472 a 5.543,5.543 0 0,1 0.000,5.543 M 313.400,118.472 l -2.700,-4.677 M 313.400,124.015 a 5.543,5.543 0 0,1 4.800,-2.771 M 313.400,124.015 l -1.800,3.118 M 318.200,121.244 a 5.543,5.543 0 0,1 -4.800,-2.771 M 318.200,121.244 l 3.600,0.000 M 326.600,118.472 a 5.543,5.543 0 0,1 -4.800,2.771 M 329.300,113.796 l -2.700,4.677">
<desc>h16</desc>
</path>
<path stroke="crimson" stroke-width="2" stroke-linecap="round"
      fill="none" d="M 13.400,274.357 l -2.700,-4.677 M 18.200,277.128 a 5.543,5.543 0 0,1 -4.800,-2.771 M 18.200,277.128 l 3.600,0.000 M 21.800,277.128 a 5.543,5.543 0 0,1 4.800,2.771 M 28.400,283.017 l -1.800,-3.118 M 33.200,285.788 a 5.543,5.543 0 0,1 -4.800,-2.771 M 33.200,285.788 l 3.600,0.000 M 41.600,283.017 a 5.543,5.543 0 0,1 -4.800,2.771 M 43.400,274.357 a 5.543,5.543 0 0,1 0.000,5.543 M 43.400,274.357 l -2.700,-4.677 M 43.400,279.899 l -1.800,3.118">
<desc>j06</desc>
</path>
<path stroke="darkgoldenrod" stroke-width="2" stroke-linecap="round"
      fill="none" d="M 373.400,89.374 a 5.543,5.543 0 0,1 4.800,-2.771 M 373.400,89.374 l -2.700,4.677 M 378.200,86.603 l 3.600,0.000 M 386.600,83.831 a 5.543,5.543 0 0,1 -4.800,2.771 M 388.400,80.714 a 5.543,5.543 0 0,1 4.800,-2.771 M 388.400,80.714 l -1.800,3.118 M 393.200,77.942 l 3.600,0.000 M 401.600,75.171 a 5.543,5.543 0 0,1 -4.800,2.771 M 403.400,66.511 a 5.543,5.543 0 0,1 0.000,5.543 M 403.400,66.511 l -2.700,-4.677 M 403.400,72.053 l -1.800,3.118">
<desc>l06</desc>
</path>
<path stroke="deepskyblue" stroke-width="2" stroke-linecap="round"
      fill="none" d="M 101.600,248.376 a 5.543,5.543 0 0,1 -4.800,2.771 M 103.400,245.258 a 5.543,5.543 0 0,1 4.800,-2.771 M 103.400,245.258 l -1.800,3.118 M 108.200,242.487 l 3.600,0.000 M 116.600,239.716 a 5.543,5.543 0 0,1 -4.800,2.771 M 118.400,231.056 a 5.543,5.543 0 0,1 0.000,5.543 M 118.400,231.056 l -2.700,-4.677 M 118.400,236.598 a 5.543,5.543 0 0,1 4.800,-2.771 M 118.400,236.598 l -1.800,3.118 M 123.200,233.827 a 5.543,5.543 0 0,1 -4.800,-2.771 M 123.200,233.827 l 5.400,0.000 M 91.400,251.147 l 5.400,0.000">
<desc>l16</desc>
</path>
<path stroke="peachpuff" stroke-width="2" stroke-linecap="round"
      fill="none" d="M 286.400,103.923 l 5.400,0.000 M 291.800,103.923 a 5.543,5.543 0 0,1 4.800,2.771 M 296.600,101.152 a 5.543,5.543 0 0,1 -4.800,2.771 M 296.600,106.694 a 5.543,5.543 0 0,1 0.000,-5.543 M 296.600,124.015 a 5.543,5.543 0 0,1 0.000,-5.543 M 298.400,109.812 a 5.543,5.543 0 0,1 0.000,5.543 M 298.400,109.812 l -1.800,-3.118 M 298.400,115.355 l -1.800,3.118 M 298.400,98.034 a 5.543,5.543 0 0,1 4.800,-2.771 M 298.400,98.034 l -1.800,3.118 M 299.300,128.691 l -2.700,-4.677 M 303.200,95.263 l 5.400,0.000">
<desc>l26</desc>
</path>
<path stroke="deeppink" stroke-width="2" stroke-linecap="round"
      fill="none" d="M 191.600,149.996 a 5.543,5.543 0 0,1 0.000,-5.543 M 193.400,141.335 a 5.543,5.543 0 0,1 4.800,-2.771 M 193.400,141.335 l -1.800,3.118 M 193.400,153.113 l -1.800,-3.118 M 198.200,138.564 l 3.600,0.000 M 198.200,155.885 a 5.543,5.543 0 0,1 -4.800,-2.771 M 198.200,155.885 l 5.400,0.000 M 201.800,138.564 a 5.543,5.543 0 0,1 4.800,2.771 M 208.400,144.453 l -1.800,-3.118 M 213.200,147.224 a 5.543,5.543 0 0,1 -4.800,-2.771 M 213.200,147.224 l 5.400,0.000">
<desc>q06</desc>
</path>
<path stroke="greenyellow" stroke-width="2" stroke-linecap="round"
      fill="none" d="M 11.600,253.919 a 5.543,5.543 0 0,1 0.000,-5.543 M 13.400,245.258 a 5.543,5.543 0 0,1 4.800,-2.771 M 13.400,245.258 l -1.800,3.118 M 13.400,257.036 a 5.543,5.543 0 0,1 0.000,5.543 M 13.400,257.036 l -1.800,-3.118 M 13.400,262.579 a 5.543,5.543 0 0,1 4.800,-2.771 M 13.400,262.579 l -2.700,4.677 M 18.200,242.487 l 3.600,0.000 M 18.200,259.808 a 5.543,5.543 0 0,1 -4.800,-2.771 M 18.200,259.808 l 5.400,0.000 M 21.800,242.487 a 5.543,5.543 0 0,1 4.800,2.771 M 29.300,249.935 l -2.700,-4.677">
<desc>q16</desc>
</path>
<path stroke="hotpink" stroke-width="2" stroke-linecap="round"
      fill="none" d="M 26.600,262.579 a 5.543,5.543 0 0,1 0.000,-5.543 M 28.400,253.919 a 5.543,5.543 0 0,1 4.800,-2.771 M 28.400,253.919 l -1.800,3.118 M 28.400,265.697 a 5.543,5.543 0 0,1 0.000,5.543 M 28.400,265.697 l -1.800,-3.118 M 28.400,271.239 a 5.543,5.543 0 0,1 4.800,-2.771 M 28.400,271.239 l -2.700,4.677 M 33.200,251.147 l 5.400,0.000 M 33.200,268.468 a 5.543,5.543 0 0,1 -4.800,-2.771 M 33.200,268.468 l 3.600,0.000 M 41.600,265.697 a 5.543,5.543 0 0,1 -4.800,2.771 M 44.300,261.020 l -2.700,4.677">
<desc>q26</desc>
</path>
<path stroke="indianred" stroke-width="2" stroke-linecap="round"
      fill="none" d="M 271.400,95.263 l 5.400,0.000 M 276.800,95.263 a 5.543,5.543 0 0,1 4.800,2.771 M 281.600,92.492 a 5.543,5.543 0 0,1 -4.800,2.771 M 281.600,98.034 a 5.543,5.543 0 0,1 0.000,-5.543 M 283.400,101.152 a 5.543,5.543 0 0,1 0.000,5.543 M 283.400,101.152 l -1.800,-3.118 M 283.400,106.694 l -2.700,4.677 M 283.400,89.374 a 5.543,5.543 0 0,1 4.800,-2.771 M 283.400,89.374 l -1.800,3.118 M 288.200,86.603 l 3.600,0.000 M 291.800,86.603 a 5.543,5.543 0 0,1 4.800,2.771 M 299.300,94.050 l -2.700,-4.677">
<desc>r06</desc>
</path>
<path stroke="olivedrab" stroke-width="2" stroke-linecap="round"
      fill="none" d="M 61.400,251.147 l 5.400,0.000 M 61.400,268.468 l 5.400,0.000 M 66.800,251.147 a 5.543,5.543 0 0,1 4.800,2.771 M 71.600,248.376 a 5.543,5.543 0 0,1 -4.800,2.771 M 71.600,253.919 a 5.543,5.543 0 0,1 0.000,-5.543 M 71.600,265.697 a 5.543,5.543 0 0,1 -4.800,2.771 M 73.400,245.258 a 5.543,5.543 0 0,1 4.800,-2.771 M 73.400,245.258 l -1.800,3.118 M 73.400,257.036 a 5.543,5.543 0 0,1 0.000,5.543 M 73.400,257.036 l -1.800,-3.118 M 73.400,262.579 l -1.800,3.118 M 78.200,242.487 l 5.400,0.000">
<desc>r16</desc>
</path>
<path stroke="limegreen" stroke-width="2" stroke-linecap="round"
      fill="none" d="M 208.400,132.675 a 5.543,5.543 0 0,1 4.800,-2.771 M 208.400,132.675 l -2.700,4.677 M 213.200,129.904 l 3.600,0.000 M 216.800,129.904 a 5.543,5.543 0 0,1 4.800,2.771 M 221.600,149.996 a 5.543,5.543 0 0,1 0.000,-5.543 M 223.400,135.793 a 5.543,5.543 0 0,1 0.000,5.543 M 223.400,135.793 l -1.800,-3.118 M 223.400,141.335 l -1.800,3.118 M 223.400,153.113 l -1.800,-3.118 M 228.200,155.885 a 5.543,5.543 0 0,1 -4.800,-2.771 M 228.200,155.885 l 5.400,0.000">
<desc>s06</desc>
</path>
<path stroke="mediumpurple" stroke-width="2" stroke-linecap="round"
      fill="none" d="M 301.400,112.583 l 5.400,0.000 M 311.600,109.812 a 5.543,5.543 0 0,1 -4.800,2.771 M 313.400,106.694 a 5.543,5.543 0 0,1 4.800,-2.771 M 313.400,106.694 l -1.800,3.118 M 318.200,103.923 l 3.600,0.000 M 321.800,103.923 a 5.543,5.543 0 0,1 4.800,2.771 M 328.400,109.812 l -1.800,-3.118 M 333.200,112.583 a 5.543,5.543 0 0,1 -4.800,-2.771 M 333.200,112.583 l 3.600,0.000 M 341.600,109.812 a 5.543,5.543 0 0,1 -4.800,2.771 M 344.300,105.135 l -2.700,4.677">
<desc>s16</desc>
</path>
<path stroke="orange" stroke-width="2" stroke-linecap="round"
      fill="none" d="M 373.400,37.412 a 5.543,5.543 0 0,1 4.800,-2.771 M 373.400,37.412 l -2.700,4.677 M 378.200,34.641 l 3.600,0.000 M 381.800,34.641 a 5.543,5.543 0 0,1 4.800,2.771 M 388.400,40.530 l -1.800,-3.118 M 393.200,43.301 a 5.543,5.543 0 0,1 -4.800,-2.771 M 393.200,43.301 l 3.600,0.000 M 396.800,43.301 a 5.543,5.543 0 0,1 4.800,2.771 M 401.600,40.530 a 5.543,5.543 0 0,1 -4.800,2.771 M 401.600,46.073 a 5.543,5.543 0 0,1 0.000,-5.543 M 404.300,35.853 l -2.700,4.677 M 404.300,50.749 l -2.700,-4.677">
<desc>s26</desc>
</path>
<path stroke="darkorchid" stroke-width="2" stroke-linecap="round"
      fill="none" d="M 196.400,190.526 l 5.400,0.000 M 206.600,187.754 a 5.543,5.543 0 0,1 -4.800,2.771 M 208.400,184.637 a 5.543,5.543 0 0,1 4.800,-2.771 M 208.400,184.637 l -1.800,3.118 M 213.200,181.865 l 3.600,0.000 M 221.600,167.316 a 5.543,5.543 0 0,1 0.000,-5.543 M 221.600,179.094 a 5.543,5.543 0 0,1 -4.800,2.771 M 223.400,170.434 a 5.543,5.543 0 0,1 0.000,5.543 M 223.400,170.434 l -1.800,-3.118 M 223.400,175.976 l -1.800,3.118 M 224.300,157.097 l -2.700,4.677">
<desc>w06</desc>
</path>
<path stroke="silver" stroke-width="2" stroke-linecap="round"
      fill="none" d="M 226.400,138.564 l 5.400,0.000 M 231.800,138.564 a 5.543,5.543 0 0,1 4.800,2.771 M 236.600,135.793 a 5.543,5.543 0 0,1 -4.800,2.771 M 236.600,141.335 a 5.543,5.543 0 0,1 0.000,-5.543 M 236.600,158.656 a 5.543,5.543 0 0,1 0.000,-5.543 M 238.400,144.453 a 5.543,5.543 0 0,1 0.000,5.543 M 238.400,144.453 l -1.800,-3.118 M 238.400,149.996 a 5.543,5.543 0 0,1 4.800,-2.771 M 238.400,149.996 l -1.800,3.118 M 239.300,131.116 l -2.700,4.677 M 239.300,163.332 l -2.700,-4.677 M 243.200,147.224 a 5.543,5.543 0 0,1 -4.800,-2.771 M 243.200,147.224 l 5.400,0.000">
<desc>x06</desc>
</path>
<path stroke="thistle" stroke-width="2" stroke-linecap="round"
      fill="none" d="M 166.400,155.885 l 5.400,0.000 M 171.800,155.885 a 5.543,5.543 0 0,1 4.800,2.771 M 176.600,153.113 a 5.543,5.543 0 0,1 -4.800,2.771 M 176.600,158.656 a 5.543,5.543 0 0,1 0.000,-5.543 M 178.400,149.996 a 5.543,5.543 0 0,1 4.800,-2.771 M 178.400,149.996 l -1.800,3.118 M 178.400,161.774 a 5.543,5.543 0 0,1 0.000,5.543 M 178.400,161.774 l -1.800,-3.118 M 178.400,167.316 a 5.543,5.543 0 0,1 4.800,-2.771 M 178.400,167.316 l -2.700,4.677 M 183.200,147.224 l 5.400,0.000 M 183.200,164.545 a 5.543,5.543 0 0,1 -4.800,-2.771 M 183.200,164.545 l 5.400,0.000">
<desc>x16</desc>
</path>
<path stroke="tomato" stroke-width="2" stroke-linecap="round"
      fill="none" d="M 118.400,213.735 l -2.700,-4.677 M 123.200,216.506 a 5.543,5.543 0 0,1 -4.800,-2.771 M 123.200,216.506 l 3.600,0.000 M 126.800,216.506 a 5.543,5.543 0 0,1 4.800,2.771 M 131.600,213.735 a 5.543,5.543 0 0,1 -4.800,2.771 M 131.600,219.278 a 5.543,5.543 0 0,1 0.000,-5.543 M 133.400,210.617 a 5.543,5.543 0 0,1 4.800,-2.771 M 133.400,210.617 l -1.800,3.118 M 133.400,222.395 a 5.543,5.543 0 0,1 0.000,5.543 M 133.400,222.395 l -1.800,-3.118 M 133.400,227.938 l -2.700,4.677 M 138.200,207.846 l 5.400,0.000">
<desc>y06</desc>
</path>
<path stroke="violet" stroke-width="2" stroke-linecap="round"
      fill="none" d="M 136.400,225.167 l 5.400,0.000 M 146.600,210.617 a 5.543,5.543 0 0,1 0.000,-5.543 M 146.600,222.395 a 5.543,5.543 0 0,1 -4.800,2.771 M 148.400,213.735 a 5.543,5.543 0 0,1 0.000,5.543 M 148.400,213.735 l -1.800,-3.118 M 148.400,219.278 a 5.543,5.543 0 0,1 4.800,-2.771 M 148.400,219.278 l -1.800,3.118 M 149.300,200.398 l -2.700,4.677 M 153.200,216.506 a 5.543,5.543 0 0,1 -4.800,-2.771 M 153.200,216.506 l 3.600,0.000 M 161.600,213.735 a 5.543,5.543 0 0,1 -4.800,2.771 M 164.300,209.059 l -2.700,4.677">
<desc>y16</desc>
</path>
<path stroke="darkmagenta" stroke-width="2" stroke-linecap="round"
      fill="none" d="M 326.600,89.374 a 5.543,5.543 0 0,1 0.000,-5.543 M 328.400,75.171 a 5.543,5.543 0 0,1 0.000,5.543 M 328.400,75.171 l -2.700,-4.677 M 328.400,80.714 a 5.543,5.543 0 0,1 4.800,-2.771 M 328.400,80.714 l -1.800,3.118 M 329.300,94.050 l -2.700,-4.677 M 333.200,77.942 a 5.543,5.543 0 0,1 -4.800,-2.771 M 333.200,77.942 l 3.600,0.000 M 336.800,77.942 a 5.543,5.543 0 0,1 4.800,2.771 M 343.400,83.831 l -1.800,-3.118 M 348.200,86.603 a 5.543,5.543 0 0,1 -4.800,-2.771 M 348.200,86.603 l 5.400,0.000">
<desc>y26</desc>
</path>
</g>
</svg>
