<?xml version="1.0" standalone="no"?>
<!-- Created by Polyform Puzzler (http://puzzler.sourceforge.net/) -->
<svg width="225.167" height="225.167"
     viewBox="0 0 225.167 225.167"
     xmlns="http://www.w3.org/2000/svg"
     xmlns:xlink="http://www.w3.org/1999/xlink">
<g transform="translate(112.583,112.583) rotate(30)">
<path stroke="cyan" stroke-width="2" stroke-linecap="round"
      fill="none" d="M 11.600,54.733 a 5.543,5.543 0 0,1 0.000,-5.543 M 13.400,46.073 a 5.543,5.543 0 0,1 4.800,-2.771 M 13.400,46.073 l -1.800,3.118 M 14.300,59.409 l -2.700,-4.677 M 18.200,43.301 l 5.400,0.000">
<desc>C3</desc>
</path>
<path stroke="darkorange" stroke-width="2" stroke-linecap="round"
      fill="none" d="M 28.400,37.412 a 5.543,5.543 0 0,1 4.800,-2.771 M 28.400,37.412 l -2.700,4.677 M 33.200,34.641 l 3.600,0.000 M 36.800,34.641 a 5.543,5.543 0 0,1 4.800,2.771 M 43.400,40.530 a 5.543,5.543 0 0,1 0.000,5.543 M 43.400,40.530 l -1.800,-3.118 M 43.400,46.073 l -2.700,4.677">
<desc>C4</desc>
</path>
<path stroke="steelblue" stroke-width="2" stroke-linecap="round"
      fill="none" d="M 44.300,27.193 l -3.600,6.235">
<desc>I1</desc>
</path>
<path stroke="khaki" stroke-width="2" stroke-linecap="round"
      fill="none" d="M 46.400,25.981 l 5.400,0.000 M 51.800,25.981 a 5.543,5.543 0 0,1 4.800,2.771 M 59.300,33.429 l -2.700,-4.677">
<desc>L2</desc>
</path>
<path stroke="blueviolet" stroke-width="2" stroke-linecap="round"
      fill="none" d="M 46.400,43.301 l 5.400,0.000 M 56.600,40.530 a 5.543,5.543 0 0,1 -4.800,2.771 M 58.400,37.412 a 5.543,5.543 0 0,1 4.800,-2.771 M 58.400,37.412 l -1.800,3.118 M 63.200,34.641 l 3.600,0.000 M 66.800,34.641 a 5.543,5.543 0 0,1 4.800,2.771 M 74.300,42.089 l -2.700,-4.677">
<desc>P4</desc>
</path>
<path stroke="magenta" stroke-width="2" stroke-linecap="round"
      fill="none" d="M 13.400,63.393 a 5.543,5.543 0 0,1 4.800,-2.771 M 13.400,63.393 l -2.700,4.677 M 18.200,60.622 l 3.600,0.000 M 26.600,57.850 a 5.543,5.543 0 0,1 -4.800,2.771 M 29.300,53.174 l -2.700,4.677">
<desc>S3</desc>
</path>
<path stroke="teal" stroke-width="2" stroke-linecap="round"
      fill="none" d="M 31.400,86.603 l 5.400,0.000 M 41.600,83.831 a 5.543,5.543 0 0,1 -4.800,2.771 M 43.400,80.714 a 5.543,5.543 0 0,1 4.800,-2.771 M 43.400,80.714 l -1.800,3.118 M 48.200,77.942 l 3.600,0.000 M 56.600,75.171 a 5.543,5.543 0 0,1 -4.800,2.771 M 59.300,70.494 l -2.700,4.677">
<desc>W4</desc>
</path>
<path stroke="lime" stroke-width="2" stroke-linecap="round"
      fill="none" d="M 28.400,66.511 a 5.543,5.543 0 0,1 0.000,5.543 M 28.400,66.511 l -2.700,-4.677 M 28.400,72.053 a 5.543,5.543 0 0,1 4.800,-2.771 M 28.400,72.053 l -2.700,4.677 M 33.200,69.282 a 5.543,5.543 0 0,1 -4.800,-2.771 M 33.200,69.282 l 5.400,0.000">
<desc>Y3</desc>
</path>
<path stroke="darkgreen" stroke-width="2" stroke-linecap="round"
      fill="none" d="M 31.400,51.962 l 5.400,0.000 M 36.800,51.962 a 5.543,5.543 0 0,1 4.800,2.771 M 43.400,57.850 a 5.543,5.543 0 0,1 0.000,5.543 M 43.400,57.850 l -1.800,-3.118 M 43.400,63.393 a 5.543,5.543 0 0,1 4.800,-2.771 M 43.400,63.393 l -2.700,4.677 M 48.200,60.622 a 5.543,5.543 0 0,1 -4.800,-2.771 M 48.200,60.622 l 5.400,0.000">
<desc>Y4</desc>
</path>
<path stroke="blueviolet" stroke-width="2" stroke-linecap="round"
      fill="none" d="M 56.600,63.393 a 5.543,5.543 0 0,1 0.000,-5.543 M 58.400,49.190 a 5.543,5.543 0 0,1 0.000,5.543 M 58.400,49.190 l -2.700,-4.677 M 58.400,54.733 l -1.800,3.118 M 58.400,66.511 l -1.800,-3.118 M 63.200,69.282 a 5.543,5.543 0 0,1 -4.800,-2.771 M 63.200,69.282 l 5.400,0.000">
<desc>p4</desc>
</path>
<path stroke="magenta" stroke-width="2" stroke-linecap="round"
      fill="none" d="M 13.400,75.171 l -2.700,-4.677 M 18.200,77.942 a 5.543,5.543 0 0,1 -4.800,-2.771 M 18.200,77.942 l 3.600,0.000 M 21.800,77.942 a 5.543,5.543 0 0,1 4.800,2.771 M 29.300,85.390 l -2.700,-4.677">
<desc>s3</desc>
</path>
<path stroke="darkgreen" stroke-width="2" stroke-linecap="round"
      fill="none" d="M 61.400,51.962 l 5.400,0.000 M 66.800,51.962 a 5.543,5.543 0 0,1 4.800,2.771 M 71.600,49.190 a 5.543,5.543 0 0,1 -4.800,2.771 M 71.600,54.733 a 5.543,5.543 0 0,1 0.000,-5.543 M 73.400,57.850 a 5.543,5.543 0 0,1 0.000,5.543 M 73.400,57.850 l -1.800,-3.118 M 73.400,63.393 l -2.700,4.677 M 74.300,44.514 l -2.700,4.677">
<desc>y4</desc>
</path>
</g>
</svg>
