<?xml version="1.0" standalone="no"?>
<!-- Created by Polyform Puzzler (http://puzzler.sourceforge.net/) -->
<svg width="398.372" height="398.372"
     viewBox="0 0 398.372 398.372"
     xmlns="http://www.w3.org/2000/svg"
     xmlns:xlink="http://www.w3.org/1999/xlink">
<g transform="translate(199.186,99.593) rotate(30)">
<path stroke="blue" stroke-width="2" stroke-linecap="round"
      fill="none" d="M 103.400,75.171 a 5.543,5.543 0 0,1 0.000,5.543 M 103.400,75.171 l -1.800,-3.118 M 103.400,80.714 l -2.700,4.677 M 86.600,80.714 a 5.543,5.543 0 0,1 0.000,-5.543 M 88.400,72.053 a 5.543,5.543 0 0,1 4.800,-2.771 M 88.400,72.053 l -1.800,3.118 M 89.300,85.390 l -2.700,-4.677 M 93.200,69.282 l 3.600,0.000 M 96.800,69.282 a 5.543,5.543 0 0,1 4.800,2.771">
<desc>C5</desc>
</path>
<path stroke="red" stroke-width="2" stroke-linecap="round"
      fill="none" d="M 11.600,72.053 a 5.543,5.543 0 0,1 0.000,-5.543 M 13.400,75.171 a 5.543,5.543 0 0,1 0.000,5.543 M 13.400,75.171 l -1.800,-3.118 M 13.400,80.714 a 5.543,5.543 0 0,1 4.800,-2.771 M 13.400,80.714 l -2.700,4.677 M 14.300,61.834 l -2.700,4.677 M 18.200,77.942 a 5.543,5.543 0 0,1 -4.800,-2.771 M 18.200,77.942 l 3.600,0.000 M 21.800,77.942 a 5.543,5.543 0 0,1 4.800,2.771 M 29.300,85.390 l -2.700,-4.677">
<desc>H5</desc>
</path>
<path stroke="lightcoral" stroke-width="2" stroke-linecap="round"
      fill="none" d="M 16.400,60.622 l 5.400,0.000 M 26.600,57.850 a 5.543,5.543 0 0,1 -4.800,2.771 M 28.400,54.733 a 5.543,5.543 0 0,1 4.800,-2.771 M 28.400,54.733 l -1.800,3.118 M 33.200,51.962 l 3.600,0.000 M 41.600,49.190 a 5.543,5.543 0 0,1 -4.800,2.771 M 43.400,46.073 a 5.543,5.543 0 0,1 4.800,-2.771 M 43.400,46.073 l -1.800,3.118 M 48.200,43.301 l 5.400,0.000">
<desc>I5</desc>
</path>
<path stroke="peru" stroke-width="2" stroke-linecap="round"
      fill="none" d="M 41.600,106.694 a 5.543,5.543 0 0,1 0.000,-5.543 M 43.400,109.812 a 5.543,5.543 0 0,1 0.000,5.543 M 43.400,109.812 l -1.800,-3.118 M 43.400,115.355 a 5.543,5.543 0 0,1 4.800,-2.771 M 43.400,115.355 l -2.700,4.677 M 43.400,92.492 a 5.543,5.543 0 0,1 0.000,5.543 M 43.400,92.492 l -2.700,-4.677 M 43.400,98.034 l -1.800,3.118 M 48.200,112.583 a 5.543,5.543 0 0,1 -4.800,-2.771 M 48.200,112.583 l 5.400,0.000">
<desc>L5</desc>
</path>
<path stroke="green" stroke-width="2" stroke-linecap="round"
      fill="none" d="M 56.600,149.996 a 5.543,5.543 0 0,1 0.000,-5.543 M 58.400,135.793 a 5.543,5.543 0 0,1 0.000,5.543 M 58.400,135.793 l -2.700,-4.677 M 58.400,141.335 l -1.800,3.118 M 58.400,153.113 l -1.800,-3.118 M 63.200,155.885 a 5.543,5.543 0 0,1 -4.800,-2.771 M 63.200,155.885 l 3.600,0.000 M 71.600,153.113 a 5.543,5.543 0 0,1 -4.800,2.771 M 74.300,148.437 l -2.700,4.677">
<desc>P5</desc>
</path>
<path stroke="navy" stroke-width="2" stroke-linecap="round"
      fill="none" d="M 103.400,109.812 a 5.543,5.543 0 0,1 0.000,5.543 M 103.400,109.812 l -1.800,-3.118 M 103.400,115.355 l -2.700,4.677 M 88.400,101.152 a 5.543,5.543 0 0,1 0.000,5.543 M 88.400,101.152 l -2.700,-4.677 M 88.400,106.694 a 5.543,5.543 0 0,1 4.800,-2.771 M 88.400,106.694 l -2.700,4.677 M 93.200,103.923 a 5.543,5.543 0 0,1 -4.800,-2.771 M 93.200,103.923 l 3.600,0.000 M 96.800,103.923 a 5.543,5.543 0 0,1 4.800,2.771">
<desc>R5</desc>
</path>
<path stroke="turquoise" stroke-width="2" stroke-linecap="round"
      fill="none" d="M 31.400,121.244 l 5.400,0.000 M 36.800,121.244 a 5.543,5.543 0 0,1 4.800,2.771 M 41.600,141.335 a 5.543,5.543 0 0,1 0.000,-5.543 M 43.400,127.133 a 5.543,5.543 0 0,1 0.000,5.543 M 43.400,127.133 l -1.800,-3.118 M 43.400,132.675 l -1.800,3.118 M 43.400,144.453 l -1.800,-3.118 M 48.200,147.224 a 5.543,5.543 0 0,1 -4.800,-2.771 M 48.200,147.224 l 5.400,0.000">
<desc>S5</desc>
</path>
<path stroke="brown" stroke-width="2" stroke-linecap="round"
      fill="none" d="M 11.600,106.694 a 5.543,5.543 0 0,1 0.000,-5.543 M 11.600,124.015 a 5.543,5.543 0 0,1 0.000,-5.543 M 13.400,109.812 a 5.543,5.543 0 0,1 0.000,5.543 M 13.400,109.812 l -1.800,-3.118 M 13.400,115.355 a 5.543,5.543 0 0,1 4.800,-2.771 M 13.400,115.355 l -1.800,3.118 M 14.300,128.691 l -2.700,-4.677 M 14.300,96.475 l -2.700,4.677 M 18.200,112.583 a 5.543,5.543 0 0,1 -4.800,-2.771 M 18.200,112.583 l 5.400,0.000">
<desc>T5</desc>
</path>
<path stroke="maroon" stroke-width="2" stroke-linecap="round"
      fill="none" d="M 61.400,121.244 l 5.400,0.000 M 71.600,118.472 a 5.543,5.543 0 0,1 -4.800,2.771 M 73.400,115.355 a 5.543,5.543 0 0,1 4.800,-2.771 M 73.400,115.355 l -1.800,3.118 M 78.200,112.583 l 3.600,0.000 M 81.800,112.583 a 5.543,5.543 0 0,1 4.800,2.771 M 88.400,118.472 l -1.800,-3.118 M 93.200,121.244 a 5.543,5.543 0 0,1 -4.800,-2.771 M 93.200,121.244 l 5.400,0.000">
<desc>U5</desc>
</path>
<path stroke="plum" stroke-width="2" stroke-linecap="round"
      fill="none" d="M 101.600,135.793 a 5.543,5.543 0 0,1 -4.800,2.771 M 103.400,127.133 a 5.543,5.543 0 0,1 0.000,5.543 M 103.400,127.133 l -2.700,-4.677 M 103.400,132.675 l -1.800,3.118 M 76.400,147.224 l 5.400,0.000 M 86.600,144.453 a 5.543,5.543 0 0,1 -4.800,2.771 M 88.400,141.335 a 5.543,5.543 0 0,1 4.800,-2.771 M 88.400,141.335 l -1.800,3.118 M 93.200,138.564 l 3.600,0.000">
<desc>W5</desc>
</path>
<path stroke="indigo" stroke-width="2" stroke-linecap="round"
      fill="none" d="M 46.400,95.263 l 5.400,0.000 M 51.800,95.263 a 5.543,5.543 0 0,1 4.800,2.771 M 56.600,92.492 a 5.543,5.543 0 0,1 -4.800,2.771 M 56.600,98.034 a 5.543,5.543 0 0,1 0.000,-5.543 M 58.400,83.831 a 5.543,5.543 0 0,1 0.000,5.543 M 58.400,83.831 l -2.700,-4.677 M 58.400,89.374 a 5.543,5.543 0 0,1 4.800,-2.771 M 58.400,89.374 l -1.800,3.118 M 59.300,102.711 l -2.700,-4.677 M 63.200,86.603 a 5.543,5.543 0 0,1 -4.800,-2.771 M 63.200,86.603 l 5.400,0.000">
<desc>X5</desc>
</path>
<path stroke="olive" stroke-width="2" stroke-linecap="round"
      fill="none" d="M 71.600,72.053 a 5.543,5.543 0 0,1 0.000,-5.543 M 73.400,57.850 a 5.543,5.543 0 0,1 0.000,5.543 M 73.400,57.850 l -2.700,-4.677 M 73.400,63.393 a 5.543,5.543 0 0,1 4.800,-2.771 M 73.400,63.393 l -1.800,3.118 M 74.300,76.730 l -2.700,-4.677 M 78.200,60.622 a 5.543,5.543 0 0,1 -4.800,-2.771 M 78.200,60.622 l 3.600,0.000 M 81.800,60.622 a 5.543,5.543 0 0,1 4.800,2.771 M 89.300,68.070 l -2.700,-4.677">
<desc>Y5</desc>
</path>
<path stroke="red" stroke-width="2" stroke-linecap="round"
      fill="none" d="M 16.400,129.904 l 5.400,0.000 M 21.800,129.904 a 5.543,5.543 0 0,1 4.800,2.771 M 26.600,127.133 a 5.543,5.543 0 0,1 -4.800,2.771 M 26.600,132.675 a 5.543,5.543 0 0,1 0.000,-5.543 M 28.400,118.472 a 5.543,5.543 0 0,1 0.000,5.543 M 28.400,118.472 l -2.700,-4.677 M 28.400,124.015 l -1.800,3.118 M 28.400,135.793 l -1.800,-3.118 M 33.200,138.564 a 5.543,5.543 0 0,1 -4.800,-2.771 M 33.200,138.564 l 5.400,0.000">
<desc>h5</desc>
</path>
<path stroke="lightcoral" stroke-width="2" stroke-linecap="round"
      fill="none" d="M 28.400,89.374 a 5.543,5.543 0 0,1 4.800,-2.771 M 28.400,89.374 l -2.700,4.677 M 33.200,86.603 l 3.600,0.000 M 41.600,83.831 a 5.543,5.543 0 0,1 -4.800,2.771 M 43.400,80.714 a 5.543,5.543 0 0,1 4.800,-2.771 M 43.400,80.714 l -1.800,3.118 M 48.200,77.942 l 3.600,0.000 M 56.600,75.171 a 5.543,5.543 0 0,1 -4.800,2.771 M 59.300,70.494 l -2.700,4.677">
<desc>i5</desc>
</path>
<path stroke="peru" stroke-width="2" stroke-linecap="round"
      fill="none" d="M 13.400,92.492 l -2.700,-4.677 M 18.200,95.263 a 5.543,5.543 0 0,1 -4.800,-2.771 M 18.200,95.263 l 3.600,0.000 M 21.800,95.263 a 5.543,5.543 0 0,1 4.800,2.771 M 28.400,101.152 a 5.543,5.543 0 0,1 0.000,5.543 M 28.400,101.152 l -1.800,-3.118 M 28.400,106.694 a 5.543,5.543 0 0,1 4.800,-2.771 M 28.400,106.694 l -2.700,4.677 M 33.200,103.923 a 5.543,5.543 0 0,1 -4.800,-2.771 M 33.200,103.923 l 5.400,0.000">
<desc>l5</desc>
</path>
<path stroke="green" stroke-width="2" stroke-linecap="round"
      fill="none" d="M 103.400,92.492 a 5.543,5.543 0 0,1 0.000,5.543 M 103.400,92.492 l -1.800,-3.118 M 103.400,98.034 l -2.700,4.677 M 76.400,95.263 l 5.400,0.000 M 86.600,92.492 a 5.543,5.543 0 0,1 -4.800,2.771 M 88.400,89.374 a 5.543,5.543 0 0,1 4.800,-2.771 M 88.400,89.374 l -1.800,3.118 M 93.200,86.603 l 3.600,0.000 M 96.800,86.603 a 5.543,5.543 0 0,1 4.800,2.771">
<desc>p5</desc>
</path>
<path stroke="navy" stroke-width="2" stroke-linecap="round"
      fill="none" d="M 56.600,63.393 a 5.543,5.543 0 0,1 0.000,-5.543 M 58.400,49.190 a 5.543,5.543 0 0,1 0.000,5.543 M 58.400,49.190 l -2.700,-4.677 M 58.400,54.733 a 5.543,5.543 0 0,1 4.800,-2.771 M 58.400,54.733 l -1.800,3.118 M 58.400,66.511 l -1.800,-3.118 M 63.200,51.962 a 5.543,5.543 0 0,1 -4.800,-2.771 M 63.200,51.962 l 5.400,0.000 M 63.200,69.282 a 5.543,5.543 0 0,1 -4.800,-2.771 M 63.200,69.282 l 5.400,0.000">
<desc>r5</desc>
</path>
<path stroke="turquoise" stroke-width="2" stroke-linecap="round"
      fill="none" d="M 46.400,129.904 l 5.400,0.000 M 56.600,115.355 a 5.543,5.543 0 0,1 0.000,-5.543 M 56.600,127.133 a 5.543,5.543 0 0,1 -4.800,2.771 M 58.400,106.694 a 5.543,5.543 0 0,1 4.800,-2.771 M 58.400,106.694 l -1.800,3.118 M 58.400,118.472 a 5.543,5.543 0 0,1 0.000,5.543 M 58.400,118.472 l -1.800,-3.118 M 58.400,124.015 l -1.800,3.118 M 63.200,103.923 l 5.400,0.000">
<desc>s5</desc>
</path>
<path stroke="plum" stroke-width="2" stroke-linecap="round"
      fill="none" d="M 71.600,106.694 a 5.543,5.543 0 0,1 0.000,-5.543 M 71.600,89.374 a 5.543,5.543 0 0,1 0.000,-5.543 M 73.400,80.714 a 5.543,5.543 0 0,1 4.800,-2.771 M 73.400,80.714 l -1.800,3.118 M 73.400,92.492 a 5.543,5.543 0 0,1 0.000,5.543 M 73.400,92.492 l -1.800,-3.118 M 73.400,98.034 l -1.800,3.118 M 74.300,111.371 l -2.700,-4.677 M 78.200,77.942 l 5.400,0.000">
<desc>w5</desc>
</path>
</g>
</svg>
