<?xml version="1.0" standalone="no"?>
<!-- Created by Polyform Puzzler (http://puzzler.sourceforge.net/) -->
<svg width="207.846" height="207.846"
     viewBox="0 0 207.846 207.846"
     xmlns="http://www.w3.org/2000/svg"
     xmlns:xlink="http://www.w3.org/1999/xlink">
<g transform="translate(103.923,103.923) rotate(30)">
<path stroke="darkorange" stroke-width="2" stroke-linecap="round"
      fill="none" d="M 11.600,46.073 a 5.543,5.543 0 0,1 0.000,-5.543 M 13.400,37.412 a 5.543,5.543 0 0,1 4.800,-2.771 M 13.400,37.412 l -1.800,3.118 M 14.300,50.749 l -2.700,-4.677 M 18.200,34.641 l 3.600,0.000 M 21.800,34.641 a 5.543,5.543 0 0,1 4.800,2.771 M 29.300,42.089 l -2.700,-4.677">
<desc>C4</desc>
</path>
<path stroke="blueviolet" stroke-width="2" stroke-linecap="round"
      fill="none" d="M 13.400,83.831 l -2.700,-4.677 M 18.200,86.603 a 5.543,5.543 0 0,1 -4.800,-2.771 M 18.200,86.603 l 3.600,0.000 M 26.600,83.831 a 5.543,5.543 0 0,1 -4.800,2.771 M 28.400,80.714 a 5.543,5.543 0 0,1 4.800,-2.771 M 28.400,80.714 l -1.800,3.118 M 33.200,77.942 l 5.400,0.000">
<desc>P4</desc>
</path>
<path stroke="teal" stroke-width="2" stroke-linecap="round"
      fill="none" d="M 13.400,54.733 a 5.543,5.543 0 0,1 4.800,-2.771 M 13.400,54.733 l -2.700,4.677 M 18.200,51.962 l 3.600,0.000 M 26.600,49.190 a 5.543,5.543 0 0,1 -4.800,2.771 M 28.400,46.073 a 5.543,5.543 0 0,1 4.800,-2.771 M 28.400,46.073 l -1.800,3.118 M 33.200,43.301 l 5.400,0.000">
<desc>W4</desc>
</path>
<path stroke="darkgreen" stroke-width="2" stroke-linecap="round"
      fill="none" d="M 41.600,63.393 a 5.543,5.543 0 0,1 0.000,-5.543 M 43.400,49.190 a 5.543,5.543 0 0,1 0.000,5.543 M 43.400,49.190 l -2.700,-4.677 M 43.400,54.733 a 5.543,5.543 0 0,1 4.800,-2.771 M 43.400,54.733 l -1.800,3.118 M 44.300,68.070 l -2.700,-4.677 M 48.200,51.962 a 5.543,5.543 0 0,1 -4.800,-2.771 M 48.200,51.962 l 5.400,0.000">
<desc>Y4</desc>
</path>
<path stroke="blueviolet" stroke-width="2" stroke-linecap="round"
      fill="none" d="M 43.400,72.053 a 5.543,5.543 0 0,1 4.800,-2.771 M 43.400,72.053 l -2.700,4.677 M 48.200,69.282 l 3.600,0.000 M 56.600,66.511 a 5.543,5.543 0 0,1 -4.800,2.771 M 58.400,57.850 a 5.543,5.543 0 0,1 0.000,5.543 M 58.400,57.850 l -2.700,-4.677 M 58.400,63.393 l -1.800,3.118">
<desc>p4</desc>
</path>
<path stroke="darkgreen" stroke-width="2" stroke-linecap="round"
      fill="none" d="M 13.400,66.511 a 5.543,5.543 0 0,1 0.000,5.543 M 13.400,66.511 l -2.700,-4.677 M 13.400,72.053 a 5.543,5.543 0 0,1 4.800,-2.771 M 13.400,72.053 l -2.700,4.677 M 18.200,69.282 a 5.543,5.543 0 0,1 -4.800,-2.771 M 18.200,69.282 l 3.600,0.000 M 21.800,69.282 a 5.543,5.543 0 0,1 4.800,2.771 M 29.300,76.730 l -2.700,-4.677">
<desc>y4</desc>
</path>
</g>
</svg>
