<?xml version="1.0" standalone="no"?>
<!-- Created by Polyform Puzzler (http://puzzler.sourceforge.net/) -->
<svg width="450.000" height="450.000"
     viewBox="0 0 450.000 450.000"
     xmlns="http://www.w3.org/2000/svg"
     xmlns:xlink="http://www.w3.org/1999/xlink">
<g transform="translate(225.000,225.000) rotate(30)">
<path stroke="cyan" stroke-width="2" stroke-linecap="round"
      fill="none" d="M 11.600,149.996 a 5.543,5.543 0 0,1 0.000,-5.543 M 13.400,141.335 a 5.543,5.543 0 0,1 4.800,-2.771 M 13.400,141.335 l -1.800,3.118 M 14.300,154.672 l -2.700,-4.677 M 18.200,138.564 l 5.400,0.000">
<desc>C3</desc>
</path>
<path stroke="darkorange" stroke-width="2" stroke-linecap="round"
      fill="none" d="M 11.600,132.675 a 5.543,5.543 0 0,1 0.000,-5.543 M 13.400,124.015 a 5.543,5.543 0 0,1 4.800,-2.771 M 13.400,124.015 l -1.800,3.118 M 14.300,137.352 l -2.700,-4.677 M 18.200,121.244 l 3.600,0.000 M 21.800,121.244 a 5.543,5.543 0 0,1 4.800,2.771 M 29.300,128.691 l -2.700,-4.677">
<desc>C4</desc>
</path>
<path stroke="blue" stroke-width="2" stroke-linecap="round"
      fill="none" d="M 11.600,167.316 a 5.543,5.543 0 0,1 0.000,-5.543 M 13.400,158.656 a 5.543,5.543 0 0,1 4.800,-2.771 M 13.400,158.656 l -1.800,3.118 M 13.400,170.434 l -1.800,-3.118 M 18.200,155.885 l 3.600,0.000 M 18.200,173.205 a 5.543,5.543 0 0,1 -4.800,-2.771 M 18.200,173.205 l 5.400,0.000 M 21.800,155.885 a 5.543,5.543 0 0,1 4.800,2.771 M 29.300,163.332 l -2.700,-4.677">
<desc>C5</desc>
</path>
<path stroke="red" stroke-width="2" stroke-linecap="round"
      fill="none" d="M 31.400,164.545 l 5.400,0.000 M 41.600,149.996 a 5.543,5.543 0 0,1 0.000,-5.543 M 41.600,161.774 a 5.543,5.543 0 0,1 -4.800,2.771 M 43.400,153.113 a 5.543,5.543 0 0,1 0.000,5.543 M 43.400,153.113 l -1.800,-3.118 M 43.400,158.656 a 5.543,5.543 0 0,1 4.800,-2.771 M 43.400,158.656 l -1.800,3.118 M 44.300,139.777 l -2.700,4.677 M 48.200,155.885 a 5.543,5.543 0 0,1 -4.800,-2.771 M 48.200,155.885 l 5.400,0.000">
<desc>H5</desc>
</path>
<path stroke="steelblue" stroke-width="2" stroke-linecap="round"
      fill="none" d="M 29.300,165.757 l -3.600,6.235">
<desc>I1</desc>
</path>
<path stroke="lightcoral" stroke-width="2" stroke-linecap="round"
      fill="none" d="M 136.400,51.962 l 5.400,0.000 M 146.600,49.190 a 5.543,5.543 0 0,1 -4.800,2.771 M 148.400,46.073 a 5.543,5.543 0 0,1 4.800,-2.771 M 148.400,46.073 l -1.800,3.118 M 153.200,43.301 l 3.600,0.000 M 161.600,40.530 a 5.543,5.543 0 0,1 -4.800,2.771 M 163.400,37.412 a 5.543,5.543 0 0,1 4.800,-2.771 M 163.400,37.412 l -1.800,3.118 M 168.200,34.641 l 5.400,0.000">
<desc>I5</desc>
</path>
<path stroke="khaki" stroke-width="2" stroke-linecap="round"
      fill="none" d="M 28.400,149.996 a 5.543,5.543 0 0,1 4.800,-2.771 M 28.400,149.996 l -2.700,4.677 M 33.200,147.224 l 5.400,0.000">
<desc>L2</desc>
</path>
<path stroke="peru" stroke-width="2" stroke-linecap="round"
      fill="none" d="M 136.400,69.282 l 5.400,0.000 M 141.800,69.282 a 5.543,5.543 0 0,1 4.800,2.771 M 148.400,75.171 l -1.800,-3.118 M 153.200,77.942 a 5.543,5.543 0 0,1 -4.800,-2.771 M 153.200,77.942 l 3.600,0.000 M 156.800,77.942 a 5.543,5.543 0 0,1 4.800,2.771 M 161.600,75.171 a 5.543,5.543 0 0,1 -4.800,2.771 M 161.600,80.714 a 5.543,5.543 0 0,1 0.000,-5.543 M 164.300,70.494 l -2.700,4.677 M 164.300,85.390 l -2.700,-4.677">
<desc>L5</desc>
</path>
<path stroke="blueviolet" stroke-width="2" stroke-linecap="round"
      fill="none" d="M 178.400,40.530 l -2.700,-4.677 M 183.200,43.301 a 5.543,5.543 0 0,1 -4.800,-2.771 M 183.200,43.301 l 3.600,0.000 M 186.800,43.301 a 5.543,5.543 0 0,1 4.800,2.771 M 193.400,49.190 a 5.543,5.543 0 0,1 0.000,5.543 M 193.400,49.190 l -1.800,-3.118 M 193.400,54.733 l -2.700,4.677">
<desc>P4</desc>
</path>
<path stroke="green" stroke-width="2" stroke-linecap="round"
      fill="none" d="M 193.400,72.053 a 5.543,5.543 0 0,1 4.800,-2.771 M 193.400,72.053 l -2.700,4.677 M 196.400,51.962 l 5.400,0.000 M 198.200,69.282 l 3.600,0.000 M 201.800,51.962 a 5.543,5.543 0 0,1 4.800,2.771 M 206.600,66.511 a 5.543,5.543 0 0,1 -4.800,2.771 M 208.400,57.850 a 5.543,5.543 0 0,1 0.000,5.543 M 208.400,57.850 l -1.800,-3.118 M 208.400,63.393 l -1.800,3.118">
<desc>P5</desc>
</path>
<path stroke="navy" stroke-width="2" stroke-linecap="round"
      fill="none" d="M 166.400,69.282 l 5.400,0.000 M 171.800,69.282 a 5.543,5.543 0 0,1 4.800,2.771 M 176.600,66.511 a 5.543,5.543 0 0,1 -4.800,2.771 M 176.600,72.053 a 5.543,5.543 0 0,1 0.000,-5.543 M 178.400,63.393 a 5.543,5.543 0 0,1 4.800,-2.771 M 178.400,63.393 l -1.800,3.118 M 179.300,76.730 l -2.700,-4.677 M 183.200,60.622 l 3.600,0.000 M 186.800,60.622 a 5.543,5.543 0 0,1 4.800,2.771 M 194.300,68.070 l -2.700,-4.677">
<desc>R5</desc>
</path>
<path stroke="magenta" stroke-width="2" stroke-linecap="round"
      fill="none" d="M 28.400,115.355 a 5.543,5.543 0 0,1 4.800,-2.771 M 28.400,115.355 l -2.700,4.677 M 33.200,112.583 l 3.600,0.000 M 41.600,109.812 a 5.543,5.543 0 0,1 -4.800,2.771 M 44.300,105.135 l -2.700,4.677">
<desc>S3</desc>
</path>
<path stroke="turquoise" stroke-width="2" stroke-linecap="round"
      fill="none" d="M 26.600,141.335 a 5.543,5.543 0 0,1 0.000,-5.543 M 28.400,132.675 a 5.543,5.543 0 0,1 4.800,-2.771 M 28.400,132.675 l -1.800,3.118 M 29.300,146.012 l -2.700,-4.677 M 33.200,129.904 l 3.600,0.000 M 41.600,127.133 a 5.543,5.543 0 0,1 -4.800,2.771 M 43.400,118.472 a 5.543,5.543 0 0,1 0.000,5.543 M 43.400,118.472 l -2.700,-4.677 M 43.400,124.015 l -1.800,3.118">
<desc>S5</desc>
</path>
<path stroke="brown" stroke-width="2" stroke-linecap="round"
      fill="none" d="M 46.400,138.564 l 5.400,0.000 M 56.600,135.793 a 5.543,5.543 0 0,1 -4.800,2.771 M 58.400,127.133 a 5.543,5.543 0 0,1 0.000,5.543 M 58.400,127.133 l -2.700,-4.677 M 58.400,132.675 a 5.543,5.543 0 0,1 4.800,-2.771 M 58.400,132.675 l -1.800,3.118 M 63.200,129.904 a 5.543,5.543 0 0,1 -4.800,-2.771 M 63.200,129.904 l 3.600,0.000 M 71.600,127.133 a 5.543,5.543 0 0,1 -4.800,2.771 M 74.300,122.456 l -2.700,4.677">
<desc>T5</desc>
</path>
<path stroke="maroon" stroke-width="2" stroke-linecap="round"
      fill="none" d="M 46.400,121.244 l 5.400,0.000 M 56.600,118.472 a 5.543,5.543 0 0,1 -4.800,2.771 M 58.400,115.355 a 5.543,5.543 0 0,1 4.800,-2.771 M 58.400,115.355 l -1.800,3.118 M 63.200,112.583 l 3.600,0.000 M 66.800,112.583 a 5.543,5.543 0 0,1 4.800,2.771 M 73.400,118.472 l -1.800,-3.118 M 78.200,121.244 a 5.543,5.543 0 0,1 -4.800,-2.771 M 78.200,121.244 l 5.400,0.000">
<desc>U5</desc>
</path>
<path stroke="teal" stroke-width="2" stroke-linecap="round"
      fill="none" d="M 163.400,89.374 a 5.543,5.543 0 0,1 4.800,-2.771 M 163.400,89.374 l -2.700,4.677 M 168.200,86.603 l 3.600,0.000 M 176.600,83.831 a 5.543,5.543 0 0,1 -4.800,2.771 M 178.400,80.714 a 5.543,5.543 0 0,1 4.800,-2.771 M 178.400,80.714 l -1.800,3.118 M 183.200,77.942 l 5.400,0.000">
<desc>W4</desc>
</path>
<path stroke="plum" stroke-width="2" stroke-linecap="round"
      fill="none" d="M 71.600,98.034 a 5.543,5.543 0 0,1 0.000,-5.543 M 73.400,89.374 a 5.543,5.543 0 0,1 4.800,-2.771 M 73.400,89.374 l -1.800,3.118 M 74.300,102.711 l -2.700,-4.677 M 78.200,86.603 l 3.600,0.000 M 86.600,83.831 a 5.543,5.543 0 0,1 -4.800,2.771 M 88.400,80.714 a 5.543,5.543 0 0,1 4.800,-2.771 M 88.400,80.714 l -1.800,3.118 M 93.200,77.942 l 5.400,0.000">
<desc>W5</desc>
</path>
<path stroke="indigo" stroke-width="2" stroke-linecap="round"
      fill="none" d="M 163.400,49.190 a 5.543,5.543 0 0,1 0.000,5.543 M 163.400,49.190 l -2.700,-4.677 M 163.400,54.733 a 5.543,5.543 0 0,1 4.800,-2.771 M 163.400,54.733 l -2.700,4.677 M 168.200,51.962 a 5.543,5.543 0 0,1 -4.800,-2.771 M 168.200,51.962 l 3.600,0.000 M 171.800,51.962 a 5.543,5.543 0 0,1 4.800,2.771 M 176.600,49.190 a 5.543,5.543 0 0,1 -4.800,2.771 M 176.600,54.733 a 5.543,5.543 0 0,1 0.000,-5.543 M 179.300,44.514 l -2.700,4.677 M 179.300,59.409 l -2.700,-4.677">
<desc>X5</desc>
</path>
<path stroke="lime" stroke-width="2" stroke-linecap="round"
      fill="none" d="M 148.400,57.850 a 5.543,5.543 0 0,1 0.000,5.543 M 148.400,57.850 l -2.700,-4.677 M 148.400,63.393 a 5.543,5.543 0 0,1 4.800,-2.771 M 148.400,63.393 l -2.700,4.677 M 153.200,60.622 a 5.543,5.543 0 0,1 -4.800,-2.771 M 153.200,60.622 l 5.400,0.000">
<desc>Y3</desc>
</path>
<path stroke="darkgreen" stroke-width="2" stroke-linecap="round"
      fill="none" d="M 103.400,106.694 a 5.543,5.543 0 0,1 4.800,-2.771 M 103.400,106.694 l -2.700,4.677 M 108.200,103.923 l 3.600,0.000 M 111.800,103.923 a 5.543,5.543 0 0,1 4.800,2.771 M 116.600,101.152 a 5.543,5.543 0 0,1 -4.800,2.771 M 116.600,106.694 a 5.543,5.543 0 0,1 0.000,-5.543 M 119.300,111.371 l -2.700,-4.677 M 119.300,96.475 l -2.700,4.677">
<desc>Y4</desc>
</path>
<path stroke="olive" stroke-width="2" stroke-linecap="round"
      fill="none" d="M 101.600,127.133 a 5.543,5.543 0 0,1 -4.800,2.771 M 103.400,118.472 a 5.543,5.543 0 0,1 0.000,5.543 M 103.400,118.472 l -1.800,-3.118 M 103.400,124.015 a 5.543,5.543 0 0,1 4.800,-2.771 M 103.400,124.015 l -1.800,3.118 M 108.200,121.244 a 5.543,5.543 0 0,1 -4.800,-2.771 M 108.200,121.244 l 5.400,0.000 M 91.400,112.583 l 5.400,0.000 M 91.400,129.904 l 5.400,0.000 M 96.800,112.583 a 5.543,5.543 0 0,1 4.800,2.771">
<desc>Y5</desc>
</path>
<path stroke="red" stroke-width="2" stroke-linecap="round"
      fill="none" d="M 133.400,89.374 a 5.543,5.543 0 0,1 4.800,-2.771 M 133.400,89.374 l -2.700,4.677 M 138.200,86.603 l 3.600,0.000 M 141.800,86.603 a 5.543,5.543 0 0,1 4.800,2.771 M 146.600,83.831 a 5.543,5.543 0 0,1 -4.800,2.771 M 146.600,89.374 a 5.543,5.543 0 0,1 0.000,-5.543 M 148.400,92.492 l -1.800,-3.118 M 149.300,79.155 l -2.700,4.677 M 153.200,95.263 a 5.543,5.543 0 0,1 -4.800,-2.771 M 153.200,95.263 l 5.400,0.000">
<desc>h5</desc>
</path>
<path stroke="lightcoral" stroke-width="2" stroke-linecap="round"
      fill="none" d="M 118.400,115.355 a 5.543,5.543 0 0,1 4.800,-2.771 M 118.400,115.355 l -2.700,4.677 M 123.200,112.583 l 3.600,0.000 M 131.600,109.812 a 5.543,5.543 0 0,1 -4.800,2.771 M 133.400,106.694 a 5.543,5.543 0 0,1 4.800,-2.771 M 133.400,106.694 l -1.800,3.118 M 138.200,103.923 l 3.600,0.000 M 146.600,101.152 a 5.543,5.543 0 0,1 -4.800,2.771 M 149.300,96.475 l -2.700,4.677">
<desc>i5</desc>
</path>
<path stroke="peru" stroke-width="2" stroke-linecap="round"
      fill="none" d="M 106.400,86.603 l 5.400,0.000 M 111.800,86.603 a 5.543,5.543 0 0,1 4.800,2.771 M 116.600,83.831 a 5.543,5.543 0 0,1 -4.800,2.771 M 116.600,89.374 a 5.543,5.543 0 0,1 0.000,-5.543 M 118.400,92.492 l -1.800,-3.118 M 119.300,79.155 l -2.700,4.677 M 123.200,95.263 a 5.543,5.543 0 0,1 -4.800,-2.771 M 123.200,95.263 l 3.600,0.000 M 126.800,95.263 a 5.543,5.543 0 0,1 4.800,2.771 M 134.300,102.711 l -2.700,-4.677">
<desc>l5</desc>
</path>
<path stroke="blueviolet" stroke-width="2" stroke-linecap="round"
      fill="none" d="M 73.400,106.694 a 5.543,5.543 0 0,1 4.800,-2.771 M 73.400,106.694 l -2.700,4.677 M 78.200,103.923 l 3.600,0.000 M 86.600,101.152 a 5.543,5.543 0 0,1 -4.800,2.771 M 88.400,92.492 a 5.543,5.543 0 0,1 0.000,5.543 M 88.400,92.492 l -2.700,-4.677 M 88.400,98.034 l -1.800,3.118">
<desc>p4</desc>
</path>
<path stroke="green" stroke-width="2" stroke-linecap="round"
      fill="none" d="M 116.600,72.053 a 5.543,5.543 0 0,1 0.000,-5.543 M 118.400,63.393 a 5.543,5.543 0 0,1 4.800,-2.771 M 118.400,63.393 l -1.800,3.118 M 118.400,75.171 l -1.800,-3.118 M 123.200,60.622 l 5.400,0.000 M 123.200,77.942 a 5.543,5.543 0 0,1 -4.800,-2.771 M 123.200,77.942 l 3.600,0.000 M 126.800,77.942 a 5.543,5.543 0 0,1 4.800,2.771 M 134.300,85.390 l -2.700,-4.677">
<desc>p5</desc>
</path>
<path stroke="navy" stroke-width="2" stroke-linecap="round"
      fill="none" d="M 58.400,144.453 a 5.543,5.543 0 0,1 0.000,5.543 M 58.400,144.453 l -2.700,-4.677 M 58.400,149.996 a 5.543,5.543 0 0,1 4.800,-2.771 M 58.400,149.996 l -2.700,4.677 M 63.200,147.224 a 5.543,5.543 0 0,1 -4.800,-2.771 M 63.200,147.224 l 3.600,0.000 M 71.600,144.453 a 5.543,5.543 0 0,1 -4.800,2.771 M 73.400,135.793 a 5.543,5.543 0 0,1 0.000,5.543 M 73.400,135.793 l -2.700,-4.677 M 73.400,141.335 l -1.800,3.118">
<desc>r5</desc>
</path>
<path stroke="magenta" stroke-width="2" stroke-linecap="round"
      fill="none" d="M 131.600,63.393 a 5.543,5.543 0 0,1 0.000,-5.543 M 133.400,66.511 a 5.543,5.543 0 0,1 0.000,5.543 M 133.400,66.511 l -1.800,-3.118 M 133.400,72.053 l -2.700,4.677 M 134.300,53.174 l -2.700,4.677">
<desc>s3</desc>
</path>
<path stroke="turquoise" stroke-width="2" stroke-linecap="round"
      fill="none" d="M 101.600,80.714 a 5.543,5.543 0 0,1 0.000,-5.543 M 101.600,92.492 a 5.543,5.543 0 0,1 -4.800,2.771 M 103.400,72.053 a 5.543,5.543 0 0,1 4.800,-2.771 M 103.400,72.053 l -1.800,3.118 M 103.400,83.831 a 5.543,5.543 0 0,1 0.000,5.543 M 103.400,83.831 l -1.800,-3.118 M 103.400,89.374 l -1.800,3.118 M 108.200,69.282 l 5.400,0.000 M 91.400,95.263 l 5.400,0.000">
<desc>s5</desc>
</path>
<path stroke="plum" stroke-width="2" stroke-linecap="round"
      fill="none" d="M 76.400,138.564 l 5.400,0.000 M 86.600,124.015 a 5.543,5.543 0 0,1 0.000,-5.543 M 86.600,135.793 a 5.543,5.543 0 0,1 -4.800,2.771 M 88.400,109.812 a 5.543,5.543 0 0,1 0.000,5.543 M 88.400,109.812 l -2.700,-4.677 M 88.400,115.355 l -1.800,3.118 M 88.400,127.133 a 5.543,5.543 0 0,1 0.000,5.543 M 88.400,127.133 l -1.800,-3.118 M 88.400,132.675 l -1.800,3.118">
<desc>w5</desc>
</path>
<path stroke="darkgreen" stroke-width="2" stroke-linecap="round"
      fill="none" d="M 46.400,103.923 l 5.400,0.000 M 51.800,103.923 a 5.543,5.543 0 0,1 4.800,2.771 M 56.600,101.152 a 5.543,5.543 0 0,1 -4.800,2.771 M 56.600,106.694 a 5.543,5.543 0 0,1 0.000,-5.543 M 58.400,98.034 a 5.543,5.543 0 0,1 4.800,-2.771 M 58.400,98.034 l -1.800,3.118 M 59.300,111.371 l -2.700,-4.677 M 63.200,95.263 l 5.400,0.000">
<desc>y4</desc>
</path>
</g>
</svg>
