<?xml version="1.0" standalone="no"?>
<!-- Created by Polyform Puzzler (http://puzzler.sourceforge.net/) -->
<svg width="195.000" height="311.769"
     viewBox="0 0 195.000 311.769"
     xmlns="http://www.w3.org/2000/svg"
     xmlns:xlink="http://www.w3.org/1999/xlink">
<g>
<path stroke="blue" stroke-width="2" stroke-linecap="round"
      fill="none" d="M 26.600,210.617 a 5.543,5.543 0 0,1 0.000,-5.543 M 28.400,213.735 l -1.800,-3.118 M 29.300,200.398 l -2.700,4.677 M 33.200,216.506 a 5.543,5.543 0 0,1 -4.800,-2.771 M 33.200,216.506 l 3.600,0.000 M 41.600,213.735 a 5.543,5.543 0 0,1 -4.800,2.771 M 43.400,205.075 a 5.543,5.543 0 0,1 0.000,5.543 M 43.400,205.075 l -2.700,-4.677 M 43.400,210.617 l -1.800,3.118">
<desc>C5</desc>
</path>
<path stroke="red" stroke-width="2" stroke-linecap="round"
      fill="none" d="M 46.400,190.526 l 5.400,0.000 M 56.600,187.754 a 5.543,5.543 0 0,1 -4.800,2.771 M 58.400,179.094 a 5.543,5.543 0 0,1 0.000,5.543 M 58.400,179.094 l -2.700,-4.677 M 58.400,184.637 a 5.543,5.543 0 0,1 4.800,-2.771 M 58.400,184.637 l -1.800,3.118 M 63.200,181.865 a 5.543,5.543 0 0,1 -4.800,-2.771 M 63.200,181.865 l 3.600,0.000 M 66.800,181.865 a 5.543,5.543 0 0,1 4.800,2.771 M 74.300,189.313 l -2.700,-4.677">
<desc>H5</desc>
</path>
<path stroke="lightcoral" stroke-width="2" stroke-linecap="round"
      fill="none" d="M 61.400,233.827 l 5.400,0.000 M 71.600,231.056 a 5.543,5.543 0 0,1 -4.800,2.771 M 73.400,227.938 a 5.543,5.543 0 0,1 4.800,-2.771 M 73.400,227.938 l -1.800,3.118 M 78.200,225.167 l 3.600,0.000 M 86.600,222.395 a 5.543,5.543 0 0,1 -4.800,2.771 M 88.400,219.278 a 5.543,5.543 0 0,1 4.800,-2.771 M 88.400,219.278 l -1.800,3.118 M 93.200,216.506 l 5.400,0.000">
<desc>I5</desc>
</path>
<path stroke="peru" stroke-width="2" stroke-linecap="round"
      fill="none" d="M 101.600,196.415 a 5.543,5.543 0 0,1 -4.800,2.771 M 101.600,201.957 a 5.543,5.543 0 0,1 0.000,-5.543 M 101.600,219.278 a 5.543,5.543 0 0,1 0.000,-5.543 M 103.400,205.075 a 5.543,5.543 0 0,1 0.000,5.543 M 103.400,205.075 l -1.800,-3.118 M 103.400,210.617 l -1.800,3.118 M 104.300,191.738 l -2.700,4.677 M 104.300,223.954 l -2.700,-4.677 M 91.400,199.186 l 5.400,0.000 M 96.800,199.186 a 5.543,5.543 0 0,1 4.800,2.771">
<desc>L5</desc>
</path>
<path stroke="green" stroke-width="2" stroke-linecap="round"
      fill="none" d="M 11.600,219.278 a 5.543,5.543 0 0,1 0.000,-5.543 M 13.400,205.075 a 5.543,5.543 0 0,1 0.000,5.543 M 13.400,205.075 l -2.700,-4.677 M 13.400,210.617 l -1.800,3.118 M 13.400,222.395 l -1.800,-3.118 M 18.200,225.167 a 5.543,5.543 0 0,1 -4.800,-2.771 M 18.200,225.167 l 3.600,0.000 M 26.600,222.395 a 5.543,5.543 0 0,1 -4.800,2.771 M 29.300,217.719 l -2.700,4.677">
<desc>P5</desc>
</path>
<path stroke="navy" stroke-width="2" stroke-linecap="round"
      fill="none" d="M 28.400,231.056 l -2.700,-4.677 M 33.200,233.827 a 5.543,5.543 0 0,1 -4.800,-2.771 M 33.200,233.827 l 3.600,0.000 M 41.600,231.056 a 5.543,5.543 0 0,1 -4.800,2.771 M 43.400,222.395 a 5.543,5.543 0 0,1 0.000,5.543 M 43.400,222.395 l -2.700,-4.677 M 43.400,227.938 a 5.543,5.543 0 0,1 4.800,-2.771 M 43.400,227.938 l -1.800,3.118 M 48.200,225.167 a 5.543,5.543 0 0,1 -4.800,-2.771 M 48.200,225.167 l 5.400,0.000">
<desc>R5</desc>
</path>
<path stroke="turquoise" stroke-width="2" stroke-linecap="round"
      fill="none" d="M 13.400,193.297 a 5.543,5.543 0 0,1 4.800,-2.771 M 13.400,193.297 l -2.700,4.677 M 18.200,190.526 l 3.600,0.000 M 21.800,190.526 a 5.543,5.543 0 0,1 4.800,2.771 M 28.400,196.415 l -1.800,-3.118 M 33.200,199.186 a 5.543,5.543 0 0,1 -4.800,-2.771 M 33.200,199.186 l 3.600,0.000 M 41.600,196.415 a 5.543,5.543 0 0,1 -4.800,2.771 M 44.300,191.738 l -2.700,4.677">
<desc>S5</desc>
</path>
<path stroke="brown" stroke-width="2" stroke-linecap="round"
      fill="none" d="M 28.400,184.637 a 5.543,5.543 0 0,1 4.800,-2.771 M 28.400,184.637 l -2.700,4.677 M 33.200,181.865 l 3.600,0.000 M 36.800,181.865 a 5.543,5.543 0 0,1 4.800,2.771 M 41.600,179.094 a 5.543,5.543 0 0,1 -4.800,2.771 M 41.600,184.637 a 5.543,5.543 0 0,1 0.000,-5.543 M 43.400,175.976 a 5.543,5.543 0 0,1 4.800,-2.771 M 43.400,175.976 l -1.800,3.118 M 44.300,189.313 l -2.700,-4.677 M 48.200,173.205 l 5.400,0.000">
<desc>T5</desc>
</path>
<path stroke="maroon" stroke-width="2" stroke-linecap="round"
      fill="none" d="M 56.600,210.617 a 5.543,5.543 0 0,1 0.000,-5.543 M 58.400,196.415 a 5.543,5.543 0 0,1 0.000,5.543 M 58.400,196.415 l -2.700,-4.677 M 58.400,201.957 l -1.800,3.118 M 58.400,213.735 l -1.800,-3.118 M 63.200,216.506 a 5.543,5.543 0 0,1 -4.800,-2.771 M 63.200,216.506 l 3.600,0.000 M 66.800,216.506 a 5.543,5.543 0 0,1 4.800,2.771 M 74.300,223.954 l -2.700,-4.677">
<desc>U5</desc>
</path>
<path stroke="plum" stroke-width="2" stroke-linecap="round"
      fill="none" d="M 136.400,190.526 l 5.400,0.000 M 141.800,190.526 a 5.543,5.543 0 0,1 4.800,2.771 M 146.600,210.617 a 5.543,5.543 0 0,1 0.000,-5.543 M 148.400,196.415 a 5.543,5.543 0 0,1 0.000,5.543 M 148.400,196.415 l -1.800,-3.118 M 148.400,201.957 l -1.800,3.118 M 148.400,213.735 a 5.543,5.543 0 0,1 0.000,5.543 M 148.400,213.735 l -1.800,-3.118 M 148.400,219.278 l -2.700,4.677">
<desc>W5</desc>
</path>
<path stroke="indigo" stroke-width="2" stroke-linecap="round"
      fill="none" d="M 73.400,205.075 a 5.543,5.543 0 0,1 0.000,5.543 M 73.400,205.075 l -2.700,-4.677 M 73.400,210.617 a 5.543,5.543 0 0,1 4.800,-2.771 M 73.400,210.617 l -2.700,4.677 M 78.200,207.846 a 5.543,5.543 0 0,1 -4.800,-2.771 M 78.200,207.846 l 3.600,0.000 M 81.800,207.846 a 5.543,5.543 0 0,1 4.800,2.771 M 86.600,205.075 a 5.543,5.543 0 0,1 -4.800,2.771 M 86.600,210.617 a 5.543,5.543 0 0,1 0.000,-5.543 M 89.300,200.398 l -2.700,4.677 M 89.300,215.294 l -2.700,-4.677">
<desc>X5</desc>
</path>
<path stroke="olive" stroke-width="2" stroke-linecap="round"
      fill="none" d="M 101.600,179.094 a 5.543,5.543 0 0,1 -4.800,2.771 M 101.600,184.637 a 5.543,5.543 0 0,1 0.000,-5.543 M 103.400,175.976 a 5.543,5.543 0 0,1 4.800,-2.771 M 103.400,175.976 l -1.800,3.118 M 103.400,187.754 l -1.800,-3.118 M 108.200,173.205 l 5.400,0.000 M 108.200,190.526 a 5.543,5.543 0 0,1 -4.800,-2.771 M 108.200,190.526 l 5.400,0.000 M 91.400,181.865 l 5.400,0.000 M 96.800,181.865 a 5.543,5.543 0 0,1 4.800,2.771">
<desc>Y5</desc>
</path>
<path stroke="red" stroke-width="2" stroke-linecap="round"
      fill="none" d="M 118.400,219.278 a 5.543,5.543 0 0,1 4.800,-2.771 M 118.400,219.278 l -2.700,4.677 M 123.200,216.506 l 3.600,0.000 M 126.800,216.506 a 5.543,5.543 0 0,1 4.800,2.771 M 131.600,213.735 a 5.543,5.543 0 0,1 -4.800,2.771 M 131.600,219.278 a 5.543,5.543 0 0,1 0.000,-5.543 M 133.400,222.395 l -1.800,-3.118 M 134.300,209.059 l -2.700,4.677 M 138.200,225.167 a 5.543,5.543 0 0,1 -4.800,-2.771 M 138.200,225.167 l 5.400,0.000">
<desc>h5</desc>
</path>
<path stroke="lightcoral" stroke-width="2" stroke-linecap="round"
      fill="none" d="M 116.600,193.297 a 5.543,5.543 0 0,1 0.000,-5.543 M 116.600,210.617 a 5.543,5.543 0 0,1 0.000,-5.543 M 118.400,179.094 a 5.543,5.543 0 0,1 0.000,5.543 M 118.400,179.094 l -2.700,-4.677 M 118.400,184.637 l -1.800,3.118 M 118.400,196.415 a 5.543,5.543 0 0,1 0.000,5.543 M 118.400,196.415 l -1.800,-3.118 M 118.400,201.957 l -1.800,3.118 M 119.300,215.294 l -2.700,-4.677">
<desc>i5</desc>
</path>
<path stroke="peru" stroke-width="2" stroke-linecap="round"
      fill="none" d="M 61.400,199.186 l 5.400,0.000 M 71.600,196.415 a 5.543,5.543 0 0,1 -4.800,2.771 M 73.400,193.297 a 5.543,5.543 0 0,1 4.800,-2.771 M 73.400,193.297 l -1.800,3.118 M 78.200,190.526 l 3.600,0.000 M 81.800,190.526 a 5.543,5.543 0 0,1 4.800,2.771 M 86.600,187.754 a 5.543,5.543 0 0,1 -4.800,2.771 M 86.600,193.297 a 5.543,5.543 0 0,1 0.000,-5.543 M 89.300,183.078 l -2.700,4.677 M 89.300,197.973 l -2.700,-4.677">
<desc>l5</desc>
</path>
<path stroke="green" stroke-width="2" stroke-linecap="round"
      fill="none" d="M 43.400,239.716 l -2.700,-4.677 M 48.200,242.487 a 5.543,5.543 0 0,1 -4.800,-2.771 M 48.200,242.487 l 3.600,0.000 M 56.600,227.938 a 5.543,5.543 0 0,1 0.000,-5.543 M 56.600,239.716 a 5.543,5.543 0 0,1 -4.800,2.771 M 58.400,231.056 a 5.543,5.543 0 0,1 0.000,5.543 M 58.400,231.056 l -1.800,-3.118 M 58.400,236.598 l -1.800,3.118 M 59.300,217.719 l -2.700,4.677">
<desc>p5</desc>
</path>
<path stroke="navy" stroke-width="2" stroke-linecap="round"
      fill="none" d="M 121.400,181.865 l 5.400,0.000 M 121.400,199.186 l 5.400,0.000 M 126.800,181.865 a 5.543,5.543 0 0,1 4.800,2.771 M 126.800,199.186 a 5.543,5.543 0 0,1 4.800,2.771 M 131.600,196.415 a 5.543,5.543 0 0,1 -4.800,2.771 M 131.600,201.957 a 5.543,5.543 0 0,1 0.000,-5.543 M 133.400,187.754 a 5.543,5.543 0 0,1 0.000,5.543 M 133.400,187.754 l -1.800,-3.118 M 133.400,193.297 l -1.800,3.118 M 134.300,206.634 l -2.700,-4.677">
<desc>r5</desc>
</path>
<path stroke="turquoise" stroke-width="2" stroke-linecap="round"
      fill="none" d="M 101.600,231.056 a 5.543,5.543 0 0,1 -4.800,2.771 M 103.400,227.938 a 5.543,5.543 0 0,1 4.800,-2.771 M 103.400,227.938 l -1.800,3.118 M 108.200,225.167 l 3.600,0.000 M 111.800,225.167 a 5.543,5.543 0 0,1 4.800,2.771 M 119.300,232.614 l -2.700,-4.677 M 88.400,231.056 l -2.700,-4.677 M 93.200,233.827 a 5.543,5.543 0 0,1 -4.800,-2.771 M 93.200,233.827 l 3.600,0.000">
<desc>s5</desc>
</path>
<path stroke="plum" stroke-width="2" stroke-linecap="round"
      fill="none" d="M 103.400,239.716 l -2.700,-4.677 M 108.200,242.487 a 5.543,5.543 0 0,1 -4.800,-2.771 M 108.200,242.487 l 3.600,0.000 M 116.600,239.716 a 5.543,5.543 0 0,1 -4.800,2.771 M 118.400,236.598 a 5.543,5.543 0 0,1 4.800,-2.771 M 118.400,236.598 l -1.800,3.118 M 123.200,233.827 l 3.600,0.000 M 131.600,231.056 a 5.543,5.543 0 0,1 -4.800,2.771 M 134.300,226.379 l -2.700,4.677">
<desc>w5</desc>
</path>
</g>
</svg>
