<?xml version="1.0" standalone="no"?>
<!-- Created by Polyform Puzzler (http://puzzler.sourceforge.net/) -->
<svg width="259.808" height="259.808"
     viewBox="0 0 259.808 259.808"
     xmlns="http://www.w3.org/2000/svg"
     xmlns:xlink="http://www.w3.org/1999/xlink">
<g transform="translate(129.904,64.952) rotate(30)">
<path stroke="cyan" stroke-width="2" stroke-linecap="round"
      fill="none" d="M 11.600,54.733 a 5.543,5.543 0 0,1 0.000,-5.543 M 13.400,46.073 a 5.543,5.543 0 0,1 4.800,-2.771 M 13.400,46.073 l -1.800,3.118 M 14.300,59.409 l -2.700,-4.677 M 18.200,43.301 l 5.400,0.000">
<desc>C3</desc>
</path>
<path stroke="darkorange" stroke-width="2" stroke-linecap="round"
      fill="none" d="M 11.600,72.053 a 5.543,5.543 0 0,1 0.000,-5.543 M 13.400,75.171 l -1.800,-3.118 M 14.300,61.834 l -2.700,4.677 M 18.200,77.942 a 5.543,5.543 0 0,1 -4.800,-2.771 M 18.200,77.942 l 3.600,0.000 M 26.600,75.171 a 5.543,5.543 0 0,1 -4.800,2.771 M 29.300,70.494 l -2.700,4.677">
<desc>C4</desc>
</path>
<path stroke="steelblue" stroke-width="2" stroke-linecap="round"
      fill="none" d="M 29.300,50.749 l -3.600,-6.235">
<desc>I1</desc>
</path>
<path stroke="khaki" stroke-width="2" stroke-linecap="round"
      fill="none" d="M 11.600,89.374 a 5.543,5.543 0 0,1 0.000,-5.543 M 14.300,79.155 l -2.700,4.677 M 14.300,94.050 l -2.700,-4.677">
<desc>L2</desc>
</path>
<path stroke="blueviolet" stroke-width="2" stroke-linecap="round"
      fill="none" d="M 58.400,66.511 l -2.700,-4.677 M 63.200,69.282 a 5.543,5.543 0 0,1 -4.800,-2.771 M 63.200,69.282 l 3.600,0.000 M 66.800,69.282 a 5.543,5.543 0 0,1 4.800,2.771 M 73.400,75.171 a 5.543,5.543 0 0,1 0.000,5.543 M 73.400,75.171 l -1.800,-3.118 M 73.400,80.714 l -2.700,4.677">
<desc>P4</desc>
</path>
<path stroke="magenta" stroke-width="2" stroke-linecap="round"
      fill="none" d="M 31.400,51.962 l 5.400,0.000 M 36.800,51.962 a 5.543,5.543 0 0,1 4.800,2.771 M 43.400,57.850 l -1.800,-3.118 M 48.200,60.622 a 5.543,5.543 0 0,1 -4.800,-2.771 M 48.200,60.622 l 5.400,0.000">
<desc>S3</desc>
</path>
<path stroke="teal" stroke-width="2" stroke-linecap="round"
      fill="none" d="M 43.400,98.034 a 5.543,5.543 0 0,1 4.800,-2.771 M 43.400,98.034 l -2.700,4.677 M 48.200,95.263 l 3.600,0.000 M 56.600,92.492 a 5.543,5.543 0 0,1 -4.800,2.771 M 58.400,89.374 a 5.543,5.543 0 0,1 4.800,-2.771 M 58.400,89.374 l -1.800,3.118 M 63.200,86.603 l 5.400,0.000">
<desc>W4</desc>
</path>
<path stroke="lime" stroke-width="2" stroke-linecap="round"
      fill="none" d="M 31.400,69.282 l 5.400,0.000 M 36.800,69.282 a 5.543,5.543 0 0,1 4.800,2.771 M 41.600,66.511 a 5.543,5.543 0 0,1 -4.800,2.771 M 41.600,72.053 a 5.543,5.543 0 0,1 0.000,-5.543 M 44.300,61.834 l -2.700,4.677 M 44.300,76.730 l -2.700,-4.677">
<desc>Y3</desc>
</path>
<path stroke="darkgreen" stroke-width="2" stroke-linecap="round"
      fill="none" d="M 43.400,80.714 a 5.543,5.543 0 0,1 4.800,-2.771 M 43.400,80.714 l -2.700,4.677 M 48.200,77.942 l 3.600,0.000 M 51.800,77.942 a 5.543,5.543 0 0,1 4.800,2.771 M 56.600,75.171 a 5.543,5.543 0 0,1 -4.800,2.771 M 56.600,80.714 a 5.543,5.543 0 0,1 0.000,-5.543 M 59.300,70.494 l -2.700,4.677 M 59.300,85.390 l -2.700,-4.677">
<desc>Y4</desc>
</path>
<path stroke="blueviolet" stroke-width="2" stroke-linecap="round"
      fill="none" d="M 11.600,106.694 a 5.543,5.543 0 0,1 0.000,-5.543 M 13.400,98.034 a 5.543,5.543 0 0,1 4.800,-2.771 M 13.400,98.034 l -1.800,3.118 M 14.300,111.371 l -2.700,-4.677 M 18.200,95.263 l 3.600,0.000 M 26.600,92.492 a 5.543,5.543 0 0,1 -4.800,2.771 M 29.300,87.815 l -2.700,4.677">
<desc>p4</desc>
</path>
<path stroke="magenta" stroke-width="2" stroke-linecap="round"
      fill="none" d="M 28.400,83.831 l -2.700,-4.677 M 33.200,86.603 a 5.543,5.543 0 0,1 -4.800,-2.771 M 33.200,86.603 l 3.600,0.000 M 36.800,86.603 a 5.543,5.543 0 0,1 4.800,2.771 M 44.300,94.050 l -2.700,-4.677">
<desc>s3</desc>
</path>
<path stroke="darkgreen" stroke-width="2" stroke-linecap="round"
      fill="none" d="M 16.400,112.583 l 5.400,0.000 M 26.600,109.812 a 5.543,5.543 0 0,1 -4.800,2.771 M 28.400,101.152 a 5.543,5.543 0 0,1 0.000,5.543 M 28.400,101.152 l -2.700,-4.677 M 28.400,106.694 a 5.543,5.543 0 0,1 4.800,-2.771 M 28.400,106.694 l -1.800,3.118 M 33.200,103.923 a 5.543,5.543 0 0,1 -4.800,-2.771 M 33.200,103.923 l 5.400,0.000">
<desc>y4</desc>
</path>
</g>
</svg>
