<?xml version="1.0" standalone="no"?>
<!-- Created by Polyform Puzzler (http://puzzler.sourceforge.net/) -->
<svg width="420.000" height="420.000"
     viewBox="0 0 420.000 420.000"
     xmlns="http://www.w3.org/2000/svg"
     xmlns:xlink="http://www.w3.org/1999/xlink">
<g transform="translate(210.000,210.000) rotate(30)">
<path stroke="blue" stroke-width="2" stroke-linecap="round"
      fill="none" d="M 11.600,141.335 a 5.543,5.543 0 0,1 0.000,-5.543 M 13.400,132.675 a 5.543,5.543 0 0,1 4.800,-2.771 M 13.400,132.675 l -1.800,3.118 M 13.400,144.453 l -1.800,-3.118 M 18.200,129.904 l 5.400,0.000 M 18.200,147.224 a 5.543,5.543 0 0,1 -4.800,-2.771 M 18.200,147.224 l 3.600,0.000 M 26.600,144.453 a 5.543,5.543 0 0,1 -4.800,2.771 M 29.300,139.777 l -2.700,4.677">
<desc>C5</desc>
</path>
<path stroke="red" stroke-width="2" stroke-linecap="round"
      fill="none" d="M 103.400,75.171 l -2.700,-4.677 M 108.200,77.942 a 5.543,5.543 0 0,1 -4.800,-2.771 M 108.200,77.942 l 3.600,0.000 M 111.800,77.942 a 5.543,5.543 0 0,1 4.800,2.771 M 116.600,75.171 a 5.543,5.543 0 0,1 -4.800,2.771 M 116.600,80.714 a 5.543,5.543 0 0,1 0.000,-5.543 M 118.400,72.053 a 5.543,5.543 0 0,1 4.800,-2.771 M 118.400,72.053 l -1.800,3.118 M 119.300,85.390 l -2.700,-4.677 M 123.200,69.282 l 5.400,0.000">
<desc>H5</desc>
</path>
<path stroke="lightcoral" stroke-width="2" stroke-linecap="round"
      fill="none" d="M 101.600,101.152 a 5.543,5.543 0 0,1 -4.800,2.771 M 103.400,98.034 a 5.543,5.543 0 0,1 4.800,-2.771 M 103.400,98.034 l -1.800,3.118 M 108.200,95.263 l 5.400,0.000 M 76.400,112.583 l 5.400,0.000 M 86.600,109.812 a 5.543,5.543 0 0,1 -4.800,2.771 M 88.400,106.694 a 5.543,5.543 0 0,1 4.800,-2.771 M 88.400,106.694 l -1.800,3.118 M 93.200,103.923 l 3.600,0.000">
<desc>I5</desc>
</path>
<path stroke="peru" stroke-width="2" stroke-linecap="round"
      fill="none" d="M 61.400,86.603 l 5.400,0.000 M 66.800,86.603 a 5.543,5.543 0 0,1 4.800,2.771 M 71.600,83.831 a 5.543,5.543 0 0,1 -4.800,2.771 M 71.600,89.374 a 5.543,5.543 0 0,1 0.000,-5.543 M 73.400,80.714 a 5.543,5.543 0 0,1 4.800,-2.771 M 73.400,80.714 l -1.800,3.118 M 74.300,94.050 l -2.700,-4.677 M 78.200,77.942 l 3.600,0.000 M 86.600,75.171 a 5.543,5.543 0 0,1 -4.800,2.771 M 89.300,70.494 l -2.700,4.677">
<desc>L5</desc>
</path>
<path stroke="green" stroke-width="2" stroke-linecap="round"
      fill="none" d="M 11.600,124.015 a 5.543,5.543 0 0,1 0.000,-5.543 M 13.400,115.355 a 5.543,5.543 0 0,1 4.800,-2.771 M 13.400,115.355 l -1.800,3.118 M 14.300,128.691 l -2.700,-4.677 M 18.200,112.583 l 3.600,0.000 M 21.800,112.583 a 5.543,5.543 0 0,1 4.800,2.771 M 28.400,118.472 l -1.800,-3.118 M 33.200,121.244 a 5.543,5.543 0 0,1 -4.800,-2.771 M 33.200,121.244 l 5.400,0.000">
<desc>P5</desc>
</path>
<path stroke="navy" stroke-width="2" stroke-linecap="round"
      fill="none" d="M 151.400,51.962 l 5.400,0.000 M 151.400,69.282 l 5.400,0.000 M 156.800,51.962 a 5.543,5.543 0 0,1 4.800,2.771 M 161.600,49.190 a 5.543,5.543 0 0,1 -4.800,2.771 M 161.600,54.733 a 5.543,5.543 0 0,1 0.000,-5.543 M 161.600,66.511 a 5.543,5.543 0 0,1 -4.800,2.771 M 163.400,57.850 a 5.543,5.543 0 0,1 0.000,5.543 M 163.400,57.850 l -1.800,-3.118 M 163.400,63.393 l -1.800,3.118 M 164.300,44.514 l -2.700,4.677">
<desc>R5</desc>
</path>
<path stroke="turquoise" stroke-width="2" stroke-linecap="round"
      fill="none" d="M 148.400,37.412 a 5.543,5.543 0 0,1 4.800,-2.771 M 148.400,37.412 l -2.700,4.677 M 153.200,34.641 l 3.600,0.000 M 156.800,34.641 a 5.543,5.543 0 0,1 4.800,2.771 M 163.400,40.530 l -1.800,-3.118 M 168.200,43.301 a 5.543,5.543 0 0,1 -4.800,-2.771 M 168.200,43.301 l 3.600,0.000 M 176.600,40.530 a 5.543,5.543 0 0,1 -4.800,2.771 M 179.300,35.853 l -2.700,4.677">
<desc>S5</desc>
</path>
<path stroke="brown" stroke-width="2" stroke-linecap="round"
      fill="none" d="M 166.400,60.622 l 5.400,0.000 M 176.600,57.850 a 5.543,5.543 0 0,1 -4.800,2.771 M 178.400,49.190 a 5.543,5.543 0 0,1 0.000,5.543 M 178.400,49.190 l -2.700,-4.677 M 178.400,54.733 a 5.543,5.543 0 0,1 4.800,-2.771 M 178.400,54.733 l -1.800,3.118 M 183.200,51.962 a 5.543,5.543 0 0,1 -4.800,-2.771 M 183.200,51.962 l 3.600,0.000 M 191.600,49.190 a 5.543,5.543 0 0,1 -4.800,2.771 M 194.300,44.514 l -2.700,4.677">
<desc>T5</desc>
</path>
<path stroke="maroon" stroke-width="2" stroke-linecap="round"
      fill="none" d="M 118.400,89.374 a 5.543,5.543 0 0,1 4.800,-2.771 M 118.400,89.374 l -2.700,4.677 M 123.200,86.603 l 3.600,0.000 M 131.600,72.053 a 5.543,5.543 0 0,1 0.000,-5.543 M 131.600,83.831 a 5.543,5.543 0 0,1 -4.800,2.771 M 133.400,75.171 a 5.543,5.543 0 0,1 0.000,5.543 M 133.400,75.171 l -1.800,-3.118 M 133.400,80.714 l -1.800,3.118 M 134.300,61.834 l -2.700,4.677">
<desc>U5</desc>
</path>
<path stroke="plum" stroke-width="2" stroke-linecap="round"
      fill="none" d="M 163.400,28.752 a 5.543,5.543 0 0,1 4.800,-2.771 M 163.400,28.752 l -2.700,4.677 M 168.200,25.981 l 3.600,0.000 M 171.800,25.981 a 5.543,5.543 0 0,1 4.800,2.771 M 178.400,31.870 l -1.800,-3.118 M 183.200,34.641 a 5.543,5.543 0 0,1 -4.800,-2.771 M 183.200,34.641 l 3.600,0.000 M 186.800,34.641 a 5.543,5.543 0 0,1 4.800,2.771 M 194.300,42.089 l -2.700,-4.677">
<desc>W5</desc>
</path>
<path stroke="indigo" stroke-width="2" stroke-linecap="round"
      fill="none" d="M 101.600,83.831 a 5.543,5.543 0 0,1 -4.800,2.771 M 101.600,89.374 a 5.543,5.543 0 0,1 0.000,-5.543 M 104.300,79.155 l -2.700,4.677 M 104.300,94.050 l -2.700,-4.677 M 88.400,83.831 a 5.543,5.543 0 0,1 0.000,5.543 M 88.400,83.831 l -2.700,-4.677 M 88.400,89.374 a 5.543,5.543 0 0,1 4.800,-2.771 M 88.400,89.374 l -2.700,4.677 M 93.200,86.603 a 5.543,5.543 0 0,1 -4.800,-2.771 M 93.200,86.603 l 3.600,0.000 M 96.800,86.603 a 5.543,5.543 0 0,1 4.800,2.771">
<desc>X5</desc>
</path>
<path stroke="olive" stroke-width="2" stroke-linecap="round"
      fill="none" d="M 121.400,51.962 l 5.400,0.000 M 126.800,51.962 a 5.543,5.543 0 0,1 4.800,2.771 M 131.600,49.190 a 5.543,5.543 0 0,1 -4.800,2.771 M 131.600,54.733 a 5.543,5.543 0 0,1 0.000,-5.543 M 133.400,46.073 a 5.543,5.543 0 0,1 4.800,-2.771 M 133.400,46.073 l -1.800,3.118 M 133.400,57.850 l -1.800,-3.118 M 138.200,43.301 l 5.400,0.000 M 138.200,60.622 a 5.543,5.543 0 0,1 -4.800,-2.771 M 138.200,60.622 l 5.400,0.000">
<desc>Y5</desc>
</path>
<path stroke="red" stroke-width="2" stroke-linecap="round"
      fill="none" d="M 41.600,124.015 a 5.543,5.543 0 0,1 0.000,-5.543 M 43.400,109.812 a 5.543,5.543 0 0,1 0.000,5.543 M 43.400,109.812 l -2.700,-4.677 M 43.400,115.355 a 5.543,5.543 0 0,1 4.800,-2.771 M 43.400,115.355 l -1.800,3.118 M 44.300,128.691 l -2.700,-4.677 M 48.200,112.583 a 5.543,5.543 0 0,1 -4.800,-2.771 M 48.200,112.583 l 3.600,0.000 M 56.600,109.812 a 5.543,5.543 0 0,1 -4.800,2.771 M 59.300,105.135 l -2.700,4.677">
<desc>h5</desc>
</path>
<path stroke="lightcoral" stroke-width="2" stroke-linecap="round"
      fill="none" d="M 28.400,106.694 a 5.543,5.543 0 0,1 4.800,-2.771 M 28.400,106.694 l -2.700,4.677 M 33.200,103.923 l 3.600,0.000 M 41.600,101.152 a 5.543,5.543 0 0,1 -4.800,2.771 M 43.400,98.034 a 5.543,5.543 0 0,1 4.800,-2.771 M 43.400,98.034 l -1.800,3.118 M 48.200,95.263 l 3.600,0.000 M 56.600,92.492 a 5.543,5.543 0 0,1 -4.800,2.771 M 59.300,87.815 l -2.700,4.677">
<desc>i5</desc>
</path>
<path stroke="peru" stroke-width="2" stroke-linecap="round"
      fill="none" d="M 101.600,66.511 a 5.543,5.543 0 0,1 -4.800,2.771 M 103.400,63.393 a 5.543,5.543 0 0,1 4.800,-2.771 M 103.400,63.393 l -1.800,3.118 M 108.200,60.622 l 3.600,0.000 M 111.800,60.622 a 5.543,5.543 0 0,1 4.800,2.771 M 116.600,57.850 a 5.543,5.543 0 0,1 -4.800,2.771 M 116.600,63.393 a 5.543,5.543 0 0,1 0.000,-5.543 M 119.300,53.174 l -2.700,4.677 M 119.300,68.070 l -2.700,-4.677 M 91.400,69.282 l 5.400,0.000">
<desc>l5</desc>
</path>
<path stroke="green" stroke-width="2" stroke-linecap="round"
      fill="none" d="M 26.600,132.675 a 5.543,5.543 0 0,1 0.000,-5.543 M 28.400,135.793 l -1.800,-3.118 M 29.300,122.456 l -2.700,4.677 M 33.200,138.564 a 5.543,5.543 0 0,1 -4.800,-2.771 M 33.200,138.564 l 3.600,0.000 M 41.600,135.793 a 5.543,5.543 0 0,1 -4.800,2.771 M 43.400,132.675 a 5.543,5.543 0 0,1 4.800,-2.771 M 43.400,132.675 l -1.800,3.118 M 48.200,129.904 l 5.400,0.000">
<desc>p5</desc>
</path>
<path stroke="navy" stroke-width="2" stroke-linecap="round"
      fill="none" d="M 58.400,118.472 a 5.543,5.543 0 0,1 0.000,5.543 M 58.400,118.472 l -2.700,-4.677 M 58.400,124.015 a 5.543,5.543 0 0,1 4.800,-2.771 M 58.400,124.015 l -2.700,4.677 M 63.200,121.244 a 5.543,5.543 0 0,1 -4.800,-2.771 M 63.200,121.244 l 3.600,0.000 M 71.600,118.472 a 5.543,5.543 0 0,1 -4.800,2.771 M 73.400,109.812 a 5.543,5.543 0 0,1 0.000,5.543 M 73.400,109.812 l -2.700,-4.677 M 73.400,115.355 l -1.800,3.118">
<desc>r5</desc>
</path>
<path stroke="turquoise" stroke-width="2" stroke-linecap="round"
      fill="none" d="M 58.400,101.152 l -2.700,-4.677 M 63.200,103.923 a 5.543,5.543 0 0,1 -4.800,-2.771 M 63.200,103.923 l 3.600,0.000 M 71.600,101.152 a 5.543,5.543 0 0,1 -4.800,2.771 M 73.400,98.034 a 5.543,5.543 0 0,1 4.800,-2.771 M 73.400,98.034 l -1.800,3.118 M 78.200,95.263 l 3.600,0.000 M 81.800,95.263 a 5.543,5.543 0 0,1 4.800,2.771 M 89.300,102.711 l -2.700,-4.677">
<desc>s5</desc>
</path>
<path stroke="plum" stroke-width="2" stroke-linecap="round"
      fill="none" d="M 136.400,77.942 l 5.400,0.000 M 146.600,63.393 a 5.543,5.543 0 0,1 0.000,-5.543 M 146.600,75.171 a 5.543,5.543 0 0,1 -4.800,2.771 M 148.400,49.190 a 5.543,5.543 0 0,1 0.000,5.543 M 148.400,49.190 l -2.700,-4.677 M 148.400,54.733 l -1.800,3.118 M 148.400,66.511 a 5.543,5.543 0 0,1 0.000,5.543 M 148.400,66.511 l -1.800,-3.118 M 148.400,72.053 l -1.800,3.118">
<desc>w5</desc>
</path>
</g>
</svg>
