<?xml version="1.0" standalone="no"?>
<!-- Created by Polyform Puzzler (http://puzzler.sourceforge.net/) -->
<svg width="155.885" height="155.885"
     viewBox="0 0 155.885 155.885"
     xmlns="http://www.w3.org/2000/svg"
     xmlns:xlink="http://www.w3.org/1999/xlink">
<g transform="translate(77.942,77.942) rotate(30)">
<path stroke="cyan" stroke-width="2" stroke-linecap="round"
      fill="none" d="M 13.400,57.850 l -2.700,-4.677 M 18.200,60.622 a 5.543,5.543 0 0,1 -4.800,-2.771 M 18.200,60.622 l 3.600,0.000 M 26.600,57.850 a 5.543,5.543 0 0,1 -4.800,2.771 M 29.300,53.174 l -2.700,4.677">
<desc>C3</desc>
</path>
<path stroke="steelblue" stroke-width="2" stroke-linecap="round"
      fill="none" d="M 44.300,42.089 l -3.600,-6.235">
<desc>I1</desc>
</path>
<path stroke="khaki" stroke-width="2" stroke-linecap="round"
      fill="none" d="M 31.400,51.962 l 5.400,0.000 M 41.600,49.190 a 5.543,5.543 0 0,1 -4.800,2.771 M 44.300,44.514 l -2.700,4.677">
<desc>L2</desc>
</path>
<path stroke="magenta" stroke-width="2" stroke-linecap="round"
      fill="none" d="M 16.400,25.981 l 5.400,0.000 M 21.800,25.981 a 5.543,5.543 0 0,1 4.800,2.771 M 28.400,31.870 l -1.800,-3.118 M 33.200,34.641 a 5.543,5.543 0 0,1 -4.800,-2.771 M 33.200,34.641 l 5.400,0.000">
<desc>S3</desc>
</path>
<path stroke="lime" stroke-width="2" stroke-linecap="round"
      fill="none" d="M 16.400,43.301 l 5.400,0.000 M 21.800,43.301 a 5.543,5.543 0 0,1 4.800,2.771 M 26.600,40.530 a 5.543,5.543 0 0,1 -4.800,2.771 M 26.600,46.073 a 5.543,5.543 0 0,1 0.000,-5.543 M 29.300,35.853 l -2.700,4.677 M 29.300,50.749 l -2.700,-4.677">
<desc>Y3</desc>
</path>
<path stroke="magenta" stroke-width="2" stroke-linecap="round"
      fill="none" d="M 11.600,37.412 a 5.543,5.543 0 0,1 0.000,-5.543 M 13.400,40.530 a 5.543,5.543 0 0,1 0.000,5.543 M 13.400,40.530 l -1.800,-3.118 M 13.400,46.073 l -2.700,4.677 M 14.300,27.193 l -2.700,4.677">
<desc>s3</desc>
</path>
</g>
</svg>
