<?xml version="1.0" standalone="no"?>
<!-- Created by Polyform Puzzler (http://puzzler.sourceforge.net/) -->
<svg width="330.000" height="330.000"
     viewBox="0 0 330.000 330.000"
     xmlns="http://www.w3.org/2000/svg"
     xmlns:xlink="http://www.w3.org/1999/xlink">
<g transform="translate(165.000,82.500) rotate(30)">
<path stroke="blue" stroke-width="2" stroke-linecap="round"
      fill="none" d="M 56.600,72.053 a 5.543,5.543 0 0,1 0.000,-5.543 M 58.400,63.393 a 5.543,5.543 0 0,1 4.800,-2.771 M 58.400,63.393 l -1.800,3.118 M 58.400,75.171 l -1.800,-3.118 M 63.200,60.622 l 5.400,0.000 M 63.200,77.942 a 5.543,5.543 0 0,1 -4.800,-2.771 M 63.200,77.942 l 3.600,0.000 M 71.600,75.171 a 5.543,5.543 0 0,1 -4.800,2.771 M 74.300,70.494 l -2.700,4.677">
<desc>C5</desc>
</path>
<path stroke="red" stroke-width="2" stroke-linecap="round"
      fill="none" d="M 118.400,57.850 l -2.700,-4.677 M 123.200,60.622 a 5.543,5.543 0 0,1 -4.800,-2.771 M 123.200,60.622 l 3.600,0.000 M 126.800,60.622 a 5.543,5.543 0 0,1 4.800,2.771 M 131.600,57.850 a 5.543,5.543 0 0,1 -4.800,2.771 M 131.600,63.393 a 5.543,5.543 0 0,1 0.000,-5.543 M 133.400,54.733 a 5.543,5.543 0 0,1 4.800,-2.771 M 133.400,54.733 l -1.800,3.118 M 134.300,68.070 l -2.700,-4.677 M 138.200,51.962 l 5.400,0.000">
<desc>H5</desc>
</path>
<path stroke="lightcoral" stroke-width="2" stroke-linecap="round"
      fill="none" d="M 101.600,92.492 a 5.543,5.543 0 0,1 -4.800,2.771 M 103.400,89.374 a 5.543,5.543 0 0,1 4.800,-2.771 M 103.400,89.374 l -1.800,3.118 M 108.200,86.603 l 3.600,0.000 M 116.600,83.831 a 5.543,5.543 0 0,1 -4.800,2.771 M 118.400,80.714 a 5.543,5.543 0 0,1 4.800,-2.771 M 118.400,80.714 l -1.800,3.118 M 123.200,77.942 l 5.400,0.000 M 91.400,95.263 l 5.400,0.000">
<desc>I5</desc>
</path>
<path stroke="peru" stroke-width="2" stroke-linecap="round"
      fill="none" d="M 106.400,34.641 l 5.400,0.000 M 111.800,34.641 a 5.543,5.543 0 0,1 4.800,2.771 M 118.400,40.530 l -1.800,-3.118 M 123.200,43.301 a 5.543,5.543 0 0,1 -4.800,-2.771 M 123.200,43.301 l 3.600,0.000 M 126.800,43.301 a 5.543,5.543 0 0,1 4.800,2.771 M 131.600,40.530 a 5.543,5.543 0 0,1 -4.800,2.771 M 131.600,46.073 a 5.543,5.543 0 0,1 0.000,-5.543 M 134.300,35.853 l -2.700,4.677 M 134.300,50.749 l -2.700,-4.677">
<desc>L5</desc>
</path>
<path stroke="green" stroke-width="2" stroke-linecap="round"
      fill="none" d="M 61.400,95.263 l 5.400,0.000 M 66.800,95.263 a 5.543,5.543 0 0,1 4.800,2.771 M 73.400,101.152 l -1.800,-3.118 M 78.200,103.923 a 5.543,5.543 0 0,1 -4.800,-2.771 M 78.200,103.923 l 3.600,0.000 M 86.600,101.152 a 5.543,5.543 0 0,1 -4.800,2.771 M 88.400,92.492 a 5.543,5.543 0 0,1 0.000,5.543 M 88.400,92.492 l -2.700,-4.677 M 88.400,98.034 l -1.800,3.118">
<desc>P5</desc>
</path>
<path stroke="navy" stroke-width="2" stroke-linecap="round"
      fill="none" d="M 16.400,103.923 l 5.400,0.000 M 21.800,103.923 a 5.543,5.543 0 0,1 4.800,2.771 M 26.600,101.152 a 5.543,5.543 0 0,1 -4.800,2.771 M 26.600,106.694 a 5.543,5.543 0 0,1 0.000,-5.543 M 28.400,98.034 a 5.543,5.543 0 0,1 4.800,-2.771 M 28.400,98.034 l -1.800,3.118 M 29.300,111.371 l -2.700,-4.677 M 33.200,95.263 l 3.600,0.000 M 36.800,95.263 a 5.543,5.543 0 0,1 4.800,2.771 M 44.300,102.711 l -2.700,-4.677">
<desc>R5</desc>
</path>
<path stroke="turquoise" stroke-width="2" stroke-linecap="round"
      fill="none" d="M 43.400,106.694 a 5.543,5.543 0 0,1 4.800,-2.771 M 43.400,106.694 l -2.700,4.677 M 48.200,103.923 l 3.600,0.000 M 51.800,103.923 a 5.543,5.543 0 0,1 4.800,2.771 M 58.400,109.812 l -1.800,-3.118 M 63.200,112.583 a 5.543,5.543 0 0,1 -4.800,-2.771 M 63.200,112.583 l 3.600,0.000 M 71.600,109.812 a 5.543,5.543 0 0,1 -4.800,2.771 M 74.300,105.135 l -2.700,4.677">
<desc>S5</desc>
</path>
<path stroke="brown" stroke-width="2" stroke-linecap="round"
      fill="none" d="M 28.400,80.714 a 5.543,5.543 0 0,1 4.800,-2.771 M 28.400,80.714 l -2.700,4.677 M 33.200,77.942 l 3.600,0.000 M 36.800,77.942 a 5.543,5.543 0 0,1 4.800,2.771 M 41.600,75.171 a 5.543,5.543 0 0,1 -4.800,2.771 M 41.600,80.714 a 5.543,5.543 0 0,1 0.000,-5.543 M 43.400,72.053 a 5.543,5.543 0 0,1 4.800,-2.771 M 43.400,72.053 l -1.800,3.118 M 44.300,85.390 l -2.700,-4.677 M 48.200,69.282 l 5.400,0.000">
<desc>T5</desc>
</path>
<path stroke="maroon" stroke-width="2" stroke-linecap="round"
      fill="none" d="M 133.400,72.053 a 5.543,5.543 0 0,1 4.800,-2.771 M 133.400,72.053 l -2.700,4.677 M 138.200,69.282 l 3.600,0.000 M 146.600,54.733 a 5.543,5.543 0 0,1 0.000,-5.543 M 146.600,66.511 a 5.543,5.543 0 0,1 -4.800,2.771 M 148.400,57.850 a 5.543,5.543 0 0,1 0.000,5.543 M 148.400,57.850 l -1.800,-3.118 M 148.400,63.393 l -1.800,3.118 M 149.300,44.514 l -2.700,4.677">
<desc>U5</desc>
</path>
<path stroke="plum" stroke-width="2" stroke-linecap="round"
      fill="none" d="M 118.400,28.752 a 5.543,5.543 0 0,1 4.800,-2.771 M 118.400,28.752 l -2.700,4.677 M 123.200,25.981 l 3.600,0.000 M 126.800,25.981 a 5.543,5.543 0 0,1 4.800,2.771 M 133.400,31.870 l -1.800,-3.118 M 138.200,34.641 a 5.543,5.543 0 0,1 -4.800,-2.771 M 138.200,34.641 l 3.600,0.000 M 141.800,34.641 a 5.543,5.543 0 0,1 4.800,2.771 M 149.300,42.089 l -2.700,-4.677">
<desc>W5</desc>
</path>
<path stroke="indigo" stroke-width="2" stroke-linecap="round"
      fill="none" d="M 76.400,69.282 l 5.400,0.000 M 81.800,69.282 a 5.543,5.543 0 0,1 4.800,2.771 M 86.600,66.511 a 5.543,5.543 0 0,1 -4.800,2.771 M 86.600,72.053 a 5.543,5.543 0 0,1 0.000,-5.543 M 88.400,57.850 a 5.543,5.543 0 0,1 0.000,5.543 M 88.400,57.850 l -2.700,-4.677 M 88.400,63.393 a 5.543,5.543 0 0,1 4.800,-2.771 M 88.400,63.393 l -1.800,3.118 M 89.300,76.730 l -2.700,-4.677 M 93.200,60.622 a 5.543,5.543 0 0,1 -4.800,-2.771 M 93.200,60.622 l 5.400,0.000">
<desc>X5</desc>
</path>
<path stroke="olive" stroke-width="2" stroke-linecap="round"
      fill="none" d="M 43.400,89.374 a 5.543,5.543 0 0,1 4.800,-2.771 M 43.400,89.374 l -2.700,4.677 M 48.200,86.603 l 3.600,0.000 M 51.800,86.603 a 5.543,5.543 0 0,1 4.800,2.771 M 56.600,83.831 a 5.543,5.543 0 0,1 -4.800,2.771 M 56.600,89.374 a 5.543,5.543 0 0,1 0.000,-5.543 M 58.400,92.492 a 5.543,5.543 0 0,1 0.000,5.543 M 58.400,92.492 l -1.800,-3.118 M 58.400,98.034 l -2.700,4.677 M 59.300,79.155 l -2.700,4.677">
<desc>Y5</desc>
</path>
<path stroke="red" stroke-width="2" stroke-linecap="round"
      fill="none" d="M 101.600,63.393 a 5.543,5.543 0 0,1 0.000,-5.543 M 103.400,49.190 a 5.543,5.543 0 0,1 0.000,5.543 M 103.400,49.190 l -2.700,-4.677 M 103.400,54.733 a 5.543,5.543 0 0,1 4.800,-2.771 M 103.400,54.733 l -1.800,3.118 M 104.300,68.070 l -2.700,-4.677 M 108.200,51.962 a 5.543,5.543 0 0,1 -4.800,-2.771 M 108.200,51.962 l 3.600,0.000 M 116.600,49.190 a 5.543,5.543 0 0,1 -4.800,2.771 M 119.300,44.514 l -2.700,4.677">
<desc>h5</desc>
</path>
<path stroke="lightcoral" stroke-width="2" stroke-linecap="round"
      fill="none" d="M 101.600,40.530 a 5.543,5.543 0 0,1 -4.800,2.771 M 104.300,35.853 l -2.700,4.677 M 73.400,54.733 a 5.543,5.543 0 0,1 4.800,-2.771 M 73.400,54.733 l -2.700,4.677 M 78.200,51.962 l 3.600,0.000 M 86.600,49.190 a 5.543,5.543 0 0,1 -4.800,2.771 M 88.400,46.073 a 5.543,5.543 0 0,1 4.800,-2.771 M 88.400,46.073 l -1.800,3.118 M 93.200,43.301 l 3.600,0.000">
<desc>i5</desc>
</path>
<path stroke="peru" stroke-width="2" stroke-linecap="round"
      fill="none" d="M 73.400,83.831 a 5.543,5.543 0 0,1 0.000,5.543 M 73.400,83.831 l -2.700,-4.677 M 73.400,89.374 a 5.543,5.543 0 0,1 4.800,-2.771 M 73.400,89.374 l -2.700,4.677 M 78.200,86.603 a 5.543,5.543 0 0,1 -4.800,-2.771 M 78.200,86.603 l 3.600,0.000 M 86.600,83.831 a 5.543,5.543 0 0,1 -4.800,2.771 M 88.400,80.714 a 5.543,5.543 0 0,1 4.800,-2.771 M 88.400,80.714 l -1.800,3.118 M 93.200,77.942 l 5.400,0.000">
<desc>l5</desc>
</path>
<path stroke="green" stroke-width="2" stroke-linecap="round"
      fill="none" d="M 11.600,98.034 a 5.543,5.543 0 0,1 0.000,-5.543 M 13.400,101.152 a 5.543,5.543 0 0,1 0.000,5.543 M 13.400,101.152 l -1.800,-3.118 M 13.400,106.694 l -2.700,4.677 M 13.400,89.374 a 5.543,5.543 0 0,1 4.800,-2.771 M 13.400,89.374 l -1.800,3.118 M 18.200,86.603 l 3.600,0.000 M 21.800,86.603 a 5.543,5.543 0 0,1 4.800,2.771 M 29.300,94.050 l -2.700,-4.677">
<desc>p5</desc>
</path>
<path stroke="navy" stroke-width="2" stroke-linecap="round"
      fill="none" d="M 101.600,80.714 a 5.543,5.543 0 0,1 0.000,-5.543 M 103.400,72.053 a 5.543,5.543 0 0,1 4.800,-2.771 M 103.400,72.053 l -1.800,3.118 M 104.300,85.390 l -2.700,-4.677 M 108.200,69.282 l 3.600,0.000 M 111.800,69.282 a 5.543,5.543 0 0,1 4.800,2.771 M 116.600,66.511 a 5.543,5.543 0 0,1 -4.800,2.771 M 116.600,72.053 a 5.543,5.543 0 0,1 0.000,-5.543 M 119.300,61.834 l -2.700,4.677 M 119.300,76.730 l -2.700,-4.677">
<desc>r5</desc>
</path>
<path stroke="turquoise" stroke-width="2" stroke-linecap="round"
      fill="none" d="M 13.400,118.472 l -2.700,-4.677 M 18.200,121.244 a 5.543,5.543 0 0,1 -4.800,-2.771 M 18.200,121.244 l 3.600,0.000 M 26.600,118.472 a 5.543,5.543 0 0,1 -4.800,2.771 M 28.400,115.355 a 5.543,5.543 0 0,1 4.800,-2.771 M 28.400,115.355 l -1.800,3.118 M 33.200,112.583 l 3.600,0.000 M 36.800,112.583 a 5.543,5.543 0 0,1 4.800,2.771 M 44.300,120.031 l -2.700,-4.677">
<desc>s5</desc>
</path>
<path stroke="plum" stroke-width="2" stroke-linecap="round"
      fill="none" d="M 28.400,127.133 l -2.700,-4.677 M 33.200,129.904 a 5.543,5.543 0 0,1 -4.800,-2.771 M 33.200,129.904 l 3.600,0.000 M 41.600,127.133 a 5.543,5.543 0 0,1 -4.800,2.771 M 43.400,124.015 a 5.543,5.543 0 0,1 4.800,-2.771 M 43.400,124.015 l -1.800,3.118 M 48.200,121.244 l 3.600,0.000 M 56.600,118.472 a 5.543,5.543 0 0,1 -4.800,2.771 M 59.300,113.796 l -2.700,4.677">
<desc>w5</desc>
</path>
</g>
</svg>
