<?xml version="1.0" standalone="no"?>
<!-- Created by Polyform Puzzler (http://puzzler.sourceforge.net/) -->
<svg width="75.000" height="103.923"
     viewBox="0 0 75.000 103.923"
     xmlns="http://www.w3.org/2000/svg"
     xmlns:xlink="http://www.w3.org/1999/xlink">
<g>
<path stroke="darkorange" stroke-width="2" stroke-linecap="round"
      fill="none" d="M 11.600,63.393 a 5.543,5.543 0 0,1 0.000,-5.543 M 13.400,66.511 l -1.800,-3.118 M 14.300,53.174 l -2.700,4.677 M 18.200,69.282 a 5.543,5.543 0 0,1 -4.800,-2.771 M 18.200,69.282 l 3.600,0.000 M 26.600,66.511 a 5.543,5.543 0 0,1 -4.800,2.771 M 29.300,61.834 l -2.700,4.677">
<desc>C4</desc>
</path>
<path stroke="blueviolet" stroke-width="2" stroke-linecap="round"
      fill="none" d="M 46.400,69.282 l 5.400,0.000 M 56.600,54.733 a 5.543,5.543 0 0,1 0.000,-5.543 M 56.600,66.511 a 5.543,5.543 0 0,1 -4.800,2.771 M 58.400,57.850 a 5.543,5.543 0 0,1 0.000,5.543 M 58.400,57.850 l -1.800,-3.118 M 58.400,63.393 l -1.800,3.118 M 59.300,44.514 l -2.700,4.677">
<desc>P4</desc>
</path>
<path stroke="teal" stroke-width="2" stroke-linecap="round"
      fill="none" d="M 31.400,25.981 l 5.400,0.000 M 36.800,25.981 a 5.543,5.543 0 0,1 4.800,2.771 M 43.400,31.870 l -1.800,-3.118 M 48.200,34.641 a 5.543,5.543 0 0,1 -4.800,-2.771 M 48.200,34.641 l 3.600,0.000 M 51.800,34.641 a 5.543,5.543 0 0,1 4.800,2.771 M 59.300,42.089 l -2.700,-4.677">
<desc>W4</desc>
</path>
<path stroke="darkgreen" stroke-width="2" stroke-linecap="round"
      fill="none" d="M 13.400,37.412 a 5.543,5.543 0 0,1 4.800,-2.771 M 13.400,37.412 l -2.700,4.677 M 18.200,34.641 l 3.600,0.000 M 21.800,34.641 a 5.543,5.543 0 0,1 4.800,2.771 M 26.600,31.870 a 5.543,5.543 0 0,1 -4.800,2.771 M 26.600,37.412 a 5.543,5.543 0 0,1 0.000,-5.543 M 29.300,27.193 l -2.700,4.677 M 29.300,42.089 l -2.700,-4.677">
<desc>Y4</desc>
</path>
<path stroke="blueviolet" stroke-width="2" stroke-linecap="round"
      fill="none" d="M 31.400,43.301 l 5.400,0.000 M 36.800,43.301 a 5.543,5.543 0 0,1 4.800,2.771 M 41.600,63.393 a 5.543,5.543 0 0,1 0.000,-5.543 M 43.400,49.190 a 5.543,5.543 0 0,1 0.000,5.543 M 43.400,49.190 l -1.800,-3.118 M 43.400,54.733 l -1.800,3.118 M 44.300,68.070 l -2.700,-4.677">
<desc>p4</desc>
</path>
<path stroke="darkgreen" stroke-width="2" stroke-linecap="round"
      fill="none" d="M 13.400,49.190 l -2.700,-4.677 M 18.200,51.962 a 5.543,5.543 0 0,1 -4.800,-2.771 M 18.200,51.962 l 3.600,0.000 M 21.800,51.962 a 5.543,5.543 0 0,1 4.800,2.771 M 26.600,49.190 a 5.543,5.543 0 0,1 -4.800,2.771 M 26.600,54.733 a 5.543,5.543 0 0,1 0.000,-5.543 M 29.300,44.514 l -2.700,4.677 M 29.300,59.409 l -2.700,-4.677">
<desc>y4</desc>
</path>
</g>
</svg>
