<?xml version="1.0" standalone="no"?>
<!-- Created by Polyform Puzzler (http://puzzler.sourceforge.net/) -->
<svg width="571.577" height="571.577"
     viewBox="0 0 571.577 571.577"
     xmlns="http://www.w3.org/2000/svg"
     xmlns:xlink="http://www.w3.org/1999/xlink">
<g transform="translate(285.788,142.894) rotate(30)">
<path stroke="blue" stroke-width="2" stroke-linecap="round"
      fill="none" d="M 11.600,227.938 a 5.543,5.543 0 0,1 0.000,-5.543 M 13.400,219.278 a 5.543,5.543 0 0,1 4.800,-2.771 M 13.400,219.278 l -1.800,3.118 M 13.400,231.056 l -1.800,-3.118 M 18.200,216.506 l 3.600,0.000 M 18.200,233.827 a 5.543,5.543 0 0,1 -4.800,-2.771 M 18.200,233.827 l 5.400,0.000 M 21.800,216.506 a 5.543,5.543 0 0,1 4.800,2.771 M 29.300,223.954 l -2.700,-4.677">
<desc>C5</desc>
</path>
<path stroke="red" stroke-width="2" stroke-linecap="round"
      fill="none" d="M 136.400,164.545 l 5.400,0.000 M 141.800,164.545 a 5.543,5.543 0 0,1 4.800,2.771 M 146.600,161.774 a 5.543,5.543 0 0,1 -4.800,2.771 M 146.600,167.316 a 5.543,5.543 0 0,1 0.000,-5.543 M 148.400,158.656 a 5.543,5.543 0 0,1 4.800,-2.771 M 148.400,158.656 l -1.800,3.118 M 148.400,170.434 a 5.543,5.543 0 0,1 0.000,5.543 M 148.400,170.434 l -1.800,-3.118 M 148.400,175.976 l -2.700,4.677 M 153.200,155.885 l 5.400,0.000">
<desc>H5</desc>
</path>
<path stroke="lightcoral" stroke-width="2" stroke-linecap="round"
      fill="none" d="M 41.600,227.938 a 5.543,5.543 0 0,1 0.000,-5.543 M 41.600,245.258 a 5.543,5.543 0 0,1 0.000,-5.543 M 43.400,231.056 a 5.543,5.543 0 0,1 0.000,5.543 M 43.400,231.056 l -1.800,-3.118 M 43.400,236.598 l -1.800,3.118 M 43.400,248.376 a 5.543,5.543 0 0,1 0.000,5.543 M 43.400,248.376 l -1.800,-3.118 M 43.400,253.919 l -2.700,4.677 M 44.300,217.719 l -2.700,4.677">
<desc>I5</desc>
</path>
<path stroke="peru" stroke-width="2" stroke-linecap="round"
      fill="none" d="M 61.400,190.526 l 5.400,0.000 M 66.800,190.526 a 5.543,5.543 0 0,1 4.800,2.771 M 73.400,196.415 l -1.800,-3.118 M 78.200,199.186 a 5.543,5.543 0 0,1 -4.800,-2.771 M 78.200,199.186 l 3.600,0.000 M 81.800,199.186 a 5.543,5.543 0 0,1 4.800,2.771 M 86.600,196.415 a 5.543,5.543 0 0,1 -4.800,2.771 M 86.600,201.957 a 5.543,5.543 0 0,1 0.000,-5.543 M 89.300,191.738 l -2.700,4.677 M 89.300,206.634 l -2.700,-4.677">
<desc>L5</desc>
</path>
<path stroke="green" stroke-width="2" stroke-linecap="round"
      fill="none" d="M 41.600,210.617 a 5.543,5.543 0 0,1 0.000,-5.543 M 43.400,201.957 a 5.543,5.543 0 0,1 4.800,-2.771 M 43.400,201.957 l -1.800,3.118 M 43.400,213.735 l -1.800,-3.118 M 48.200,199.186 l 3.600,0.000 M 48.200,216.506 a 5.543,5.543 0 0,1 -4.800,-2.771 M 48.200,216.506 l 5.400,0.000 M 56.600,196.415 a 5.543,5.543 0 0,1 -4.800,2.771 M 59.300,191.738 l -2.700,4.677">
<desc>P5</desc>
</path>
<path stroke="navy" stroke-width="2" stroke-linecap="round"
      fill="none" d="M 26.600,236.598 a 5.543,5.543 0 0,1 0.000,-5.543 M 28.400,227.938 a 5.543,5.543 0 0,1 4.800,-2.771 M 28.400,227.938 l -1.800,3.118 M 28.400,239.716 a 5.543,5.543 0 0,1 0.000,5.543 M 28.400,239.716 l -1.800,-3.118 M 28.400,245.258 a 5.543,5.543 0 0,1 4.800,-2.771 M 28.400,245.258 l -2.700,4.677 M 33.200,225.167 l 5.400,0.000 M 33.200,242.487 a 5.543,5.543 0 0,1 -4.800,-2.771 M 33.200,242.487 l 5.400,0.000">
<desc>R5</desc>
</path>
<path stroke="turquoise" stroke-width="2" stroke-linecap="round"
      fill="none" d="M 101.600,210.617 a 5.543,5.543 0 0,1 0.000,-5.543 M 103.400,196.415 a 5.543,5.543 0 0,1 0.000,5.543 M 103.400,196.415 l -1.800,-3.118 M 103.400,201.957 l -1.800,3.118 M 103.400,213.735 l -1.800,-3.118 M 108.200,216.506 a 5.543,5.543 0 0,1 -4.800,-2.771 M 108.200,216.506 l 5.400,0.000 M 91.400,190.526 l 5.400,0.000 M 96.800,190.526 a 5.543,5.543 0 0,1 4.800,2.771">
<desc>S5</desc>
</path>
<path stroke="brown" stroke-width="2" stroke-linecap="round"
      fill="none" d="M 151.400,173.205 l 5.400,0.000 M 156.800,173.205 a 5.543,5.543 0 0,1 4.800,2.771 M 161.600,170.434 a 5.543,5.543 0 0,1 -4.800,2.771 M 161.600,175.976 a 5.543,5.543 0 0,1 0.000,-5.543 M 163.400,161.774 a 5.543,5.543 0 0,1 0.000,5.543 M 163.400,161.774 l -2.700,-4.677 M 163.400,167.316 l -1.800,3.118 M 163.400,179.094 a 5.543,5.543 0 0,1 0.000,5.543 M 163.400,179.094 l -1.800,-3.118 M 163.400,184.637 l -2.700,4.677">
<desc>T5</desc>
</path>
<path stroke="maroon" stroke-width="2" stroke-linecap="round"
      fill="none" d="M 118.400,210.617 a 5.543,5.543 0 0,1 4.800,-2.771 M 118.400,210.617 l -2.700,4.677 M 123.200,207.846 l 3.600,0.000 M 131.600,193.297 a 5.543,5.543 0 0,1 0.000,-5.543 M 131.600,205.075 a 5.543,5.543 0 0,1 -4.800,2.771 M 133.400,196.415 a 5.543,5.543 0 0,1 0.000,5.543 M 133.400,196.415 l -1.800,-3.118 M 133.400,201.957 l -1.800,3.118 M 134.300,183.078 l -2.700,4.677">
<desc>U5</desc>
</path>
<path stroke="plum" stroke-width="2" stroke-linecap="round"
      fill="none" d="M 101.600,170.434 a 5.543,5.543 0 0,1 -4.800,2.771 M 103.400,167.316 a 5.543,5.543 0 0,1 4.800,-2.771 M 103.400,167.316 l -1.800,3.118 M 108.200,164.545 l 5.400,0.000 M 86.600,184.637 a 5.543,5.543 0 0,1 0.000,-5.543 M 88.400,175.976 a 5.543,5.543 0 0,1 4.800,-2.771 M 88.400,175.976 l -1.800,3.118 M 89.300,189.313 l -2.700,-4.677 M 93.200,173.205 l 3.600,0.000">
<desc>W5</desc>
</path>
<path stroke="indigo" stroke-width="2" stroke-linecap="round"
      fill="none" d="M 106.400,199.186 l 5.400,0.000 M 111.800,199.186 a 5.543,5.543 0 0,1 4.800,2.771 M 116.600,196.415 a 5.543,5.543 0 0,1 -4.800,2.771 M 116.600,201.957 a 5.543,5.543 0 0,1 0.000,-5.543 M 118.400,187.754 a 5.543,5.543 0 0,1 0.000,5.543 M 118.400,187.754 l -2.700,-4.677 M 118.400,193.297 a 5.543,5.543 0 0,1 4.800,-2.771 M 118.400,193.297 l -1.800,3.118 M 119.300,206.634 l -2.700,-4.677 M 123.200,190.526 a 5.543,5.543 0 0,1 -4.800,-2.771 M 123.200,190.526 l 5.400,0.000">
<desc>X5</desc>
</path>
<path stroke="olive" stroke-width="2" stroke-linecap="round"
      fill="none" d="M 46.400,233.827 l 5.400,0.000 M 51.800,233.827 a 5.543,5.543 0 0,1 4.800,2.771 M 56.600,231.056 a 5.543,5.543 0 0,1 -4.800,2.771 M 56.600,236.598 a 5.543,5.543 0 0,1 0.000,-5.543 M 58.400,227.938 a 5.543,5.543 0 0,1 4.800,-2.771 M 58.400,227.938 l -1.800,3.118 M 58.400,239.716 l -1.800,-3.118 M 63.200,225.167 l 5.400,0.000 M 63.200,242.487 a 5.543,5.543 0 0,1 -4.800,-2.771 M 63.200,242.487 l 5.400,0.000">
<desc>Y5</desc>
</path>
<path stroke="red" stroke-width="2" stroke-linecap="round"
      fill="none" d="M 56.600,219.278 a 5.543,5.543 0 0,1 0.000,-5.543 M 58.400,205.075 a 5.543,5.543 0 0,1 0.000,5.543 M 58.400,205.075 l -2.700,-4.677 M 58.400,210.617 a 5.543,5.543 0 0,1 4.800,-2.771 M 58.400,210.617 l -1.800,3.118 M 59.300,223.954 l -2.700,-4.677 M 63.200,207.846 a 5.543,5.543 0 0,1 -4.800,-2.771 M 63.200,207.846 l 3.600,0.000 M 71.600,205.075 a 5.543,5.543 0 0,1 -4.800,2.771 M 74.300,200.398 l -2.700,4.677">
<desc>h5</desc>
</path>
<path stroke="lightcoral" stroke-width="2" stroke-linecap="round"
      fill="none" d="M 121.400,173.205 l 5.400,0.000 M 126.800,173.205 a 5.543,5.543 0 0,1 4.800,2.771 M 133.400,179.094 l -1.800,-3.118 M 138.200,181.865 a 5.543,5.543 0 0,1 -4.800,-2.771 M 138.200,181.865 l 3.600,0.000 M 141.800,181.865 a 5.543,5.543 0 0,1 4.800,2.771 M 148.400,187.754 l -1.800,-3.118 M 153.200,190.526 a 5.543,5.543 0 0,1 -4.800,-2.771 M 153.200,190.526 l 5.400,0.000">
<desc>i5</desc>
</path>
<path stroke="peru" stroke-width="2" stroke-linecap="round"
      fill="none" d="M 71.600,227.938 a 5.543,5.543 0 0,1 0.000,-5.543 M 73.400,213.735 a 5.543,5.543 0 0,1 0.000,5.543 M 73.400,213.735 l -2.700,-4.677 M 73.400,219.278 a 5.543,5.543 0 0,1 4.800,-2.771 M 73.400,219.278 l -1.800,3.118 M 73.400,231.056 a 5.543,5.543 0 0,1 0.000,5.543 M 73.400,231.056 l -1.800,-3.118 M 73.400,236.598 l -2.700,4.677 M 78.200,216.506 a 5.543,5.543 0 0,1 -4.800,-2.771 M 78.200,216.506 l 5.400,0.000">
<desc>l5</desc>
</path>
<path stroke="green" stroke-width="2" stroke-linecap="round"
      fill="none" d="M 131.600,158.656 a 5.543,5.543 0 0,1 0.000,-5.543 M 133.400,149.996 a 5.543,5.543 0 0,1 4.800,-2.771 M 133.400,149.996 l -1.800,3.118 M 133.400,161.774 a 5.543,5.543 0 0,1 0.000,5.543 M 133.400,161.774 l -1.800,-3.118 M 133.400,167.316 l -2.700,4.677 M 138.200,147.224 l 3.600,0.000 M 141.800,147.224 a 5.543,5.543 0 0,1 4.800,2.771 M 149.300,154.672 l -2.700,-4.677">
<desc>p5</desc>
</path>
<path stroke="navy" stroke-width="2" stroke-linecap="round"
      fill="none" d="M 103.400,179.094 a 5.543,5.543 0 0,1 0.000,5.543 M 103.400,179.094 l -2.700,-4.677 M 103.400,184.637 a 5.543,5.543 0 0,1 4.800,-2.771 M 103.400,184.637 l -2.700,4.677 M 108.200,181.865 a 5.543,5.543 0 0,1 -4.800,-2.771 M 108.200,181.865 l 3.600,0.000 M 116.600,179.094 a 5.543,5.543 0 0,1 -4.800,2.771 M 118.400,170.434 a 5.543,5.543 0 0,1 0.000,5.543 M 118.400,170.434 l -2.700,-4.677 M 118.400,175.976 l -1.800,3.118">
<desc>r5</desc>
</path>
<path stroke="turquoise" stroke-width="2" stroke-linecap="round"
      fill="none" d="M 76.400,233.827 l 5.400,0.000 M 86.600,219.278 a 5.543,5.543 0 0,1 0.000,-5.543 M 86.600,231.056 a 5.543,5.543 0 0,1 -4.800,2.771 M 88.400,210.617 a 5.543,5.543 0 0,1 4.800,-2.771 M 88.400,210.617 l -1.800,3.118 M 88.400,222.395 a 5.543,5.543 0 0,1 0.000,5.543 M 88.400,222.395 l -1.800,-3.118 M 88.400,227.938 l -1.800,3.118 M 93.200,207.846 l 5.400,0.000">
<desc>s5</desc>
</path>
<path stroke="plum" stroke-width="2" stroke-linecap="round"
      fill="none" d="M 11.600,245.258 a 5.543,5.543 0 0,1 0.000,-5.543 M 13.400,248.376 l -1.800,-3.118 M 14.300,235.039 l -2.700,4.677 M 18.200,251.147 a 5.543,5.543 0 0,1 -4.800,-2.771 M 18.200,251.147 l 3.600,0.000 M 21.800,251.147 a 5.543,5.543 0 0,1 4.800,2.771 M 28.400,257.036 l -1.800,-3.118 M 33.200,259.808 a 5.543,5.543 0 0,1 -4.800,-2.771 M 33.200,259.808 l 5.400,0.000">
<desc>w5</desc>
</path>
</g>
</svg>
