<?xml version="1.0" standalone="no"?>
<!-- Created by Polyform Puzzler (http://puzzler.sourceforge.net/) -->
<svg width="120.000" height="181.865"
     viewBox="0 0 120.000 181.865"
     xmlns="http://www.w3.org/2000/svg"
     xmlns:xlink="http://www.w3.org/1999/xlink">
<g>
<path stroke="blue" stroke-width="2" stroke-linecap="round"
      fill="none" d="M 56.600,63.393 a 5.543,5.543 0 0,1 0.000,-5.543 M 58.400,54.733 a 5.543,5.543 0 0,1 4.800,-2.771 M 58.400,54.733 l -1.800,3.118 M 59.300,68.070 l -2.700,-4.677 M 63.200,51.962 l 3.600,0.000 M 66.800,51.962 a 5.543,5.543 0 0,1 4.800,2.771 M 73.400,57.850 a 5.543,5.543 0 0,1 0.000,5.543 M 73.400,57.850 l -1.800,-3.118 M 73.400,63.393 l -2.700,4.677">
<desc>C5</desc>
</path>
<path stroke="red" stroke-width="2" stroke-linecap="round"
      fill="none" d="M 76.400,95.263 l 5.400,0.000 M 81.800,95.263 a 5.543,5.543 0 0,1 4.800,2.771 M 86.600,92.492 a 5.543,5.543 0 0,1 -4.800,2.771 M 86.600,98.034 a 5.543,5.543 0 0,1 0.000,-5.543 M 88.400,101.152 a 5.543,5.543 0 0,1 0.000,5.543 M 88.400,101.152 l -1.800,-3.118 M 88.400,106.694 l -2.700,4.677 M 88.400,89.374 a 5.543,5.543 0 0,1 4.800,-2.771 M 88.400,89.374 l -1.800,3.118 M 93.200,86.603 l 5.400,0.000">
<desc>H5</desc>
</path>
<path stroke="lightcoral" stroke-width="2" stroke-linecap="round"
      fill="none" d="M 71.600,106.694 a 5.543,5.543 0 0,1 0.000,-5.543 M 71.600,124.015 a 5.543,5.543 0 0,1 0.000,-5.543 M 73.400,109.812 a 5.543,5.543 0 0,1 0.000,5.543 M 73.400,109.812 l -1.800,-3.118 M 73.400,115.355 l -1.800,3.118 M 73.400,92.492 a 5.543,5.543 0 0,1 0.000,5.543 M 73.400,92.492 l -2.700,-4.677 M 73.400,98.034 l -1.800,3.118 M 74.300,128.691 l -2.700,-4.677">
<desc>I5</desc>
</path>
<path stroke="peru" stroke-width="2" stroke-linecap="round"
      fill="none" d="M 43.400,75.171 a 5.543,5.543 0 0,1 0.000,5.543 M 43.400,75.171 l -2.700,-4.677 M 43.400,80.714 a 5.543,5.543 0 0,1 4.800,-2.771 M 43.400,80.714 l -2.700,4.677 M 48.200,77.942 a 5.543,5.543 0 0,1 -4.800,-2.771 M 48.200,77.942 l 3.600,0.000 M 56.600,75.171 a 5.543,5.543 0 0,1 -4.800,2.771 M 58.400,72.053 a 5.543,5.543 0 0,1 4.800,-2.771 M 58.400,72.053 l -1.800,3.118 M 63.200,69.282 l 5.400,0.000">
<desc>L5</desc>
</path>
<path stroke="green" stroke-width="2" stroke-linecap="round"
      fill="none" d="M 26.600,63.393 a 5.543,5.543 0 0,1 0.000,-5.543 M 28.400,66.511 l -1.800,-3.118 M 29.300,53.174 l -2.700,4.677 M 33.200,69.282 a 5.543,5.543 0 0,1 -4.800,-2.771 M 33.200,69.282 l 3.600,0.000 M 41.600,66.511 a 5.543,5.543 0 0,1 -4.800,2.771 M 43.400,63.393 a 5.543,5.543 0 0,1 4.800,-2.771 M 43.400,63.393 l -1.800,3.118 M 48.200,60.622 l 5.400,0.000">
<desc>P5</desc>
</path>
<path stroke="navy" stroke-width="2" stroke-linecap="round"
      fill="none" d="M 31.400,51.962 l 5.400,0.000 M 36.800,51.962 a 5.543,5.543 0 0,1 4.800,2.771 M 41.600,49.190 a 5.543,5.543 0 0,1 -4.800,2.771 M 41.600,54.733 a 5.543,5.543 0 0,1 0.000,-5.543 M 43.400,46.073 a 5.543,5.543 0 0,1 4.800,-2.771 M 43.400,46.073 l -1.800,3.118 M 44.300,59.409 l -2.700,-4.677 M 48.200,43.301 l 3.600,0.000 M 51.800,43.301 a 5.543,5.543 0 0,1 4.800,2.771 M 59.300,50.749 l -2.700,-4.677">
<desc>R5</desc>
</path>
<path stroke="turquoise" stroke-width="2" stroke-linecap="round"
      fill="none" d="M 31.400,138.564 l 5.400,0.000 M 41.600,124.015 a 5.543,5.543 0 0,1 0.000,-5.543 M 41.600,135.793 a 5.543,5.543 0 0,1 -4.800,2.771 M 43.400,115.355 a 5.543,5.543 0 0,1 4.800,-2.771 M 43.400,115.355 l -1.800,3.118 M 43.400,127.133 a 5.543,5.543 0 0,1 0.000,5.543 M 43.400,127.133 l -1.800,-3.118 M 43.400,132.675 l -1.800,3.118 M 48.200,112.583 l 5.400,0.000">
<desc>S5</desc>
</path>
<path stroke="brown" stroke-width="2" stroke-linecap="round"
      fill="none" d="M 101.600,101.152 a 5.543,5.543 0 0,1 -4.800,2.771 M 101.600,106.694 a 5.543,5.543 0 0,1 0.000,-5.543 M 103.400,109.812 a 5.543,5.543 0 0,1 0.000,5.543 M 103.400,109.812 l -1.800,-3.118 M 103.400,115.355 l -2.700,4.677 M 103.400,92.492 a 5.543,5.543 0 0,1 0.000,5.543 M 103.400,92.492 l -2.700,-4.677 M 103.400,98.034 l -1.800,3.118 M 91.400,103.923 l 5.400,0.000 M 96.800,103.923 a 5.543,5.543 0 0,1 4.800,2.771">
<desc>T5</desc>
</path>
<path stroke="maroon" stroke-width="2" stroke-linecap="round"
      fill="none" d="M 11.600,124.015 a 5.543,5.543 0 0,1 0.000,-5.543 M 13.400,109.812 a 5.543,5.543 0 0,1 0.000,5.543 M 13.400,109.812 l -2.700,-4.677 M 13.400,115.355 l -1.800,3.118 M 13.400,127.133 l -1.800,-3.118 M 18.200,129.904 a 5.543,5.543 0 0,1 -4.800,-2.771 M 18.200,129.904 l 3.600,0.000 M 21.800,129.904 a 5.543,5.543 0 0,1 4.800,2.771 M 29.300,137.352 l -2.700,-4.677">
<desc>U5</desc>
</path>
<path stroke="plum" stroke-width="2" stroke-linecap="round"
      fill="none" d="M 13.400,98.034 a 5.543,5.543 0 0,1 4.800,-2.771 M 13.400,98.034 l -2.700,4.677 M 18.200,95.263 l 3.600,0.000 M 21.800,95.263 a 5.543,5.543 0 0,1 4.800,2.771 M 28.400,101.152 l -1.800,-3.118 M 33.200,103.923 a 5.543,5.543 0 0,1 -4.800,-2.771 M 33.200,103.923 l 3.600,0.000 M 36.800,103.923 a 5.543,5.543 0 0,1 4.800,2.771 M 44.300,111.371 l -2.700,-4.677">
<desc>W5</desc>
</path>
<path stroke="indigo" stroke-width="2" stroke-linecap="round"
      fill="none" d="M 16.400,112.583 l 5.400,0.000 M 21.800,112.583 a 5.543,5.543 0 0,1 4.800,2.771 M 26.600,109.812 a 5.543,5.543 0 0,1 -4.800,2.771 M 26.600,115.355 a 5.543,5.543 0 0,1 0.000,-5.543 M 28.400,118.472 a 5.543,5.543 0 0,1 0.000,5.543 M 28.400,118.472 l -1.800,-3.118 M 28.400,124.015 a 5.543,5.543 0 0,1 4.800,-2.771 M 28.400,124.015 l -2.700,4.677 M 29.300,105.135 l -2.700,4.677 M 33.200,121.244 a 5.543,5.543 0 0,1 -4.800,-2.771 M 33.200,121.244 l 5.400,0.000">
<desc>X5</desc>
</path>
<path stroke="olive" stroke-width="2" stroke-linecap="round"
      fill="none" d="M 76.400,112.583 l 5.400,0.000 M 76.400,129.904 l 5.400,0.000 M 81.800,112.583 a 5.543,5.543 0 0,1 4.800,2.771 M 86.600,127.133 a 5.543,5.543 0 0,1 -4.800,2.771 M 88.400,118.472 a 5.543,5.543 0 0,1 0.000,5.543 M 88.400,118.472 l -1.800,-3.118 M 88.400,124.015 a 5.543,5.543 0 0,1 4.800,-2.771 M 88.400,124.015 l -1.800,3.118 M 93.200,121.244 a 5.543,5.543 0 0,1 -4.800,-2.771 M 93.200,121.244 l 5.400,0.000">
<desc>Y5</desc>
</path>
</g>
</svg>
