<?xml version="1.0" standalone="no"?>
<!-- Created by Polyform Puzzler (http://puzzler.sourceforge.net/) -->
<svg width="180.000" height="199.186"
     viewBox="0 0 180.000 199.186"
     xmlns="http://www.w3.org/2000/svg"
     xmlns:xlink="http://www.w3.org/1999/xlink">
<g>
<path stroke="blue" stroke-width="2" stroke-linecap="round"
      fill="none" d="M 41.600,106.694 a 5.543,5.543 0 0,1 0.000,-5.543 M 43.400,109.812 l -1.800,-3.118 M 43.400,98.034 a 5.543,5.543 0 0,1 4.800,-2.771 M 43.400,98.034 l -1.800,3.118 M 48.200,112.583 a 5.543,5.543 0 0,1 -4.800,-2.771 M 48.200,112.583 l 3.600,0.000 M 48.200,95.263 l 5.400,0.000 M 56.600,109.812 a 5.543,5.543 0 0,1 -4.800,2.771 M 59.300,105.135 l -2.700,4.677">
<desc>C5</desc>
</path>
<path stroke="red" stroke-width="2" stroke-linecap="round"
      fill="none" d="M 131.600,89.374 a 5.543,5.543 0 0,1 0.000,-5.543 M 133.400,92.492 a 5.543,5.543 0 0,1 0.000,5.543 M 133.400,92.492 l -1.800,-3.118 M 133.400,98.034 a 5.543,5.543 0 0,1 4.800,-2.771 M 133.400,98.034 l -2.700,4.677 M 134.300,79.155 l -2.700,4.677 M 138.200,95.263 a 5.543,5.543 0 0,1 -4.800,-2.771 M 138.200,95.263 l 3.600,0.000 M 141.800,95.263 a 5.543,5.543 0 0,1 4.800,2.771 M 149.300,102.711 l -2.700,-4.677">
<desc>H5</desc>
</path>
<path stroke="lightcoral" stroke-width="2" stroke-linecap="round"
      fill="none" d="M 136.400,112.583 l 5.400,0.000 M 146.600,109.812 a 5.543,5.543 0 0,1 -4.800,2.771 M 148.400,106.694 a 5.543,5.543 0 0,1 4.800,-2.771 M 148.400,106.694 l -1.800,3.118 M 153.200,103.923 l 3.600,0.000 M 161.600,101.152 a 5.543,5.543 0 0,1 -4.800,2.771 M 163.400,98.034 a 5.543,5.543 0 0,1 4.800,-2.771 M 163.400,98.034 l -1.800,3.118 M 168.200,95.263 l 5.400,0.000">
<desc>I5</desc>
</path>
<path stroke="peru" stroke-width="2" stroke-linecap="round"
      fill="none" d="M 86.600,98.034 a 5.543,5.543 0 0,1 0.000,-5.543 M 88.400,101.152 a 5.543,5.543 0 0,1 0.000,5.543 M 88.400,101.152 l -1.800,-3.118 M 88.400,106.694 a 5.543,5.543 0 0,1 4.800,-2.771 M 88.400,106.694 l -2.700,4.677 M 88.400,83.831 a 5.543,5.543 0 0,1 0.000,5.543 M 88.400,83.831 l -2.700,-4.677 M 88.400,89.374 l -1.800,3.118 M 93.200,103.923 a 5.543,5.543 0 0,1 -4.800,-2.771 M 93.200,103.923 l 5.400,0.000">
<desc>L5</desc>
</path>
<path stroke="green" stroke-width="2" stroke-linecap="round"
      fill="none" d="M 41.600,89.374 a 5.543,5.543 0 0,1 0.000,-5.543 M 43.400,80.714 a 5.543,5.543 0 0,1 4.800,-2.771 M 43.400,80.714 l -1.800,3.118 M 44.300,94.050 l -2.700,-4.677 M 48.200,77.942 l 3.600,0.000 M 51.800,77.942 a 5.543,5.543 0 0,1 4.800,2.771 M 58.400,83.831 l -1.800,-3.118 M 63.200,86.603 a 5.543,5.543 0 0,1 -4.800,-2.771 M 63.200,86.603 l 5.400,0.000">
<desc>P5</desc>
</path>
<path stroke="navy" stroke-width="2" stroke-linecap="round"
      fill="none" d="M 71.600,89.374 a 5.543,5.543 0 0,1 0.000,-5.543 M 73.400,80.714 a 5.543,5.543 0 0,1 4.800,-2.771 M 73.400,80.714 l -1.800,3.118 M 73.400,92.492 a 5.543,5.543 0 0,1 0.000,5.543 M 73.400,92.492 l -1.800,-3.118 M 73.400,98.034 a 5.543,5.543 0 0,1 4.800,-2.771 M 73.400,98.034 l -2.700,4.677 M 78.200,77.942 l 5.400,0.000 M 78.200,95.263 a 5.543,5.543 0 0,1 -4.800,-2.771 M 78.200,95.263 l 5.400,0.000">
<desc>R5</desc>
</path>
<path stroke="turquoise" stroke-width="2" stroke-linecap="round"
      fill="none" d="M 103.400,109.812 l -2.700,-4.677 M 108.200,112.583 a 5.543,5.543 0 0,1 -4.800,-2.771 M 108.200,112.583 l 3.600,0.000 M 116.600,109.812 a 5.543,5.543 0 0,1 -4.800,2.771 M 118.400,106.694 a 5.543,5.543 0 0,1 4.800,-2.771 M 118.400,106.694 l -1.800,3.118 M 123.200,103.923 l 3.600,0.000 M 126.800,103.923 a 5.543,5.543 0 0,1 4.800,2.771 M 134.300,111.371 l -2.700,-4.677">
<desc>S5</desc>
</path>
<path stroke="brown" stroke-width="2" stroke-linecap="round"
      fill="none" d="M 136.400,77.942 l 5.400,0.000 M 141.800,77.942 a 5.543,5.543 0 0,1 4.800,2.771 M 148.400,83.831 a 5.543,5.543 0 0,1 0.000,5.543 M 148.400,83.831 l -1.800,-3.118 M 148.400,89.374 a 5.543,5.543 0 0,1 4.800,-2.771 M 148.400,89.374 l -2.700,4.677 M 153.200,86.603 a 5.543,5.543 0 0,1 -4.800,-2.771 M 153.200,86.603 l 3.600,0.000 M 156.800,86.603 a 5.543,5.543 0 0,1 4.800,2.771 M 164.300,94.050 l -2.700,-4.677">
<desc>T5</desc>
</path>
<path stroke="maroon" stroke-width="2" stroke-linecap="round"
      fill="none" d="M 101.600,83.831 a 5.543,5.543 0 0,1 -4.800,2.771 M 103.400,80.714 a 5.543,5.543 0 0,1 4.800,-2.771 M 103.400,80.714 l -1.800,3.118 M 108.200,77.942 l 3.600,0.000 M 111.800,77.942 a 5.543,5.543 0 0,1 4.800,2.771 M 118.400,83.831 l -1.800,-3.118 M 123.200,86.603 a 5.543,5.543 0 0,1 -4.800,-2.771 M 123.200,86.603 l 5.400,0.000 M 91.400,86.603 l 5.400,0.000">
<desc>U5</desc>
</path>
<path stroke="plum" stroke-width="2" stroke-linecap="round"
      fill="none" d="M 56.600,98.034 a 5.543,5.543 0 0,1 0.000,-5.543 M 58.400,101.152 l -1.800,-3.118 M 59.300,87.815 l -2.700,4.677 M 63.200,103.923 a 5.543,5.543 0 0,1 -4.800,-2.771 M 63.200,103.923 l 3.600,0.000 M 66.800,103.923 a 5.543,5.543 0 0,1 4.800,2.771 M 73.400,109.812 l -1.800,-3.118 M 78.200,112.583 a 5.543,5.543 0 0,1 -4.800,-2.771 M 78.200,112.583 l 5.400,0.000">
<desc>W5</desc>
</path>
<path stroke="indigo" stroke-width="2" stroke-linecap="round"
      fill="none" d="M 103.400,92.492 a 5.543,5.543 0 0,1 0.000,5.543 M 103.400,92.492 l -2.700,-4.677 M 103.400,98.034 a 5.543,5.543 0 0,1 4.800,-2.771 M 103.400,98.034 l -2.700,4.677 M 108.200,95.263 a 5.543,5.543 0 0,1 -4.800,-2.771 M 108.200,95.263 l 3.600,0.000 M 111.800,95.263 a 5.543,5.543 0 0,1 4.800,2.771 M 116.600,92.492 a 5.543,5.543 0 0,1 -4.800,2.771 M 116.600,98.034 a 5.543,5.543 0 0,1 0.000,-5.543 M 119.300,102.711 l -2.700,-4.677 M 119.300,87.815 l -2.700,4.677">
<desc>X5</desc>
</path>
<path stroke="olive" stroke-width="2" stroke-linecap="round"
      fill="none" d="M 16.400,95.263 l 5.400,0.000 M 21.800,95.263 a 5.543,5.543 0 0,1 4.800,2.771 M 26.600,92.492 a 5.543,5.543 0 0,1 -4.800,2.771 M 26.600,98.034 a 5.543,5.543 0 0,1 0.000,-5.543 M 28.400,101.152 l -1.800,-3.118 M 28.400,89.374 a 5.543,5.543 0 0,1 4.800,-2.771 M 28.400,89.374 l -1.800,3.118 M 33.200,103.923 a 5.543,5.543 0 0,1 -4.800,-2.771 M 33.200,103.923 l 5.400,0.000 M 33.200,86.603 l 5.400,0.000">
<desc>Y5</desc>
</path>
</g>
</svg>
