<?xml version="1.0" standalone="no"?>
<!-- Created by Polyform Puzzler (http://puzzler.sourceforge.net/) -->
<svg width="135.000" height="173.205"
     viewBox="0 0 135.000 173.205"
     xmlns="http://www.w3.org/2000/svg"
     xmlns:xlink="http://www.w3.org/1999/xlink">
<g>
<path stroke="blue" stroke-width="2" stroke-linecap="round"
      fill="none" d="M 26.600,106.694 a 5.543,5.543 0 0,1 0.000,-5.543 M 28.400,109.812 l -1.800,-3.118 M 29.300,96.475 l -2.700,4.677 M 33.200,112.583 a 5.543,5.543 0 0,1 -4.800,-2.771 M 33.200,112.583 l 3.600,0.000 M 41.600,109.812 a 5.543,5.543 0 0,1 -4.800,2.771 M 43.400,101.152 a 5.543,5.543 0 0,1 0.000,5.543 M 43.400,101.152 l -2.700,-4.677 M 43.400,106.694 l -1.800,3.118">
<desc>C5</desc>
</path>
<path stroke="red" stroke-width="2" stroke-linecap="round"
      fill="none" d="M 103.400,101.152 a 5.543,5.543 0 0,1 0.000,5.543 M 103.400,101.152 l -1.800,-3.118 M 103.400,106.694 a 5.543,5.543 0 0,1 4.800,-2.771 M 103.400,106.694 l -2.700,4.677 M 108.200,103.923 a 5.543,5.543 0 0,1 -4.800,-2.771 M 108.200,103.923 l 3.600,0.000 M 116.600,101.152 a 5.543,5.543 0 0,1 -4.800,2.771 M 119.300,96.475 l -2.700,4.677 M 91.400,95.263 l 5.400,0.000 M 96.800,95.263 a 5.543,5.543 0 0,1 4.800,2.771">
<desc>H5</desc>
</path>
<path stroke="lightcoral" stroke-width="2" stroke-linecap="round"
      fill="none" d="M 61.400,95.263 l 5.400,0.000 M 66.800,95.263 a 5.543,5.543 0 0,1 4.800,2.771 M 73.400,101.152 l -1.800,-3.118 M 78.200,103.923 a 5.543,5.543 0 0,1 -4.800,-2.771 M 78.200,103.923 l 3.600,0.000 M 81.800,103.923 a 5.543,5.543 0 0,1 4.800,2.771 M 88.400,109.812 l -1.800,-3.118 M 93.200,112.583 a 5.543,5.543 0 0,1 -4.800,-2.771 M 93.200,112.583 l 5.400,0.000">
<desc>I5</desc>
</path>
<path stroke="peru" stroke-width="2" stroke-linecap="round"
      fill="none" d="M 86.600,89.374 a 5.543,5.543 0 0,1 0.000,-5.543 M 88.400,75.171 a 5.543,5.543 0 0,1 0.000,5.543 M 88.400,75.171 l -2.700,-4.677 M 88.400,80.714 a 5.543,5.543 0 0,1 4.800,-2.771 M 88.400,80.714 l -1.800,3.118 M 88.400,92.492 a 5.543,5.543 0 0,1 0.000,5.543 M 88.400,92.492 l -1.800,-3.118 M 88.400,98.034 l -2.700,4.677 M 93.200,77.942 a 5.543,5.543 0 0,1 -4.800,-2.771 M 93.200,77.942 l 5.400,0.000">
<desc>L5</desc>
</path>
<path stroke="green" stroke-width="2" stroke-linecap="round"
      fill="none" d="M 41.600,80.714 a 5.543,5.543 0 0,1 0.000,-5.543 M 43.400,72.053 a 5.543,5.543 0 0,1 4.800,-2.771 M 43.400,72.053 l -1.800,3.118 M 43.400,83.831 a 5.543,5.543 0 0,1 0.000,5.543 M 43.400,83.831 l -1.800,-3.118 M 43.400,89.374 l -2.700,4.677 M 48.200,69.282 l 3.600,0.000 M 51.800,69.282 a 5.543,5.543 0 0,1 4.800,2.771 M 59.300,76.730 l -2.700,-4.677">
<desc>P5</desc>
</path>
<path stroke="navy" stroke-width="2" stroke-linecap="round"
      fill="none" d="M 16.400,69.282 l 5.400,0.000 M 21.800,69.282 a 5.543,5.543 0 0,1 4.800,2.771 M 26.600,66.511 a 5.543,5.543 0 0,1 -4.800,2.771 M 26.600,72.053 a 5.543,5.543 0 0,1 0.000,-5.543 M 28.400,63.393 a 5.543,5.543 0 0,1 4.800,-2.771 M 28.400,63.393 l -1.800,3.118 M 29.300,76.730 l -2.700,-4.677 M 33.200,60.622 l 3.600,0.000 M 36.800,60.622 a 5.543,5.543 0 0,1 4.800,2.771 M 44.300,68.070 l -2.700,-4.677">
<desc>R5</desc>
</path>
<path stroke="turquoise" stroke-width="2" stroke-linecap="round"
      fill="none" d="M 46.400,103.923 l 5.400,0.000 M 56.600,101.152 a 5.543,5.543 0 0,1 -4.800,2.771 M 56.600,89.374 a 5.543,5.543 0 0,1 0.000,-5.543 M 58.400,80.714 a 5.543,5.543 0 0,1 4.800,-2.771 M 58.400,80.714 l -1.800,3.118 M 58.400,92.492 a 5.543,5.543 0 0,1 0.000,5.543 M 58.400,92.492 l -1.800,-3.118 M 58.400,98.034 l -1.800,3.118 M 63.200,77.942 l 5.400,0.000">
<desc>S5</desc>
</path>
<path stroke="brown" stroke-width="2" stroke-linecap="round"
      fill="none" d="M 103.400,66.511 a 5.543,5.543 0 0,1 0.000,5.543 M 103.400,66.511 l -1.800,-3.118 M 103.400,72.053 a 5.543,5.543 0 0,1 4.800,-2.771 M 103.400,72.053 l -2.700,4.677 M 108.200,69.282 a 5.543,5.543 0 0,1 -4.800,-2.771 M 108.200,69.282 l 3.600,0.000 M 111.800,69.282 a 5.543,5.543 0 0,1 4.800,2.771 M 119.300,76.730 l -2.700,-4.677 M 91.400,60.622 l 5.400,0.000 M 96.800,60.622 a 5.543,5.543 0 0,1 4.800,2.771">
<desc>T5</desc>
</path>
<path stroke="maroon" stroke-width="2" stroke-linecap="round"
      fill="none" d="M 71.600,80.714 a 5.543,5.543 0 0,1 0.000,-5.543 M 73.400,72.053 a 5.543,5.543 0 0,1 4.800,-2.771 M 73.400,72.053 l -1.800,3.118 M 73.400,83.831 a 5.543,5.543 0 0,1 0.000,5.543 M 73.400,83.831 l -1.800,-3.118 M 73.400,89.374 l -2.700,4.677 M 78.200,69.282 l 3.600,0.000 M 86.600,66.511 a 5.543,5.543 0 0,1 -4.800,2.771 M 89.300,61.834 l -2.700,4.677">
<desc>U5</desc>
</path>
<path stroke="plum" stroke-width="2" stroke-linecap="round"
      fill="none" d="M 11.600,80.714 a 5.543,5.543 0 0,1 0.000,-5.543 M 11.600,98.034 a 5.543,5.543 0 0,1 0.000,-5.543 M 13.400,101.152 l -1.800,-3.118 M 13.400,83.831 a 5.543,5.543 0 0,1 0.000,5.543 M 13.400,83.831 l -1.800,-3.118 M 13.400,89.374 l -1.800,3.118 M 14.300,70.494 l -2.700,4.677 M 18.200,103.923 a 5.543,5.543 0 0,1 -4.800,-2.771 M 18.200,103.923 l 5.400,0.000">
<desc>W5</desc>
</path>
<path stroke="indigo" stroke-width="2" stroke-linecap="round"
      fill="none" d="M 103.400,83.831 a 5.543,5.543 0 0,1 0.000,5.543 M 103.400,83.831 l -2.700,-4.677 M 103.400,89.374 a 5.543,5.543 0 0,1 4.800,-2.771 M 103.400,89.374 l -2.700,4.677 M 108.200,86.603 a 5.543,5.543 0 0,1 -4.800,-2.771 M 108.200,86.603 l 3.600,0.000 M 111.800,86.603 a 5.543,5.543 0 0,1 4.800,2.771 M 116.600,83.831 a 5.543,5.543 0 0,1 -4.800,2.771 M 116.600,89.374 a 5.543,5.543 0 0,1 0.000,-5.543 M 119.300,79.155 l -2.700,4.677 M 119.300,94.050 l -2.700,-4.677">
<desc>X5</desc>
</path>
<path stroke="olive" stroke-width="2" stroke-linecap="round"
      fill="none" d="M 16.400,86.603 l 5.400,0.000 M 21.800,86.603 a 5.543,5.543 0 0,1 4.800,2.771 M 26.600,83.831 a 5.543,5.543 0 0,1 -4.800,2.771 M 26.600,89.374 a 5.543,5.543 0 0,1 0.000,-5.543 M 28.400,80.714 a 5.543,5.543 0 0,1 4.800,-2.771 M 28.400,80.714 l -1.800,3.118 M 28.400,92.492 l -1.800,-3.118 M 33.200,77.942 l 5.400,0.000 M 33.200,95.263 a 5.543,5.543 0 0,1 -4.800,-2.771 M 33.200,95.263 l 5.400,0.000">
<desc>Y5</desc>
</path>
</g>
</svg>
