<?xml version="1.0" standalone="no"?>
<!-- Created by Polyform Puzzler (http://puzzler.sourceforge.net/) -->
<svg width="105.000" height="155.885"
     viewBox="0 0 105.000 155.885"
     xmlns="http://www.w3.org/2000/svg"
     xmlns:xlink="http://www.w3.org/1999/xlink">
<g>
<path stroke="blue" stroke-width="2" stroke-linecap="round"
      fill="none" d="M 26.600,54.733 a 5.543,5.543 0 0,1 0.000,-5.543 M 28.400,46.073 a 5.543,5.543 0 0,1 4.800,-2.771 M 28.400,46.073 l -1.800,3.118 M 28.400,57.850 l -1.800,-3.118 M 33.200,43.301 l 5.400,0.000 M 33.200,60.622 a 5.543,5.543 0 0,1 -4.800,-2.771 M 33.200,60.622 l 3.600,0.000 M 41.600,57.850 a 5.543,5.543 0 0,1 -4.800,2.771 M 44.300,53.174 l -2.700,4.677">
<desc>C5</desc>
</path>
<path stroke="red" stroke-width="2" stroke-linecap="round"
      fill="none" d="M 28.400,92.492 l -2.700,-4.677 M 33.200,95.263 a 5.543,5.543 0 0,1 -4.800,-2.771 M 33.200,95.263 l 3.600,0.000 M 36.800,95.263 a 5.543,5.543 0 0,1 4.800,2.771 M 41.600,92.492 a 5.543,5.543 0 0,1 -4.800,2.771 M 41.600,98.034 a 5.543,5.543 0 0,1 0.000,-5.543 M 43.400,101.152 a 5.543,5.543 0 0,1 0.000,5.543 M 43.400,101.152 l -1.800,-3.118 M 43.400,106.694 l -2.700,4.677 M 44.300,87.815 l -2.700,4.677">
<desc>H5</desc>
</path>
<path stroke="lightcoral" stroke-width="2" stroke-linecap="round"
      fill="none" d="M 16.400,69.282 l 5.400,0.000 M 21.800,69.282 a 5.543,5.543 0 0,1 4.800,2.771 M 28.400,75.171 l -1.800,-3.118 M 33.200,77.942 a 5.543,5.543 0 0,1 -4.800,-2.771 M 33.200,77.942 l 3.600,0.000 M 36.800,77.942 a 5.543,5.543 0 0,1 4.800,2.771 M 43.400,83.831 l -1.800,-3.118 M 48.200,86.603 a 5.543,5.543 0 0,1 -4.800,-2.771 M 48.200,86.603 l 5.400,0.000">
<desc>I5</desc>
</path>
<path stroke="peru" stroke-width="2" stroke-linecap="round"
      fill="none" d="M 43.400,66.511 a 5.543,5.543 0 0,1 0.000,5.543 M 43.400,66.511 l -2.700,-4.677 M 43.400,72.053 a 5.543,5.543 0 0,1 4.800,-2.771 M 43.400,72.053 l -2.700,4.677 M 48.200,69.282 a 5.543,5.543 0 0,1 -4.800,-2.771 M 48.200,69.282 l 3.600,0.000 M 56.600,66.511 a 5.543,5.543 0 0,1 -4.800,2.771 M 58.400,63.393 a 5.543,5.543 0 0,1 4.800,-2.771 M 58.400,63.393 l -1.800,3.118 M 63.200,60.622 l 5.400,0.000">
<desc>L5</desc>
</path>
<path stroke="green" stroke-width="2" stroke-linecap="round"
      fill="none" d="M 41.600,46.073 a 5.543,5.543 0 0,1 0.000,-5.543 M 43.400,37.412 a 5.543,5.543 0 0,1 4.800,-2.771 M 43.400,37.412 l -1.800,3.118 M 43.400,49.190 l -1.800,-3.118 M 48.200,34.641 l 5.400,0.000 M 48.200,51.962 a 5.543,5.543 0 0,1 -4.800,-2.771 M 48.200,51.962 l 3.600,0.000 M 51.800,51.962 a 5.543,5.543 0 0,1 4.800,2.771 M 59.300,59.409 l -2.700,-4.677">
<desc>P5</desc>
</path>
<path stroke="navy" stroke-width="2" stroke-linecap="round"
      fill="none" d="M 58.400,40.530 a 5.543,5.543 0 0,1 0.000,5.543 M 58.400,40.530 l -2.700,-4.677 M 58.400,46.073 a 5.543,5.543 0 0,1 4.800,-2.771 M 58.400,46.073 l -2.700,4.677 M 63.200,43.301 a 5.543,5.543 0 0,1 -4.800,-2.771 M 63.200,43.301 l 3.600,0.000 M 66.800,43.301 a 5.543,5.543 0 0,1 4.800,2.771 M 73.400,49.190 a 5.543,5.543 0 0,1 0.000,5.543 M 73.400,49.190 l -1.800,-3.118 M 73.400,54.733 l -2.700,4.677">
<desc>R5</desc>
</path>
<path stroke="turquoise" stroke-width="2" stroke-linecap="round"
      fill="none" d="M 58.400,75.171 l -2.700,-4.677 M 63.200,77.942 a 5.543,5.543 0 0,1 -4.800,-2.771 M 63.200,77.942 l 3.600,0.000 M 71.600,75.171 a 5.543,5.543 0 0,1 -4.800,2.771 M 73.400,72.053 a 5.543,5.543 0 0,1 4.800,-2.771 M 73.400,72.053 l -1.800,3.118 M 78.200,69.282 l 3.600,0.000 M 81.800,69.282 a 5.543,5.543 0 0,1 4.800,2.771 M 89.300,76.730 l -2.700,-4.677">
<desc>S5</desc>
</path>
<path stroke="brown" stroke-width="2" stroke-linecap="round"
      fill="none" d="M 13.400,101.152 l -2.700,-4.677 M 18.200,103.923 a 5.543,5.543 0 0,1 -4.800,-2.771 M 18.200,103.923 l 3.600,0.000 M 21.800,103.923 a 5.543,5.543 0 0,1 4.800,2.771 M 26.600,101.152 a 5.543,5.543 0 0,1 -4.800,2.771 M 26.600,106.694 a 5.543,5.543 0 0,1 0.000,-5.543 M 28.400,109.812 l -1.800,-3.118 M 29.300,96.475 l -2.700,4.677 M 33.200,112.583 a 5.543,5.543 0 0,1 -4.800,-2.771 M 33.200,112.583 l 5.400,0.000">
<desc>T5</desc>
</path>
<path stroke="maroon" stroke-width="2" stroke-linecap="round"
      fill="none" d="M 73.400,106.694 a 5.543,5.543 0 0,1 4.800,-2.771 M 73.400,106.694 l -2.700,4.677 M 78.200,103.923 l 3.600,0.000 M 86.600,101.152 a 5.543,5.543 0 0,1 -4.800,2.771 M 86.600,89.374 a 5.543,5.543 0 0,1 0.000,-5.543 M 88.400,92.492 a 5.543,5.543 0 0,1 0.000,5.543 M 88.400,92.492 l -1.800,-3.118 M 88.400,98.034 l -1.800,3.118 M 89.300,79.155 l -2.700,4.677">
<desc>U5</desc>
</path>
<path stroke="plum" stroke-width="2" stroke-linecap="round"
      fill="none" d="M 56.600,106.694 a 5.543,5.543 0 0,1 0.000,-5.543 M 56.600,89.374 a 5.543,5.543 0 0,1 0.000,-5.543 M 58.400,109.812 l -1.800,-3.118 M 58.400,92.492 a 5.543,5.543 0 0,1 0.000,5.543 M 58.400,92.492 l -1.800,-3.118 M 58.400,98.034 l -1.800,3.118 M 59.300,79.155 l -2.700,4.677 M 63.200,112.583 a 5.543,5.543 0 0,1 -4.800,-2.771 M 63.200,112.583 l 5.400,0.000">
<desc>W5</desc>
</path>
<path stroke="indigo" stroke-width="2" stroke-linecap="round"
      fill="none" d="M 61.400,95.263 l 5.400,0.000 M 66.800,95.263 a 5.543,5.543 0 0,1 4.800,2.771 M 71.600,92.492 a 5.543,5.543 0 0,1 -4.800,2.771 M 71.600,98.034 a 5.543,5.543 0 0,1 0.000,-5.543 M 73.400,83.831 a 5.543,5.543 0 0,1 0.000,5.543 M 73.400,83.831 l -2.700,-4.677 M 73.400,89.374 a 5.543,5.543 0 0,1 4.800,-2.771 M 73.400,89.374 l -1.800,3.118 M 74.300,102.711 l -2.700,-4.677 M 78.200,86.603 a 5.543,5.543 0 0,1 -4.800,-2.771 M 78.200,86.603 l 5.400,0.000">
<desc>X5</desc>
</path>
<path stroke="olive" stroke-width="2" stroke-linecap="round"
      fill="none" d="M 11.600,80.714 a 5.543,5.543 0 0,1 0.000,-5.543 M 13.400,83.831 a 5.543,5.543 0 0,1 0.000,5.543 M 13.400,83.831 l -1.800,-3.118 M 13.400,89.374 a 5.543,5.543 0 0,1 4.800,-2.771 M 13.400,89.374 l -2.700,4.677 M 14.300,70.494 l -2.700,4.677 M 18.200,86.603 a 5.543,5.543 0 0,1 -4.800,-2.771 M 18.200,86.603 l 3.600,0.000 M 26.600,83.831 a 5.543,5.543 0 0,1 -4.800,2.771 M 29.300,79.155 l -2.700,4.677">
<desc>Y5</desc>
</path>
</g>
</svg>
