<?xml version="1.0" standalone="no"?>
<!-- Created by Polyform Puzzler (http://puzzler.sourceforge.net/) -->
<svg width="242.487" height="242.487"
     viewBox="0 0 242.487 242.487"
     xmlns="http://www.w3.org/2000/svg"
     xmlns:xlink="http://www.w3.org/1999/xlink">
<g transform="translate(121.244,121.244) rotate(30)">
<path stroke="blue" stroke-width="2" stroke-linecap="round"
      fill="none" d="M 11.600,98.034 a 5.543,5.543 0 0,1 0.000,-5.543 M 13.400,101.152 l -1.800,-3.118 M 13.400,89.374 a 5.543,5.543 0 0,1 4.800,-2.771 M 13.400,89.374 l -1.800,3.118 M 18.200,103.923 a 5.543,5.543 0 0,1 -4.800,-2.771 M 18.200,103.923 l 5.400,0.000 M 18.200,86.603 l 3.600,0.000 M 21.800,86.603 a 5.543,5.543 0 0,1 4.800,2.771 M 29.300,94.050 l -2.700,-4.677">
<desc>C5</desc>
</path>
<path stroke="red" stroke-width="2" stroke-linecap="round"
      fill="none" d="M 31.400,60.622 l 5.400,0.000 M 36.800,60.622 a 5.543,5.543 0 0,1 4.800,2.771 M 41.600,57.850 a 5.543,5.543 0 0,1 -4.800,2.771 M 41.600,63.393 a 5.543,5.543 0 0,1 0.000,-5.543 M 43.400,49.190 a 5.543,5.543 0 0,1 0.000,5.543 M 43.400,49.190 l -2.700,-4.677 M 43.400,54.733 l -1.800,3.118 M 43.400,66.511 l -1.800,-3.118 M 48.200,69.282 a 5.543,5.543 0 0,1 -4.800,-2.771 M 48.200,69.282 l 5.400,0.000">
<desc>H5</desc>
</path>
<path stroke="lightcoral" stroke-width="2" stroke-linecap="round"
      fill="none" d="M 28.400,98.034 a 5.543,5.543 0 0,1 4.800,-2.771 M 28.400,98.034 l -2.700,4.677 M 33.200,95.263 l 3.600,0.000 M 41.600,92.492 a 5.543,5.543 0 0,1 -4.800,2.771 M 43.400,89.374 a 5.543,5.543 0 0,1 4.800,-2.771 M 43.400,89.374 l -1.800,3.118 M 48.200,86.603 l 3.600,0.000 M 56.600,83.831 a 5.543,5.543 0 0,1 -4.800,2.771 M 59.300,79.155 l -2.700,4.677">
<desc>I5</desc>
</path>
<path stroke="peru" stroke-width="2" stroke-linecap="round"
      fill="none" d="M 76.400,34.641 l 5.400,0.000 M 81.800,34.641 a 5.543,5.543 0 0,1 4.800,2.771 M 86.600,31.870 a 5.543,5.543 0 0,1 -4.800,2.771 M 86.600,37.412 a 5.543,5.543 0 0,1 0.000,-5.543 M 86.600,54.733 a 5.543,5.543 0 0,1 0.000,-5.543 M 88.400,40.530 a 5.543,5.543 0 0,1 0.000,5.543 M 88.400,40.530 l -1.800,-3.118 M 88.400,46.073 l -1.800,3.118 M 89.300,27.193 l -2.700,4.677 M 89.300,59.409 l -2.700,-4.677">
<desc>L5</desc>
</path>
<path stroke="green" stroke-width="2" stroke-linecap="round"
      fill="none" d="M 71.600,28.752 a 5.543,5.543 0 0,1 0.000,-5.543 M 73.400,20.092 a 5.543,5.543 0 0,1 4.800,-2.771 M 73.400,20.092 l -1.800,3.118 M 73.400,31.870 a 5.543,5.543 0 0,1 0.000,5.543 M 73.400,31.870 l -1.800,-3.118 M 73.400,37.412 l -2.700,4.677 M 78.200,17.321 l 3.600,0.000 M 81.800,17.321 a 5.543,5.543 0 0,1 4.800,2.771 M 89.300,24.768 l -2.700,-4.677">
<desc>P5</desc>
</path>
<path stroke="navy" stroke-width="2" stroke-linecap="round"
      fill="none" d="M 56.600,72.053 a 5.543,5.543 0 0,1 0.000,-5.543 M 58.400,57.850 a 5.543,5.543 0 0,1 0.000,5.543 M 58.400,57.850 l -2.700,-4.677 M 58.400,63.393 a 5.543,5.543 0 0,1 4.800,-2.771 M 58.400,63.393 l -1.800,3.118 M 58.400,75.171 l -1.800,-3.118 M 63.200,60.622 a 5.543,5.543 0 0,1 -4.800,-2.771 M 63.200,60.622 l 5.400,0.000 M 63.200,77.942 a 5.543,5.543 0 0,1 -4.800,-2.771 M 63.200,77.942 l 5.400,0.000">
<desc>R5</desc>
</path>
<path stroke="turquoise" stroke-width="2" stroke-linecap="round"
      fill="none" d="M 11.600,80.714 a 5.543,5.543 0 0,1 0.000,-5.543 M 13.400,72.053 a 5.543,5.543 0 0,1 4.800,-2.771 M 13.400,72.053 l -1.800,3.118 M 14.300,85.390 l -2.700,-4.677 M 18.200,69.282 l 3.600,0.000 M 26.600,66.511 a 5.543,5.543 0 0,1 -4.800,2.771 M 28.400,57.850 a 5.543,5.543 0 0,1 0.000,5.543 M 28.400,57.850 l -2.700,-4.677 M 28.400,63.393 l -1.800,3.118">
<desc>S5</desc>
</path>
<path stroke="brown" stroke-width="2" stroke-linecap="round"
      fill="none" d="M 43.400,37.412 a 5.543,5.543 0 0,1 4.800,-2.771 M 43.400,37.412 l -2.700,4.677 M 48.200,34.641 l 3.600,0.000 M 51.800,34.641 a 5.543,5.543 0 0,1 4.800,2.771 M 56.600,31.870 a 5.543,5.543 0 0,1 -4.800,2.771 M 56.600,37.412 a 5.543,5.543 0 0,1 0.000,-5.543 M 58.400,28.752 a 5.543,5.543 0 0,1 4.800,-2.771 M 58.400,28.752 l -1.800,3.118 M 59.300,42.089 l -2.700,-4.677 M 63.200,25.981 l 5.400,0.000">
<desc>T5</desc>
</path>
<path stroke="maroon" stroke-width="2" stroke-linecap="round"
      fill="none" d="M 46.400,51.962 l 5.400,0.000 M 56.600,49.190 a 5.543,5.543 0 0,1 -4.800,2.771 M 58.400,46.073 a 5.543,5.543 0 0,1 4.800,-2.771 M 58.400,46.073 l -1.800,3.118 M 63.200,43.301 l 3.600,0.000 M 66.800,43.301 a 5.543,5.543 0 0,1 4.800,2.771 M 73.400,49.190 l -1.800,-3.118 M 78.200,51.962 a 5.543,5.543 0 0,1 -4.800,-2.771 M 78.200,51.962 l 5.400,0.000">
<desc>U5</desc>
</path>
<path stroke="plum" stroke-width="2" stroke-linecap="round"
      fill="none" d="M 11.600,63.393 a 5.543,5.543 0 0,1 0.000,-5.543 M 13.400,54.733 a 5.543,5.543 0 0,1 4.800,-2.771 M 13.400,54.733 l -1.800,3.118 M 14.300,68.070 l -2.700,-4.677 M 18.200,51.962 l 3.600,0.000 M 26.600,49.190 a 5.543,5.543 0 0,1 -4.800,2.771 M 28.400,46.073 a 5.543,5.543 0 0,1 4.800,-2.771 M 28.400,46.073 l -1.800,3.118 M 33.200,43.301 l 5.400,0.000">
<desc>W5</desc>
</path>
<path stroke="indigo" stroke-width="2" stroke-linecap="round"
      fill="none" d="M 28.400,75.171 a 5.543,5.543 0 0,1 0.000,5.543 M 28.400,75.171 l -2.700,-4.677 M 28.400,80.714 a 5.543,5.543 0 0,1 4.800,-2.771 M 28.400,80.714 l -2.700,4.677 M 33.200,77.942 a 5.543,5.543 0 0,1 -4.800,-2.771 M 33.200,77.942 l 3.600,0.000 M 36.800,77.942 a 5.543,5.543 0 0,1 4.800,2.771 M 41.600,75.171 a 5.543,5.543 0 0,1 -4.800,2.771 M 41.600,80.714 a 5.543,5.543 0 0,1 0.000,-5.543 M 44.300,70.494 l -2.700,4.677 M 44.300,85.390 l -2.700,-4.677">
<desc>X5</desc>
</path>
<path stroke="olive" stroke-width="2" stroke-linecap="round"
      fill="none" d="M 71.600,63.393 a 5.543,5.543 0 0,1 0.000,-5.543 M 73.400,66.511 a 5.543,5.543 0 0,1 0.000,5.543 M 73.400,66.511 l -1.800,-3.118 M 73.400,72.053 a 5.543,5.543 0 0,1 4.800,-2.771 M 73.400,72.053 l -2.700,4.677 M 74.300,53.174 l -2.700,4.677 M 78.200,69.282 a 5.543,5.543 0 0,1 -4.800,-2.771 M 78.200,69.282 l 3.600,0.000 M 86.600,66.511 a 5.543,5.543 0 0,1 -4.800,2.771 M 89.300,61.834 l -2.700,4.677">
<desc>Y5</desc>
</path>
</g>
</svg>
