<?xml version="1.0" standalone="no"?>
<!-- Created by Polyform Puzzler (http://puzzler.sourceforge.net/) -->
<svg width="255.000" height="329.090"
     viewBox="0 0 255.000 329.090"
     xmlns="http://www.w3.org/2000/svg"
     xmlns:xlink="http://www.w3.org/1999/xlink">
<g>
<path stroke="darkorange" stroke-width="2" stroke-linecap="round"
      fill="none" d="M 26.600,175.976 a 5.543,5.543 0 0,1 0.000,-5.543 M 28.400,167.316 a 5.543,5.543 0 0,1 4.800,-2.771 M 28.400,167.316 l -1.800,3.118 M 28.400,179.094 l -1.800,-3.118 M 33.200,164.545 l 5.400,0.000 M 33.200,181.865 a 5.543,5.543 0 0,1 -4.800,-2.771 M 33.200,181.865 l 5.400,0.000">
<desc>C4</desc>
</path>
<path stroke="blue" stroke-width="2" stroke-linecap="round"
      fill="none" d="M 206.600,175.976 a 5.543,5.543 0 0,1 0.000,-5.543 M 208.400,167.316 a 5.543,5.543 0 0,1 4.800,-2.771 M 208.400,167.316 l -1.800,3.118 M 208.400,179.094 l -1.800,-3.118 M 213.200,164.545 l 5.400,0.000 M 213.200,181.865 a 5.543,5.543 0 0,1 -4.800,-2.771 M 213.200,181.865 l 3.600,0.000 M 221.600,179.094 a 5.543,5.543 0 0,1 -4.800,2.771 M 224.300,174.418 l -2.700,4.677">
<desc>C5</desc>
</path>
<path stroke="red" stroke-width="2" stroke-linecap="round"
      fill="none" d="M 41.600,167.316 a 5.543,5.543 0 0,1 0.000,-5.543 M 43.400,170.434 a 5.543,5.543 0 0,1 0.000,5.543 M 43.400,170.434 l -1.800,-3.118 M 43.400,175.976 a 5.543,5.543 0 0,1 4.800,-2.771 M 43.400,175.976 l -2.700,4.677 M 44.300,157.097 l -2.700,4.677 M 48.200,173.205 a 5.543,5.543 0 0,1 -4.800,-2.771 M 48.200,173.205 l 3.600,0.000 M 51.800,173.205 a 5.543,5.543 0 0,1 4.800,2.771 M 59.300,180.653 l -2.700,-4.677">
<desc>H5</desc>
</path>
<path stroke="lightcoral" stroke-width="2" stroke-linecap="round"
      fill="none" d="M 101.600,149.996 a 5.543,5.543 0 0,1 0.000,-5.543 M 101.600,167.316 a 5.543,5.543 0 0,1 0.000,-5.543 M 103.400,135.793 a 5.543,5.543 0 0,1 0.000,5.543 M 103.400,135.793 l -2.700,-4.677 M 103.400,141.335 l -1.800,3.118 M 103.400,153.113 a 5.543,5.543 0 0,1 0.000,5.543 M 103.400,153.113 l -1.800,-3.118 M 103.400,158.656 l -1.800,3.118 M 104.300,171.993 l -2.700,-4.677">
<desc>I5</desc>
</path>
<path stroke="peru" stroke-width="2" stroke-linecap="round"
      fill="none" d="M 16.400,138.564 l 5.400,0.000 M 21.800,138.564 a 5.543,5.543 0 0,1 4.800,2.771 M 26.600,135.793 a 5.543,5.543 0 0,1 -4.800,2.771 M 26.600,141.335 a 5.543,5.543 0 0,1 0.000,-5.543 M 26.600,158.656 a 5.543,5.543 0 0,1 0.000,-5.543 M 28.400,144.453 a 5.543,5.543 0 0,1 0.000,5.543 M 28.400,144.453 l -1.800,-3.118 M 28.400,149.996 l -1.800,3.118 M 29.300,131.116 l -2.700,4.677 M 29.300,163.332 l -2.700,-4.677">
<desc>L5</desc>
</path>
<path stroke="blueviolet" stroke-width="2" stroke-linecap="round"
      fill="none" d="M 101.600,179.094 a 5.543,5.543 0 0,1 -4.800,2.771 M 103.400,175.976 a 5.543,5.543 0 0,1 4.800,-2.771 M 103.400,175.976 l -1.800,3.118 M 108.200,173.205 l 3.600,0.000 M 111.800,173.205 a 5.543,5.543 0 0,1 4.800,2.771 M 119.300,180.653 l -2.700,-4.677 M 91.400,181.865 l 5.400,0.000">
<desc>P4</desc>
</path>
<path stroke="green" stroke-width="2" stroke-linecap="round"
      fill="none" d="M 146.600,175.976 a 5.543,5.543 0 0,1 0.000,-5.543 M 148.400,161.774 a 5.543,5.543 0 0,1 0.000,5.543 M 148.400,161.774 l -2.700,-4.677 M 148.400,167.316 l -1.800,3.118 M 148.400,179.094 l -1.800,-3.118 M 153.200,181.865 a 5.543,5.543 0 0,1 -4.800,-2.771 M 153.200,181.865 l 3.600,0.000 M 161.600,179.094 a 5.543,5.543 0 0,1 -4.800,2.771 M 164.300,174.418 l -2.700,4.677">
<desc>P5</desc>
</path>
<path stroke="navy" stroke-width="2" stroke-linecap="round"
      fill="none" d="M 31.400,129.904 l 5.400,0.000 M 31.400,147.224 l 5.400,0.000 M 36.800,129.904 a 5.543,5.543 0 0,1 4.800,2.771 M 36.800,147.224 a 5.543,5.543 0 0,1 4.800,2.771 M 41.600,144.453 a 5.543,5.543 0 0,1 -4.800,2.771 M 41.600,149.996 a 5.543,5.543 0 0,1 0.000,-5.543 M 43.400,135.793 a 5.543,5.543 0 0,1 0.000,5.543 M 43.400,135.793 l -1.800,-3.118 M 43.400,141.335 l -1.800,3.118 M 44.300,154.672 l -2.700,-4.677">
<desc>R5</desc>
</path>
<path stroke="turquoise" stroke-width="2" stroke-linecap="round"
      fill="none" d="M 206.600,158.656 a 5.543,5.543 0 0,1 0.000,-5.543 M 208.400,149.996 a 5.543,5.543 0 0,1 4.800,-2.771 M 208.400,149.996 l -1.800,3.118 M 209.300,163.332 l -2.700,-4.677 M 213.200,147.224 l 3.600,0.000 M 221.600,144.453 a 5.543,5.543 0 0,1 -4.800,2.771 M 223.400,135.793 a 5.543,5.543 0 0,1 0.000,5.543 M 223.400,135.793 l -2.700,-4.677 M 223.400,141.335 l -1.800,3.118">
<desc>S5</desc>
</path>
<path stroke="brown" stroke-width="2" stroke-linecap="round"
      fill="none" d="M 86.600,158.656 a 5.543,5.543 0 0,1 0.000,-5.543 M 86.600,175.976 a 5.543,5.543 0 0,1 0.000,-5.543 M 88.400,161.774 a 5.543,5.543 0 0,1 0.000,5.543 M 88.400,161.774 l -1.800,-3.118 M 88.400,167.316 a 5.543,5.543 0 0,1 4.800,-2.771 M 88.400,167.316 l -1.800,3.118 M 89.300,148.437 l -2.700,4.677 M 89.300,180.653 l -2.700,-4.677 M 93.200,164.545 a 5.543,5.543 0 0,1 -4.800,-2.771 M 93.200,164.545 l 5.400,0.000">
<desc>T5</desc>
</path>
<path stroke="maroon" stroke-width="2" stroke-linecap="round"
      fill="none" d="M 221.600,167.316 a 5.543,5.543 0 0,1 0.000,-5.543 M 223.400,153.113 a 5.543,5.543 0 0,1 0.000,5.543 M 223.400,153.113 l -2.700,-4.677 M 223.400,158.656 l -1.800,3.118 M 223.400,170.434 l -1.800,-3.118 M 228.200,173.205 a 5.543,5.543 0 0,1 -4.800,-2.771 M 228.200,173.205 l 3.600,0.000 M 231.800,173.205 a 5.543,5.543 0 0,1 4.800,2.771 M 239.300,180.653 l -2.700,-4.677">
<desc>U5</desc>
</path>
<path stroke="teal" stroke-width="2" stroke-linecap="round"
      fill="none" d="M 151.400,164.545 l 5.400,0.000 M 156.800,164.545 a 5.543,5.543 0 0,1 4.800,2.771 M 163.400,170.434 l -1.800,-3.118 M 168.200,173.205 a 5.543,5.543 0 0,1 -4.800,-2.771 M 168.200,173.205 l 3.600,0.000 M 171.800,173.205 a 5.543,5.543 0 0,1 4.800,2.771 M 179.300,180.653 l -2.700,-4.677">
<desc>W4</desc>
</path>
<path stroke="plum" stroke-width="2" stroke-linecap="round"
      fill="none" d="M 151.400,129.904 l 5.400,0.000 M 156.800,129.904 a 5.543,5.543 0 0,1 4.800,2.771 M 161.600,149.996 a 5.543,5.543 0 0,1 0.000,-5.543 M 163.400,135.793 a 5.543,5.543 0 0,1 0.000,5.543 M 163.400,135.793 l -1.800,-3.118 M 163.400,141.335 l -1.800,3.118 M 163.400,153.113 a 5.543,5.543 0 0,1 0.000,5.543 M 163.400,153.113 l -1.800,-3.118 M 163.400,158.656 l -2.700,4.677">
<desc>W5</desc>
</path>
<path stroke="indigo" stroke-width="2" stroke-linecap="round"
      fill="none" d="M 136.400,138.564 l 5.400,0.000 M 141.800,138.564 a 5.543,5.543 0 0,1 4.800,2.771 M 146.600,135.793 a 5.543,5.543 0 0,1 -4.800,2.771 M 146.600,141.335 a 5.543,5.543 0 0,1 0.000,-5.543 M 148.400,144.453 a 5.543,5.543 0 0,1 0.000,5.543 M 148.400,144.453 l -1.800,-3.118 M 148.400,149.996 a 5.543,5.543 0 0,1 4.800,-2.771 M 148.400,149.996 l -2.700,4.677 M 149.300,131.116 l -2.700,4.677 M 153.200,147.224 a 5.543,5.543 0 0,1 -4.800,-2.771 M 153.200,147.224 l 5.400,0.000">
<desc>X5</desc>
</path>
<path stroke="darkgreen" stroke-width="2" stroke-linecap="round"
      fill="none" d="M 196.400,138.564 l 5.400,0.000 M 201.800,138.564 a 5.543,5.543 0 0,1 4.800,2.771 M 206.600,135.793 a 5.543,5.543 0 0,1 -4.800,2.771 M 206.600,141.335 a 5.543,5.543 0 0,1 0.000,-5.543 M 208.400,132.675 a 5.543,5.543 0 0,1 4.800,-2.771 M 208.400,132.675 l -1.800,3.118 M 209.300,146.012 l -2.700,-4.677 M 213.200,129.904 l 5.400,0.000">
<desc>Y4</desc>
</path>
<path stroke="olive" stroke-width="2" stroke-linecap="round"
      fill="none" d="M 76.400,138.564 l 5.400,0.000 M 81.800,138.564 a 5.543,5.543 0 0,1 4.800,2.771 M 86.600,135.793 a 5.543,5.543 0 0,1 -4.800,2.771 M 86.600,141.335 a 5.543,5.543 0 0,1 0.000,-5.543 M 88.400,132.675 a 5.543,5.543 0 0,1 4.800,-2.771 M 88.400,132.675 l -1.800,3.118 M 88.400,144.453 l -1.800,-3.118 M 93.200,129.904 l 5.400,0.000 M 93.200,147.224 a 5.543,5.543 0 0,1 -4.800,-2.771 M 93.200,147.224 l 5.400,0.000">
<desc>Y5</desc>
</path>
</g>
</svg>
