<?xml version="1.0" standalone="no"?>
<!-- Created by Polyform Puzzler (http://puzzler.sourceforge.net/) -->
<svg width="240.000" height="320.429"
     viewBox="0 0 240.000 320.429"
     xmlns="http://www.w3.org/2000/svg"
     xmlns:xlink="http://www.w3.org/1999/xlink">
<g>
<path stroke="darkorange" stroke-width="2" stroke-linecap="round"
      fill="none" d="M 11.600,175.976 a 5.543,5.543 0 0,1 0.000,-5.543 M 13.400,167.316 a 5.543,5.543 0 0,1 4.800,-2.771 M 13.400,167.316 l -1.800,3.118 M 13.400,179.094 l -1.800,-3.118 M 18.200,164.545 l 5.400,0.000 M 18.200,181.865 a 5.543,5.543 0 0,1 -4.800,-2.771 M 18.200,181.865 l 5.400,0.000">
<desc>C4</desc>
</path>
<path stroke="blue" stroke-width="2" stroke-linecap="round"
      fill="none" d="M 71.600,175.976 a 5.543,5.543 0 0,1 0.000,-5.543 M 73.400,167.316 a 5.543,5.543 0 0,1 4.800,-2.771 M 73.400,167.316 l -1.800,3.118 M 73.400,179.094 l -1.800,-3.118 M 78.200,164.545 l 5.400,0.000 M 78.200,181.865 a 5.543,5.543 0 0,1 -4.800,-2.771 M 78.200,181.865 l 3.600,0.000 M 86.600,179.094 a 5.543,5.543 0 0,1 -4.800,2.771 M 89.300,174.418 l -2.700,4.677">
<desc>C5</desc>
</path>
<path stroke="red" stroke-width="2" stroke-linecap="round"
      fill="none" d="M 26.600,167.316 a 5.543,5.543 0 0,1 0.000,-5.543 M 28.400,170.434 a 5.543,5.543 0 0,1 0.000,5.543 M 28.400,170.434 l -1.800,-3.118 M 28.400,175.976 a 5.543,5.543 0 0,1 4.800,-2.771 M 28.400,175.976 l -2.700,4.677 M 29.300,157.097 l -2.700,4.677 M 33.200,173.205 a 5.543,5.543 0 0,1 -4.800,-2.771 M 33.200,173.205 l 3.600,0.000 M 36.800,173.205 a 5.543,5.543 0 0,1 4.800,2.771 M 44.300,180.653 l -2.700,-4.677">
<desc>H5</desc>
</path>
<path stroke="lightcoral" stroke-width="2" stroke-linecap="round"
      fill="none" d="M 146.600,132.675 a 5.543,5.543 0 0,1 0.000,-5.543 M 146.600,149.996 a 5.543,5.543 0 0,1 0.000,-5.543 M 148.400,135.793 a 5.543,5.543 0 0,1 0.000,5.543 M 148.400,135.793 l -1.800,-3.118 M 148.400,141.335 l -1.800,3.118 M 148.400,153.113 a 5.543,5.543 0 0,1 0.000,5.543 M 148.400,153.113 l -1.800,-3.118 M 148.400,158.656 l -2.700,4.677 M 149.300,122.456 l -2.700,4.677">
<desc>I5</desc>
</path>
<path stroke="peru" stroke-width="2" stroke-linecap="round"
      fill="none" d="M 16.400,129.904 l 5.400,0.000 M 21.800,129.904 a 5.543,5.543 0 0,1 4.800,2.771 M 26.600,127.133 a 5.543,5.543 0 0,1 -4.800,2.771 M 26.600,132.675 a 5.543,5.543 0 0,1 0.000,-5.543 M 26.600,149.996 a 5.543,5.543 0 0,1 0.000,-5.543 M 28.400,135.793 a 5.543,5.543 0 0,1 0.000,5.543 M 28.400,135.793 l -1.800,-3.118 M 28.400,141.335 l -1.800,3.118 M 29.300,122.456 l -2.700,4.677 M 29.300,154.672 l -2.700,-4.677">
<desc>L5</desc>
</path>
<path stroke="blueviolet" stroke-width="2" stroke-linecap="round"
      fill="none" d="M 76.400,147.224 l 5.400,0.000 M 86.600,132.675 a 5.543,5.543 0 0,1 0.000,-5.543 M 86.600,144.453 a 5.543,5.543 0 0,1 -4.800,2.771 M 88.400,135.793 a 5.543,5.543 0 0,1 0.000,5.543 M 88.400,135.793 l -1.800,-3.118 M 88.400,141.335 l -1.800,3.118 M 89.300,122.456 l -2.700,4.677">
<desc>P4</desc>
</path>
<path stroke="green" stroke-width="2" stroke-linecap="round"
      fill="none" d="M 131.600,175.976 a 5.543,5.543 0 0,1 0.000,-5.543 M 133.400,161.774 a 5.543,5.543 0 0,1 0.000,5.543 M 133.400,161.774 l -2.700,-4.677 M 133.400,167.316 l -1.800,3.118 M 133.400,179.094 l -1.800,-3.118 M 138.200,181.865 a 5.543,5.543 0 0,1 -4.800,-2.771 M 138.200,181.865 l 3.600,0.000 M 146.600,179.094 a 5.543,5.543 0 0,1 -4.800,2.771 M 149.300,174.418 l -2.700,4.677">
<desc>P5</desc>
</path>
<path stroke="navy" stroke-width="2" stroke-linecap="round"
      fill="none" d="M 131.600,141.335 a 5.543,5.543 0 0,1 0.000,-5.543 M 133.400,132.675 a 5.543,5.543 0 0,1 4.800,-2.771 M 133.400,132.675 l -1.800,3.118 M 133.400,144.453 a 5.543,5.543 0 0,1 0.000,5.543 M 133.400,144.453 l -1.800,-3.118 M 133.400,149.996 a 5.543,5.543 0 0,1 4.800,-2.771 M 133.400,149.996 l -2.700,4.677 M 138.200,129.904 l 5.400,0.000 M 138.200,147.224 a 5.543,5.543 0 0,1 -4.800,-2.771 M 138.200,147.224 l 5.400,0.000">
<desc>R5</desc>
</path>
<path stroke="turquoise" stroke-width="2" stroke-linecap="round"
      fill="none" d="M 193.400,179.094 l -2.700,-4.677 M 198.200,181.865 a 5.543,5.543 0 0,1 -4.800,-2.771 M 198.200,181.865 l 3.600,0.000 M 206.600,179.094 a 5.543,5.543 0 0,1 -4.800,2.771 M 208.400,175.976 a 5.543,5.543 0 0,1 4.800,-2.771 M 208.400,175.976 l -1.800,3.118 M 213.200,173.205 l 3.600,0.000 M 216.800,173.205 a 5.543,5.543 0 0,1 4.800,2.771 M 224.300,180.653 l -2.700,-4.677">
<desc>S5</desc>
</path>
<path stroke="brown" stroke-width="2" stroke-linecap="round"
      fill="none" d="M 11.600,141.335 a 5.543,5.543 0 0,1 0.000,-5.543 M 11.600,158.656 a 5.543,5.543 0 0,1 0.000,-5.543 M 13.400,144.453 a 5.543,5.543 0 0,1 0.000,5.543 M 13.400,144.453 l -1.800,-3.118 M 13.400,149.996 a 5.543,5.543 0 0,1 4.800,-2.771 M 13.400,149.996 l -1.800,3.118 M 14.300,131.116 l -2.700,4.677 M 14.300,163.332 l -2.700,-4.677 M 18.200,147.224 a 5.543,5.543 0 0,1 -4.800,-2.771 M 18.200,147.224 l 5.400,0.000">
<desc>T5</desc>
</path>
<path stroke="maroon" stroke-width="2" stroke-linecap="round"
      fill="none" d="M 104.300,180.653 l -2.700,-4.677 M 86.600,167.316 a 5.543,5.543 0 0,1 0.000,-5.543 M 88.400,153.113 a 5.543,5.543 0 0,1 0.000,5.543 M 88.400,153.113 l -2.700,-4.677 M 88.400,158.656 l -1.800,3.118 M 88.400,170.434 l -1.800,-3.118 M 93.200,173.205 a 5.543,5.543 0 0,1 -4.800,-2.771 M 93.200,173.205 l 3.600,0.000 M 96.800,173.205 a 5.543,5.543 0 0,1 4.800,2.771">
<desc>U5</desc>
</path>
<path stroke="teal" stroke-width="2" stroke-linecap="round"
      fill="none" d="M 136.400,164.545 l 5.400,0.000 M 141.800,164.545 a 5.543,5.543 0 0,1 4.800,2.771 M 148.400,170.434 l -1.800,-3.118 M 153.200,173.205 a 5.543,5.543 0 0,1 -4.800,-2.771 M 153.200,173.205 l 3.600,0.000 M 156.800,173.205 a 5.543,5.543 0 0,1 4.800,2.771 M 164.300,180.653 l -2.700,-4.677">
<desc>W4</desc>
</path>
<path stroke="plum" stroke-width="2" stroke-linecap="round"
      fill="none" d="M 71.600,141.335 a 5.543,5.543 0 0,1 0.000,-5.543 M 71.600,158.656 a 5.543,5.543 0 0,1 0.000,-5.543 M 73.400,132.675 a 5.543,5.543 0 0,1 4.800,-2.771 M 73.400,132.675 l -1.800,3.118 M 73.400,144.453 a 5.543,5.543 0 0,1 0.000,5.543 M 73.400,144.453 l -1.800,-3.118 M 73.400,149.996 l -1.800,3.118 M 74.300,163.332 l -2.700,-4.677 M 78.200,129.904 l 5.400,0.000">
<desc>W5</desc>
</path>
<path stroke="indigo" stroke-width="2" stroke-linecap="round"
      fill="none" d="M 193.400,161.774 a 5.543,5.543 0 0,1 0.000,5.543 M 193.400,161.774 l -2.700,-4.677 M 193.400,167.316 a 5.543,5.543 0 0,1 4.800,-2.771 M 193.400,167.316 l -2.700,4.677 M 198.200,164.545 a 5.543,5.543 0 0,1 -4.800,-2.771 M 198.200,164.545 l 3.600,0.000 M 201.800,164.545 a 5.543,5.543 0 0,1 4.800,2.771 M 206.600,161.774 a 5.543,5.543 0 0,1 -4.800,2.771 M 206.600,167.316 a 5.543,5.543 0 0,1 0.000,-5.543 M 209.300,157.097 l -2.700,4.677 M 209.300,171.993 l -2.700,-4.677">
<desc>X5</desc>
</path>
<path stroke="darkgreen" stroke-width="2" stroke-linecap="round"
      fill="none" d="M 193.400,144.453 a 5.543,5.543 0 0,1 0.000,5.543 M 193.400,144.453 l -2.700,-4.677 M 193.400,149.996 a 5.543,5.543 0 0,1 4.800,-2.771 M 193.400,149.996 l -2.700,4.677 M 198.200,147.224 a 5.543,5.543 0 0,1 -4.800,-2.771 M 198.200,147.224 l 3.600,0.000 M 201.800,147.224 a 5.543,5.543 0 0,1 4.800,2.771 M 209.300,154.672 l -2.700,-4.677">
<desc>Y4</desc>
</path>
<path stroke="olive" stroke-width="2" stroke-linecap="round"
      fill="none" d="M 193.400,132.675 a 5.543,5.543 0 0,1 4.800,-2.771 M 193.400,132.675 l -2.700,4.677 M 198.200,129.904 l 3.600,0.000 M 201.800,129.904 a 5.543,5.543 0 0,1 4.800,2.771 M 206.600,127.133 a 5.543,5.543 0 0,1 -4.800,2.771 M 206.600,132.675 a 5.543,5.543 0 0,1 0.000,-5.543 M 208.400,135.793 a 5.543,5.543 0 0,1 0.000,5.543 M 208.400,135.793 l -1.800,-3.118 M 208.400,141.335 l -2.700,4.677 M 209.300,122.456 l -2.700,4.677">
<desc>Y5</desc>
</path>
</g>
</svg>
