<?xml version="1.0" standalone="no"?>
<!-- Created by Polyform Puzzler (http://puzzler.sourceforge.net/) -->
<svg width="330.000" height="330.000"
     viewBox="0 0 330.000 330.000"
     xmlns="http://www.w3.org/2000/svg"
     xmlns:xlink="http://www.w3.org/1999/xlink">
<g transform="translate(165.000,165.000) rotate(30)">
<path stroke="cyan" stroke-width="2" stroke-linecap="round"
      fill="none" d="M 28.400,80.714 a 5.543,5.543 0 0,1 4.800,-2.771 M 28.400,80.714 l -2.700,4.677 M 33.200,77.942 l 3.600,0.000 M 36.800,77.942 a 5.543,5.543 0 0,1 4.800,2.771 M 44.300,85.390 l -2.700,-4.677">
<desc>C3</desc>
</path>
<path stroke="darkorange" stroke-width="2" stroke-linecap="round"
      fill="none" d="M 43.400,72.053 a 5.543,5.543 0 0,1 4.800,-2.771 M 43.400,72.053 l -2.700,4.677 M 48.200,69.282 l 3.600,0.000 M 51.800,69.282 a 5.543,5.543 0 0,1 4.800,2.771 M 58.400,75.171 a 5.543,5.543 0 0,1 0.000,5.543 M 58.400,75.171 l -1.800,-3.118 M 58.400,80.714 l -2.700,4.677">
<desc>C4</desc>
</path>
<path stroke="blue" stroke-width="2" stroke-linecap="round"
      fill="none" d="M 11.600,98.034 a 5.543,5.543 0 0,1 0.000,-5.543 M 13.400,101.152 l -1.800,-3.118 M 13.400,89.374 a 5.543,5.543 0 0,1 4.800,-2.771 M 13.400,89.374 l -1.800,3.118 M 18.200,103.923 a 5.543,5.543 0 0,1 -4.800,-2.771 M 18.200,103.923 l 5.400,0.000 M 18.200,86.603 l 3.600,0.000 M 21.800,86.603 a 5.543,5.543 0 0,1 4.800,2.771 M 29.300,94.050 l -2.700,-4.677">
<desc>C5</desc>
</path>
<path stroke="red" stroke-width="2" stroke-linecap="round"
      fill="none" d="M 61.400,77.942 l 5.400,0.000 M 71.600,63.393 a 5.543,5.543 0 0,1 0.000,-5.543 M 71.600,75.171 a 5.543,5.543 0 0,1 -4.800,2.771 M 73.400,66.511 a 5.543,5.543 0 0,1 0.000,5.543 M 73.400,66.511 l -1.800,-3.118 M 73.400,72.053 a 5.543,5.543 0 0,1 4.800,-2.771 M 73.400,72.053 l -1.800,3.118 M 74.300,53.174 l -2.700,4.677 M 78.200,69.282 a 5.543,5.543 0 0,1 -4.800,-2.771 M 78.200,69.282 l 5.400,0.000">
<desc>H5</desc>
</path>
<path stroke="steelblue" stroke-width="2" stroke-linecap="round"
      fill="none" d="M 29.300,128.691 l -3.600,-6.235">
<desc>I1</desc>
</path>
<path stroke="lightcoral" stroke-width="2" stroke-linecap="round"
      fill="none" d="M 31.400,129.904 l 5.400,0.000 M 41.600,127.133 a 5.543,5.543 0 0,1 -4.800,2.771 M 43.400,124.015 a 5.543,5.543 0 0,1 4.800,-2.771 M 43.400,124.015 l -1.800,3.118 M 48.200,121.244 l 3.600,0.000 M 56.600,118.472 a 5.543,5.543 0 0,1 -4.800,2.771 M 58.400,115.355 a 5.543,5.543 0 0,1 4.800,-2.771 M 58.400,115.355 l -1.800,3.118 M 63.200,112.583 l 5.400,0.000">
<desc>I5</desc>
</path>
<path stroke="khaki" stroke-width="2" stroke-linecap="round"
      fill="none" d="M 58.400,63.393 a 5.543,5.543 0 0,1 4.800,-2.771 M 58.400,63.393 l -2.700,4.677 M 63.200,60.622 l 5.400,0.000">
<desc>L2</desc>
</path>
<path stroke="peru" stroke-width="2" stroke-linecap="round"
      fill="none" d="M 73.400,101.152 a 5.543,5.543 0 0,1 0.000,5.543 M 73.400,101.152 l -2.700,-4.677 M 73.400,106.694 a 5.543,5.543 0 0,1 4.800,-2.771 M 73.400,106.694 l -2.700,4.677 M 78.200,103.923 a 5.543,5.543 0 0,1 -4.800,-2.771 M 78.200,103.923 l 3.600,0.000 M 86.600,101.152 a 5.543,5.543 0 0,1 -4.800,2.771 M 88.400,98.034 a 5.543,5.543 0 0,1 4.800,-2.771 M 88.400,98.034 l -1.800,3.118 M 93.200,95.263 l 5.400,0.000">
<desc>L5</desc>
</path>
<path stroke="blueviolet" stroke-width="2" stroke-linecap="round"
      fill="none" d="M 118.400,46.073 a 5.543,5.543 0 0,1 4.800,-2.771 M 118.400,46.073 l -2.700,4.677 M 123.200,43.301 l 3.600,0.000 M 131.600,40.530 a 5.543,5.543 0 0,1 -4.800,2.771 M 133.400,31.870 a 5.543,5.543 0 0,1 0.000,5.543 M 133.400,31.870 l -2.700,-4.677 M 133.400,37.412 l -1.800,3.118">
<desc>P4</desc>
</path>
<path stroke="green" stroke-width="2" stroke-linecap="round"
      fill="none" d="M 133.400,72.053 a 5.543,5.543 0 0,1 4.800,-2.771 M 133.400,72.053 l -2.700,4.677 M 136.400,51.962 l 5.400,0.000 M 138.200,69.282 l 3.600,0.000 M 141.800,51.962 a 5.543,5.543 0 0,1 4.800,2.771 M 146.600,66.511 a 5.543,5.543 0 0,1 -4.800,2.771 M 148.400,57.850 a 5.543,5.543 0 0,1 0.000,5.543 M 148.400,57.850 l -1.800,-3.118 M 148.400,63.393 l -1.800,3.118">
<desc>P5</desc>
</path>
<path stroke="navy" stroke-width="2" stroke-linecap="round"
      fill="none" d="M 26.600,106.694 a 5.543,5.543 0 0,1 0.000,-5.543 M 28.400,109.812 a 5.543,5.543 0 0,1 0.000,5.543 M 28.400,109.812 l -1.800,-3.118 M 28.400,115.355 a 5.543,5.543 0 0,1 4.800,-2.771 M 28.400,115.355 l -2.700,4.677 M 28.400,98.034 a 5.543,5.543 0 0,1 4.800,-2.771 M 28.400,98.034 l -1.800,3.118 M 33.200,112.583 a 5.543,5.543 0 0,1 -4.800,-2.771 M 33.200,112.583 l 5.400,0.000 M 33.200,95.263 l 5.400,0.000">
<desc>R5</desc>
</path>
<path stroke="magenta" stroke-width="2" stroke-linecap="round"
      fill="none" d="M 131.600,63.393 a 5.543,5.543 0 0,1 0.000,-5.543 M 133.400,49.190 a 5.543,5.543 0 0,1 0.000,5.543 M 133.400,49.190 l -2.700,-4.677 M 133.400,54.733 l -1.800,3.118 M 134.300,68.070 l -2.700,-4.677">
<desc>S3</desc>
</path>
<path stroke="turquoise" stroke-width="2" stroke-linecap="round"
      fill="none" d="M 58.400,92.492 l -2.700,-4.677 M 63.200,95.263 a 5.543,5.543 0 0,1 -4.800,-2.771 M 63.200,95.263 l 3.600,0.000 M 71.600,92.492 a 5.543,5.543 0 0,1 -4.800,2.771 M 73.400,89.374 a 5.543,5.543 0 0,1 4.800,-2.771 M 73.400,89.374 l -1.800,3.118 M 78.200,86.603 l 3.600,0.000 M 81.800,86.603 a 5.543,5.543 0 0,1 4.800,2.771 M 89.300,94.050 l -2.700,-4.677">
<desc>S5</desc>
</path>
<path stroke="brown" stroke-width="2" stroke-linecap="round"
      fill="none" d="M 103.400,37.412 a 5.543,5.543 0 0,1 4.800,-2.771 M 103.400,37.412 l -2.700,4.677 M 108.200,34.641 l 3.600,0.000 M 111.800,34.641 a 5.543,5.543 0 0,1 4.800,2.771 M 116.600,31.870 a 5.543,5.543 0 0,1 -4.800,2.771 M 116.600,37.412 a 5.543,5.543 0 0,1 0.000,-5.543 M 118.400,28.752 a 5.543,5.543 0 0,1 4.800,-2.771 M 118.400,28.752 l -1.800,3.118 M 119.300,42.089 l -2.700,-4.677 M 123.200,25.981 l 5.400,0.000">
<desc>T5</desc>
</path>
<path stroke="maroon" stroke-width="2" stroke-linecap="round"
      fill="none" d="M 101.600,63.393 a 5.543,5.543 0 0,1 0.000,-5.543 M 101.600,75.171 a 5.543,5.543 0 0,1 -4.800,2.771 M 103.400,66.511 a 5.543,5.543 0 0,1 0.000,5.543 M 103.400,66.511 l -1.800,-3.118 M 103.400,72.053 l -1.800,3.118 M 104.300,53.174 l -2.700,4.677 M 88.400,80.714 a 5.543,5.543 0 0,1 4.800,-2.771 M 88.400,80.714 l -2.700,4.677 M 93.200,77.942 l 3.600,0.000">
<desc>U5</desc>
</path>
<path stroke="teal" stroke-width="2" stroke-linecap="round"
      fill="none" d="M 103.400,49.190 l -1.800,-3.118 M 108.200,51.962 a 5.543,5.543 0 0,1 -4.800,-2.771 M 108.200,51.962 l 3.600,0.000 M 111.800,51.962 a 5.543,5.543 0 0,1 4.800,2.771 M 119.300,59.409 l -2.700,-4.677 M 91.400,43.301 l 5.400,0.000 M 96.800,43.301 a 5.543,5.543 0 0,1 4.800,2.771">
<desc>W4</desc>
</path>
<path stroke="plum" stroke-width="2" stroke-linecap="round"
      fill="none" d="M 41.600,115.355 a 5.543,5.543 0 0,1 0.000,-5.543 M 41.600,98.034 a 5.543,5.543 0 0,1 0.000,-5.543 M 43.400,101.152 a 5.543,5.543 0 0,1 0.000,5.543 M 43.400,101.152 l -1.800,-3.118 M 43.400,106.694 l -1.800,3.118 M 43.400,89.374 a 5.543,5.543 0 0,1 4.800,-2.771 M 43.400,89.374 l -1.800,3.118 M 44.300,120.031 l -2.700,-4.677 M 48.200,86.603 l 5.400,0.000">
<desc>W5</desc>
</path>
<path stroke="indigo" stroke-width="2" stroke-linecap="round"
      fill="none" d="M 76.400,51.962 l 5.400,0.000 M 81.800,51.962 a 5.543,5.543 0 0,1 4.800,2.771 M 86.600,49.190 a 5.543,5.543 0 0,1 -4.800,2.771 M 86.600,54.733 a 5.543,5.543 0 0,1 0.000,-5.543 M 88.400,57.850 a 5.543,5.543 0 0,1 0.000,5.543 M 88.400,57.850 l -1.800,-3.118 M 88.400,63.393 a 5.543,5.543 0 0,1 4.800,-2.771 M 88.400,63.393 l -2.700,4.677 M 89.300,44.514 l -2.700,4.677 M 93.200,60.622 a 5.543,5.543 0 0,1 -4.800,-2.771 M 93.200,60.622 l 5.400,0.000">
<desc>X5</desc>
</path>
<path stroke="lime" stroke-width="2" stroke-linecap="round"
      fill="none" d="M 46.400,103.923 l 5.400,0.000 M 51.800,103.923 a 5.543,5.543 0 0,1 4.800,2.771 M 56.600,101.152 a 5.543,5.543 0 0,1 -4.800,2.771 M 56.600,106.694 a 5.543,5.543 0 0,1 0.000,-5.543 M 59.300,111.371 l -2.700,-4.677 M 59.300,96.475 l -2.700,4.677">
<desc>Y3</desc>
</path>
<path stroke="darkgreen" stroke-width="2" stroke-linecap="round"
      fill="none" d="M 103.400,83.831 a 5.543,5.543 0 0,1 0.000,5.543 M 103.400,83.831 l -2.700,-4.677 M 103.400,89.374 a 5.543,5.543 0 0,1 4.800,-2.771 M 103.400,89.374 l -2.700,4.677 M 108.200,86.603 a 5.543,5.543 0 0,1 -4.800,-2.771 M 108.200,86.603 l 3.600,0.000 M 116.600,83.831 a 5.543,5.543 0 0,1 -4.800,2.771 M 119.300,79.155 l -2.700,4.677">
<desc>Y4</desc>
</path>
<path stroke="olive" stroke-width="2" stroke-linecap="round"
      fill="none" d="M 106.400,69.282 l 5.400,0.000 M 111.800,69.282 a 5.543,5.543 0 0,1 4.800,2.771 M 116.600,66.511 a 5.543,5.543 0 0,1 -4.800,2.771 M 116.600,72.053 a 5.543,5.543 0 0,1 0.000,-5.543 M 118.400,63.393 a 5.543,5.543 0 0,1 4.800,-2.771 M 118.400,63.393 l -1.800,3.118 M 118.400,75.171 l -1.800,-3.118 M 123.200,60.622 l 5.400,0.000 M 123.200,77.942 a 5.543,5.543 0 0,1 -4.800,-2.771 M 123.200,77.942 l 5.400,0.000">
<desc>Y5</desc>
</path>
</g>
</svg>
