<?xml version="1.0" standalone="no"?>
<!-- Created by Polyform Puzzler (http://puzzler.sourceforge.net/) -->
<svg width="311.769" height="311.769"
     viewBox="0 0 311.769 311.769"
     xmlns="http://www.w3.org/2000/svg"
     xmlns:xlink="http://www.w3.org/1999/xlink">
<g transform="translate(155.885,77.942) rotate(60)">
<path stroke="darkorange" stroke-width="2" stroke-linecap="round"
      fill="none" d="M 76.400,103.923 l 5.400,0.000 M 76.400,86.603 l 5.400,0.000 M 81.800,86.603 a 5.543,5.543 0 0,1 4.800,2.771 M 86.600,101.152 a 5.543,5.543 0 0,1 -4.800,2.771 M 88.400,92.492 a 5.543,5.543 0 0,1 0.000,5.543 M 88.400,92.492 l -1.800,-3.118 M 88.400,98.034 l -1.800,3.118">
<desc>C4</desc>
</path>
<path stroke="blue" stroke-width="2" stroke-linecap="round"
      fill="none" d="M 13.400,54.733 a 5.543,5.543 0 0,1 4.800,-2.771 M 13.400,54.733 l -2.700,4.677 M 16.400,69.282 l 5.400,0.000 M 18.200,51.962 l 3.600,0.000 M 21.800,51.962 a 5.543,5.543 0 0,1 4.800,2.771 M 26.600,66.511 a 5.543,5.543 0 0,1 -4.800,2.771 M 28.400,57.850 a 5.543,5.543 0 0,1 0.000,5.543 M 28.400,57.850 l -1.800,-3.118 M 28.400,63.393 l -1.800,3.118">
<desc>C5</desc>
</path>
<path stroke="red" stroke-width="2" stroke-linecap="round"
      fill="none" d="M 11.600,98.034 a 5.543,5.543 0 0,1 0.000,-5.543 M 13.400,101.152 a 5.543,5.543 0 0,1 0.000,5.543 M 13.400,101.152 l -1.800,-3.118 M 13.400,106.694 a 5.543,5.543 0 0,1 4.800,-2.771 M 13.400,106.694 l -2.700,4.677 M 14.300,87.815 l -2.700,4.677 M 18.200,103.923 a 5.543,5.543 0 0,1 -4.800,-2.771 M 18.200,103.923 l 3.600,0.000 M 21.800,103.923 a 5.543,5.543 0 0,1 4.800,2.771 M 29.300,111.371 l -2.700,-4.677">
<desc>H5</desc>
</path>
<path stroke="lightcoral" stroke-width="2" stroke-linecap="round"
      fill="none" d="M 43.400,83.831 l -2.700,-4.677 M 48.200,86.603 a 5.543,5.543 0 0,1 -4.800,-2.771 M 48.200,86.603 l 3.600,0.000 M 51.800,86.603 a 5.543,5.543 0 0,1 4.800,2.771 M 58.400,92.492 l -1.800,-3.118 M 63.200,95.263 a 5.543,5.543 0 0,1 -4.800,-2.771 M 63.200,95.263 l 3.600,0.000 M 66.800,95.263 a 5.543,5.543 0 0,1 4.800,2.771 M 74.300,102.711 l -2.700,-4.677">
<desc>I5</desc>
</path>
<path stroke="peru" stroke-width="2" stroke-linecap="round"
      fill="none" d="M 26.600,89.374 a 5.543,5.543 0 0,1 0.000,-5.543 M 28.400,75.171 a 5.543,5.543 0 0,1 0.000,5.543 M 28.400,75.171 l -2.700,-4.677 M 28.400,80.714 a 5.543,5.543 0 0,1 4.800,-2.771 M 28.400,80.714 l -1.800,3.118 M 28.400,92.492 a 5.543,5.543 0 0,1 0.000,5.543 M 28.400,92.492 l -1.800,-3.118 M 28.400,98.034 l -2.700,4.677 M 33.200,77.942 a 5.543,5.543 0 0,1 -4.800,-2.771 M 33.200,77.942 l 5.400,0.000">
<desc>L5</desc>
</path>
<path stroke="blueviolet" stroke-width="2" stroke-linecap="round"
      fill="none" d="M 11.600,80.714 a 5.543,5.543 0 0,1 0.000,-5.543 M 13.400,66.511 a 5.543,5.543 0 0,1 0.000,5.543 M 13.400,66.511 l -2.700,-4.677 M 13.400,72.053 l -1.800,3.118 M 13.400,83.831 l -1.800,-3.118 M 18.200,86.603 a 5.543,5.543 0 0,1 -4.800,-2.771 M 18.200,86.603 l 5.400,0.000">
<desc>P4</desc>
</path>
<path stroke="green" stroke-width="2" stroke-linecap="round"
      fill="none" d="M 73.400,37.412 a 5.543,5.543 0 0,1 4.800,-2.771 M 73.400,37.412 l -2.700,4.677 M 76.400,17.321 l 5.400,0.000 M 78.200,34.641 l 3.600,0.000 M 81.800,17.321 a 5.543,5.543 0 0,1 4.800,2.771 M 86.600,31.870 a 5.543,5.543 0 0,1 -4.800,2.771 M 88.400,23.209 a 5.543,5.543 0 0,1 0.000,5.543 M 88.400,23.209 l -1.800,-3.118 M 88.400,28.752 l -1.800,3.118">
<desc>P5</desc>
</path>
<path stroke="navy" stroke-width="2" stroke-linecap="round"
      fill="none" d="M 56.600,37.412 a 5.543,5.543 0 0,1 0.000,-5.543 M 58.400,28.752 a 5.543,5.543 0 0,1 4.800,-2.771 M 58.400,28.752 l -1.800,3.118 M 59.300,42.089 l -2.700,-4.677 M 63.200,25.981 l 3.600,0.000 M 66.800,25.981 a 5.543,5.543 0 0,1 4.800,2.771 M 71.600,23.209 a 5.543,5.543 0 0,1 -4.800,2.771 M 71.600,28.752 a 5.543,5.543 0 0,1 0.000,-5.543 M 74.300,18.533 l -2.700,4.677 M 74.300,33.429 l -2.700,-4.677">
<desc>R5</desc>
</path>
<path stroke="turquoise" stroke-width="2" stroke-linecap="round"
      fill="none" d="M 71.600,63.393 a 5.543,5.543 0 0,1 0.000,-5.543 M 73.400,66.511 l -1.800,-3.118 M 74.300,53.174 l -2.700,4.677 M 78.200,69.282 a 5.543,5.543 0 0,1 -4.800,-2.771 M 78.200,69.282 l 3.600,0.000 M 81.800,69.282 a 5.543,5.543 0 0,1 4.800,2.771 M 88.400,75.171 a 5.543,5.543 0 0,1 0.000,5.543 M 88.400,75.171 l -1.800,-3.118 M 88.400,80.714 l -2.700,4.677">
<desc>S5</desc>
</path>
<path stroke="brown" stroke-width="2" stroke-linecap="round"
      fill="none" d="M 31.400,60.622 l 5.400,0.000 M 36.800,60.622 a 5.543,5.543 0 0,1 4.800,2.771 M 43.400,66.511 a 5.543,5.543 0 0,1 0.000,5.543 M 43.400,66.511 l -1.800,-3.118 M 43.400,72.053 a 5.543,5.543 0 0,1 4.800,-2.771 M 43.400,72.053 l -2.700,4.677 M 48.200,69.282 a 5.543,5.543 0 0,1 -4.800,-2.771 M 48.200,69.282 l 3.600,0.000 M 51.800,69.282 a 5.543,5.543 0 0,1 4.800,2.771 M 59.300,76.730 l -2.700,-4.677">
<desc>T5</desc>
</path>
<path stroke="maroon" stroke-width="2" stroke-linecap="round"
      fill="none" d="M 46.400,51.962 l 5.400,0.000 M 56.600,49.190 a 5.543,5.543 0 0,1 -4.800,2.771 M 58.400,46.073 a 5.543,5.543 0 0,1 4.800,-2.771 M 58.400,46.073 l -1.800,3.118 M 63.200,43.301 l 3.600,0.000 M 66.800,43.301 a 5.543,5.543 0 0,1 4.800,2.771 M 73.400,49.190 l -1.800,-3.118 M 78.200,51.962 a 5.543,5.543 0 0,1 -4.800,-2.771 M 78.200,51.962 l 5.400,0.000">
<desc>U5</desc>
</path>
<path stroke="teal" stroke-width="2" stroke-linecap="round"
      fill="none" d="M 86.600,54.733 a 5.543,5.543 0 0,1 0.000,-5.543 M 88.400,40.530 a 5.543,5.543 0 0,1 0.000,5.543 M 88.400,40.530 l -2.700,-4.677 M 88.400,46.073 l -1.800,3.118 M 88.400,57.850 a 5.543,5.543 0 0,1 0.000,5.543 M 88.400,57.850 l -1.800,-3.118 M 88.400,63.393 l -2.700,4.677">
<desc>W4</desc>
</path>
<path stroke="plum" stroke-width="2" stroke-linecap="round"
      fill="none" d="M 13.400,135.793 l -2.700,-4.677 M 18.200,138.564 a 5.543,5.543 0 0,1 -4.800,-2.771 M 18.200,138.564 l 3.600,0.000 M 26.600,135.793 a 5.543,5.543 0 0,1 -4.800,2.771 M 28.400,132.675 a 5.543,5.543 0 0,1 4.800,-2.771 M 28.400,132.675 l -1.800,3.118 M 33.200,129.904 l 3.600,0.000 M 41.600,127.133 a 5.543,5.543 0 0,1 -4.800,2.771 M 44.300,122.456 l -2.700,4.677">
<desc>W5</desc>
</path>
<path stroke="indigo" stroke-width="2" stroke-linecap="round"
      fill="none" d="M 13.400,118.472 a 5.543,5.543 0 0,1 0.000,5.543 M 13.400,118.472 l -2.700,-4.677 M 13.400,124.015 a 5.543,5.543 0 0,1 4.800,-2.771 M 13.400,124.015 l -2.700,4.677 M 18.200,121.244 a 5.543,5.543 0 0,1 -4.800,-2.771 M 18.200,121.244 l 3.600,0.000 M 21.800,121.244 a 5.543,5.543 0 0,1 4.800,2.771 M 26.600,118.472 a 5.543,5.543 0 0,1 -4.800,2.771 M 26.600,124.015 a 5.543,5.543 0 0,1 0.000,-5.543 M 29.300,113.796 l -2.700,4.677 M 29.300,128.691 l -2.700,-4.677">
<desc>X5</desc>
</path>
<path stroke="darkgreen" stroke-width="2" stroke-linecap="round"
      fill="none" d="M 31.400,112.583 l 5.400,0.000 M 36.800,112.583 a 5.543,5.543 0 0,1 4.800,2.771 M 41.600,109.812 a 5.543,5.543 0 0,1 -4.800,2.771 M 41.600,115.355 a 5.543,5.543 0 0,1 0.000,-5.543 M 43.400,106.694 a 5.543,5.543 0 0,1 4.800,-2.771 M 43.400,106.694 l -1.800,3.118 M 44.300,120.031 l -2.700,-4.677 M 48.200,103.923 l 5.400,0.000">
<desc>Y4</desc>
</path>
<path stroke="olive" stroke-width="2" stroke-linecap="round"
      fill="none" d="M 58.400,80.714 a 5.543,5.543 0 0,1 4.800,-2.771 M 58.400,80.714 l -2.700,4.677 M 63.200,77.942 l 3.600,0.000 M 66.800,77.942 a 5.543,5.543 0 0,1 4.800,2.771 M 71.600,75.171 a 5.543,5.543 0 0,1 -4.800,2.771 M 71.600,80.714 a 5.543,5.543 0 0,1 0.000,-5.543 M 73.400,83.831 a 5.543,5.543 0 0,1 0.000,5.543 M 73.400,83.831 l -1.800,-3.118 M 73.400,89.374 l -2.700,4.677 M 74.300,70.494 l -2.700,4.677">
<desc>Y5</desc>
</path>
</g>
</svg>
