<?xml version="1.0" standalone="no"?>
<!-- Created by Polyform Puzzler (http://puzzler.sourceforge.net/) -->
<svg width="90.000" height="112.583"
     viewBox="0 0 90.000 112.583"
     xmlns="http://www.w3.org/2000/svg"
     xmlns:xlink="http://www.w3.org/1999/xlink">
<g>
<path stroke="cyan" stroke-width="2" stroke-linecap="round"
      fill="none" d="M 61.400,51.962 l 5.400,0.000 M 66.800,51.962 a 5.543,5.543 0 0,1 4.800,2.771 M 73.400,57.850 a 5.543,5.543 0 0,1 0.000,5.543 M 73.400,57.850 l -1.800,-3.118 M 73.400,63.393 l -2.700,4.677">
<desc>C3</desc>
</path>
<path stroke="darkorange" stroke-width="2" stroke-linecap="round"
      fill="none" d="M 46.400,43.301 l 5.400,0.000 M 46.400,60.622 l 5.400,0.000 M 51.800,43.301 a 5.543,5.543 0 0,1 4.800,2.771 M 56.600,57.850 a 5.543,5.543 0 0,1 -4.800,2.771 M 58.400,49.190 a 5.543,5.543 0 0,1 0.000,5.543 M 58.400,49.190 l -1.800,-3.118 M 58.400,54.733 l -1.800,3.118">
<desc>C4</desc>
</path>
<path stroke="steelblue" stroke-width="2" stroke-linecap="round"
      fill="none" d="M 46.400,77.942 l 7.200,0.000">
<desc>I1</desc>
</path>
<path stroke="khaki" stroke-width="2" stroke-linecap="round"
      fill="none" d="M 11.600,72.053 a 5.543,5.543 0 0,1 0.000,-5.543 M 14.300,61.834 l -2.700,4.677 M 14.300,76.730 l -2.700,-4.677">
<desc>L2</desc>
</path>
<path stroke="blueviolet" stroke-width="2" stroke-linecap="round"
      fill="none" d="M 11.600,54.733 a 5.543,5.543 0 0,1 0.000,-5.543 M 13.400,57.850 l -1.800,-3.118 M 14.300,44.514 l -2.700,4.677 M 18.200,60.622 a 5.543,5.543 0 0,1 -4.800,-2.771 M 18.200,60.622 l 3.600,0.000 M 21.800,60.622 a 5.543,5.543 0 0,1 4.800,2.771 M 29.300,68.070 l -2.700,-4.677">
<desc>P4</desc>
</path>
<path stroke="magenta" stroke-width="2" stroke-linecap="round"
      fill="none" d="M 16.400,77.942 l 5.400,0.000 M 26.600,75.171 a 5.543,5.543 0 0,1 -4.800,2.771 M 28.400,72.053 a 5.543,5.543 0 0,1 4.800,-2.771 M 28.400,72.053 l -1.800,3.118 M 33.200,69.282 l 5.400,0.000">
<desc>S3</desc>
</path>
<path stroke="teal" stroke-width="2" stroke-linecap="round"
      fill="none" d="M 41.600,54.733 a 5.543,5.543 0 0,1 0.000,-5.543 M 41.600,72.053 a 5.543,5.543 0 0,1 0.000,-5.543 M 43.400,57.850 a 5.543,5.543 0 0,1 0.000,5.543 M 43.400,57.850 l -1.800,-3.118 M 43.400,63.393 l -1.800,3.118 M 44.300,44.514 l -2.700,4.677 M 44.300,76.730 l -2.700,-4.677">
<desc>W4</desc>
</path>
<path stroke="lime" stroke-width="2" stroke-linecap="round"
      fill="none" d="M 58.400,66.511 a 5.543,5.543 0 0,1 0.000,5.543 M 58.400,66.511 l -2.700,-4.677 M 58.400,72.053 a 5.543,5.543 0 0,1 4.800,-2.771 M 58.400,72.053 l -2.700,4.677 M 63.200,69.282 a 5.543,5.543 0 0,1 -4.800,-2.771 M 63.200,69.282 l 5.400,0.000">
<desc>Y3</desc>
</path>
<path stroke="darkgreen" stroke-width="2" stroke-linecap="round"
      fill="none" d="M 16.400,43.301 l 5.400,0.000 M 21.800,43.301 a 5.543,5.543 0 0,1 4.800,2.771 M 28.400,49.190 a 5.543,5.543 0 0,1 0.000,5.543 M 28.400,49.190 l -1.800,-3.118 M 28.400,54.733 a 5.543,5.543 0 0,1 4.800,-2.771 M 28.400,54.733 l -2.700,4.677 M 33.200,51.962 a 5.543,5.543 0 0,1 -4.800,-2.771 M 33.200,51.962 l 5.400,0.000">
<desc>Y4</desc>
</path>
</g>
</svg>
