<?xml version="1.0" standalone="no"?>
<!-- Created by Polyform Puzzler (http://puzzler.sourceforge.net/) -->
<svg width="75.000" height="103.923"
     viewBox="0 0 75.000 103.923"
     xmlns="http://www.w3.org/2000/svg"
     xmlns:xlink="http://www.w3.org/1999/xlink">
<g>
<path stroke="cyan" stroke-width="2" stroke-linecap="round"
      fill="none" d="M 46.400,69.282 l 5.400,0.000 M 56.600,66.511 a 5.543,5.543 0 0,1 -4.800,2.771 M 58.400,57.850 a 5.543,5.543 0 0,1 0.000,5.543 M 58.400,57.850 l -2.700,-4.677 M 58.400,63.393 l -1.800,3.118">
<desc>C3</desc>
</path>
<path stroke="darkorange" stroke-width="2" stroke-linecap="round"
      fill="none" d="M 43.400,37.412 a 5.543,5.543 0 0,1 4.800,-2.771 M 43.400,37.412 l -2.700,4.677 M 48.200,34.641 l 3.600,0.000 M 51.800,34.641 a 5.543,5.543 0 0,1 4.800,2.771 M 58.400,40.530 a 5.543,5.543 0 0,1 0.000,5.543 M 58.400,40.530 l -1.800,-3.118 M 58.400,46.073 l -2.700,4.677">
<desc>C4</desc>
</path>
<path stroke="steelblue" stroke-width="2" stroke-linecap="round"
      fill="none" d="M 44.300,33.429 l -3.600,-6.235">
<desc>I1</desc>
</path>
<path stroke="khaki" stroke-width="2" stroke-linecap="round"
      fill="none" d="M 28.400,28.752 a 5.543,5.543 0 0,1 4.800,-2.771 M 28.400,28.752 l -2.700,4.677 M 33.200,25.981 l 5.400,0.000">
<desc>L2</desc>
</path>
<path stroke="blueviolet" stroke-width="2" stroke-linecap="round"
      fill="none" d="M 11.600,46.073 a 5.543,5.543 0 0,1 0.000,-5.543 M 13.400,37.412 a 5.543,5.543 0 0,1 4.800,-2.771 M 13.400,37.412 l -1.800,3.118 M 13.400,49.190 a 5.543,5.543 0 0,1 0.000,5.543 M 13.400,49.190 l -1.800,-3.118 M 13.400,54.733 l -2.700,4.677 M 18.200,34.641 l 5.400,0.000">
<desc>P4</desc>
</path>
<path stroke="magenta" stroke-width="2" stroke-linecap="round"
      fill="none" d="M 41.600,63.393 a 5.543,5.543 0 0,1 0.000,-5.543 M 43.400,66.511 a 5.543,5.543 0 0,1 0.000,5.543 M 43.400,66.511 l -1.800,-3.118 M 43.400,72.053 l -2.700,4.677 M 44.300,53.174 l -2.700,4.677">
<desc>S3</desc>
</path>
<path stroke="teal" stroke-width="2" stroke-linecap="round"
      fill="none" d="M 13.400,66.511 l -2.700,-4.677 M 18.200,69.282 a 5.543,5.543 0 0,1 -4.800,-2.771 M 18.200,69.282 l 3.600,0.000 M 21.800,69.282 a 5.543,5.543 0 0,1 4.800,2.771 M 28.400,75.171 l -1.800,-3.118 M 33.200,77.942 a 5.543,5.543 0 0,1 -4.800,-2.771 M 33.200,77.942 l 5.400,0.000">
<desc>W4</desc>
</path>
<path stroke="lime" stroke-width="2" stroke-linecap="round"
      fill="none" d="M 28.400,57.850 a 5.543,5.543 0 0,1 0.000,5.543 M 28.400,57.850 l -2.700,-4.677 M 28.400,63.393 a 5.543,5.543 0 0,1 4.800,-2.771 M 28.400,63.393 l -2.700,4.677 M 33.200,60.622 a 5.543,5.543 0 0,1 -4.800,-2.771 M 33.200,60.622 l 5.400,0.000">
<desc>Y3</desc>
</path>
<path stroke="darkgreen" stroke-width="2" stroke-linecap="round"
      fill="none" d="M 28.400,40.530 a 5.543,5.543 0 0,1 0.000,5.543 M 28.400,40.530 l -2.700,-4.677 M 28.400,46.073 a 5.543,5.543 0 0,1 4.800,-2.771 M 28.400,46.073 l -2.700,4.677 M 33.200,43.301 a 5.543,5.543 0 0,1 -4.800,-2.771 M 33.200,43.301 l 3.600,0.000 M 36.800,43.301 a 5.543,5.543 0 0,1 4.800,2.771 M 44.300,50.749 l -2.700,-4.677">
<desc>Y4</desc>
</path>
</g>
</svg>
