<?xml version="1.0" standalone="no"?>
<!-- Created by Polyform Puzzler (http://puzzler.sourceforge.net/) -->
<svg width="240.000" height="303.109"
     viewBox="0 0 240.000 303.109"
     xmlns="http://www.w3.org/2000/svg"
     xmlns:xlink="http://www.w3.org/1999/xlink">
<g>
<path stroke="darkorange" stroke-width="2" stroke-linecap="round"
      fill="none" d="M 13.400,179.094 l -2.700,-4.677 M 18.200,181.865 a 5.543,5.543 0 0,1 -4.800,-2.771 M 18.200,181.865 l 3.600,0.000 M 26.600,179.094 a 5.543,5.543 0 0,1 -4.800,2.771 M 28.400,170.434 a 5.543,5.543 0 0,1 0.000,5.543 M 28.400,170.434 l -2.700,-4.677 M 28.400,175.976 l -1.800,3.118">
<desc>C4</desc>
</path>
<path stroke="blue" stroke-width="2" stroke-linecap="round"
      fill="none" d="M 71.600,175.976 a 5.543,5.543 0 0,1 0.000,-5.543 M 73.400,167.316 a 5.543,5.543 0 0,1 4.800,-2.771 M 73.400,167.316 l -1.800,3.118 M 73.400,179.094 l -1.800,-3.118 M 78.200,164.545 l 3.600,0.000 M 78.200,181.865 a 5.543,5.543 0 0,1 -4.800,-2.771 M 78.200,181.865 l 5.400,0.000 M 81.800,164.545 a 5.543,5.543 0 0,1 4.800,2.771 M 89.300,171.993 l -2.700,-4.677">
<desc>C5</desc>
</path>
<path stroke="red" stroke-width="2" stroke-linecap="round"
      fill="none" d="M 208.400,153.113 l -2.700,-4.677 M 213.200,155.885 a 5.543,5.543 0 0,1 -4.800,-2.771 M 213.200,155.885 l 3.600,0.000 M 216.800,155.885 a 5.543,5.543 0 0,1 4.800,2.771 M 221.600,153.113 a 5.543,5.543 0 0,1 -4.800,2.771 M 221.600,158.656 a 5.543,5.543 0 0,1 0.000,-5.543 M 223.400,149.996 a 5.543,5.543 0 0,1 4.800,-2.771 M 223.400,149.996 l -1.800,3.118 M 224.300,163.332 l -2.700,-4.677 M 228.200,147.224 l 5.400,0.000">
<desc>H5</desc>
</path>
<path stroke="lightcoral" stroke-width="2" stroke-linecap="round"
      fill="none" d="M 11.600,141.335 a 5.543,5.543 0 0,1 0.000,-5.543 M 11.600,158.656 a 5.543,5.543 0 0,1 0.000,-5.543 M 13.400,144.453 a 5.543,5.543 0 0,1 0.000,5.543 M 13.400,144.453 l -1.800,-3.118 M 13.400,149.996 l -1.800,3.118 M 13.400,161.774 a 5.543,5.543 0 0,1 0.000,5.543 M 13.400,161.774 l -1.800,-3.118 M 13.400,167.316 l -2.700,4.677 M 14.300,131.116 l -2.700,4.677">
<desc>I5</desc>
</path>
<path stroke="peru" stroke-width="2" stroke-linecap="round"
      fill="none" d="M 101.600,153.113 a 5.543,5.543 0 0,1 -4.800,2.771 M 103.400,149.996 a 5.543,5.543 0 0,1 4.800,-2.771 M 103.400,149.996 l -1.800,3.118 M 108.200,147.224 l 5.400,0.000 M 88.400,153.113 a 5.543,5.543 0 0,1 0.000,5.543 M 88.400,153.113 l -2.700,-4.677 M 88.400,158.656 a 5.543,5.543 0 0,1 4.800,-2.771 M 88.400,158.656 l -2.700,4.677 M 93.200,155.885 a 5.543,5.543 0 0,1 -4.800,-2.771 M 93.200,155.885 l 3.600,0.000">
<desc>L5</desc>
</path>
<path stroke="blueviolet" stroke-width="2" stroke-linecap="round"
      fill="none" d="M 101.600,170.434 a 5.543,5.543 0 0,1 -4.800,2.771 M 103.400,161.774 a 5.543,5.543 0 0,1 0.000,5.543 M 103.400,161.774 l -2.700,-4.677 M 103.400,167.316 l -1.800,3.118 M 88.400,175.976 a 5.543,5.543 0 0,1 4.800,-2.771 M 88.400,175.976 l -2.700,4.677 M 93.200,173.205 l 3.600,0.000">
<desc>P4</desc>
</path>
<path stroke="green" stroke-width="2" stroke-linecap="round"
      fill="none" d="M 131.600,175.976 a 5.543,5.543 0 0,1 0.000,-5.543 M 133.400,167.316 a 5.543,5.543 0 0,1 4.800,-2.771 M 133.400,167.316 l -1.800,3.118 M 133.400,179.094 l -1.800,-3.118 M 138.200,164.545 l 3.600,0.000 M 138.200,181.865 a 5.543,5.543 0 0,1 -4.800,-2.771 M 138.200,181.865 l 5.400,0.000 M 146.600,161.774 a 5.543,5.543 0 0,1 -4.800,2.771 M 149.300,157.097 l -2.700,4.677">
<desc>P5</desc>
</path>
<path stroke="navy" stroke-width="2" stroke-linecap="round"
      fill="none" d="M 148.400,170.434 a 5.543,5.543 0 0,1 0.000,5.543 M 148.400,170.434 l -2.700,-4.677 M 148.400,175.976 a 5.543,5.543 0 0,1 4.800,-2.771 M 148.400,175.976 l -2.700,4.677 M 153.200,173.205 a 5.543,5.543 0 0,1 -4.800,-2.771 M 153.200,173.205 l 3.600,0.000 M 161.600,170.434 a 5.543,5.543 0 0,1 -4.800,2.771 M 163.400,161.774 a 5.543,5.543 0 0,1 0.000,5.543 M 163.400,161.774 l -2.700,-4.677 M 163.400,167.316 l -1.800,3.118">
<desc>R5</desc>
</path>
<path stroke="turquoise" stroke-width="2" stroke-linecap="round"
      fill="none" d="M 31.400,173.205 l 5.400,0.000 M 41.600,158.656 a 5.543,5.543 0 0,1 0.000,-5.543 M 41.600,170.434 a 5.543,5.543 0 0,1 -4.800,2.771 M 43.400,149.996 a 5.543,5.543 0 0,1 4.800,-2.771 M 43.400,149.996 l -1.800,3.118 M 43.400,161.774 a 5.543,5.543 0 0,1 0.000,5.543 M 43.400,161.774 l -1.800,-3.118 M 43.400,167.316 l -1.800,3.118 M 48.200,147.224 l 5.400,0.000">
<desc>S5</desc>
</path>
<path stroke="brown" stroke-width="2" stroke-linecap="round"
      fill="none" d="M 71.600,141.335 a 5.543,5.543 0 0,1 0.000,-5.543 M 71.600,158.656 a 5.543,5.543 0 0,1 0.000,-5.543 M 73.400,144.453 a 5.543,5.543 0 0,1 0.000,5.543 M 73.400,144.453 l -1.800,-3.118 M 73.400,149.996 a 5.543,5.543 0 0,1 4.800,-2.771 M 73.400,149.996 l -1.800,3.118 M 74.300,131.116 l -2.700,4.677 M 74.300,163.332 l -2.700,-4.677 M 78.200,147.224 a 5.543,5.543 0 0,1 -4.800,-2.771 M 78.200,147.224 l 5.400,0.000">
<desc>T5</desc>
</path>
<path stroke="maroon" stroke-width="2" stroke-linecap="round"
      fill="none" d="M 136.400,147.224 l 5.400,0.000 M 141.800,147.224 a 5.543,5.543 0 0,1 4.800,2.771 M 148.400,153.113 l -1.800,-3.118 M 153.200,155.885 a 5.543,5.543 0 0,1 -4.800,-2.771 M 153.200,155.885 l 3.600,0.000 M 161.600,153.113 a 5.543,5.543 0 0,1 -4.800,2.771 M 163.400,149.996 a 5.543,5.543 0 0,1 4.800,-2.771 M 163.400,149.996 l -1.800,3.118 M 168.200,147.224 l 5.400,0.000">
<desc>U5</desc>
</path>
<path stroke="teal" stroke-width="2" stroke-linecap="round"
      fill="none" d="M 131.600,141.335 a 5.543,5.543 0 0,1 0.000,-5.543 M 131.600,158.656 a 5.543,5.543 0 0,1 0.000,-5.543 M 133.400,144.453 a 5.543,5.543 0 0,1 0.000,5.543 M 133.400,144.453 l -1.800,-3.118 M 133.400,149.996 l -1.800,3.118 M 134.300,131.116 l -2.700,4.677 M 134.300,163.332 l -2.700,-4.677">
<desc>W4</desc>
</path>
<path stroke="plum" stroke-width="2" stroke-linecap="round"
      fill="none" d="M 193.400,179.094 l -2.700,-4.677 M 198.200,181.865 a 5.543,5.543 0 0,1 -4.800,-2.771 M 198.200,181.865 l 3.600,0.000 M 206.600,179.094 a 5.543,5.543 0 0,1 -4.800,2.771 M 208.400,175.976 a 5.543,5.543 0 0,1 4.800,-2.771 M 208.400,175.976 l -1.800,3.118 M 213.200,173.205 l 3.600,0.000 M 221.600,170.434 a 5.543,5.543 0 0,1 -4.800,2.771 M 224.300,165.757 l -2.700,4.677">
<desc>W5</desc>
</path>
<path stroke="indigo" stroke-width="2" stroke-linecap="round"
      fill="none" d="M 193.400,161.774 a 5.543,5.543 0 0,1 0.000,5.543 M 193.400,161.774 l -2.700,-4.677 M 193.400,167.316 a 5.543,5.543 0 0,1 4.800,-2.771 M 193.400,167.316 l -2.700,4.677 M 198.200,164.545 a 5.543,5.543 0 0,1 -4.800,-2.771 M 198.200,164.545 l 3.600,0.000 M 201.800,164.545 a 5.543,5.543 0 0,1 4.800,2.771 M 206.600,161.774 a 5.543,5.543 0 0,1 -4.800,2.771 M 206.600,167.316 a 5.543,5.543 0 0,1 0.000,-5.543 M 209.300,157.097 l -2.700,4.677 M 209.300,171.993 l -2.700,-4.677">
<desc>X5</desc>
</path>
<path stroke="darkgreen" stroke-width="2" stroke-linecap="round"
      fill="none" d="M 191.600,141.335 a 5.543,5.543 0 0,1 0.000,-5.543 M 193.400,144.453 a 5.543,5.543 0 0,1 0.000,5.543 M 193.400,144.453 l -1.800,-3.118 M 193.400,149.996 a 5.543,5.543 0 0,1 4.800,-2.771 M 193.400,149.996 l -2.700,4.677 M 194.300,131.116 l -2.700,4.677 M 198.200,147.224 a 5.543,5.543 0 0,1 -4.800,-2.771 M 198.200,147.224 l 5.400,0.000">
<desc>Y4</desc>
</path>
<path stroke="olive" stroke-width="2" stroke-linecap="round"
      fill="none" d="M 16.400,147.224 l 5.400,0.000 M 16.400,164.545 l 5.400,0.000 M 21.800,147.224 a 5.543,5.543 0 0,1 4.800,2.771 M 26.600,161.774 a 5.543,5.543 0 0,1 -4.800,2.771 M 28.400,153.113 a 5.543,5.543 0 0,1 0.000,5.543 M 28.400,153.113 l -1.800,-3.118 M 28.400,158.656 a 5.543,5.543 0 0,1 4.800,-2.771 M 28.400,158.656 l -1.800,3.118 M 33.200,155.885 a 5.543,5.543 0 0,1 -4.800,-2.771 M 33.200,155.885 l 5.400,0.000">
<desc>Y5</desc>
</path>
</g>
</svg>
