<?xml version="1.0" standalone="no"?>
<!-- Created by Polyform Puzzler (http://puzzler.sourceforge.net/) -->
<svg width="750.000" height="750.000"
     viewBox="0 0 750.000 750.000"
     xmlns="http://www.w3.org/2000/svg"
     xmlns:xlink="http://www.w3.org/1999/xlink">
<g transform="translate(375.000,187.500) rotate(30)">
<path stroke="tan" stroke-width="2" stroke-linecap="round"
      fill="none" d="M 103.400,170.434 l -1.800,-3.118 M 108.200,173.205 a 5.543,5.543 0 0,1 -4.800,-2.771 M 108.200,173.205 l 5.400,0.000 M 76.400,173.205 l 5.400,0.000 M 81.800,173.205 a 5.543,5.543 0 0,1 4.800,2.771 M 86.600,170.434 a 5.543,5.543 0 0,1 -4.800,2.771 M 86.600,175.976 a 5.543,5.543 0 0,1 0.000,-5.543 M 88.400,167.316 a 5.543,5.543 0 0,1 4.800,-2.771 M 88.400,167.316 l -1.800,3.118 M 89.300,180.653 l -2.700,-4.677 M 93.200,164.545 l 3.600,0.000 M 96.800,164.545 a 5.543,5.543 0 0,1 4.800,2.771">
<desc>C06</desc>
</path>
<path stroke="cyan" stroke-width="2" stroke-linecap="round"
      fill="none" d="M 11.600,236.598 a 5.543,5.543 0 0,1 0.000,-5.543 M 13.400,239.716 l -1.800,-3.118 M 14.300,226.379 l -2.700,4.677 M 18.200,242.487 a 5.543,5.543 0 0,1 -4.800,-2.771 M 18.200,242.487 l 5.400,0.000">
<desc>C3</desc>
</path>
<path stroke="darkorange" stroke-width="2" stroke-linecap="round"
      fill="none" d="M 46.400,225.167 l 5.400,0.000 M 46.400,242.487 l 5.400,0.000 M 51.800,225.167 a 5.543,5.543 0 0,1 4.800,2.771 M 56.600,239.716 a 5.543,5.543 0 0,1 -4.800,2.771 M 58.400,231.056 a 5.543,5.543 0 0,1 0.000,5.543 M 58.400,231.056 l -1.800,-3.118 M 58.400,236.598 l -1.800,3.118">
<desc>C4</desc>
</path>
<path stroke="blue" stroke-width="2" stroke-linecap="round"
      fill="none" d="M 58.400,219.278 a 5.543,5.543 0 0,1 4.800,-2.771 M 58.400,219.278 l -2.700,4.677 M 61.400,233.827 l 5.400,0.000 M 63.200,216.506 l 3.600,0.000 M 66.800,216.506 a 5.543,5.543 0 0,1 4.800,2.771 M 71.600,231.056 a 5.543,5.543 0 0,1 -4.800,2.771 M 73.400,222.395 a 5.543,5.543 0 0,1 0.000,5.543 M 73.400,222.395 l -1.800,-3.118 M 73.400,227.938 l -1.800,3.118">
<desc>C5</desc>
</path>
<path stroke="slateblue" stroke-width="2" stroke-linecap="round"
      fill="none" d="M 76.400,207.846 l 5.400,0.000 M 76.400,225.167 l 5.400,0.000 M 81.800,207.846 a 5.543,5.543 0 0,1 4.800,2.771 M 86.600,205.075 a 5.543,5.543 0 0,1 -4.800,2.771 M 86.600,210.617 a 5.543,5.543 0 0,1 0.000,-5.543 M 86.600,222.395 a 5.543,5.543 0 0,1 -4.800,2.771 M 88.400,196.415 a 5.543,5.543 0 0,1 0.000,5.543 M 88.400,196.415 l -2.700,-4.677 M 88.400,201.957 l -1.800,3.118 M 88.400,213.735 a 5.543,5.543 0 0,1 0.000,5.543 M 88.400,213.735 l -1.800,-3.118 M 88.400,219.278 l -1.800,3.118">
<desc>F06</desc>
</path>
<path stroke="aquamarine" stroke-width="2" stroke-linecap="round"
      fill="none" d="M 71.600,201.957 a 5.543,5.543 0 0,1 0.000,-5.543 M 73.400,187.754 a 5.543,5.543 0 0,1 0.000,5.543 M 73.400,187.754 l -2.700,-4.677 M 73.400,193.297 a 5.543,5.543 0 0,1 4.800,-2.771 M 73.400,193.297 l -1.800,3.118 M 73.400,205.075 a 5.543,5.543 0 0,1 0.000,5.543 M 73.400,205.075 l -1.800,-3.118 M 73.400,210.617 l -2.700,4.677 M 78.200,190.526 a 5.543,5.543 0 0,1 -4.800,-2.771 M 78.200,190.526 l 3.600,0.000 M 86.600,187.754 a 5.543,5.543 0 0,1 -4.800,2.771 M 89.300,183.078 l -2.700,4.677">
<desc>H06</desc>
</path>
<path stroke="cadetblue" stroke-width="2" stroke-linecap="round"
      fill="none" d="M 101.600,213.735 a 5.543,5.543 0 0,1 -4.800,2.771 M 103.400,205.075 a 5.543,5.543 0 0,1 0.000,5.543 M 103.400,205.075 l -2.700,-4.677 M 103.400,210.617 a 5.543,5.543 0 0,1 4.800,-2.771 M 103.400,210.617 l -1.800,3.118 M 108.200,207.846 a 5.543,5.543 0 0,1 -4.800,-2.771 M 108.200,207.846 l 3.600,0.000 M 116.600,205.075 a 5.543,5.543 0 0,1 -4.800,2.771 M 118.400,201.957 a 5.543,5.543 0 0,1 4.800,-2.771 M 118.400,201.957 l -1.800,3.118 M 123.200,199.186 l 5.400,0.000 M 91.400,216.506 l 5.400,0.000">
<desc>H16</desc>
</path>
<path stroke="red" stroke-width="2" stroke-linecap="round"
      fill="none" d="M 101.600,184.637 a 5.543,5.543 0 0,1 0.000,-5.543 M 101.600,196.415 a 5.543,5.543 0 0,1 -4.800,2.771 M 103.400,187.754 a 5.543,5.543 0 0,1 0.000,5.543 M 103.400,187.754 l -1.800,-3.118 M 103.400,193.297 a 5.543,5.543 0 0,1 4.800,-2.771 M 103.400,193.297 l -1.800,3.118 M 104.300,174.418 l -2.700,4.677 M 108.200,190.526 a 5.543,5.543 0 0,1 -4.800,-2.771 M 108.200,190.526 l 5.400,0.000 M 91.400,199.186 l 5.400,0.000">
<desc>H5</desc>
</path>
<path stroke="burlywood" stroke-width="2" stroke-linecap="round"
      fill="none" d="M 31.400,199.186 l 5.400,0.000 M 41.600,196.415 a 5.543,5.543 0 0,1 -4.800,2.771 M 43.400,193.297 a 5.543,5.543 0 0,1 4.800,-2.771 M 43.400,193.297 l -1.800,3.118 M 48.200,190.526 l 3.600,0.000 M 56.600,187.754 a 5.543,5.543 0 0,1 -4.800,2.771 M 58.400,184.637 a 5.543,5.543 0 0,1 4.800,-2.771 M 58.400,184.637 l -1.800,3.118 M 63.200,181.865 l 3.600,0.000 M 71.600,179.094 a 5.543,5.543 0 0,1 -4.800,2.771 M 74.300,174.418 l -2.700,4.677">
<desc>I06</desc>
</path>
<path stroke="steelblue" stroke-width="2" stroke-linecap="round"
      fill="none" d="M 91.400,181.865 l 7.200,0.000">
<desc>I1</desc>
</path>
<path stroke="lightcoral" stroke-width="2" stroke-linecap="round"
      fill="none" d="M 103.400,158.656 a 5.543,5.543 0 0,1 4.800,-2.771 M 103.400,158.656 l -2.700,4.677 M 108.200,155.885 l 3.600,0.000 M 116.600,153.113 a 5.543,5.543 0 0,1 -4.800,2.771 M 118.400,149.996 a 5.543,5.543 0 0,1 4.800,-2.771 M 118.400,149.996 l -1.800,3.118 M 123.200,147.224 l 3.600,0.000 M 131.600,144.453 a 5.543,5.543 0 0,1 -4.800,2.771 M 134.300,139.777 l -2.700,4.677">
<desc>I5</desc>
</path>
<path stroke="crimson" stroke-width="2" stroke-linecap="round"
      fill="none" d="M 133.400,153.113 l -2.700,-4.677 M 138.200,155.885 a 5.543,5.543 0 0,1 -4.800,-2.771 M 138.200,155.885 l 3.600,0.000 M 141.800,155.885 a 5.543,5.543 0 0,1 4.800,2.771 M 148.400,161.774 l -1.800,-3.118 M 153.200,164.545 a 5.543,5.543 0 0,1 -4.800,-2.771 M 153.200,164.545 l 3.600,0.000 M 161.600,161.774 a 5.543,5.543 0 0,1 -4.800,2.771 M 163.400,153.113 a 5.543,5.543 0 0,1 0.000,5.543 M 163.400,153.113 l -2.700,-4.677 M 163.400,158.656 l -1.800,3.118">
<desc>J06</desc>
</path>
<path stroke="darkgoldenrod" stroke-width="2" stroke-linecap="round"
      fill="none" d="M 116.600,193.297 a 5.543,5.543 0 0,1 0.000,-5.543 M 118.400,184.637 a 5.543,5.543 0 0,1 4.800,-2.771 M 118.400,184.637 l -1.800,3.118 M 119.300,197.973 l -2.700,-4.677 M 123.200,181.865 l 3.600,0.000 M 131.600,179.094 a 5.543,5.543 0 0,1 -4.800,2.771 M 133.400,175.976 a 5.543,5.543 0 0,1 4.800,-2.771 M 133.400,175.976 l -1.800,3.118 M 138.200,173.205 l 3.600,0.000 M 146.600,170.434 a 5.543,5.543 0 0,1 -4.800,2.771 M 149.300,165.757 l -2.700,4.677">
<desc>L06</desc>
</path>
<path stroke="deepskyblue" stroke-width="2" stroke-linecap="round"
      fill="none" d="M 163.400,170.434 a 5.543,5.543 0 0,1 0.000,5.543 M 163.400,170.434 l -2.700,-4.677 M 163.400,175.976 a 5.543,5.543 0 0,1 4.800,-2.771 M 163.400,175.976 l -2.700,4.677 M 168.200,173.205 a 5.543,5.543 0 0,1 -4.800,-2.771 M 168.200,173.205 l 3.600,0.000 M 176.600,170.434 a 5.543,5.543 0 0,1 -4.800,2.771 M 178.400,167.316 a 5.543,5.543 0 0,1 4.800,-2.771 M 178.400,167.316 l -1.800,3.118 M 183.200,164.545 l 3.600,0.000 M 191.600,161.774 a 5.543,5.543 0 0,1 -4.800,2.771 M 194.300,157.097 l -2.700,4.677">
<desc>L16</desc>
</path>
<path stroke="khaki" stroke-width="2" stroke-linecap="round"
      fill="none" d="M 58.400,196.415 l -2.700,-4.677 M 63.200,199.186 a 5.543,5.543 0 0,1 -4.800,-2.771 M 63.200,199.186 l 5.400,0.000">
<desc>L2</desc>
</path>
<path stroke="peachpuff" stroke-width="2" stroke-linecap="round"
      fill="none" d="M 148.400,149.996 a 5.543,5.543 0 0,1 4.800,-2.771 M 148.400,149.996 l -2.700,4.677 M 153.200,147.224 l 3.600,0.000 M 161.600,144.453 a 5.543,5.543 0 0,1 -4.800,2.771 M 163.400,135.793 a 5.543,5.543 0 0,1 0.000,5.543 M 163.400,135.793 l -2.700,-4.677 M 163.400,141.335 a 5.543,5.543 0 0,1 4.800,-2.771 M 163.400,141.335 l -1.800,3.118 M 168.200,138.564 a 5.543,5.543 0 0,1 -4.800,-2.771 M 168.200,138.564 l 3.600,0.000 M 171.800,138.564 a 5.543,5.543 0 0,1 4.800,2.771 M 179.300,146.012 l -2.700,-4.677">
<desc>L26</desc>
</path>
<path stroke="peru" stroke-width="2" stroke-linecap="round"
      fill="none" d="M 136.400,138.564 l 5.400,0.000 M 141.800,138.564 a 5.543,5.543 0 0,1 4.800,2.771 M 146.600,135.793 a 5.543,5.543 0 0,1 -4.800,2.771 M 146.600,141.335 a 5.543,5.543 0 0,1 0.000,-5.543 M 148.400,132.675 a 5.543,5.543 0 0,1 4.800,-2.771 M 148.400,132.675 l -1.800,3.118 M 149.300,146.012 l -2.700,-4.677 M 153.200,129.904 l 3.600,0.000 M 161.600,127.133 a 5.543,5.543 0 0,1 -4.800,2.771 M 164.300,122.456 l -2.700,4.677">
<desc>L5</desc>
</path>
<path stroke="darkkhaki" stroke-width="2" stroke-linecap="round"
      fill="none" d="M 346.400,34.641 l 5.400,0.000 M 346.400,69.282 l 5.400,0.000 M 351.800,34.641 a 5.543,5.543 0 0,1 4.800,2.771 M 356.600,54.733 a 5.543,5.543 0 0,1 0.000,-5.543 M 356.600,66.511 a 5.543,5.543 0 0,1 -4.800,2.771 M 358.400,40.530 a 5.543,5.543 0 0,1 0.000,5.543 M 358.400,40.530 l -1.800,-3.118 M 358.400,46.073 l -1.800,3.118 M 358.400,57.850 a 5.543,5.543 0 0,1 0.000,5.543 M 358.400,57.850 l -1.800,-3.118 M 358.400,63.393 l -1.800,3.118">
<desc>M06</desc>
</path>
<path stroke="darkseagreen" stroke-width="2" stroke-linecap="round"
      fill="none" d="M 26.600,245.258 a 5.543,5.543 0 0,1 0.000,-5.543 M 28.400,236.598 a 5.543,5.543 0 0,1 4.800,-2.771 M 28.400,236.598 l -1.800,3.118 M 28.400,248.376 l -1.800,-3.118 M 33.200,233.827 l 3.600,0.000 M 33.200,251.147 a 5.543,5.543 0 0,1 -4.800,-2.771 M 33.200,251.147 l 3.600,0.000 M 36.800,233.827 a 5.543,5.543 0 0,1 4.800,2.771 M 41.600,248.376 a 5.543,5.543 0 0,1 -4.800,2.771 M 43.400,239.716 a 5.543,5.543 0 0,1 0.000,5.543 M 43.400,239.716 l -1.800,-3.118 M 43.400,245.258 l -1.800,3.118">
<desc>O06</desc>
</path>
<path stroke="blueviolet" stroke-width="2" stroke-linecap="round"
      fill="none" d="M 28.400,213.735 l -2.700,-4.677 M 33.200,216.506 a 5.543,5.543 0 0,1 -4.800,-2.771 M 33.200,216.506 l 3.600,0.000 M 36.800,216.506 a 5.543,5.543 0 0,1 4.800,2.771 M 43.400,222.395 a 5.543,5.543 0 0,1 0.000,5.543 M 43.400,222.395 l -1.800,-3.118 M 43.400,227.938 l -2.700,4.677">
<desc>P4</desc>
</path>
<path stroke="green" stroke-width="2" stroke-linecap="round"
      fill="none" d="M 313.400,66.511 l -2.700,-4.677 M 316.400,86.603 l 5.400,0.000 M 318.200,69.282 a 5.543,5.543 0 0,1 -4.800,-2.771 M 318.200,69.282 l 3.600,0.000 M 321.800,69.282 a 5.543,5.543 0 0,1 4.800,2.771 M 326.600,83.831 a 5.543,5.543 0 0,1 -4.800,2.771 M 328.400,75.171 a 5.543,5.543 0 0,1 0.000,5.543 M 328.400,75.171 l -1.800,-3.118 M 328.400,80.714 l -1.800,3.118">
<desc>P5</desc>
</path>
<path stroke="deeppink" stroke-width="2" stroke-linecap="round"
      fill="none" d="M 326.600,37.412 a 5.543,5.543 0 0,1 0.000,-5.543 M 328.400,28.752 a 5.543,5.543 0 0,1 4.800,-2.771 M 328.400,28.752 l -1.800,3.118 M 329.300,42.089 l -2.700,-4.677 M 333.200,25.981 l 3.600,0.000 M 336.800,25.981 a 5.543,5.543 0 0,1 4.800,2.771 M 341.600,46.073 a 5.543,5.543 0 0,1 0.000,-5.543 M 343.400,31.870 a 5.543,5.543 0 0,1 0.000,5.543 M 343.400,31.870 l -1.800,-3.118 M 343.400,37.412 l -1.800,3.118 M 344.300,50.749 l -2.700,-4.677">
<desc>Q06</desc>
</path>
<path stroke="greenyellow" stroke-width="2" stroke-linecap="round"
      fill="none" d="M 193.400,135.793 a 5.543,5.543 0 0,1 0.000,5.543 M 193.400,135.793 l -2.700,-4.677 M 193.400,141.335 a 5.543,5.543 0 0,1 4.800,-2.771 M 193.400,141.335 l -2.700,4.677 M 196.400,155.885 l 5.400,0.000 M 198.200,138.564 a 5.543,5.543 0 0,1 -4.800,-2.771 M 198.200,138.564 l 3.600,0.000 M 201.800,138.564 a 5.543,5.543 0 0,1 4.800,2.771 M 206.600,153.113 a 5.543,5.543 0 0,1 -4.800,2.771 M 208.400,144.453 a 5.543,5.543 0 0,1 0.000,5.543 M 208.400,144.453 l -1.800,-3.118 M 208.400,149.996 l -1.800,3.118">
<desc>Q16</desc>
</path>
<path stroke="hotpink" stroke-width="2" stroke-linecap="round"
      fill="none" d="M 221.600,115.355 a 5.543,5.543 0 0,1 0.000,-5.543 M 223.400,118.472 a 5.543,5.543 0 0,1 0.000,5.543 M 223.400,118.472 l -1.800,-3.118 M 223.400,124.015 a 5.543,5.543 0 0,1 4.800,-2.771 M 223.400,124.015 l -2.700,4.677 M 224.300,105.135 l -2.700,4.677 M 228.200,121.244 a 5.543,5.543 0 0,1 -4.800,-2.771 M 228.200,121.244 l 3.600,0.000 M 236.600,118.472 a 5.543,5.543 0 0,1 -4.800,2.771 M 238.400,109.812 a 5.543,5.543 0 0,1 0.000,5.543 M 238.400,109.812 l -2.700,-4.677 M 238.400,115.355 l -1.800,3.118">
<desc>Q26</desc>
</path>
<path stroke="indianred" stroke-width="2" stroke-linecap="round"
      fill="none" d="M 166.400,121.244 l 5.400,0.000 M 171.800,121.244 a 5.543,5.543 0 0,1 4.800,2.771 M 178.400,127.133 a 5.543,5.543 0 0,1 0.000,5.543 M 178.400,127.133 l -1.800,-3.118 M 178.400,132.675 a 5.543,5.543 0 0,1 4.800,-2.771 M 178.400,132.675 l -2.700,4.677 M 183.200,129.904 a 5.543,5.543 0 0,1 -4.800,-2.771 M 183.200,129.904 l 3.600,0.000 M 191.600,127.133 a 5.543,5.543 0 0,1 -4.800,2.771 M 193.400,118.472 a 5.543,5.543 0 0,1 0.000,5.543 M 193.400,118.472 l -2.700,-4.677 M 193.400,124.015 l -1.800,3.118">
<desc>R06</desc>
</path>
<path stroke="olivedrab" stroke-width="2" stroke-linecap="round"
      fill="none" d="M 331.400,60.622 l 5.400,0.000 M 331.400,77.942 l 5.400,0.000 M 336.800,60.622 a 5.543,5.543 0 0,1 4.800,2.771 M 341.600,57.850 a 5.543,5.543 0 0,1 -4.800,2.771 M 341.600,63.393 a 5.543,5.543 0 0,1 0.000,-5.543 M 341.600,75.171 a 5.543,5.543 0 0,1 -4.800,2.771 M 343.400,54.733 a 5.543,5.543 0 0,1 4.800,-2.771 M 343.400,54.733 l -1.800,3.118 M 343.400,66.511 a 5.543,5.543 0 0,1 0.000,5.543 M 343.400,66.511 l -1.800,-3.118 M 343.400,72.053 l -1.800,3.118 M 348.200,51.962 l 5.400,0.000">
<desc>R16</desc>
</path>
<path stroke="navy" stroke-width="2" stroke-linecap="round"
      fill="none" d="M 166.400,155.885 l 5.400,0.000 M 171.800,155.885 a 5.543,5.543 0 0,1 4.800,2.771 M 176.600,153.113 a 5.543,5.543 0 0,1 -4.800,2.771 M 176.600,158.656 a 5.543,5.543 0 0,1 0.000,-5.543 M 178.400,149.996 a 5.543,5.543 0 0,1 4.800,-2.771 M 178.400,149.996 l -1.800,3.118 M 179.300,163.332 l -2.700,-4.677 M 183.200,147.224 l 3.600,0.000 M 186.800,147.224 a 5.543,5.543 0 0,1 4.800,2.771 M 194.300,154.672 l -2.700,-4.677">
<desc>R5</desc>
</path>
<path stroke="limegreen" stroke-width="2" stroke-linecap="round"
      fill="none" d="M 251.600,80.714 a 5.543,5.543 0 0,1 0.000,-5.543 M 253.400,72.053 a 5.543,5.543 0 0,1 4.800,-2.771 M 253.400,72.053 l -1.800,3.118 M 254.300,85.390 l -2.700,-4.677 M 258.200,69.282 l 3.600,0.000 M 261.800,69.282 a 5.543,5.543 0 0,1 4.800,2.771 M 268.400,75.171 l -1.800,-3.118 M 273.200,77.942 a 5.543,5.543 0 0,1 -4.800,-2.771 M 273.200,77.942 l 3.600,0.000 M 281.600,75.171 a 5.543,5.543 0 0,1 -4.800,2.771 M 284.300,70.494 l -2.700,4.677">
<desc>S06</desc>
</path>
<path stroke="mediumpurple" stroke-width="2" stroke-linecap="round"
      fill="none" d="M 208.400,98.034 a 5.543,5.543 0 0,1 4.800,-2.771 M 208.400,98.034 l -2.700,4.677 M 213.200,95.263 l 3.600,0.000 M 216.800,95.263 a 5.543,5.543 0 0,1 4.800,2.771 M 223.400,101.152 l -1.800,-3.118 M 228.200,103.923 a 5.543,5.543 0 0,1 -4.800,-2.771 M 228.200,103.923 l 3.600,0.000 M 236.600,101.152 a 5.543,5.543 0 0,1 -4.800,2.771 M 238.400,98.034 a 5.543,5.543 0 0,1 4.800,-2.771 M 238.400,98.034 l -1.800,3.118 M 243.200,95.263 l 5.400,0.000">
<desc>S16</desc>
</path>
<path stroke="orange" stroke-width="2" stroke-linecap="round"
      fill="none" d="M 268.400,63.393 a 5.543,5.543 0 0,1 4.800,-2.771 M 268.400,63.393 l -2.700,4.677 M 273.200,60.622 l 3.600,0.000 M 276.800,60.622 a 5.543,5.543 0 0,1 4.800,2.771 M 283.400,66.511 l -1.800,-3.118 M 288.200,69.282 a 5.543,5.543 0 0,1 -4.800,-2.771 M 288.200,69.282 l 3.600,0.000 M 291.800,69.282 a 5.543,5.543 0 0,1 4.800,2.771 M 296.600,66.511 a 5.543,5.543 0 0,1 -4.800,2.771 M 296.600,72.053 a 5.543,5.543 0 0,1 0.000,-5.543 M 299.300,61.834 l -2.700,4.677 M 299.300,76.730 l -2.700,-4.677">
<desc>S26</desc>
</path>
<path stroke="magenta" stroke-width="2" stroke-linecap="round"
      fill="none" d="M 13.400,210.617 a 5.543,5.543 0 0,1 4.800,-2.771 M 13.400,210.617 l -2.700,4.677 M 18.200,207.846 l 3.600,0.000 M 26.600,205.075 a 5.543,5.543 0 0,1 -4.800,2.771 M 29.300,200.398 l -2.700,4.677">
<desc>S3</desc>
</path>
<path stroke="turquoise" stroke-width="2" stroke-linecap="round"
      fill="none" d="M 283.400,54.733 a 5.543,5.543 0 0,1 4.800,-2.771 M 283.400,54.733 l -2.700,4.677 M 288.200,51.962 l 3.600,0.000 M 291.800,51.962 a 5.543,5.543 0 0,1 4.800,2.771 M 298.400,57.850 l -1.800,-3.118 M 303.200,60.622 a 5.543,5.543 0 0,1 -4.800,-2.771 M 303.200,60.622 l 3.600,0.000 M 311.600,57.850 a 5.543,5.543 0 0,1 -4.800,2.771 M 314.300,53.174 l -2.700,4.677">
<desc>S5</desc>
</path>
<path stroke="brown" stroke-width="2" stroke-linecap="round"
      fill="none" d="M 223.400,89.374 a 5.543,5.543 0 0,1 4.800,-2.771 M 223.400,89.374 l -2.700,4.677 M 228.200,86.603 l 3.600,0.000 M 231.800,86.603 a 5.543,5.543 0 0,1 4.800,2.771 M 236.600,83.831 a 5.543,5.543 0 0,1 -4.800,2.771 M 236.600,89.374 a 5.543,5.543 0 0,1 0.000,-5.543 M 238.400,80.714 a 5.543,5.543 0 0,1 4.800,-2.771 M 238.400,80.714 l -1.800,3.118 M 239.300,94.050 l -2.700,-4.677 M 243.200,77.942 l 5.400,0.000">
<desc>T5</desc>
</path>
<path stroke="palegreen" stroke-width="2" stroke-linecap="round"
      fill="none" d="M 133.400,187.754 a 5.543,5.543 0 0,1 0.000,5.543 M 133.400,187.754 l -2.700,-4.677 M 133.400,193.297 a 5.543,5.543 0 0,1 4.800,-2.771 M 133.400,193.297 l -2.700,4.677 M 138.200,190.526 a 5.543,5.543 0 0,1 -4.800,-2.771 M 138.200,190.526 l 3.600,0.000 M 146.600,187.754 a 5.543,5.543 0 0,1 -4.800,2.771 M 148.400,179.094 a 5.543,5.543 0 0,1 0.000,5.543 M 148.400,179.094 l -2.700,-4.677 M 148.400,184.637 a 5.543,5.543 0 0,1 4.800,-2.771 M 148.400,184.637 l -1.800,3.118 M 153.200,181.865 a 5.543,5.543 0 0,1 -4.800,-2.771 M 153.200,181.865 l 5.400,0.000">
<desc>U06</desc>
</path>
<path stroke="maroon" stroke-width="2" stroke-linecap="round"
      fill="none" d="M 251.600,98.034 a 5.543,5.543 0 0,1 0.000,-5.543 M 253.400,101.152 a 5.543,5.543 0 0,1 0.000,5.543 M 253.400,101.152 l -1.800,-3.118 M 253.400,106.694 l -2.700,4.677 M 253.400,89.374 a 5.543,5.543 0 0,1 4.800,-2.771 M 253.400,89.374 l -1.800,3.118 M 258.200,86.603 l 3.600,0.000 M 266.600,83.831 a 5.543,5.543 0 0,1 -4.800,2.771 M 269.300,79.155 l -2.700,4.677">
<desc>U5</desc>
</path>
<path stroke="paleturquoise" stroke-width="2" stroke-linecap="round"
      fill="none" d="M 256.400,103.923 l 5.400,0.000 M 261.800,103.923 a 5.543,5.543 0 0,1 4.800,2.771 M 268.400,109.812 l -1.800,-3.118 M 273.200,112.583 a 5.543,5.543 0 0,1 -4.800,-2.771 M 273.200,112.583 l 3.600,0.000 M 281.600,109.812 a 5.543,5.543 0 0,1 -4.800,2.771 M 281.600,98.034 a 5.543,5.543 0 0,1 0.000,-5.543 M 283.400,101.152 a 5.543,5.543 0 0,1 0.000,5.543 M 283.400,101.152 l -1.800,-3.118 M 283.400,106.694 l -1.800,3.118 M 284.300,87.815 l -2.700,4.677">
<desc>V06</desc>
</path>
<path stroke="darkorchid" stroke-width="2" stroke-linecap="round"
      fill="none" d="M 178.400,115.355 a 5.543,5.543 0 0,1 4.800,-2.771 M 178.400,115.355 l -2.700,4.677 M 183.200,112.583 l 3.600,0.000 M 191.600,109.812 a 5.543,5.543 0 0,1 -4.800,2.771 M 193.400,106.694 a 5.543,5.543 0 0,1 4.800,-2.771 M 193.400,106.694 l -1.800,3.118 M 198.200,103.923 l 3.600,0.000 M 201.800,103.923 a 5.543,5.543 0 0,1 4.800,2.771 M 208.400,109.812 l -1.800,-3.118 M 213.200,112.583 a 5.543,5.543 0 0,1 -4.800,-2.771 M 213.200,112.583 l 5.400,0.000">
<desc>W06</desc>
</path>
<path stroke="teal" stroke-width="2" stroke-linecap="round"
      fill="none" d="M 298.400,46.073 a 5.543,5.543 0 0,1 4.800,-2.771 M 298.400,46.073 l -2.700,4.677 M 303.200,43.301 l 3.600,0.000 M 311.600,40.530 a 5.543,5.543 0 0,1 -4.800,2.771 M 313.400,37.412 a 5.543,5.543 0 0,1 4.800,-2.771 M 313.400,37.412 l -1.800,3.118 M 318.200,34.641 l 5.400,0.000">
<desc>W4</desc>
</path>
<path stroke="plum" stroke-width="2" stroke-linecap="round"
      fill="none" d="M 211.400,147.224 l 5.400,0.000 M 221.600,144.453 a 5.543,5.543 0 0,1 -4.800,2.771 M 223.400,141.335 a 5.543,5.543 0 0,1 4.800,-2.771 M 223.400,141.335 l -1.800,3.118 M 228.200,138.564 l 3.600,0.000 M 236.600,135.793 a 5.543,5.543 0 0,1 -4.800,2.771 M 238.400,127.133 a 5.543,5.543 0 0,1 0.000,5.543 M 238.400,127.133 l -2.700,-4.677 M 238.400,132.675 l -1.800,3.118">
<desc>W5</desc>
</path>
<path stroke="silver" stroke-width="2" stroke-linecap="round"
      fill="none" d="M 196.400,121.244 l 5.400,0.000 M 201.800,121.244 a 5.543,5.543 0 0,1 4.800,2.771 M 206.600,118.472 a 5.543,5.543 0 0,1 -4.800,2.771 M 206.600,124.015 a 5.543,5.543 0 0,1 0.000,-5.543 M 208.400,127.133 a 5.543,5.543 0 0,1 0.000,5.543 M 208.400,127.133 l -1.800,-3.118 M 208.400,132.675 a 5.543,5.543 0 0,1 4.800,-2.771 M 208.400,132.675 l -2.700,4.677 M 209.300,113.796 l -2.700,4.677 M 213.200,129.904 a 5.543,5.543 0 0,1 -4.800,-2.771 M 213.200,129.904 l 3.600,0.000 M 216.800,129.904 a 5.543,5.543 0 0,1 4.800,2.771 M 224.300,137.352 l -2.700,-4.677">
<desc>X06</desc>
</path>
<path stroke="thistle" stroke-width="2" stroke-linecap="round"
      fill="none" d="M 116.600,175.976 a 5.543,5.543 0 0,1 0.000,-5.543 M 118.400,161.774 a 5.543,5.543 0 0,1 0.000,5.543 M 118.400,161.774 l -2.700,-4.677 M 118.400,167.316 a 5.543,5.543 0 0,1 4.800,-2.771 M 118.400,167.316 l -1.800,3.118 M 119.300,180.653 l -2.700,-4.677 M 123.200,164.545 a 5.543,5.543 0 0,1 -4.800,-2.771 M 123.200,164.545 l 3.600,0.000 M 126.800,164.545 a 5.543,5.543 0 0,1 4.800,2.771 M 131.600,161.774 a 5.543,5.543 0 0,1 -4.800,2.771 M 131.600,167.316 a 5.543,5.543 0 0,1 0.000,-5.543 M 134.300,157.097 l -2.700,4.677 M 134.300,171.993 l -2.700,-4.677">
<desc>X16</desc>
</path>
<path stroke="indigo" stroke-width="2" stroke-linecap="round"
      fill="none" d="M 43.400,205.075 a 5.543,5.543 0 0,1 0.000,5.543 M 43.400,205.075 l -2.700,-4.677 M 43.400,210.617 a 5.543,5.543 0 0,1 4.800,-2.771 M 43.400,210.617 l -2.700,4.677 M 48.200,207.846 a 5.543,5.543 0 0,1 -4.800,-2.771 M 48.200,207.846 l 3.600,0.000 M 51.800,207.846 a 5.543,5.543 0 0,1 4.800,2.771 M 56.600,205.075 a 5.543,5.543 0 0,1 -4.800,2.771 M 56.600,210.617 a 5.543,5.543 0 0,1 0.000,-5.543 M 59.300,200.398 l -2.700,4.677 M 59.300,215.294 l -2.700,-4.677">
<desc>X5</desc>
</path>
<path stroke="tomato" stroke-width="2" stroke-linecap="round"
      fill="none" d="M 313.400,49.190 l -2.700,-4.677 M 318.200,51.962 a 5.543,5.543 0 0,1 -4.800,-2.771 M 318.200,51.962 l 3.600,0.000 M 321.800,51.962 a 5.543,5.543 0 0,1 4.800,2.771 M 326.600,49.190 a 5.543,5.543 0 0,1 -4.800,2.771 M 326.600,54.733 a 5.543,5.543 0 0,1 0.000,-5.543 M 328.400,46.073 a 5.543,5.543 0 0,1 4.800,-2.771 M 328.400,46.073 l -1.800,3.118 M 328.400,57.850 a 5.543,5.543 0 0,1 0.000,5.543 M 328.400,57.850 l -1.800,-3.118 M 328.400,63.393 l -2.700,4.677 M 333.200,43.301 l 5.400,0.000">
<desc>Y06</desc>
</path>
<path stroke="violet" stroke-width="2" stroke-linecap="round"
      fill="none" d="M 241.400,112.583 l 5.400,0.000 M 241.400,129.904 l 5.400,0.000 M 246.800,112.583 a 5.543,5.543 0 0,1 4.800,2.771 M 251.600,127.133 a 5.543,5.543 0 0,1 -4.800,2.771 M 253.400,118.472 a 5.543,5.543 0 0,1 0.000,5.543 M 253.400,118.472 l -1.800,-3.118 M 253.400,124.015 a 5.543,5.543 0 0,1 4.800,-2.771 M 253.400,124.015 l -1.800,3.118 M 258.200,121.244 a 5.543,5.543 0 0,1 -4.800,-2.771 M 258.200,121.244 l 3.600,0.000 M 266.600,118.472 a 5.543,5.543 0 0,1 -4.800,2.771 M 269.300,113.796 l -2.700,4.677">
<desc>Y16</desc>
</path>
<path stroke="darkmagenta" stroke-width="2" stroke-linecap="round"
      fill="none" d="M 283.400,83.831 l -2.700,-4.677 M 286.400,103.923 l 5.400,0.000 M 288.200,86.603 a 5.543,5.543 0 0,1 -4.800,-2.771 M 288.200,86.603 l 3.600,0.000 M 291.800,86.603 a 5.543,5.543 0 0,1 4.800,2.771 M 296.600,101.152 a 5.543,5.543 0 0,1 -4.800,2.771 M 298.400,92.492 a 5.543,5.543 0 0,1 0.000,5.543 M 298.400,92.492 l -1.800,-3.118 M 298.400,98.034 a 5.543,5.543 0 0,1 4.800,-2.771 M 298.400,98.034 l -1.800,3.118 M 303.200,95.263 a 5.543,5.543 0 0,1 -4.800,-2.771 M 303.200,95.263 l 5.400,0.000">
<desc>Y26</desc>
</path>
<path stroke="lime" stroke-width="2" stroke-linecap="round"
      fill="none" d="M 268.400,92.492 a 5.543,5.543 0 0,1 0.000,5.543 M 268.400,92.492 l -2.700,-4.677 M 268.400,98.034 a 5.543,5.543 0 0,1 4.800,-2.771 M 268.400,98.034 l -2.700,4.677 M 273.200,95.263 a 5.543,5.543 0 0,1 -4.800,-2.771 M 273.200,95.263 l 5.400,0.000">
<desc>Y3</desc>
</path>
<path stroke="darkgreen" stroke-width="2" stroke-linecap="round"
      fill="none" d="M 13.400,222.395 l -2.700,-4.677 M 18.200,225.167 a 5.543,5.543 0 0,1 -4.800,-2.771 M 18.200,225.167 l 3.600,0.000 M 21.800,225.167 a 5.543,5.543 0 0,1 4.800,2.771 M 26.600,222.395 a 5.543,5.543 0 0,1 -4.800,2.771 M 26.600,227.938 a 5.543,5.543 0 0,1 0.000,-5.543 M 29.300,217.719 l -2.700,4.677 M 29.300,232.614 l -2.700,-4.677">
<desc>Y4</desc>
</path>
<path stroke="olive" stroke-width="2" stroke-linecap="round"
      fill="none" d="M 298.400,80.714 a 5.543,5.543 0 0,1 4.800,-2.771 M 298.400,80.714 l -2.700,4.677 M 303.200,77.942 l 3.600,0.000 M 306.800,77.942 a 5.543,5.543 0 0,1 4.800,2.771 M 311.600,75.171 a 5.543,5.543 0 0,1 -4.800,2.771 M 311.600,80.714 a 5.543,5.543 0 0,1 0.000,-5.543 M 313.400,83.831 a 5.543,5.543 0 0,1 0.000,5.543 M 313.400,83.831 l -1.800,-3.118 M 313.400,89.374 l -2.700,4.677 M 314.300,70.494 l -2.700,4.677">
<desc>Y5</desc>
</path>
</g>
</svg>
