<?xml version="1.0" standalone="no"?>
<!-- Created by Polyform Puzzler (http://puzzler.sourceforge.net/) -->
<svg width="363.731" height="363.731"
     viewBox="0 0 363.731 363.731"
     xmlns="http://www.w3.org/2000/svg"
     xmlns:xlink="http://www.w3.org/1999/xlink">
<g transform="translate(181.865,90.933) rotate(30)">
<path stroke="cyan" stroke-width="2" stroke-linecap="round"
      fill="none" d="M 31.400,155.885 l 5.400,0.000 M 41.600,153.113 a 5.543,5.543 0 0,1 -4.800,2.771 M 43.400,144.453 a 5.543,5.543 0 0,1 0.000,5.543 M 43.400,144.453 l -2.700,-4.677 M 43.400,149.996 l -1.800,3.118">
<desc>C03</desc>
</path>
<path stroke="darkorange" stroke-width="2" stroke-linecap="round"
      fill="none" d="M 29.300,137.352 l -3.600,-6.235 M 31.400,121.244 l 5.400,0.000 M 36.800,121.244 a 5.543,5.543 0 0,1 4.800,2.771 M 44.300,128.691 l -2.700,-4.677">
<desc>C13</desc>
</path>
<path stroke="blue" stroke-width="2" stroke-linecap="round"
      fill="none" d="M 14.300,61.834 l -3.600,6.235 M 16.400,77.942 l 7.200,0.000 M 29.300,68.070 l -3.600,-6.235">
<desc>C23</desc>
</path>
<path stroke="red" stroke-width="2" stroke-linecap="round"
      fill="none" d="M 16.400,60.622 l 7.200,0.000 M 29.300,85.390 l -3.600,-6.235 M 31.400,69.282 l 7.200,0.000">
<desc>H13</desc>
</path>
<path stroke="green" stroke-width="2" stroke-linecap="round"
      fill="none" d="M 29.300,105.135 l -3.600,6.235 M 29.300,122.456 l -3.600,6.235 M 29.300,139.777 l -3.600,6.235">
<desc>I13</desc>
</path>
<path stroke="blueviolet" stroke-width="2" stroke-linecap="round"
      fill="none" d="M 29.300,154.672 l -3.600,-6.235 M 31.400,138.564 l 5.400,0.000 M 41.600,135.793 a 5.543,5.543 0 0,1 -4.800,2.771 M 44.300,131.116 l -2.700,4.677">
<desc>P13</desc>
</path>
<path stroke="peru" stroke-width="2" stroke-linecap="round"
      fill="none" d="M 103.400,92.492 a 5.543,5.543 0 0,1 0.000,5.543 M 103.400,92.492 l -2.700,-4.677 M 103.400,98.034 l -2.700,4.677 M 89.300,105.135 l -3.600,6.235">
<desc>P23</desc>
</path>
<path stroke="navy" stroke-width="2" stroke-linecap="round"
      fill="none" d="M 29.300,120.031 l -3.600,-6.235 M 31.400,103.923 l 7.200,0.000 M 46.400,112.583 l 7.200,0.000">
<desc>P33</desc>
</path>
<path stroke="magenta" stroke-width="2" stroke-linecap="round"
      fill="none" d="M 56.600,98.034 a 5.543,5.543 0 0,1 0.000,-5.543 M 58.400,83.831 a 5.543,5.543 0 0,1 0.000,5.543 M 58.400,83.831 l -2.700,-4.677 M 58.400,89.374 l -1.800,3.118 M 59.300,102.711 l -2.700,-4.677">
<desc>S03</desc>
</path>
<path stroke="turquoise" stroke-width="2" stroke-linecap="round"
      fill="none" d="M 61.400,121.244 l 7.200,0.000 M 74.300,111.371 l -3.600,-6.235 M 76.400,95.263 l 7.200,0.000">
<desc>S13</desc>
</path>
<path stroke="brown" stroke-width="2" stroke-linecap="round"
      fill="none" d="M 14.300,76.730 l -3.600,-6.235 M 29.300,70.494 l -3.600,6.235 M 31.400,86.603 l 7.200,0.000">
<desc>T13</desc>
</path>
<path stroke="cadetblue" stroke-width="2" stroke-linecap="round"
      fill="none" d="M 44.300,111.371 l -3.600,-6.235 M 44.300,94.050 l -3.600,-6.235 M 59.300,120.031 l -3.600,-6.235">
<desc>U13</desc>
</path>
<path stroke="teal" stroke-width="2" stroke-linecap="round"
      fill="none" d="M 74.300,96.475 l -3.600,6.235 M 88.400,89.374 a 5.543,5.543 0 0,1 4.800,-2.771 M 88.400,89.374 l -2.700,4.677 M 93.200,86.603 l 5.400,0.000">
<desc>W13</desc>
</path>
<path stroke="plum" stroke-width="2" stroke-linecap="round"
      fill="none" d="M 46.400,95.263 l 7.200,0.000 M 61.400,103.923 l 7.200,0.000 M 74.300,113.796 l -3.600,6.235">
<desc>W23</desc>
</path>
<path stroke="lime" stroke-width="2" stroke-linecap="round"
      fill="none" d="M 43.400,75.171 a 5.543,5.543 0 0,1 0.000,5.543 M 43.400,75.171 l -2.700,-4.677 M 43.400,80.714 a 5.543,5.543 0 0,1 4.800,-2.771 M 43.400,80.714 l -2.700,4.677 M 48.200,77.942 a 5.543,5.543 0 0,1 -4.800,-2.771 M 48.200,77.942 l 5.400,0.000">
<desc>Y03</desc>
</path>
<path stroke="darkgreen" stroke-width="2" stroke-linecap="round"
      fill="none" d="M 76.400,112.583 l 7.200,0.000 M 88.400,101.152 l -2.700,-4.677 M 93.200,103.923 a 5.543,5.543 0 0,1 -4.800,-2.771 M 93.200,103.923 l 5.400,0.000">
<desc>Y13</desc>
</path>
<path stroke="olive" stroke-width="2" stroke-linecap="round"
      fill="none" d="M 44.300,113.796 l -3.600,6.235 M 44.300,96.475 l -3.600,6.235 M 59.300,105.135 l -3.600,6.235">
<desc>Y23</desc>
</path>
</g>
</svg>
