<?xml version="1.0" standalone="no"?>
<!-- Created by Polyform Puzzler (http://puzzler.sourceforge.net/) -->
<svg width="415.692" height="415.692"
     viewBox="0 0 415.692 415.692"
     xmlns="http://www.w3.org/2000/svg"
     xmlns:xlink="http://www.w3.org/1999/xlink">
<g transform="translate(207.846,103.923) rotate(30)">
<path stroke="cyan" stroke-width="2" stroke-linecap="round"
      fill="none" d="M 28.400,127.133 l -2.700,-4.677 M 33.200,129.904 a 5.543,5.543 0 0,1 -4.800,-2.771 M 33.200,129.904 l 3.600,0.000 M 41.600,127.133 a 5.543,5.543 0 0,1 -4.800,2.771 M 44.300,122.456 l -2.700,4.677">
<desc>C03</desc>
</path>
<path stroke="darkorange" stroke-width="2" stroke-linecap="round"
      fill="none" d="M 14.300,122.456 l -3.600,6.235 M 16.400,138.564 l 5.400,0.000 M 26.600,135.793 a 5.543,5.543 0 0,1 -4.800,2.771 M 29.300,131.116 l -2.700,4.677">
<desc>C13</desc>
</path>
<path stroke="blue" stroke-width="2" stroke-linecap="round"
      fill="none" d="M 59.300,59.409 l -3.600,-6.235 M 61.400,43.301 l 7.200,0.000 M 74.300,53.174 l -3.600,6.235">
<desc>C23</desc>
</path>
<path stroke="red" stroke-width="2" stroke-linecap="round"
      fill="none" d="M 61.400,95.263 l 7.200,0.000 M 74.300,120.031 l -3.600,-6.235 M 76.400,103.923 l 7.200,0.000">
<desc>H13</desc>
</path>
<path stroke="green" stroke-width="2" stroke-linecap="round"
      fill="none" d="M 74.300,50.749 l -3.600,-6.235 M 74.300,68.070 l -3.600,-6.235 M 74.300,85.390 l -3.600,-6.235">
<desc>I13</desc>
</path>
<path stroke="blueviolet" stroke-width="2" stroke-linecap="round"
      fill="none" d="M 14.300,137.352 l -3.600,-6.235 M 16.400,121.244 l 5.400,0.000 M 26.600,118.472 a 5.543,5.543 0 0,1 -4.800,2.771 M 29.300,113.796 l -2.700,4.677">
<desc>P13</desc>
</path>
<path stroke="peru" stroke-width="2" stroke-linecap="round"
      fill="none" d="M 106.400,138.564 l 5.400,0.000 M 116.600,135.793 a 5.543,5.543 0 0,1 -4.800,2.771 M 119.300,131.116 l -2.700,4.677 M 91.400,129.904 l 7.200,0.000">
<desc>P23</desc>
</path>
<path stroke="navy" stroke-width="2" stroke-linecap="round"
      fill="none" d="M 44.300,120.031 l -3.600,-6.235 M 46.400,103.923 l 7.200,0.000 M 61.400,112.583 l 7.200,0.000">
<desc>P33</desc>
</path>
<path stroke="magenta" stroke-width="2" stroke-linecap="round"
      fill="none" d="M 101.600,132.675 a 5.543,5.543 0 0,1 0.000,-5.543 M 103.400,118.472 a 5.543,5.543 0 0,1 0.000,5.543 M 103.400,118.472 l -2.700,-4.677 M 103.400,124.015 l -1.800,3.118 M 104.300,137.352 l -2.700,-4.677">
<desc>S03</desc>
</path>
<path stroke="turquoise" stroke-width="2" stroke-linecap="round"
      fill="none" d="M 59.300,61.834 l -3.600,6.235 M 61.400,77.942 l 7.200,0.000 M 74.300,87.815 l -3.600,6.235">
<desc>S13</desc>
</path>
<path stroke="brown" stroke-width="2" stroke-linecap="round"
      fill="none" d="M 59.300,44.514 l -3.600,6.235 M 59.300,76.730 l -3.600,-6.235 M 61.400,60.622 l 7.200,0.000">
<desc>T13</desc>
</path>
<path stroke="cadetblue" stroke-width="2" stroke-linecap="round"
      fill="none" d="M 59.300,79.155 l -3.600,6.235 M 59.300,96.475 l -3.600,6.235 M 74.300,70.494 l -3.600,6.235">
<desc>U13</desc>
</path>
<path stroke="teal" stroke-width="2" stroke-linecap="round"
      fill="none" d="M 106.400,121.244 l 5.400,0.000 M 111.800,121.244 a 5.543,5.543 0 0,1 4.800,2.771 M 119.300,128.691 l -2.700,-4.677 M 91.400,112.583 l 7.200,0.000">
<desc>W13</desc>
</path>
<path stroke="plum" stroke-width="2" stroke-linecap="round"
      fill="none" d="M 59.300,113.796 l -3.600,6.235 M 74.300,105.135 l -3.600,6.235 M 89.300,111.371 l -3.600,-6.235">
<desc>W23</desc>
</path>
<path stroke="lime" stroke-width="2" stroke-linecap="round"
      fill="none" d="M 76.400,121.244 l 5.400,0.000 M 81.800,121.244 a 5.543,5.543 0 0,1 4.800,2.771 M 86.600,118.472 a 5.543,5.543 0 0,1 -4.800,2.771 M 86.600,124.015 a 5.543,5.543 0 0,1 0.000,-5.543 M 89.300,113.796 l -2.700,4.677 M 89.300,128.691 l -2.700,-4.677">
<desc>Y03</desc>
</path>
<path stroke="darkgreen" stroke-width="2" stroke-linecap="round"
      fill="none" d="M 31.400,112.583 l 5.400,0.000 M 41.600,109.812 a 5.543,5.543 0 0,1 -4.800,2.771 M 44.300,105.135 l -2.700,4.677 M 46.400,121.244 l 7.200,0.000">
<desc>Y13</desc>
</path>
<path stroke="olive" stroke-width="2" stroke-linecap="round"
      fill="none" d="M 59.300,111.371 l -3.600,-6.235 M 59.300,94.050 l -3.600,-6.235 M 74.300,102.711 l -3.600,-6.235">
<desc>Y23</desc>
</path>
</g>
</svg>
