<?xml version="1.0" standalone="no"?>
<!-- Created by Polyform Puzzler (http://puzzler.sourceforge.net/) -->
<svg width="311.769" height="311.769"
     viewBox="0 0 311.769 311.769"
     xmlns="http://www.w3.org/2000/svg"
     xmlns:xlink="http://www.w3.org/1999/xlink">
<g transform="translate(155.885,77.942) rotate(30)">
<path stroke="cyan" stroke-width="2" stroke-linecap="round"
      fill="none" d="M 61.400,112.583 l 5.400,0.000 M 71.600,109.812 a 5.543,5.543 0 0,1 -4.800,2.771 M 73.400,101.152 a 5.543,5.543 0 0,1 0.000,5.543 M 73.400,101.152 l -2.700,-4.677 M 73.400,106.694 l -1.800,3.118">
<desc>C03</desc>
</path>
<path stroke="darkorange" stroke-width="2" stroke-linecap="round"
      fill="none" d="M 76.400,103.923 l 5.400,0.000 M 76.400,86.603 l 7.200,0.000 M 86.600,101.152 a 5.543,5.543 0 0,1 -4.800,2.771 M 89.300,96.475 l -2.700,4.677">
<desc>C13</desc>
</path>
<path stroke="blue" stroke-width="2" stroke-linecap="round"
      fill="none" d="M 74.300,35.853 l -3.600,6.235 M 76.400,51.962 l 7.200,0.000 M 89.300,42.089 l -3.600,-6.235">
<desc>C23</desc>
</path>
<path stroke="red" stroke-width="2" stroke-linecap="round"
      fill="none" d="M 46.400,86.603 l 7.200,0.000 M 59.300,96.475 l -3.600,6.235 M 61.400,77.942 l 7.200,0.000">
<desc>H13</desc>
</path>
<path stroke="green" stroke-width="2" stroke-linecap="round"
      fill="none" d="M 31.400,60.622 l 7.200,0.000 M 46.400,51.962 l 7.200,0.000 M 61.400,43.301 l 7.200,0.000">
<desc>I13</desc>
</path>
<path stroke="blueviolet" stroke-width="2" stroke-linecap="round"
      fill="none" d="M 59.300,111.371 l -3.600,-6.235 M 61.400,95.263 l 5.400,0.000 M 71.600,92.492 a 5.543,5.543 0 0,1 -4.800,2.771 M 74.300,87.815 l -2.700,4.677">
<desc>P13</desc>
</path>
<path stroke="peru" stroke-width="2" stroke-linecap="round"
      fill="none" d="M 71.600,80.714 a 5.543,5.543 0 0,1 0.000,-5.543 M 74.300,70.494 l -2.700,4.677 M 74.300,85.390 l -2.700,-4.677 M 89.300,94.050 l -3.600,-6.235">
<desc>P23</desc>
</path>
<path stroke="navy" stroke-width="2" stroke-linecap="round"
      fill="none" d="M 14.300,70.494 l -3.600,6.235 M 16.400,51.962 l 7.200,0.000 M 29.300,61.834 l -3.600,6.235">
<desc>P33</desc>
</path>
<path stroke="magenta" stroke-width="2" stroke-linecap="round"
      fill="none" d="M 61.400,25.981 l 5.400,0.000 M 66.800,25.981 a 5.543,5.543 0 0,1 4.800,2.771 M 73.400,31.870 l -1.800,-3.118 M 78.200,34.641 a 5.543,5.543 0 0,1 -4.800,-2.771 M 78.200,34.641 l 5.400,0.000">
<desc>S03</desc>
</path>
<path stroke="turquoise" stroke-width="2" stroke-linecap="round"
      fill="none" d="M 59.300,44.514 l -3.600,6.235 M 74.300,50.749 l -3.600,-6.235 M 89.300,44.514 l -3.600,6.235">
<desc>S13</desc>
</path>
<path stroke="brown" stroke-width="2" stroke-linecap="round"
      fill="none" d="M 14.300,53.174 l -3.600,6.235 M 14.300,85.390 l -3.600,-6.235 M 16.400,69.282 l 7.200,0.000">
<desc>T13</desc>
</path>
<path stroke="cadetblue" stroke-width="2" stroke-linecap="round"
      fill="none" d="M 29.300,79.155 l -3.600,6.235 M 44.300,53.174 l -3.600,6.235 M 44.300,70.494 l -3.600,6.235">
<desc>U13</desc>
</path>
<path stroke="teal" stroke-width="2" stroke-linecap="round"
      fill="none" d="M 56.600,37.412 a 5.543,5.543 0 0,1 0.000,-5.543 M 59.300,27.193 l -2.700,4.677 M 59.300,42.089 l -2.700,-4.677 M 59.300,59.409 l -3.600,-6.235">
<desc>W13</desc>
</path>
<path stroke="plum" stroke-width="2" stroke-linecap="round"
      fill="none" d="M 16.400,86.603 l 7.200,0.000 M 31.400,77.942 l 7.200,0.000 M 44.300,68.070 l -3.600,-6.235">
<desc>W23</desc>
</path>
<path stroke="lime" stroke-width="2" stroke-linecap="round"
      fill="none" d="M 61.400,60.622 l 5.400,0.000 M 66.800,60.622 a 5.543,5.543 0 0,1 4.800,2.771 M 71.600,57.850 a 5.543,5.543 0 0,1 -4.800,2.771 M 71.600,63.393 a 5.543,5.543 0 0,1 0.000,-5.543 M 74.300,53.174 l -2.700,4.677 M 74.300,68.070 l -2.700,-4.677">
<desc>Y03</desc>
</path>
<path stroke="darkgreen" stroke-width="2" stroke-linecap="round"
      fill="none" d="M 44.300,85.390 l -3.600,-6.235 M 56.600,89.374 a 5.543,5.543 0 0,1 0.000,-5.543 M 59.300,79.155 l -2.700,4.677 M 59.300,94.050 l -2.700,-4.677">
<desc>Y13</desc>
</path>
<path stroke="olive" stroke-width="2" stroke-linecap="round"
      fill="none" d="M 14.300,68.070 l -3.600,-6.235 M 29.300,59.409 l -3.600,-6.235 M 29.300,76.730 l -3.600,-6.235">
<desc>Y23</desc>
</path>
</g>
</svg>
