<?xml version="1.0" standalone="no"?>
<!-- Created by Polyform Puzzler (http://puzzler.sourceforge.net/) -->
<svg width="165.000" height="190.526"
     viewBox="0 0 165.000 190.526"
     xmlns="http://www.w3.org/2000/svg"
     xmlns:xlink="http://www.w3.org/1999/xlink">
<g>
<path stroke="cyan" stroke-width="2" stroke-linecap="round"
      fill="none" d="M 136.400,86.603 l 5.400,0.000 M 141.800,86.603 a 5.543,5.543 0 0,1 4.800,2.771 M 148.400,92.492 a 5.543,5.543 0 0,1 0.000,5.543 M 148.400,92.492 l -1.800,-3.118 M 148.400,98.034 l -2.700,4.677">
<desc>C03</desc>
</path>
<path stroke="darkorange" stroke-width="2" stroke-linecap="round"
      fill="none" d="M 118.400,92.492 l -2.700,-4.677 M 123.200,95.263 a 5.543,5.543 0 0,1 -4.800,-2.771 M 123.200,95.263 l 5.400,0.000 M 134.300,85.390 l -3.600,-6.235">
<desc>C13</desc>
</path>
<path stroke="darkblue" stroke-width="2" stroke-linecap="round"
      fill="none" d="M 121.400,77.942 l 7.200,0.000 M 134.300,87.815 l -3.600,6.235">
<desc>C2</desc>
</path>
<path stroke="blue" stroke-width="2" stroke-linecap="round"
      fill="none" d="M 59.300,96.475 l -3.600,6.235 M 61.400,112.583 l 7.200,0.000 M 74.300,102.711 l -3.600,-6.235">
<desc>C23</desc>
</path>
<path stroke="red" stroke-width="2" stroke-linecap="round"
      fill="none" d="M 104.300,105.135 l -3.600,6.235 M 119.300,96.475 l -3.600,6.235 M 121.400,112.583 l 7.200,0.000">
<desc>H13</desc>
</path>
<path stroke="steelblue" stroke-width="2" stroke-linecap="round"
      fill="none" d="M 119.300,111.371 l -3.600,-6.235">
<desc>I1</desc>
</path>
<path stroke="green" stroke-width="2" stroke-linecap="round"
      fill="none" d="M 104.300,87.815 l -3.600,6.235 M 119.300,79.155 l -3.600,6.235 M 89.300,96.475 l -3.600,6.235">
<desc>I13</desc>
</path>
<path stroke="khaki" stroke-width="2" stroke-linecap="round"
      fill="none" d="M 88.400,109.812 l -2.700,-4.677 M 93.200,112.583 a 5.543,5.543 0 0,1 -4.800,-2.771 M 93.200,112.583 l 5.400,0.000">
<desc>L2</desc>
</path>
<path stroke="blueviolet" stroke-width="2" stroke-linecap="round"
      fill="none" d="M 73.400,83.831 a 5.543,5.543 0 0,1 0.000,5.543 M 73.400,83.831 l -2.700,-4.677 M 73.400,89.374 l -2.700,4.677 M 76.400,103.923 l 7.200,0.000">
<desc>P13</desc>
</path>
<path stroke="peru" stroke-width="2" stroke-linecap="round"
      fill="none" d="M 104.300,102.711 l -3.600,-6.235 M 86.600,89.374 a 5.543,5.543 0 0,1 0.000,-5.543 M 89.300,79.155 l -2.700,4.677 M 89.300,94.050 l -2.700,-4.677">
<desc>P23</desc>
</path>
<path stroke="navy" stroke-width="2" stroke-linecap="round"
      fill="none" d="M 59.300,111.371 l -3.600,-6.235 M 59.300,94.050 l -3.600,-6.235 M 74.300,105.135 l -3.600,6.235">
<desc>P33</desc>
</path>
<path stroke="magenta" stroke-width="2" stroke-linecap="round"
      fill="none" d="M 103.400,83.831 l -1.800,-3.118 M 108.200,86.603 a 5.543,5.543 0 0,1 -4.800,-2.771 M 108.200,86.603 l 5.400,0.000 M 91.400,77.942 l 5.400,0.000 M 96.800,77.942 a 5.543,5.543 0 0,1 4.800,2.771">
<desc>S03</desc>
</path>
<path stroke="turquoise" stroke-width="2" stroke-linecap="round"
      fill="none" d="M 14.300,102.711 l -3.600,-6.235 M 29.300,96.475 l -3.600,6.235 M 44.300,102.711 l -3.600,-6.235">
<desc>S13</desc>
</path>
<path stroke="darkred" stroke-width="2" stroke-linecap="round"
      fill="none" d="M 106.400,103.923 l 7.200,0.000 M 91.400,95.263 l 7.200,0.000">
<desc>S2</desc>
</path>
<path stroke="brown" stroke-width="2" stroke-linecap="round"
      fill="none" d="M 44.300,85.390 l -3.600,-6.235 M 59.300,79.155 l -3.600,6.235 M 61.400,95.263 l 7.200,0.000">
<desc>T13</desc>
</path>
<path stroke="cadetblue" stroke-width="2" stroke-linecap="round"
      fill="none" d="M 46.400,86.603 l 7.200,0.000 M 61.400,77.942 l 7.200,0.000 M 76.400,86.603 l 7.200,0.000">
<desc>U13</desc>
</path>
<path stroke="teal" stroke-width="2" stroke-linecap="round"
      fill="none" d="M 26.600,89.374 a 5.543,5.543 0 0,1 0.000,-5.543 M 29.300,111.371 l -3.600,-6.235 M 29.300,79.155 l -2.700,4.677 M 29.300,94.050 l -2.700,-4.677">
<desc>W13</desc>
</path>
<path stroke="plum" stroke-width="2" stroke-linecap="round"
      fill="none" d="M 14.300,87.815 l -3.600,6.235 M 16.400,103.923 l 7.200,0.000 M 31.400,112.583 l 7.200,0.000">
<desc>W23</desc>
</path>
<path stroke="lime" stroke-width="2" stroke-linecap="round"
      fill="none" d="M 133.400,101.152 a 5.543,5.543 0 0,1 0.000,5.543 M 133.400,101.152 l -2.700,-4.677 M 133.400,106.694 a 5.543,5.543 0 0,1 4.800,-2.771 M 133.400,106.694 l -2.700,4.677 M 138.200,103.923 a 5.543,5.543 0 0,1 -4.800,-2.771 M 138.200,103.923 l 5.400,0.000">
<desc>Y03</desc>
</path>
<path stroke="darkgreen" stroke-width="2" stroke-linecap="round"
      fill="none" d="M 43.400,106.694 a 5.543,5.543 0 0,1 4.800,-2.771 M 43.400,106.694 l -2.700,4.677 M 44.300,87.815 l -3.600,6.235 M 48.200,103.923 l 5.400,0.000">
<desc>Y13</desc>
</path>
<path stroke="olive" stroke-width="2" stroke-linecap="round"
      fill="none" d="M 16.400,86.603 l 7.200,0.000 M 31.400,77.942 l 7.200,0.000 M 31.400,95.263 l 7.200,0.000">
<desc>Y23</desc>
</path>
</g>
</svg>
