<?xml version="1.0" standalone="no"?>
<!-- Created by Polyform Puzzler (http://puzzler.sourceforge.net/) -->
<svg width="360.000" height="360.000"
     viewBox="0 0 360.000 360.000"
     xmlns="http://www.w3.org/2000/svg"
     xmlns:xlink="http://www.w3.org/1999/xlink">
<g transform="translate(180.000,90.000) rotate(30)">
<path stroke="cyan" stroke-width="2" stroke-linecap="round"
      fill="none" d="M 151.400,34.641 l 5.400,0.000 M 161.600,31.870 a 5.543,5.543 0 0,1 -4.800,2.771 M 163.400,23.209 a 5.543,5.543 0 0,1 0.000,5.543 M 163.400,23.209 l -2.700,-4.677 M 163.400,28.752 l -1.800,3.118">
<desc>C03</desc>
</path>
<path stroke="darkorange" stroke-width="2" stroke-linecap="round"
      fill="none" d="M 133.400,40.530 l -2.700,-4.677 M 138.200,43.301 a 5.543,5.543 0 0,1 -4.800,-2.771 M 138.200,43.301 l 5.400,0.000 M 149.300,33.429 l -3.600,-6.235">
<desc>C13</desc>
</path>
<path stroke="blue" stroke-width="2" stroke-linecap="round"
      fill="none" d="M 14.300,111.371 l -3.600,-6.235 M 16.400,95.263 l 7.200,0.000 M 29.300,105.135 l -3.600,6.235">
<desc>C23</desc>
</path>
<path stroke="red" stroke-width="2" stroke-linecap="round"
      fill="none" d="M 136.400,25.981 l 7.200,0.000 M 149.300,35.853 l -3.600,6.235 M 151.400,17.321 l 7.200,0.000">
<desc>H13</desc>
</path>
<path stroke="green" stroke-width="2" stroke-linecap="round"
      fill="none" d="M 119.300,35.853 l -3.600,6.235 M 134.300,27.193 l -3.600,6.235 M 149.300,18.533 l -3.600,6.235">
<desc>I13</desc>
</path>
<path stroke="blueviolet" stroke-width="2" stroke-linecap="round"
      fill="none" d="M 29.300,102.711 l -3.600,-6.235 M 31.400,86.603 l 5.400,0.000 M 41.600,83.831 a 5.543,5.543 0 0,1 -4.800,2.771 M 44.300,79.155 l -2.700,4.677">
<desc>P13</desc>
</path>
<path stroke="peru" stroke-width="2" stroke-linecap="round"
      fill="none" d="M 106.400,60.622 l 7.200,0.000 M 88.400,66.511 l -2.700,-4.677 M 93.200,69.282 a 5.543,5.543 0 0,1 -4.800,-2.771 M 93.200,69.282 l 5.400,0.000">
<desc>P23</desc>
</path>
<path stroke="navy" stroke-width="2" stroke-linecap="round"
      fill="none" d="M 14.300,96.475 l -3.600,6.235 M 16.400,112.583 l 7.200,0.000 M 31.400,103.923 l 7.200,0.000">
<desc>P33</desc>
</path>
<path stroke="magenta" stroke-width="2" stroke-linecap="round"
      fill="none" d="M 118.400,54.733 a 5.543,5.543 0 0,1 4.800,-2.771 M 118.400,54.733 l -2.700,4.677 M 123.200,51.962 l 3.600,0.000 M 131.600,49.190 a 5.543,5.543 0 0,1 -4.800,2.771 M 134.300,44.514 l -2.700,4.677">
<desc>S03</desc>
</path>
<path stroke="turquoise" stroke-width="2" stroke-linecap="round"
      fill="none" d="M 29.300,87.815 l -3.600,6.235 M 44.300,94.050 l -3.600,-6.235 M 59.300,87.815 l -3.600,6.235">
<desc>S13</desc>
</path>
<path stroke="brown" stroke-width="2" stroke-linecap="round"
      fill="none" d="M 104.300,44.514 l -3.600,6.235 M 119.300,50.749 l -3.600,-6.235 M 121.400,34.641 l 7.200,0.000">
<desc>T13</desc>
</path>
<path stroke="maroon" stroke-width="2" stroke-linecap="round"
      fill="none" d="M 74.300,61.834 l -3.600,6.235 M 74.300,79.155 l -3.600,6.235 M 89.300,53.174 l -3.600,6.235">
<desc>U13</desc>
</path>
<path stroke="teal" stroke-width="2" stroke-linecap="round"
      fill="none" d="M 43.400,98.034 a 5.543,5.543 0 0,1 4.800,-2.771 M 43.400,98.034 l -2.700,4.677 M 48.200,95.263 l 5.400,0.000 M 61.400,86.603 l 7.200,0.000">
<desc>W13</desc>
</path>
<path stroke="plum" stroke-width="2" stroke-linecap="round"
      fill="none" d="M 104.300,61.834 l -3.600,6.235 M 74.300,76.730 l -3.600,-6.235 M 89.300,70.494 l -3.600,6.235">
<desc>W23</desc>
</path>
<path stroke="lime" stroke-width="2" stroke-linecap="round"
      fill="none" d="M 46.400,77.942 l 5.400,0.000 M 51.800,77.942 a 5.543,5.543 0 0,1 4.800,2.771 M 56.600,75.171 a 5.543,5.543 0 0,1 -4.800,2.771 M 56.600,80.714 a 5.543,5.543 0 0,1 0.000,-5.543 M 59.300,70.494 l -2.700,4.677 M 59.300,85.390 l -2.700,-4.677">
<desc>Y03</desc>
</path>
<path stroke="darkgreen" stroke-width="2" stroke-linecap="round"
      fill="none" d="M 104.300,59.409 l -2.700,-4.677 M 106.400,43.301 l 7.200,0.000 M 91.400,51.962 l 5.400,0.000 M 96.800,51.962 a 5.543,5.543 0 0,1 4.800,2.771">
<desc>Y13</desc>
</path>
<path stroke="olive" stroke-width="2" stroke-linecap="round"
      fill="none" d="M 61.400,69.282 l 7.200,0.000 M 76.400,60.622 l 7.200,0.000 M 76.400,77.942 l 7.200,0.000">
<desc>Y23</desc>
</path>
</g>
</svg>
