<?xml version="1.0" standalone="no"?>
<!-- Created by Polyform Puzzler (http://puzzler.sourceforge.net/) -->
<svg width="623.538" height="623.538"
     viewBox="0 0 623.538 623.538"
     xmlns="http://www.w3.org/2000/svg"
     xmlns:xlink="http://www.w3.org/1999/xlink">
<g transform="translate(311.769,155.885) rotate(30)">
<path stroke="cyan" stroke-width="2" stroke-linecap="round"
      fill="none" d="M 26.600,262.579 a 5.543,5.543 0 0,1 0.000,-5.543 M 28.400,265.697 l -1.800,-3.118 M 29.300,252.360 l -2.700,4.677 M 33.200,268.468 a 5.543,5.543 0 0,1 -4.800,-2.771 M 33.200,268.468 l 5.400,0.000">
<desc>C03</desc>
</path>
<path stroke="darkorange" stroke-width="2" stroke-linecap="round"
      fill="none" d="M 58.400,265.697 l -2.700,-4.677 M 61.400,251.147 l 7.200,0.000 M 63.200,268.468 a 5.543,5.543 0 0,1 -4.800,-2.771 M 63.200,268.468 l 5.400,0.000">
<desc>C13</desc>
</path>
<path stroke="blue" stroke-width="2" stroke-linecap="round"
      fill="none" d="M 74.300,241.275 l -3.600,-6.235 M 76.400,225.167 l 7.200,0.000 M 89.300,235.039 l -3.600,6.235">
<desc>C23</desc>
</path>
<path stroke="red" stroke-width="2" stroke-linecap="round"
      fill="none" d="M 59.300,249.935 l -3.600,-6.235 M 74.300,243.700 l -3.600,6.235 M 74.300,261.020 l -3.600,6.235">
<desc>H13</desc>
</path>
<path stroke="green" stroke-width="2" stroke-linecap="round"
      fill="none" d="M 59.300,217.719 l -3.600,6.235 M 59.300,235.039 l -3.600,6.235 M 59.300,252.360 l -3.600,6.235">
<desc>I13</desc>
</path>
<path stroke="blueviolet" stroke-width="2" stroke-linecap="round"
      fill="none" d="M 31.400,199.186 l 5.400,0.000 M 36.800,199.186 a 5.543,5.543 0 0,1 4.800,2.771 M 44.300,206.634 l -2.700,-4.677 M 59.300,200.398 l -3.600,6.235">
<desc>P13</desc>
</path>
<path stroke="peru" stroke-width="2" stroke-linecap="round"
      fill="none" d="M 46.400,207.846 l 7.200,0.000 M 61.400,199.186 l 5.400,0.000 M 66.800,199.186 a 5.543,5.543 0 0,1 4.800,2.771 M 74.300,206.634 l -2.700,-4.677">
<desc>P23</desc>
</path>
<path stroke="navy" stroke-width="2" stroke-linecap="round"
      fill="none" d="M 44.300,209.059 l -3.600,6.235 M 46.400,225.167 l 7.200,0.000 M 61.400,216.506 l 7.200,0.000">
<desc>P33</desc>
</path>
<path stroke="magenta" stroke-width="2" stroke-linecap="round"
      fill="none" d="M 71.600,219.278 a 5.543,5.543 0 0,1 0.000,-5.543 M 73.400,222.395 a 5.543,5.543 0 0,1 0.000,5.543 M 73.400,222.395 l -1.800,-3.118 M 73.400,227.938 l -2.700,4.677 M 74.300,209.059 l -2.700,4.677">
<desc>S03</desc>
</path>
<path stroke="turquoise" stroke-width="2" stroke-linecap="round"
      fill="none" d="M 74.300,258.595 l -3.600,-6.235 M 76.400,242.487 l 7.200,0.000 M 89.300,232.614 l -3.600,-6.235">
<desc>S13</desc>
</path>
<path stroke="brown" stroke-width="2" stroke-linecap="round"
      fill="none" d="M 14.300,241.275 l -3.600,-6.235 M 29.300,235.039 l -3.600,6.235 M 31.400,251.147 l 7.200,0.000">
<desc>T13</desc>
</path>
<path stroke="cadetblue" stroke-width="2" stroke-linecap="round"
      fill="none" d="M 14.300,226.379 l -3.600,6.235 M 29.300,200.398 l -3.600,6.235 M 29.300,217.719 l -3.600,6.235">
<desc>U13</desc>
</path>
<path stroke="teal" stroke-width="2" stroke-linecap="round"
      fill="none" d="M 16.400,242.487 l 7.200,0.000 M 31.400,233.827 l 5.400,0.000 M 41.600,231.056 a 5.543,5.543 0 0,1 -4.800,2.771 M 44.300,226.379 l -2.700,4.677">
<desc>W13</desc>
</path>
<path stroke="plum" stroke-width="2" stroke-linecap="round"
      fill="none" d="M 46.400,242.487 l 7.200,0.000 M 59.300,215.294 l -3.600,-6.235 M 59.300,232.614 l -3.600,-6.235">
<desc>W23</desc>
</path>
<path stroke="lime" stroke-width="2" stroke-linecap="round"
      fill="none" d="M 43.400,257.036 a 5.543,5.543 0 0,1 0.000,5.543 M 43.400,257.036 l -2.700,-4.677 M 43.400,262.579 a 5.543,5.543 0 0,1 4.800,-2.771 M 43.400,262.579 l -2.700,4.677 M 48.200,259.808 a 5.543,5.543 0 0,1 -4.800,-2.771 M 48.200,259.808 l 5.400,0.000">
<desc>Y03</desc>
</path>
<path stroke="darkgreen" stroke-width="2" stroke-linecap="round"
      fill="none" d="M 16.400,225.167 l 7.200,0.000 M 28.400,213.735 l -2.700,-4.677 M 33.200,216.506 a 5.543,5.543 0 0,1 -4.800,-2.771 M 33.200,216.506 l 5.400,0.000">
<desc>Y13</desc>
</path>
<path stroke="olive" stroke-width="2" stroke-linecap="round"
      fill="none" d="M 29.300,232.614 l -3.600,-6.235 M 29.300,249.935 l -3.600,-6.235 M 44.300,241.275 l -3.600,-6.235">
<desc>Y23</desc>
</path>
</g>
</svg>
