<?xml version="1.0" standalone="no"?>
<!-- Created by Polyform Puzzler (http://puzzler.sourceforge.net/) -->
<svg width="363.731" height="363.731"
     viewBox="0 0 363.731 363.731"
     xmlns="http://www.w3.org/2000/svg"
     xmlns:xlink="http://www.w3.org/1999/xlink">
<g transform="translate(181.865,90.933) rotate(30)">
<path stroke="cyan" stroke-width="2" stroke-linecap="round"
      fill="none" d="M 101.600,118.472 a 5.543,5.543 0 0,1 -4.800,2.771 M 103.400,109.812 a 5.543,5.543 0 0,1 0.000,5.543 M 103.400,109.812 l -2.700,-4.677 M 103.400,115.355 l -1.800,3.118 M 91.400,121.244 l 5.400,0.000">
<desc>C03</desc>
</path>
<path stroke="darkorange" stroke-width="2" stroke-linecap="round"
      fill="none" d="M 74.300,113.796 l -3.600,6.235 M 76.400,129.904 l 5.400,0.000 M 86.600,127.133 a 5.543,5.543 0 0,1 -4.800,2.771 M 89.300,122.456 l -2.700,4.677">
<desc>C13</desc>
</path>
<path stroke="blue" stroke-width="2" stroke-linecap="round"
      fill="none" d="M 14.300,131.116 l -3.600,6.235 M 16.400,147.224 l 7.200,0.000 M 29.300,137.352 l -3.600,-6.235">
<desc>C23</desc>
</path>
<path stroke="red" stroke-width="2" stroke-linecap="round"
      fill="none" d="M 74.300,111.371 l -3.600,-6.235 M 89.300,120.031 l -3.600,-6.235 M 91.400,103.923 l 7.200,0.000">
<desc>H13</desc>
</path>
<path stroke="green" stroke-width="2" stroke-linecap="round"
      fill="none" d="M 16.400,129.904 l 7.200,0.000 M 31.400,121.244 l 7.200,0.000 M 46.400,112.583 l 7.200,0.000">
<desc>I13</desc>
</path>
<path stroke="blueviolet" stroke-width="2" stroke-linecap="round"
      fill="none" d="M 74.300,128.691 l -3.600,-6.235 M 76.400,112.583 l 5.400,0.000 M 86.600,109.812 a 5.543,5.543 0 0,1 -4.800,2.771 M 89.300,105.135 l -2.700,4.677">
<desc>P13</desc>
</path>
<path stroke="peru" stroke-width="2" stroke-linecap="round"
      fill="none" d="M 28.400,54.733 a 5.543,5.543 0 0,1 4.800,-2.771 M 28.400,54.733 l -2.700,4.677 M 33.200,51.962 l 5.400,0.000 M 46.400,60.622 l 7.200,0.000">
<desc>P23</desc>
</path>
<path stroke="navy" stroke-width="2" stroke-linecap="round"
      fill="none" d="M 14.300,128.691 l -3.600,-6.235 M 14.300,146.012 l -3.600,-6.235 M 29.300,139.777 l -3.600,6.235">
<desc>P33</desc>
</path>
<path stroke="magenta" stroke-width="2" stroke-linecap="round"
      fill="none" d="M 13.400,115.355 a 5.543,5.543 0 0,1 4.800,-2.771 M 13.400,115.355 l -2.700,4.677 M 18.200,112.583 l 3.600,0.000 M 26.600,109.812 a 5.543,5.543 0 0,1 -4.800,2.771 M 29.300,105.135 l -2.700,4.677">
<desc>S03</desc>
</path>
<path stroke="turquoise" stroke-width="2" stroke-linecap="round"
      fill="none" d="M 29.300,120.031 l -3.600,-6.235 M 31.400,103.923 l 7.200,0.000 M 44.300,94.050 l -3.600,-6.235">
<desc>S13</desc>
</path>
<path stroke="brown" stroke-width="2" stroke-linecap="round"
      fill="none" d="M 29.300,68.070 l -3.600,-6.235 M 44.300,61.834 l -3.600,6.235 M 46.400,77.942 l 7.200,0.000">
<desc>T13</desc>
</path>
<path stroke="cadetblue" stroke-width="2" stroke-linecap="round"
      fill="none" d="M 29.300,122.456 l -3.600,6.235 M 44.300,113.796 l -3.600,6.235 M 44.300,96.475 l -3.600,6.235">
<desc>U13</desc>
</path>
<path stroke="teal" stroke-width="2" stroke-linecap="round"
      fill="none" d="M 44.300,111.371 l -3.600,-6.235 M 58.400,118.472 l -2.700,-4.677 M 63.200,121.244 a 5.543,5.543 0 0,1 -4.800,-2.771 M 63.200,121.244 l 5.400,0.000">
<desc>W13</desc>
</path>
<path stroke="plum" stroke-width="2" stroke-linecap="round"
      fill="none" d="M 46.400,95.263 l 7.200,0.000 M 59.300,68.070 l -3.600,-6.235 M 59.300,85.390 l -3.600,-6.235">
<desc>W23</desc>
</path>
<path stroke="lime" stroke-width="2" stroke-linecap="round"
      fill="none" d="M 58.400,101.152 a 5.543,5.543 0 0,1 0.000,5.543 M 58.400,101.152 l -2.700,-4.677 M 58.400,106.694 a 5.543,5.543 0 0,1 4.800,-2.771 M 58.400,106.694 l -2.700,4.677 M 63.200,103.923 a 5.543,5.543 0 0,1 -4.800,-2.771 M 63.200,103.923 l 5.400,0.000">
<desc>Y03</desc>
</path>
<path stroke="darkgreen" stroke-width="2" stroke-linecap="round"
      fill="none" d="M 31.400,69.282 l 5.400,0.000 M 36.800,69.282 a 5.543,5.543 0 0,1 4.800,2.771 M 44.300,59.409 l -3.600,-6.235 M 44.300,76.730 l -2.700,-4.677">
<desc>Y13</desc>
</path>
<path stroke="olive" stroke-width="2" stroke-linecap="round"
      fill="none" d="M 44.300,79.155 l -3.600,6.235 M 59.300,70.494 l -3.600,6.235 M 59.300,87.815 l -3.600,6.235">
<desc>Y23</desc>
</path>
</g>
</svg>
