<?xml version="1.0" standalone="no"?>
<!-- Created by Polyform Puzzler (http://puzzler.sourceforge.net/) -->
<svg width="105.000" height="155.885"
     viewBox="0 0 105.000 155.885"
     xmlns="http://www.w3.org/2000/svg"
     xmlns:xlink="http://www.w3.org/1999/xlink">
<g>
<path stroke="cyan" stroke-width="2" stroke-linecap="round"
      fill="none" d="M 61.400,95.263 l 5.400,0.000 M 66.800,95.263 a 5.543,5.543 0 0,1 4.800,2.771 M 73.400,101.152 a 5.543,5.543 0 0,1 0.000,5.543 M 73.400,101.152 l -1.800,-3.118 M 73.400,106.694 l -2.700,4.677">
<desc>C03</desc>
</path>
<path stroke="darkorange" stroke-width="2" stroke-linecap="round"
      fill="none" d="M 43.400,118.472 l -2.700,-4.677 M 46.400,103.923 l 7.200,0.000 M 48.200,121.244 a 5.543,5.543 0 0,1 -4.800,-2.771 M 48.200,121.244 l 5.400,0.000">
<desc>C13</desc>
</path>
<path stroke="darkblue" stroke-width="2" stroke-linecap="round"
      fill="none" d="M 76.400,86.603 l 7.200,0.000 M 89.300,96.475 l -3.600,6.235">
<desc>C2</desc>
</path>
<path stroke="blue" stroke-width="2" stroke-linecap="round"
      fill="none" d="M 74.300,87.815 l -3.600,6.235 M 76.400,103.923 l 7.200,0.000 M 89.300,94.050 l -3.600,-6.235">
<desc>C23</desc>
</path>
<path stroke="red" stroke-width="2" stroke-linecap="round"
      fill="none" d="M 31.400,95.263 l 7.200,0.000 M 44.300,105.135 l -3.600,6.235 M 59.300,96.475 l -3.600,6.235">
<desc>H13</desc>
</path>
<path stroke="steelblue" stroke-width="2" stroke-linecap="round"
      fill="none" d="M 44.300,102.711 l -3.600,-6.235">
<desc>I1</desc>
</path>
<path stroke="green" stroke-width="2" stroke-linecap="round"
      fill="none" d="M 29.300,59.409 l -3.600,-6.235 M 29.300,76.730 l -3.600,-6.235 M 29.300,94.050 l -3.600,-6.235">
<desc>I13</desc>
</path>
<path stroke="khaki" stroke-width="2" stroke-linecap="round"
      fill="none" d="M 28.400,109.812 l -2.700,-4.677 M 33.200,112.583 a 5.543,5.543 0 0,1 -4.800,-2.771 M 33.200,112.583 l 5.400,0.000">
<desc>L2</desc>
</path>
<path stroke="blueviolet" stroke-width="2" stroke-linecap="round"
      fill="none" d="M 13.400,83.831 a 5.543,5.543 0 0,1 0.000,5.543 M 13.400,83.831 l -2.700,-4.677 M 13.400,89.374 l -2.700,4.677 M 16.400,103.923 l 7.200,0.000">
<desc>P13</desc>
</path>
<path stroke="peru" stroke-width="2" stroke-linecap="round"
      fill="none" d="M 13.400,66.511 l -2.700,-4.677 M 18.200,69.282 a 5.543,5.543 0 0,1 -4.800,-2.771 M 18.200,69.282 l 5.400,0.000 M 31.400,60.622 l 7.200,0.000">
<desc>P23</desc>
</path>
<path stroke="navy" stroke-width="2" stroke-linecap="round"
      fill="none" d="M 14.300,102.711 l -3.600,-6.235 M 29.300,79.155 l -3.600,6.235 M 29.300,96.475 l -3.600,6.235">
<desc>P33</desc>
</path>
<path stroke="magenta" stroke-width="2" stroke-linecap="round"
      fill="none" d="M 86.600,72.053 a 5.543,5.543 0 0,1 0.000,-5.543 M 88.400,75.171 a 5.543,5.543 0 0,1 0.000,5.543 M 88.400,75.171 l -1.800,-3.118 M 88.400,80.714 l -2.700,4.677 M 89.300,61.834 l -2.700,4.677">
<desc>S03</desc>
</path>
<path stroke="turquoise" stroke-width="2" stroke-linecap="round"
      fill="none" d="M 74.300,85.390 l -3.600,-6.235 M 76.400,69.282 l 7.200,0.000 M 89.300,59.409 l -3.600,-6.235">
<desc>S13</desc>
</path>
<path stroke="darkred" stroke-width="2" stroke-linecap="round"
      fill="none" d="M 29.300,61.834 l -3.600,6.235 M 44.300,53.174 l -3.600,6.235">
<desc>S2</desc>
</path>
<path stroke="brown" stroke-width="2" stroke-linecap="round"
      fill="none" d="M 61.400,60.622 l 7.200,0.000 M 74.300,50.749 l -3.600,-6.235 M 74.300,70.494 l -3.600,6.235">
<desc>T13</desc>
</path>
<path stroke="cadetblue" stroke-width="2" stroke-linecap="round"
      fill="none" d="M 59.300,42.089 l -3.600,-6.235 M 59.300,59.409 l -3.600,-6.235 M 74.300,68.070 l -3.600,-6.235">
<desc>U13</desc>
</path>
<path stroke="teal" stroke-width="2" stroke-linecap="round"
      fill="none" d="M 16.400,51.962 l 5.400,0.000 M 26.600,49.190 a 5.543,5.543 0 0,1 -4.800,2.771 M 29.300,44.514 l -2.700,4.677 M 44.300,35.853 l -3.600,6.235">
<desc>W13</desc>
</path>
<path stroke="plum" stroke-width="2" stroke-linecap="round"
      fill="none" d="M 14.300,53.174 l -3.600,6.235 M 14.300,70.494 l -3.600,6.235 M 16.400,86.603 l 7.200,0.000">
<desc>W23</desc>
</path>
<path stroke="lime" stroke-width="2" stroke-linecap="round"
      fill="none" d="M 58.400,109.812 a 5.543,5.543 0 0,1 0.000,5.543 M 58.400,109.812 l -2.700,-4.677 M 58.400,115.355 a 5.543,5.543 0 0,1 4.800,-2.771 M 58.400,115.355 l -2.700,4.677 M 63.200,112.583 a 5.543,5.543 0 0,1 -4.800,-2.771 M 63.200,112.583 l 5.400,0.000">
<desc>Y03</desc>
</path>
<path stroke="darkgreen" stroke-width="2" stroke-linecap="round"
      fill="none" d="M 61.400,43.301 l 7.200,0.000 M 73.400,54.733 a 5.543,5.543 0 0,1 4.800,-2.771 M 73.400,54.733 l -2.700,4.677 M 78.200,51.962 l 5.400,0.000">
<desc>Y13</desc>
</path>
<path stroke="olive" stroke-width="2" stroke-linecap="round"
      fill="none" d="M 31.400,43.301 l 7.200,0.000 M 46.400,34.641 l 7.200,0.000 M 46.400,51.962 l 7.200,0.000">
<desc>Y23</desc>
</path>
</g>
</svg>
