<?xml version="1.0" standalone="no"?>
<!-- Created by Polyform Puzzler (http://puzzler.sourceforge.net/) -->
<svg width="240.000" height="240.000"
     viewBox="0 0 240.000 240.000"
     xmlns="http://www.w3.org/2000/svg"
     xmlns:xlink="http://www.w3.org/1999/xlink">
<g transform="translate(120.000,60.000) rotate(30)">
<path stroke="cyan" stroke-width="2" stroke-linecap="round"
      fill="none" d="M 11.600,89.374 a 5.543,5.543 0 0,1 0.000,-5.543 M 13.400,92.492 l -1.800,-3.118 M 14.300,79.155 l -2.700,4.677 M 18.200,95.263 a 5.543,5.543 0 0,1 -4.800,-2.771 M 18.200,95.263 l 5.400,0.000">
<desc>C03</desc>
</path>
<path stroke="darkorange" stroke-width="2" stroke-linecap="round"
      fill="none" d="M 13.400,75.171 l -2.700,-4.677 M 16.400,60.622 l 7.200,0.000 M 18.200,77.942 a 5.543,5.543 0 0,1 -4.800,-2.771 M 18.200,77.942 l 5.400,0.000">
<desc>C13</desc>
</path>
<path stroke="blue" stroke-width="2" stroke-linecap="round"
      fill="none" d="M 59.300,35.853 l -3.600,6.235 M 61.400,51.962 l 7.200,0.000 M 74.300,42.089 l -3.600,-6.235">
<desc>C23</desc>
</path>
<path stroke="red" stroke-width="2" stroke-linecap="round"
      fill="none" d="M 14.300,61.834 l -3.600,6.235 M 29.300,53.174 l -3.600,6.235 M 31.400,69.282 l 7.200,0.000">
<desc>H13</desc>
</path>
<path stroke="green" stroke-width="2" stroke-linecap="round"
      fill="none" d="M 29.300,70.494 l -3.600,6.235 M 44.300,61.834 l -3.600,6.235 M 59.300,53.174 l -3.600,6.235">
<desc>I13</desc>
</path>
<path stroke="blueviolet" stroke-width="2" stroke-linecap="round"
      fill="none" d="M 29.300,68.070 l -3.600,-6.235 M 31.400,51.962 l 5.400,0.000 M 41.600,49.190 a 5.543,5.543 0 0,1 -4.800,2.771 M 44.300,44.514 l -2.700,4.677">
<desc>P13</desc>
</path>
<path stroke="peru" stroke-width="2" stroke-linecap="round"
      fill="none" d="M 44.300,79.155 l -3.600,6.235 M 58.400,66.511 a 5.543,5.543 0 0,1 0.000,5.543 M 58.400,66.511 l -2.700,-4.677 M 58.400,72.053 l -2.700,4.677">
<desc>P23</desc>
</path>
<path stroke="navy" stroke-width="2" stroke-linecap="round"
      fill="none" d="M 74.300,59.409 l -3.600,-6.235 M 89.300,35.853 l -3.600,6.235 M 89.300,53.174 l -3.600,6.235">
<desc>P33</desc>
</path>
<path stroke="magenta" stroke-width="2" stroke-linecap="round"
      fill="none" d="M 101.600,37.412 a 5.543,5.543 0 0,1 0.000,-5.543 M 103.400,23.209 a 5.543,5.543 0 0,1 0.000,5.543 M 103.400,23.209 l -2.700,-4.677 M 103.400,28.752 l -1.800,3.118 M 104.300,42.089 l -2.700,-4.677">
<desc>S03</desc>
</path>
<path stroke="turquoise" stroke-width="2" stroke-linecap="round"
      fill="none" d="M 44.300,76.730 l -3.600,-6.235 M 46.400,60.622 l 7.200,0.000 M 59.300,50.749 l -3.600,-6.235">
<desc>S13</desc>
</path>
<path stroke="brown" stroke-width="2" stroke-linecap="round"
      fill="none" d="M 104.300,44.514 l -3.600,6.235 M 76.400,60.622 l 7.200,0.000 M 89.300,50.749 l -3.600,-6.235">
<desc>T13</desc>
</path>
<path stroke="maroon" stroke-width="2" stroke-linecap="round"
      fill="none" d="M 74.300,27.193 l -3.600,6.235 M 74.300,44.514 l -3.600,6.235 M 89.300,18.533 l -3.600,6.235">
<desc>U13</desc>
</path>
<path stroke="teal" stroke-width="2" stroke-linecap="round"
      fill="none" d="M 46.400,77.942 l 7.200,0.000 M 61.400,69.282 l 5.400,0.000 M 71.600,66.511 a 5.543,5.543 0 0,1 -4.800,2.771 M 74.300,61.834 l -2.700,4.677">
<desc>W13</desc>
</path>
<path stroke="plum" stroke-width="2" stroke-linecap="round"
      fill="none" d="M 44.300,59.409 l -3.600,-6.235 M 46.400,43.301 l 7.200,0.000 M 61.400,34.641 l 7.200,0.000">
<desc>W23</desc>
</path>
<path stroke="lime" stroke-width="2" stroke-linecap="round"
      fill="none" d="M 28.400,83.831 a 5.543,5.543 0 0,1 0.000,5.543 M 28.400,83.831 l -2.700,-4.677 M 28.400,89.374 a 5.543,5.543 0 0,1 4.800,-2.771 M 28.400,89.374 l -2.700,4.677 M 33.200,86.603 a 5.543,5.543 0 0,1 -4.800,-2.771 M 33.200,86.603 l 5.400,0.000">
<desc>Y03</desc>
</path>
<path stroke="darkgreen" stroke-width="2" stroke-linecap="round"
      fill="none" d="M 76.400,25.981 l 5.400,0.000 M 81.800,25.981 a 5.543,5.543 0 0,1 4.800,2.771 M 89.300,33.429 l -2.700,-4.677 M 91.400,17.321 l 7.200,0.000">
<desc>Y13</desc>
</path>
<path stroke="olive" stroke-width="2" stroke-linecap="round"
      fill="none" d="M 76.400,43.301 l 7.200,0.000 M 91.400,34.641 l 7.200,0.000 M 91.400,51.962 l 7.200,0.000">
<desc>Y23</desc>
</path>
</g>
</svg>
