<?xml version="1.0" standalone="no"?>
<!-- Created by Polyform Puzzler (http://puzzler.sourceforge.net/) -->
<svg width="259.808" height="259.808"
     viewBox="0 0 259.808 259.808"
     xmlns="http://www.w3.org/2000/svg"
     xmlns:xlink="http://www.w3.org/1999/xlink">
<g transform="translate(129.904,64.952) rotate(30)">
<path stroke="cyan" stroke-width="2" stroke-linecap="round"
      fill="none" d="M 11.600,106.694 a 5.543,5.543 0 0,1 0.000,-5.543 M 13.400,109.812 l -1.800,-3.118 M 14.300,96.475 l -2.700,4.677 M 18.200,112.583 a 5.543,5.543 0 0,1 -4.800,-2.771 M 18.200,112.583 l 5.400,0.000">
<desc>C03</desc>
</path>
<path stroke="darkorange" stroke-width="2" stroke-linecap="round"
      fill="none" d="M 28.400,89.374 a 5.543,5.543 0 0,1 4.800,-2.771 M 28.400,89.374 l -2.700,4.677 M 33.200,86.603 l 5.400,0.000 M 44.300,96.475 l -3.600,6.235">
<desc>C13</desc>
</path>
<path stroke="darkblue" stroke-width="2" stroke-linecap="round"
      fill="none" d="M 14.300,79.155 l -3.600,6.235 M 16.400,95.263 l 7.200,0.000">
<desc>C2</desc>
</path>
<path stroke="blue" stroke-width="2" stroke-linecap="round"
      fill="none" d="M 44.300,79.155 l -3.600,6.235 M 46.400,95.263 l 7.200,0.000 M 59.300,85.390 l -3.600,-6.235">
<desc>C23</desc>
</path>
<path stroke="red" stroke-width="2" stroke-linecap="round"
      fill="none" d="M 14.300,76.730 l -3.600,-6.235 M 14.300,94.050 l -3.600,-6.235 M 29.300,70.494 l -3.600,6.235">
<desc>H13</desc>
</path>
<path stroke="steelblue" stroke-width="2" stroke-linecap="round"
      fill="none" d="M 44.300,94.050 l -3.600,-6.235">
<desc>I1</desc>
</path>
<path stroke="green" stroke-width="2" stroke-linecap="round"
      fill="none" d="M 16.400,77.942 l 7.200,0.000 M 31.400,69.282 l 7.200,0.000 M 46.400,60.622 l 7.200,0.000">
<desc>I13</desc>
</path>
<path stroke="khaki" stroke-width="2" stroke-linecap="round"
      fill="none" d="M 31.400,51.962 l 5.400,0.000 M 41.600,49.190 a 5.543,5.543 0 0,1 -4.800,2.771 M 44.300,44.514 l -2.700,4.677">
<desc>L2</desc>
</path>
<path stroke="blueviolet" stroke-width="2" stroke-linecap="round"
      fill="none" d="M 43.400,57.850 a 5.543,5.543 0 0,1 0.000,5.543 M 43.400,57.850 l -2.700,-4.677 M 43.400,63.393 l -2.700,4.677 M 46.400,77.942 l 7.200,0.000">
<desc>P13</desc>
</path>
<path stroke="peru" stroke-width="2" stroke-linecap="round"
      fill="none" d="M 16.400,60.622 l 5.400,0.000 M 21.800,60.622 a 5.543,5.543 0 0,1 4.800,2.771 M 29.300,68.070 l -2.700,-4.677 M 29.300,85.390 l -3.600,-6.235">
<desc>P23</desc>
</path>
<path stroke="navy" stroke-width="2" stroke-linecap="round"
      fill="none" d="M 59.300,87.815 l -3.600,6.235 M 61.400,69.282 l 7.200,0.000 M 74.300,79.155 l -3.600,6.235">
<desc>P33</desc>
</path>
<path stroke="magenta" stroke-width="2" stroke-linecap="round"
      fill="none" d="M 46.400,43.301 l 5.400,0.000 M 56.600,40.530 a 5.543,5.543 0 0,1 -4.800,2.771 M 58.400,37.412 a 5.543,5.543 0 0,1 4.800,-2.771 M 58.400,37.412 l -1.800,3.118 M 63.200,34.641 l 5.400,0.000">
<desc>S03</desc>
</path>
<path stroke="turquoise" stroke-width="2" stroke-linecap="round"
      fill="none" d="M 104.300,61.834 l -3.600,6.235 M 74.300,61.834 l -3.600,6.235 M 89.300,68.070 l -3.600,-6.235">
<desc>S13</desc>
</path>
<path stroke="darkred" stroke-width="2" stroke-linecap="round"
      fill="none" d="M 14.300,61.834 l -3.600,6.235 M 29.300,53.174 l -3.600,6.235">
<desc>S2</desc>
</path>
<path stroke="brown" stroke-width="2" stroke-linecap="round"
      fill="none" d="M 61.400,86.603 l 7.200,0.000 M 74.300,76.730 l -3.600,-6.235 M 89.300,70.494 l -3.600,6.235">
<desc>T13</desc>
</path>
<path stroke="cadetblue" stroke-width="2" stroke-linecap="round"
      fill="none" d="M 59.300,53.174 l -3.600,6.235 M 59.300,70.494 l -3.600,6.235 M 74.300,44.514 l -3.600,6.235">
<desc>U13</desc>
</path>
<path stroke="teal" stroke-width="2" stroke-linecap="round"
      fill="none" d="M 58.400,49.190 l -2.700,-4.677 M 63.200,51.962 a 5.543,5.543 0 0,1 -4.800,-2.771 M 63.200,51.962 l 5.400,0.000 M 76.400,60.622 l 7.200,0.000">
<desc>W13</desc>
</path>
<path stroke="plum" stroke-width="2" stroke-linecap="round"
      fill="none" d="M 104.300,59.409 l -3.600,-6.235 M 76.400,77.942 l 7.200,0.000 M 91.400,69.282 l 7.200,0.000">
<desc>W23</desc>
</path>
<path stroke="lime" stroke-width="2" stroke-linecap="round"
      fill="none" d="M 28.400,101.152 a 5.543,5.543 0 0,1 0.000,5.543 M 28.400,101.152 l -2.700,-4.677 M 28.400,106.694 a 5.543,5.543 0 0,1 4.800,-2.771 M 28.400,106.694 l -2.700,4.677 M 33.200,103.923 a 5.543,5.543 0 0,1 -4.800,-2.771 M 33.200,103.923 l 5.400,0.000">
<desc>Y03</desc>
</path>
<path stroke="darkgreen" stroke-width="2" stroke-linecap="round"
      fill="none" d="M 76.400,43.301 l 7.200,0.000 M 88.400,54.733 a 5.543,5.543 0 0,1 4.800,-2.771 M 88.400,54.733 l -2.700,4.677 M 93.200,51.962 l 5.400,0.000">
<desc>Y13</desc>
</path>
<path stroke="olive" stroke-width="2" stroke-linecap="round"
      fill="none" d="M 74.300,42.089 l -3.600,-6.235 M 74.300,59.409 l -3.600,-6.235 M 89.300,50.749 l -3.600,-6.235">
<desc>Y23</desc>
</path>
</g>
</svg>
