<?xml version="1.0" standalone="no"?>
<!-- Created by Polyform Puzzler (http://puzzler.sourceforge.net/) -->
<svg width="75.000" height="86.603"
     viewBox="0 0 75.000 86.603"
     xmlns="http://www.w3.org/2000/svg"
     xmlns:xlink="http://www.w3.org/1999/xlink">
<g>
<path stroke="darkorange" stroke-width="2" stroke-linecap="round"
      fill="none" d="M 13.400,49.190 l -2.700,-4.677 M 18.200,51.962 a 5.543,5.543 0 0,1 -4.800,-2.771 M 18.200,51.962 l 3.600,0.000 M 26.600,49.190 a 5.543,5.543 0 0,1 -4.800,2.771 M 28.400,40.530 a 5.543,5.543 0 0,1 0.000,5.543 M 28.400,40.530 l -2.700,-4.677 M 28.400,46.073 l -1.800,3.118">
<desc>C4</desc>
</path>
<path stroke="blueviolet" stroke-width="2" stroke-linecap="round"
      fill="none" d="M 43.400,31.870 l -2.700,-4.677 M 48.200,34.641 a 5.543,5.543 0 0,1 -4.800,-2.771 M 48.200,34.641 l 3.600,0.000 M 51.800,34.641 a 5.543,5.543 0 0,1 4.800,2.771 M 58.400,40.530 a 5.543,5.543 0 0,1 0.000,5.543 M 58.400,40.530 l -1.800,-3.118 M 58.400,46.073 l -2.700,4.677">
<desc>P4</desc>
</path>
<path stroke="teal" stroke-width="2" stroke-linecap="round"
      fill="none" d="M 13.400,37.412 a 5.543,5.543 0 0,1 4.800,-2.771 M 13.400,37.412 l -2.700,4.677 M 18.200,34.641 l 3.600,0.000 M 26.600,31.870 a 5.543,5.543 0 0,1 -4.800,2.771 M 28.400,28.752 a 5.543,5.543 0 0,1 4.800,-2.771 M 28.400,28.752 l -1.800,3.118 M 33.200,25.981 l 5.400,0.000">
<desc>W4</desc>
</path>
<path stroke="darkgreen" stroke-width="2" stroke-linecap="round"
      fill="none" d="M 31.400,43.301 l 5.400,0.000 M 36.800,43.301 a 5.543,5.543 0 0,1 4.800,2.771 M 41.600,40.530 a 5.543,5.543 0 0,1 -4.800,2.771 M 41.600,46.073 a 5.543,5.543 0 0,1 0.000,-5.543 M 43.400,49.190 l -1.800,-3.118 M 44.300,35.853 l -2.700,4.677 M 48.200,51.962 a 5.543,5.543 0 0,1 -4.800,-2.771 M 48.200,51.962 l 5.400,0.000">
<desc>Y4</desc>
</path>
</g>
</svg>
