<?xml version="1.0" standalone="no"?>
<!-- Created by Polyform Puzzler (http://puzzler.sourceforge.net/) -->
<svg width="660.000" height="660.000"
     viewBox="0 0 660.000 660.000"
     xmlns="http://www.w3.org/2000/svg"
     xmlns:xlink="http://www.w3.org/1999/xlink">
<g transform="translate(330.000,165.000) rotate(90)">
<polygon fill="lime" stroke="white"
         stroke-width="1" stroke-linejoin="round"
         points="145.000,242.487 150.000,251.147 160.000,251.147 155.000,242.487 160.000,233.827 170.000,233.827 165.000,225.167 155.000,225.167">
<desc>C7</desc>
</polygon>
<polygon fill="green" stroke="white"
         stroke-width="1" stroke-linejoin="round"
         points="155.000,242.487 160.000,251.147 180.000,251.147 170.000,233.827 160.000,233.827">
<desc>D7</desc>
</polygon>
<polygon fill="magenta" stroke="white"
         stroke-width="1" stroke-linejoin="round"
         points="140.000,233.827 145.000,242.487 155.000,225.167 165.000,225.167 155.000,207.846">
<desc>P7</desc>
</polygon>
<polygon fill="red" stroke="white"
         stroke-width="1" stroke-linejoin="round"
         points="135.000,225.167 140.000,233.827 150.000,216.506 140.000,216.506 145.000,207.846 125.000,207.846">
<desc>M7</desc>
</polygon>
<polygon fill="steelblue" stroke="white"
         stroke-width="1" stroke-linejoin="round"
         points="140.000,216.506 150.000,216.506 155.000,207.846 140.000,181.865 135.000,190.526 145.000,207.846">
<desc>L7</desc>
</polygon>
<polygon fill="olive" stroke="white"
         stroke-width="1" stroke-linejoin="round"
         points="120.000,199.186 125.000,207.846 145.000,207.846 140.000,199.186 130.000,199.186 120.000,181.865 115.000,190.526">
<desc>R7</desc>
</polygon>
<polygon fill="gray" stroke="white"
         stroke-width="1" stroke-linejoin="round"
         points="125.000,190.526 130.000,199.186 140.000,199.186 135.000,190.526 140.000,181.865 130.000,164.545 125.000,173.205 130.000,181.865">
<desc>N7</desc>
</polygon>
<polygon fill="yellow" stroke="white"
         stroke-width="1" stroke-linejoin="round"
         points="110.000,181.865 115.000,190.526 120.000,181.865 125.000,190.526 130.000,181.865 125.000,173.205 130.000,164.545 120.000,164.545">
<desc>Y7</desc>
</polygon>
<polygon fill="lightcoral" stroke="white"
         stroke-width="1" stroke-linejoin="round"
         points="105.000,173.205 110.000,181.865 120.000,164.545 130.000,164.545 125.000,155.885 115.000,155.885 110.000,164.545 100.000,164.545">
<desc>Q7</desc>
</polygon>
<polygon fill="navy" stroke="white"
         stroke-width="1" stroke-linejoin="round"
         points="95.000,155.885 100.000,164.545 110.000,164.545 115.000,155.885 125.000,155.885 120.000,147.224 110.000,147.224 105.000,155.885 100.000,147.224">
<desc>S7</desc>
</polygon>
<polygon fill="orangered" stroke="white"
         stroke-width="1" stroke-linejoin="round"
         points="90.000,147.224 95.000,155.885 100.000,147.224 105.000,155.885 110.000,147.224 105.000,138.564 95.000,138.564 90.000,129.904 85.000,138.564">
<desc>Z7</desc>
</polygon>
<polygon fill="teal" stroke="white"
         stroke-width="1" stroke-linejoin="round"
         points="105.000,138.564 110.000,147.224 120.000,147.224 110.000,129.904 115.000,121.244 105.000,121.244 95.000,138.564">
<desc>T7</desc>
</polygon>
<polygon fill="plum" stroke="white"
         stroke-width="1" stroke-linejoin="round"
         points="80.000,129.904 85.000,138.564 90.000,129.904 95.000,138.564 105.000,121.244 95.000,121.244 90.000,112.583">
<desc>B7</desc>
</polygon>
<polygon fill="gold" stroke="white"
         stroke-width="1" stroke-linejoin="round"
         points="90.000,112.583 95.000,121.244 115.000,121.244 110.000,112.583 100.000,112.583 105.000,103.923 100.000,95.263">
<desc>V7</desc>
</polygon>
<polygon fill="indigo" stroke="white"
         stroke-width="1" stroke-linejoin="round"
         points="110.000,112.583 115.000,121.244 125.000,103.923 115.000,103.923 110.000,95.263 100.000,95.263 105.000,103.923 100.000,112.583">
<desc>X7</desc>
</polygon>
<polygon fill="blueviolet" stroke="white"
         stroke-width="1" stroke-linejoin="round"
         points="110.000,95.263 115.000,103.923 125.000,103.923 120.000,95.263 125.000,86.603 120.000,77.942 115.000,86.603 105.000,86.603 100.000,95.263">
<desc>W7</desc>
</polygon>
<polygon fill="turquoise" stroke="white"
         stroke-width="1" stroke-linejoin="round"
         points="120.000,95.263 125.000,103.923 140.000,77.942 130.000,77.942 125.000,69.282 120.000,77.942 125.000,86.603">
<desc>H7</desc>
</polygon>
<polygon fill="blue" stroke="white"
         stroke-width="1" stroke-linejoin="round"
         points="105.000,86.603 115.000,86.603 130.000,60.622 125.000,51.962">
<desc>I7</desc>
</polygon>
<polygon fill="yellowgreen" stroke="white"
         stroke-width="1" stroke-linejoin="round"
         points="125.000,69.282 130.000,77.942 140.000,77.942 150.000,60.622 145.000,51.962 135.000,69.282 130.000,60.622">
<desc>J7</desc>
</polygon>
<polygon fill="tan" stroke="white"
         stroke-width="1" stroke-linejoin="round"
         points="130.000,60.622 135.000,69.282 145.000,51.962 135.000,51.962 140.000,43.301 135.000,34.641 125.000,51.962">
<desc>U7</desc>
</polygon>
<polygon fill="peru" stroke="white"
         stroke-width="1" stroke-linejoin="round"
         points="145.000,51.962 150.000,60.622 160.000,43.301 155.000,34.641 145.000,34.641 150.000,43.301 140.000,43.301 135.000,51.962">
<desc>A7</desc>
</polygon>
<polygon fill="darkseagreen" stroke="white"
         stroke-width="1" stroke-linejoin="round"
         points="135.000,34.641 140.000,43.301 150.000,43.301 145.000,34.641 155.000,34.641 150.000,25.981 155.000,17.321 145.000,17.321">
<desc>F7</desc>
</polygon>
<polygon fill="maroon" stroke="white"
         stroke-width="1" stroke-linejoin="round"
         points="155.000,34.641 160.000,43.301 175.000,17.321 165.000,17.321 160.000,25.981 155.000,17.321 150.000,25.981">
<desc>G7</desc>
</polygon>
<polygon fill="darkorange" stroke="white"
         stroke-width="1" stroke-linejoin="round"
         points="155.000,17.321 160.000,25.981 165.000,17.321 175.000,17.321 180.000,8.660 150.000,8.660 145.000,17.321">
<desc>E7</desc>
</polygon>
</g>
</svg>
