<?xml version="1.0" standalone="no"?>
<!-- Created by Polyform Puzzler (http://puzzler.sourceforge.net/) -->
<svg width="260.0" height="155.884572681" viewBox="0 0 260.0 155.884572681"
     xmlns="http://www.w3.org/2000/svg"
     xmlns:xlink="http://www.w3.org/1999/xlink">
<g>
<polygon fill="turquoise" stroke="white"
         stroke-width="1" stroke-linejoin="round"
         points="125.000,138.564 130.000,147.224 145.000,121.244 135.000,121.244 130.000,112.583 125.000,121.244 130.000,129.904">
<desc>H7</desc>
</polygon>
<polygon fill="steelblue" stroke="white"
         stroke-width="1" stroke-linejoin="round"
         points="120.000,129.904 125.000,138.564 130.000,129.904 120.000,112.583 125.000,103.923 115.000,103.923 110.000,112.583">
<desc>L7</desc>
</polygon>
<polygon fill="navy" stroke="white"
         stroke-width="1" stroke-linejoin="round"
         points="120.000,112.583 125.000,121.244 130.000,112.583 140.000,112.583 145.000,103.923 140.000,95.263 130.000,95.263 135.000,103.923 125.000,103.923">
<desc>S7</desc>
</polygon>
<polygon fill="lightcoral" stroke="white"
         stroke-width="1" stroke-linejoin="round"
         points="130.000,112.583 135.000,121.244 145.000,121.244 150.000,112.583 160.000,112.583 150.000,95.263 140.000,112.583">
<desc>Q7</desc>
</polygon>
<polygon fill="magenta" stroke="white"
         stroke-width="1" stroke-linejoin="round"
         points="70.000,112.583 100.000,112.583 105.000,103.923 85.000,103.923 80.000,95.263">
<desc>P7</desc>
</polygon>
<polygon fill="olive" stroke="white"
         stroke-width="1" stroke-linejoin="round"
         points="100.000,112.583 110.000,112.583 115.000,103.923 135.000,103.923 130.000,95.263 110.000,95.263">
<desc>R7</desc>
</polygon>
<polygon fill="lime" stroke="white"
         stroke-width="1" stroke-linejoin="round"
         points="155.000,103.923 160.000,112.583 170.000,112.583 165.000,103.923 170.000,95.263 180.000,95.263 175.000,86.603 165.000,86.603">
<desc>C7</desc>
</polygon>
<polygon fill="green" stroke="white"
         stroke-width="1" stroke-linejoin="round"
         points="165.000,103.923 170.000,112.583 190.000,112.583 180.000,95.263 170.000,95.263">
<desc>D7</desc>
</polygon>
<polygon fill="gold" stroke="white"
         stroke-width="1" stroke-linejoin="round"
         points="80.000,95.263 85.000,103.923 105.000,103.923 100.000,95.263 90.000,95.263 95.000,86.603 90.000,77.942">
<desc>V7</desc>
</polygon>
<polygon fill="indigo" stroke="white"
         stroke-width="1" stroke-linejoin="round"
         points="100.000,95.263 105.000,103.923 110.000,95.263 120.000,95.263 110.000,77.942 105.000,86.603 95.000,86.603 90.000,95.263">
<desc>X7</desc>
</polygon>
<polygon fill="plum" stroke="white"
         stroke-width="1" stroke-linejoin="round"
         points="140.000,95.263 145.000,103.923 150.000,95.263 155.000,103.923 165.000,86.603 155.000,86.603 150.000,77.942">
<desc>B7</desc>
</polygon>
<polygon fill="darkseagreen" stroke="white"
         stroke-width="1" stroke-linejoin="round"
         points="90.000,77.942 95.000,86.603 105.000,86.603 115.000,69.282 110.000,60.622 105.000,69.282 95.000,69.282 100.000,77.942">
<desc>F7</desc>
</polygon>
<polygon fill="teal" stroke="white"
         stroke-width="1" stroke-linejoin="round"
         points="150.000,77.942 155.000,86.603 175.000,86.603 170.000,77.942 175.000,69.282 170.000,60.622 160.000,77.942">
<desc>T7</desc>
</polygon>
<polygon fill="yellow" stroke="white"
         stroke-width="1" stroke-linejoin="round"
         points="85.000,69.282 90.000,77.942 100.000,77.942 95.000,69.282 105.000,69.282 100.000,60.622 90.000,60.622 85.000,51.962 80.000,60.622">
<desc>Y7</desc>
</polygon>
<polygon fill="yellowgreen" stroke="white"
         stroke-width="1" stroke-linejoin="round"
         points="145.000,69.282 150.000,77.942 160.000,77.942 165.000,69.282 155.000,69.282 165.000,51.962 155.000,51.962">
<desc>J7</desc>
</polygon>
<polygon fill="orangered" stroke="white"
         stroke-width="1" stroke-linejoin="round"
         points="100.000,60.622 105.000,69.282 110.000,60.622 115.000,69.282 125.000,51.962 120.000,43.301 115.000,51.962 105.000,51.962">
<desc>Z7</desc>
</polygon>
<polygon fill="peru" stroke="white"
         stroke-width="1" stroke-linejoin="round"
         points="140.000,60.622 145.000,69.282 155.000,51.962 150.000,43.301 140.000,43.301 145.000,51.962 135.000,51.962 130.000,60.622">
<desc>A7</desc>
</polygon>
<polygon fill="tan" stroke="white"
         stroke-width="1" stroke-linejoin="round"
         points="155.000,69.282 165.000,69.282 170.000,60.622 175.000,69.282 185.000,51.962 165.000,51.962">
<desc>U7</desc>
</polygon>
<polygon fill="red" stroke="white"
         stroke-width="1" stroke-linejoin="round"
         points="75.000,51.962 80.000,60.622 85.000,51.962 90.000,60.622 100.000,43.301 70.000,43.301">
<desc>M7</desc>
</polygon>
<polygon fill="gray" stroke="white"
         stroke-width="1" stroke-linejoin="round"
         points="90.000,60.622 100.000,60.622 105.000,51.962 115.000,51.962 120.000,43.301 115.000,34.641 110.000,43.301 100.000,43.301">
<desc>N7</desc>
</polygon>
<polygon fill="blueviolet" stroke="white"
         stroke-width="1" stroke-linejoin="round"
         points="120.000,60.622 130.000,60.622 135.000,51.962 145.000,51.962 140.000,43.301 130.000,43.301 125.000,34.641 120.000,43.301 125.000,51.962">
<desc>W7</desc>
</polygon>
<polygon fill="blue" stroke="white"
         stroke-width="1" stroke-linejoin="round"
         points="150.000,43.301 155.000,51.962 185.000,51.962 190.000,43.301">
<desc>I7</desc>
</polygon>
<polygon fill="darkorange" stroke="white"
         stroke-width="1" stroke-linejoin="round"
         points="115.000,34.641 120.000,43.301 125.000,34.641 135.000,34.641 130.000,25.981 135.000,17.321 130.000,8.660">
<desc>E7</desc>
</polygon>
<polygon fill="maroon" stroke="white"
         stroke-width="1" stroke-linejoin="round"
         points="125.000,34.641 130.000,43.301 150.000,43.301 135.000,17.321 130.000,25.981 135.000,34.641">
<desc>G7</desc>
</polygon>
</g>
</svg>
