<?xml version="1.0" standalone="no"?>
<!-- Created by Polyform Puzzler (http://puzzler.sourceforge.net/) -->
<svg width="270.0" height="51.9615242271" viewBox="0 0 270.0 51.9615242271"
     xmlns="http://www.w3.org/2000/svg"
     xmlns:xlink="http://www.w3.org/1999/xlink">
<g>
<polygon fill="green" stroke="white"
         stroke-width="1" stroke-linejoin="round"
         points="10.000,43.301 30.000,43.301 35.000,34.641 30.000,25.981 20.000,25.981">
<desc>D7</desc>
</polygon>
<polygon fill="teal" stroke="white"
         stroke-width="1" stroke-linejoin="round"
         points="30.000,43.301 50.000,43.301 55.000,34.641 45.000,34.641 35.000,17.321 30.000,25.981 35.000,34.641">
<desc>T7</desc>
</polygon>
<polygon fill="blue" stroke="white"
         stroke-width="1" stroke-linejoin="round"
         points="50.000,43.301 90.000,43.301 85.000,34.641 55.000,34.641">
<desc>I7</desc>
</polygon>
<polygon fill="blueviolet" stroke="white"
         stroke-width="1" stroke-linejoin="round"
         points="85.000,34.641 90.000,43.301 100.000,43.301 95.000,34.641 100.000,25.981 95.000,17.321 90.000,25.981 80.000,25.981 75.000,34.641">
<desc>W7</desc>
</polygon>
<polygon fill="yellowgreen" stroke="white"
         stroke-width="1" stroke-linejoin="round"
         points="95.000,34.641 100.000,43.301 110.000,43.301 120.000,25.981 115.000,17.321 105.000,34.641 100.000,25.981">
<desc>J7</desc>
</polygon>
<polygon fill="lightcoral" stroke="white"
         stroke-width="1" stroke-linejoin="round"
         points="110.000,43.301 130.000,43.301 125.000,34.641 130.000,25.981 125.000,17.321 115.000,17.321 120.000,25.981">
<desc>Q7</desc>
</polygon>
<polygon fill="steelblue" stroke="white"
         stroke-width="1" stroke-linejoin="round"
         points="125.000,34.641 130.000,43.301 160.000,43.301 155.000,34.641 135.000,34.641 130.000,25.981">
<desc>L7</desc>
</polygon>
<polygon fill="gray" stroke="white"
         stroke-width="1" stroke-linejoin="round"
         points="155.000,34.641 160.000,43.301 180.000,43.301 175.000,34.641 165.000,34.641 160.000,25.981 150.000,25.981 145.000,34.641">
<desc>N7</desc>
</polygon>
<polygon fill="peru" stroke="white"
         stroke-width="1" stroke-linejoin="round"
         points="175.000,34.641 180.000,43.301 200.000,43.301 195.000,34.641 200.000,25.981 190.000,25.981 185.000,34.641 180.000,25.981">
<desc>A7</desc>
</polygon>
<polygon fill="darkseagreen" stroke="white"
         stroke-width="1" stroke-linejoin="round"
         points="195.000,34.641 200.000,43.301 210.000,43.301 205.000,34.641 215.000,34.641 210.000,25.981 215.000,17.321 205.000,17.321">
<desc>F7</desc>
</polygon>
<polygon fill="darkorange" stroke="white"
         stroke-width="1" stroke-linejoin="round"
         points="205.000,34.641 210.000,43.301 240.000,43.301 235.000,34.641 225.000,34.641 220.000,25.981 215.000,34.641">
<desc>E7</desc>
</polygon>
<polygon fill="tan" stroke="white"
         stroke-width="1" stroke-linejoin="round"
         points="40.000,25.981 45.000,34.641 65.000,34.641 60.000,25.981 50.000,25.981 55.000,17.321 35.000,17.321">
<desc>U7</desc>
</polygon>
<polygon fill="indigo" stroke="white"
         stroke-width="1" stroke-linejoin="round"
         points="60.000,25.981 65.000,34.641 70.000,25.981 65.000,17.321 70.000,8.660 50.000,8.660 55.000,17.321 50.000,25.981">
<desc>X7</desc>
</polygon>
<polygon fill="orangered" stroke="white"
         stroke-width="1" stroke-linejoin="round"
         points="65.000,34.641 75.000,34.641 85.000,17.321 75.000,17.321 80.000,8.660 70.000,8.660 65.000,17.321 70.000,25.981">
<desc>Z7</desc>
</polygon>
<polygon fill="red" stroke="white"
         stroke-width="1" stroke-linejoin="round"
         points="100.000,25.981 105.000,34.641 120.000,8.660 100.000,8.660 105.000,17.321 95.000,17.321">
<desc>M7</desc>
</polygon>
<polygon fill="gold" stroke="white"
         stroke-width="1" stroke-linejoin="round"
         points="130.000,25.981 135.000,34.641 145.000,34.641 155.000,17.321 145.000,17.321 140.000,25.981 135.000,17.321 125.000,17.321">
<desc>V7</desc>
</polygon>
<polygon fill="navy" stroke="white"
         stroke-width="1" stroke-linejoin="round"
         points="160.000,25.981 165.000,34.641 175.000,34.641 180.000,25.981 185.000,34.641 190.000,25.981 185.000,17.321 175.000,17.321 170.000,25.981">
<desc>S7</desc>
</polygon>
<polygon fill="maroon" stroke="white"
         stroke-width="1" stroke-linejoin="round"
         points="210.000,25.981 215.000,34.641 220.000,25.981 225.000,34.641 235.000,34.641 220.000,8.660">
<desc>G7</desc>
</polygon>
<polygon fill="olive" stroke="white"
         stroke-width="1" stroke-linejoin="round"
         points="20.000,25.981 30.000,25.981 35.000,17.321 55.000,17.321 50.000,8.660 30.000,8.660">
<desc>R7</desc>
</polygon>
<polygon fill="yellow" stroke="white"
         stroke-width="1" stroke-linejoin="round"
         points="80.000,25.981 90.000,25.981 95.000,17.321 105.000,17.321 100.000,8.660 80.000,8.660 75.000,17.321 85.000,17.321">
<desc>Y7</desc>
</polygon>
<polygon fill="magenta" stroke="white"
         stroke-width="1" stroke-linejoin="round"
         points="135.000,17.321 140.000,25.981 150.000,8.660 120.000,8.660 115.000,17.321">
<desc>P7</desc>
</polygon>
<polygon fill="plum" stroke="white"
         stroke-width="1" stroke-linejoin="round"
         points="150.000,25.981 170.000,25.981 165.000,17.321 170.000,8.660 150.000,8.660 145.000,17.321 155.000,17.321">
<desc>B7</desc>
</polygon>
<polygon fill="lime" stroke="white"
         stroke-width="1" stroke-linejoin="round"
         points="165.000,17.321 170.000,25.981 175.000,17.321 185.000,17.321 190.000,25.981 195.000,17.321 190.000,8.660 170.000,8.660">
<desc>C7</desc>
</polygon>
<polygon fill="turquoise" stroke="white"
         stroke-width="1" stroke-linejoin="round"
         points="190.000,25.981 200.000,25.981 205.000,17.321 215.000,17.321 220.000,8.660 190.000,8.660 195.000,17.321">
<desc>H7</desc>
</polygon>
</g>

</svg>
