<?xml version="1.0" standalone="no"?>
<!-- Created by Polyform Puzzler (http://puzzler.sourceforge.net/) -->
<svg width="230.000" height="138.564"
     viewBox="0 0 230.000 138.564"
     xmlns="http://www.w3.org/2000/svg"
     xmlns:xlink="http://www.w3.org/1999/xlink">
<g>
<polygon fill="magenta" stroke="white"
         stroke-width="1" stroke-linejoin="round"
         points="10.000,129.904 40.000,129.904 45.000,121.244 25.000,121.244 20.000,112.583">
<desc>P7</desc>
</polygon>
<polygon fill="teal" stroke="white"
         stroke-width="1" stroke-linejoin="round"
         points="40.000,129.904 60.000,129.904 65.000,121.244 55.000,121.244 45.000,103.923 40.000,112.583 45.000,121.244">
<desc>T7</desc>
</polygon>
<polygon fill="navy" stroke="white"
         stroke-width="1" stroke-linejoin="round"
         points="60.000,129.904 70.000,129.904 75.000,121.244 70.000,112.583 80.000,112.583 75.000,103.923 65.000,103.923 60.000,112.583 65.000,121.244">
<desc>S7</desc>
</polygon>
<polygon fill="turquoise" stroke="white"
         stroke-width="1" stroke-linejoin="round"
         points="70.000,129.904 100.000,129.904 95.000,121.244 85.000,121.244 80.000,112.583 70.000,112.583 75.000,121.244">
<desc>H7</desc>
</polygon>
<polygon fill="darkseagreen" stroke="white"
         stroke-width="1" stroke-linejoin="round"
         points="105.000,121.244 110.000,129.904 120.000,129.904 130.000,112.583 125.000,103.923 120.000,112.583 110.000,112.583 115.000,121.244">
<desc>F7</desc>
</polygon>
<polygon fill="red" stroke="white"
         stroke-width="1" stroke-linejoin="round"
         points="120.000,129.904 150.000,129.904 140.000,112.583 135.000,121.244 130.000,112.583">
<desc>M7</desc>
</polygon>
<polygon fill="peru" stroke="white"
         stroke-width="1" stroke-linejoin="round"
         points="20.000,112.583 25.000,121.244 45.000,121.244 40.000,112.583 45.000,103.923 35.000,103.923 30.000,112.583 25.000,103.923">
<desc>A7</desc>
</polygon>
<polygon fill="lightcoral" stroke="white"
         stroke-width="1" stroke-linejoin="round"
         points="50.000,112.583 55.000,121.244 65.000,121.244 60.000,112.583 70.000,95.263 50.000,95.263 55.000,103.923">
<desc>Q7</desc>
</polygon>
<polygon fill="steelblue" stroke="white"
         stroke-width="1" stroke-linejoin="round"
         points="80.000,112.583 85.000,121.244 95.000,121.244 80.000,95.263 70.000,95.263 65.000,103.923 75.000,103.923">
<desc>L7</desc>
</polygon>
<polygon fill="yellow" stroke="white"
         stroke-width="1" stroke-linejoin="round"
         points="100.000,112.583 105.000,121.244 115.000,121.244 110.000,112.583 120.000,112.583 115.000,103.923 105.000,103.923 100.000,95.263 95.000,103.923">
<desc>Y7</desc>
</polygon>
<polygon fill="yellowgreen" stroke="white"
         stroke-width="1" stroke-linejoin="round"
         points="130.000,112.583 135.000,121.244 140.000,112.583 130.000,95.263 120.000,95.263 115.000,103.923 120.000,112.583 125.000,103.923">
<desc>J7</desc>
</polygon>
<polygon fill="lime" stroke="white"
         stroke-width="1" stroke-linejoin="round"
         points="25.000,103.923 30.000,112.583 35.000,103.923 45.000,103.923 50.000,112.583 55.000,103.923 50.000,95.263 30.000,95.263">
<desc>C7</desc>
</polygon>
<polygon fill="plum" stroke="white"
         stroke-width="1" stroke-linejoin="round"
         points="90.000,95.263 95.000,103.923 100.000,95.263 110.000,95.263 100.000,77.942 95.000,86.603 90.000,77.942 85.000,86.603">
<desc>B7</desc>
</polygon>
<polygon fill="orangered" stroke="white"
         stroke-width="1" stroke-linejoin="round"
         points="100.000,95.263 105.000,103.923 115.000,103.923 120.000,95.263 130.000,95.263 125.000,86.603 105.000,86.603 110.000,95.263">
<desc>Z7</desc>
</polygon>
<polygon fill="olive" stroke="white"
         stroke-width="1" stroke-linejoin="round"
         points="35.000,86.603 55.000,86.603 65.000,69.282 60.000,60.622 50.000,77.942 40.000,77.942">
<desc>R7</desc>
</polygon>
<polygon fill="tan" stroke="white"
         stroke-width="1" stroke-linejoin="round"
         points="55.000,86.603 75.000,86.603 85.000,69.282 75.000,69.282 70.000,77.942 65.000,69.282">
<desc>U7</desc>
</polygon>
<polygon fill="darkorange" stroke="white"
         stroke-width="1" stroke-linejoin="round"
         points="90.000,77.942 95.000,86.603 100.000,77.942 110.000,77.942 105.000,69.282 110.000,60.622 105.000,51.962">
<desc>E7</desc>
</polygon>
<polygon fill="maroon" stroke="white"
         stroke-width="1" stroke-linejoin="round"
         points="100.000,77.942 105.000,86.603 125.000,86.603 110.000,60.622 105.000,69.282 110.000,77.942">
<desc>G7</desc>
</polygon>
<polygon fill="blue" stroke="white"
         stroke-width="1" stroke-linejoin="round"
         points="40.000,77.942 50.000,77.942 65.000,51.962 60.000,43.301">
<desc>I7</desc>
</polygon>
<polygon fill="gray" stroke="white"
         stroke-width="1" stroke-linejoin="round"
         points="65.000,69.282 70.000,77.942 75.000,69.282 85.000,69.282 95.000,51.962 85.000,51.962 80.000,60.622 70.000,60.622">
<desc>N7</desc>
</polygon>
<polygon fill="blueviolet" stroke="white"
         stroke-width="1" stroke-linejoin="round"
         points="60.000,60.622 65.000,69.282 70.000,60.622 80.000,60.622 85.000,51.962 75.000,51.962 70.000,43.301 60.000,43.301 65.000,51.962">
<desc>W7</desc>
</polygon>
<polygon fill="indigo" stroke="white"
         stroke-width="1" stroke-linejoin="round"
         points="70.000,43.301 75.000,51.962 80.000,43.301 90.000,43.301 85.000,34.641 75.000,34.641 70.000,25.981 60.000,43.301">
<desc>X7</desc>
</polygon>
<polygon fill="gold" stroke="white"
         stroke-width="1" stroke-linejoin="round"
         points="75.000,51.962 95.000,51.962 100.000,43.301 90.000,25.981 85.000,34.641 90.000,43.301 80.000,43.301">
<desc>V7</desc>
</polygon>
<polygon fill="green" stroke="white"
         stroke-width="1" stroke-linejoin="round"
         points="70.000,25.981 75.000,34.641 85.000,34.641 90.000,25.981 80.000,8.660">
<desc>D7</desc>
</polygon>
</g>
</svg>
