<?xml version="1.0" standalone="no"?>
<!-- Created by Polyform Puzzler (http://puzzler.sourceforge.net/) -->
<svg width="220.000" height="103.923"
     viewBox="0 0 220.000 103.923"
     xmlns="http://www.w3.org/2000/svg"
     xmlns:xlink="http://www.w3.org/1999/xlink">
<g>
<polygon fill="orangered" stroke="white"
         stroke-width="1" stroke-linejoin="round"
         points="105.000,86.603 110.000,95.263 120.000,95.263 125.000,86.603 135.000,86.603 130.000,77.942 110.000,77.942 115.000,86.603">
<desc>Z7</desc>
</polygon>
<polygon fill="steelblue" stroke="white"
         stroke-width="1" stroke-linejoin="round"
         points="120.000,95.263 150.000,95.263 155.000,86.603 150.000,77.942 145.000,86.603 125.000,86.603">
<desc>L7</desc>
</polygon>
<polygon fill="olive" stroke="white"
         stroke-width="1" stroke-linejoin="round"
         points="150.000,95.263 160.000,95.263 170.000,77.942 160.000,60.622 155.000,69.282 160.000,77.942">
<desc>R7</desc>
</polygon>
<polygon fill="yellowgreen" stroke="white"
         stroke-width="1" stroke-linejoin="round"
         points="100.000,77.942 105.000,86.603 115.000,86.603 110.000,77.942 130.000,77.942 125.000,69.282 105.000,69.282">
<desc>J7</desc>
</polygon>
<polygon fill="navy" stroke="white"
         stroke-width="1" stroke-linejoin="round"
         points="130.000,77.942 135.000,86.603 145.000,86.603 150.000,77.942 155.000,86.603 160.000,77.942 155.000,69.282 145.000,69.282 140.000,77.942">
<desc>S7</desc>
</polygon>
<polygon fill="turquoise" stroke="white"
         stroke-width="1" stroke-linejoin="round"
         points="95.000,69.282 100.000,77.942 105.000,69.282 115.000,69.282 110.000,60.622 100.000,60.622 95.000,51.962 85.000,51.962">
<desc>H7</desc>
</polygon>
<polygon fill="red" stroke="white"
         stroke-width="1" stroke-linejoin="round"
         points="165.000,69.282 170.000,77.942 185.000,51.962 165.000,51.962 170.000,60.622 160.000,60.622">
<desc>M7</desc>
</polygon>
<polygon fill="teal" stroke="white"
         stroke-width="1" stroke-linejoin="round"
         points="110.000,60.622 115.000,69.282 125.000,69.282 115.000,51.962 120.000,43.301 110.000,43.301 100.000,60.622">
<desc>T7</desc>
</polygon>
<polygon fill="plum" stroke="white"
         stroke-width="1" stroke-linejoin="round"
         points="130.000,60.622 135.000,69.282 145.000,51.962 140.000,43.301 135.000,51.962 130.000,43.301 120.000,60.622">
<desc>B7</desc>
</polygon>
<polygon fill="yellow" stroke="white"
         stroke-width="1" stroke-linejoin="round"
         points="145.000,69.282 155.000,69.282 160.000,60.622 170.000,60.622 165.000,51.962 145.000,51.962 140.000,60.622 150.000,60.622">
<desc>Y7</desc>
</polygon>
<polygon fill="gray" stroke="white"
         stroke-width="1" stroke-linejoin="round"
         points="95.000,51.962 100.000,60.622 105.000,51.962 100.000,43.301 90.000,43.301 85.000,34.641 75.000,34.641 85.000,51.962">
<desc>N7</desc>
</polygon>
<polygon fill="gold" stroke="white"
         stroke-width="1" stroke-linejoin="round"
         points="115.000,51.962 120.000,60.622 130.000,43.301 125.000,34.641 105.000,34.641 110.000,43.301 120.000,43.301">
<desc>V7</desc>
</polygon>
<polygon fill="indigo" stroke="white"
         stroke-width="1" stroke-linejoin="round"
         points="100.000,43.301 105.000,51.962 110.000,43.301 105.000,34.641 110.000,25.981 90.000,25.981 95.000,34.641 90.000,43.301">
<desc>X7</desc>
</polygon>
<polygon fill="peru" stroke="white"
         stroke-width="1" stroke-linejoin="round"
         points="140.000,43.301 145.000,51.962 165.000,51.962 160.000,43.301 165.000,34.641 155.000,34.641 150.000,43.301 145.000,34.641">
<desc>A7</desc>
</polygon>
<polygon fill="lime" stroke="white"
         stroke-width="1" stroke-linejoin="round"
         points="160.000,43.301 165.000,51.962 185.000,51.962 190.000,43.301 185.000,34.641 180.000,43.301 170.000,43.301 165.000,34.641">
<desc>C7</desc>
</polygon>
<polygon fill="blueviolet" stroke="white"
         stroke-width="1" stroke-linejoin="round"
         points="85.000,34.641 90.000,43.301 95.000,34.641 90.000,25.981 95.000,17.321 85.000,17.321 80.000,25.981 70.000,25.981 75.000,34.641">
<desc>W7</desc>
</polygon>
<polygon fill="blue" stroke="white"
         stroke-width="1" stroke-linejoin="round"
         points="145.000,34.641 150.000,43.301 170.000,8.660 160.000,8.660">
<desc>I7</desc>
</polygon>
<polygon fill="lightcoral" stroke="white"
         stroke-width="1" stroke-linejoin="round"
         points="165.000,34.641 170.000,43.301 180.000,43.301 185.000,34.641 175.000,34.641 165.000,17.321 155.000,34.641">
<desc>Q7</desc>
</polygon>
<polygon fill="maroon" stroke="white"
         stroke-width="1" stroke-linejoin="round"
         points="185.000,34.641 190.000,43.301 205.000,17.321 195.000,17.321 190.000,25.981 185.000,17.321 180.000,25.981">
<desc>G7</desc>
</polygon>
<polygon fill="magenta" stroke="white"
         stroke-width="1" stroke-linejoin="round"
         points="105.000,34.641 125.000,34.641 110.000,8.660 100.000,8.660 110.000,25.981">
<desc>P7</desc>
</polygon>
<polygon fill="darkseagreen" stroke="white"
         stroke-width="1" stroke-linejoin="round"
         points="170.000,25.981 175.000,34.641 185.000,34.641 180.000,25.981 185.000,17.321 175.000,17.321 180.000,8.660 170.000,8.660 165.000,17.321">
<desc>F7</desc>
</polygon>
<polygon fill="green" stroke="white"
         stroke-width="1" stroke-linejoin="round"
         points="65.000,17.321 70.000,25.981 80.000,25.981 85.000,17.321 80.000,8.660 60.000,8.660">
<desc>D7</desc>
</polygon>
<polygon fill="tan" stroke="white"
         stroke-width="1" stroke-linejoin="round"
         points="90.000,25.981 110.000,25.981 100.000,8.660 80.000,8.660 85.000,17.321 95.000,17.321">
<desc>U7</desc>
</polygon>
<polygon fill="darkorange" stroke="white"
         stroke-width="1" stroke-linejoin="round"
         points="185.000,17.321 190.000,25.981 195.000,17.321 205.000,17.321 210.000,8.660 180.000,8.660 175.000,17.321">
<desc>E7</desc>
</polygon>
</g>
</svg>
