<?xml version="1.0" standalone="no"?>
<!-- Created by Polyform Puzzler (http://puzzler.sourceforge.net/) -->
<svg width="230.000" height="138.564"
     viewBox="0 0 230.000 138.564"
     xmlns="http://www.w3.org/2000/svg"
     xmlns:xlink="http://www.w3.org/1999/xlink">
<g>
<polygon fill="peru" stroke="white"
         stroke-width="1" stroke-linejoin="round"
         points="15.000,121.244 20.000,129.904 30.000,129.904 25.000,121.244 35.000,121.244 40.000,112.583 30.000,112.583 25.000,103.923">
<desc>A7</desc>
</polygon>
<polygon fill="lime" stroke="white"
         stroke-width="1" stroke-linejoin="round"
         points="25.000,121.244 30.000,129.904 40.000,129.904 50.000,112.583 45.000,103.923 35.000,103.923 40.000,112.583 35.000,121.244">
<desc>C7</desc>
</polygon>
<polygon fill="green" stroke="white"
         stroke-width="1" stroke-linejoin="round"
         points="40.000,129.904 60.000,129.904 65.000,121.244 60.000,112.583 50.000,112.583">
<desc>D7</desc>
</polygon>
<polygon fill="plum" stroke="white"
         stroke-width="1" stroke-linejoin="round"
         points="60.000,129.904 80.000,129.904 85.000,121.244 75.000,121.244 80.000,112.583 60.000,112.583 65.000,121.244">
<desc>B7</desc>
</polygon>
<polygon fill="blue" stroke="white"
         stroke-width="1" stroke-linejoin="round"
         points="80.000,129.904 120.000,129.904 115.000,121.244 85.000,121.244">
<desc>I7</desc>
</polygon>
<polygon fill="indigo" stroke="white"
         stroke-width="1" stroke-linejoin="round"
         points="115.000,121.244 120.000,129.904 130.000,112.583 120.000,112.583 115.000,103.923 105.000,103.923 110.000,112.583 105.000,121.244">
<desc>X7</desc>
</polygon>
<polygon fill="teal" stroke="white"
         stroke-width="1" stroke-linejoin="round"
         points="120.000,129.904 130.000,129.904 135.000,121.244 145.000,121.244 135.000,103.923 125.000,103.923 130.000,112.583">
<desc>T7</desc>
</polygon>
<polygon fill="gold" stroke="white"
         stroke-width="1" stroke-linejoin="round"
         points="130.000,129.904 150.000,129.904 155.000,121.244 145.000,103.923 140.000,112.583 145.000,121.244 135.000,121.244">
<desc>V7</desc>
</polygon>
<polygon fill="steelblue" stroke="white"
         stroke-width="1" stroke-linejoin="round"
         points="75.000,121.244 105.000,121.244 110.000,112.583 105.000,103.923 100.000,112.583 80.000,112.583">
<desc>L7</desc>
</polygon>
<polygon fill="darkseagreen" stroke="white"
         stroke-width="1" stroke-linejoin="round"
         points="25.000,103.923 30.000,112.583 40.000,112.583 35.000,103.923 45.000,103.923 40.000,95.263 45.000,86.603 35.000,86.603">
<desc>F7</desc>
</polygon>
<polygon fill="maroon" stroke="white"
         stroke-width="1" stroke-linejoin="round"
         points="45.000,103.923 50.000,112.583 70.000,112.583 55.000,86.603 50.000,95.263 55.000,103.923">
<desc>G7</desc>
</polygon>
<polygon fill="blueviolet" stroke="white"
         stroke-width="1" stroke-linejoin="round"
         points="115.000,103.923 120.000,112.583 130.000,112.583 125.000,103.923 130.000,95.263 125.000,86.603 120.000,95.263 110.000,95.263 105.000,103.923">
<desc>W7</desc>
</polygon>
<polygon fill="darkorange" stroke="white"
         stroke-width="1" stroke-linejoin="round"
         points="135.000,103.923 140.000,112.583 145.000,103.923 130.000,77.942 125.000,86.603 130.000,95.263 125.000,103.923">
<desc>E7</desc>
</polygon>
<polygon fill="navy" stroke="white"
         stroke-width="1" stroke-linejoin="round"
         points="40.000,95.263 45.000,103.923 55.000,103.923 50.000,95.263 55.000,86.603 50.000,77.942 40.000,77.942 35.000,86.603 45.000,86.603">
<desc>S7</desc>
</polygon>
<polygon fill="yellow" stroke="white"
         stroke-width="1" stroke-linejoin="round"
         points="110.000,95.263 120.000,95.263 130.000,77.942 125.000,69.282 120.000,77.942 115.000,69.282 110.000,77.942 115.000,86.603">
<desc>Y7</desc>
</polygon>
<polygon fill="turquoise" stroke="white"
         stroke-width="1" stroke-linejoin="round"
         points="50.000,77.942 55.000,86.603 70.000,60.622 60.000,60.622 55.000,69.282 45.000,69.282 40.000,77.942">
<desc>H7</desc>
</polygon>
<polygon fill="orangered" stroke="white"
         stroke-width="1" stroke-linejoin="round"
         points="105.000,69.282 110.000,77.942 115.000,69.282 120.000,77.942 125.000,69.282 120.000,60.622 110.000,60.622 105.000,51.962 100.000,60.622">
<desc>Z7</desc>
</polygon>
<polygon fill="gray" stroke="white"
         stroke-width="1" stroke-linejoin="round"
         points="45.000,69.282 55.000,69.282 60.000,60.622 70.000,60.622 75.000,51.962 70.000,43.301 65.000,51.962 55.000,51.962">
<desc>N7</desc>
</polygon>
<polygon fill="magenta" stroke="white"
         stroke-width="1" stroke-linejoin="round"
         points="70.000,60.622 100.000,60.622 105.000,51.962 85.000,51.962 80.000,43.301">
<desc>P7</desc>
</polygon>
<polygon fill="olive" stroke="white"
         stroke-width="1" stroke-linejoin="round"
         points="105.000,51.962 110.000,60.622 120.000,60.622 110.000,43.301 90.000,43.301 85.000,51.962">
<desc>R7</desc>
</polygon>
<polygon fill="tan" stroke="white"
         stroke-width="1" stroke-linejoin="round"
         points="55.000,51.962 65.000,51.962 70.000,43.301 75.000,51.962 85.000,34.641 65.000,34.641">
<desc>U7</desc>
</polygon>
<polygon fill="lightcoral" stroke="white"
         stroke-width="1" stroke-linejoin="round"
         points="80.000,43.301 85.000,51.962 90.000,43.301 110.000,43.301 100.000,25.981 95.000,34.641 85.000,34.641">
<desc>Q7</desc>
</polygon>
<polygon fill="red" stroke="white"
         stroke-width="1" stroke-linejoin="round"
         points="65.000,34.641 85.000,34.641 80.000,25.981 90.000,25.981 80.000,8.660">
<desc>M7</desc>
</polygon>
<polygon fill="yellowgreen" stroke="white"
         stroke-width="1" stroke-linejoin="round"
         points="80.000,25.981 85.000,34.641 95.000,34.641 100.000,25.981 90.000,8.660 80.000,8.660 90.000,25.981">
<desc>J7</desc>
</polygon>
</g>
</svg>
