<?xml version="1.0" standalone="no"?>
<!-- Created by Polyform Puzzler (http://puzzler.sourceforge.net/) -->
<svg width="840.000" height="840.000"
     viewBox="0 0 840.000 840.000"
     xmlns="http://www.w3.org/2000/svg"
     xmlns:xlink="http://www.w3.org/1999/xlink">
<g transform="translate(420.000,210.000) rotate(30)">
<polygon fill="peru" stroke="white"
         stroke-width="1" stroke-linejoin="round"
         points="45.000,173.205 50.000,181.865 60.000,181.865 55.000,173.205 65.000,173.205 70.000,164.545 60.000,164.545 55.000,155.885">
<desc>A7</desc>
</polygon>
<polygon fill="lime" stroke="white"
         stroke-width="1" stroke-linejoin="round"
         points="55.000,173.205 60.000,181.865 70.000,181.865 80.000,164.545 75.000,155.885 65.000,155.885 70.000,164.545 65.000,173.205">
<desc>C7</desc>
</polygon>
<polygon fill="blue" stroke="white"
         stroke-width="1" stroke-linejoin="round"
         points="40.000,164.545 45.000,173.205 65.000,138.564 55.000,138.564">
<desc>I7</desc>
</polygon>
<polygon fill="darkseagreen" stroke="white"
         stroke-width="1" stroke-linejoin="round"
         points="55.000,155.885 60.000,164.545 70.000,164.545 65.000,155.885 75.000,155.885 70.000,147.224 75.000,138.564 65.000,138.564">
<desc>F7</desc>
</polygon>
<polygon fill="tan" stroke="white"
         stroke-width="1" stroke-linejoin="round"
         points="75.000,155.885 80.000,164.545 100.000,164.545 95.000,155.885 85.000,155.885 90.000,147.224 70.000,147.224">
<desc>U7</desc>
</polygon>
<polygon fill="turquoise" stroke="white"
         stroke-width="1" stroke-linejoin="round"
         points="95.000,155.885 100.000,164.545 115.000,138.564 105.000,138.564 100.000,147.224 90.000,147.224 85.000,155.885">
<desc>H7</desc>
</polygon>
<polygon fill="plum" stroke="white"
         stroke-width="1" stroke-linejoin="round"
         points="45.000,138.564 50.000,147.224 55.000,138.564 65.000,138.564 55.000,121.244 50.000,129.904 45.000,121.244 40.000,129.904">
<desc>B7</desc>
</polygon>
<polygon fill="steelblue" stroke="white"
         stroke-width="1" stroke-linejoin="round"
         points="70.000,147.224 100.000,147.224 105.000,138.564 100.000,129.904 95.000,138.564 75.000,138.564">
<desc>L7</desc>
</polygon>
<polygon fill="gold" stroke="white"
         stroke-width="1" stroke-linejoin="round"
         points="110.000,147.224 130.000,147.224 135.000,138.564 125.000,121.244 120.000,129.904 125.000,138.564 115.000,138.564">
<desc>V7</desc>
</polygon>
<polygon fill="yellowgreen" stroke="white"
         stroke-width="1" stroke-linejoin="round"
         points="60.000,129.904 65.000,138.564 70.000,129.904 60.000,112.583 50.000,112.583 45.000,121.244 50.000,129.904 55.000,121.244">
<desc>J7</desc>
</polygon>
<polygon fill="darkorange" stroke="white"
         stroke-width="1" stroke-linejoin="round"
         points="65.000,138.564 95.000,138.564 100.000,129.904 90.000,129.904 85.000,121.244 80.000,129.904 70.000,129.904">
<desc>E7</desc>
</polygon>
<polygon fill="yellow" stroke="white"
         stroke-width="1" stroke-linejoin="round"
         points="100.000,129.904 105.000,138.564 110.000,129.904 100.000,112.583 90.000,112.583 95.000,121.244 85.000,121.244 90.000,129.904">
<desc>Y7</desc>
</polygon>
<polygon fill="indigo" stroke="white"
         stroke-width="1" stroke-linejoin="round"
         points="105.000,138.564 125.000,138.564 120.000,129.904 125.000,121.244 120.000,112.583 115.000,121.244 105.000,121.244 110.000,129.904">
<desc>X7</desc>
</polygon>
<polygon fill="magenta" stroke="white"
         stroke-width="1" stroke-linejoin="round"
         points="130.000,129.904 135.000,138.564 150.000,112.583 145.000,103.923 135.000,121.244 125.000,121.244">
<desc>P7</desc>
</polygon>
<polygon fill="green" stroke="white"
         stroke-width="1" stroke-linejoin="round"
         points="65.000,121.244 70.000,129.904 80.000,129.904 85.000,121.244 80.000,112.583 60.000,112.583">
<desc>D7</desc>
</polygon>
<polygon fill="lightcoral" stroke="white"
         stroke-width="1" stroke-linejoin="round"
         points="140.000,129.904 160.000,129.904 155.000,121.244 160.000,112.583 155.000,103.923 145.000,103.923 150.000,112.583">
<desc>Q7</desc>
</polygon>
<polygon fill="olive" stroke="white"
         stroke-width="1" stroke-linejoin="round"
         points="155.000,121.244 160.000,129.904 170.000,112.583 160.000,95.263 150.000,95.263 160.000,112.583">
<desc>R7</desc>
</polygon>
<polygon fill="teal" stroke="white"
         stroke-width="1" stroke-linejoin="round"
         points="80.000,112.583 85.000,121.244 95.000,121.244 85.000,103.923 90.000,95.263 80.000,95.263 70.000,112.583">
<desc>T7</desc>
</polygon>
<polygon fill="blueviolet" stroke="white"
         stroke-width="1" stroke-linejoin="round"
         points="100.000,112.583 105.000,121.244 115.000,121.244 110.000,112.583 115.000,103.923 110.000,95.263 105.000,103.923 95.000,103.923 90.000,112.583">
<desc>W7</desc>
</polygon>
<polygon fill="navy" stroke="white"
         stroke-width="1" stroke-linejoin="round"
         points="110.000,112.583 115.000,121.244 120.000,112.583 125.000,121.244 135.000,121.244 140.000,112.583 130.000,112.583 125.000,103.923 115.000,103.923">
<desc>S7</desc>
</polygon>
<polygon fill="gray" stroke="white"
         stroke-width="1" stroke-linejoin="round"
         points="85.000,103.923 90.000,112.583 95.000,103.923 105.000,103.923 115.000,86.603 105.000,86.603 100.000,95.263 90.000,95.263">
<desc>N7</desc>
</polygon>
<polygon fill="orangered" stroke="white"
         stroke-width="1" stroke-linejoin="round"
         points="125.000,103.923 130.000,112.583 140.000,112.583 145.000,103.923 155.000,103.923 150.000,95.263 130.000,95.263 135.000,103.923">
<desc>Z7</desc>
</polygon>
<polygon fill="maroon" stroke="white"
         stroke-width="1" stroke-linejoin="round"
         points="110.000,95.263 115.000,103.923 130.000,77.942 110.000,77.942 105.000,86.603 115.000,86.603">
<desc>G7</desc>
</polygon>
<polygon fill="red" stroke="white"
         stroke-width="1" stroke-linejoin="round"
         points="115.000,103.923 135.000,103.923 130.000,95.263 140.000,95.263 130.000,77.942">
<desc>M7</desc>
</polygon>
</g>
</svg>
