<?xml version="1.0" standalone="no"?>
<!-- Created by Polyform Puzzler (http://puzzler.sourceforge.net/) -->
<svg width="520.000" height="520.000"
     viewBox="0 0 520.000 520.000"
     xmlns="http://www.w3.org/2000/svg"
     xmlns:xlink="http://www.w3.org/1999/xlink">
<g transform="translate(260.000,130.000) rotate(-30)">
<polygon fill="olive" stroke="white"
         stroke-width="1" stroke-linejoin="round"
         points="145.000,138.564 150.000,147.224 170.000,147.224 175.000,138.564 155.000,138.564 150.000,129.904 140.000,129.904">
<desc>R7</desc>
</polygon>
<polygon fill="darkseagreen" stroke="white"
         stroke-width="1" stroke-linejoin="round"
         points="150.000,129.904 155.000,138.564 175.000,138.564 180.000,129.904 175.000,121.244 170.000,129.904 165.000,121.244 160.000,129.904">
<desc>F7</desc>
</polygon>
<polygon fill="maroon" stroke="white"
         stroke-width="1" stroke-linejoin="round"
         points="140.000,129.904 160.000,129.904 165.000,121.244 155.000,121.244 160.000,112.583 155.000,103.923">
<desc>G7</desc>
</polygon>
<polygon fill="turquoise" stroke="white"
         stroke-width="1" stroke-linejoin="round"
         points="165.000,121.244 170.000,129.904 175.000,121.244 170.000,112.583 175.000,103.923 170.000,95.263 155.000,121.244">
<desc>H7</desc>
</polygon>
<polygon fill="red" stroke="white"
         stroke-width="1" stroke-linejoin="round"
         points="145.000,103.923 150.000,112.583 155.000,103.923 160.000,112.583 170.000,95.263 140.000,95.263">
<desc>M7</desc>
</polygon>
<polygon fill="peru" stroke="white"
         stroke-width="1" stroke-linejoin="round"
         points="170.000,95.263 175.000,103.923 180.000,95.263 190.000,95.263 185.000,86.603 175.000,86.603 180.000,77.942 170.000,77.942 165.000,86.603">
<desc>A7</desc>
</polygon>
<polygon fill="tan" stroke="white"
         stroke-width="1" stroke-linejoin="round"
         points="55.000,86.603 60.000,95.263 80.000,95.263 70.000,77.942 65.000,86.603 60.000,77.942 50.000,77.942">
<desc>U7</desc>
</polygon>
<polygon fill="lightcoral" stroke="white"
         stroke-width="1" stroke-linejoin="round"
         points="75.000,86.603 80.000,95.263 90.000,77.942 100.000,77.942 95.000,69.282 85.000,69.282 80.000,77.942 70.000,77.942">
<desc>Q7</desc>
</polygon>
<polygon fill="green" stroke="white"
         stroke-width="1" stroke-linejoin="round"
         points="115.000,86.603 120.000,95.263 130.000,77.942 125.000,69.282 115.000,69.282 110.000,77.942">
<desc>D7</desc>
</polygon>
<polygon fill="magenta" stroke="white"
         stroke-width="1" stroke-linejoin="round"
         points="120.000,95.263 150.000,95.263 155.000,86.603 135.000,86.603 130.000,77.942">
<desc>P7</desc>
</polygon>
<polygon fill="plum" stroke="white"
         stroke-width="1" stroke-linejoin="round"
         points="150.000,95.263 170.000,95.263 165.000,86.603 170.000,77.942 150.000,77.942 145.000,86.603 155.000,86.603">
<desc>B7</desc>
</polygon>
<polygon fill="lime" stroke="white"
         stroke-width="1" stroke-linejoin="round"
         points="185.000,86.603 190.000,95.263 200.000,95.263 210.000,77.942 205.000,69.282 195.000,69.282 200.000,77.942 195.000,86.603">
<desc>C7</desc>
</polygon>
<polygon fill="darkorange" stroke="white"
         stroke-width="1" stroke-linejoin="round"
         points="60.000,77.942 65.000,86.603 70.000,77.942 80.000,77.942 85.000,69.282 55.000,69.282 50.000,77.942">
<desc>E7</desc>
</polygon>
<polygon fill="yellowgreen" stroke="white"
         stroke-width="1" stroke-linejoin="round"
         points="130.000,77.942 135.000,86.603 145.000,86.603 150.000,77.942 140.000,60.622 130.000,60.622 140.000,77.942">
<desc>J7</desc>
</polygon>
<polygon fill="orangered" stroke="white"
         stroke-width="1" stroke-linejoin="round"
         points="175.000,86.603 195.000,86.603 200.000,77.942 190.000,77.942 185.000,69.282 175.000,69.282 170.000,77.942 180.000,77.942">
<desc>Z7</desc>
</polygon>
<polygon fill="navy" stroke="white"
         stroke-width="1" stroke-linejoin="round"
         points="95.000,69.282 100.000,77.942 110.000,77.942 115.000,69.282 110.000,60.622 115.000,51.962 105.000,51.962 100.000,60.622 105.000,69.282">
<desc>S7</desc>
</polygon>
<polygon fill="gray" stroke="white"
         stroke-width="1" stroke-linejoin="round"
         points="125.000,69.282 130.000,77.942 140.000,77.942 130.000,60.622 120.000,60.622 115.000,51.962 110.000,60.622 115.000,69.282">
<desc>N7</desc>
</polygon>
<polygon fill="yellow" stroke="white"
         stroke-width="1" stroke-linejoin="round"
         points="185.000,69.282 190.000,77.942 200.000,77.942 195.000,69.282 205.000,69.282 200.000,60.622 180.000,60.622 175.000,69.282">
<desc>Y7</desc>
</polygon>
<polygon fill="blue" stroke="white"
         stroke-width="1" stroke-linejoin="round"
         points="55.000,69.282 95.000,69.282 90.000,60.622 60.000,60.622">
<desc>I7</desc>
</polygon>
<polygon fill="blueviolet" stroke="white"
         stroke-width="1" stroke-linejoin="round"
         points="90.000,60.622 95.000,69.282 105.000,69.282 100.000,60.622 105.000,51.962 100.000,43.301 95.000,51.962 85.000,51.962 80.000,60.622">
<desc>W7</desc>
</polygon>
<polygon fill="steelblue" stroke="white"
         stroke-width="1" stroke-linejoin="round"
         points="85.000,51.962 95.000,51.962 100.000,43.301 85.000,17.321 80.000,25.981 90.000,43.301">
<desc>L7</desc>
</polygon>
<polygon fill="teal" stroke="white"
         stroke-width="1" stroke-linejoin="round"
         points="100.000,43.301 105.000,51.962 115.000,51.962 110.000,43.301 120.000,25.981 110.000,25.981 105.000,34.641 95.000,34.641">
<desc>T7</desc>
</polygon>
<polygon fill="gold" stroke="white"
         stroke-width="1" stroke-linejoin="round"
         points="90.000,25.981 95.000,34.641 100.000,25.981 95.000,17.321 105.000,17.321 110.000,8.660 90.000,8.660 85.000,17.321">
<desc>V7</desc>
</polygon>
<polygon fill="indigo" stroke="white"
         stroke-width="1" stroke-linejoin="round"
         points="95.000,34.641 105.000,34.641 110.000,25.981 120.000,25.981 110.000,8.660 105.000,17.321 95.000,17.321 100.000,25.981">
<desc>X7</desc>
</polygon>
</g>
</svg>
