<?xml version="1.0" standalone="no"?>
<!-- Created by Polyform Puzzler (http://puzzler.sourceforge.net/) -->
<svg width="200.000" height="121.244"
     viewBox="0 0 200.000 121.244"
     xmlns="http://www.w3.org/2000/svg"
     xmlns:xlink="http://www.w3.org/1999/xlink">
<g>
<polygon fill="blue" stroke="white"
         stroke-width="1" stroke-linejoin="round"
         points="65.000,103.923 70.000,112.583 75.000,103.923 60.000,77.942 50.000,77.942">
<desc>I7</desc>
</polygon>
<polygon fill="magenta" stroke="white"
         stroke-width="1" stroke-linejoin="round"
         points="70.000,112.583 100.000,112.583 105.000,103.923 85.000,103.923 80.000,95.263">
<desc>P7</desc>
</polygon>
<polygon fill="red" stroke="white"
         stroke-width="1" stroke-linejoin="round"
         points="100.000,112.583 120.000,112.583 105.000,86.603 95.000,103.923 105.000,103.923">
<desc>M7</desc>
</polygon>
<polygon fill="peru" stroke="white"
         stroke-width="1" stroke-linejoin="round"
         points="115.000,103.923 120.000,112.583 130.000,112.583 135.000,103.923 125.000,103.923 130.000,95.263 125.000,86.603 120.000,95.263 110.000,95.263">
<desc>A7</desc>
</polygon>
<polygon fill="turquoise" stroke="white"
         stroke-width="1" stroke-linejoin="round"
         points="70.000,95.263 75.000,103.923 80.000,95.263 75.000,86.603 80.000,77.942 75.000,69.282 70.000,77.942 60.000,77.942">
<desc>H7</desc>
</polygon>
<polygon fill="lime" stroke="white"
         stroke-width="1" stroke-linejoin="round"
         points="80.000,95.263 85.000,103.923 95.000,103.923 105.000,86.603 100.000,77.942 90.000,77.942 95.000,86.603 90.000,95.263">
<desc>C7</desc>
</polygon>
<polygon fill="teal" stroke="white"
         stroke-width="1" stroke-linejoin="round"
         points="125.000,103.923 135.000,103.923 145.000,86.603 135.000,86.603 130.000,77.942 120.000,77.942 130.000,95.263">
<desc>T7</desc>
</polygon>
<polygon fill="navy" stroke="white"
         stroke-width="1" stroke-linejoin="round"
         points="130.000,77.942 135.000,86.603 145.000,86.603 150.000,77.942 145.000,69.282 140.000,77.942 135.000,69.282 125.000,69.282 120.000,77.942">
<desc>S7</desc>
</polygon>
<polygon fill="darkseagreen" stroke="white"
         stroke-width="1" stroke-linejoin="round"
         points="45.000,69.282 50.000,77.942 70.000,77.942 75.000,69.282 65.000,69.282 60.000,60.622 55.000,69.282 50.000,60.622">
<desc>F7</desc>
</polygon>
<polygon fill="yellow" stroke="white"
         stroke-width="1" stroke-linejoin="round"
         points="75.000,69.282 80.000,77.942 85.000,69.282 90.000,77.942 95.000,69.282 90.000,60.622 95.000,51.962 85.000,51.962">
<desc>Y7</desc>
</polygon>
<polygon fill="darkorange" stroke="white"
         stroke-width="1" stroke-linejoin="round"
         points="90.000,77.942 120.000,77.942 125.000,69.282 115.000,69.282 110.000,60.622 105.000,69.282 95.000,69.282">
<desc>E7</desc>
</polygon>
<polygon fill="orangered" stroke="white"
         stroke-width="1" stroke-linejoin="round"
         points="135.000,69.282 140.000,77.942 145.000,69.282 150.000,77.942 160.000,60.622 155.000,51.962 150.000,60.622 140.000,60.622">
<desc>Z7</desc>
</polygon>
<polygon fill="plum" stroke="white"
         stroke-width="1" stroke-linejoin="round"
         points="40.000,60.622 45.000,69.282 50.000,60.622 55.000,69.282 65.000,51.962 55.000,51.962 50.000,43.301">
<desc>B7</desc>
</polygon>
<polygon fill="maroon" stroke="white"
         stroke-width="1" stroke-linejoin="round"
         points="110.000,60.622 115.000,69.282 130.000,43.301 120.000,43.301 115.000,51.962 110.000,43.301 105.000,51.962">
<desc>G7</desc>
</polygon>
<polygon fill="green" stroke="white"
         stroke-width="1" stroke-linejoin="round"
         points="135.000,51.962 140.000,60.622 150.000,60.622 155.000,51.962 145.000,34.641">
<desc>D7</desc>
</polygon>
<polygon fill="gold" stroke="white"
         stroke-width="1" stroke-linejoin="round"
         points="50.000,43.301 55.000,51.962 75.000,51.962 70.000,43.301 60.000,43.301 65.000,34.641 60.000,25.981">
<desc>V7</desc>
</polygon>
<polygon fill="indigo" stroke="white"
         stroke-width="1" stroke-linejoin="round"
         points="70.000,43.301 75.000,51.962 80.000,43.301 75.000,34.641 80.000,25.981 60.000,25.981 65.000,34.641 60.000,43.301">
<desc>X7</desc>
</polygon>
<polygon fill="steelblue" stroke="white"
         stroke-width="1" stroke-linejoin="round"
         points="75.000,51.962 105.000,51.962 110.000,43.301 105.000,34.641 100.000,43.301 80.000,43.301">
<desc>L7</desc>
</polygon>
<polygon fill="olive" stroke="white"
         stroke-width="1" stroke-linejoin="round"
         points="125.000,51.962 135.000,51.962 145.000,34.641 135.000,17.321 130.000,25.981 135.000,34.641">
<desc>R7</desc>
</polygon>
<polygon fill="gray" stroke="white"
         stroke-width="1" stroke-linejoin="round"
         points="95.000,34.641 100.000,43.301 110.000,25.981 105.000,17.321 110.000,8.660 100.000,8.660 95.000,17.321 100.000,25.981">
<desc>N7</desc>
</polygon>
<polygon fill="lightcoral" stroke="white"
         stroke-width="1" stroke-linejoin="round"
         points="120.000,43.301 130.000,43.301 135.000,34.641 130.000,25.981 135.000,17.321 115.000,17.321 125.000,34.641">
<desc>Q7</desc>
</polygon>
<polygon fill="blueviolet" stroke="white"
         stroke-width="1" stroke-linejoin="round"
         points="90.000,25.981 95.000,34.641 100.000,25.981 95.000,17.321 100.000,8.660 90.000,8.660 85.000,17.321 75.000,17.321 80.000,25.981">
<desc>W7</desc>
</polygon>
<polygon fill="tan" stroke="white"
         stroke-width="1" stroke-linejoin="round"
         points="60.000,25.981 80.000,25.981 75.000,17.321 85.000,17.321 90.000,8.660 70.000,8.660">
<desc>U7</desc>
</polygon>
<polygon fill="yellowgreen" stroke="white"
         stroke-width="1" stroke-linejoin="round"
         points="105.000,17.321 110.000,25.981 120.000,25.981 115.000,17.321 135.000,17.321 130.000,8.660 110.000,8.660">
<desc>J7</desc>
</polygon>
</g>
</svg>
