<?xml version="1.0" standalone="no"?>
<!-- Created by Polyform Puzzler (http://puzzler.sourceforge.net/) -->
<svg width="560.000" height="560.000"
     viewBox="0 0 560.000 560.000"
     xmlns="http://www.w3.org/2000/svg"
     xmlns:xlink="http://www.w3.org/1999/xlink">
<g transform="translate(280.000,140.000) rotate(-30)">
<polygon fill="yellowgreen" stroke="white"
         stroke-width="1" stroke-linejoin="round"
         points="185.000,103.923 190.000,112.583 210.000,112.583 215.000,103.923 210.000,95.263 200.000,95.263 205.000,103.923">
<desc>J7</desc>
</polygon>
<polygon fill="steelblue" stroke="white"
         stroke-width="1" stroke-linejoin="round"
         points="180.000,95.263 185.000,103.923 200.000,77.942 195.000,69.282 185.000,69.282 190.000,77.942">
<desc>L7</desc>
</polygon>
<polygon fill="red" stroke="white"
         stroke-width="1" stroke-linejoin="round"
         points="185.000,103.923 205.000,103.923 200.000,95.263 210.000,95.263 200.000,77.942">
<desc>M7</desc>
</polygon>
<polygon fill="blue" stroke="white"
         stroke-width="1" stroke-linejoin="round"
         points="210.000,95.263 215.000,103.923 220.000,95.263 205.000,69.282 195.000,69.282">
<desc>I7</desc>
</polygon>
<polygon fill="maroon" stroke="white"
         stroke-width="1" stroke-linejoin="round"
         points="95.000,86.603 100.000,95.263 110.000,77.942 105.000,69.282 100.000,77.942 95.000,69.282 85.000,69.282">
<desc>G7</desc>
</polygon>
<polygon fill="tan" stroke="white"
         stroke-width="1" stroke-linejoin="round"
         points="100.000,95.263 120.000,95.263 130.000,77.942 120.000,77.942 115.000,86.603 110.000,77.942">
<desc>U7</desc>
</polygon>
<polygon fill="turquoise" stroke="white"
         stroke-width="1" stroke-linejoin="round"
         points="110.000,77.942 115.000,86.603 120.000,77.942 130.000,77.942 125.000,69.282 115.000,69.282 110.000,60.622 100.000,60.622">
<desc>H7</desc>
</polygon>
<polygon fill="green" stroke="white"
         stroke-width="1" stroke-linejoin="round"
         points="65.000,69.282 70.000,77.942 90.000,77.942 80.000,60.622 70.000,60.622">
<desc>D7</desc>
</polygon>
<polygon fill="darkorange" stroke="white"
         stroke-width="1" stroke-linejoin="round"
         points="95.000,69.282 100.000,77.942 105.000,69.282 90.000,43.301 85.000,51.962 90.000,60.622 85.000,69.282">
<desc>E7</desc>
</polygon>
<polygon fill="blueviolet" stroke="white"
         stroke-width="1" stroke-linejoin="round"
         points="125.000,69.282 130.000,77.942 135.000,69.282 130.000,60.622 135.000,51.962 125.000,51.962 120.000,60.622 110.000,60.622 115.000,69.282">
<desc>W7</desc>
</polygon>
<polygon fill="gold" stroke="white"
         stroke-width="1" stroke-linejoin="round"
         points="130.000,77.942 150.000,77.942 155.000,69.282 145.000,51.962 140.000,60.622 145.000,69.282 135.000,69.282">
<desc>V7</desc>
</polygon>
<polygon fill="lightcoral" stroke="white"
         stroke-width="1" stroke-linejoin="round"
         points="205.000,69.282 210.000,77.942 215.000,69.282 210.000,60.622 200.000,60.622 195.000,51.962 185.000,69.282">
<desc>Q7</desc>
</polygon>
<polygon fill="lime" stroke="white"
         stroke-width="1" stroke-linejoin="round"
         points="60.000,60.622 65.000,69.282 70.000,60.622 80.000,60.622 85.000,69.282 90.000,60.622 85.000,51.962 65.000,51.962">
<desc>C7</desc>
</polygon>
<polygon fill="navy" stroke="white"
         stroke-width="1" stroke-linejoin="round"
         points="130.000,60.622 135.000,69.282 145.000,69.282 140.000,60.622 145.000,51.962 140.000,43.301 130.000,43.301 125.000,51.962 135.000,51.962">
<desc>S7</desc>
</polygon>
<polygon fill="orangered" stroke="white"
         stroke-width="1" stroke-linejoin="round"
         points="150.000,60.622 155.000,69.282 160.000,60.622 170.000,60.622 175.000,51.962 170.000,43.301 165.000,51.962 160.000,43.301">
<desc>Z7</desc>
</polygon>
<polygon fill="indigo" stroke="white"
         stroke-width="1" stroke-linejoin="round"
         points="180.000,60.622 185.000,69.282 195.000,51.962 185.000,51.962 180.000,43.301 170.000,43.301 175.000,51.962 170.000,60.622">
<desc>X7</desc>
</polygon>
<polygon fill="yellow" stroke="white"
         stroke-width="1" stroke-linejoin="round"
         points="210.000,60.622 215.000,69.282 220.000,60.622 210.000,43.301 200.000,43.301 205.000,51.962 195.000,51.962 200.000,60.622">
<desc>Y7</desc>
</polygon>
<polygon fill="magenta" stroke="white"
         stroke-width="1" stroke-linejoin="round"
         points="145.000,51.962 150.000,60.622 165.000,34.641 160.000,25.981 150.000,43.301 140.000,43.301">
<desc>P7</desc>
</polygon>
<polygon fill="plum" stroke="white"
         stroke-width="1" stroke-linejoin="round"
         points="65.000,51.962 85.000,51.962 90.000,43.301 80.000,43.301 85.000,34.641 65.000,34.641 70.000,43.301">
<desc>B7</desc>
</polygon>
<polygon fill="teal" stroke="white"
         stroke-width="1" stroke-linejoin="round"
         points="160.000,43.301 165.000,51.962 175.000,34.641 185.000,34.641 180.000,25.981 160.000,25.981 165.000,34.641">
<desc>T7</desc>
</polygon>
<polygon fill="gray" stroke="white"
         stroke-width="1" stroke-linejoin="round"
         points="180.000,43.301 185.000,51.962 205.000,51.962 200.000,43.301 190.000,43.301 185.000,34.641 175.000,34.641 170.000,43.301">
<desc>N7</desc>
</polygon>
<polygon fill="olive" stroke="white"
         stroke-width="1" stroke-linejoin="round"
         points="80.000,43.301 90.000,43.301 100.000,25.981 90.000,8.660 85.000,17.321 90.000,25.981">
<desc>R7</desc>
</polygon>
<polygon fill="darkseagreen" stroke="white"
         stroke-width="1" stroke-linejoin="round"
         points="60.000,25.981 65.000,34.641 85.000,34.641 90.000,25.981 80.000,25.981 75.000,17.321 70.000,25.981 65.000,17.321">
<desc>F7</desc>
</polygon>
<polygon fill="peru" stroke="white"
         stroke-width="1" stroke-linejoin="round"
         points="65.000,17.321 70.000,25.981 75.000,17.321 80.000,25.981 90.000,25.981 85.000,17.321 90.000,8.660 70.000,8.660">
<desc>A7</desc>
</polygon>
</g>
</svg>
