<?xml version="1.0" standalone="no"?>
<!-- Created by Polyform Puzzler (http://puzzler.sourceforge.net/) -->
<svg width="430.000" height="430.000"
     viewBox="0 0 430.000 430.000"
     xmlns="http://www.w3.org/2000/svg"
     xmlns:xlink="http://www.w3.org/1999/xlink">
<g transform="translate(215.000,107.500) rotate(60)">
<polygon fill="teal" stroke="white"
         stroke-width="1" stroke-linejoin="round"
         points="75.000,129.904 80.000,138.564 90.000,138.564 80.000,121.244 85.000,112.583 75.000,112.583 65.000,129.904">
<desc>T7</desc>
</polygon>
<polygon fill="lightcoral" stroke="white"
         stroke-width="1" stroke-linejoin="round"
         points="85.000,129.904 90.000,138.564 95.000,129.904 105.000,129.904 110.000,121.244 105.000,112.583 100.000,121.244 80.000,121.244">
<desc>Q7</desc>
</polygon>
<polygon fill="gray" stroke="white"
         stroke-width="1" stroke-linejoin="round"
         points="60.000,121.244 65.000,129.904 75.000,112.583 70.000,103.923 75.000,95.263 65.000,95.263 60.000,103.923 65.000,112.583">
<desc>N7</desc>
</polygon>
<polygon fill="tan" stroke="white"
         stroke-width="1" stroke-linejoin="round"
         points="80.000,121.244 100.000,121.244 110.000,103.923 100.000,103.923 95.000,112.583 90.000,103.923">
<desc>U7</desc>
</polygon>
<polygon fill="steelblue" stroke="white"
         stroke-width="1" stroke-linejoin="round"
         points="70.000,103.923 75.000,112.583 85.000,112.583 80.000,103.923 90.000,86.603 85.000,77.942">
<desc>L7</desc>
</polygon>
<polygon fill="plum" stroke="white"
         stroke-width="1" stroke-linejoin="round"
         points="80.000,103.923 85.000,112.583 90.000,103.923 95.000,112.583 105.000,95.263 95.000,95.263 90.000,86.603">
<desc>B7</desc>
</polygon>
<polygon fill="navy" stroke="white"
         stroke-width="1" stroke-linejoin="round"
         points="120.000,103.923 125.000,112.583 135.000,112.583 140.000,103.923 150.000,103.923 145.000,95.263 135.000,95.263 130.000,103.923 125.000,95.263">
<desc>S7</desc>
</polygon>
<polygon fill="olive" stroke="white"
         stroke-width="1" stroke-linejoin="round"
         points="100.000,103.923 120.000,103.923 130.000,86.603 125.000,77.942 115.000,95.263 105.000,95.263">
<desc>R7</desc>
</polygon>
<polygon fill="lime" stroke="white"
         stroke-width="1" stroke-linejoin="round"
         points="125.000,95.263 130.000,103.923 135.000,95.263 145.000,95.263 150.000,103.923 155.000,95.263 150.000,86.603 130.000,86.603">
<desc>C7</desc>
</polygon>
<polygon fill="blue" stroke="white"
         stroke-width="1" stroke-linejoin="round"
         points="105.000,95.263 115.000,95.263 130.000,69.282 125.000,60.622">
<desc>I7</desc>
</polygon>
<polygon fill="yellow" stroke="white"
         stroke-width="1" stroke-linejoin="round"
         points="75.000,77.942 80.000,86.603 85.000,77.942 90.000,86.603 95.000,77.942 85.000,60.622 75.000,60.622 80.000,69.282">
<desc>Y7</desc>
</polygon>
<polygon fill="indigo" stroke="white"
         stroke-width="1" stroke-linejoin="round"
         points="105.000,77.942 110.000,86.603 120.000,69.282 110.000,69.282 105.000,60.622 100.000,69.282 90.000,69.282 95.000,77.942">
<desc>X7</desc>
</polygon>
<polygon fill="yellowgreen" stroke="white"
         stroke-width="1" stroke-linejoin="round"
         points="125.000,77.942 130.000,86.603 150.000,86.603 155.000,77.942 150.000,69.282 140.000,69.282 145.000,77.942">
<desc>J7</desc>
</polygon>
<polygon fill="green" stroke="white"
         stroke-width="1" stroke-linejoin="round"
         points="60.000,69.282 65.000,77.942 75.000,77.942 80.000,69.282 70.000,51.962">
<desc>D7</desc>
</polygon>
<polygon fill="magenta" stroke="white"
         stroke-width="1" stroke-linejoin="round"
         points="125.000,77.942 145.000,77.942 130.000,51.962 120.000,51.962 130.000,69.282">
<desc>P7</desc>
</polygon>
<polygon fill="gold" stroke="white"
         stroke-width="1" stroke-linejoin="round"
         points="85.000,60.622 90.000,69.282 100.000,69.282 110.000,51.962 100.000,51.962 95.000,60.622 90.000,51.962 80.000,51.962">
<desc>V7</desc>
</polygon>
<polygon fill="peru" stroke="white"
         stroke-width="1" stroke-linejoin="round"
         points="60.000,51.962 65.000,60.622 70.000,51.962 75.000,60.622 85.000,60.622 80.000,51.962 85.000,43.301 65.000,43.301">
<desc>A7</desc>
</polygon>
<polygon fill="darkseagreen" stroke="white"
         stroke-width="1" stroke-linejoin="round"
         points="90.000,51.962 95.000,60.622 100.000,51.962 90.000,34.641 80.000,34.641 75.000,43.301 85.000,43.301 80.000,51.962">
<desc>F7</desc>
</polygon>
<polygon fill="red" stroke="white"
         stroke-width="1" stroke-linejoin="round"
         points="130.000,51.962 135.000,60.622 145.000,43.301 135.000,43.301 140.000,34.641 120.000,34.641">
<desc>M7</desc>
</polygon>
<polygon fill="darkorange" stroke="white"
         stroke-width="1" stroke-linejoin="round"
         points="95.000,43.301 100.000,51.962 130.000,51.962 125.000,43.301 115.000,43.301 110.000,34.641 105.000,43.301">
<desc>E7</desc>
</polygon>
<polygon fill="orangered" stroke="white"
         stroke-width="1" stroke-linejoin="round"
         points="140.000,51.962 150.000,51.962 155.000,43.301 150.000,34.641 155.000,25.981 145.000,25.981 135.000,43.301 145.000,43.301">
<desc>Z7</desc>
</polygon>
<polygon fill="maroon" stroke="white"
         stroke-width="1" stroke-linejoin="round"
         points="110.000,34.641 115.000,43.301 125.000,43.301 120.000,34.641 130.000,34.641 135.000,25.981 105.000,25.981">
<desc>G7</desc>
</polygon>
<polygon fill="blueviolet" stroke="white"
         stroke-width="1" stroke-linejoin="round"
         points="130.000,34.641 140.000,34.641 145.000,25.981 155.000,25.981 150.000,17.321 140.000,17.321 135.000,8.660 130.000,17.321 135.000,25.981">
<desc>W7</desc>
</polygon>
<polygon fill="turquoise" stroke="white"
         stroke-width="1" stroke-linejoin="round"
         points="105.000,25.981 135.000,25.981 130.000,17.321 135.000,8.660 125.000,8.660 120.000,17.321 110.000,17.321">
<desc>H7</desc>
</polygon>
</g>
</svg>
