<?xml version="1.0" standalone="no"?>
<!-- Created by Polyform Puzzler (http://puzzler.sourceforge.net/) -->
<svg width="340.000" height="340.000"
     viewBox="0 0 340.000 340.000"
     xmlns="http://www.w3.org/2000/svg"
     xmlns:xlink="http://www.w3.org/1999/xlink">
<g transform="translate(170.000,85.000) rotate(30)">
<polygon fill="darkorange" stroke="white"
         stroke-width="1" stroke-linejoin="round"
         points="10.000,95.263 20.000,95.263 25.000,86.603 35.000,86.603 30.000,77.942 35.000,69.282 25.000,69.282">
<desc>E7</desc>
</polygon>
<polygon fill="blue" stroke="white"
         stroke-width="1" stroke-linejoin="round"
         points="20.000,95.263 60.000,95.263 55.000,86.603 25.000,86.603">
<desc>I7</desc>
</polygon>
<polygon fill="teal" stroke="white"
         stroke-width="1" stroke-linejoin="round"
         points="55.000,86.603 60.000,95.263 70.000,77.942 65.000,69.282 60.000,77.942 40.000,77.942 45.000,86.603">
<desc>T7</desc>
</polygon>
<polygon fill="magenta" stroke="white"
         stroke-width="1" stroke-linejoin="round"
         points="60.000,95.263 90.000,95.263 95.000,86.603 75.000,86.603 70.000,77.942">
<desc>P7</desc>
</polygon>
<polygon fill="yellow" stroke="white"
         stroke-width="1" stroke-linejoin="round"
         points="90.000,95.263 100.000,95.263 110.000,77.942 105.000,69.282 100.000,77.942 90.000,77.942 85.000,86.603 95.000,86.603">
<desc>Y7</desc>
</polygon>
<polygon fill="olive" stroke="white"
         stroke-width="1" stroke-linejoin="round"
         points="100.000,95.263 110.000,95.263 120.000,77.942 110.000,60.622 105.000,69.282 110.000,77.942">
<desc>R7</desc>
</polygon>
<polygon fill="navy" stroke="white"
         stroke-width="1" stroke-linejoin="round"
         points="30.000,77.942 35.000,86.603 45.000,86.603 40.000,77.942 45.000,69.282 40.000,60.622 30.000,60.622 25.000,69.282 35.000,69.282">
<desc>S7</desc>
</polygon>
<polygon fill="yellowgreen" stroke="white"
         stroke-width="1" stroke-linejoin="round"
         points="70.000,77.942 75.000,86.603 85.000,86.603 90.000,77.942 80.000,77.942 90.000,60.622 80.000,60.622">
<desc>J7</desc>
</polygon>
<polygon fill="gold" stroke="white"
         stroke-width="1" stroke-linejoin="round"
         points="65.000,69.282 70.000,77.942 80.000,60.622 75.000,51.962 55.000,51.962 60.000,60.622 70.000,60.622">
<desc>V7</desc>
</polygon>
<polygon fill="maroon" stroke="white"
         stroke-width="1" stroke-linejoin="round"
         points="115.000,69.282 120.000,77.942 135.000,51.962 125.000,51.962 120.000,60.622 115.000,51.962 110.000,60.622">
<desc>G7</desc>
</polygon>
<polygon fill="indigo" stroke="white"
         stroke-width="1" stroke-linejoin="round"
         points="40.000,60.622 45.000,69.282 50.000,60.622 60.000,60.622 55.000,51.962 45.000,51.962 40.000,43.301 30.000,60.622">
<desc>X7</desc>
</polygon>
<polygon fill="gray" stroke="white"
         stroke-width="1" stroke-linejoin="round"
         points="75.000,51.962 80.000,60.622 90.000,60.622 95.000,51.962 85.000,51.962 80.000,43.301 60.000,43.301 65.000,51.962">
<desc>N7</desc>
</polygon>
<polygon fill="lightcoral" stroke="white"
         stroke-width="1" stroke-linejoin="round"
         points="90.000,60.622 110.000,60.622 100.000,43.301 105.000,34.641 95.000,34.641 90.000,43.301 95.000,51.962">
<desc>Q7</desc>
</polygon>
<polygon fill="red" stroke="white"
         stroke-width="1" stroke-linejoin="round"
         points="105.000,51.962 110.000,60.622 115.000,51.962 120.000,60.622 130.000,43.301 100.000,43.301">
<desc>M7</desc>
</polygon>
<polygon fill="peru" stroke="white"
         stroke-width="1" stroke-linejoin="round"
         points="40.000,43.301 45.000,51.962 65.000,51.962 60.000,43.301 65.000,34.641 55.000,34.641 50.000,43.301 45.000,34.641">
<desc>A7</desc>
</polygon>
<polygon fill="steelblue" stroke="white"
         stroke-width="1" stroke-linejoin="round"
         points="80.000,43.301 85.000,51.962 95.000,51.962 90.000,43.301 100.000,25.981 95.000,17.321">
<desc>L7</desc>
</polygon>
<polygon fill="plum" stroke="white"
         stroke-width="1" stroke-linejoin="round"
         points="125.000,51.962 135.000,51.962 145.000,34.641 135.000,34.641 130.000,25.981 120.000,43.301 130.000,43.301">
<desc>B7</desc>
</polygon>
<polygon fill="orangered" stroke="white"
         stroke-width="1" stroke-linejoin="round"
         points="45.000,34.641 50.000,43.301 55.000,34.641 65.000,34.641 70.000,25.981 65.000,17.321 60.000,25.981 55.000,17.321">
<desc>Z7</desc>
</polygon>
<polygon fill="blueviolet" stroke="white"
         stroke-width="1" stroke-linejoin="round"
         points="95.000,34.641 105.000,34.641 110.000,25.981 120.000,25.981 115.000,17.321 105.000,17.321 100.000,8.660 95.000,17.321 100.000,25.981">
<desc>W7</desc>
</polygon>
<polygon fill="lime" stroke="white"
         stroke-width="1" stroke-linejoin="round"
         points="130.000,25.981 135.000,34.641 145.000,34.641 150.000,25.981 140.000,25.981 135.000,17.321 140.000,8.660 130.000,8.660 125.000,17.321">
<desc>C7</desc>
</polygon>
<polygon fill="darkseagreen" stroke="white"
         stroke-width="1" stroke-linejoin="round"
         points="55.000,17.321 60.000,25.981 65.000,17.321 70.000,25.981 75.000,17.321 85.000,17.321 80.000,8.660 60.000,8.660">
<desc>F7</desc>
</polygon>
<polygon fill="tan" stroke="white"
         stroke-width="1" stroke-linejoin="round"
         points="70.000,25.981 90.000,25.981 100.000,8.660 80.000,8.660 85.000,17.321 75.000,17.321">
<desc>U7</desc>
</polygon>
<polygon fill="turquoise" stroke="white"
         stroke-width="1" stroke-linejoin="round"
         points="115.000,17.321 120.000,25.981 130.000,25.981 125.000,17.321 130.000,8.660 100.000,8.660 105.000,17.321">
<desc>H7</desc>
</polygon>
<polygon fill="green" stroke="white"
         stroke-width="1" stroke-linejoin="round"
         points="135.000,17.321 140.000,25.981 150.000,25.981 160.000,8.660 140.000,8.660">
<desc>D7</desc>
</polygon>
</g>
</svg>
