<?xml version="1.0" standalone="no"?>
<!-- Created by Polyform Puzzler (http://puzzler.sourceforge.net/) -->
<svg width="200.0" height="121.24355653" viewBox="0 0 200.0 121.24355653"
     xmlns="http://www.w3.org/2000/svg"
     xmlns:xlink="http://www.w3.org/1999/xlink">
<g>
<polygon fill="darkseagreen" stroke="white"
         stroke-width="1" stroke-linejoin="round"
         points="65.000,103.923 70.000,112.583 90.000,112.583 95.000,103.923 85.000,103.923 80.000,95.263 75.000,103.923 70.000,95.263">
<desc>F7</desc>
</polygon>
<polygon fill="red" stroke="white"
         stroke-width="1" stroke-linejoin="round"
         points="90.000,112.583 110.000,112.583 105.000,103.923 115.000,103.923 105.000,86.603">
<desc>M7</desc>
</polygon>
<polygon fill="olive" stroke="white"
         stroke-width="1" stroke-linejoin="round"
         points="105.000,103.923 110.000,112.583 130.000,112.583 140.000,95.263 130.000,95.263 125.000,103.923">
<desc>R7</desc>
</polygon>
<polygon fill="tan" stroke="white"
         stroke-width="1" stroke-linejoin="round"
         points="60.000,95.263 65.000,103.923 75.000,86.603 65.000,69.282 60.000,77.942 65.000,86.603 55.000,86.603">
<desc>U7</desc>
</polygon>
<polygon fill="yellow" stroke="white"
         stroke-width="1" stroke-linejoin="round"
         points="70.000,95.263 75.000,103.923 80.000,95.263 85.000,103.923 90.000,95.263 80.000,77.942 70.000,77.942 75.000,86.603">
<desc>Y7</desc>
</polygon>
<polygon fill="teal" stroke="white"
         stroke-width="1" stroke-linejoin="round"
         points="85.000,103.923 95.000,103.923 105.000,86.603 95.000,86.603 90.000,77.942 80.000,77.942 90.000,95.263">
<desc>T7</desc>
</polygon>
<polygon fill="yellowgreen" stroke="white"
         stroke-width="1" stroke-linejoin="round"
         points="110.000,95.263 115.000,103.923 125.000,103.923 130.000,95.263 125.000,86.603 120.000,95.263 110.000,77.942 105.000,86.603">
<desc>J7</desc>
</polygon>
<polygon fill="lightcoral" stroke="white"
         stroke-width="1" stroke-linejoin="round"
         points="115.000,86.603 120.000,95.263 125.000,86.603 135.000,86.603 140.000,77.942 135.000,69.282 130.000,77.942 110.000,77.942">
<desc>Q7</desc>
</polygon>
<polygon fill="steelblue" stroke="white"
         stroke-width="1" stroke-linejoin="round"
         points="125.000,86.603 130.000,95.263 140.000,95.263 155.000,69.282 145.000,69.282 135.000,86.603">
<desc>L7</desc>
</polygon>
<polygon fill="orangered" stroke="white"
         stroke-width="1" stroke-linejoin="round"
         points="50.000,77.942 55.000,86.603 65.000,86.603 60.000,77.942 65.000,69.282 60.000,60.622 50.000,60.622 55.000,69.282 45.000,69.282">
<desc>Z7</desc>
</polygon>
<polygon fill="green" stroke="white"
         stroke-width="1" stroke-linejoin="round"
         points="90.000,77.942 95.000,86.603 105.000,86.603 110.000,77.942 100.000,60.622">
<desc>D7</desc>
</polygon>
<polygon fill="blueviolet" stroke="white"
         stroke-width="1" stroke-linejoin="round"
         points="135.000,69.282 140.000,77.942 145.000,69.282 155.000,69.282 160.000,60.622 150.000,60.622 145.000,51.962 135.000,51.962 140.000,60.622">
<desc>W7</desc>
</polygon>
<polygon fill="navy" stroke="white"
         stroke-width="1" stroke-linejoin="round"
         points="40.000,60.622 45.000,69.282 55.000,69.282 50.000,60.622 60.000,60.622 65.000,51.962 60.000,43.301 55.000,51.962 45.000,51.962">
<desc>S7</desc>
</polygon>
<polygon fill="darkorange" stroke="white"
         stroke-width="1" stroke-linejoin="round"
         points="95.000,51.962 100.000,60.622 105.000,51.962 100.000,43.301 105.000,34.641 95.000,34.641 90.000,25.981 85.000,34.641">
<desc>E7</desc>
</polygon>
<polygon fill="turquoise" stroke="white"
         stroke-width="1" stroke-linejoin="round"
         points="145.000,51.962 150.000,60.622 160.000,60.622 145.000,34.641 140.000,43.301 130.000,43.301 135.000,51.962">
<desc>H7</desc>
</polygon>
<polygon fill="maroon" stroke="white"
         stroke-width="1" stroke-linejoin="round"
         points="45.000,51.962 55.000,51.962 60.000,43.301 65.000,51.962 70.000,43.301 60.000,25.981">
<desc>G7</desc>
</polygon>
<polygon fill="peru" stroke="white"
         stroke-width="1" stroke-linejoin="round"
         points="100.000,43.301 105.000,51.962 110.000,43.301 120.000,43.301 110.000,25.981 100.000,25.981 95.000,34.641 105.000,34.641">
<desc>A7</desc>
</polygon>
<polygon fill="plum" stroke="white"
         stroke-width="1" stroke-linejoin="round"
         points="65.000,34.641 70.000,43.301 90.000,43.301 85.000,34.641 90.000,25.981 70.000,25.981 75.000,34.641">
<desc>B7</desc>
</polygon>
<polygon fill="indigo" stroke="white"
         stroke-width="1" stroke-linejoin="round"
         points="115.000,34.641 120.000,43.301 125.000,34.641 135.000,34.641 130.000,25.981 135.000,17.321 125.000,17.321 120.000,25.981 110.000,25.981">
<desc>X7</desc>
</polygon>
<polygon fill="gold" stroke="white"
         stroke-width="1" stroke-linejoin="round"
         points="120.000,43.301 140.000,43.301 145.000,34.641 135.000,17.321 130.000,25.981 135.000,34.641 125.000,34.641">
<desc>V7</desc>
</polygon>
<polygon fill="lime" stroke="white"
         stroke-width="1" stroke-linejoin="round"
         points="60.000,25.981 65.000,34.641 75.000,34.641 70.000,25.981 75.000,17.321 85.000,17.321 80.000,8.660 70.000,8.660">
<desc>C7</desc>
</polygon>
<polygon fill="magenta" stroke="white"
         stroke-width="1" stroke-linejoin="round"
         points="90.000,25.981 95.000,34.641 105.000,17.321 75.000,17.321 70.000,25.981">
<desc>P7</desc>
</polygon>
<polygon fill="gray" stroke="white"
         stroke-width="1" stroke-linejoin="round"
         points="100.000,25.981 120.000,25.981 125.000,17.321 135.000,17.321 130.000,8.660 120.000,8.660 115.000,17.321 105.000,17.321">
<desc>N7</desc>
</polygon>
<polygon fill="blue" stroke="white"
         stroke-width="1" stroke-linejoin="round"
         points="80.000,8.660 85.000,17.321 115.000,17.321 120.000,8.660">
<desc>I7</desc>
</polygon>
</g>
</svg>
