<?xml version="1.0" standalone="no"?>
<!-- Created by Polyform Puzzler (http://puzzler.sourceforge.net/) -->
<svg width="260.000" height="155.885"
     viewBox="0 0 260.000 155.885"
     xmlns="http://www.w3.org/2000/svg"
     xmlns:xlink="http://www.w3.org/1999/xlink">
<g>
<polygon fill="red" stroke="white"
         stroke-width="1" stroke-linejoin="round"
         points="125.000,138.564 130.000,147.224 140.000,129.904 130.000,129.904 135.000,121.244 115.000,121.244">
<desc>M7</desc>
</polygon>
<polygon fill="orangered" stroke="white"
         stroke-width="1" stroke-linejoin="round"
         points="95.000,121.244 100.000,129.904 110.000,129.904 105.000,121.244 110.000,112.583 105.000,103.923 95.000,103.923 100.000,112.583 90.000,112.583">
<desc>Z7</desc>
</polygon>
<polygon fill="yellowgreen" stroke="white"
         stroke-width="1" stroke-linejoin="round"
         points="105.000,121.244 110.000,129.904 120.000,129.904 115.000,121.244 135.000,121.244 130.000,112.583 110.000,112.583">
<desc>J7</desc>
</polygon>
<polygon fill="turquoise" stroke="white"
         stroke-width="1" stroke-linejoin="round"
         points="130.000,129.904 160.000,129.904 155.000,121.244 145.000,121.244 140.000,112.583 130.000,112.583 135.000,121.244">
<desc>H7</desc>
</polygon>
<polygon fill="lightcoral" stroke="white"
         stroke-width="1" stroke-linejoin="round"
         points="155.000,121.244 160.000,129.904 170.000,112.583 180.000,112.583 175.000,103.923 165.000,103.923 160.000,112.583 150.000,112.583">
<desc>Q7</desc>
</polygon>
<polygon fill="darkseagreen" stroke="white"
         stroke-width="1" stroke-linejoin="round"
         points="140.000,112.583 145.000,121.244 155.000,121.244 150.000,112.583 160.000,112.583 155.000,103.923 160.000,95.263 150.000,95.263">
<desc>F7</desc>
</polygon>
<polygon fill="maroon" stroke="white"
         stroke-width="1" stroke-linejoin="round"
         points="70.000,112.583 100.000,112.583 95.000,103.923 85.000,103.923 90.000,95.263 80.000,95.263">
<desc>G7</desc>
</polygon>
<polygon fill="olive" stroke="white"
         stroke-width="1" stroke-linejoin="round"
         points="105.000,103.923 110.000,112.583 120.000,112.583 110.000,95.263 90.000,95.263 85.000,103.923">
<desc>R7</desc>
</polygon>
<polygon fill="gray" stroke="white"
         stroke-width="1" stroke-linejoin="round"
         points="155.000,103.923 160.000,112.583 170.000,95.263 165.000,86.603 170.000,77.942 160.000,77.942 155.000,86.603 160.000,95.263">
<desc>N7</desc>
</polygon>
<polygon fill="darkorange" stroke="white"
         stroke-width="1" stroke-linejoin="round"
         points="175.000,103.923 180.000,112.583 190.000,112.583 175.000,86.603 165.000,86.603 170.000,95.263 165.000,103.923">
<desc>E7</desc>
</polygon>
<polygon fill="lime" stroke="white"
         stroke-width="1" stroke-linejoin="round"
         points="75.000,86.603 80.000,95.263 100.000,95.263 105.000,86.603 100.000,77.942 95.000,86.603 85.000,86.603 80.000,77.942">
<desc>C7</desc>
</polygon>
<polygon fill="plum" stroke="white"
         stroke-width="1" stroke-linejoin="round"
         points="175.000,86.603 180.000,95.263 190.000,77.942 185.000,69.282 180.000,77.942 175.000,69.282 165.000,86.603">
<desc>B7</desc>
</polygon>
<polygon fill="navy" stroke="white"
         stroke-width="1" stroke-linejoin="round"
         points="70.000,77.942 75.000,86.603 80.000,77.942 85.000,86.603 95.000,86.603 100.000,77.942 90.000,77.942 85.000,69.282 75.000,69.282">
<desc>S7</desc>
</polygon>
<polygon fill="blueviolet" stroke="white"
         stroke-width="1" stroke-linejoin="round"
         points="85.000,69.282 90.000,77.942 100.000,77.942 95.000,69.282 100.000,60.622 95.000,51.962 90.000,60.622 80.000,60.622 75.000,69.282">
<desc>W7</desc>
</polygon>
<polygon fill="peru" stroke="white"
         stroke-width="1" stroke-linejoin="round"
         points="160.000,77.942 170.000,77.942 175.000,69.282 180.000,77.942 185.000,69.282 180.000,60.622 160.000,60.622 165.000,69.282">
<desc>A7</desc>
</polygon>
<polygon fill="green" stroke="white"
         stroke-width="1" stroke-linejoin="round"
         points="75.000,51.962 80.000,60.622 90.000,60.622 95.000,51.962 90.000,43.301 70.000,43.301">
<desc>D7</desc>
</polygon>
<polygon fill="indigo" stroke="white"
         stroke-width="1" stroke-linejoin="round"
         points="95.000,51.962 100.000,60.622 105.000,51.962 115.000,51.962 120.000,43.301 110.000,43.301 105.000,34.641 100.000,43.301 90.000,43.301">
<desc>X7</desc>
</polygon>
<polygon fill="teal" stroke="white"
         stroke-width="1" stroke-linejoin="round"
         points="155.000,51.962 160.000,60.622 165.000,51.962 155.000,34.641 150.000,43.301 140.000,43.301 135.000,51.962">
<desc>T7</desc>
</polygon>
<polygon fill="tan" stroke="white"
         stroke-width="1" stroke-linejoin="round"
         points="160.000,60.622 180.000,60.622 190.000,43.301 170.000,43.301 175.000,51.962 165.000,51.962">
<desc>U7</desc>
</polygon>
<polygon fill="blue" stroke="white"
         stroke-width="1" stroke-linejoin="round"
         points="115.000,51.962 125.000,51.962 140.000,25.981 135.000,17.321">
<desc>I7</desc>
</polygon>
<polygon fill="yellow" stroke="white"
         stroke-width="1" stroke-linejoin="round"
         points="130.000,43.301 135.000,51.962 140.000,43.301 150.000,43.301 155.000,34.641 145.000,34.641 150.000,25.981 140.000,25.981">
<desc>Y7</desc>
</polygon>
<polygon fill="steelblue" stroke="white"
         stroke-width="1" stroke-linejoin="round"
         points="160.000,43.301 165.000,51.962 175.000,51.962 160.000,25.981 150.000,25.981 145.000,34.641 155.000,34.641">
<desc>L7</desc>
</polygon>
<polygon fill="gold" stroke="white"
         stroke-width="1" stroke-linejoin="round"
         points="90.000,43.301 100.000,43.301 105.000,34.641 110.000,43.301 120.000,43.301 110.000,25.981 100.000,25.981">
<desc>V7</desc>
</polygon>
<polygon fill="magenta" stroke="white"
         stroke-width="1" stroke-linejoin="round"
         points="115.000,34.641 120.000,43.301 135.000,17.321 130.000,8.660 120.000,25.981 110.000,25.981">
<desc>P7</desc>
</polygon>
</g>
</svg>
