<?xml version="1.0" standalone="no"?>
<!-- Created by Polyform Puzzler (http://puzzler.sourceforge.net/) -->
<svg width="230.000" height="138.564"
     viewBox="0 0 230.000 138.564"
     xmlns="http://www.w3.org/2000/svg"
     xmlns:xlink="http://www.w3.org/1999/xlink">
<g>
<polygon fill="blue" stroke="white"
         stroke-width="1" stroke-linejoin="round"
         points="10.000,129.904 20.000,129.904 35.000,103.923 30.000,95.263">
<desc>I7</desc>
</polygon>
<polygon fill="magenta" stroke="white"
         stroke-width="1" stroke-linejoin="round"
         points="20.000,129.904 50.000,129.904 55.000,121.244 35.000,121.244 30.000,112.583">
<desc>P7</desc>
</polygon>
<polygon fill="lightcoral" stroke="white"
         stroke-width="1" stroke-linejoin="round"
         points="50.000,129.904 70.000,129.904 60.000,112.583 65.000,103.923 55.000,103.923 50.000,112.583 55.000,121.244">
<desc>Q7</desc>
</polygon>
<polygon fill="lime" stroke="white"
         stroke-width="1" stroke-linejoin="round"
         points="65.000,121.244 70.000,129.904 80.000,129.904 85.000,121.244 75.000,121.244 70.000,112.583 75.000,103.923 65.000,103.923 60.000,112.583">
<desc>C7</desc>
</polygon>
<polygon fill="tan" stroke="white"
         stroke-width="1" stroke-linejoin="round"
         points="80.000,129.904 100.000,129.904 95.000,121.244 105.000,121.244 110.000,112.583 90.000,112.583">
<desc>U7</desc>
</polygon>
<polygon fill="orangered" stroke="white"
         stroke-width="1" stroke-linejoin="round"
         points="95.000,121.244 100.000,129.904 120.000,129.904 115.000,121.244 125.000,121.244 120.000,112.583 110.000,112.583 105.000,121.244">
<desc>Z7</desc>
</polygon>
<polygon fill="darkorange" stroke="white"
         stroke-width="1" stroke-linejoin="round"
         points="115.000,121.244 120.000,129.904 150.000,129.904 145.000,121.244 135.000,121.244 130.000,112.583 125.000,121.244">
<desc>E7</desc>
</polygon>
<polygon fill="peru" stroke="white"
         stroke-width="1" stroke-linejoin="round"
         points="30.000,112.583 35.000,121.244 55.000,121.244 50.000,112.583 55.000,103.923 45.000,103.923 40.000,112.583 35.000,103.923">
<desc>A7</desc>
</polygon>
<polygon fill="darkseagreen" stroke="white"
         stroke-width="1" stroke-linejoin="round"
         points="70.000,112.583 75.000,121.244 80.000,112.583 85.000,121.244 90.000,112.583 100.000,112.583 95.000,103.923 75.000,103.923">
<desc>F7</desc>
</polygon>
<polygon fill="maroon" stroke="white"
         stroke-width="1" stroke-linejoin="round"
         points="120.000,112.583 125.000,121.244 130.000,112.583 135.000,121.244 145.000,121.244 130.000,95.263">
<desc>G7</desc>
</polygon>
<polygon fill="teal" stroke="white"
         stroke-width="1" stroke-linejoin="round"
         points="35.000,103.923 40.000,112.583 45.000,103.923 55.000,103.923 60.000,95.263 40.000,95.263 35.000,86.603 30.000,95.263">
<desc>T7</desc>
</polygon>
<polygon fill="olive" stroke="white"
         stroke-width="1" stroke-linejoin="round"
         points="95.000,103.923 100.000,112.583 120.000,112.583 130.000,95.263 120.000,95.263 115.000,103.923">
<desc>R7</desc>
</polygon>
<polygon fill="navy" stroke="white"
         stroke-width="1" stroke-linejoin="round"
         points="100.000,95.263 105.000,103.923 115.000,103.923 120.000,95.263 130.000,95.263 125.000,86.603 115.000,86.603 110.000,95.263 105.000,86.603">
<desc>S7</desc>
</polygon>
<polygon fill="yellowgreen" stroke="white"
         stroke-width="1" stroke-linejoin="round"
         points="35.000,86.603 40.000,95.263 50.000,95.263 55.000,86.603 45.000,86.603 55.000,69.282 45.000,69.282">
<desc>J7</desc>
</polygon>
<polygon fill="yellow" stroke="white"
         stroke-width="1" stroke-linejoin="round"
         points="50.000,95.263 60.000,95.263 70.000,77.942 65.000,69.282 60.000,77.942 50.000,77.942 45.000,86.603 55.000,86.603">
<desc>Y7</desc>
</polygon>
<polygon fill="red" stroke="white"
         stroke-width="1" stroke-linejoin="round"
         points="95.000,86.603 100.000,95.263 110.000,77.942 100.000,77.942 105.000,69.282 85.000,69.282">
<desc>M7</desc>
</polygon>
<polygon fill="turquoise" stroke="white"
         stroke-width="1" stroke-linejoin="round"
         points="105.000,86.603 110.000,95.263 115.000,86.603 125.000,86.603 110.000,60.622 105.000,69.282 110.000,77.942">
<desc>H7</desc>
</polygon>
<polygon fill="plum" stroke="white"
         stroke-width="1" stroke-linejoin="round"
         points="55.000,69.282 60.000,77.942 65.000,69.282 70.000,77.942 80.000,60.622 70.000,60.622 65.000,51.962">
<desc>B7</desc>
</polygon>
<polygon fill="steelblue" stroke="white"
         stroke-width="1" stroke-linejoin="round"
         points="45.000,69.282 55.000,69.282 65.000,51.962 75.000,51.962 70.000,43.301 60.000,43.301">
<desc>L7</desc>
</polygon>
<polygon fill="blueviolet" stroke="white"
         stroke-width="1" stroke-linejoin="round"
         points="80.000,60.622 85.000,69.282 90.000,60.622 85.000,51.962 90.000,43.301 80.000,43.301 75.000,51.962 65.000,51.962 70.000,60.622">
<desc>W7</desc>
</polygon>
<polygon fill="gold" stroke="white"
         stroke-width="1" stroke-linejoin="round"
         points="85.000,69.282 105.000,69.282 110.000,60.622 100.000,43.301 95.000,51.962 100.000,60.622 90.000,60.622">
<desc>V7</desc>
</polygon>
<polygon fill="gray" stroke="white"
         stroke-width="1" stroke-linejoin="round"
         points="85.000,51.962 90.000,60.622 100.000,60.622 95.000,51.962 100.000,43.301 90.000,25.981 85.000,34.641 90.000,43.301">
<desc>N7</desc>
</polygon>
<polygon fill="indigo" stroke="white"
         stroke-width="1" stroke-linejoin="round"
         points="70.000,43.301 75.000,51.962 80.000,43.301 90.000,43.301 85.000,34.641 75.000,34.641 70.000,25.981 60.000,43.301">
<desc>X7</desc>
</polygon>
<polygon fill="green" stroke="white"
         stroke-width="1" stroke-linejoin="round"
         points="70.000,25.981 75.000,34.641 85.000,34.641 90.000,25.981 80.000,8.660">
<desc>D7</desc>
</polygon>
</g>
</svg>
