<?xml version="1.0" standalone="no"?>
<!-- Created by Polyform Puzzler (http://puzzler.sourceforge.net/) -->
<svg width="185.0" height="112.583302492" viewBox="0 0 185.0 112.583302492"
     xmlns="http://www.w3.org/2000/svg"
     xmlns:xlink="http://www.w3.org/1999/xlink">
<g>
<polygon fill="blue" stroke="white"
         stroke-width="1" stroke-linejoin="round"
         points="35.000,95.263 40.000,103.923 70.000,103.923 75.000,95.263">
<desc>I7</desc>
</polygon>
<polygon fill="lime" stroke="white"
         stroke-width="1" stroke-linejoin="round"
         points="70.000,103.923 80.000,103.923 85.000,95.263 75.000,77.942 65.000,77.942 60.000,86.603 70.000,86.603 75.000,95.263">
<desc>C7</desc>
</polygon>
<polygon fill="lightcoral" stroke="white"
         stroke-width="1" stroke-linejoin="round"
         points="80.000,103.923 90.000,103.923 95.000,95.263 90.000,86.603 95.000,77.942 75.000,77.942 85.000,95.263">
<desc>Q7</desc>
</polygon>
<polygon fill="blueviolet" stroke="white"
         stroke-width="1" stroke-linejoin="round"
         points="90.000,103.923 100.000,103.923 105.000,95.263 115.000,95.263 110.000,86.603 100.000,86.603 95.000,77.942 90.000,86.603 95.000,95.263">
<desc>W7</desc>
</polygon>
<polygon fill="tan" stroke="white"
         stroke-width="1" stroke-linejoin="round"
         points="100.000,103.923 120.000,103.923 130.000,86.603 110.000,86.603 115.000,95.263 105.000,95.263">
<desc>U7</desc>
</polygon>
<polygon fill="plum" stroke="white"
         stroke-width="1" stroke-linejoin="round"
         points="30.000,86.603 35.000,95.263 55.000,95.263 50.000,86.603 55.000,77.942 35.000,77.942 40.000,86.603">
<desc>B7</desc>
</polygon>
<polygon fill="gold" stroke="white"
         stroke-width="1" stroke-linejoin="round"
         points="50.000,86.603 55.000,95.263 75.000,95.263 70.000,86.603 60.000,86.603 65.000,77.942 60.000,69.282">
<desc>V7</desc>
</polygon>
<polygon fill="peru" stroke="white"
         stroke-width="1" stroke-linejoin="round"
         points="25.000,77.942 30.000,86.603 40.000,86.603 35.000,77.942 45.000,77.942 50.000,69.282 40.000,69.282 35.000,60.622">
<desc>A7</desc>
</polygon>
<polygon fill="indigo" stroke="white"
         stroke-width="1" stroke-linejoin="round"
         points="95.000,77.942 100.000,86.603 110.000,86.603 105.000,77.942 110.000,69.282 100.000,69.282 95.000,60.622 85.000,77.942">
<desc>X7</desc>
</polygon>
<polygon fill="yellowgreen" stroke="white"
         stroke-width="1" stroke-linejoin="round"
         points="105.000,77.942 110.000,86.603 130.000,86.603 135.000,77.942 130.000,69.282 120.000,69.282 125.000,77.942">
<desc>J7</desc>
</polygon>
<polygon fill="darkorange" stroke="white"
         stroke-width="1" stroke-linejoin="round"
         points="45.000,77.942 55.000,77.942 60.000,69.282 70.000,69.282 65.000,60.622 70.000,51.962 60.000,51.962">
<desc>E7</desc>
</polygon>
<polygon fill="darkseagreen" stroke="white"
         stroke-width="1" stroke-linejoin="round"
         points="60.000,69.282 65.000,77.942 85.000,77.942 90.000,69.282 85.000,60.622 80.000,69.282 75.000,60.622 70.000,69.282">
<desc>F7</desc>
</polygon>
<polygon fill="red" stroke="white"
         stroke-width="1" stroke-linejoin="round"
         points="105.000,77.942 125.000,77.942 120.000,69.282 130.000,69.282 120.000,51.962">
<desc>M7</desc>
</polygon>
<polygon fill="green" stroke="white"
         stroke-width="1" stroke-linejoin="round"
         points="35.000,60.622 40.000,69.282 50.000,69.282 55.000,60.622 45.000,43.301">
<desc>D7</desc>
</polygon>
<polygon fill="maroon" stroke="white"
         stroke-width="1" stroke-linejoin="round"
         points="65.000,60.622 70.000,69.282 85.000,43.301 65.000,43.301 60.000,51.962 70.000,51.962">
<desc>G7</desc>
</polygon>
<polygon fill="orangered" stroke="white"
         stroke-width="1" stroke-linejoin="round"
         points="85.000,60.622 90.000,69.282 95.000,60.622 100.000,69.282 110.000,51.962 105.000,43.301 100.000,51.962 90.000,51.962">
<desc>Z7</desc>
</polygon>
<polygon fill="olive" stroke="white"
         stroke-width="1" stroke-linejoin="round"
         points="100.000,69.282 110.000,69.282 120.000,51.962 110.000,34.641 105.000,43.301 110.000,51.962">
<desc>R7</desc>
</polygon>
<polygon fill="magenta" stroke="white"
         stroke-width="1" stroke-linejoin="round"
         points="50.000,51.962 55.000,60.622 70.000,34.641 65.000,25.981 55.000,43.301 45.000,43.301">
<desc>P7</desc>
</polygon>
<polygon fill="gray" stroke="white"
         stroke-width="1" stroke-linejoin="round"
         points="75.000,60.622 85.000,60.622 90.000,51.962 100.000,51.962 105.000,43.301 100.000,34.641 95.000,43.301 85.000,43.301">
<desc>N7</desc>
</polygon>
<polygon fill="steelblue" stroke="white"
         stroke-width="1" stroke-linejoin="round"
         points="45.000,43.301 55.000,43.301 65.000,25.981 75.000,25.981 70.000,17.321 60.000,17.321">
<desc>L7</desc>
</polygon>
<polygon fill="turquoise" stroke="white"
         stroke-width="1" stroke-linejoin="round"
         points="65.000,43.301 95.000,43.301 90.000,34.641 80.000,34.641 75.000,25.981 65.000,25.981 70.000,34.641">
<desc>H7</desc>
</polygon>
<polygon fill="yellow" stroke="white"
         stroke-width="1" stroke-linejoin="round"
         points="90.000,34.641 95.000,43.301 100.000,34.641 105.000,43.301 110.000,34.641 100.000,17.321 90.000,17.321 95.000,25.981">
<desc>Y7</desc>
</polygon>
<polygon fill="teal" stroke="white"
         stroke-width="1" stroke-linejoin="round"
         points="75.000,25.981 80.000,34.641 85.000,25.981 80.000,17.321 85.000,8.660 65.000,8.660 60.000,17.321 70.000,17.321">
<desc>T7</desc>
</polygon>
<polygon fill="navy" stroke="white"
         stroke-width="1" stroke-linejoin="round"
         points="80.000,34.641 90.000,34.641 95.000,25.981 90.000,17.321 100.000,17.321 95.000,8.660 85.000,8.660 80.000,17.321 85.000,25.981">
<desc>S7</desc>
</polygon>
</g>
</svg>
