<?xml version="1.0" standalone="no"?>
<!-- Created by Polyform Puzzler (http://puzzler.sourceforge.net/) -->
<svg width="245.000" height="60.622"
     viewBox="0 0 245.000 60.622"
     xmlns="http://www.w3.org/2000/svg"
     xmlns:xlink="http://www.w3.org/1999/xlink">
<g>
<polygon fill="green" stroke="white"
         stroke-width="1" stroke-linejoin="round"
         points="10.000,51.962 30.000,51.962 35.000,43.301 30.000,34.641 20.000,34.641">
<desc>D7</desc>
</polygon>
<polygon fill="turquoise" stroke="white"
         stroke-width="1" stroke-linejoin="round"
         points="30.000,51.962 60.000,51.962 55.000,43.301 60.000,34.641 50.000,34.641 45.000,43.301 35.000,43.301">
<desc>H7</desc>
</polygon>
<polygon fill="lightcoral" stroke="white"
         stroke-width="1" stroke-linejoin="round"
         points="55.000,43.301 60.000,51.962 70.000,51.962 65.000,43.301 75.000,25.981 55.000,25.981 60.000,34.641">
<desc>Q7</desc>
</polygon>
<polygon fill="gold" stroke="white"
         stroke-width="1" stroke-linejoin="round"
         points="65.000,43.301 70.000,51.962 90.000,51.962 85.000,43.301 75.000,43.301 80.000,34.641 75.000,25.981">
<desc>V7</desc>
</polygon>
<polygon fill="yellow" stroke="white"
         stroke-width="1" stroke-linejoin="round"
         points="85.000,43.301 90.000,51.962 100.000,51.962 95.000,43.301 105.000,43.301 100.000,34.641 80.000,34.641 75.000,43.301">
<desc>Y7</desc>
</polygon>
<polygon fill="orangered" stroke="white"
         stroke-width="1" stroke-linejoin="round"
         points="95.000,43.301 100.000,51.962 110.000,51.962 115.000,43.301 125.000,43.301 120.000,34.641 100.000,34.641 105.000,43.301">
<desc>Z7</desc>
</polygon>
<polygon fill="tan" stroke="white"
         stroke-width="1" stroke-linejoin="round"
         points="110.000,51.962 130.000,51.962 140.000,34.641 120.000,34.641 125.000,43.301 115.000,43.301">
<desc>U7</desc>
</polygon>
<polygon fill="steelblue" stroke="white"
         stroke-width="1" stroke-linejoin="round"
         points="130.000,51.962 160.000,51.962 165.000,43.301 160.000,34.641 155.000,43.301 135.000,43.301">
<desc>L7</desc>
</polygon>
<polygon fill="red" stroke="white"
         stroke-width="1" stroke-linejoin="round"
         points="160.000,51.962 180.000,51.962 175.000,43.301 185.000,43.301 175.000,25.981">
<desc>M7</desc>
</polygon>
<polygon fill="darkorange" stroke="white"
         stroke-width="1" stroke-linejoin="round"
         points="175.000,43.301 180.000,51.962 210.000,51.962 205.000,43.301 195.000,43.301 190.000,34.641 185.000,43.301">
<desc>E7</desc>
</polygon>
<polygon fill="peru" stroke="white"
         stroke-width="1" stroke-linejoin="round"
         points="30.000,34.641 35.000,43.301 40.000,34.641 35.000,25.981 45.000,25.981 40.000,17.321 30.000,17.321 20.000,34.641">
<desc>A7</desc>
</polygon>
<polygon fill="indigo" stroke="white"
         stroke-width="1" stroke-linejoin="round"
         points="35.000,43.301 45.000,43.301 50.000,34.641 60.000,34.641 50.000,17.321 45.000,25.981 35.000,25.981 40.000,34.641">
<desc>X7</desc>
</polygon>
<polygon fill="magenta" stroke="white"
         stroke-width="1" stroke-linejoin="round"
         points="135.000,43.301 155.000,43.301 140.000,17.321 130.000,17.321 140.000,34.641">
<desc>P7</desc>
</polygon>
<polygon fill="gray" stroke="white"
         stroke-width="1" stroke-linejoin="round"
         points="150.000,34.641 155.000,43.301 165.000,25.981 160.000,17.321 165.000,8.660 155.000,8.660 150.000,17.321 155.000,25.981">
<desc>N7</desc>
</polygon>
<polygon fill="yellowgreen" stroke="white"
         stroke-width="1" stroke-linejoin="round"
         points="160.000,34.641 165.000,43.301 175.000,25.981 180.000,34.641 185.000,25.981 180.000,17.321 170.000,17.321">
<desc>J7</desc>
</polygon>
<polygon fill="maroon" stroke="white"
         stroke-width="1" stroke-linejoin="round"
         points="180.000,34.641 185.000,43.301 190.000,34.641 195.000,43.301 205.000,43.301 190.000,17.321">
<desc>G7</desc>
</polygon>
<polygon fill="navy" stroke="white"
         stroke-width="1" stroke-linejoin="round"
         points="75.000,25.981 80.000,34.641 90.000,34.641 85.000,25.981 90.000,17.321 85.000,8.660 75.000,8.660 70.000,17.321 80.000,17.321">
<desc>S7</desc>
</polygon>
<polygon fill="blueviolet" stroke="white"
         stroke-width="1" stroke-linejoin="round"
         points="85.000,25.981 90.000,34.641 95.000,25.981 105.000,25.981 110.000,17.321 100.000,17.321 95.000,8.660 85.000,8.660 90.000,17.321">
<desc>W7</desc>
</polygon>
<polygon fill="olive" stroke="white"
         stroke-width="1" stroke-linejoin="round"
         points="125.000,25.981 130.000,34.641 140.000,34.641 130.000,17.321 110.000,17.321 105.000,25.981">
<desc>R7</desc>
</polygon>
<polygon fill="teal" stroke="white"
         stroke-width="1" stroke-linejoin="round"
         points="145.000,25.981 150.000,34.641 155.000,25.981 150.000,17.321 155.000,8.660 135.000,8.660 130.000,17.321 140.000,17.321">
<desc>T7</desc>
</polygon>
<polygon fill="darkseagreen" stroke="white"
         stroke-width="1" stroke-linejoin="round"
         points="40.000,17.321 45.000,25.981 50.000,17.321 55.000,25.981 60.000,17.321 55.000,8.660 35.000,8.660 30.000,17.321">
<desc>F7</desc>
</polygon>
<polygon fill="plum" stroke="white"
         stroke-width="1" stroke-linejoin="round"
         points="55.000,25.981 75.000,25.981 80.000,17.321 70.000,17.321 75.000,8.660 55.000,8.660 60.000,17.321">
<desc>B7</desc>
</polygon>
<polygon fill="lime" stroke="white"
         stroke-width="1" stroke-linejoin="round"
         points="160.000,17.321 165.000,25.981 170.000,17.321 180.000,17.321 185.000,25.981 190.000,17.321 185.000,8.660 165.000,8.660">
<desc>C7</desc>
</polygon>
<polygon fill="blue" stroke="white"
         stroke-width="1" stroke-linejoin="round"
         points="95.000,8.660 100.000,17.321 130.000,17.321 135.000,8.660">
<desc>I7</desc>
</polygon>
</g>
</svg>
