<?xml version="1.0" standalone="no"?>
<!-- Created by Polyform Puzzler (http://puzzler.sourceforge.net/) -->
<svg width="225.0" height="147.224318643" viewBox="0 0 225.0 147.224318643"
     xmlns="http://www.w3.org/2000/svg"
     xmlns:xlink="http://www.w3.org/1999/xlink">
<g>
<polygon fill="lime" stroke="white"
         stroke-width="1" stroke-linejoin="round"
         points="115.000,129.904 120.000,138.564 140.000,138.564 145.000,129.904 140.000,121.244 135.000,129.904 125.000,129.904 120.000,121.244">
<desc>C7</desc>
</polygon>
<polygon fill="teal" stroke="white"
         stroke-width="1" stroke-linejoin="round"
         points="110.000,121.244 115.000,129.904 120.000,121.244 130.000,121.244 135.000,112.583 115.000,112.583 110.000,103.923 105.000,112.583">
<desc>T7</desc>
</polygon>
<polygon fill="navy" stroke="white"
         stroke-width="1" stroke-linejoin="round"
         points="120.000,121.244 125.000,129.904 135.000,129.904 140.000,121.244 145.000,129.904 150.000,121.244 145.000,112.583 135.000,112.583 130.000,121.244">
<desc>S7</desc>
</polygon>
<polygon fill="yellow" stroke="white"
         stroke-width="1" stroke-linejoin="round"
         points="145.000,112.583 150.000,121.244 155.000,112.583 145.000,95.263 135.000,95.263 140.000,103.923 130.000,103.923 135.000,112.583">
<desc>Y7</desc>
</polygon>
<polygon fill="gold" stroke="white"
         stroke-width="1" stroke-linejoin="round"
         points="110.000,103.923 115.000,112.583 135.000,112.583 130.000,103.923 120.000,103.923 125.000,95.263 120.000,86.603">
<desc>V7</desc>
</polygon>
<polygon fill="red" stroke="white"
         stroke-width="1" stroke-linejoin="round"
         points="120.000,103.923 140.000,103.923 135.000,95.263 145.000,95.263 135.000,77.942">
<desc>M7</desc>
</polygon>
<polygon fill="yellowgreen" stroke="white"
         stroke-width="1" stroke-linejoin="round"
         points="120.000,86.603 125.000,95.263 135.000,77.942 140.000,86.603 145.000,77.942 140.000,69.282 130.000,69.282">
<desc>J7</desc>
</polygon>
<polygon fill="turquoise" stroke="white"
         stroke-width="1" stroke-linejoin="round"
         points="115.000,77.942 120.000,86.603 125.000,77.942 120.000,69.282 125.000,60.622 120.000,51.962 115.000,60.622 105.000,60.622">
<desc>H7</desc>
</polygon>
<polygon fill="indigo" stroke="white"
         stroke-width="1" stroke-linejoin="round"
         points="120.000,69.282 125.000,77.942 130.000,69.282 140.000,69.282 135.000,60.622 140.000,51.962 120.000,51.962 125.000,60.622">
<desc>X7</desc>
</polygon>
<polygon fill="gray" stroke="white"
         stroke-width="1" stroke-linejoin="round"
         points="140.000,69.282 145.000,77.942 150.000,69.282 145.000,60.622 150.000,51.962 145.000,43.301 135.000,43.301 140.000,51.962 135.000,60.622">
<desc>N7</desc>
</polygon>
<polygon fill="blueviolet" stroke="white"
         stroke-width="1" stroke-linejoin="round"
         points="145.000,60.622 150.000,69.282 155.000,60.622 165.000,60.622 170.000,51.962 160.000,51.962 155.000,43.301 145.000,43.301 150.000,51.962">
<desc>W7</desc>
</polygon>
<polygon fill="maroon" stroke="white"
         stroke-width="1" stroke-linejoin="round"
         points="80.000,51.962 85.000,60.622 95.000,43.301 90.000,34.641 85.000,43.301 80.000,34.641 70.000,34.641">
<desc>G7</desc>
</polygon>
<polygon fill="magenta" stroke="white"
         stroke-width="1" stroke-linejoin="round"
         points="85.000,60.622 115.000,60.622 120.000,51.962 100.000,51.962 95.000,43.301">
<desc>P7</desc>
</polygon>
<polygon fill="orangered" stroke="white"
         stroke-width="1" stroke-linejoin="round"
         points="165.000,60.622 175.000,60.622 180.000,51.962 175.000,43.301 180.000,34.641 170.000,34.641 160.000,51.962 170.000,51.962">
<desc>Z7</desc>
</polygon>
<polygon fill="darkseagreen" stroke="white"
         stroke-width="1" stroke-linejoin="round"
         points="95.000,43.301 100.000,51.962 110.000,51.962 105.000,43.301 110.000,34.641 100.000,34.641 105.000,25.981 95.000,25.981 90.000,34.641">
<desc>F7</desc>
</polygon>
<polygon fill="steelblue" stroke="white"
         stroke-width="1" stroke-linejoin="round"
         points="105.000,43.301 110.000,51.962 140.000,51.962 135.000,43.301 115.000,43.301 110.000,34.641">
<desc>L7</desc>
</polygon>
<polygon fill="lightcoral" stroke="white"
         stroke-width="1" stroke-linejoin="round"
         points="155.000,43.301 160.000,51.962 170.000,34.641 160.000,34.641 155.000,25.981 145.000,25.981 140.000,34.641 150.000,34.641">
<desc>Q7</desc>
</polygon>
<polygon fill="tan" stroke="white"
         stroke-width="1" stroke-linejoin="round"
         points="175.000,43.301 180.000,51.962 190.000,34.641 180.000,17.321 170.000,34.641 180.000,34.641">
<desc>U7</desc>
</polygon>
<polygon fill="plum" stroke="white"
         stroke-width="1" stroke-linejoin="round"
         points="80.000,34.641 85.000,43.301 95.000,25.981 90.000,17.321 85.000,25.981 80.000,17.321 70.000,34.641">
<desc>B7</desc>
</polygon>
<polygon fill="darkorange" stroke="white"
         stroke-width="1" stroke-linejoin="round"
         points="110.000,34.641 115.000,43.301 120.000,34.641 105.000,8.660 100.000,17.321 105.000,25.981 100.000,34.641">
<desc>E7</desc>
</polygon>
<polygon fill="blue" stroke="white"
         stroke-width="1" stroke-linejoin="round"
         points="115.000,43.301 155.000,43.301 150.000,34.641 120.000,34.641">
<desc>I7</desc>
</polygon>
<polygon fill="green" stroke="white"
         stroke-width="1" stroke-linejoin="round"
         points="155.000,25.981 160.000,34.641 170.000,34.641 180.000,17.321 160.000,17.321">
<desc>D7</desc>
</polygon>
<polygon fill="peru" stroke="white"
         stroke-width="1" stroke-linejoin="round"
         points="80.000,17.321 85.000,25.981 90.000,17.321 95.000,25.981 105.000,25.981 100.000,17.321 105.000,8.660 85.000,8.660">
<desc>A7</desc>
</polygon>
<polygon fill="olive" stroke="white"
         stroke-width="1" stroke-linejoin="round"
         points="145.000,25.981 155.000,25.981 160.000,17.321 180.000,17.321 175.000,8.660 155.000,8.660">
<desc>R7</desc>
</polygon>
</g>
</svg>
