<?xml version="1.0" standalone="no"?>
<!-- Created by Polyform Puzzler (http://puzzler.sourceforge.net/) -->
<svg width="230.000" height="138.564"
     viewBox="0 0 230.000 138.564"
     xmlns="http://www.w3.org/2000/svg"
     xmlns:xlink="http://www.w3.org/1999/xlink">
<g>
<polygon fill="peru" stroke="white"
         stroke-width="1" stroke-linejoin="round"
         points="95.000,121.244 100.000,129.904 110.000,129.904 120.000,112.583 110.000,112.583 105.000,103.923 100.000,112.583 105.000,121.244">
<desc>A7</desc>
</polygon>
<polygon fill="yellowgreen" stroke="white"
         stroke-width="1" stroke-linejoin="round"
         points="110.000,129.904 120.000,129.904 130.000,112.583 125.000,103.923 115.000,103.923 110.000,112.583 120.000,112.583">
<desc>J7</desc>
</polygon>
<polygon fill="blueviolet" stroke="white"
         stroke-width="1" stroke-linejoin="round"
         points="90.000,112.583 95.000,121.244 105.000,121.244 100.000,112.583 105.000,103.923 100.000,95.263 95.000,103.923 85.000,103.923 80.000,112.583">
<desc>W7</desc>
</polygon>
<polygon fill="olive" stroke="white"
         stroke-width="1" stroke-linejoin="round"
         points="65.000,103.923 70.000,112.583 80.000,112.583 70.000,95.263 75.000,86.603 70.000,77.942 60.000,95.263">
<desc>R7</desc>
</polygon>
<polygon fill="gray" stroke="white"
         stroke-width="1" stroke-linejoin="round"
         points="75.000,103.923 80.000,112.583 85.000,103.923 95.000,103.923 105.000,86.603 95.000,86.603 90.000,95.263 80.000,95.263">
<desc>N7</desc>
</polygon>
<polygon fill="plum" stroke="white"
         stroke-width="1" stroke-linejoin="round"
         points="105.000,103.923 110.000,112.583 115.000,103.923 125.000,103.923 115.000,86.603 110.000,95.263 105.000,86.603 100.000,95.263">
<desc>B7</desc>
</polygon>
<polygon fill="indigo" stroke="white"
         stroke-width="1" stroke-linejoin="round"
         points="70.000,95.263 75.000,103.923 80.000,95.263 90.000,95.263 85.000,86.603 90.000,77.942 70.000,77.942 75.000,86.603">
<desc>X7</desc>
</polygon>
<polygon fill="steelblue" stroke="white"
         stroke-width="1" stroke-linejoin="round"
         points="140.000,95.263 145.000,103.923 155.000,103.923 160.000,95.263 150.000,95.263 140.000,77.942 130.000,77.942">
<desc>L7</desc>
</polygon>
<polygon fill="yellow" stroke="white"
         stroke-width="1" stroke-linejoin="round"
         points="155.000,103.923 165.000,103.923 175.000,86.603 170.000,77.942 165.000,86.603 155.000,86.603 150.000,95.263 160.000,95.263">
<desc>Y7</desc>
</polygon>
<polygon fill="lime" stroke="white"
         stroke-width="1" stroke-linejoin="round"
         points="85.000,86.603 90.000,95.263 95.000,86.603 105.000,86.603 110.000,95.263 115.000,86.603 110.000,77.942 90.000,77.942">
<desc>C7</desc>
</polygon>
<polygon fill="orangered" stroke="white"
         stroke-width="1" stroke-linejoin="round"
         points="145.000,86.603 150.000,95.263 155.000,86.603 165.000,86.603 170.000,77.942 165.000,69.282 160.000,77.942 155.000,69.282">
<desc>Z7</desc>
</polygon>
<polygon fill="teal" stroke="white"
         stroke-width="1" stroke-linejoin="round"
         points="140.000,77.942 145.000,86.603 155.000,69.282 150.000,60.622 145.000,69.282 125.000,69.282 130.000,77.942">
<desc>T7</desc>
</polygon>
<polygon fill="turquoise" stroke="white"
         stroke-width="1" stroke-linejoin="round"
         points="155.000,69.282 160.000,77.942 175.000,51.962 165.000,51.962 160.000,43.301 155.000,51.962 160.000,60.622">
<desc>H7</desc>
</polygon>
<polygon fill="blue" stroke="white"
         stroke-width="1" stroke-linejoin="round"
         points="125.000,69.282 135.000,69.282 150.000,43.301 145.000,34.641">
<desc>I7</desc>
</polygon>
<polygon fill="maroon" stroke="white"
         stroke-width="1" stroke-linejoin="round"
         points="135.000,69.282 145.000,69.282 150.000,60.622 155.000,69.282 160.000,60.622 150.000,43.301">
<desc>G7</desc>
</polygon>
<polygon fill="darkorange" stroke="white"
         stroke-width="1" stroke-linejoin="round"
         points="65.000,51.962 70.000,60.622 100.000,60.622 95.000,51.962 85.000,51.962 80.000,43.301 75.000,51.962">
<desc>E7</desc>
</polygon>
<polygon fill="lightcoral" stroke="white"
         stroke-width="1" stroke-linejoin="round"
         points="95.000,51.962 100.000,60.622 110.000,60.622 115.000,51.962 105.000,51.962 95.000,34.641 85.000,51.962">
<desc>Q7</desc>
</polygon>
<polygon fill="green" stroke="white"
         stroke-width="1" stroke-linejoin="round"
         points="60.000,43.301 65.000,51.962 75.000,51.962 80.000,43.301 70.000,25.981">
<desc>D7</desc>
</polygon>
<polygon fill="red" stroke="white"
         stroke-width="1" stroke-linejoin="round"
         points="80.000,43.301 85.000,51.962 95.000,34.641 85.000,34.641 90.000,25.981 70.000,25.981">
<desc>M7</desc>
</polygon>
<polygon fill="gold" stroke="white"
         stroke-width="1" stroke-linejoin="round"
         points="100.000,43.301 105.000,51.962 115.000,51.962 125.000,34.641 115.000,34.641 110.000,43.301 105.000,34.641 95.000,34.641">
<desc>V7</desc>
</polygon>
<polygon fill="tan" stroke="white"
         stroke-width="1" stroke-linejoin="round"
         points="150.000,43.301 155.000,51.962 160.000,43.301 165.000,51.962 175.000,51.962 165.000,34.641 145.000,34.641">
<desc>U7</desc>
</polygon>
<polygon fill="navy" stroke="white"
         stroke-width="1" stroke-linejoin="round"
         points="105.000,34.641 110.000,43.301 115.000,34.641 125.000,34.641 130.000,25.981 125.000,17.321 115.000,17.321 120.000,25.981 110.000,25.981">
<desc>S7</desc>
</polygon>
<polygon fill="magenta" stroke="white"
         stroke-width="1" stroke-linejoin="round"
         points="85.000,34.641 105.000,34.641 100.000,25.981 110.000,8.660 100.000,8.660">
<desc>P7</desc>
</polygon>
<polygon fill="darkseagreen" stroke="white"
         stroke-width="1" stroke-linejoin="round"
         points="100.000,25.981 105.000,34.641 110.000,25.981 120.000,25.981 115.000,17.321 125.000,17.321 120.000,8.660 110.000,8.660">
<desc>F7</desc>
</polygon>
</g>
</svg>
