<?xml version="1.0" standalone="no"?>
<!-- Created by Polyform Puzzler (http://puzzler.sourceforge.net/) -->
<svg width="400.000" height="400.000"
     viewBox="0 0 400.000 400.000"
     xmlns="http://www.w3.org/2000/svg"
     xmlns:xlink="http://www.w3.org/1999/xlink">
<g transform="translate(200.000,100.000) rotate(30)">
<polygon fill="lime" stroke="white"
         stroke-width="1" stroke-linejoin="round"
         points="105.000,103.923 110.000,112.583 120.000,112.583 125.000,103.923 115.000,103.923 110.000,95.263 115.000,86.603 105.000,86.603 100.000,95.263">
<desc>C7</desc>
</polygon>
<polygon fill="teal" stroke="white"
         stroke-width="1" stroke-linejoin="round"
         points="60.000,95.263 65.000,103.923 75.000,86.603 70.000,77.942 65.000,86.603 45.000,86.603 50.000,95.263">
<desc>T7</desc>
</polygon>
<polygon fill="olive" stroke="white"
         stroke-width="1" stroke-linejoin="round"
         points="65.000,103.923 75.000,103.923 85.000,86.603 75.000,69.282 70.000,77.942 75.000,86.603">
<desc>R7</desc>
</polygon>
<polygon fill="blueviolet" stroke="white"
         stroke-width="1" stroke-linejoin="round"
         points="90.000,95.263 95.000,103.923 105.000,103.923 100.000,95.263 105.000,86.603 100.000,77.942 95.000,86.603 85.000,86.603 80.000,95.263">
<desc>W7</desc>
</polygon>
<polygon fill="gold" stroke="white"
         stroke-width="1" stroke-linejoin="round"
         points="110.000,95.263 115.000,103.923 135.000,103.923 130.000,95.263 120.000,95.263 125.000,86.603 120.000,77.942">
<desc>V7</desc>
</polygon>
<polygon fill="turquoise" stroke="white"
         stroke-width="1" stroke-linejoin="round"
         points="130.000,95.263 135.000,103.923 140.000,95.263 135.000,86.603 140.000,77.942 135.000,69.282 120.000,95.263">
<desc>H7</desc>
</polygon>
<polygon fill="tan" stroke="white"
         stroke-width="1" stroke-linejoin="round"
         points="45.000,86.603 65.000,86.603 75.000,69.282 55.000,69.282 60.000,77.942 50.000,77.942">
<desc>U7</desc>
</polygon>
<polygon fill="steelblue" stroke="white"
         stroke-width="1" stroke-linejoin="round"
         points="80.000,77.942 85.000,86.603 95.000,86.603 80.000,60.622 70.000,60.622 65.000,69.282 75.000,69.282">
<desc>L7</desc>
</polygon>
<polygon fill="orangered" stroke="white"
         stroke-width="1" stroke-linejoin="round"
         points="90.000,77.942 95.000,86.603 100.000,77.942 105.000,86.603 110.000,77.942 105.000,69.282 95.000,69.282 90.000,60.622 85.000,69.282">
<desc>Z7</desc>
</polygon>
<polygon fill="yellow" stroke="white"
         stroke-width="1" stroke-linejoin="round"
         points="105.000,86.603 115.000,86.603 125.000,69.282 120.000,60.622 115.000,69.282 110.000,60.622 105.000,69.282 110.000,77.942">
<desc>Y7</desc>
</polygon>
<polygon fill="blue" stroke="white"
         stroke-width="1" stroke-linejoin="round"
         points="120.000,77.942 125.000,86.603 145.000,51.962 135.000,51.962">
<desc>I7</desc>
</polygon>
<polygon fill="navy" stroke="white"
         stroke-width="1" stroke-linejoin="round"
         points="45.000,69.282 50.000,77.942 60.000,77.942 55.000,69.282 65.000,69.282 70.000,60.622 65.000,51.962 60.000,60.622 50.000,60.622">
<desc>S7</desc>
</polygon>
<polygon fill="indigo" stroke="white"
         stroke-width="1" stroke-linejoin="round"
         points="80.000,60.622 85.000,69.282 95.000,51.962 85.000,51.962 80.000,43.301 75.000,51.962 65.000,51.962 70.000,60.622">
<desc>X7</desc>
</polygon>
<polygon fill="red" stroke="white"
         stroke-width="1" stroke-linejoin="round"
         points="110.000,60.622 115.000,69.282 120.000,60.622 125.000,69.282 135.000,51.962 105.000,51.962">
<desc>M7</desc>
</polygon>
<polygon fill="lightcoral" stroke="white"
         stroke-width="1" stroke-linejoin="round"
         points="140.000,60.622 150.000,60.622 155.000,51.962 150.000,43.301 155.000,34.641 135.000,34.641 145.000,51.962">
<desc>Q7</desc>
</polygon>
<polygon fill="green" stroke="white"
         stroke-width="1" stroke-linejoin="round"
         points="60.000,43.301 65.000,51.962 75.000,51.962 80.000,43.301 70.000,25.981">
<desc>D7</desc>
</polygon>
<polygon fill="plum" stroke="white"
         stroke-width="1" stroke-linejoin="round"
         points="80.000,43.301 85.000,51.962 90.000,43.301 100.000,43.301 90.000,25.981 80.000,25.981 85.000,34.641 75.000,34.641">
<desc>B7</desc>
</polygon>
<polygon fill="maroon" stroke="white"
         stroke-width="1" stroke-linejoin="round"
         points="85.000,51.962 115.000,51.962 105.000,34.641 95.000,34.641 100.000,43.301 90.000,43.301">
<desc>G7</desc>
</polygon>
<polygon fill="yellowgreen" stroke="white"
         stroke-width="1" stroke-linejoin="round"
         points="110.000,43.301 115.000,51.962 125.000,51.962 130.000,43.301 120.000,25.981 110.000,25.981 120.000,43.301">
<desc>J7</desc>
</polygon>
<polygon fill="magenta" stroke="white"
         stroke-width="1" stroke-linejoin="round"
         points="125.000,51.962 145.000,51.962 130.000,25.981 120.000,25.981 130.000,43.301">
<desc>P7</desc>
</polygon>
<polygon fill="darkorange" stroke="white"
         stroke-width="1" stroke-linejoin="round"
         points="105.000,34.641 110.000,43.301 120.000,43.301 105.000,17.321 95.000,17.321 100.000,25.981 95.000,34.641">
<desc>E7</desc>
</polygon>
<polygon fill="peru" stroke="white"
         stroke-width="1" stroke-linejoin="round"
         points="60.000,25.981 65.000,34.641 70.000,25.981 75.000,34.641 85.000,34.641 80.000,25.981 85.000,17.321 65.000,17.321">
<desc>A7</desc>
</polygon>
<polygon fill="darkseagreen" stroke="white"
         stroke-width="1" stroke-linejoin="round"
         points="90.000,25.981 95.000,34.641 100.000,25.981 90.000,8.660 80.000,8.660 75.000,17.321 85.000,17.321 80.000,25.981">
<desc>F7</desc>
</polygon>
<polygon fill="gray" stroke="white"
         stroke-width="1" stroke-linejoin="round"
         points="130.000,25.981 135.000,34.641 155.000,34.641 150.000,25.981 140.000,25.981 135.000,17.321 125.000,17.321 120.000,25.981">
<desc>N7</desc>
</polygon>
</g>
</svg>
