<?xml version="1.0" standalone="no"?>
<!-- Created by Polyform Puzzler (http://puzzler.sourceforge.net/) -->
<svg width="440.000" height="440.000"
     viewBox="0 0 440.000 440.000"
     xmlns="http://www.w3.org/2000/svg"
     xmlns:xlink="http://www.w3.org/1999/xlink">
<g transform="translate(220.000,110.000) rotate(90)">
<polygon fill="yellowgreen" stroke="white"
         stroke-width="1" stroke-linejoin="round"
         points="75.000,121.244 80.000,129.904 90.000,129.904 95.000,121.244 90.000,112.583 85.000,121.244 75.000,103.923 70.000,112.583">
<desc>J7</desc>
</polygon>
<polygon fill="turquoise" stroke="white"
         stroke-width="1" stroke-linejoin="round"
         points="90.000,129.904 120.000,129.904 115.000,121.244 105.000,121.244 100.000,112.583 90.000,112.583 95.000,121.244">
<desc>H7</desc>
</polygon>
<polygon fill="green" stroke="white"
         stroke-width="1" stroke-linejoin="round"
         points="115.000,121.244 120.000,129.904 140.000,129.904 130.000,112.583 120.000,112.583">
<desc>D7</desc>
</polygon>
<polygon fill="indigo" stroke="white"
         stroke-width="1" stroke-linejoin="round"
         points="80.000,112.583 85.000,121.244 90.000,112.583 100.000,112.583 95.000,103.923 100.000,95.263 90.000,95.263 85.000,103.923 75.000,103.923">
<desc>X7</desc>
</polygon>
<polygon fill="darkseagreen" stroke="white"
         stroke-width="1" stroke-linejoin="round"
         points="100.000,112.583 105.000,121.244 115.000,121.244 110.000,112.583 115.000,103.923 105.000,103.923 110.000,95.263 100.000,95.263 95.000,103.923">
<desc>F7</desc>
</polygon>
<polygon fill="peru" stroke="white"
         stroke-width="1" stroke-linejoin="round"
         points="110.000,112.583 115.000,121.244 120.000,112.583 130.000,112.583 120.000,95.263 110.000,95.263 105.000,103.923 115.000,103.923">
<desc>A7</desc>
</polygon>
<polygon fill="teal" stroke="white"
         stroke-width="1" stroke-linejoin="round"
         points="65.000,103.923 70.000,112.583 75.000,103.923 85.000,103.923 90.000,95.263 70.000,95.263 65.000,86.603 60.000,95.263">
<desc>T7</desc>
</polygon>
<polygon fill="orangered" stroke="white"
         stroke-width="1" stroke-linejoin="round"
         points="55.000,86.603 60.000,95.263 65.000,86.603 70.000,95.263 75.000,86.603 70.000,77.942 60.000,77.942 55.000,69.282 50.000,77.942">
<desc>Z7</desc>
</polygon>
<polygon fill="gray" stroke="white"
         stroke-width="1" stroke-linejoin="round"
         points="70.000,95.263 80.000,95.263 85.000,86.603 80.000,77.942 85.000,69.282 80.000,60.622 70.000,77.942 75.000,86.603">
<desc>N7</desc>
</polygon>
<polygon fill="blue" stroke="white"
         stroke-width="1" stroke-linejoin="round"
         points="80.000,95.263 120.000,95.263 115.000,86.603 85.000,86.603">
<desc>I7</desc>
</polygon>
<polygon fill="steelblue" stroke="white"
         stroke-width="1" stroke-linejoin="round"
         points="80.000,77.942 85.000,86.603 115.000,86.603 110.000,77.942 90.000,77.942 85.000,69.282">
<desc>L7</desc>
</polygon>
<polygon fill="navy" stroke="white"
         stroke-width="1" stroke-linejoin="round"
         points="45.000,69.282 50.000,77.942 55.000,69.282 60.000,77.942 70.000,77.942 75.000,69.282 65.000,69.282 60.000,60.622 50.000,60.622">
<desc>S7</desc>
</polygon>
<polygon fill="plum" stroke="white"
         stroke-width="1" stroke-linejoin="round"
         points="85.000,69.282 90.000,77.942 110.000,77.942 105.000,69.282 110.000,60.622 90.000,60.622 95.000,69.282">
<desc>B7</desc>
</polygon>
<polygon fill="lightcoral" stroke="white"
         stroke-width="1" stroke-linejoin="round"
         points="60.000,60.622 65.000,69.282 75.000,69.282 80.000,60.622 70.000,60.622 60.000,43.301 50.000,60.622">
<desc>Q7</desc>
</polygon>
<polygon fill="blueviolet" stroke="white"
         stroke-width="1" stroke-linejoin="round"
         points="80.000,60.622 85.000,69.282 95.000,69.282 90.000,60.622 95.000,51.962 90.000,43.301 85.000,51.962 75.000,51.962 70.000,60.622">
<desc>W7</desc>
</polygon>
<polygon fill="gold" stroke="white"
         stroke-width="1" stroke-linejoin="round"
         points="65.000,51.962 70.000,60.622 75.000,51.962 70.000,43.301 80.000,43.301 85.000,34.641 65.000,34.641 60.000,43.301">
<desc>V7</desc>
</polygon>
<polygon fill="yellow" stroke="white"
         stroke-width="1" stroke-linejoin="round"
         points="90.000,60.622 100.000,60.622 110.000,43.301 105.000,34.641 100.000,43.301 95.000,34.641 90.000,43.301 95.000,51.962">
<desc>Y7</desc>
</polygon>
<polygon fill="olive" stroke="white"
         stroke-width="1" stroke-linejoin="round"
         points="100.000,60.622 110.000,60.622 120.000,43.301 110.000,25.981 105.000,34.641 110.000,43.301">
<desc>R7</desc>
</polygon>
<polygon fill="lime" stroke="white"
         stroke-width="1" stroke-linejoin="round"
         points="70.000,43.301 75.000,51.962 85.000,51.962 95.000,34.641 90.000,25.981 80.000,25.981 85.000,34.641 80.000,43.301">
<desc>C7</desc>
</polygon>
<polygon fill="red" stroke="white"
         stroke-width="1" stroke-linejoin="round"
         points="95.000,34.641 100.000,43.301 115.000,17.321 95.000,17.321 100.000,25.981 90.000,25.981">
<desc>M7</desc>
</polygon>
<polygon fill="maroon" stroke="white"
         stroke-width="1" stroke-linejoin="round"
         points="115.000,34.641 120.000,43.301 135.000,17.321 125.000,17.321 120.000,25.981 115.000,17.321 110.000,25.981">
<desc>G7</desc>
</polygon>
<polygon fill="magenta" stroke="white"
         stroke-width="1" stroke-linejoin="round"
         points="65.000,34.641 85.000,34.641 80.000,25.981 90.000,8.660 80.000,8.660">
<desc>P7</desc>
</polygon>
<polygon fill="tan" stroke="white"
         stroke-width="1" stroke-linejoin="round"
         points="80.000,25.981 100.000,25.981 95.000,17.321 105.000,17.321 110.000,8.660 90.000,8.660">
<desc>U7</desc>
</polygon>
<polygon fill="darkorange" stroke="white"
         stroke-width="1" stroke-linejoin="round"
         points="115.000,17.321 120.000,25.981 125.000,17.321 135.000,17.321 140.000,8.660 110.000,8.660 105.000,17.321">
<desc>E7</desc>
</polygon>
</g>
</svg>
