<?xml version="1.0" standalone="no"?>
<!-- Created by Polyform Puzzler (http://puzzler.sourceforge.net/) -->
<svg width="230.000" height="103.923"
     viewBox="0 0 230.000 103.923"
     xmlns="http://www.w3.org/2000/svg"
     xmlns:xlink="http://www.w3.org/1999/xlink">
<g>
<polygon fill="red" stroke="white"
         stroke-width="1" stroke-linejoin="round"
         points="55.000,86.603 60.000,95.263 70.000,77.942 60.000,77.942 65.000,69.282 45.000,69.282">
<desc>M7</desc>
</polygon>
<polygon fill="magenta" stroke="white"
         stroke-width="1" stroke-linejoin="round"
         points="60.000,95.263 90.000,95.263 95.000,86.603 75.000,86.603 70.000,77.942">
<desc>P7</desc>
</polygon>
<polygon fill="maroon" stroke="white"
         stroke-width="1" stroke-linejoin="round"
         points="90.000,95.263 100.000,95.263 110.000,77.942 80.000,77.942 85.000,86.603 95.000,86.603">
<desc>G7</desc>
</polygon>
<polygon fill="green" stroke="white"
         stroke-width="1" stroke-linejoin="round"
         points="100.000,95.263 120.000,95.263 125.000,86.603 120.000,77.942 110.000,77.942">
<desc>D7</desc>
</polygon>
<polygon fill="plum" stroke="white"
         stroke-width="1" stroke-linejoin="round"
         points="120.000,95.263 140.000,95.263 145.000,86.603 135.000,86.603 140.000,77.942 120.000,77.942 125.000,86.603">
<desc>B7</desc>
</polygon>
<polygon fill="orangered" stroke="white"
         stroke-width="1" stroke-linejoin="round"
         points="140.000,95.263 160.000,95.263 165.000,86.603 155.000,86.603 150.000,77.942 140.000,77.942 135.000,86.603 145.000,86.603">
<desc>Z7</desc>
</polygon>
<polygon fill="navy" stroke="white"
         stroke-width="1" stroke-linejoin="round"
         points="160.000,95.263 170.000,95.263 175.000,86.603 170.000,77.942 160.000,77.942 155.000,69.282 150.000,77.942 155.000,86.603 165.000,86.603">
<desc>S7</desc>
</polygon>
<polygon fill="darkorange" stroke="white"
         stroke-width="1" stroke-linejoin="round"
         points="70.000,77.942 75.000,86.603 85.000,86.603 70.000,60.622 60.000,60.622 65.000,69.282 60.000,77.942">
<desc>E7</desc>
</polygon>
<polygon fill="lightcoral" stroke="white"
         stroke-width="1" stroke-linejoin="round"
         points="170.000,77.942 175.000,86.603 185.000,69.282 165.000,69.282 160.000,60.622 155.000,69.282 160.000,77.942">
<desc>Q7</desc>
</polygon>
<polygon fill="olive" stroke="white"
         stroke-width="1" stroke-linejoin="round"
         points="40.000,60.622 45.000,69.282 55.000,69.282 45.000,51.962 50.000,43.301 45.000,34.641 35.000,51.962">
<desc>R7</desc>
</polygon>
<polygon fill="yellow" stroke="white"
         stroke-width="1" stroke-linejoin="round"
         points="50.000,60.622 55.000,69.282 65.000,69.282 60.000,60.622 70.000,60.622 65.000,51.962 55.000,51.962 50.000,43.301 45.000,51.962">
<desc>Y7</desc>
</polygon>
<polygon fill="yellowgreen" stroke="white"
         stroke-width="1" stroke-linejoin="round"
         points="160.000,60.622 165.000,69.282 185.000,69.282 190.000,60.622 170.000,60.622 175.000,51.962 165.000,51.962">
<desc>J7</desc>
</polygon>
<polygon fill="gold" stroke="white"
         stroke-width="1" stroke-linejoin="round"
         points="170.000,60.622 190.000,60.622 195.000,51.962 185.000,34.641 180.000,43.301 185.000,51.962 175.000,51.962">
<desc>V7</desc>
</polygon>
<polygon fill="darkseagreen" stroke="white"
         stroke-width="1" stroke-linejoin="round"
         points="50.000,43.301 55.000,51.962 65.000,51.962 70.000,43.301 60.000,43.301 65.000,34.641 55.000,34.641 50.000,25.981 45.000,34.641">
<desc>F7</desc>
</polygon>
<polygon fill="gray" stroke="white"
         stroke-width="1" stroke-linejoin="round"
         points="160.000,43.301 165.000,51.962 170.000,43.301 165.000,34.641 170.000,25.981 165.000,17.321 155.000,17.321 160.000,25.981 155.000,34.641">
<desc>N7</desc>
</polygon>
<polygon fill="indigo" stroke="white"
         stroke-width="1" stroke-linejoin="round"
         points="165.000,51.962 185.000,51.962 180.000,43.301 185.000,34.641 180.000,25.981 175.000,34.641 165.000,34.641 170.000,43.301">
<desc>X7</desc>
</polygon>
<polygon fill="peru" stroke="white"
         stroke-width="1" stroke-linejoin="round"
         points="60.000,43.301 70.000,43.301 75.000,34.641 65.000,17.321 60.000,25.981 50.000,25.981 55.000,34.641 65.000,34.641">
<desc>A7</desc>
</polygon>
<polygon fill="teal" stroke="white"
         stroke-width="1" stroke-linejoin="round"
         points="70.000,25.981 75.000,34.641 80.000,25.981 100.000,25.981 95.000,17.321 85.000,17.321 80.000,8.660">
<desc>T7</desc>
</polygon>
<polygon fill="blueviolet" stroke="white"
         stroke-width="1" stroke-linejoin="round"
         points="150.000,25.981 155.000,34.641 160.000,25.981 155.000,17.321 160.000,8.660 150.000,8.660 145.000,17.321 135.000,17.321 140.000,25.981">
<desc>W7</desc>
</polygon>
<polygon fill="lime" stroke="white"
         stroke-width="1" stroke-linejoin="round"
         points="165.000,34.641 175.000,34.641 180.000,25.981 170.000,8.660 160.000,8.660 155.000,17.321 165.000,17.321 170.000,25.981">
<desc>C7</desc>
</polygon>
<polygon fill="tan" stroke="white"
         stroke-width="1" stroke-linejoin="round"
         points="50.000,25.981 60.000,25.981 65.000,17.321 70.000,25.981 80.000,8.660 60.000,8.660">
<desc>U7</desc>
</polygon>
<polygon fill="turquoise" stroke="white"
         stroke-width="1" stroke-linejoin="round"
         points="95.000,17.321 100.000,25.981 110.000,25.981 105.000,17.321 110.000,8.660 80.000,8.660 85.000,17.321">
<desc>H7</desc>
</polygon>
<polygon fill="steelblue" stroke="white"
         stroke-width="1" stroke-linejoin="round"
         points="105.000,17.321 110.000,25.981 140.000,25.981 135.000,17.321 115.000,17.321 110.000,8.660">
<desc>L7</desc>
</polygon>
<polygon fill="blue" stroke="white"
         stroke-width="1" stroke-linejoin="round"
         points="110.000,8.660 115.000,17.321 145.000,17.321 150.000,8.660">
<desc>I7</desc>
</polygon>
</g>
</svg>
