<?xml version="1.0" standalone="no"?>
<!-- Created by Polyform Puzzler (http://puzzler.sourceforge.net/) -->
<svg width="520.000" height="520.000"
     viewBox="0 0 520.000 520.000"
     xmlns="http://www.w3.org/2000/svg"
     xmlns:xlink="http://www.w3.org/1999/xlink">
<g transform="translate(260.000,130.000) rotate(30)">
<polygon fill="maroon" stroke="white"
         stroke-width="1" stroke-linejoin="round"
         points="125.000,138.564 130.000,147.224 140.000,129.904 135.000,121.244 130.000,129.904 125.000,121.244 115.000,121.244">
<desc>G7</desc>
</polygon>
<polygon fill="gold" stroke="white"
         stroke-width="1" stroke-linejoin="round"
         points="95.000,121.244 100.000,129.904 120.000,129.904 115.000,121.244 105.000,121.244 110.000,112.583 105.000,103.923">
<desc>V7</desc>
</polygon>
<polygon fill="teal" stroke="white"
         stroke-width="1" stroke-linejoin="round"
         points="125.000,121.244 130.000,129.904 135.000,121.244 125.000,103.923 120.000,112.583 110.000,112.583 105.000,121.244">
<desc>T7</desc>
</polygon>
<polygon fill="lightcoral" stroke="white"
         stroke-width="1" stroke-linejoin="round"
         points="90.000,112.583 95.000,121.244 100.000,112.583 95.000,103.923 85.000,103.923 80.000,95.263 70.000,112.583">
<desc>Q7</desc>
</polygon>
<polygon fill="darkorange" stroke="white"
         stroke-width="1" stroke-linejoin="round"
         points="95.000,103.923 100.000,112.583 105.000,103.923 115.000,103.923 110.000,95.263 80.000,95.263 85.000,103.923">
<desc>E7</desc>
</polygon>
<polygon fill="navy" stroke="white"
         stroke-width="1" stroke-linejoin="round"
         points="105.000,103.923 110.000,112.583 120.000,112.583 125.000,103.923 130.000,112.583 135.000,103.923 130.000,95.263 120.000,95.263 115.000,103.923">
<desc>S7</desc>
</polygon>
<polygon fill="tan" stroke="white"
         stroke-width="1" stroke-linejoin="round"
         points="165.000,103.923 170.000,112.583 190.000,112.583 180.000,95.263 175.000,103.923 170.000,95.263 160.000,95.263">
<desc>U7</desc>
</polygon>
<polygon fill="lime" stroke="white"
         stroke-width="1" stroke-linejoin="round"
         points="110.000,95.263 115.000,103.923 120.000,95.263 130.000,95.263 135.000,103.923 140.000,95.263 135.000,86.603 115.000,86.603">
<desc>C7</desc>
</polygon>
<polygon fill="magenta" stroke="white"
         stroke-width="1" stroke-linejoin="round"
         points="170.000,95.263 175.000,103.923 190.000,77.942 185.000,69.282 175.000,86.603 165.000,86.603">
<desc>P7</desc>
</polygon>
<polygon fill="turquoise" stroke="white"
         stroke-width="1" stroke-linejoin="round"
         points="100.000,95.263 110.000,95.263 115.000,86.603 125.000,86.603 130.000,77.942 120.000,77.942 115.000,69.282">
<desc>H7</desc>
</polygon>
<polygon fill="plum" stroke="white"
         stroke-width="1" stroke-linejoin="round"
         points="135.000,86.603 140.000,95.263 150.000,77.942 140.000,77.942 145.000,69.282 135.000,69.282 125.000,86.603">
<desc>B7</desc>
</polygon>
<polygon fill="red" stroke="white"
         stroke-width="1" stroke-linejoin="round"
         points="140.000,95.263 170.000,95.263 160.000,77.942 155.000,86.603 150.000,77.942">
<desc>M7</desc>
</polygon>
<polygon fill="indigo" stroke="white"
         stroke-width="1" stroke-linejoin="round"
         points="150.000,77.942 155.000,86.603 165.000,69.282 155.000,69.282 150.000,60.622 140.000,60.622 145.000,69.282 140.000,77.942">
<desc>X7</desc>
</polygon>
<polygon fill="yellowgreen" stroke="white"
         stroke-width="1" stroke-linejoin="round"
         points="160.000,77.942 165.000,86.603 175.000,86.603 185.000,69.282 180.000,60.622 170.000,77.942 165.000,69.282">
<desc>J7</desc>
</polygon>
<polygon fill="yellow" stroke="white"
         stroke-width="1" stroke-linejoin="round"
         points="105.000,69.282 110.000,77.942 115.000,69.282 120.000,77.942 125.000,69.282 120.000,60.622 125.000,51.962 115.000,51.962">
<desc>Y7</desc>
</polygon>
<polygon fill="blueviolet" stroke="white"
         stroke-width="1" stroke-linejoin="round"
         points="120.000,77.942 130.000,77.942 135.000,69.282 145.000,69.282 140.000,60.622 130.000,60.622 125.000,51.962 120.000,60.622 125.000,69.282">
<desc>W7</desc>
</polygon>
<polygon fill="blue" stroke="white"
         stroke-width="1" stroke-linejoin="round"
         points="165.000,69.282 170.000,77.942 190.000,43.301 180.000,43.301">
<desc>I7</desc>
</polygon>
<polygon fill="peru" stroke="white"
         stroke-width="1" stroke-linejoin="round"
         points="100.000,60.622 105.000,69.282 115.000,51.962 110.000,43.301 100.000,43.301 105.000,51.962 95.000,51.962 90.000,60.622">
<desc>A7</desc>
</polygon>
<polygon fill="steelblue" stroke="white"
         stroke-width="1" stroke-linejoin="round"
         points="150.000,60.622 155.000,69.282 165.000,69.282 180.000,43.301 170.000,43.301 160.000,60.622">
<desc>L7</desc>
</polygon>
<polygon fill="green" stroke="white"
         stroke-width="1" stroke-linejoin="round"
         points="75.000,51.962 80.000,60.622 90.000,60.622 95.000,51.962 90.000,43.301 70.000,43.301">
<desc>D7</desc>
</polygon>
<polygon fill="gray" stroke="white"
         stroke-width="1" stroke-linejoin="round"
         points="125.000,51.962 130.000,60.622 140.000,60.622 130.000,43.301 120.000,43.301 115.000,34.641 110.000,43.301 115.000,51.962">
<desc>N7</desc>
</polygon>
<polygon fill="darkseagreen" stroke="white"
         stroke-width="1" stroke-linejoin="round"
         points="90.000,43.301 95.000,51.962 105.000,51.962 100.000,43.301 110.000,43.301 105.000,34.641 110.000,25.981 100.000,25.981">
<desc>F7</desc>
</polygon>
<polygon fill="orangered" stroke="white"
         stroke-width="1" stroke-linejoin="round"
         points="105.000,34.641 110.000,43.301 115.000,34.641 120.000,43.301 130.000,25.981 125.000,17.321 120.000,25.981 110.000,25.981">
<desc>Z7</desc>
</polygon>
<polygon fill="olive" stroke="white"
         stroke-width="1" stroke-linejoin="round"
         points="120.000,43.301 130.000,43.301 140.000,25.981 130.000,8.660 125.000,17.321 130.000,25.981">
<desc>R7</desc>
</polygon>
</g>
</svg>
