<?xml version="1.0" standalone="no"?>
<!-- Created by Polyform Puzzler (http://puzzler.sourceforge.net/) -->
<svg width="400.000" height="400.000"
     viewBox="0 0 400.000 400.000"
     xmlns="http://www.w3.org/2000/svg"
     xmlns:xlink="http://www.w3.org/1999/xlink">
<g transform="translate(200.000,100.000) rotate(30)">
<polygon fill="lime" stroke="white"
         stroke-width="1" stroke-linejoin="round"
         points="45.000,121.244 50.000,129.904 60.000,129.904 55.000,121.244 60.000,112.583 70.000,112.583 65.000,103.923 55.000,103.923">
<desc>C7</desc>
</polygon>
<polygon fill="gray" stroke="white"
         stroke-width="1" stroke-linejoin="round"
         points="55.000,121.244 60.000,129.904 65.000,121.244 75.000,121.244 85.000,103.923 75.000,103.923 70.000,112.583 60.000,112.583">
<desc>N7</desc>
</polygon>
<polygon fill="darkorange" stroke="white"
         stroke-width="1" stroke-linejoin="round"
         points="45.000,103.923 50.000,112.583 55.000,103.923 65.000,103.923 60.000,95.263 65.000,86.603 60.000,77.942">
<desc>E7</desc>
</polygon>
<polygon fill="green" stroke="white"
         stroke-width="1" stroke-linejoin="round"
         points="65.000,103.923 70.000,112.583 80.000,95.263 75.000,86.603 65.000,86.603 60.000,95.263">
<desc>D7</desc>
</polygon>
<polygon fill="plum" stroke="white"
         stroke-width="1" stroke-linejoin="round"
         points="80.000,112.583 90.000,112.583 100.000,95.263 90.000,95.263 85.000,86.603 75.000,103.923 85.000,103.923">
<desc>B7</desc>
</polygon>
<polygon fill="yellow" stroke="white"
         stroke-width="1" stroke-linejoin="round"
         points="95.000,103.923 105.000,103.923 115.000,86.603 110.000,77.942 105.000,86.603 100.000,77.942 95.000,86.603 100.000,95.263">
<desc>Y7</desc>
</polygon>
<polygon fill="turquoise" stroke="white"
         stroke-width="1" stroke-linejoin="round"
         points="45.000,86.603 50.000,95.263 65.000,69.282 55.000,69.282 50.000,60.622 45.000,69.282 50.000,77.942">
<desc>H7</desc>
</polygon>
<polygon fill="maroon" stroke="white"
         stroke-width="1" stroke-linejoin="round"
         points="75.000,86.603 80.000,95.263 85.000,86.603 90.000,95.263 100.000,95.263 85.000,69.282">
<desc>G7</desc>
</polygon>
<polygon fill="orangered" stroke="white"
         stroke-width="1" stroke-linejoin="round"
         points="110.000,95.263 120.000,95.263 130.000,77.942 120.000,77.942 125.000,69.282 115.000,69.282 110.000,77.942 115.000,86.603">
<desc>Z7</desc>
</polygon>
<polygon fill="steelblue" stroke="white"
         stroke-width="1" stroke-linejoin="round"
         points="60.000,77.942 65.000,86.603 75.000,86.603 90.000,60.622 80.000,60.622 70.000,77.942">
<desc>L7</desc>
</polygon>
<polygon fill="red" stroke="white"
         stroke-width="1" stroke-linejoin="round"
         points="90.000,77.942 95.000,86.603 100.000,77.942 105.000,86.603 115.000,69.282 85.000,69.282">
<desc>M7</desc>
</polygon>
<polygon fill="darkseagreen" stroke="white"
         stroke-width="1" stroke-linejoin="round"
         points="125.000,86.603 135.000,86.603 140.000,77.942 130.000,60.622 120.000,60.622 125.000,69.282 120.000,77.942 130.000,77.942">
<desc>F7</desc>
</polygon>
<polygon fill="peru" stroke="white"
         stroke-width="1" stroke-linejoin="round"
         points="60.000,77.942 70.000,77.942 75.000,69.282 65.000,51.962 60.000,60.622 50.000,60.622 55.000,69.282 65.000,69.282">
<desc>A7</desc>
</polygon>
<polygon fill="yellowgreen" stroke="white"
         stroke-width="1" stroke-linejoin="round"
         points="135.000,69.282 140.000,77.942 150.000,77.942 155.000,69.282 150.000,60.622 145.000,69.282 135.000,51.962 130.000,60.622">
<desc>J7</desc>
</polygon>
<polygon fill="lightcoral" stroke="white"
         stroke-width="1" stroke-linejoin="round"
         points="70.000,60.622 75.000,69.282 85.000,51.962 95.000,51.962 90.000,43.301 80.000,43.301 75.000,51.962 65.000,51.962">
<desc>Q7</desc>
</polygon>
<polygon fill="blue" stroke="white"
         stroke-width="1" stroke-linejoin="round"
         points="85.000,69.282 125.000,69.282 120.000,60.622 90.000,60.622">
<desc>I7</desc>
</polygon>
<polygon fill="olive" stroke="white"
         stroke-width="1" stroke-linejoin="round"
         points="140.000,60.622 145.000,69.282 150.000,60.622 140.000,43.301 120.000,43.301 125.000,51.962 135.000,51.962">
<desc>R7</desc>
</polygon>
<polygon fill="gold" stroke="white"
         stroke-width="1" stroke-linejoin="round"
         points="80.000,60.622 100.000,60.622 105.000,51.962 95.000,34.641 90.000,43.301 95.000,51.962 85.000,51.962">
<desc>V7</desc>
</polygon>
<polygon fill="magenta" stroke="white"
         stroke-width="1" stroke-linejoin="round"
         points="100.000,60.622 130.000,60.622 135.000,51.962 115.000,51.962 110.000,43.301">
<desc>P7</desc>
</polygon>
<polygon fill="teal" stroke="white"
         stroke-width="1" stroke-linejoin="round"
         points="145.000,51.962 150.000,60.622 155.000,51.962 150.000,43.301 155.000,34.641 135.000,34.641 130.000,43.301 140.000,43.301">
<desc>T7</desc>
</polygon>
<polygon fill="tan" stroke="white"
         stroke-width="1" stroke-linejoin="round"
         points="100.000,43.301 105.000,51.962 110.000,43.301 115.000,51.962 125.000,51.962 115.000,34.641 95.000,34.641">
<desc>U7</desc>
</polygon>
<polygon fill="blueviolet" stroke="white"
         stroke-width="1" stroke-linejoin="round"
         points="115.000,34.641 120.000,43.301 130.000,43.301 125.000,34.641 130.000,25.981 125.000,17.321 120.000,25.981 110.000,25.981 105.000,34.641">
<desc>W7</desc>
</polygon>
<polygon fill="indigo" stroke="white"
         stroke-width="1" stroke-linejoin="round"
         points="125.000,34.641 130.000,43.301 135.000,34.641 145.000,34.641 140.000,25.981 145.000,17.321 125.000,17.321 130.000,25.981">
<desc>X7</desc>
</polygon>
<polygon fill="navy" stroke="white"
         stroke-width="1" stroke-linejoin="round"
         points="140.000,25.981 145.000,34.641 155.000,34.641 150.000,25.981 155.000,17.321 150.000,8.660 140.000,8.660 135.000,17.321 145.000,17.321">
<desc>S7</desc>
</polygon>
</g>
</svg>
