<?xml version="1.0" standalone="no"?>
<!-- Created by Polyform Puzzler (http://puzzler.sourceforge.net/) -->
<svg width="175.0" height="77.9422863406" viewBox="0 0 175.0 77.9422863406"
     xmlns="http://www.w3.org/2000/svg">
<g>
<polygon fill="green" stroke="white"
         stroke-width="1" stroke-linejoin="round"
         points="10.000,69.282 30.000,69.282 35.000,60.622 30.000,51.962 20.000,51.962" />
<polygon fill="palegreen" stroke="white"
         stroke-width="1" stroke-linejoin="round"
         points="30.000,69.282 50.000,69.282 55.000,60.622 50.000,51.962 45.000,60.622 40.000,51.962 30.000,51.962 35.000,60.622" />
<polygon fill="blue" stroke="white"
         stroke-width="1" stroke-linejoin="round"
         points="50.000,69.282 60.000,69.282 75.000,43.301 70.000,34.641" />
<polygon fill="steelblue" stroke="white"
         stroke-width="1" stroke-linejoin="round"
         points="60.000,69.282 70.000,69.282 80.000,51.962 90.000,51.962 85.000,43.301 75.000,43.301" />
<polygon fill="silver" stroke="white"
         stroke-width="1" stroke-linejoin="round"
         points="70.000,69.282 80.000,69.282 85.000,60.622 95.000,60.622 100.000,51.962 95.000,43.301 90.000,51.962 80.000,51.962" />
<polygon fill="olive" stroke="white"
         stroke-width="1" stroke-linejoin="round"
         points="80.000,69.282 100.000,69.282 110.000,51.962 105.000,43.301 95.000,60.622 85.000,60.622" />
<polygon fill="red" stroke="white"
         stroke-width="1" stroke-linejoin="round"
         points="100.000,69.282 120.000,69.282 115.000,60.622 125.000,60.622 115.000,43.301" />
<polygon fill="springgreen" stroke="white"
         stroke-width="1" stroke-linejoin="round"
         points="115.000,60.622 120.000,69.282 130.000,69.282 135.000,60.622 125.000,43.301 115.000,43.301 125.000,60.622" />
<polygon fill="darkseagreen" stroke="white"
         stroke-width="1" stroke-linejoin="round"
         points="40.000,51.962 45.000,60.622 50.000,51.962 55.000,60.622 60.000,51.962 55.000,43.301 35.000,43.301 30.000,51.962" />
<polygon fill="tan" stroke="white"
         stroke-width="1" stroke-linejoin="round"
         points="130.000,51.962 135.000,60.622 145.000,43.301 135.000,25.981 130.000,34.641 135.000,43.301 125.000,43.301" />
<polygon fill="turquoise" stroke="white"
         stroke-width="1" stroke-linejoin="round"
         points="20.000,51.962 30.000,51.962 35.000,43.301 45.000,43.301 50.000,34.641 40.000,34.641 35.000,25.981" />
<polygon fill="plum" stroke="white"
         stroke-width="1" stroke-linejoin="round"
         points="55.000,43.301 60.000,51.962 70.000,34.641 60.000,34.641 65.000,25.981 55.000,25.981 45.000,43.301" />
<polygon fill="blueviolet" stroke="white"
         stroke-width="1" stroke-linejoin="round"
         points="85.000,43.301 90.000,51.962 95.000,43.301 90.000,34.641 95.000,25.981 85.000,25.981 80.000,34.641 70.000,34.641 75.000,43.301" />
<polygon fill="orangered" stroke="white"
         stroke-width="1" stroke-linejoin="round"
         points="95.000,43.301 100.000,51.962 105.000,43.301 110.000,51.962 115.000,43.301 110.000,34.641 115.000,25.981 105.000,25.981" />
<polygon fill="teal" stroke="white"
         stroke-width="1" stroke-linejoin="round"
         points="90.000,34.641 95.000,43.301 105.000,25.981 115.000,25.981 110.000,17.321 90.000,17.321 95.000,25.981" />
<polygon fill="gold" stroke="white"
         stroke-width="1" stroke-linejoin="round"
         points="110.000,34.641 115.000,43.301 135.000,43.301 130.000,34.641 120.000,34.641 125.000,25.981 120.000,17.321" />
<polygon fill="maroon" stroke="white"
         stroke-width="1" stroke-linejoin="round"
         points="140.000,34.641 145.000,43.301 160.000,17.321 150.000,17.321 145.000,25.981 140.000,17.321 135.000,25.981" />
<polygon fill="lime" stroke="white"
         stroke-width="1" stroke-linejoin="round"
         points="35.000,25.981 40.000,34.641 50.000,34.641 45.000,25.981 50.000,17.321 60.000,17.321 55.000,8.660 45.000,8.660" />
<polygon fill="navy" stroke="white"
         stroke-width="1" stroke-linejoin="round"
         points="45.000,25.981 50.000,34.641 55.000,25.981 65.000,25.981 70.000,17.321 65.000,8.660 55.000,8.660 60.000,17.321 50.000,17.321" />
<polygon fill="lightcoral" stroke="white"
         stroke-width="1" stroke-linejoin="round"
         points="60.000,34.641 80.000,34.641 75.000,25.981 80.000,17.321 75.000,8.660 65.000,8.660 70.000,17.321" />
<polygon fill="indigo" stroke="white"
         stroke-width="1" stroke-linejoin="round"
         points="75.000,25.981 80.000,34.641 85.000,25.981 95.000,25.981 90.000,17.321 95.000,8.660 75.000,8.660 80.000,17.321" />
<polygon fill="lightgreen" stroke="white"
         stroke-width="1" stroke-linejoin="round"
         points="120.000,34.641 130.000,34.641 140.000,17.321 130.000,17.321 135.000,8.660 125.000,8.660 120.000,17.321 125.000,25.981" />
<polygon fill="magenta" stroke="white"
         stroke-width="1" stroke-linejoin="round"
         points="110.000,17.321 115.000,25.981 125.000,8.660 95.000,8.660 90.000,17.321" />
<polygon fill="darkorange" stroke="white"
         stroke-width="1" stroke-linejoin="round"
         points="140.000,17.321 145.000,25.981 150.000,17.321 160.000,17.321 165.000,8.660 135.000,8.660 130.000,17.321" />
</g>
</svg>
