<?xml version="1.0" standalone="no"?>
<!-- Created by Polyform Puzzler (http://puzzler.sourceforge.net/) -->
<svg width="245.000" height="147.224"
     viewBox="0 0 245.000 147.224"
     xmlns="http://www.w3.org/2000/svg"
     xmlns:xlink="http://www.w3.org/1999/xlink">
<g>
<polygon fill="gold" stroke="white"
         stroke-width="1" stroke-linejoin="round"
         points="135.000,129.904 140.000,138.564 150.000,138.564 160.000,121.244 150.000,121.244 145.000,129.904 140.000,121.244 130.000,121.244">
<desc>V7</desc>
</polygon>
<polygon fill="lime" stroke="white"
         stroke-width="1" stroke-linejoin="round"
         points="120.000,121.244 125.000,129.904 135.000,129.904 130.000,121.244 135.000,112.583 145.000,112.583 140.000,103.923 130.000,103.923">
<desc>C7</desc>
</polygon>
<polygon fill="indigo" stroke="white"
         stroke-width="1" stroke-linejoin="round"
         points="140.000,121.244 145.000,129.904 150.000,121.244 160.000,121.244 150.000,103.923 145.000,112.583 135.000,112.583 130.000,121.244">
<desc>X7</desc>
</polygon>
<polygon fill="lightcoral" stroke="white"
         stroke-width="1" stroke-linejoin="round"
         points="155.000,129.904 165.000,129.904 170.000,121.244 165.000,112.583 170.000,103.923 150.000,103.923 160.000,121.244">
<desc>Q7</desc>
</polygon>
<polygon fill="blueviolet" stroke="white"
         stroke-width="1" stroke-linejoin="round"
         points="120.000,103.923 125.000,112.583 130.000,103.923 140.000,103.923 145.000,95.263 135.000,95.263 130.000,86.603 120.000,86.603 125.000,95.263">
<desc>W7</desc>
</polygon>
<polygon fill="teal" stroke="white"
         stroke-width="1" stroke-linejoin="round"
         points="140.000,103.923 145.000,112.583 150.000,103.923 170.000,103.923 165.000,95.263 155.000,95.263 150.000,86.603">
<desc>T7</desc>
</polygon>
<polygon fill="yellowgreen" stroke="white"
         stroke-width="1" stroke-linejoin="round"
         points="130.000,86.603 135.000,95.263 145.000,95.263 155.000,77.942 150.000,69.282 140.000,86.603 135.000,77.942">
<desc>J7</desc>
</polygon>
<polygon fill="navy" stroke="white"
         stroke-width="1" stroke-linejoin="round"
         points="75.000,77.942 80.000,86.603 90.000,86.603 95.000,77.942 105.000,77.942 100.000,69.282 90.000,69.282 85.000,77.942 80.000,69.282">
<desc>S7</desc>
</polygon>
<polygon fill="turquoise" stroke="white"
         stroke-width="1" stroke-linejoin="round"
         points="105.000,77.942 110.000,86.603 115.000,77.942 125.000,77.942 120.000,69.282 110.000,69.282 105.000,60.622 95.000,60.622">
<desc>H7</desc>
</polygon>
<polygon fill="tan" stroke="white"
         stroke-width="1" stroke-linejoin="round"
         points="110.000,86.603 130.000,86.603 140.000,69.282 120.000,69.282 125.000,77.942 115.000,77.942">
<desc>U7</desc>
</polygon>
<polygon fill="blue" stroke="white"
         stroke-width="1" stroke-linejoin="round"
         points="135.000,77.942 140.000,86.603 160.000,51.962 150.000,51.962">
<desc>I7</desc>
</polygon>
<polygon fill="green" stroke="white"
         stroke-width="1" stroke-linejoin="round"
         points="60.000,69.282 65.000,77.942 75.000,77.942 80.000,69.282 70.000,51.962">
<desc>D7</desc>
</polygon>
<polygon fill="plum" stroke="white"
         stroke-width="1" stroke-linejoin="round"
         points="80.000,69.282 85.000,77.942 90.000,69.282 100.000,69.282 90.000,51.962 80.000,51.962 85.000,60.622 75.000,60.622">
<desc>B7</desc>
</polygon>
<polygon fill="darkorange" stroke="white"
         stroke-width="1" stroke-linejoin="round"
         points="105.000,60.622 110.000,69.282 120.000,69.282 105.000,43.301 95.000,43.301 100.000,51.962 95.000,60.622">
<desc>E7</desc>
</polygon>
<polygon fill="olive" stroke="white"
         stroke-width="1" stroke-linejoin="round"
         points="115.000,60.622 120.000,69.282 140.000,69.282 150.000,51.962 140.000,51.962 135.000,60.622">
<desc>R7</desc>
</polygon>
<polygon fill="peru" stroke="white"
         stroke-width="1" stroke-linejoin="round"
         points="60.000,51.962 65.000,60.622 70.000,51.962 75.000,60.622 85.000,60.622 80.000,51.962 85.000,43.301 65.000,43.301">
<desc>A7</desc>
</polygon>
<polygon fill="darkseagreen" stroke="white"
         stroke-width="1" stroke-linejoin="round"
         points="90.000,51.962 95.000,60.622 100.000,51.962 90.000,34.641 80.000,34.641 75.000,43.301 85.000,43.301 80.000,51.962">
<desc>F7</desc>
</polygon>
<polygon fill="yellow" stroke="white"
         stroke-width="1" stroke-linejoin="round"
         points="110.000,51.962 115.000,60.622 135.000,60.622 140.000,51.962 130.000,51.962 135.000,43.301 125.000,43.301 120.000,51.962">
<desc>Y7</desc>
</polygon>
<polygon fill="maroon" stroke="white"
         stroke-width="1" stroke-linejoin="round"
         points="155.000,60.622 165.000,60.622 175.000,43.301 145.000,43.301 150.000,51.962 160.000,51.962">
<desc>G7</desc>
</polygon>
<polygon fill="red" stroke="white"
         stroke-width="1" stroke-linejoin="round"
         points="130.000,51.962 150.000,51.962 145.000,43.301 155.000,43.301 145.000,25.981">
<desc>M7</desc>
</polygon>
<polygon fill="orangered" stroke="white"
         stroke-width="1" stroke-linejoin="round"
         points="170.000,51.962 180.000,51.962 185.000,43.301 180.000,34.641 185.000,25.981 175.000,25.981 165.000,43.301 175.000,43.301">
<desc>Z7</desc>
</polygon>
<polygon fill="magenta" stroke="white"
         stroke-width="1" stroke-linejoin="round"
         points="150.000,34.641 155.000,43.301 170.000,17.321 165.000,8.660 155.000,25.981 145.000,25.981">
<desc>P7</desc>
</polygon>
<polygon fill="steelblue" stroke="white"
         stroke-width="1" stroke-linejoin="round"
         points="155.000,43.301 165.000,43.301 175.000,25.981 185.000,25.981 180.000,17.321 170.000,17.321">
<desc>L7</desc>
</polygon>
<polygon fill="gray" stroke="white"
         stroke-width="1" stroke-linejoin="round"
         points="135.000,25.981 140.000,34.641 145.000,25.981 155.000,25.981 165.000,8.660 155.000,8.660 150.000,17.321 140.000,17.321">
<desc>N7</desc>
</polygon>
</g>
</svg>
