<?xml version="1.0" standalone="no"?>
<!-- Created by Polyform Puzzler (http://puzzler.sourceforge.net/) -->
<svg width="195.000" height="147.224"
     viewBox="0 0 195.000 147.224"
     xmlns="http://www.w3.org/2000/svg"
     xmlns:xlink="http://www.w3.org/1999/xlink">
<g>
<polygon fill="yellowgreen" stroke="white"
         stroke-width="1" stroke-linejoin="round"
         points="55.000,129.904 60.000,138.564 80.000,138.564 85.000,129.904 65.000,129.904 70.000,121.244 60.000,121.244">
<desc>J7</desc>
</polygon>
<polygon fill="teal" stroke="white"
         stroke-width="1" stroke-linejoin="round"
         points="80.000,138.564 90.000,138.564 100.000,121.244 90.000,121.244 85.000,112.583 75.000,112.583 85.000,129.904">
<desc>T7</desc>
</polygon>
<polygon fill="tan" stroke="white"
         stroke-width="1" stroke-linejoin="round"
         points="90.000,138.564 110.000,138.564 120.000,121.244 110.000,121.244 105.000,129.904 100.000,121.244">
<desc>U7</desc>
</polygon>
<polygon fill="magenta" stroke="white"
         stroke-width="1" stroke-linejoin="round"
         points="50.000,121.244 55.000,129.904 70.000,103.923 65.000,95.263 55.000,112.583 45.000,112.583">
<desc>P7</desc>
</polygon>
<polygon fill="red" stroke="white"
         stroke-width="1" stroke-linejoin="round"
         points="65.000,129.904 85.000,129.904 70.000,103.923 60.000,121.244 70.000,121.244">
<desc>M7</desc>
</polygon>
<polygon fill="blueviolet" stroke="white"
         stroke-width="1" stroke-linejoin="round"
         points="100.000,121.244 105.000,129.904 110.000,121.244 105.000,112.583 110.000,103.923 100.000,103.923 95.000,112.583 85.000,112.583 90.000,121.244">
<desc>W7</desc>
</polygon>
<polygon fill="steelblue" stroke="white"
         stroke-width="1" stroke-linejoin="round"
         points="105.000,112.583 110.000,121.244 120.000,121.244 135.000,95.263 125.000,95.263 115.000,112.583">
<desc>L7</desc>
</polygon>
<polygon fill="gold" stroke="white"
         stroke-width="1" stroke-linejoin="round"
         points="40.000,103.923 45.000,112.583 55.000,112.583 65.000,95.263 55.000,95.263 50.000,103.923 45.000,95.263 35.000,95.263">
<desc>V7</desc>
</polygon>
<polygon fill="olive" stroke="white"
         stroke-width="1" stroke-linejoin="round"
         points="70.000,103.923 75.000,112.583 80.000,103.923 75.000,95.263 85.000,77.942 75.000,77.942 65.000,95.263">
<desc>R7</desc>
</polygon>
<polygon fill="gray" stroke="white"
         stroke-width="1" stroke-linejoin="round"
         points="75.000,112.583 95.000,112.583 100.000,103.923 110.000,103.923 105.000,95.263 95.000,95.263 90.000,103.923 80.000,103.923">
<desc>N7</desc>
</polygon>
<polygon fill="yellow" stroke="white"
         stroke-width="1" stroke-linejoin="round"
         points="105.000,112.583 115.000,112.583 125.000,95.263 120.000,86.603 115.000,95.263 110.000,86.603 105.000,95.263 110.000,103.923">
<desc>Y7</desc>
</polygon>
<polygon fill="indigo" stroke="white"
         stroke-width="1" stroke-linejoin="round"
         points="45.000,95.263 50.000,103.923 55.000,95.263 65.000,95.263 60.000,86.603 50.000,86.603 45.000,77.942 35.000,95.263">
<desc>X7</desc>
</polygon>
<polygon fill="lightcoral" stroke="white"
         stroke-width="1" stroke-linejoin="round"
         points="60.000,86.603 65.000,95.263 75.000,77.942 85.000,77.942 80.000,69.282 70.000,69.282 65.000,77.942 55.000,77.942">
<desc>Q7</desc>
</polygon>
<polygon fill="lime" stroke="white"
         stroke-width="1" stroke-linejoin="round"
         points="90.000,86.603 95.000,95.263 105.000,95.263 110.000,86.603 100.000,86.603 95.000,77.942 100.000,69.282 90.000,69.282 85.000,77.942">
<desc>C7</desc>
</polygon>
<polygon fill="orangered" stroke="white"
         stroke-width="1" stroke-linejoin="round"
         points="110.000,86.603 115.000,95.263 120.000,86.603 110.000,69.282 105.000,77.942 100.000,69.282 95.000,77.942 100.000,86.603">
<desc>Z7</desc>
</polygon>
<polygon fill="blue" stroke="white"
         stroke-width="1" stroke-linejoin="round"
         points="120.000,86.603 125.000,95.263 135.000,95.263 115.000,60.622 110.000,69.282">
<desc>I7</desc>
</polygon>
<polygon fill="navy" stroke="white"
         stroke-width="1" stroke-linejoin="round"
         points="45.000,77.942 50.000,86.603 60.000,86.603 55.000,77.942 65.000,77.942 70.000,69.282 65.000,60.622 60.000,69.282 50.000,69.282">
<desc>S7</desc>
</polygon>
<polygon fill="turquoise" stroke="white"
         stroke-width="1" stroke-linejoin="round"
         points="80.000,69.282 85.000,77.942 100.000,51.962 90.000,51.962 85.000,60.622 75.000,60.622 70.000,69.282">
<desc>H7</desc>
</polygon>
<polygon fill="plum" stroke="white"
         stroke-width="1" stroke-linejoin="round"
         points="100.000,69.282 105.000,77.942 115.000,60.622 110.000,51.962 105.000,60.622 100.000,51.962 90.000,69.282">
<desc>B7</desc>
</polygon>
<polygon fill="maroon" stroke="white"
         stroke-width="1" stroke-linejoin="round"
         points="50.000,69.282 60.000,69.282 65.000,60.622 70.000,69.282 75.000,60.622 65.000,43.301">
<desc>G7</desc>
</polygon>
<polygon fill="darkseagreen" stroke="white"
         stroke-width="1" stroke-linejoin="round"
         points="70.000,51.962 75.000,60.622 85.000,60.622 95.000,43.301 90.000,34.641 85.000,43.301 75.000,43.301 80.000,51.962">
<desc>F7</desc>
</polygon>
<polygon fill="darkorange" stroke="white"
         stroke-width="1" stroke-linejoin="round"
         points="100.000,51.962 105.000,60.622 110.000,51.962 95.000,25.981 90.000,34.641 95.000,43.301 90.000,51.962">
<desc>E7</desc>
</polygon>
<polygon fill="peru" stroke="white"
         stroke-width="1" stroke-linejoin="round"
         points="65.000,43.301 70.000,51.962 80.000,51.962 75.000,43.301 85.000,43.301 90.000,34.641 80.000,34.641 75.000,25.981">
<desc>A7</desc>
</polygon>
<polygon fill="green" stroke="white"
         stroke-width="1" stroke-linejoin="round"
         points="75.000,25.981 80.000,34.641 90.000,34.641 95.000,25.981 85.000,8.660">
<desc>D7</desc>
</polygon>
</g>
</svg>
