<?xml version="1.0" standalone="no"?>
<!-- Created by Polyform Puzzler (http://puzzler.sourceforge.net/) -->
<svg width="260.000" height="155.885"
     viewBox="0 0 260.000 155.885"
     xmlns="http://www.w3.org/2000/svg"
     xmlns:xlink="http://www.w3.org/1999/xlink">
<g>
<polygon fill="olive" stroke="white"
         stroke-width="1" stroke-linejoin="round"
         points="125.000,138.564 130.000,147.224 140.000,129.904 150.000,129.904 155.000,121.244 135.000,121.244">
<desc>R7</desc>
</polygon>
<polygon fill="gray" stroke="white"
         stroke-width="1" stroke-linejoin="round"
         points="120.000,129.904 125.000,138.564 130.000,129.904 125.000,121.244 115.000,121.244 110.000,112.583 100.000,112.583 110.000,129.904">
<desc>N7</desc>
</polygon>
<polygon fill="yellowgreen" stroke="white"
         stroke-width="1" stroke-linejoin="round"
         points="95.000,121.244 100.000,129.904 110.000,129.904 100.000,112.583 110.000,112.583 105.000,103.923 95.000,103.923 90.000,112.583">
<desc>J7</desc>
</polygon>
<polygon fill="yellow" stroke="white"
         stroke-width="1" stroke-linejoin="round"
         points="150.000,129.904 160.000,129.904 170.000,112.583 165.000,103.923 160.000,112.583 150.000,112.583 145.000,121.244 155.000,121.244">
<desc>Y7</desc>
</polygon>
<polygon fill="steelblue" stroke="white"
         stroke-width="1" stroke-linejoin="round"
         points="110.000,112.583 115.000,121.244 125.000,121.244 110.000,95.263 100.000,95.263 95.000,103.923 105.000,103.923">
<desc>L7</desc>
</polygon>
<polygon fill="turquoise" stroke="white"
         stroke-width="1" stroke-linejoin="round"
         points="135.000,121.244 145.000,121.244 150.000,112.583 160.000,112.583 165.000,103.923 155.000,103.923 150.000,95.263">
<desc>H7</desc>
</polygon>
<polygon fill="green" stroke="white"
         stroke-width="1" stroke-linejoin="round"
         points="70.000,112.583 90.000,112.583 95.000,103.923 90.000,95.263 80.000,95.263">
<desc>D7</desc>
</polygon>
<polygon fill="orangered" stroke="white"
         stroke-width="1" stroke-linejoin="round"
         points="165.000,103.923 170.000,112.583 175.000,103.923 165.000,86.603 160.000,95.263 155.000,86.603 150.000,95.263 155.000,103.923">
<desc>Z7</desc>
</polygon>
<polygon fill="magenta" stroke="white"
         stroke-width="1" stroke-linejoin="round"
         points="170.000,112.583 190.000,112.583 175.000,86.603 165.000,86.603 175.000,103.923">
<desc>P7</desc>
</polygon>
<polygon fill="indigo" stroke="white"
         stroke-width="1" stroke-linejoin="round"
         points="90.000,95.263 95.000,103.923 100.000,95.263 110.000,95.263 100.000,77.942 95.000,86.603 85.000,86.603 80.000,95.263">
<desc>X7</desc>
</polygon>
<polygon fill="peru" stroke="white"
         stroke-width="1" stroke-linejoin="round"
         points="75.000,86.603 80.000,95.263 85.000,86.603 95.000,86.603 90.000,77.942 80.000,77.942 85.000,69.282 75.000,69.282 70.000,77.942">
<desc>A7</desc>
</polygon>
<polygon fill="blueviolet" stroke="white"
         stroke-width="1" stroke-linejoin="round"
         points="155.000,86.603 160.000,95.263 165.000,86.603 175.000,86.603 180.000,77.942 170.000,77.942 165.000,69.282 155.000,69.282 160.000,77.942">
<desc>W7</desc>
</polygon>
<polygon fill="gold" stroke="white"
         stroke-width="1" stroke-linejoin="round"
         points="175.000,86.603 180.000,95.263 190.000,77.942 185.000,69.282 165.000,69.282 170.000,77.942 180.000,77.942">
<desc>V7</desc>
</polygon>
<polygon fill="darkseagreen" stroke="white"
         stroke-width="1" stroke-linejoin="round"
         points="90.000,77.942 95.000,86.603 100.000,77.942 90.000,60.622 80.000,60.622 75.000,69.282 85.000,69.282 80.000,77.942">
<desc>F7</desc>
</polygon>
<polygon fill="red" stroke="white"
         stroke-width="1" stroke-linejoin="round"
         points="95.000,69.282 100.000,77.942 110.000,60.622 100.000,60.622 105.000,51.962 85.000,51.962">
<desc>M7</desc>
</polygon>
<polygon fill="teal" stroke="white"
         stroke-width="1" stroke-linejoin="round"
         points="150.000,60.622 155.000,69.282 175.000,69.282 170.000,60.622 175.000,51.962 170.000,43.301 160.000,60.622">
<desc>T7</desc>
</polygon>
<polygon fill="lightcoral" stroke="white"
         stroke-width="1" stroke-linejoin="round"
         points="170.000,60.622 175.000,69.282 185.000,69.282 180.000,60.622 190.000,43.301 170.000,43.301 175.000,51.962">
<desc>Q7</desc>
</polygon>
<polygon fill="maroon" stroke="white"
         stroke-width="1" stroke-linejoin="round"
         points="75.000,51.962 80.000,60.622 90.000,60.622 85.000,51.962 95.000,51.962 100.000,43.301 70.000,43.301">
<desc>G7</desc>
</polygon>
<polygon fill="plum" stroke="white"
         stroke-width="1" stroke-linejoin="round"
         points="100.000,60.622 110.000,60.622 120.000,43.301 110.000,43.301 105.000,34.641 95.000,51.962 105.000,51.962">
<desc>B7</desc>
</polygon>
<polygon fill="lime" stroke="white"
         stroke-width="1" stroke-linejoin="round"
         points="145.000,51.962 150.000,60.622 160.000,60.622 170.000,43.301 165.000,34.641 155.000,34.641 160.000,43.301 155.000,51.962">
<desc>C7</desc>
</polygon>
<polygon fill="darkorange" stroke="white"
         stroke-width="1" stroke-linejoin="round"
         points="140.000,43.301 145.000,51.962 150.000,43.301 145.000,34.641 150.000,25.981 140.000,25.981 135.000,17.321 130.000,25.981">
<desc>E7</desc>
</polygon>
<polygon fill="navy" stroke="white"
         stroke-width="1" stroke-linejoin="round"
         points="145.000,51.962 155.000,51.962 160.000,43.301 155.000,34.641 165.000,34.641 160.000,25.981 150.000,25.981 145.000,34.641 150.000,43.301">
<desc>S7</desc>
</polygon>
<polygon fill="tan" stroke="white"
         stroke-width="1" stroke-linejoin="round"
         points="90.000,43.301 100.000,43.301 105.000,34.641 110.000,43.301 120.000,25.981 100.000,25.981">
<desc>U7</desc>
</polygon>
<polygon fill="blue" stroke="white"
         stroke-width="1" stroke-linejoin="round"
         points="110.000,43.301 120.000,43.301 135.000,17.321 130.000,8.660">
<desc>I7</desc>
</polygon>
</g>
</svg>
