<?xml version="1.0" standalone="no"?>
<!-- Created by Polyform Puzzler (http://puzzler.sourceforge.net/) -->
<svg width="200.0" height="86.6025403784" viewBox="0 0 200.0 86.6025403784"
     xmlns="http://www.w3.org/2000/svg"
     xmlns:xlink="http://www.w3.org/1999/xlink">
<g>
<polygon fill="turquoise" stroke="white"
         stroke-width="1" stroke-linejoin="round"
         points="45.000,69.282 50.000,77.942 65.000,51.962 55.000,51.962 50.000,43.301 45.000,51.962 50.000,60.622">
<desc>H7</desc>
</polygon>
<polygon fill="green" stroke="white"
         stroke-width="1" stroke-linejoin="round"
         points="50.000,77.942 70.000,77.942 75.000,69.282 70.000,60.622 60.000,60.622">
<desc>D7</desc>
</polygon>
<polygon fill="red" stroke="white"
         stroke-width="1" stroke-linejoin="round"
         points="70.000,77.942 100.000,77.942 90.000,60.622 85.000,69.282 80.000,60.622">
<desc>M7</desc>
</polygon>
<polygon fill="magenta" stroke="white"
         stroke-width="1" stroke-linejoin="round"
         points="95.000,69.282 100.000,77.942 110.000,77.942 100.000,60.622 105.000,51.962 85.000,51.962">
<desc>P7</desc>
</polygon>
<polygon fill="olive" stroke="white"
         stroke-width="1" stroke-linejoin="round"
         points="105.000,69.282 110.000,77.942 130.000,77.942 125.000,69.282 115.000,69.282 105.000,51.962 100.000,60.622">
<desc>R7</desc>
</polygon>
<polygon fill="indigo" stroke="white"
         stroke-width="1" stroke-linejoin="round"
         points="125.000,69.282 130.000,77.942 135.000,69.282 145.000,69.282 140.000,60.622 130.000,60.622 125.000,51.962 115.000,69.282">
<desc>X7</desc>
</polygon>
<polygon fill="gold" stroke="white"
         stroke-width="1" stroke-linejoin="round"
         points="130.000,77.942 150.000,77.942 155.000,69.282 145.000,51.962 140.000,60.622 145.000,69.282 135.000,69.282">
<desc>V7</desc>
</polygon>
<polygon fill="darkseagreen" stroke="white"
         stroke-width="1" stroke-linejoin="round"
         points="70.000,60.622 75.000,69.282 80.000,60.622 85.000,69.282 90.000,60.622 85.000,51.962 65.000,51.962 60.000,60.622">
<desc>F7</desc>
</polygon>
<polygon fill="lightcoral" stroke="white"
         stroke-width="1" stroke-linejoin="round"
         points="110.000,60.622 115.000,69.282 125.000,51.962 135.000,51.962 130.000,43.301 120.000,43.301 115.000,51.962 105.000,51.962">
<desc>Q7</desc>
</polygon>
<polygon fill="navy" stroke="white"
         stroke-width="1" stroke-linejoin="round"
         points="125.000,51.962 130.000,60.622 140.000,60.622 145.000,51.962 150.000,60.622 155.000,51.962 150.000,43.301 140.000,43.301 135.000,51.962">
<desc>S7</desc>
</polygon>
<polygon fill="lime" stroke="white"
         stroke-width="1" stroke-linejoin="round"
         points="50.000,43.301 55.000,51.962 75.000,51.962 80.000,43.301 75.000,34.641 70.000,43.301 60.000,43.301 55.000,34.641">
<desc>C7</desc>
</polygon>
<polygon fill="blue" stroke="white"
         stroke-width="1" stroke-linejoin="round"
         points="75.000,51.962 115.000,51.962 110.000,43.301 80.000,43.301">
<desc>I7</desc>
</polygon>
<polygon fill="tan" stroke="white"
         stroke-width="1" stroke-linejoin="round"
         points="110.000,43.301 115.000,51.962 120.000,43.301 115.000,34.641 125.000,34.641 115.000,17.321 105.000,34.641">
<desc>U7</desc>
</polygon>
<polygon fill="blueviolet" stroke="white"
         stroke-width="1" stroke-linejoin="round"
         points="130.000,43.301 135.000,51.962 140.000,43.301 150.000,43.301 155.000,34.641 145.000,34.641 140.000,25.981 130.000,25.981 135.000,34.641">
<desc>W7</desc>
</polygon>
<polygon fill="plum" stroke="white"
         stroke-width="1" stroke-linejoin="round"
         points="45.000,34.641 50.000,43.301 55.000,34.641 60.000,43.301 70.000,25.981 60.000,25.981 55.000,17.321">
<desc>B7</desc>
</polygon>
<polygon fill="darkorange" stroke="white"
         stroke-width="1" stroke-linejoin="round"
         points="60.000,43.301 70.000,43.301 75.000,34.641 85.000,34.641 80.000,25.981 85.000,17.321 75.000,17.321">
<desc>E7</desc>
</polygon>
<polygon fill="maroon" stroke="white"
         stroke-width="1" stroke-linejoin="round"
         points="75.000,34.641 80.000,43.301 100.000,43.301 85.000,17.321 80.000,25.981 85.000,34.641">
<desc>G7</desc>
</polygon>
<polygon fill="teal" stroke="white"
         stroke-width="1" stroke-linejoin="round"
         points="95.000,34.641 100.000,43.301 110.000,43.301 105.000,34.641 115.000,17.321 105.000,17.321 100.000,25.981 90.000,25.981">
<desc>T7</desc>
</polygon>
<polygon fill="yellowgreen" stroke="white"
         stroke-width="1" stroke-linejoin="round"
         points="115.000,34.641 120.000,43.301 130.000,43.301 135.000,34.641 125.000,17.321 115.000,17.321 125.000,34.641">
<desc>J7</desc>
</polygon>
<polygon fill="orangered" stroke="white"
         stroke-width="1" stroke-linejoin="round"
         points="140.000,25.981 145.000,34.641 155.000,34.641 150.000,25.981 155.000,17.321 150.000,8.660 140.000,8.660 145.000,17.321 135.000,17.321">
<desc>Z7</desc>
</polygon>
<polygon fill="peru" stroke="white"
         stroke-width="1" stroke-linejoin="round"
         points="45.000,17.321 50.000,25.981 55.000,17.321 60.000,25.981 70.000,25.981 65.000,17.321 70.000,8.660 50.000,8.660">
<desc>A7</desc>
</polygon>
<polygon fill="steelblue" stroke="white"
         stroke-width="1" stroke-linejoin="round"
         points="65.000,17.321 70.000,25.981 75.000,17.321 95.000,17.321 100.000,8.660 70.000,8.660">
<desc>L7</desc>
</polygon>
<polygon fill="gray" stroke="white"
         stroke-width="1" stroke-linejoin="round"
         points="85.000,17.321 90.000,25.981 100.000,25.981 105.000,17.321 115.000,17.321 120.000,8.660 100.000,8.660 95.000,17.321">
<desc>N7</desc>
</polygon>
<polygon fill="yellow" stroke="white"
         stroke-width="1" stroke-linejoin="round"
         points="125.000,17.321 130.000,25.981 140.000,25.981 135.000,17.321 145.000,17.321 140.000,8.660 120.000,8.660 115.000,17.321">
<desc>Y7</desc>
</polygon>
</g>
</svg>
