<?xml version="1.0" standalone="no"?>
<!-- Created by Polyform Puzzler (http://puzzler.sourceforge.net/) -->
<svg width="520.000" height="520.000"
     viewBox="0 0 520.000 520.000"
     xmlns="http://www.w3.org/2000/svg"
     xmlns:xlink="http://www.w3.org/1999/xlink">
<g transform="translate(260.000,130.000) rotate(30)">
<polygon fill="gray" stroke="white"
         stroke-width="1" stroke-linejoin="round"
         points="85.000,138.564 90.000,147.224 100.000,147.224 105.000,138.564 115.000,138.564 120.000,129.904 100.000,129.904 95.000,138.564">
<desc>N7</desc>
</polygon>
<polygon fill="darkorange" stroke="white"
         stroke-width="1" stroke-linejoin="round"
         points="85.000,138.564 95.000,138.564 110.000,112.583 100.000,112.583 95.000,121.244 85.000,121.244 90.000,129.904">
<desc>E7</desc>
</polygon>
<polygon fill="magenta" stroke="white"
         stroke-width="1" stroke-linejoin="round"
         points="100.000,129.904 130.000,129.904 135.000,121.244 115.000,121.244 110.000,112.583">
<desc>P7</desc>
</polygon>
<polygon fill="steelblue" stroke="white"
         stroke-width="1" stroke-linejoin="round"
         points="85.000,121.244 95.000,121.244 105.000,103.923 115.000,103.923 110.000,95.263 100.000,95.263">
<desc>L7</desc>
</polygon>
<polygon fill="peru" stroke="white"
         stroke-width="1" stroke-linejoin="round"
         points="110.000,112.583 115.000,121.244 125.000,103.923 120.000,95.263 110.000,95.263 115.000,103.923 105.000,103.923 100.000,112.583">
<desc>A7</desc>
</polygon>
<polygon fill="red" stroke="white"
         stroke-width="1" stroke-linejoin="round"
         points="115.000,121.244 145.000,121.244 135.000,103.923 130.000,112.583 125.000,103.923">
<desc>M7</desc>
</polygon>
<polygon fill="gold" stroke="white"
         stroke-width="1" stroke-linejoin="round"
         points="140.000,112.583 145.000,121.244 150.000,112.583 145.000,103.923 155.000,103.923 160.000,95.263 140.000,95.263 135.000,103.923">
<desc>V7</desc>
</polygon>
<polygon fill="turquoise" stroke="white"
         stroke-width="1" stroke-linejoin="round"
         points="85.000,103.923 90.000,112.583 105.000,86.603 95.000,86.603 90.000,77.942 85.000,86.603 90.000,95.263">
<desc>H7</desc>
</polygon>
<polygon fill="lime" stroke="white"
         stroke-width="1" stroke-linejoin="round"
         points="145.000,103.923 150.000,112.583 160.000,112.583 170.000,95.263 165.000,86.603 155.000,86.603 160.000,95.263 155.000,103.923">
<desc>C7</desc>
</polygon>
<polygon fill="indigo" stroke="white"
         stroke-width="1" stroke-linejoin="round"
         points="165.000,103.923 175.000,103.923 180.000,95.263 190.000,95.263 180.000,77.942 175.000,86.603 165.000,86.603 170.000,95.263">
<desc>X7</desc>
</polygon>
<polygon fill="lightcoral" stroke="white"
         stroke-width="1" stroke-linejoin="round"
         points="185.000,86.603 190.000,95.263 195.000,86.603 205.000,86.603 210.000,77.942 205.000,69.282 200.000,77.942 180.000,77.942">
<desc>Q7</desc>
</polygon>
<polygon fill="green" stroke="white"
         stroke-width="1" stroke-linejoin="round"
         points="90.000,77.942 95.000,86.603 105.000,86.603 110.000,77.942 100.000,60.622">
<desc>D7</desc>
</polygon>
<polygon fill="yellowgreen" stroke="white"
         stroke-width="1" stroke-linejoin="round"
         points="150.000,77.942 155.000,86.603 175.000,86.603 180.000,77.942 160.000,77.942 165.000,69.282 155.000,69.282">
<desc>J7</desc>
</polygon>
<polygon fill="olive" stroke="white"
         stroke-width="1" stroke-linejoin="round"
         points="85.000,69.282 90.000,77.942 100.000,60.622 110.000,60.622 115.000,51.962 95.000,51.962">
<desc>R7</desc>
</polygon>
<polygon fill="maroon" stroke="white"
         stroke-width="1" stroke-linejoin="round"
         points="160.000,77.942 180.000,77.942 185.000,69.282 175.000,69.282 180.000,60.622 175.000,51.962">
<desc>G7</desc>
</polygon>
<polygon fill="orangered" stroke="white"
         stroke-width="1" stroke-linejoin="round"
         points="180.000,77.942 200.000,77.942 205.000,69.282 195.000,69.282 190.000,60.622 180.000,60.622 175.000,69.282 185.000,69.282">
<desc>Z7</desc>
</polygon>
<polygon fill="plum" stroke="white"
         stroke-width="1" stroke-linejoin="round"
         points="155.000,69.282 165.000,69.282 175.000,51.962 165.000,51.962 160.000,43.301 150.000,60.622 160.000,60.622">
<desc>B7</desc>
</polygon>
<polygon fill="blueviolet" stroke="white"
         stroke-width="1" stroke-linejoin="round"
         points="85.000,51.962 90.000,60.622 95.000,51.962 105.000,51.962 110.000,43.301 100.000,43.301 95.000,34.641 85.000,34.641 90.000,43.301">
<desc>W7</desc>
</polygon>
<polygon fill="yellow" stroke="white"
         stroke-width="1" stroke-linejoin="round"
         points="110.000,60.622 120.000,60.622 130.000,43.301 125.000,34.641 120.000,43.301 110.000,43.301 105.000,51.962 115.000,51.962">
<desc>Y7</desc>
</polygon>
<polygon fill="blue" stroke="white"
         stroke-width="1" stroke-linejoin="round"
         points="135.000,51.962 140.000,60.622 145.000,51.962 130.000,25.981 120.000,25.981">
<desc>I7</desc>
</polygon>
<polygon fill="teal" stroke="white"
         stroke-width="1" stroke-linejoin="round"
         points="140.000,60.622 150.000,60.622 160.000,43.301 150.000,43.301 145.000,34.641 135.000,34.641 145.000,51.962">
<desc>T7</desc>
</polygon>
<polygon fill="darkseagreen" stroke="white"
         stroke-width="1" stroke-linejoin="round"
         points="95.000,34.641 100.000,43.301 120.000,43.301 125.000,34.641 115.000,34.641 110.000,25.981 105.000,34.641 100.000,25.981">
<desc>F7</desc>
</polygon>
<polygon fill="navy" stroke="white"
         stroke-width="1" stroke-linejoin="round"
         points="85.000,34.641 95.000,34.641 100.000,25.981 95.000,17.321 105.000,17.321 100.000,8.660 90.000,8.660 85.000,17.321 90.000,25.981">
<desc>S7</desc>
</polygon>
<polygon fill="tan" stroke="white"
         stroke-width="1" stroke-linejoin="round"
         points="100.000,25.981 105.000,34.641 110.000,25.981 115.000,34.641 125.000,34.641 115.000,17.321 95.000,17.321">
<desc>U7</desc>
</polygon>
</g>
</svg>
