<?xml version="1.0" standalone="no"?>
<!-- Created by Polyform Puzzler (http://puzzler.sourceforge.net/) -->
<svg width="220.0" height="69.2820323028" viewBox="0 0 220.0 69.2820323028"
     xmlns="http://www.w3.org/2000/svg">
<g>
<polygon fill="green" stroke="white"
         stroke-width="1" stroke-linejoin="round"
         points="10.000,60.622 30.000,60.622 35.000,51.962 30.000,43.301 20.000,43.301" />
<polygon fill="palegreen" stroke="white"
         stroke-width="1" stroke-linejoin="round"
         points="30.000,60.622 50.000,60.622 55.000,51.962 50.000,43.301 45.000,51.962 40.000,43.301 30.000,43.301 35.000,51.962" />
<polygon fill="blue" stroke="white"
         stroke-width="1" stroke-linejoin="round"
         points="50.000,60.622 60.000,60.622 75.000,34.641 70.000,25.981" />
<polygon fill="steelblue" stroke="white"
         stroke-width="1" stroke-linejoin="round"
         points="60.000,60.622 70.000,60.622 80.000,43.301 90.000,43.301 85.000,34.641 75.000,34.641" />
<polygon fill="magenta" stroke="white"
         stroke-width="1" stroke-linejoin="round"
         points="70.000,60.622 100.000,60.622 105.000,51.962 85.000,51.962 80.000,43.301" />
<polygon fill="olive" stroke="white"
         stroke-width="1" stroke-linejoin="round"
         points="100.000,60.622 120.000,60.622 130.000,43.301 125.000,34.641 115.000,51.962 105.000,51.962" />
<polygon fill="red" stroke="white"
         stroke-width="1" stroke-linejoin="round"
         points="120.000,60.622 150.000,60.622 140.000,43.301 135.000,51.962 130.000,43.301" />
<polygon fill="darkorange" stroke="white"
         stroke-width="1" stroke-linejoin="round"
         points="145.000,51.962 150.000,60.622 180.000,60.622 175.000,51.962 165.000,51.962 160.000,43.301 155.000,51.962" />
<polygon fill="darkseagreen" stroke="white"
         stroke-width="1" stroke-linejoin="round"
         points="40.000,43.301 45.000,51.962 50.000,43.301 55.000,51.962 60.000,43.301 55.000,34.641 35.000,34.641 30.000,43.301" />
<polygon fill="lime" stroke="white"
         stroke-width="1" stroke-linejoin="round"
         points="80.000,43.301 85.000,51.962 95.000,51.962 105.000,34.641 100.000,25.981 90.000,25.981 95.000,34.641 90.000,43.301" />
<polygon fill="lightcoral" stroke="white"
         stroke-width="1" stroke-linejoin="round"
         points="95.000,51.962 115.000,51.962 110.000,43.301 115.000,34.641 110.000,25.981 100.000,25.981 105.000,34.641" />
<polygon fill="silver" stroke="white"
         stroke-width="1" stroke-linejoin="round"
         points="110.000,43.301 115.000,51.962 125.000,34.641 120.000,25.981 125.000,17.321 115.000,17.321 110.000,25.981 115.000,34.641" />
<polygon fill="gold" stroke="white"
         stroke-width="1" stroke-linejoin="round"
         points="130.000,43.301 135.000,51.962 140.000,43.301 135.000,34.641 145.000,34.641 150.000,25.981 130.000,25.981 125.000,34.641" />
<polygon fill="teal" stroke="white"
         stroke-width="1" stroke-linejoin="round"
         points="140.000,43.301 145.000,51.962 155.000,51.962 150.000,43.301 160.000,25.981 150.000,25.981 145.000,34.641 135.000,34.641" />
<polygon fill="maroon" stroke="white"
         stroke-width="1" stroke-linejoin="round"
         points="150.000,43.301 155.000,51.962 160.000,43.301 165.000,51.962 175.000,51.962 160.000,25.981" />
<polygon fill="turquoise" stroke="white"
         stroke-width="1" stroke-linejoin="round"
         points="20.000,43.301 30.000,43.301 35.000,34.641 45.000,34.641 50.000,25.981 40.000,25.981 35.000,17.321" />
<polygon fill="indigo" stroke="white"
         stroke-width="1" stroke-linejoin="round"
         points="55.000,34.641 60.000,43.301 70.000,25.981 60.000,25.981 55.000,17.321 45.000,17.321 50.000,25.981 45.000,34.641" />
<polygon fill="navy" stroke="white"
         stroke-width="1" stroke-linejoin="round"
         points="85.000,34.641 90.000,43.301 95.000,34.641 90.000,25.981 80.000,25.981 85.000,17.321 75.000,17.321 70.000,25.981 75.000,34.641" />
<polygon fill="blueviolet" stroke="white"
         stroke-width="1" stroke-linejoin="round"
         points="120.000,25.981 125.000,34.641 130.000,25.981 140.000,25.981 145.000,17.321 135.000,17.321 130.000,8.660 120.000,8.660 125.000,17.321" />
<polygon fill="springgreen" stroke="white"
         stroke-width="1" stroke-linejoin="round"
         points="35.000,17.321 40.000,25.981 50.000,25.981 45.000,17.321 65.000,17.321 60.000,8.660 40.000,8.660" />
<polygon fill="lightgreen" stroke="white"
         stroke-width="1" stroke-linejoin="round"
         points="55.000,17.321 60.000,25.981 70.000,25.981 75.000,17.321 85.000,17.321 80.000,8.660 60.000,8.660 65.000,17.321" />
<polygon fill="plum" stroke="white"
         stroke-width="1" stroke-linejoin="round"
         points="80.000,25.981 100.000,25.981 105.000,17.321 95.000,17.321 100.000,8.660 80.000,8.660 85.000,17.321" />
<polygon fill="orangered" stroke="white"
         stroke-width="1" stroke-linejoin="round"
         points="100.000,25.981 110.000,25.981 115.000,17.321 125.000,17.321 120.000,8.660 100.000,8.660 95.000,17.321 105.000,17.321" />
<polygon fill="tan" stroke="white"
         stroke-width="1" stroke-linejoin="round"
         points="140.000,25.981 160.000,25.981 150.000,8.660 130.000,8.660 135.000,17.321 145.000,17.321" />
</g>
</svg>
