<?xml version="1.0" standalone="no"?>
<!-- Created by Polyform Puzzler (http://puzzler.sourceforge.net/) -->
<svg width="250.0" height="51.9615242271" viewBox="0 0 250.0 51.9615242271"
     xmlns="http://www.w3.org/2000/svg"
     xmlns:xlink="http://www.w3.org/1999/xlink">
<g>
<polygon fill="green" stroke="white"
         stroke-width="1" stroke-linejoin="round"
         points="10.000,43.301 30.000,43.301 35.000,34.641 30.000,25.981 20.000,25.981">
<desc>D7</desc>
</polygon>
<polygon fill="indigo" stroke="white"
         stroke-width="1" stroke-linejoin="round"
         points="30.000,43.301 50.000,43.301 45.000,34.641 50.000,25.981 40.000,25.981 35.000,17.321 30.000,25.981 35.000,34.641">
<desc>X7</desc>
</polygon>
<polygon fill="yellowgreen" stroke="white"
         stroke-width="1" stroke-linejoin="round"
         points="45.000,34.641 50.000,43.301 60.000,43.301 70.000,25.981 65.000,17.321 55.000,34.641 50.000,25.981">
<desc>J7</desc>
</polygon>
<polygon fill="magenta" stroke="white"
         stroke-width="1" stroke-linejoin="round"
         points="60.000,43.301 90.000,43.301 95.000,34.641 75.000,34.641 70.000,25.981">
<desc>P7</desc>
</polygon>
<polygon fill="orangered" stroke="white"
         stroke-width="1" stroke-linejoin="round"
         points="90.000,43.301 110.000,43.301 115.000,34.641 105.000,34.641 100.000,25.981 90.000,25.981 85.000,34.641 95.000,34.641">
<desc>Z7</desc>
</polygon>
<polygon fill="plum" stroke="white"
         stroke-width="1" stroke-linejoin="round"
         points="110.000,43.301 120.000,43.301 130.000,25.981 120.000,25.981 115.000,17.321 105.000,34.641 115.000,34.641">
<desc>B7</desc>
</polygon>
<polygon fill="lightcoral" stroke="white"
         stroke-width="1" stroke-linejoin="round"
         points="120.000,43.301 140.000,43.301 135.000,34.641 140.000,25.981 135.000,17.321 125.000,17.321 130.000,25.981">
<desc>Q7</desc>
</polygon>
<polygon fill="steelblue" stroke="white"
         stroke-width="1" stroke-linejoin="round"
         points="135.000,34.641 140.000,43.301 170.000,43.301 165.000,34.641 145.000,34.641 140.000,25.981">
<desc>L7</desc>
</polygon>
<polygon fill="lime" stroke="white"
         stroke-width="1" stroke-linejoin="round"
         points="165.000,34.641 170.000,43.301 190.000,43.301 195.000,34.641 190.000,25.981 185.000,34.641 175.000,34.641 170.000,25.981">
<desc>C7</desc>
</polygon>
<polygon fill="turquoise" stroke="white"
         stroke-width="1" stroke-linejoin="round"
         points="190.000,43.301 220.000,43.301 215.000,34.641 205.000,34.641 200.000,25.981 190.000,25.981 195.000,34.641">
<desc>H7</desc>
</polygon>
<polygon fill="maroon" stroke="white"
         stroke-width="1" stroke-linejoin="round"
         points="215.000,34.641 220.000,43.301 235.000,17.321 225.000,17.321 220.000,25.981 215.000,17.321 210.000,25.981">
<desc>G7</desc>
</polygon>
<polygon fill="red" stroke="white"
         stroke-width="1" stroke-linejoin="round"
         points="50.000,25.981 55.000,34.641 65.000,17.321 55.000,17.321 60.000,8.660 40.000,8.660">
<desc>M7</desc>
</polygon>
<polygon fill="teal" stroke="white"
         stroke-width="1" stroke-linejoin="round"
         points="70.000,25.981 75.000,34.641 80.000,25.981 75.000,17.321 80.000,8.660 60.000,8.660 55.000,17.321 65.000,17.321">
<desc>T7</desc>
</polygon>
<polygon fill="blueviolet" stroke="white"
         stroke-width="1" stroke-linejoin="round"
         points="75.000,34.641 85.000,34.641 90.000,25.981 100.000,25.981 95.000,17.321 85.000,17.321 80.000,8.660 75.000,17.321 80.000,25.981">
<desc>W7</desc>
</polygon>
<polygon fill="olive" stroke="white"
         stroke-width="1" stroke-linejoin="round"
         points="100.000,25.981 105.000,34.641 110.000,25.981 100.000,8.660 80.000,8.660 85.000,17.321 95.000,17.321">
<desc>R7</desc>
</polygon>
<polygon fill="yellow" stroke="white"
         stroke-width="1" stroke-linejoin="round"
         points="140.000,25.981 145.000,34.641 165.000,34.641 170.000,25.981 160.000,25.981 165.000,17.321 155.000,17.321 150.000,25.981">
<desc>Y7</desc>
</polygon>
<polygon fill="navy" stroke="white"
         stroke-width="1" stroke-linejoin="round"
         points="170.000,25.981 175.000,34.641 185.000,34.641 190.000,25.981 185.000,17.321 180.000,25.981 175.000,17.321 165.000,17.321 160.000,25.981">
<desc>S7</desc>
</polygon>
<polygon fill="darkseagreen" stroke="white"
         stroke-width="1" stroke-linejoin="round"
         points="200.000,25.981 205.000,34.641 215.000,34.641 210.000,25.981 215.000,17.321 205.000,17.321 210.000,8.660 200.000,8.660 195.000,17.321">
<desc>F7</desc>
</polygon>
<polygon fill="gold" stroke="white"
         stroke-width="1" stroke-linejoin="round"
         points="20.000,25.981 30.000,25.981 35.000,17.321 40.000,25.981 50.000,25.981 40.000,8.660 30.000,8.660">
<desc>V7</desc>
</polygon>
<polygon fill="tan" stroke="white"
         stroke-width="1" stroke-linejoin="round"
         points="105.000,17.321 110.000,25.981 115.000,17.321 120.000,25.981 130.000,25.981 120.000,8.660 100.000,8.660">
<desc>U7</desc>
</polygon>
<polygon fill="gray" stroke="white"
         stroke-width="1" stroke-linejoin="round"
         points="135.000,17.321 140.000,25.981 150.000,25.981 155.000,17.321 145.000,17.321 140.000,8.660 120.000,8.660 125.000,17.321">
<desc>N7</desc>
</polygon>
<polygon fill="peru" stroke="white"
         stroke-width="1" stroke-linejoin="round"
         points="175.000,17.321 180.000,25.981 185.000,17.321 190.000,25.981 200.000,25.981 195.000,17.321 200.000,8.660 180.000,8.660">
<desc>A7</desc>
</polygon>
<polygon fill="darkorange" stroke="white"
         stroke-width="1" stroke-linejoin="round"
         points="215.000,17.321 220.000,25.981 225.000,17.321 235.000,17.321 240.000,8.660 210.000,8.660 205.000,17.321">
<desc>E7</desc>
</polygon>
<polygon fill="blue" stroke="white"
         stroke-width="1" stroke-linejoin="round"
         points="140.000,8.660 145.000,17.321 175.000,17.321 180.000,8.660">
<desc>I7</desc>
</polygon>
</g>

</svg>
