<?xml version="1.0" standalone="no"?>
<!-- Created by Polyform Puzzler (http://puzzler.sourceforge.net/) -->
<svg width="840.000" height="840.000"
     viewBox="0 0 840.000 840.000"
     xmlns="http://www.w3.org/2000/svg"
     xmlns:xlink="http://www.w3.org/1999/xlink">
<g transform="translate(420.000,210.000) rotate(30)">
<polygon fill="green" stroke="white"
         stroke-width="1" stroke-linejoin="round"
         points="25.000,173.205 30.000,181.865 40.000,181.865 45.000,173.205 40.000,164.545 20.000,164.545">
<desc>D7</desc>
</polygon>
<polygon fill="darkorange" stroke="white"
         stroke-width="1" stroke-linejoin="round"
         points="40.000,181.865 50.000,181.865 65.000,155.885 55.000,155.885 50.000,164.545 40.000,164.545 45.000,173.205">
<desc>E7</desc>
</polygon>
<polygon fill="magenta" stroke="white"
         stroke-width="1" stroke-linejoin="round"
         points="20.000,164.545 50.000,164.545 55.000,155.885 35.000,155.885 30.000,147.224">
<desc>P7</desc>
</polygon>
<polygon fill="tan" stroke="white"
         stroke-width="1" stroke-linejoin="round"
         points="60.000,164.545 80.000,164.545 90.000,147.224 80.000,147.224 75.000,155.885 70.000,147.224">
<desc>U7</desc>
</polygon>
<polygon fill="blue" stroke="white"
         stroke-width="1" stroke-linejoin="round"
         points="30.000,147.224 35.000,155.885 65.000,155.885 70.000,147.224">
<desc>I7</desc>
</polygon>
<polygon fill="lightcoral" stroke="white"
         stroke-width="1" stroke-linejoin="round"
         points="70.000,147.224 75.000,155.885 80.000,147.224 75.000,138.564 65.000,138.564 60.000,129.904 50.000,147.224">
<desc>Q7</desc>
</polygon>
<polygon fill="turquoise" stroke="white"
         stroke-width="1" stroke-linejoin="round"
         points="75.000,138.564 80.000,147.224 90.000,147.224 85.000,138.564 90.000,129.904 60.000,129.904 65.000,138.564">
<desc>H7</desc>
</polygon>
<polygon fill="lime" stroke="white"
         stroke-width="1" stroke-linejoin="round"
         points="85.000,138.564 90.000,147.224 110.000,147.224 115.000,138.564 110.000,129.904 105.000,138.564 95.000,138.564 90.000,129.904">
<desc>C7</desc>
</polygon>
<polygon fill="peru" stroke="white"
         stroke-width="1" stroke-linejoin="round"
         points="90.000,129.904 95.000,138.564 100.000,129.904 95.000,121.244 105.000,121.244 100.000,112.583 90.000,112.583 80.000,129.904">
<desc>A7</desc>
</polygon>
<polygon fill="darkseagreen" stroke="white"
         stroke-width="1" stroke-linejoin="round"
         points="95.000,138.564 105.000,138.564 115.000,121.244 110.000,112.583 100.000,112.583 105.000,121.244 95.000,121.244 100.000,129.904">
<desc>F7</desc>
</polygon>
<polygon fill="blueviolet" stroke="white"
         stroke-width="1" stroke-linejoin="round"
         points="110.000,129.904 115.000,138.564 120.000,129.904 130.000,129.904 135.000,121.244 125.000,121.244 120.000,112.583 110.000,112.583 115.000,121.244">
<desc>W7</desc>
</polygon>
<polygon fill="steelblue" stroke="white"
         stroke-width="1" stroke-linejoin="round"
         points="130.000,129.904 140.000,129.904 145.000,121.244 130.000,95.263 125.000,103.923 135.000,121.244">
<desc>L7</desc>
</polygon>
<polygon fill="teal" stroke="white"
         stroke-width="1" stroke-linejoin="round"
         points="120.000,112.583 125.000,121.244 135.000,121.244 125.000,103.923 130.000,95.263 120.000,95.263 110.000,112.583">
<desc>T7</desc>
</polygon>
<polygon fill="red" stroke="white"
         stroke-width="1" stroke-linejoin="round"
         points="140.000,112.583 145.000,121.244 155.000,103.923 145.000,103.923 150.000,95.263 130.000,95.263">
<desc>M7</desc>
</polygon>
<polygon fill="orangered" stroke="white"
         stroke-width="1" stroke-linejoin="round"
         points="150.000,112.583 170.000,112.583 175.000,103.923 165.000,103.923 160.000,95.263 150.000,95.263 145.000,103.923 155.000,103.923">
<desc>Z7</desc>
</polygon>
<polygon fill="gray" stroke="white"
         stroke-width="1" stroke-linejoin="round"
         points="160.000,95.263 165.000,103.923 175.000,103.923 180.000,95.263 190.000,95.263 195.000,86.603 175.000,86.603 170.000,95.263">
<desc>N7</desc>
</polygon>
<polygon fill="maroon" stroke="white"
         stroke-width="1" stroke-linejoin="round"
         points="140.000,95.263 170.000,95.263 165.000,86.603 155.000,86.603 160.000,77.942 150.000,77.942">
<desc>G7</desc>
</polygon>
<polygon fill="indigo" stroke="white"
         stroke-width="1" stroke-linejoin="round"
         points="165.000,86.603 170.000,95.263 175.000,86.603 185.000,86.603 175.000,69.282 170.000,77.942 160.000,77.942 155.000,86.603">
<desc>X7</desc>
</polygon>
<polygon fill="yellow" stroke="white"
         stroke-width="1" stroke-linejoin="round"
         points="190.000,95.263 200.000,95.263 210.000,77.942 205.000,69.282 200.000,77.942 190.000,77.942 185.000,86.603 195.000,86.603">
<desc>Y7</desc>
</polygon>
<polygon fill="gold" stroke="white"
         stroke-width="1" stroke-linejoin="round"
         points="180.000,77.942 185.000,86.603 190.000,77.942 185.000,69.282 195.000,69.282 200.000,60.622 180.000,60.622 175.000,69.282">
<desc>V7</desc>
</polygon>
<polygon fill="navy" stroke="white"
         stroke-width="1" stroke-linejoin="round"
         points="185.000,69.282 190.000,77.942 200.000,77.942 205.000,69.282 210.000,77.942 215.000,69.282 210.000,60.622 200.000,60.622 195.000,69.282">
<desc>S7</desc>
</polygon>
<polygon fill="olive" stroke="white"
         stroke-width="1" stroke-linejoin="round"
         points="210.000,77.942 230.000,77.942 240.000,60.622 235.000,51.962 225.000,69.282 215.000,69.282">
<desc>R7</desc>
</polygon>
<polygon fill="plum" stroke="white"
         stroke-width="1" stroke-linejoin="round"
         points="210.000,60.622 215.000,69.282 225.000,51.962 215.000,51.962 220.000,43.301 210.000,43.301 200.000,60.622">
<desc>B7</desc>
</polygon>
<polygon fill="yellowgreen" stroke="white"
         stroke-width="1" stroke-linejoin="round"
         points="215.000,69.282 225.000,69.282 235.000,51.962 230.000,43.301 220.000,43.301 215.000,51.962 225.000,51.962">
<desc>J7</desc>
</polygon>
</g>
</svg>
