<?xml version="1.0" standalone="no"?>
<!-- Created by Polyform Puzzler (http://puzzler.sourceforge.net/) -->
<svg width="260.000" height="155.885"
     viewBox="0 0 260.000 155.885"
     xmlns="http://www.w3.org/2000/svg"
     xmlns:xlink="http://www.w3.org/1999/xlink">
<g>
<polygon fill="olive" stroke="white"
         stroke-width="1" stroke-linejoin="round"
         points="125.000,138.564 130.000,147.224 135.000,138.564 125.000,121.244 105.000,121.244 110.000,129.904 120.000,129.904">
<desc>R7</desc>
</polygon>
<polygon fill="indigo" stroke="white"
         stroke-width="1" stroke-linejoin="round"
         points="130.000,129.904 135.000,138.564 140.000,129.904 150.000,129.904 155.000,121.244 145.000,121.244 140.000,112.583 135.000,121.244 125.000,121.244">
<desc>X7</desc>
</polygon>
<polygon fill="plum" stroke="white"
         stroke-width="1" stroke-linejoin="round"
         points="95.000,121.244 100.000,129.904 110.000,129.904 105.000,121.244 115.000,121.244 105.000,103.923 100.000,112.583 90.000,112.583">
<desc>B7</desc>
</polygon>
<polygon fill="yellow" stroke="white"
         stroke-width="1" stroke-linejoin="round"
         points="150.000,129.904 160.000,129.904 170.000,112.583 165.000,103.923 160.000,112.583 150.000,112.583 145.000,121.244 155.000,121.244">
<desc>Y7</desc>
</polygon>
<polygon fill="blueviolet" stroke="white"
         stroke-width="1" stroke-linejoin="round"
         points="140.000,112.583 145.000,121.244 150.000,112.583 160.000,112.583 165.000,103.923 155.000,103.923 150.000,95.263 140.000,95.263 145.000,103.923">
<desc>W7</desc>
</polygon>
<polygon fill="magenta" stroke="white"
         stroke-width="1" stroke-linejoin="round"
         points="70.000,112.583 100.000,112.583 105.000,103.923 85.000,103.923 80.000,95.263">
<desc>P7</desc>
</polygon>
<polygon fill="tan" stroke="white"
         stroke-width="1" stroke-linejoin="round"
         points="165.000,103.923 170.000,112.583 190.000,112.583 180.000,95.263 175.000,103.923 170.000,95.263 160.000,95.263">
<desc>U7</desc>
</polygon>
<polygon fill="lime" stroke="white"
         stroke-width="1" stroke-linejoin="round"
         points="80.000,95.263 85.000,103.923 105.000,103.923 110.000,95.263 105.000,86.603 100.000,95.263 90.000,95.263 85.000,86.603">
<desc>C7</desc>
</polygon>
<polygon fill="gray" stroke="white"
         stroke-width="1" stroke-linejoin="round"
         points="150.000,95.263 155.000,103.923 165.000,103.923 155.000,86.603 145.000,86.603 140.000,77.942 135.000,86.603 140.000,95.263">
<desc>N7</desc>
</polygon>
<polygon fill="teal" stroke="white"
         stroke-width="1" stroke-linejoin="round"
         points="170.000,95.263 175.000,103.923 185.000,86.603 180.000,77.942 175.000,86.603 155.000,86.603 160.000,95.263">
<desc>T7</desc>
</polygon>
<polygon fill="orangered" stroke="white"
         stroke-width="1" stroke-linejoin="round"
         points="75.000,86.603 80.000,95.263 85.000,86.603 95.000,86.603 100.000,77.942 95.000,69.282 90.000,77.942 85.000,69.282">
<desc>Z7</desc>
</polygon>
<polygon fill="navy" stroke="white"
         stroke-width="1" stroke-linejoin="round"
         points="85.000,86.603 90.000,95.263 100.000,95.263 105.000,86.603 110.000,95.263 115.000,86.603 110.000,77.942 100.000,77.942 95.000,86.603">
<desc>S7</desc>
</polygon>
<polygon fill="yellowgreen" stroke="white"
         stroke-width="1" stroke-linejoin="round"
         points="70.000,77.942 75.000,86.603 85.000,69.282 90.000,77.942 95.000,69.282 90.000,60.622 80.000,60.622">
<desc>J7</desc>
</polygon>
<polygon fill="darkseagreen" stroke="white"
         stroke-width="1" stroke-linejoin="round"
         points="110.000,77.942 115.000,86.603 135.000,86.603 140.000,77.942 135.000,69.282 130.000,77.942 125.000,69.282 120.000,77.942">
<desc>F7</desc>
</polygon>
<polygon fill="maroon" stroke="white"
         stroke-width="1" stroke-linejoin="round"
         points="165.000,86.603 175.000,86.603 180.000,77.942 185.000,86.603 190.000,77.942 180.000,60.622">
<desc>G7</desc>
</polygon>
<polygon fill="turquoise" stroke="white"
         stroke-width="1" stroke-linejoin="round"
         points="125.000,69.282 130.000,77.942 145.000,51.962 135.000,51.962 130.000,43.301 125.000,51.962 130.000,60.622">
<desc>H7</desc>
</polygon>
<polygon fill="red" stroke="white"
         stroke-width="1" stroke-linejoin="round"
         points="170.000,60.622 175.000,69.282 190.000,43.301 170.000,43.301 175.000,51.962 165.000,51.962">
<desc>M7</desc>
</polygon>
<polygon fill="green" stroke="white"
         stroke-width="1" stroke-linejoin="round"
         points="75.000,51.962 80.000,60.622 90.000,60.622 95.000,51.962 90.000,43.301 70.000,43.301">
<desc>D7</desc>
</polygon>
<polygon fill="steelblue" stroke="white"
         stroke-width="1" stroke-linejoin="round"
         points="90.000,43.301 95.000,51.962 100.000,43.301 120.000,43.301 125.000,34.641 95.000,34.641">
<desc>L7</desc>
</polygon>
<polygon fill="peru" stroke="white"
         stroke-width="1" stroke-linejoin="round"
         points="120.000,43.301 125.000,51.962 130.000,43.301 135.000,51.962 145.000,51.962 140.000,43.301 145.000,34.641 125.000,34.641">
<desc>A7</desc>
</polygon>
<polygon fill="darkorange" stroke="white"
         stroke-width="1" stroke-linejoin="round"
         points="140.000,43.301 145.000,51.962 175.000,51.962 170.000,43.301 160.000,43.301 155.000,34.641 150.000,43.301">
<desc>E7</desc>
</polygon>
<polygon fill="gold" stroke="white"
         stroke-width="1" stroke-linejoin="round"
         points="140.000,43.301 150.000,43.301 155.000,34.641 160.000,43.301 170.000,43.301 160.000,25.981 150.000,25.981">
<desc>V7</desc>
</polygon>
<polygon fill="blue" stroke="white"
         stroke-width="1" stroke-linejoin="round"
         points="95.000,34.641 135.000,34.641 130.000,25.981 100.000,25.981">
<desc>I7</desc>
</polygon>
<polygon fill="lightcoral" stroke="white"
         stroke-width="1" stroke-linejoin="round"
         points="130.000,25.981 135.000,34.641 145.000,34.641 150.000,25.981 140.000,25.981 130.000,8.660 120.000,25.981">
<desc>Q7</desc>
</polygon>
</g>
</svg>
