<?xml version="1.0" standalone="no"?>
<!-- Created by Polyform Puzzler (http://puzzler.sourceforge.net/) -->
<svg width="200.000" height="121.244"
     viewBox="0 0 200.000 121.244"
     xmlns="http://www.w3.org/2000/svg"
     xmlns:xlink="http://www.w3.org/1999/xlink">
<g>
<polygon fill="gray" stroke="white"
         stroke-width="1" stroke-linejoin="round"
         points="45.000,103.923 50.000,112.583 55.000,103.923 50.000,95.263 55.000,86.603 50.000,77.942 40.000,77.942 45.000,86.603 40.000,95.263">
<desc>N7</desc>
</polygon>
<polygon fill="magenta" stroke="white"
         stroke-width="1" stroke-linejoin="round"
         points="60.000,112.583 90.000,112.583 95.000,103.923 75.000,103.923 70.000,95.263">
<desc>P7</desc>
</polygon>
<polygon fill="plum" stroke="white"
         stroke-width="1" stroke-linejoin="round"
         points="90.000,112.583 110.000,112.583 105.000,103.923 110.000,95.263 90.000,95.263 85.000,103.923 95.000,103.923">
<desc>B7</desc>
</polygon>
<polygon fill="lime" stroke="white"
         stroke-width="1" stroke-linejoin="round"
         points="105.000,103.923 110.000,112.583 130.000,112.583 135.000,103.923 130.000,95.263 125.000,103.923 115.000,103.923 110.000,95.263">
<desc>C7</desc>
</polygon>
<polygon fill="olive" stroke="white"
         stroke-width="1" stroke-linejoin="round"
         points="50.000,95.263 55.000,103.923 65.000,86.603 55.000,69.282 45.000,69.282 55.000,86.603">
<desc>R7</desc>
</polygon>
<polygon fill="navy" stroke="white"
         stroke-width="1" stroke-linejoin="round"
         points="70.000,95.263 75.000,103.923 85.000,103.923 90.000,95.263 100.000,95.263 95.000,86.603 85.000,86.603 80.000,95.263 75.000,86.603">
<desc>S7</desc>
</polygon>
<polygon fill="blueviolet" stroke="white"
         stroke-width="1" stroke-linejoin="round"
         points="110.000,95.263 115.000,103.923 120.000,95.263 115.000,86.603 120.000,77.942 110.000,77.942 105.000,86.603 95.000,86.603 100.000,95.263">
<desc>W7</desc>
</polygon>
<polygon fill="orangered" stroke="white"
         stroke-width="1" stroke-linejoin="round"
         points="115.000,103.923 125.000,103.923 135.000,86.603 125.000,86.603 130.000,77.942 120.000,77.942 115.000,86.603 120.000,95.263">
<desc>Z7</desc>
</polygon>
<polygon fill="maroon" stroke="white"
         stroke-width="1" stroke-linejoin="round"
         points="130.000,95.263 135.000,103.923 150.000,77.942 130.000,77.942 125.000,86.603 135.000,86.603">
<desc>G7</desc>
</polygon>
<polygon fill="tan" stroke="white"
         stroke-width="1" stroke-linejoin="round"
         points="35.000,86.603 40.000,95.263 45.000,86.603 40.000,77.942 50.000,77.942 40.000,60.622 30.000,77.942">
<desc>U7</desc>
</polygon>
<polygon fill="steelblue" stroke="white"
         stroke-width="1" stroke-linejoin="round"
         points="75.000,86.603 80.000,95.263 85.000,86.603 105.000,86.603 110.000,77.942 80.000,77.942">
<desc>L7</desc>
</polygon>
<polygon fill="blue" stroke="white"
         stroke-width="1" stroke-linejoin="round"
         points="60.000,77.942 65.000,86.603 85.000,51.962 75.000,51.962">
<desc>I7</desc>
</polygon>
<polygon fill="lightcoral" stroke="white"
         stroke-width="1" stroke-linejoin="round"
         points="55.000,69.282 60.000,77.942 70.000,60.622 50.000,60.622 45.000,51.962 40.000,60.622 45.000,69.282">
<desc>Q7</desc>
</polygon>
<polygon fill="yellowgreen" stroke="white"
         stroke-width="1" stroke-linejoin="round"
         points="100.000,60.622 105.000,69.282 125.000,69.282 130.000,60.622 110.000,60.622 115.000,51.962 105.000,51.962">
<desc>J7</desc>
</polygon>
<polygon fill="red" stroke="white"
         stroke-width="1" stroke-linejoin="round"
         points="125.000,69.282 145.000,69.282 130.000,43.301 120.000,60.622 130.000,60.622">
<desc>M7</desc>
</polygon>
<polygon fill="peru" stroke="white"
         stroke-width="1" stroke-linejoin="round"
         points="45.000,51.962 50.000,60.622 70.000,60.622 65.000,51.962 70.000,43.301 60.000,43.301 55.000,51.962 50.000,43.301">
<desc>A7</desc>
</polygon>
<polygon fill="turquoise" stroke="white"
         stroke-width="1" stroke-linejoin="round"
         points="65.000,51.962 70.000,60.622 75.000,51.962 85.000,51.962 70.000,25.981 65.000,34.641 70.000,43.301">
<desc>H7</desc>
</polygon>
<polygon fill="indigo" stroke="white"
         stroke-width="1" stroke-linejoin="round"
         points="95.000,51.962 100.000,60.622 105.000,51.962 115.000,51.962 110.000,43.301 115.000,34.641 105.000,34.641 100.000,43.301 90.000,43.301">
<desc>X7</desc>
</polygon>
<polygon fill="yellow" stroke="white"
         stroke-width="1" stroke-linejoin="round"
         points="110.000,60.622 120.000,60.622 130.000,43.301 125.000,34.641 120.000,43.301 115.000,34.641 110.000,43.301 115.000,51.962">
<desc>Y7</desc>
</polygon>
<polygon fill="darkorange" stroke="white"
         stroke-width="1" stroke-linejoin="round"
         points="50.000,43.301 55.000,51.962 60.000,43.301 70.000,43.301 65.000,34.641 70.000,25.981 65.000,17.321">
<desc>E7</desc>
</polygon>
<polygon fill="gold" stroke="white"
         stroke-width="1" stroke-linejoin="round"
         points="85.000,34.641 90.000,43.301 100.000,43.301 110.000,25.981 100.000,25.981 95.000,34.641 90.000,25.981 80.000,25.981">
<desc>V7</desc>
</polygon>
<polygon fill="darkseagreen" stroke="white"
         stroke-width="1" stroke-linejoin="round"
         points="115.000,34.641 120.000,43.301 125.000,34.641 115.000,17.321 105.000,17.321 100.000,25.981 110.000,25.981 105.000,34.641">
<desc>F7</desc>
</polygon>
<polygon fill="teal" stroke="white"
         stroke-width="1" stroke-linejoin="round"
         points="90.000,25.981 95.000,34.641 105.000,17.321 115.000,17.321 110.000,8.660 90.000,8.660 95.000,17.321">
<desc>T7</desc>
</polygon>
<polygon fill="green" stroke="white"
         stroke-width="1" stroke-linejoin="round"
         points="75.000,17.321 80.000,25.981 90.000,25.981 95.000,17.321 90.000,8.660 70.000,8.660">
<desc>D7</desc>
</polygon>
</g>
</svg>
