<?xml version="1.0" standalone="no"?>
<!-- Created by Polyform Puzzler (http://puzzler.sourceforge.net/) -->
<svg width="220.000" height="103.923"
     viewBox="0 0 220.000 103.923"
     xmlns="http://www.w3.org/2000/svg"
     xmlns:xlink="http://www.w3.org/1999/xlink">
<g>
<polygon fill="tan" stroke="white"
         stroke-width="1" stroke-linejoin="round"
         points="55.000,86.603 60.000,95.263 80.000,95.263 70.000,77.942 65.000,86.603 60.000,77.942 50.000,77.942">
<desc>U7</desc>
</polygon>
<polygon fill="lightcoral" stroke="white"
         stroke-width="1" stroke-linejoin="round"
         points="75.000,86.603 80.000,95.263 85.000,86.603 95.000,86.603 100.000,77.942 95.000,69.282 90.000,77.942 70.000,77.942">
<desc>Q7</desc>
</polygon>
<polygon fill="turquoise" stroke="white"
         stroke-width="1" stroke-linejoin="round"
         points="80.000,95.263 110.000,95.263 105.000,86.603 110.000,77.942 100.000,77.942 95.000,86.603 85.000,86.603">
<desc>H7</desc>
</polygon>
<polygon fill="yellowgreen" stroke="white"
         stroke-width="1" stroke-linejoin="round"
         points="105.000,86.603 110.000,95.263 120.000,95.263 115.000,86.603 135.000,86.603 130.000,77.942 110.000,77.942">
<desc>J7</desc>
</polygon>
<polygon fill="blue" stroke="white"
         stroke-width="1" stroke-linejoin="round"
         points="115.000,86.603 120.000,95.263 150.000,95.263 155.000,86.603">
<desc>I7</desc>
</polygon>
<polygon fill="plum" stroke="white"
         stroke-width="1" stroke-linejoin="round"
         points="150.000,95.263 160.000,95.263 170.000,77.942 160.000,77.942 155.000,69.282 145.000,86.603 155.000,86.603">
<desc>B7</desc>
</polygon>
<polygon fill="teal" stroke="white"
         stroke-width="1" stroke-linejoin="round"
         points="60.000,77.942 65.000,86.603 70.000,77.942 90.000,77.942 85.000,69.282 75.000,69.282 70.000,60.622">
<desc>T7</desc>
</polygon>
<polygon fill="darkorange" stroke="white"
         stroke-width="1" stroke-linejoin="round"
         points="130.000,77.942 135.000,86.603 145.000,86.603 130.000,60.622 120.000,60.622 125.000,69.282 120.000,77.942">
<desc>E7</desc>
</polygon>
<polygon fill="steelblue" stroke="white"
         stroke-width="1" stroke-linejoin="round"
         points="140.000,77.942 145.000,86.603 160.000,60.622 155.000,51.962 145.000,51.962 150.000,60.622">
<desc>L7</desc>
</polygon>
<polygon fill="olive" stroke="white"
         stroke-width="1" stroke-linejoin="round"
         points="45.000,69.282 50.000,77.942 55.000,69.282 50.000,60.622 60.000,43.301 50.000,43.301 40.000,60.622">
<desc>R7</desc>
</polygon>
<polygon fill="orangered" stroke="white"
         stroke-width="1" stroke-linejoin="round"
         points="50.000,77.942 60.000,77.942 70.000,60.622 60.000,60.622 65.000,51.962 55.000,51.962 50.000,60.622 55.000,69.282">
<desc>Z7</desc>
</polygon>
<polygon fill="blueviolet" stroke="white"
         stroke-width="1" stroke-linejoin="round"
         points="85.000,69.282 90.000,77.942 95.000,69.282 90.000,60.622 95.000,51.962 85.000,51.962 80.000,60.622 70.000,60.622 75.000,69.282">
<desc>W7</desc>
</polygon>
<polygon fill="gray" stroke="white"
         stroke-width="1" stroke-linejoin="round"
         points="135.000,69.282 140.000,77.942 150.000,60.622 145.000,51.962 150.000,43.301 140.000,43.301 135.000,51.962 140.000,60.622">
<desc>N7</desc>
</polygon>
<polygon fill="navy" stroke="white"
         stroke-width="1" stroke-linejoin="round"
         points="155.000,69.282 160.000,77.942 170.000,77.942 175.000,69.282 165.000,69.282 170.000,60.622 165.000,51.962 155.000,51.962 160.000,60.622">
<desc>S7</desc>
</polygon>
<polygon fill="peru" stroke="white"
         stroke-width="1" stroke-linejoin="round"
         points="90.000,60.622 95.000,69.282 100.000,60.622 105.000,69.282 115.000,69.282 110.000,60.622 115.000,51.962 95.000,51.962">
<desc>A7</desc>
</polygon>
<polygon fill="lime" stroke="white"
         stroke-width="1" stroke-linejoin="round"
         points="110.000,60.622 115.000,69.282 120.000,60.622 130.000,60.622 135.000,69.282 140.000,60.622 135.000,51.962 115.000,51.962">
<desc>C7</desc>
</polygon>
<polygon fill="darkseagreen" stroke="white"
         stroke-width="1" stroke-linejoin="round"
         points="165.000,69.282 175.000,69.282 185.000,51.962 180.000,43.301 170.000,43.301 175.000,51.962 165.000,51.962 170.000,60.622">
<desc>F7</desc>
</polygon>
<polygon fill="magenta" stroke="white"
         stroke-width="1" stroke-linejoin="round"
         points="35.000,51.962 40.000,60.622 50.000,43.301 60.000,43.301 50.000,25.981">
<desc>P7</desc>
</polygon>
<polygon fill="gold" stroke="white"
         stroke-width="1" stroke-linejoin="round"
         points="60.000,60.622 80.000,60.622 85.000,51.962 75.000,34.641 70.000,43.301 75.000,51.962 65.000,51.962">
<desc>V7</desc>
</polygon>
<polygon fill="indigo" stroke="white"
         stroke-width="1" stroke-linejoin="round"
         points="55.000,51.962 75.000,51.962 70.000,43.301 75.000,34.641 70.000,25.981 65.000,34.641 55.000,34.641 60.000,43.301">
<desc>X7</desc>
</polygon>
<polygon fill="yellow" stroke="white"
         stroke-width="1" stroke-linejoin="round"
         points="145.000,51.962 155.000,51.962 165.000,34.641 160.000,25.981 155.000,34.641 145.000,34.641 140.000,43.301 150.000,43.301">
<desc>Y7</desc>
</polygon>
<polygon fill="red" stroke="white"
         stroke-width="1" stroke-linejoin="round"
         points="155.000,51.962 175.000,51.962 170.000,43.301 180.000,43.301 170.000,25.981">
<desc>M7</desc>
</polygon>
<polygon fill="green" stroke="white"
         stroke-width="1" stroke-linejoin="round"
         points="50.000,25.981 55.000,34.641 65.000,34.641 70.000,25.981 60.000,8.660">
<desc>D7</desc>
</polygon>
<polygon fill="maroon" stroke="white"
         stroke-width="1" stroke-linejoin="round"
         points="145.000,34.641 155.000,34.641 160.000,25.981 165.000,34.641 170.000,25.981 160.000,8.660">
<desc>G7</desc>
</polygon>
</g>
</svg>
