<?xml version="1.0" standalone="no"?>
<!-- Created by Polyform Puzzler (http://puzzler.sourceforge.net/) -->
<svg width="250.0" height="69.2820323028" viewBox="0 0 250.0 69.2820323028"
     xmlns="http://www.w3.org/2000/svg"
     xmlns:xlink="http://www.w3.org/1999/xlink">
<g>
<polygon fill="blue" stroke="white"
         stroke-width="1" stroke-linejoin="round"
         points="35.000,51.962 40.000,60.622 50.000,60.622 30.000,25.981 25.000,34.641">
<desc>I7</desc>
</polygon>
<polygon fill="peru" stroke="white"
         stroke-width="1" stroke-linejoin="round"
         points="45.000,51.962 50.000,60.622 60.000,60.622 70.000,43.301 60.000,43.301 55.000,34.641 50.000,43.301 55.000,51.962">
<desc>A7</desc>
</polygon>
<polygon fill="orangered" stroke="white"
         stroke-width="1" stroke-linejoin="round"
         points="85.000,51.962 90.000,60.622 100.000,60.622 95.000,51.962 100.000,43.301 95.000,34.641 85.000,34.641 90.000,43.301 80.000,43.301">
<desc>Z7</desc>
</polygon>
<polygon fill="gray" stroke="white"
         stroke-width="1" stroke-linejoin="round"
         points="95.000,51.962 100.000,60.622 110.000,43.301 105.000,34.641 110.000,25.981 100.000,25.981 95.000,34.641 100.000,43.301">
<desc>N7</desc>
</polygon>
<polygon fill="magenta" stroke="white"
         stroke-width="1" stroke-linejoin="round"
         points="100.000,60.622 110.000,60.622 125.000,34.641 105.000,34.641 110.000,43.301">
<desc>P7</desc>
</polygon>
<polygon fill="darkorange" stroke="white"
         stroke-width="1" stroke-linejoin="round"
         points="135.000,51.962 140.000,60.622 145.000,51.962 140.000,43.301 145.000,34.641 135.000,34.641 130.000,25.981 125.000,34.641">
<desc>E7</desc>
</polygon>
<polygon fill="indigo" stroke="white"
         stroke-width="1" stroke-linejoin="round"
         points="140.000,60.622 160.000,60.622 155.000,51.962 160.000,43.301 150.000,43.301 145.000,34.641 140.000,43.301 145.000,51.962">
<desc>X7</desc>
</polygon>
<polygon fill="steelblue" stroke="white"
         stroke-width="1" stroke-linejoin="round"
         points="155.000,51.962 160.000,60.622 175.000,34.641 170.000,25.981 160.000,25.981 165.000,34.641">
<desc>L7</desc>
</polygon>
<polygon fill="yellow" stroke="white"
         stroke-width="1" stroke-linejoin="round"
         points="185.000,51.962 190.000,60.622 210.000,60.622 215.000,51.962 205.000,51.962 210.000,43.301 200.000,43.301 195.000,51.962">
<desc>Y7</desc>
</polygon>
<polygon fill="lime" stroke="white"
         stroke-width="1" stroke-linejoin="round"
         points="40.000,43.301 45.000,51.962 55.000,51.962 50.000,43.301 55.000,34.641 65.000,34.641 60.000,25.981 50.000,25.981">
<desc>C7</desc>
</polygon>
<polygon fill="lightcoral" stroke="white"
         stroke-width="1" stroke-linejoin="round"
         points="180.000,43.301 185.000,51.962 195.000,51.962 200.000,43.301 210.000,43.301 200.000,25.981 190.000,43.301">
<desc>Q7</desc>
</polygon>
<polygon fill="teal" stroke="white"
         stroke-width="1" stroke-linejoin="round"
         points="205.000,51.962 215.000,51.962 225.000,34.641 215.000,34.641 210.000,25.981 200.000,25.981 210.000,43.301">
<desc>T7</desc>
</polygon>
<polygon fill="tan" stroke="white"
         stroke-width="1" stroke-linejoin="round"
         points="35.000,34.641 40.000,43.301 50.000,25.981 40.000,25.981 45.000,17.321 40.000,8.660 30.000,25.981">
<desc>U7</desc>
</polygon>
<polygon fill="yellowgreen" stroke="white"
         stroke-width="1" stroke-linejoin="round"
         points="55.000,34.641 60.000,43.301 70.000,43.301 75.000,34.641 65.000,17.321 55.000,17.321 65.000,34.641">
<desc>J7</desc>
</polygon>
<polygon fill="darkseagreen" stroke="white"
         stroke-width="1" stroke-linejoin="round"
         points="75.000,34.641 80.000,43.301 90.000,43.301 85.000,34.641 95.000,34.641 90.000,25.981 95.000,17.321 85.000,17.321">
<desc>F7</desc>
</polygon>
<polygon fill="blueviolet" stroke="white"
         stroke-width="1" stroke-linejoin="round"
         points="145.000,34.641 150.000,43.301 155.000,34.641 150.000,25.981 155.000,17.321 145.000,17.321 140.000,25.981 130.000,25.981 135.000,34.641">
<desc>W7</desc>
</polygon>
<polygon fill="navy" stroke="white"
         stroke-width="1" stroke-linejoin="round"
         points="150.000,43.301 160.000,43.301 165.000,34.641 160.000,25.981 170.000,25.981 165.000,17.321 155.000,17.321 150.000,25.981 155.000,34.641">
<desc>S7</desc>
</polygon>
<polygon fill="green" stroke="white"
         stroke-width="1" stroke-linejoin="round"
         points="175.000,34.641 180.000,43.301 190.000,43.301 195.000,34.641 185.000,17.321">
<desc>D7</desc>
</polygon>
<polygon fill="maroon" stroke="white"
         stroke-width="1" stroke-linejoin="round"
         points="90.000,25.981 95.000,34.641 110.000,8.660 90.000,8.660 85.000,17.321 95.000,17.321">
<desc>G7</desc>
</polygon>
<polygon fill="red" stroke="white"
         stroke-width="1" stroke-linejoin="round"
         points="105.000,34.641 125.000,34.641 110.000,8.660 100.000,25.981 110.000,25.981">
<desc>M7</desc>
</polygon>
<polygon fill="gold" stroke="white"
         stroke-width="1" stroke-linejoin="round"
         points="190.000,25.981 195.000,34.641 200.000,25.981 195.000,17.321 205.000,17.321 210.000,8.660 190.000,8.660 185.000,17.321">
<desc>V7</desc>
</polygon>
<polygon fill="turquoise" stroke="white"
         stroke-width="1" stroke-linejoin="round"
         points="210.000,25.981 215.000,34.641 225.000,34.641 210.000,8.660 205.000,17.321 195.000,17.321 200.000,25.981">
<desc>H7</desc>
</polygon>
<polygon fill="plum" stroke="white"
         stroke-width="1" stroke-linejoin="round"
         points="40.000,25.981 60.000,25.981 55.000,17.321 65.000,17.321 60.000,8.660 40.000,8.660 45.000,17.321">
<desc>B7</desc>
</polygon>
<polygon fill="olive" stroke="white"
         stroke-width="1" stroke-linejoin="round"
         points="130.000,25.981 140.000,25.981 145.000,17.321 165.000,17.321 160.000,8.660 140.000,8.660">
<desc>R7</desc>
</polygon>
</g>
</svg>
