<?xml version="1.0" standalone="no"?>
<!-- Created by Polyform Puzzler (http://puzzler.sourceforge.net/) -->
<svg width="315.0" height="43.3012701892" viewBox="0 0 315.0 43.3012701892"
     xmlns="http://www.w3.org/2000/svg"
     xmlns:xlink="http://www.w3.org/1999/xlink">
<g>
<polygon fill="green" stroke="white"
         stroke-width="1" stroke-linejoin="round"
         points="10.000,34.641 30.000,34.641 35.000,25.981 30.000,17.321 20.000,17.321">
<desc>D7</desc>
</polygon>
<polygon fill="lime" stroke="white"
         stroke-width="1" stroke-linejoin="round"
         points="30.000,34.641 40.000,34.641 45.000,25.981 35.000,8.660 25.000,8.660 20.000,17.321 30.000,17.321 35.000,25.981">
<desc>C7</desc>
</polygon>
<polygon fill="blue" stroke="white"
         stroke-width="1" stroke-linejoin="round"
         points="40.000,34.641 80.000,34.641 75.000,25.981 45.000,25.981">
<desc>I7</desc>
</polygon>
<polygon fill="blueviolet" stroke="white"
         stroke-width="1" stroke-linejoin="round"
         points="75.000,25.981 80.000,34.641 90.000,34.641 85.000,25.981 90.000,17.321 85.000,8.660 80.000,17.321 70.000,17.321 65.000,25.981">
<desc>W7</desc>
</polygon>
<polygon fill="indigo" stroke="white"
         stroke-width="1" stroke-linejoin="round"
         points="85.000,25.981 90.000,34.641 95.000,25.981 105.000,25.981 100.000,17.321 105.000,8.660 85.000,8.660 90.000,17.321">
<desc>X7</desc>
</polygon>
<polygon fill="gold" stroke="white"
         stroke-width="1" stroke-linejoin="round"
         points="90.000,34.641 110.000,34.641 115.000,25.981 105.000,8.660 100.000,17.321 105.000,25.981 95.000,25.981">
<desc>V7</desc>
</polygon>
<polygon fill="plum" stroke="white"
         stroke-width="1" stroke-linejoin="round"
         points="110.000,34.641 130.000,34.641 125.000,25.981 135.000,25.981 130.000,17.321 110.000,17.321 115.000,25.981">
<desc>B7</desc>
</polygon>
<polygon fill="magenta" stroke="white"
         stroke-width="1" stroke-linejoin="round"
         points="125.000,25.981 130.000,34.641 160.000,34.641 150.000,17.321 145.000,25.981">
<desc>P7</desc>
</polygon>
<polygon fill="teal" stroke="white"
         stroke-width="1" stroke-linejoin="round"
         points="155.000,25.981 160.000,34.641 170.000,34.641 165.000,25.981 175.000,8.660 165.000,8.660 160.000,17.321 150.000,17.321">
<desc>T7</desc>
</polygon>
<polygon fill="yellowgreen" stroke="white"
         stroke-width="1" stroke-linejoin="round"
         points="165.000,25.981 170.000,34.641 180.000,34.641 185.000,25.981 175.000,25.981 185.000,8.660 175.000,8.660">
<desc>J7</desc>
</polygon>
<polygon fill="orangered" stroke="white"
         stroke-width="1" stroke-linejoin="round"
         points="180.000,34.641 200.000,34.641 205.000,25.981 195.000,25.981 190.000,17.321 180.000,17.321 175.000,25.981 185.000,25.981">
<desc>Z7</desc>
</polygon>
<polygon fill="darkseagreen" stroke="white"
         stroke-width="1" stroke-linejoin="round"
         points="200.000,34.641 210.000,34.641 220.000,17.321 215.000,8.660 205.000,8.660 210.000,17.321 200.000,17.321 205.000,25.981">
<desc>F7</desc>
</polygon>
<polygon fill="lightcoral" stroke="white"
         stroke-width="1" stroke-linejoin="round"
         points="210.000,34.641 230.000,34.641 225.000,25.981 230.000,17.321 225.000,8.660 215.000,8.660 220.000,17.321">
<desc>Q7</desc>
</polygon>
<polygon fill="navy" stroke="white"
         stroke-width="1" stroke-linejoin="round"
         points="225.000,25.981 230.000,34.641 240.000,34.641 245.000,25.981 235.000,25.981 240.000,17.321 235.000,8.660 225.000,8.660 230.000,17.321">
<desc>S7</desc>
</polygon>
<polygon fill="red" stroke="white"
         stroke-width="1" stroke-linejoin="round"
         points="240.000,34.641 270.000,34.641 260.000,17.321 255.000,25.981 250.000,17.321">
<desc>M7</desc>
</polygon>
<polygon fill="olive" stroke="white"
         stroke-width="1" stroke-linejoin="round"
         points="265.000,25.981 270.000,34.641 290.000,34.641 300.000,17.321 290.000,17.321 285.000,25.981">
<desc>R7</desc>
</polygon>
<polygon fill="maroon" stroke="white"
         stroke-width="1" stroke-linejoin="round"
         points="40.000,17.321 45.000,25.981 55.000,25.981 50.000,17.321 60.000,17.321 65.000,8.660 35.000,8.660">
<desc>G7</desc>
</polygon>
<polygon fill="gray" stroke="white"
         stroke-width="1" stroke-linejoin="round"
         points="50.000,17.321 55.000,25.981 65.000,25.981 70.000,17.321 80.000,17.321 85.000,8.660 65.000,8.660 60.000,17.321">
<desc>N7</desc>
</polygon>
<polygon fill="steelblue" stroke="white"
         stroke-width="1" stroke-linejoin="round"
         points="130.000,17.321 135.000,25.981 140.000,17.321 135.000,8.660 105.000,8.660 110.000,17.321">
<desc>L7</desc>
</polygon>
<polygon fill="turquoise" stroke="white"
         stroke-width="1" stroke-linejoin="round"
         points="135.000,25.981 145.000,25.981 150.000,17.321 160.000,17.321 165.000,8.660 135.000,8.660 140.000,17.321">
<desc>H7</desc>
</polygon>
<polygon fill="yellow" stroke="white"
         stroke-width="1" stroke-linejoin="round"
         points="190.000,17.321 195.000,25.981 205.000,25.981 200.000,17.321 210.000,17.321 205.000,8.660 185.000,8.660 180.000,17.321">
<desc>Y7</desc>
</polygon>
<polygon fill="peru" stroke="white"
         stroke-width="1" stroke-linejoin="round"
         points="235.000,25.981 245.000,25.981 250.000,17.321 255.000,25.981 260.000,17.321 255.000,8.660 235.000,8.660 240.000,17.321">
<desc>A7</desc>
</polygon>
<polygon fill="tan" stroke="white"
         stroke-width="1" stroke-linejoin="round"
         points="260.000,17.321 265.000,25.981 285.000,25.981 280.000,17.321 270.000,17.321 275.000,8.660 255.000,8.660">
<desc>U7</desc>
</polygon>
<polygon fill="darkorange" stroke="white"
         stroke-width="1" stroke-linejoin="round"
         points="280.000,17.321 285.000,25.981 290.000,17.321 300.000,17.321 305.000,8.660 275.000,8.660 270.000,17.321">
<desc>E7</desc>
</polygon>
</g>

</svg>
