<?xml version="1.0" standalone="no"?>
<!-- Created by Polyform Puzzler (http://puzzler.sourceforge.net/) -->
<svg width="400.000" height="400.000"
     viewBox="0 0 400.000 400.000"
     xmlns="http://www.w3.org/2000/svg"
     xmlns:xlink="http://www.w3.org/1999/xlink">
<g transform="translate(200.000,100.000) rotate(30)">
<polygon fill="green" stroke="white"
         stroke-width="1" stroke-linejoin="round"
         points="10.000,112.583 30.000,112.583 35.000,103.923 30.000,95.263 20.000,95.263">
<desc>D7</desc>
</polygon>
<polygon fill="peru" stroke="white"
         stroke-width="1" stroke-linejoin="round"
         points="30.000,95.263 35.000,103.923 40.000,95.263 35.000,86.603 45.000,86.603 40.000,77.942 30.000,77.942 20.000,95.263">
<desc>A7</desc>
</polygon>
<polygon fill="plum" stroke="white"
         stroke-width="1" stroke-linejoin="round"
         points="35.000,86.603 40.000,95.263 60.000,95.263 55.000,86.603 60.000,77.942 40.000,77.942 45.000,86.603">
<desc>B7</desc>
</polygon>
<polygon fill="gray" stroke="white"
         stroke-width="1" stroke-linejoin="round"
         points="55.000,86.603 60.000,95.263 70.000,77.942 65.000,69.282 70.000,60.622 60.000,60.622 55.000,69.282 60.000,77.942">
<desc>N7</desc>
</polygon>
<polygon fill="red" stroke="white"
         stroke-width="1" stroke-linejoin="round"
         points="30.000,77.942 60.000,77.942 50.000,60.622 45.000,69.282 40.000,60.622">
<desc>M7</desc>
</polygon>
<polygon fill="gold" stroke="white"
         stroke-width="1" stroke-linejoin="round"
         points="65.000,69.282 70.000,77.942 90.000,77.942 85.000,69.282 75.000,69.282 80.000,60.622 75.000,51.962">
<desc>V7</desc>
</polygon>
<polygon fill="indigo" stroke="white"
         stroke-width="1" stroke-linejoin="round"
         points="85.000,69.282 90.000,77.942 100.000,60.622 90.000,60.622 85.000,51.962 75.000,51.962 80.000,60.622 75.000,69.282">
<desc>X7</desc>
</polygon>
<polygon fill="darkseagreen" stroke="white"
         stroke-width="1" stroke-linejoin="round"
         points="40.000,60.622 45.000,69.282 50.000,60.622 55.000,69.282 60.000,60.622 70.000,60.622 65.000,51.962 45.000,51.962">
<desc>F7</desc>
</polygon>
<polygon fill="teal" stroke="white"
         stroke-width="1" stroke-linejoin="round"
         points="65.000,51.962 70.000,60.622 75.000,51.962 65.000,34.641 60.000,43.301 50.000,43.301 45.000,51.962">
<desc>T7</desc>
</polygon>
<polygon fill="blueviolet" stroke="white"
         stroke-width="1" stroke-linejoin="round"
         points="85.000,51.962 90.000,60.622 100.000,60.622 95.000,51.962 100.000,43.301 95.000,34.641 90.000,43.301 80.000,43.301 75.000,51.962">
<desc>W7</desc>
</polygon>
<polygon fill="lime" stroke="white"
         stroke-width="1" stroke-linejoin="round"
         points="95.000,51.962 100.000,60.622 120.000,60.622 125.000,51.962 120.000,43.301 115.000,51.962 105.000,51.962 100.000,43.301">
<desc>C7</desc>
</polygon>
<polygon fill="orangered" stroke="white"
         stroke-width="1" stroke-linejoin="round"
         points="70.000,43.301 75.000,51.962 80.000,43.301 90.000,43.301 95.000,34.641 90.000,25.981 85.000,34.641 80.000,25.981">
<desc>Z7</desc>
</polygon>
<polygon fill="yellowgreen" stroke="white"
         stroke-width="1" stroke-linejoin="round"
         points="100.000,43.301 105.000,51.962 115.000,51.962 125.000,34.641 120.000,25.981 110.000,43.301 105.000,34.641">
<desc>J7</desc>
</polygon>
<polygon fill="steelblue" stroke="white"
         stroke-width="1" stroke-linejoin="round"
         points="120.000,43.301 125.000,51.962 130.000,43.301 150.000,43.301 155.000,34.641 125.000,34.641">
<desc>L7</desc>
</polygon>
<polygon fill="tan" stroke="white"
         stroke-width="1" stroke-linejoin="round"
         points="50.000,43.301 60.000,43.301 65.000,34.641 70.000,43.301 80.000,25.981 60.000,25.981">
<desc>U7</desc>
</polygon>
<polygon fill="yellow" stroke="white"
         stroke-width="1" stroke-linejoin="round"
         points="95.000,34.641 100.000,43.301 105.000,34.641 110.000,43.301 115.000,34.641 110.000,25.981 115.000,17.321 105.000,17.321">
<desc>Y7</desc>
</polygon>
<polygon fill="lightcoral" stroke="white"
         stroke-width="1" stroke-linejoin="round"
         points="80.000,25.981 85.000,34.641 90.000,25.981 85.000,17.321 75.000,17.321 70.000,8.660 60.000,25.981">
<desc>Q7</desc>
</polygon>
<polygon fill="olive" stroke="white"
         stroke-width="1" stroke-linejoin="round"
         points="90.000,25.981 95.000,34.641 100.000,25.981 90.000,8.660 70.000,8.660 75.000,17.321 85.000,17.321">
<desc>R7</desc>
</polygon>
<polygon fill="navy" stroke="white"
         stroke-width="1" stroke-linejoin="round"
         points="110.000,25.981 115.000,34.641 120.000,25.981 130.000,25.981 135.000,17.321 130.000,8.660 120.000,8.660 125.000,17.321 115.000,17.321">
<desc>S7</desc>
</polygon>
<polygon fill="blue" stroke="white"
         stroke-width="1" stroke-linejoin="round"
         points="120.000,25.981 125.000,34.641 155.000,34.641 160.000,25.981">
<desc>I7</desc>
</polygon>
<polygon fill="magenta" stroke="white"
         stroke-width="1" stroke-linejoin="round"
         points="95.000,17.321 100.000,25.981 105.000,17.321 125.000,17.321 120.000,8.660 90.000,8.660">
<desc>P7</desc>
</polygon>
<polygon fill="turquoise" stroke="white"
         stroke-width="1" stroke-linejoin="round"
         points="130.000,25.981 140.000,25.981 145.000,17.321 155.000,17.321 160.000,8.660 130.000,8.660 135.000,17.321">
<desc>H7</desc>
</polygon>
<polygon fill="darkorange" stroke="white"
         stroke-width="1" stroke-linejoin="round"
         points="140.000,25.981 170.000,25.981 175.000,17.321 165.000,17.321 160.000,8.660 155.000,17.321 145.000,17.321">
<desc>E7</desc>
</polygon>
<polygon fill="maroon" stroke="white"
         stroke-width="1" stroke-linejoin="round"
         points="170.000,25.981 180.000,25.981 190.000,8.660 160.000,8.660 165.000,17.321 175.000,17.321">
<desc>G7</desc>
</polygon>
</g>
</svg>
