<?xml version="1.0" standalone="no"?>
<!-- Created by Polyform Puzzler (http://puzzler.sourceforge.net/) -->
<svg width="205.000" height="95.263"
     viewBox="0 0 205.000 95.263"
     xmlns="http://www.w3.org/2000/svg"
     xmlns:xlink="http://www.w3.org/1999/xlink">
<g>
<polygon fill="turquoise" stroke="white"
         stroke-width="1" stroke-linejoin="round"
         points="65.000,77.942 70.000,86.603 80.000,86.603 75.000,77.942 80.000,69.282 50.000,69.282 55.000,77.942">
<desc>H7</desc>
</polygon>
<polygon fill="darkseagreen" stroke="white"
         stroke-width="1" stroke-linejoin="round"
         points="75.000,77.942 80.000,86.603 85.000,77.942 95.000,77.942 90.000,69.282 100.000,69.282 95.000,60.622 85.000,60.622">
<desc>F7</desc>
</polygon>
<polygon fill="gold" stroke="white"
         stroke-width="1" stroke-linejoin="round"
         points="95.000,77.942 100.000,86.603 110.000,86.603 120.000,69.282 110.000,69.282 105.000,77.942 100.000,69.282 90.000,69.282">
<desc>V7</desc>
</polygon>
<polygon fill="indigo" stroke="white"
         stroke-width="1" stroke-linejoin="round"
         points="125.000,77.942 130.000,86.603 140.000,86.603 135.000,77.942 140.000,69.282 130.000,69.282 125.000,60.622 115.000,77.942">
<desc>X7</desc>
</polygon>
<polygon fill="orangered" stroke="white"
         stroke-width="1" stroke-linejoin="round"
         points="135.000,77.942 140.000,86.603 145.000,77.942 155.000,77.942 160.000,69.282 155.000,60.622 150.000,69.282 145.000,60.622">
<desc>Z7</desc>
</polygon>
<polygon fill="lightcoral" stroke="white"
         stroke-width="1" stroke-linejoin="round"
         points="100.000,69.282 105.000,77.942 110.000,69.282 120.000,69.282 125.000,60.622 120.000,51.962 115.000,60.622 95.000,60.622">
<desc>Q7</desc>
</polygon>
<polygon fill="peru" stroke="white"
         stroke-width="1" stroke-linejoin="round"
         points="50.000,69.282 70.000,69.282 75.000,60.622 70.000,51.962 65.000,60.622 60.000,51.962 50.000,51.962 55.000,60.622">
<desc>A7</desc>
</polygon>
<polygon fill="blue" stroke="white"
         stroke-width="1" stroke-linejoin="round"
         points="70.000,69.282 80.000,69.282 95.000,43.301 90.000,34.641">
<desc>I7</desc>
</polygon>
<polygon fill="yellowgreen" stroke="white"
         stroke-width="1" stroke-linejoin="round"
         points="125.000,60.622 130.000,69.282 140.000,69.282 145.000,60.622 135.000,60.622 145.000,43.301 135.000,43.301">
<desc>J7</desc>
</polygon>
<polygon fill="plum" stroke="white"
         stroke-width="1" stroke-linejoin="round"
         points="145.000,60.622 150.000,69.282 160.000,51.962 155.000,43.301 150.000,51.962 145.000,43.301 135.000,60.622">
<desc>B7</desc>
</polygon>
<polygon fill="darkorange" stroke="white"
         stroke-width="1" stroke-linejoin="round"
         points="60.000,51.962 65.000,60.622 70.000,51.962 55.000,25.981 50.000,34.641 55.000,43.301 50.000,51.962">
<desc>E7</desc>
</polygon>
<polygon fill="red" stroke="white"
         stroke-width="1" stroke-linejoin="round"
         points="70.000,51.962 75.000,60.622 85.000,43.301 75.000,43.301 80.000,34.641 60.000,34.641">
<desc>M7</desc>
</polygon>
<polygon fill="teal" stroke="white"
         stroke-width="1" stroke-linejoin="round"
         points="85.000,60.622 95.000,60.622 100.000,51.962 110.000,51.962 100.000,34.641 90.000,34.641 95.000,43.301">
<desc>T7</desc>
</polygon>
<polygon fill="tan" stroke="white"
         stroke-width="1" stroke-linejoin="round"
         points="95.000,60.622 115.000,60.622 125.000,43.301 105.000,43.301 110.000,51.962 100.000,51.962">
<desc>U7</desc>
</polygon>
<polygon fill="magenta" stroke="white"
         stroke-width="1" stroke-linejoin="round"
         points="120.000,51.962 125.000,60.622 135.000,43.301 145.000,43.301 135.000,25.981">
<desc>P7</desc>
</polygon>
<polygon fill="maroon" stroke="white"
         stroke-width="1" stroke-linejoin="round"
         points="145.000,43.301 150.000,51.962 160.000,34.641 155.000,25.981 150.000,34.641 145.000,25.981 135.000,25.981">
<desc>G7</desc>
</polygon>
<polygon fill="yellow" stroke="white"
         stroke-width="1" stroke-linejoin="round"
         points="75.000,43.301 85.000,43.301 90.000,34.641 100.000,34.641 95.000,25.981 75.000,25.981 70.000,34.641 80.000,34.641">
<desc>Y7</desc>
</polygon>
<polygon fill="olive" stroke="white"
         stroke-width="1" stroke-linejoin="round"
         points="100.000,34.641 105.000,43.301 125.000,43.301 130.000,34.641 110.000,34.641 105.000,25.981 95.000,25.981">
<desc>R7</desc>
</polygon>
<polygon fill="lime" stroke="white"
         stroke-width="1" stroke-linejoin="round"
         points="55.000,25.981 60.000,34.641 70.000,34.641 75.000,25.981 65.000,25.981 60.000,17.321 65.000,8.660 55.000,8.660 50.000,17.321">
<desc>C7</desc>
</polygon>
<polygon fill="navy" stroke="white"
         stroke-width="1" stroke-linejoin="round"
         points="105.000,25.981 110.000,34.641 120.000,34.641 125.000,25.981 120.000,17.321 125.000,8.660 115.000,8.660 110.000,17.321 115.000,25.981">
<desc>S7</desc>
</polygon>
<polygon fill="blueviolet" stroke="white"
         stroke-width="1" stroke-linejoin="round"
         points="120.000,34.641 130.000,34.641 135.000,25.981 145.000,25.981 140.000,17.321 130.000,17.321 125.000,8.660 120.000,17.321 125.000,25.981">
<desc>W7</desc>
</polygon>
<polygon fill="green" stroke="white"
         stroke-width="1" stroke-linejoin="round"
         points="145.000,25.981 150.000,34.641 160.000,17.321 155.000,8.660 145.000,8.660 140.000,17.321">
<desc>D7</desc>
</polygon>
<polygon fill="steelblue" stroke="white"
         stroke-width="1" stroke-linejoin="round"
         points="60.000,17.321 65.000,25.981 95.000,25.981 90.000,17.321 70.000,17.321 65.000,8.660">
<desc>L7</desc>
</polygon>
<polygon fill="gray" stroke="white"
         stroke-width="1" stroke-linejoin="round"
         points="90.000,17.321 95.000,25.981 115.000,25.981 110.000,17.321 100.000,17.321 95.000,8.660 85.000,8.660 80.000,17.321">
<desc>N7</desc>
</polygon>
</g>
</svg>
