<?xml version="1.0" standalone="no"?>
<!-- Created by Polyform Puzzler (http://puzzler.sourceforge.net/) -->
<svg width="190.0" height="69.2820323028" viewBox="0 0 190.0 69.2820323028"
     xmlns="http://www.w3.org/2000/svg"
     xmlns:xlink="http://www.w3.org/1999/xlink">
<g>
<polygon fill="green" stroke="white"
         stroke-width="1" stroke-linejoin="round"
         points="10.000,60.622 30.000,60.622 35.000,51.962 30.000,43.301 20.000,43.301">
<desc>D7</desc>
</polygon>
<polygon fill="peru" stroke="white"
         stroke-width="1" stroke-linejoin="round"
         points="30.000,60.622 50.000,60.622 55.000,51.962 50.000,43.301 45.000,51.962 40.000,43.301 30.000,43.301 35.000,51.962">
<desc>A7</desc>
</polygon>
<polygon fill="blue" stroke="white"
         stroke-width="1" stroke-linejoin="round"
         points="50.000,60.622 60.000,60.622 75.000,34.641 70.000,25.981">
<desc>I7</desc>
</polygon>
<polygon fill="steelblue" stroke="white"
         stroke-width="1" stroke-linejoin="round"
         points="60.000,60.622 70.000,60.622 80.000,43.301 90.000,43.301 85.000,34.641 75.000,34.641">
<desc>L7</desc>
</polygon>
<polygon fill="tan" stroke="white"
         stroke-width="1" stroke-linejoin="round"
         points="70.000,60.622 90.000,60.622 85.000,51.962 95.000,51.962 100.000,43.301 80.000,43.301">
<desc>U7</desc>
</polygon>
<polygon fill="lime" stroke="white"
         stroke-width="1" stroke-linejoin="round"
         points="85.000,51.962 90.000,60.622 100.000,60.622 110.000,43.301 105.000,34.641 95.000,34.641 100.000,43.301 95.000,51.962">
<desc>C7</desc>
</polygon>
<polygon fill="red" stroke="white"
         stroke-width="1" stroke-linejoin="round"
         points="100.000,60.622 130.000,60.622 120.000,43.301 115.000,51.962 110.000,43.301">
<desc>M7</desc>
</polygon>
<polygon fill="blueviolet" stroke="white"
         stroke-width="1" stroke-linejoin="round"
         points="125.000,51.962 130.000,60.622 135.000,51.962 145.000,51.962 150.000,43.301 140.000,43.301 135.000,34.641 125.000,34.641 130.000,43.301">
<desc>W7</desc>
</polygon>
<polygon fill="olive" stroke="white"
         stroke-width="1" stroke-linejoin="round"
         points="130.000,60.622 150.000,60.622 160.000,43.301 155.000,34.641 145.000,51.962 135.000,51.962">
<desc>R7</desc>
</polygon>
<polygon fill="darkseagreen" stroke="white"
         stroke-width="1" stroke-linejoin="round"
         points="40.000,43.301 45.000,51.962 50.000,43.301 55.000,51.962 60.000,43.301 55.000,34.641 35.000,34.641 30.000,43.301">
<desc>F7</desc>
</polygon>
<polygon fill="orangered" stroke="white"
         stroke-width="1" stroke-linejoin="round"
         points="110.000,43.301 115.000,51.962 120.000,43.301 125.000,51.962 130.000,43.301 125.000,34.641 115.000,34.641 110.000,25.981 105.000,34.641">
<desc>Z7</desc>
</polygon>
<polygon fill="turquoise" stroke="white"
         stroke-width="1" stroke-linejoin="round"
         points="20.000,43.301 30.000,43.301 35.000,34.641 45.000,34.641 50.000,25.981 40.000,25.981 35.000,17.321">
<desc>H7</desc>
</polygon>
<polygon fill="indigo" stroke="white"
         stroke-width="1" stroke-linejoin="round"
         points="55.000,34.641 60.000,43.301 70.000,25.981 60.000,25.981 55.000,17.321 45.000,17.321 50.000,25.981 45.000,34.641">
<desc>X7</desc>
</polygon>
<polygon fill="gray" stroke="white"
         stroke-width="1" stroke-linejoin="round"
         points="85.000,34.641 90.000,43.301 100.000,43.301 95.000,34.641 100.000,25.981 90.000,8.660 85.000,17.321 90.000,25.981">
<desc>N7</desc>
</polygon>
<polygon fill="navy" stroke="white"
         stroke-width="1" stroke-linejoin="round"
         points="135.000,34.641 140.000,43.301 150.000,43.301 155.000,34.641 150.000,25.981 145.000,34.641 140.000,25.981 130.000,25.981 125.000,34.641">
<desc>S7</desc>
</polygon>
<polygon fill="maroon" stroke="white"
         stroke-width="1" stroke-linejoin="round"
         points="155.000,34.641 160.000,43.301 175.000,17.321 165.000,17.321 160.000,25.981 155.000,17.321 150.000,25.981">
<desc>G7</desc>
</polygon>
<polygon fill="yellow" stroke="white"
         stroke-width="1" stroke-linejoin="round"
         points="70.000,25.981 75.000,34.641 80.000,25.981 70.000,8.660 60.000,8.660 65.000,17.321 55.000,17.321 60.000,25.981">
<desc>Y7</desc>
</polygon>
<polygon fill="lightcoral" stroke="white"
         stroke-width="1" stroke-linejoin="round"
         points="75.000,34.641 85.000,34.641 90.000,25.981 85.000,17.321 90.000,8.660 70.000,8.660 80.000,25.981">
<desc>Q7</desc>
</polygon>
<polygon fill="teal" stroke="white"
         stroke-width="1" stroke-linejoin="round"
         points="95.000,34.641 105.000,34.641 115.000,17.321 105.000,17.321 100.000,8.660 90.000,8.660 100.000,25.981">
<desc>T7</desc>
</polygon>
<polygon fill="gold" stroke="white"
         stroke-width="1" stroke-linejoin="round"
         points="110.000,25.981 115.000,34.641 125.000,17.321 120.000,8.660 100.000,8.660 105.000,17.321 115.000,17.321">
<desc>V7</desc>
</polygon>
<polygon fill="magenta" stroke="white"
         stroke-width="1" stroke-linejoin="round"
         points="115.000,34.641 125.000,34.641 140.000,8.660 120.000,8.660 125.000,17.321">
<desc>P7</desc>
</polygon>
<polygon fill="plum" stroke="white"
         stroke-width="1" stroke-linejoin="round"
         points="140.000,25.981 145.000,34.641 155.000,17.321 145.000,17.321 150.000,8.660 140.000,8.660 130.000,25.981">
<desc>B7</desc>
</polygon>
<polygon fill="yellowgreen" stroke="white"
         stroke-width="1" stroke-linejoin="round"
         points="35.000,17.321 40.000,25.981 50.000,25.981 45.000,17.321 65.000,17.321 60.000,8.660 40.000,8.660">
<desc>J7</desc>
</polygon>
<polygon fill="darkorange" stroke="white"
         stroke-width="1" stroke-linejoin="round"
         points="155.000,17.321 160.000,25.981 165.000,17.321 175.000,17.321 180.000,8.660 150.000,8.660 145.000,17.321">
<desc>E7</desc>
</polygon>
</g>

</svg>
