<?xml version="1.0" standalone="no"?>
<!-- Created by Polyform Puzzler (http://puzzler.sourceforge.net/) -->
<svg width="430.000" height="430.000"
     viewBox="0 0 430.000 430.000"
     xmlns="http://www.w3.org/2000/svg"
     xmlns:xlink="http://www.w3.org/1999/xlink">
<g transform="translate(215.000,107.500) rotate(30)">
<polygon fill="yellowgreen" stroke="white"
         stroke-width="1" stroke-linejoin="round"
         points="45.000,112.583 50.000,121.244 60.000,121.244 70.000,103.923 65.000,95.263 55.000,112.583 50.000,103.923">
<desc>J7</desc>
</polygon>
<polygon fill="green" stroke="white"
         stroke-width="1" stroke-linejoin="round"
         points="30.000,103.923 35.000,112.583 45.000,112.583 50.000,103.923 40.000,86.603">
<desc>D7</desc>
</polygon>
<polygon fill="red" stroke="white"
         stroke-width="1" stroke-linejoin="round"
         points="50.000,103.923 55.000,112.583 70.000,86.603 50.000,86.603 55.000,95.263 45.000,95.263">
<desc>M7</desc>
</polygon>
<polygon fill="blue" stroke="white"
         stroke-width="1" stroke-linejoin="round"
         points="65.000,112.583 75.000,112.583 90.000,86.603 85.000,77.942">
<desc>I7</desc>
</polygon>
<polygon fill="gray" stroke="white"
         stroke-width="1" stroke-linejoin="round"
         points="65.000,95.263 70.000,103.923 80.000,86.603 75.000,77.942 80.000,69.282 70.000,69.282 65.000,77.942 70.000,86.603">
<desc>N7</desc>
</polygon>
<polygon fill="teal" stroke="white"
         stroke-width="1" stroke-linejoin="round"
         points="80.000,103.923 90.000,103.923 95.000,95.263 105.000,95.263 95.000,77.942 85.000,77.942 90.000,86.603">
<desc>T7</desc>
</polygon>
<polygon fill="peru" stroke="white"
         stroke-width="1" stroke-linejoin="round"
         points="30.000,86.603 35.000,95.263 40.000,86.603 45.000,95.263 55.000,95.263 50.000,86.603 55.000,77.942 35.000,77.942">
<desc>A7</desc>
</polygon>
<polygon fill="blueviolet" stroke="white"
         stroke-width="1" stroke-linejoin="round"
         points="100.000,86.603 105.000,95.263 110.000,86.603 120.000,86.603 125.000,77.942 115.000,77.942 110.000,69.282 100.000,69.282 105.000,77.942">
<desc>W7</desc>
</polygon>
<polygon fill="plum" stroke="white"
         stroke-width="1" stroke-linejoin="round"
         points="50.000,86.603 70.000,86.603 65.000,77.942 70.000,69.282 50.000,69.282 45.000,77.942 55.000,77.942">
<desc>B7</desc>
</polygon>
<polygon fill="lime" stroke="white"
         stroke-width="1" stroke-linejoin="round"
         points="75.000,77.942 80.000,86.603 85.000,77.942 95.000,77.942 100.000,86.603 105.000,77.942 100.000,69.282 80.000,69.282">
<desc>C7</desc>
</polygon>
<polygon fill="yellow" stroke="white"
         stroke-width="1" stroke-linejoin="round"
         points="110.000,69.282 115.000,77.942 125.000,77.942 120.000,69.282 130.000,69.282 125.000,60.622 105.000,60.622 100.000,69.282">
<desc>Y7</desc>
</polygon>
<polygon fill="orangered" stroke="white"
         stroke-width="1" stroke-linejoin="round"
         points="120.000,69.282 125.000,77.942 135.000,77.942 140.000,69.282 150.000,69.282 145.000,60.622 125.000,60.622 130.000,69.282">
<desc>Z7</desc>
</polygon>
<polygon fill="darkorange" stroke="white"
         stroke-width="1" stroke-linejoin="round"
         points="60.000,69.282 90.000,69.282 95.000,60.622 85.000,60.622 80.000,51.962 75.000,60.622 65.000,60.622">
<desc>E7</desc>
</polygon>
<polygon fill="maroon" stroke="white"
         stroke-width="1" stroke-linejoin="round"
         points="90.000,69.282 100.000,69.282 110.000,51.962 80.000,51.962 85.000,60.622 95.000,60.622">
<desc>G7</desc>
</polygon>
<polygon fill="steelblue" stroke="white"
         stroke-width="1" stroke-linejoin="round"
         points="145.000,60.622 150.000,69.282 155.000,60.622 145.000,43.301 150.000,34.641 140.000,34.641 135.000,43.301">
<desc>L7</desc>
</polygon>
<polygon fill="gold" stroke="white"
         stroke-width="1" stroke-linejoin="round"
         points="105.000,60.622 125.000,60.622 130.000,51.962 120.000,34.641 115.000,43.301 120.000,51.962 110.000,51.962">
<desc>V7</desc>
</polygon>
<polygon fill="magenta" stroke="white"
         stroke-width="1" stroke-linejoin="round"
         points="125.000,60.622 145.000,60.622 130.000,34.641 120.000,34.641 130.000,51.962">
<desc>P7</desc>
</polygon>
<polygon fill="darkseagreen" stroke="white"
         stroke-width="1" stroke-linejoin="round"
         points="150.000,51.962 155.000,60.622 165.000,60.622 160.000,51.962 165.000,43.301 155.000,43.301 160.000,34.641 150.000,34.641 145.000,43.301">
<desc>F7</desc>
</polygon>
<polygon fill="navy" stroke="white"
         stroke-width="1" stroke-linejoin="round"
         points="160.000,51.962 165.000,60.622 170.000,51.962 180.000,51.962 185.000,43.301 180.000,34.641 170.000,34.641 175.000,43.301 165.000,43.301">
<desc>S7</desc>
</polygon>
<polygon fill="turquoise" stroke="white"
         stroke-width="1" stroke-linejoin="round"
         points="90.000,51.962 120.000,51.962 115.000,43.301 120.000,34.641 110.000,34.641 105.000,43.301 95.000,43.301">
<desc>H7</desc>
</polygon>
<polygon fill="indigo" stroke="white"
         stroke-width="1" stroke-linejoin="round"
         points="130.000,34.641 135.000,43.301 140.000,34.641 150.000,34.641 140.000,17.321 135.000,25.981 125.000,25.981 120.000,34.641">
<desc>X7</desc>
</polygon>
<polygon fill="tan" stroke="white"
         stroke-width="1" stroke-linejoin="round"
         points="155.000,43.301 175.000,43.301 170.000,34.641 180.000,34.641 185.000,25.981 165.000,25.981">
<desc>U7</desc>
</polygon>
<polygon fill="lightcoral" stroke="white"
         stroke-width="1" stroke-linejoin="round"
         points="145.000,25.981 150.000,34.641 160.000,17.321 170.000,17.321 165.000,8.660 155.000,8.660 150.000,17.321 140.000,17.321">
<desc>Q7</desc>
</polygon>
<polygon fill="olive" stroke="white"
         stroke-width="1" stroke-linejoin="round"
         points="150.000,34.641 160.000,34.641 165.000,25.981 185.000,25.981 180.000,17.321 160.000,17.321">
<desc>R7</desc>
</polygon>
</g>
</svg>
