<?xml version="1.0" standalone="no"?>
<!-- Created by Polyform Puzzler (http://puzzler.sourceforge.net/) -->
<svg width="215.000" height="129.904"
     viewBox="0 0 215.000 129.904"
     xmlns="http://www.w3.org/2000/svg"
     xmlns:xlink="http://www.w3.org/1999/xlink">
<g>
<polygon fill="blueviolet" stroke="white"
         stroke-width="1" stroke-linejoin="round"
         points="105.000,112.583 110.000,121.244 120.000,121.244 115.000,112.583 120.000,103.923 115.000,95.263 110.000,103.923 100.000,103.923 95.000,112.583">
<desc>W7</desc>
</polygon>
<polygon fill="orangered" stroke="white"
         stroke-width="1" stroke-linejoin="round"
         points="115.000,112.583 120.000,121.244 125.000,112.583 135.000,112.583 140.000,103.923 135.000,95.263 130.000,103.923 125.000,95.263">
<desc>Z7</desc>
</polygon>
<polygon fill="magenta" stroke="white"
         stroke-width="1" stroke-linejoin="round"
         points="90.000,103.923 95.000,112.583 110.000,86.603 105.000,77.942 95.000,95.263 85.000,95.263">
<desc>P7</desc>
</polygon>
<polygon fill="navy" stroke="white"
         stroke-width="1" stroke-linejoin="round"
         points="75.000,95.263 80.000,103.923 90.000,103.923 85.000,95.263 95.000,95.263 100.000,86.603 95.000,77.942 90.000,86.603 80.000,86.603">
<desc>S7</desc>
</polygon>
<polygon fill="tan" stroke="white"
         stroke-width="1" stroke-linejoin="round"
         points="100.000,103.923 110.000,103.923 115.000,95.263 120.000,103.923 130.000,86.603 110.000,86.603">
<desc>U7</desc>
</polygon>
<polygon fill="olive" stroke="white"
         stroke-width="1" stroke-linejoin="round"
         points="125.000,95.263 130.000,103.923 140.000,86.603 130.000,69.282 120.000,69.282 130.000,86.603">
<desc>R7</desc>
</polygon>
<polygon fill="indigo" stroke="white"
         stroke-width="1" stroke-linejoin="round"
         points="95.000,77.942 100.000,86.603 105.000,77.942 115.000,77.942 110.000,69.282 115.000,60.622 105.000,60.622 100.000,69.282 90.000,69.282">
<desc>X7</desc>
</polygon>
<polygon fill="maroon" stroke="white"
         stroke-width="1" stroke-linejoin="round"
         points="105.000,77.942 110.000,86.603 130.000,86.603 115.000,60.622 110.000,69.282 115.000,77.942">
<desc>G7</desc>
</polygon>
<polygon fill="yellow" stroke="white"
         stroke-width="1" stroke-linejoin="round"
         points="130.000,69.282 135.000,77.942 140.000,69.282 130.000,51.962 120.000,51.962 125.000,60.622 115.000,60.622 120.000,69.282">
<desc>Y7</desc>
</polygon>
<polygon fill="turquoise" stroke="white"
         stroke-width="1" stroke-linejoin="round"
         points="150.000,69.282 155.000,77.942 165.000,77.942 150.000,51.962 145.000,60.622 135.000,60.622 140.000,69.282">
<desc>H7</desc>
</polygon>
<polygon fill="darkorange" stroke="white"
         stroke-width="1" stroke-linejoin="round"
         points="160.000,69.282 165.000,77.942 170.000,69.282 165.000,60.622 170.000,51.962 160.000,51.962 155.000,43.301 150.000,51.962">
<desc>E7</desc>
</polygon>
<polygon fill="peru" stroke="white"
         stroke-width="1" stroke-linejoin="round"
         points="75.000,60.622 80.000,69.282 85.000,60.622 80.000,51.962 90.000,51.962 85.000,43.301 75.000,43.301 65.000,60.622">
<desc>A7</desc>
</polygon>
<polygon fill="plum" stroke="white"
         stroke-width="1" stroke-linejoin="round"
         points="80.000,69.282 100.000,69.282 105.000,60.622 95.000,60.622 100.000,51.962 80.000,51.962 85.000,60.622">
<desc>B7</desc>
</polygon>
<polygon fill="gray" stroke="white"
         stroke-width="1" stroke-linejoin="round"
         points="60.000,51.962 65.000,60.622 75.000,43.301 70.000,34.641 75.000,25.981 65.000,25.981 60.000,34.641 65.000,43.301">
<desc>N7</desc>
</polygon>
<polygon fill="red" stroke="white"
         stroke-width="1" stroke-linejoin="round"
         points="95.000,60.622 125.000,60.622 115.000,43.301 110.000,51.962 105.000,43.301">
<desc>M7</desc>
</polygon>
<polygon fill="yellowgreen" stroke="white"
         stroke-width="1" stroke-linejoin="round"
         points="130.000,51.962 135.000,60.622 145.000,60.622 150.000,51.962 140.000,51.962 150.000,34.641 140.000,34.641">
<desc>J7</desc>
</polygon>
<polygon fill="green" stroke="white"
         stroke-width="1" stroke-linejoin="round"
         points="85.000,43.301 90.000,51.962 100.000,51.962 105.000,43.301 100.000,34.641 80.000,34.641">
<desc>D7</desc>
</polygon>
<polygon fill="steelblue" stroke="white"
         stroke-width="1" stroke-linejoin="round"
         points="105.000,43.301 110.000,51.962 115.000,43.301 105.000,25.981 110.000,17.321 100.000,17.321 95.000,25.981">
<desc>L7</desc>
</polygon>
<polygon fill="teal" stroke="white"
         stroke-width="1" stroke-linejoin="round"
         points="115.000,43.301 120.000,51.962 130.000,51.962 125.000,43.301 135.000,25.981 125.000,25.981 120.000,34.641 110.000,34.641">
<desc>T7</desc>
</polygon>
<polygon fill="blue" stroke="white"
         stroke-width="1" stroke-linejoin="round"
         points="125.000,43.301 130.000,51.962 150.000,17.321 140.000,17.321">
<desc>I7</desc>
</polygon>
<polygon fill="gold" stroke="white"
         stroke-width="1" stroke-linejoin="round"
         points="140.000,51.962 150.000,51.962 155.000,43.301 160.000,51.962 170.000,51.962 160.000,34.641 150.000,34.641">
<desc>V7</desc>
</polygon>
<polygon fill="darkseagreen" stroke="white"
         stroke-width="1" stroke-linejoin="round"
         points="70.000,34.641 75.000,43.301 85.000,43.301 80.000,34.641 90.000,34.641 85.000,25.981 90.000,17.321 80.000,17.321">
<desc>F7</desc>
</polygon>
<polygon fill="lightcoral" stroke="white"
         stroke-width="1" stroke-linejoin="round"
         points="160.000,34.641 165.000,43.301 170.000,34.641 165.000,25.981 155.000,25.981 150.000,17.321 140.000,34.641">
<desc>Q7</desc>
</polygon>
<polygon fill="lime" stroke="white"
         stroke-width="1" stroke-linejoin="round"
         points="85.000,25.981 90.000,34.641 100.000,34.641 95.000,25.981 100.000,17.321 110.000,17.321 105.000,8.660 95.000,8.660">
<desc>C7</desc>
</polygon>
</g>
</svg>
