<?xml version="1.0" standalone="no"?>
<!-- Created by Polyform Puzzler (http://puzzler.sourceforge.net/) -->
<svg width="460.000" height="460.000"
     viewBox="0 0 460.000 460.000"
     xmlns="http://www.w3.org/2000/svg"
     xmlns:xlink="http://www.w3.org/1999/xlink">
<g transform="translate(230.000,115.000) rotate(30)">
<polygon fill="navy" stroke="white"
         stroke-width="1" stroke-linejoin="round"
         points="105.000,121.244 110.000,129.904 120.000,129.904 125.000,121.244 120.000,112.583 125.000,103.923 115.000,103.923 110.000,112.583 115.000,121.244">
<desc>S7</desc>
</polygon>
<polygon fill="peru" stroke="white"
         stroke-width="1" stroke-linejoin="round"
         points="90.000,112.583 95.000,121.244 115.000,121.244 110.000,112.583 115.000,103.923 105.000,103.923 100.000,112.583 95.000,103.923">
<desc>A7</desc>
</polygon>
<polygon fill="yellowgreen" stroke="white"
         stroke-width="1" stroke-linejoin="round"
         points="75.000,103.923 80.000,112.583 90.000,112.583 95.000,103.923 85.000,86.603 75.000,86.603 85.000,103.923">
<desc>J7</desc>
</polygon>
<polygon fill="tan" stroke="white"
         stroke-width="1" stroke-linejoin="round"
         points="95.000,103.923 100.000,112.583 110.000,95.263 100.000,77.942 95.000,86.603 100.000,95.263 90.000,95.263">
<desc>U7</desc>
</polygon>
<polygon fill="green" stroke="white"
         stroke-width="1" stroke-linejoin="round"
         points="60.000,95.263 65.000,103.923 85.000,103.923 75.000,86.603 65.000,86.603">
<desc>D7</desc>
</polygon>
<polygon fill="indigo" stroke="white"
         stroke-width="1" stroke-linejoin="round"
         points="105.000,103.923 125.000,103.923 120.000,95.263 125.000,86.603 120.000,77.942 115.000,86.603 105.000,86.603 110.000,95.263">
<desc>X7</desc>
</polygon>
<polygon fill="orangered" stroke="white"
         stroke-width="1" stroke-linejoin="round"
         points="150.000,95.263 155.000,103.923 160.000,95.263 150.000,77.942 145.000,86.603 140.000,77.942 135.000,86.603 140.000,95.263">
<desc>Z7</desc>
</polygon>
<polygon fill="steelblue" stroke="white"
         stroke-width="1" stroke-linejoin="round"
         points="155.000,103.923 165.000,103.923 170.000,95.263 155.000,69.282 150.000,77.942 160.000,95.263">
<desc>L7</desc>
</polygon>
<polygon fill="blueviolet" stroke="white"
         stroke-width="1" stroke-linejoin="round"
         points="85.000,86.603 90.000,95.263 100.000,95.263 95.000,86.603 100.000,77.942 95.000,69.282 90.000,77.942 80.000,77.942 75.000,86.603">
<desc>W7</desc>
</polygon>
<polygon fill="maroon" stroke="white"
         stroke-width="1" stroke-linejoin="round"
         points="100.000,77.942 105.000,86.603 115.000,69.282 110.000,60.622 105.000,69.282 100.000,60.622 90.000,60.622">
<desc>G7</desc>
</polygon>
<polygon fill="gold" stroke="white"
         stroke-width="1" stroke-linejoin="round"
         points="105.000,86.603 115.000,86.603 120.000,77.942 125.000,86.603 135.000,86.603 125.000,69.282 115.000,69.282">
<desc>V7</desc>
</polygon>
<polygon fill="olive" stroke="white"
         stroke-width="1" stroke-linejoin="round"
         points="130.000,77.942 135.000,86.603 140.000,77.942 130.000,60.622 110.000,60.622 115.000,69.282 125.000,69.282">
<desc>R7</desc>
</polygon>
<polygon fill="red" stroke="white"
         stroke-width="1" stroke-linejoin="round"
         points="140.000,77.942 145.000,86.603 155.000,69.282 145.000,69.282 150.000,60.622 130.000,60.622">
<desc>M7</desc>
</polygon>
<polygon fill="teal" stroke="white"
         stroke-width="1" stroke-linejoin="round"
         points="160.000,77.942 165.000,86.603 170.000,77.942 165.000,69.282 170.000,60.622 150.000,60.622 145.000,69.282 155.000,69.282">
<desc>T7</desc>
</polygon>
<polygon fill="blue" stroke="white"
         stroke-width="1" stroke-linejoin="round"
         points="100.000,60.622 105.000,69.282 125.000,34.641 115.000,34.641">
<desc>I7</desc>
</polygon>
<polygon fill="gray" stroke="white"
         stroke-width="1" stroke-linejoin="round"
         points="75.000,51.962 80.000,60.622 100.000,60.622 95.000,51.962 85.000,51.962 80.000,43.301 70.000,43.301 65.000,51.962">
<desc>N7</desc>
</polygon>
<polygon fill="plum" stroke="white"
         stroke-width="1" stroke-linejoin="round"
         points="95.000,51.962 100.000,60.622 110.000,43.301 105.000,34.641 100.000,43.301 95.000,34.641 85.000,51.962">
<desc>B7</desc>
</polygon>
<polygon fill="magenta" stroke="white"
         stroke-width="1" stroke-linejoin="round"
         points="110.000,60.622 140.000,60.622 145.000,51.962 125.000,51.962 120.000,43.301">
<desc>P7</desc>
</polygon>
<polygon fill="yellow" stroke="white"
         stroke-width="1" stroke-linejoin="round"
         points="140.000,60.622 150.000,60.622 160.000,43.301 155.000,34.641 150.000,43.301 140.000,43.301 135.000,51.962 145.000,51.962">
<desc>Y7</desc>
</polygon>
<polygon fill="lightcoral" stroke="white"
         stroke-width="1" stroke-linejoin="round"
         points="150.000,60.622 170.000,60.622 165.000,51.962 170.000,43.301 165.000,34.641 155.000,34.641 160.000,43.301">
<desc>Q7</desc>
</polygon>
<polygon fill="lime" stroke="white"
         stroke-width="1" stroke-linejoin="round"
         points="60.000,43.301 65.000,51.962 70.000,43.301 80.000,43.301 85.000,51.962 90.000,43.301 85.000,34.641 65.000,34.641">
<desc>C7</desc>
</polygon>
<polygon fill="darkseagreen" stroke="white"
         stroke-width="1" stroke-linejoin="round"
         points="85.000,34.641 90.000,43.301 95.000,34.641 100.000,43.301 105.000,34.641 100.000,25.981 80.000,25.981 75.000,34.641">
<desc>F7</desc>
</polygon>
<polygon fill="darkorange" stroke="white"
         stroke-width="1" stroke-linejoin="round"
         points="105.000,34.641 110.000,43.301 115.000,34.641 125.000,34.641 120.000,25.981 125.000,17.321 120.000,8.660">
<desc>E7</desc>
</polygon>
<polygon fill="turquoise" stroke="white"
         stroke-width="1" stroke-linejoin="round"
         points="100.000,25.981 105.000,34.641 120.000,8.660 110.000,8.660 105.000,17.321 95.000,17.321 90.000,25.981">
<desc>H7</desc>
</polygon>
</g>
</svg>
