<?xml version="1.0" standalone="no"?>
<!-- Created by Polyform Puzzler (http://puzzler.sourceforge.net/) -->
<svg width="200.0" height="155.884572681" viewBox="0 0 200.0 155.884572681"
     xmlns="http://www.w3.org/2000/svg"
     xmlns:xlink="http://www.w3.org/1999/xlink">
<g>
<polygon fill="blue" stroke="white"
         stroke-width="1" stroke-linejoin="round"
         points="85.000,138.564 90.000,147.224 100.000,147.224 80.000,112.583 75.000,121.244">
<desc>I7</desc>
</polygon>
<polygon fill="darkseagreen" stroke="white"
         stroke-width="1" stroke-linejoin="round"
         points="95.000,138.564 100.000,147.224 110.000,147.224 115.000,138.564 105.000,138.564 110.000,129.904 100.000,129.904 95.000,121.244 90.000,129.904">
<desc>F7</desc>
</polygon>
<polygon fill="yellow" stroke="white"
         stroke-width="1" stroke-linejoin="round"
         points="105.000,138.564 115.000,138.564 125.000,121.244 120.000,112.583 115.000,121.244 105.000,121.244 100.000,129.904 110.000,129.904">
<desc>Y7</desc>
</polygon>
<polygon fill="orangered" stroke="white"
         stroke-width="1" stroke-linejoin="round"
         points="85.000,121.244 90.000,129.904 95.000,121.244 100.000,129.904 105.000,121.244 100.000,112.583 90.000,112.583 85.000,103.923 80.000,112.583">
<desc>Z7</desc>
</polygon>
<polygon fill="indigo" stroke="white"
         stroke-width="1" stroke-linejoin="round"
         points="100.000,112.583 105.000,121.244 110.000,112.583 105.000,103.923 110.000,95.263 90.000,95.263 95.000,103.923 90.000,112.583">
<desc>X7</desc>
</polygon>
<polygon fill="navy" stroke="white"
         stroke-width="1" stroke-linejoin="round"
         points="105.000,121.244 115.000,121.244 120.000,112.583 115.000,103.923 125.000,103.923 120.000,95.263 110.000,95.263 105.000,103.923 110.000,112.583">
<desc>S7</desc>
</polygon>
<polygon fill="teal" stroke="white"
         stroke-width="1" stroke-linejoin="round"
         points="85.000,103.923 90.000,112.583 95.000,103.923 85.000,86.603 80.000,95.263 70.000,95.263 65.000,103.923">
<desc>T7</desc>
</polygon>
<polygon fill="red" stroke="white"
         stroke-width="1" stroke-linejoin="round"
         points="60.000,95.263 65.000,103.923 75.000,86.603 65.000,86.603 70.000,77.942 50.000,77.942">
<desc>M7</desc>
</polygon>
<polygon fill="steelblue" stroke="white"
         stroke-width="1" stroke-linejoin="round"
         points="120.000,95.263 125.000,103.923 135.000,103.923 150.000,77.942 140.000,77.942 130.000,95.263">
<desc>L7</desc>
</polygon>
<polygon fill="tan" stroke="white"
         stroke-width="1" stroke-linejoin="round"
         points="70.000,95.263 80.000,95.263 85.000,86.603 90.000,95.263 100.000,77.942 80.000,77.942">
<desc>U7</desc>
</polygon>
<polygon fill="olive" stroke="white"
         stroke-width="1" stroke-linejoin="round"
         points="105.000,86.603 110.000,95.263 120.000,95.263 110.000,77.942 115.000,69.282 110.000,60.622 100.000,77.942">
<desc>R7</desc>
</polygon>
<polygon fill="gold" stroke="white"
         stroke-width="1" stroke-linejoin="round"
         points="115.000,86.603 120.000,95.263 130.000,95.263 140.000,77.942 130.000,77.942 125.000,86.603 120.000,77.942 110.000,77.942">
<desc>V7</desc>
</polygon>
<polygon fill="blueviolet" stroke="white"
         stroke-width="1" stroke-linejoin="round"
         points="65.000,86.603 75.000,86.603 80.000,77.942 90.000,77.942 85.000,69.282 75.000,69.282 70.000,60.622 65.000,69.282 70.000,77.942">
<desc>W7</desc>
</polygon>
<polygon fill="lightcoral" stroke="white"
         stroke-width="1" stroke-linejoin="round"
         points="120.000,77.942 125.000,86.603 130.000,77.942 150.000,77.942 140.000,60.622 135.000,69.282 125.000,69.282">
<desc>Q7</desc>
</polygon>
<polygon fill="magenta" stroke="white"
         stroke-width="1" stroke-linejoin="round"
         points="50.000,77.942 70.000,77.942 65.000,69.282 75.000,51.962 65.000,51.962">
<desc>P7</desc>
</polygon>
<polygon fill="gray" stroke="white"
         stroke-width="1" stroke-linejoin="round"
         points="85.000,69.282 90.000,77.942 100.000,77.942 90.000,60.622 80.000,60.622 75.000,51.962 70.000,60.622 75.000,69.282">
<desc>N7</desc>
</polygon>
<polygon fill="lime" stroke="white"
         stroke-width="1" stroke-linejoin="round"
         points="110.000,77.942 120.000,77.942 125.000,69.282 115.000,51.962 105.000,51.962 100.000,60.622 110.000,60.622 115.000,69.282">
<desc>C7</desc>
</polygon>
<polygon fill="green" stroke="white"
         stroke-width="1" stroke-linejoin="round"
         points="120.000,60.622 125.000,69.282 135.000,69.282 140.000,60.622 135.000,51.962 115.000,51.962">
<desc>D7</desc>
</polygon>
<polygon fill="yellowgreen" stroke="white"
         stroke-width="1" stroke-linejoin="round"
         points="75.000,51.962 80.000,60.622 90.000,60.622 95.000,51.962 85.000,34.641 75.000,34.641 85.000,51.962">
<desc>J7</desc>
</polygon>
<polygon fill="turquoise" stroke="white"
         stroke-width="1" stroke-linejoin="round"
         points="90.000,60.622 100.000,60.622 105.000,51.962 115.000,51.962 120.000,43.301 90.000,43.301 95.000,51.962">
<desc>H7</desc>
</polygon>
<polygon fill="plum" stroke="white"
         stroke-width="1" stroke-linejoin="round"
         points="85.000,34.641 90.000,43.301 100.000,25.981 95.000,17.321 90.000,25.981 85.000,17.321 75.000,34.641">
<desc>B7</desc>
</polygon>
<polygon fill="maroon" stroke="white"
         stroke-width="1" stroke-linejoin="round"
         points="90.000,43.301 120.000,43.301 115.000,34.641 105.000,34.641 110.000,25.981 100.000,25.981">
<desc>G7</desc>
</polygon>
<polygon fill="darkorange" stroke="white"
         stroke-width="1" stroke-linejoin="round"
         points="115.000,34.641 120.000,43.301 125.000,34.641 110.000,8.660 105.000,17.321 110.000,25.981 105.000,34.641">
<desc>E7</desc>
</polygon>
<polygon fill="peru" stroke="white"
         stroke-width="1" stroke-linejoin="round"
         points="85.000,17.321 90.000,25.981 95.000,17.321 100.000,25.981 110.000,25.981 105.000,17.321 110.000,8.660 90.000,8.660">
<desc>A7</desc>
</polygon>
</g>
</svg>
