<?xml version="1.0" standalone="no"?>
<!-- Created by Polyform Puzzler (http://puzzler.sourceforge.net/) -->
<svg width="215.0" height="129.903810568" viewBox="0 0 215.0 129.903810568"
     xmlns="http://www.w3.org/2000/svg"
     xmlns:xlink="http://www.w3.org/1999/xlink">
<g>
<polygon fill="peru" stroke="white"
         stroke-width="1" stroke-linejoin="round"
         points="15.000,112.583 20.000,121.244 30.000,121.244 25.000,112.583 35.000,112.583 40.000,103.923 30.000,103.923 25.000,95.263">
<desc>A7</desc>
</polygon>
<polygon fill="lime" stroke="white"
         stroke-width="1" stroke-linejoin="round"
         points="25.000,112.583 30.000,121.244 40.000,121.244 50.000,103.923 45.000,95.263 35.000,95.263 40.000,103.923 35.000,112.583">
<desc>C7</desc>
</polygon>
<polygon fill="green" stroke="white"
         stroke-width="1" stroke-linejoin="round"
         points="40.000,121.244 60.000,121.244 65.000,112.583 60.000,103.923 50.000,103.923">
<desc>D7</desc>
</polygon>
<polygon fill="blue" stroke="white"
         stroke-width="1" stroke-linejoin="round"
         points="60.000,121.244 100.000,121.244 95.000,112.583 65.000,112.583">
<desc>I7</desc>
</polygon>
<polygon fill="plum" stroke="white"
         stroke-width="1" stroke-linejoin="round"
         points="95.000,112.583 100.000,121.244 120.000,121.244 115.000,112.583 120.000,103.923 100.000,103.923 105.000,112.583">
<desc>B7</desc>
</polygon>
<polygon fill="yellowgreen" stroke="white"
         stroke-width="1" stroke-linejoin="round"
         points="115.000,112.583 120.000,121.244 140.000,121.244 145.000,112.583 140.000,103.923 130.000,103.923 135.000,112.583">
<desc>J7</desc>
</polygon>
<polygon fill="darkorange" stroke="white"
         stroke-width="1" stroke-linejoin="round"
         points="60.000,103.923 65.000,112.583 70.000,103.923 80.000,103.923 85.000,95.263 55.000,95.263 50.000,103.923">
<desc>E7</desc>
</polygon>
<polygon fill="turquoise" stroke="white"
         stroke-width="1" stroke-linejoin="round"
         points="65.000,112.583 95.000,112.583 90.000,103.923 95.000,95.263 85.000,95.263 80.000,103.923 70.000,103.923">
<desc>H7</desc>
</polygon>
<polygon fill="navy" stroke="white"
         stroke-width="1" stroke-linejoin="round"
         points="90.000,103.923 95.000,112.583 105.000,112.583 100.000,103.923 110.000,103.923 115.000,95.263 110.000,86.603 105.000,95.263 95.000,95.263">
<desc>S7</desc>
</polygon>
<polygon fill="red" stroke="white"
         stroke-width="1" stroke-linejoin="round"
         points="115.000,112.583 135.000,112.583 130.000,103.923 140.000,103.923 130.000,86.603">
<desc>M7</desc>
</polygon>
<polygon fill="darkseagreen" stroke="white"
         stroke-width="1" stroke-linejoin="round"
         points="25.000,95.263 30.000,103.923 40.000,103.923 35.000,95.263 45.000,95.263 40.000,86.603 45.000,77.942 35.000,77.942">
<desc>F7</desc>
</polygon>
<polygon fill="maroon" stroke="white"
         stroke-width="1" stroke-linejoin="round"
         points="45.000,95.263 50.000,103.923 65.000,77.942 55.000,77.942 50.000,86.603 45.000,77.942 40.000,86.603">
<desc>G7</desc>
</polygon>
<polygon fill="olive" stroke="white"
         stroke-width="1" stroke-linejoin="round"
         points="110.000,103.923 120.000,103.923 130.000,86.603 120.000,69.282 115.000,77.942 120.000,86.603">
<desc>R7</desc>
</polygon>
<polygon fill="yellow" stroke="white"
         stroke-width="1" stroke-linejoin="round"
         points="100.000,86.603 105.000,95.263 110.000,86.603 115.000,95.263 120.000,86.603 115.000,77.942 120.000,69.282 110.000,69.282">
<desc>Y7</desc>
</polygon>
<polygon fill="indigo" stroke="white"
         stroke-width="1" stroke-linejoin="round"
         points="45.000,77.942 50.000,86.603 55.000,77.942 65.000,77.942 60.000,69.282 50.000,69.282 45.000,60.622 35.000,77.942">
<desc>X7</desc>
</polygon>
<polygon fill="lightcoral" stroke="white"
         stroke-width="1" stroke-linejoin="round"
         points="95.000,77.942 100.000,86.603 110.000,69.282 120.000,69.282 115.000,60.622 105.000,60.622 100.000,69.282 90.000,69.282">
<desc>Q7</desc>
</polygon>
<polygon fill="teal" stroke="white"
         stroke-width="1" stroke-linejoin="round"
         points="60.000,69.282 65.000,77.942 75.000,60.622 70.000,51.962 65.000,60.622 45.000,60.622 50.000,69.282">
<desc>T7</desc>
</polygon>
<polygon fill="orangered" stroke="white"
         stroke-width="1" stroke-linejoin="round"
         points="85.000,60.622 90.000,69.282 100.000,69.282 105.000,60.622 115.000,60.622 110.000,51.962 90.000,51.962 95.000,60.622">
<desc>Z7</desc>
</polygon>
<polygon fill="steelblue" stroke="white"
         stroke-width="1" stroke-linejoin="round"
         points="45.000,60.622 55.000,60.622 65.000,43.301 75.000,43.301 70.000,34.641 60.000,34.641">
<desc>L7</desc>
</polygon>
<polygon fill="tan" stroke="white"
         stroke-width="1" stroke-linejoin="round"
         points="55.000,60.622 65.000,60.622 70.000,51.962 75.000,60.622 85.000,43.301 65.000,43.301">
<desc>U7</desc>
</polygon>
<polygon fill="gray" stroke="white"
         stroke-width="1" stroke-linejoin="round"
         points="80.000,51.962 85.000,60.622 95.000,60.622 90.000,51.962 95.000,43.301 85.000,25.981 80.000,34.641 85.000,43.301">
<desc>N7</desc>
</polygon>
<polygon fill="magenta" stroke="white"
         stroke-width="1" stroke-linejoin="round"
         points="90.000,51.962 110.000,51.962 95.000,25.981 85.000,25.981 95.000,43.301">
<desc>P7</desc>
</polygon>
<polygon fill="blueviolet" stroke="white"
         stroke-width="1" stroke-linejoin="round"
         points="70.000,34.641 75.000,43.301 85.000,43.301 80.000,34.641 85.000,25.981 80.000,17.321 75.000,25.981 65.000,25.981 60.000,34.641">
<desc>W7</desc>
</polygon>
<polygon fill="gold" stroke="white"
         stroke-width="1" stroke-linejoin="round"
         points="65.000,25.981 75.000,25.981 80.000,17.321 85.000,25.981 95.000,25.981 85.000,8.660 75.000,8.660">
<desc>V7</desc>
</polygon>
</g>
</svg>
