<?xml version="1.0" standalone="no"?>
<!-- Created by Polyform Puzzler (http://puzzler.sourceforge.net/) -->
<svg width="110.000" height="69.282"
     viewBox="0 0 110.000 69.282"
     xmlns="http://www.w3.org/2000/svg"
     xmlns:xlink="http://www.w3.org/1999/xlink">
<g>
<polygon fill="darkorange" stroke="white"
         stroke-width="1" stroke-linejoin="round"
         points="35.000,51.962 40.000,60.622 50.000,60.622 45.000,51.962 50.000,43.301 40.000,43.301 35.000,34.641 30.000,43.301">
<desc>E6</desc>
</polygon>
<polygon fill="green" stroke="white"
         stroke-width="1" stroke-linejoin="round"
         points="45.000,51.962 50.000,60.622 60.000,60.622 65.000,51.962 60.000,43.301 50.000,43.301">
<desc>O6</desc>
</polygon>
<polygon fill="navy" stroke="white"
         stroke-width="1" stroke-linejoin="round"
         points="60.000,60.622 70.000,60.622 75.000,51.962 70.000,43.301 75.000,34.641 65.000,34.641 60.000,43.301 65.000,51.962">
<desc>S6</desc>
</polygon>
<polygon fill="blueviolet" stroke="white"
         stroke-width="1" stroke-linejoin="round"
         points="70.000,43.301 75.000,51.962 85.000,34.641 75.000,17.321 70.000,25.981 75.000,34.641">
<desc>C6</desc>
</polygon>
<polygon fill="plum" stroke="white"
         stroke-width="1" stroke-linejoin="round"
         points="25.000,34.641 30.000,43.301 35.000,34.641 40.000,43.301 50.000,25.981 30.000,25.981">
<desc>F6</desc>
</polygon>
<polygon fill="gold" stroke="white"
         stroke-width="1" stroke-linejoin="round"
         points="40.000,43.301 60.000,43.301 65.000,34.641 55.000,34.641 60.000,25.981 50.000,25.981">
<desc>V6</desc>
</polygon>
<polygon fill="red" stroke="white"
         stroke-width="1" stroke-linejoin="round"
         points="55.000,34.641 75.000,34.641 70.000,25.981 75.000,17.321 55.000,17.321 60.000,25.981">
<desc>X6</desc>
</polygon>
<polygon fill="magenta" stroke="white"
         stroke-width="1" stroke-linejoin="round"
         points="30.000,25.981 60.000,25.981 55.000,17.321 45.000,17.321 40.000,8.660">
<desc>P6</desc>
</polygon>
<polygon fill="blue" stroke="white"
         stroke-width="1" stroke-linejoin="round"
         points="40.000,8.660 45.000,17.321 75.000,17.321 70.000,8.660">
<desc>I6</desc>
</polygon>
</g>
</svg>
