<?xml version="1.0" standalone="no"?>
<!-- Created by Polyform Puzzler (http://puzzler.sourceforge.net/) -->
<svg width="155.000" height="95.263"
     viewBox="0 0 155.000 95.263"
     xmlns="http://www.w3.org/2000/svg"
     xmlns:xlink="http://www.w3.org/1999/xlink">
<g>
<polygon fill="magenta" stroke="white"
         stroke-width="1" stroke-linejoin="round"
         points="75.000,77.942 80.000,86.603 95.000,60.622 75.000,60.622 80.000,69.282">
<desc>P6</desc>
</polygon>
<polygon fill="darkorange" stroke="white"
         stroke-width="1" stroke-linejoin="round"
         points="70.000,69.282 75.000,77.942 80.000,69.282 70.000,51.962 60.000,51.962 65.000,60.622 60.000,69.282">
<desc>E6</desc>
</polygon>
<polygon fill="green" stroke="white"
         stroke-width="1" stroke-linejoin="round"
         points="45.000,60.622 50.000,69.282 60.000,69.282 65.000,60.622 60.000,51.962 50.000,51.962">
<desc>O6</desc>
</polygon>
<polygon fill="maroon" stroke="white"
         stroke-width="1" stroke-linejoin="round"
         points="90.000,69.282 110.000,69.282 115.000,60.622 110.000,51.962 100.000,51.962 105.000,60.622 95.000,60.622">
<desc>G6</desc>
</polygon>
<polygon fill="plum" stroke="white"
         stroke-width="1" stroke-linejoin="round"
         points="70.000,51.962 75.000,60.622 95.000,60.622 85.000,43.301 80.000,51.962 75.000,43.301">
<desc>F6</desc>
</polygon>
<polygon fill="gold" stroke="white"
         stroke-width="1" stroke-linejoin="round"
         points="90.000,51.962 95.000,60.622 105.000,60.622 100.000,51.962 110.000,51.962 105.000,43.301 85.000,43.301">
<desc>V6</desc>
</polygon>
<polygon fill="red" stroke="white"
         stroke-width="1" stroke-linejoin="round"
         points="50.000,51.962 70.000,51.962 65.000,43.301 70.000,34.641 50.000,34.641 55.000,43.301">
<desc>X6</desc>
</polygon>
<polygon fill="navy" stroke="white"
         stroke-width="1" stroke-linejoin="round"
         points="65.000,43.301 70.000,51.962 75.000,43.301 85.000,43.301 90.000,34.641 85.000,25.981 80.000,34.641 70.000,34.641">
<desc>S6</desc>
</polygon>
<polygon fill="blueviolet" stroke="white"
         stroke-width="1" stroke-linejoin="round"
         points="85.000,43.301 105.000,43.301 115.000,25.981 105.000,25.981 100.000,34.641 90.000,34.641">
<desc>C6</desc>
</polygon>
<polygon fill="blue" stroke="white"
         stroke-width="1" stroke-linejoin="round"
         points="45.000,25.981 50.000,34.641 80.000,34.641 75.000,25.981">
<desc>I6</desc>
</polygon>
<polygon fill="turquoise" stroke="white"
         stroke-width="1" stroke-linejoin="round"
         points="75.000,25.981 80.000,34.641 85.000,25.981 80.000,17.321 85.000,8.660 75.000,8.660 65.000,25.981">
<desc>H6</desc>
</polygon>
<polygon fill="lime" stroke="white"
         stroke-width="1" stroke-linejoin="round"
         points="85.000,25.981 90.000,34.641 100.000,34.641 105.000,25.981 95.000,25.981 85.000,8.660 80.000,17.321">
<desc>J6</desc>
</polygon>
</g>
</svg>
