<?xml version="1.0" standalone="no"?>
<!-- Created by Polyform Puzzler (http://puzzler.sourceforge.net/) -->
<svg width="170.000" height="103.923"
     viewBox="0 0 170.000 103.923"
     xmlns="http://www.w3.org/2000/svg"
     xmlns:xlink="http://www.w3.org/1999/xlink">
<g>
<polygon fill="lime" stroke="white"
         stroke-width="1" stroke-linejoin="round"
         points="15.000,86.603 20.000,95.263 40.000,95.263 45.000,86.603 40.000,77.942 35.000,86.603">
<desc>J6</desc>
</polygon>
<polygon fill="green" stroke="white"
         stroke-width="1" stroke-linejoin="round"
         points="45.000,86.603 50.000,95.263 60.000,95.263 65.000,86.603 60.000,77.942 50.000,77.942">
<desc>O6</desc>
</polygon>
<polygon fill="blueviolet" stroke="white"
         stroke-width="1" stroke-linejoin="round"
         points="65.000,86.603 70.000,95.263 90.000,95.263 85.000,86.603 75.000,86.603 70.000,77.942 60.000,77.942">
<desc>C6</desc>
</polygon>
<polygon fill="turquoise" stroke="white"
         stroke-width="1" stroke-linejoin="round"
         points="85.000,86.603 90.000,95.263 95.000,86.603 85.000,69.282 80.000,77.942 70.000,77.942 75.000,86.603">
<desc>H6</desc>
</polygon>
<polygon fill="gold" stroke="white"
         stroke-width="1" stroke-linejoin="round"
         points="15.000,86.603 35.000,86.603 40.000,77.942 30.000,77.942 35.000,69.282 25.000,69.282">
<desc>V6</desc>
</polygon>
<polygon fill="red" stroke="white"
         stroke-width="1" stroke-linejoin="round"
         points="40.000,77.942 45.000,86.603 55.000,69.282 45.000,69.282 40.000,60.622 30.000,77.942">
<desc>X6</desc>
</polygon>
<polygon fill="blue" stroke="white"
         stroke-width="1" stroke-linejoin="round"
         points="50.000,77.942 80.000,77.942 85.000,69.282 55.000,69.282">
<desc>I6</desc>
</polygon>
<polygon fill="plum" stroke="white"
         stroke-width="1" stroke-linejoin="round"
         points="30.000,60.622 35.000,69.282 40.000,60.622 45.000,69.282 55.000,51.962 35.000,51.962">
<desc>F6</desc>
</polygon>
<polygon fill="magenta" stroke="white"
         stroke-width="1" stroke-linejoin="round"
         points="45.000,69.282 75.000,69.282 70.000,60.622 60.000,60.622 55.000,51.962">
<desc>P6</desc>
</polygon>
<polygon fill="navy" stroke="white"
         stroke-width="1" stroke-linejoin="round"
         points="70.000,60.622 75.000,69.282 80.000,60.622 75.000,51.962 65.000,51.962 60.000,43.301 55.000,51.962 60.000,60.622">
<desc>S6</desc>
</polygon>
<polygon fill="maroon" stroke="white"
         stroke-width="1" stroke-linejoin="round"
         points="40.000,43.301 45.000,51.962 55.000,51.962 60.000,43.301 50.000,43.301 55.000,34.641 50.000,25.981">
<desc>G6</desc>
</polygon>
<polygon fill="darkorange" stroke="white"
         stroke-width="1" stroke-linejoin="round"
         points="60.000,43.301 65.000,51.962 70.000,43.301 60.000,25.981 50.000,25.981 55.000,34.641 50.000,43.301">
<desc>E6</desc>
</polygon>
</g>
</svg>
