<?xml version="1.0" standalone="no"?>
<!-- Created by Polyform Puzzler (http://puzzler.sourceforge.net/) -->
<svg width="190.000" height="103.923"
     viewBox="0 0 190.000 103.923"
     xmlns="http://www.w3.org/2000/svg"
     xmlns:xlink="http://www.w3.org/1999/xlink">
<g>
<polygon fill="navy" stroke="white"
         stroke-width="1" stroke-linejoin="round"
         points="35.000,86.603 40.000,95.263 50.000,95.263 45.000,86.603 50.000,77.942 45.000,69.282 35.000,69.282 40.000,77.942">
<desc>S6</desc>
</polygon>
<polygon fill="darkorange" stroke="white"
         stroke-width="1" stroke-linejoin="round"
         points="45.000,86.603 50.000,95.263 55.000,86.603 65.000,86.603 60.000,77.942 65.000,69.282 55.000,69.282">
<desc>E6</desc>
</polygon>
<polygon fill="magenta" stroke="white"
         stroke-width="1" stroke-linejoin="round"
         points="95.000,86.603 100.000,95.263 110.000,95.263 95.000,69.282 85.000,86.603">
<desc>P6</desc>
</polygon>
<polygon fill="blueviolet" stroke="white"
         stroke-width="1" stroke-linejoin="round"
         points="105.000,86.603 110.000,95.263 115.000,86.603 110.000,77.942 115.000,69.282 110.000,60.622 100.000,77.942">
<desc>C6</desc>
</polygon>
<polygon fill="lime" stroke="white"
         stroke-width="1" stroke-linejoin="round"
         points="60.000,77.942 65.000,86.603 85.000,86.603 90.000,77.942 70.000,77.942 65.000,69.282">
<desc>J6</desc>
</polygon>
<polygon fill="turquoise" stroke="white"
         stroke-width="1" stroke-linejoin="round"
         points="45.000,69.282 50.000,77.942 60.000,60.622 55.000,51.962 50.000,60.622 40.000,60.622 35.000,69.282">
<desc>H6</desc>
</polygon>
<polygon fill="gold" stroke="white"
         stroke-width="1" stroke-linejoin="round"
         points="65.000,69.282 70.000,77.942 90.000,77.942 80.000,60.622 70.000,60.622 75.000,69.282">
<desc>V6</desc>
</polygon>
<polygon fill="plum" stroke="white"
         stroke-width="1" stroke-linejoin="round"
         points="85.000,69.282 90.000,77.942 95.000,69.282 100.000,77.942 105.000,69.282 100.000,60.622 80.000,60.622">
<desc>F6</desc>
</polygon>
<polygon fill="red" stroke="white"
         stroke-width="1" stroke-linejoin="round"
         points="55.000,69.282 75.000,69.282 70.000,60.622 75.000,51.962 55.000,51.962 60.000,60.622">
<desc>X6</desc>
</polygon>
<polygon fill="maroon" stroke="white"
         stroke-width="1" stroke-linejoin="round"
         points="100.000,60.622 105.000,69.282 115.000,51.962 110.000,43.301 100.000,43.301 95.000,51.962 105.000,51.962">
<desc>G6</desc>
</polygon>
<polygon fill="green" stroke="white"
         stroke-width="1" stroke-linejoin="round"
         points="35.000,51.962 40.000,60.622 50.000,60.622 55.000,51.962 50.000,43.301 40.000,43.301">
<desc>O6</desc>
</polygon>
<polygon fill="blue" stroke="white"
         stroke-width="1" stroke-linejoin="round"
         points="70.000,60.622 100.000,60.622 105.000,51.962 75.000,51.962">
<desc>I6</desc>
</polygon>
</g>
</svg>
