<?xml version="1.0" standalone="no"?>
<!-- Created by Polyform Puzzler (http://puzzler.sourceforge.net/) -->
<svg width="125.000" height="77.942"
     viewBox="0 0 125.000 77.942"
     xmlns="http://www.w3.org/2000/svg"
     xmlns:xlink="http://www.w3.org/1999/xlink">
<g>
<polygon fill="green" stroke="white"
         stroke-width="1" stroke-linejoin="round"
         points="35.000,60.622 40.000,69.282 50.000,69.282 55.000,60.622 50.000,51.962 40.000,51.962">
<desc>O6</desc>
</polygon>
<polygon fill="turquoise" stroke="white"
         stroke-width="1" stroke-linejoin="round"
         points="50.000,69.282 60.000,69.282 65.000,60.622 75.000,60.622 70.000,51.962 50.000,51.962 55.000,60.622">
<desc>H6</desc>
</polygon>
<polygon fill="maroon" stroke="white"
         stroke-width="1" stroke-linejoin="round"
         points="60.000,69.282 80.000,69.282 85.000,60.622 80.000,51.962 70.000,51.962 75.000,60.622 65.000,60.622">
<desc>G6</desc>
</polygon>
<polygon fill="blueviolet" stroke="white"
         stroke-width="1" stroke-linejoin="round"
         points="30.000,51.962 35.000,60.622 40.000,51.962 35.000,43.301 40.000,34.641 35.000,25.981 25.000,43.301">
<desc>C6</desc>
</polygon>
<polygon fill="gold" stroke="white"
         stroke-width="1" stroke-linejoin="round"
         points="80.000,51.962 85.000,60.622 95.000,43.301 90.000,34.641 85.000,43.301 80.000,34.641 75.000,43.301">
<desc>V6</desc>
</polygon>
<polygon fill="darkorange" stroke="white"
         stroke-width="1" stroke-linejoin="round"
         points="35.000,43.301 40.000,51.962 60.000,51.962 65.000,43.301 55.000,43.301 50.000,34.641 45.000,43.301">
<desc>E6</desc>
</polygon>
<polygon fill="red" stroke="white"
         stroke-width="1" stroke-linejoin="round"
         points="60.000,51.962 80.000,51.962 75.000,43.301 80.000,34.641 60.000,34.641 65.000,43.301">
<desc>X6</desc>
</polygon>
<polygon fill="navy" stroke="white"
         stroke-width="1" stroke-linejoin="round"
         points="35.000,43.301 45.000,43.301 50.000,34.641 45.000,25.981 50.000,17.321 40.000,17.321 35.000,25.981 40.000,34.641">
<desc>S6</desc>
</polygon>
<polygon fill="plum" stroke="white"
         stroke-width="1" stroke-linejoin="round"
         points="50.000,34.641 55.000,43.301 65.000,25.981 55.000,25.981 60.000,17.321 50.000,17.321 45.000,25.981">
<desc>F6</desc>
</polygon>
<polygon fill="lime" stroke="white"
         stroke-width="1" stroke-linejoin="round"
         points="80.000,34.641 85.000,43.301 90.000,34.641 85.000,25.981 65.000,25.981 60.000,34.641">
<desc>J6</desc>
</polygon>
<polygon fill="magenta" stroke="white"
         stroke-width="1" stroke-linejoin="round"
         points="55.000,25.981 85.000,25.981 75.000,8.660 70.000,17.321 60.000,17.321">
<desc>P6</desc>
</polygon>
<polygon fill="blue" stroke="white"
         stroke-width="1" stroke-linejoin="round"
         points="40.000,17.321 70.000,17.321 75.000,8.660 45.000,8.660">
<desc>I6</desc>
</polygon>
</g>
</svg>
