<?xml version="1.0" standalone="no"?>
<!-- Created by Polyform Puzzler (http://puzzler.sourceforge.net/) -->
<svg width="260.000" height="260.000"
     viewBox="0 0 260.000 260.000"
     xmlns="http://www.w3.org/2000/svg"
     xmlns:xlink="http://www.w3.org/1999/xlink">
<g transform="translate(130.000,65.000) rotate(-90)">
<polygon fill="green" stroke="white"
         stroke-width="1" stroke-linejoin="round"
         points="45.000,69.282 50.000,77.942 60.000,77.942 65.000,69.282 60.000,60.622 50.000,60.622">
<desc>O6</desc>
</polygon>
<polygon fill="blueviolet" stroke="white"
         stroke-width="1" stroke-linejoin="round"
         points="60.000,77.942 80.000,77.942 90.000,60.622 80.000,60.622 75.000,69.282 65.000,69.282">
<desc>C6</desc>
</polygon>
<polygon fill="darkorange" stroke="white"
         stroke-width="1" stroke-linejoin="round"
         points="40.000,60.622 45.000,69.282 50.000,60.622 60.000,60.622 55.000,51.962 60.000,43.301 50.000,43.301">
<desc>E6</desc>
</polygon>
<polygon fill="plum" stroke="white"
         stroke-width="1" stroke-linejoin="round"
         points="60.000,60.622 65.000,69.282 75.000,69.282 80.000,60.622 70.000,60.622 75.000,51.962 55.000,51.962">
<desc>F6</desc>
</polygon>
<polygon fill="gold" stroke="white"
         stroke-width="1" stroke-linejoin="round"
         points="35.000,51.962 40.000,60.622 50.000,43.301 45.000,34.641 40.000,43.301 35.000,34.641 30.000,43.301">
<desc>V6</desc>
</polygon>
<polygon fill="magenta" stroke="white"
         stroke-width="1" stroke-linejoin="round"
         points="70.000,60.622 90.000,60.622 75.000,34.641 70.000,43.301 75.000,51.962">
<desc>P6</desc>
</polygon>
<polygon fill="red" stroke="white"
         stroke-width="1" stroke-linejoin="round"
         points="55.000,51.962 75.000,51.962 70.000,43.301 75.000,34.641 55.000,34.641 60.000,43.301">
<desc>X6</desc>
</polygon>
<polygon fill="maroon" stroke="white"
         stroke-width="1" stroke-linejoin="round"
         points="35.000,34.641 40.000,43.301 45.000,34.641 50.000,43.301 60.000,43.301 50.000,25.981 40.000,25.981">
<desc>G6</desc>
</polygon>
<polygon fill="turquoise" stroke="white"
         stroke-width="1" stroke-linejoin="round"
         points="75.000,34.641 80.000,43.301 90.000,25.981 85.000,17.321 80.000,25.981 70.000,25.981 65.000,34.641">
<desc>H6</desc>
</polygon>
<polygon fill="navy" stroke="white"
         stroke-width="1" stroke-linejoin="round"
         points="50.000,25.981 55.000,34.641 65.000,34.641 70.000,25.981 60.000,25.981 55.000,17.321 45.000,17.321 40.000,25.981">
<desc>S6</desc>
</polygon>
<polygon fill="lime" stroke="white"
         stroke-width="1" stroke-linejoin="round"
         points="55.000,17.321 60.000,25.981 80.000,25.981 85.000,17.321 80.000,8.660 75.000,17.321">
<desc>J6</desc>
</polygon>
<polygon fill="blue" stroke="white"
         stroke-width="1" stroke-linejoin="round"
         points="45.000,17.321 75.000,17.321 80.000,8.660 50.000,8.660">
<desc>I6</desc>
</polygon>
</g>
</svg>
