<?xml version="1.0" standalone="no"?>
<!-- Created by Polyform Puzzler (http://puzzler.sourceforge.net/) -->
<svg width="280.000" height="280.000"
     viewBox="0 0 280.000 280.000"
     xmlns="http://www.w3.org/2000/svg"
     xmlns:xlink="http://www.w3.org/1999/xlink">
<g transform="translate(140.000,70.000) rotate(30)">
<polygon fill="green" stroke="white"
         stroke-width="1" stroke-linejoin="round"
         points="35.000,69.282 40.000,77.942 50.000,77.942 55.000,69.282 50.000,60.622 40.000,60.622">
<desc>O6</desc>
</polygon>
<polygon fill="turquoise" stroke="white"
         stroke-width="1" stroke-linejoin="round"
         points="50.000,77.942 60.000,77.942 70.000,60.622 60.000,60.622 55.000,51.962 50.000,60.622 55.000,69.282">
<desc>H6</desc>
</polygon>
<polygon fill="blueviolet" stroke="white"
         stroke-width="1" stroke-linejoin="round"
         points="30.000,60.622 35.000,69.282 40.000,60.622 35.000,51.962 40.000,43.301 35.000,34.641 25.000,51.962">
<desc>C6</desc>
</polygon>
<polygon fill="navy" stroke="white"
         stroke-width="1" stroke-linejoin="round"
         points="35.000,51.962 40.000,60.622 50.000,60.622 45.000,51.962 50.000,43.301 45.000,34.641 35.000,34.641 40.000,43.301">
<desc>S6</desc>
</polygon>
<polygon fill="plum" stroke="white"
         stroke-width="1" stroke-linejoin="round"
         points="55.000,51.962 60.000,60.622 70.000,60.622 80.000,43.301 60.000,43.301 65.000,51.962">
<desc>F6</desc>
</polygon>
<polygon fill="red" stroke="white"
         stroke-width="1" stroke-linejoin="round"
         points="45.000,51.962 65.000,51.962 60.000,43.301 65.000,34.641 45.000,34.641 50.000,43.301">
<desc>X6</desc>
</polygon>
<polygon fill="blue" stroke="white"
         stroke-width="1" stroke-linejoin="round"
         points="75.000,51.962 105.000,51.962 110.000,43.301 80.000,43.301">
<desc>I6</desc>
</polygon>
<polygon fill="magenta" stroke="white"
         stroke-width="1" stroke-linejoin="round"
         points="60.000,43.301 90.000,43.301 80.000,25.981 75.000,34.641 65.000,34.641">
<desc>P6</desc>
</polygon>
<polygon fill="gold" stroke="white"
         stroke-width="1" stroke-linejoin="round"
         points="85.000,34.641 90.000,43.301 110.000,43.301 100.000,25.981 90.000,25.981 95.000,34.641">
<desc>V6</desc>
</polygon>
<polygon fill="lime" stroke="white"
         stroke-width="1" stroke-linejoin="round"
         points="105.000,34.641 110.000,43.301 115.000,34.641 105.000,17.321 95.000,17.321 90.000,25.981 100.000,25.981">
<desc>J6</desc>
</polygon>
<polygon fill="maroon" stroke="white"
         stroke-width="1" stroke-linejoin="round"
         points="65.000,34.641 75.000,34.641 80.000,25.981 85.000,34.641 90.000,25.981 85.000,17.321 75.000,17.321">
<desc>G6</desc>
</polygon>
<polygon fill="darkorange" stroke="white"
         stroke-width="1" stroke-linejoin="round"
         points="85.000,17.321 90.000,25.981 95.000,17.321 105.000,17.321 100.000,8.660 80.000,8.660 75.000,17.321">
<desc>E6</desc>
</polygon>
</g>
</svg>
