<?xml version="1.0" standalone="no"?>
<!-- Created by Polyform Puzzler (http://puzzler.sourceforge.net/) -->
<svg width="145.000" height="60.622"
     viewBox="0 0 145.000 60.622"
     xmlns="http://www.w3.org/2000/svg"
     xmlns:xlink="http://www.w3.org/1999/xlink">
<g>
<polygon fill="blueviolet" stroke="white"
         stroke-width="1" stroke-linejoin="round"
         points="10.000,51.962 20.000,51.962 25.000,43.301 35.000,43.301 40.000,34.641 20.000,34.641">
<desc>C6</desc>
</polygon>
<polygon fill="blue" stroke="white"
         stroke-width="1" stroke-linejoin="round"
         points="20.000,51.962 50.000,51.962 55.000,43.301 25.000,43.301">
<desc>I6</desc>
</polygon>
<polygon fill="turquoise" stroke="white"
         stroke-width="1" stroke-linejoin="round"
         points="65.000,43.301 70.000,51.962 90.000,51.962 85.000,43.301 90.000,34.641 80.000,34.641 75.000,43.301">
<desc>H6</desc>
</polygon>
<polygon fill="plum" stroke="white"
         stroke-width="1" stroke-linejoin="round"
         points="85.000,43.301 90.000,51.962 110.000,51.962 100.000,34.641 95.000,43.301 90.000,34.641">
<desc>F6</desc>
</polygon>
<polygon fill="magenta" stroke="white"
         stroke-width="1" stroke-linejoin="round"
         points="35.000,43.301 65.000,43.301 60.000,34.641 50.000,34.641 45.000,25.981">
<desc>P6</desc>
</polygon>
<polygon fill="green" stroke="white"
         stroke-width="1" stroke-linejoin="round"
         points="60.000,34.641 65.000,43.301 75.000,43.301 80.000,34.641 75.000,25.981 65.000,25.981">
<desc>O6</desc>
</polygon>
<polygon fill="darkorange" stroke="white"
         stroke-width="1" stroke-linejoin="round"
         points="90.000,34.641 95.000,43.301 100.000,34.641 90.000,17.321 80.000,17.321 85.000,25.981 80.000,34.641">
<desc>E6</desc>
</polygon>
<polygon fill="gold" stroke="white"
         stroke-width="1" stroke-linejoin="round"
         points="20.000,34.641 40.000,34.641 45.000,25.981 35.000,25.981 40.000,17.321 30.000,17.321">
<desc>V6</desc>
</polygon>
<polygon fill="navy" stroke="white"
         stroke-width="1" stroke-linejoin="round"
         points="45.000,25.981 50.000,34.641 60.000,34.641 65.000,25.981 55.000,25.981 50.000,17.321 40.000,17.321 35.000,25.981">
<desc>S6</desc>
</polygon>
<polygon fill="maroon" stroke="white"
         stroke-width="1" stroke-linejoin="round"
         points="75.000,25.981 80.000,34.641 85.000,25.981 80.000,17.321 90.000,17.321 85.000,8.660 75.000,8.660 70.000,17.321">
<desc>G6</desc>
</polygon>
<polygon fill="lime" stroke="white"
         stroke-width="1" stroke-linejoin="round"
         points="50.000,17.321 55.000,25.981 60.000,17.321 55.000,8.660 35.000,8.660 30.000,17.321">
<desc>J6</desc>
</polygon>
<polygon fill="red" stroke="white"
         stroke-width="1" stroke-linejoin="round"
         points="55.000,25.981 75.000,25.981 70.000,17.321 75.000,8.660 55.000,8.660 60.000,17.321">
<desc>X6</desc>
</polygon>
</g>
</svg>
