<?xml version="1.0" standalone="no"?>
<!-- Created by Polyform Puzzler (http://puzzler.sourceforge.net/) -->
<svg width="340.000" height="340.000"
     viewBox="0 0 340.000 340.000"
     xmlns="http://www.w3.org/2000/svg"
     xmlns:xlink="http://www.w3.org/1999/xlink">
<g transform="translate(170.000,85.000) rotate(-30)">
<polygon fill="red" stroke="white"
         stroke-width="1" stroke-linejoin="round"
         points="95.000,86.603 100.000,95.263 105.000,86.603 115.000,86.603 105.000,69.282 100.000,77.942 90.000,77.942">
<desc>X6</desc>
</polygon>
<polygon fill="green" stroke="white"
         stroke-width="1" stroke-linejoin="round"
         points="65.000,69.282 70.000,77.942 80.000,77.942 85.000,69.282 80.000,60.622 70.000,60.622">
<desc>O6</desc>
</polygon>
<polygon fill="maroon" stroke="white"
         stroke-width="1" stroke-linejoin="round"
         points="80.000,77.942 100.000,77.942 105.000,69.282 100.000,60.622 90.000,60.622 95.000,69.282 85.000,69.282">
<desc>G6</desc>
</polygon>
<polygon fill="darkorange" stroke="white"
         stroke-width="1" stroke-linejoin="round"
         points="60.000,60.622 65.000,69.282 70.000,60.622 80.000,60.622 75.000,51.962 55.000,51.962 50.000,60.622">
<desc>E6</desc>
</polygon>
<polygon fill="gold" stroke="white"
         stroke-width="1" stroke-linejoin="round"
         points="80.000,60.622 85.000,69.282 95.000,69.282 90.000,60.622 100.000,60.622 95.000,51.962 75.000,51.962">
<desc>V6</desc>
</polygon>
<polygon fill="plum" stroke="white"
         stroke-width="1" stroke-linejoin="round"
         points="100.000,60.622 105.000,69.282 115.000,51.962 110.000,43.301 100.000,43.301 105.000,51.962 95.000,51.962">
<desc>F6</desc>
</polygon>
<polygon fill="turquoise" stroke="white"
         stroke-width="1" stroke-linejoin="round"
         points="40.000,60.622 50.000,60.622 55.000,51.962 65.000,51.962 60.000,43.301 40.000,43.301 45.000,51.962">
<desc>H6</desc>
</polygon>
<polygon fill="navy" stroke="white"
         stroke-width="1" stroke-linejoin="round"
         points="60.000,43.301 65.000,51.962 75.000,51.962 80.000,43.301 90.000,43.301 85.000,34.641 75.000,34.641 70.000,43.301">
<desc>S6</desc>
</polygon>
<polygon fill="magenta" stroke="white"
         stroke-width="1" stroke-linejoin="round"
         points="75.000,51.962 105.000,51.962 95.000,34.641 90.000,43.301 80.000,43.301">
<desc>P6</desc>
</polygon>
<polygon fill="blueviolet" stroke="white"
         stroke-width="1" stroke-linejoin="round"
         points="60.000,43.301 70.000,43.301 75.000,34.641 85.000,34.641 90.000,25.981 70.000,25.981">
<desc>C6</desc>
</polygon>
<polygon fill="blue" stroke="white"
         stroke-width="1" stroke-linejoin="round"
         points="85.000,34.641 90.000,43.301 105.000,17.321 100.000,8.660">
<desc>I6</desc>
</polygon>
<polygon fill="lime" stroke="white"
         stroke-width="1" stroke-linejoin="round"
         points="95.000,34.641 100.000,43.301 110.000,43.301 105.000,34.641 115.000,17.321 105.000,17.321">
<desc>J6</desc>
</polygon>
</g>
</svg>
