<?xml version="1.0" standalone="no"?>
<!-- Created by Polyform Puzzler (http://puzzler.sourceforge.net/) -->
<svg width="280.000" height="280.000"
     viewBox="0 0 280.000 280.000"
     xmlns="http://www.w3.org/2000/svg"
     xmlns:xlink="http://www.w3.org/1999/xlink">
<g transform="translate(140.000,70.000) rotate(-30)">
<polygon fill="darkorange" stroke="white"
         stroke-width="1" stroke-linejoin="round"
         points="55.000,69.282 60.000,77.942 65.000,69.282 75.000,69.282 70.000,60.622 50.000,60.622 45.000,69.282">
<desc>E6</desc>
</polygon>
<polygon fill="maroon" stroke="white"
         stroke-width="1" stroke-linejoin="round"
         points="75.000,69.282 80.000,77.942 90.000,77.942 95.000,69.282 90.000,60.622 85.000,69.282 80.000,60.622 70.000,60.622">
<desc>G6</desc>
</polygon>
<polygon fill="lime" stroke="white"
         stroke-width="1" stroke-linejoin="round"
         points="80.000,60.622 85.000,69.282 95.000,51.962 105.000,51.962 100.000,43.301 90.000,43.301">
<desc>J6</desc>
</polygon>
<polygon fill="blueviolet" stroke="white"
         stroke-width="1" stroke-linejoin="round"
         points="45.000,51.962 50.000,60.622 60.000,60.622 50.000,43.301 30.000,43.301 35.000,51.962">
<desc>C6</desc>
</polygon>
<polygon fill="plum" stroke="white"
         stroke-width="1" stroke-linejoin="round"
         points="55.000,51.962 60.000,60.622 70.000,60.622 75.000,51.962 65.000,51.962 70.000,43.301 50.000,43.301">
<desc>F6</desc>
</polygon>
<polygon fill="gold" stroke="white"
         stroke-width="1" stroke-linejoin="round"
         points="70.000,60.622 80.000,60.622 90.000,43.301 70.000,43.301 65.000,51.962 75.000,51.962">
<desc>V6</desc>
</polygon>
<polygon fill="magenta" stroke="white"
         stroke-width="1" stroke-linejoin="round"
         points="30.000,43.301 60.000,43.301 50.000,25.981 45.000,34.641 35.000,34.641">
<desc>P6</desc>
</polygon>
<polygon fill="green" stroke="white"
         stroke-width="1" stroke-linejoin="round"
         points="55.000,34.641 60.000,43.301 70.000,43.301 75.000,34.641 70.000,25.981 60.000,25.981">
<desc>O6</desc>
</polygon>
<polygon fill="blue" stroke="white"
         stroke-width="1" stroke-linejoin="round"
         points="70.000,43.301 100.000,43.301 105.000,34.641 75.000,34.641">
<desc>I6</desc>
</polygon>
<polygon fill="red" stroke="white"
         stroke-width="1" stroke-linejoin="round"
         points="50.000,25.981 55.000,34.641 60.000,25.981 70.000,25.981 60.000,8.660 55.000,17.321 45.000,17.321">
<desc>X6</desc>
</polygon>
<polygon fill="turquoise" stroke="white"
         stroke-width="1" stroke-linejoin="round"
         points="70.000,25.981 75.000,34.641 85.000,34.641 80.000,25.981 85.000,17.321 80.000,8.660 75.000,17.321 65.000,17.321">
<desc>H6</desc>
</polygon>
<polygon fill="navy" stroke="white"
         stroke-width="1" stroke-linejoin="round"
         points="80.000,25.981 85.000,34.641 95.000,34.641 90.000,25.981 95.000,17.321 90.000,8.660 80.000,8.660 85.000,17.321">
<desc>S6</desc>
</polygon>
</g>
</svg>
