<?xml version="1.0" standalone="no"?>
<!-- Created by Polyform Puzzler (http://puzzler.sourceforge.net/) -->
<svg width="280.000" height="280.000"
     viewBox="0 0 280.000 280.000"
     xmlns="http://www.w3.org/2000/svg"
     xmlns:xlink="http://www.w3.org/1999/xlink">
<g transform="translate(140.000,70.000) rotate(30)">
<polygon fill="plum" stroke="white"
         stroke-width="1" stroke-linejoin="round"
         points="10.000,77.942 30.000,77.942 35.000,69.282 30.000,60.622 25.000,69.282 20.000,60.622">
<desc>F6</desc>
</polygon>
<polygon fill="blue" stroke="white"
         stroke-width="1" stroke-linejoin="round"
         points="20.000,60.622 25.000,69.282 40.000,43.301 35.000,34.641">
<desc>I6</desc>
</polygon>
<polygon fill="lime" stroke="white"
         stroke-width="1" stroke-linejoin="round"
         points="30.000,60.622 35.000,69.282 45.000,51.962 55.000,51.962 50.000,43.301 40.000,43.301">
<desc>J6</desc>
</polygon>
<polygon fill="maroon" stroke="white"
         stroke-width="1" stroke-linejoin="round"
         points="50.000,43.301 55.000,51.962 65.000,51.962 75.000,34.641 65.000,34.641 60.000,43.301 55.000,34.641">
<desc>G6</desc>
</polygon>
<polygon fill="green" stroke="white"
         stroke-width="1" stroke-linejoin="round"
         points="35.000,34.641 40.000,43.301 50.000,43.301 55.000,34.641 50.000,25.981 40.000,25.981">
<desc>O6</desc>
</polygon>
<polygon fill="red" stroke="white"
         stroke-width="1" stroke-linejoin="round"
         points="55.000,34.641 60.000,43.301 65.000,34.641 75.000,34.641 65.000,17.321 60.000,25.981 50.000,25.981">
<desc>X6</desc>
</polygon>
<polygon fill="navy" stroke="white"
         stroke-width="1" stroke-linejoin="round"
         points="70.000,43.301 80.000,43.301 85.000,34.641 80.000,25.981 85.000,17.321 75.000,17.321 70.000,25.981 75.000,34.641">
<desc>S6</desc>
</polygon>
<polygon fill="turquoise" stroke="white"
         stroke-width="1" stroke-linejoin="round"
         points="80.000,25.981 85.000,34.641 90.000,25.981 100.000,25.981 90.000,8.660 80.000,8.660 85.000,17.321">
<desc>H6</desc>
</polygon>
<polygon fill="gold" stroke="white"
         stroke-width="1" stroke-linejoin="round"
         points="40.000,25.981 60.000,25.981 65.000,17.321 55.000,17.321 60.000,8.660 50.000,8.660">
<desc>V6</desc>
</polygon>
<polygon fill="darkorange" stroke="white"
         stroke-width="1" stroke-linejoin="round"
         points="65.000,17.321 70.000,25.981 75.000,17.321 85.000,17.321 80.000,8.660 60.000,8.660 55.000,17.321">
<desc>E6</desc>
</polygon>
<polygon fill="magenta" stroke="white"
         stroke-width="1" stroke-linejoin="round"
         points="95.000,17.321 100.000,25.981 105.000,17.321 115.000,17.321 120.000,8.660 90.000,8.660">
<desc>P6</desc>
</polygon>
<polygon fill="blueviolet" stroke="white"
         stroke-width="1" stroke-linejoin="round"
         points="100.000,25.981 120.000,25.981 130.000,8.660 120.000,8.660 115.000,17.321 105.000,17.321">
<desc>C6</desc>
</polygon>
</g>
</svg>
