<?xml version="1.0" standalone="no"?>
<!-- Created by Polyform Puzzler (http://puzzler.sourceforge.net/) -->
<svg width="130.0" height="51.9615242271" viewBox="0 0 130.0 51.9615242271"
     xmlns="http://www.w3.org/2000/svg"
     xmlns:xlink="http://www.w3.org/1999/xlink">
<g>
<polygon fill="blueviolet" stroke="white"
         stroke-width="1" stroke-linejoin="round"
         points="10.000,43.301 20.000,43.301 25.000,34.641 35.000,34.641 40.000,25.981 20.000,25.981">
<desc>C6</desc>
</polygon>
<polygon fill="magenta" stroke="white"
         stroke-width="1" stroke-linejoin="round"
         points="20.000,43.301 50.000,43.301 40.000,25.981 35.000,34.641 25.000,34.641">
<desc>P6</desc>
</polygon>
<polygon fill="turquoise" stroke="white"
         stroke-width="1" stroke-linejoin="round"
         points="45.000,34.641 50.000,43.301 70.000,43.301 65.000,34.641 70.000,25.981 60.000,25.981 55.000,34.641">
<desc>H6</desc>
</polygon>
<polygon fill="lime" stroke="white"
         stroke-width="1" stroke-linejoin="round"
         points="65.000,34.641 70.000,43.301 90.000,43.301 95.000,34.641 75.000,34.641 70.000,25.981">
<desc>J6</desc>
</polygon>
<polygon fill="darkorange" stroke="white"
         stroke-width="1" stroke-linejoin="round"
         points="90.000,43.301 100.000,43.301 110.000,25.981 105.000,17.321 100.000,25.981 90.000,25.981 95.000,34.641">
<desc>E6</desc>
</polygon>
<polygon fill="green" stroke="white"
         stroke-width="1" stroke-linejoin="round"
         points="40.000,25.981 45.000,34.641 55.000,34.641 60.000,25.981 55.000,17.321 45.000,17.321">
<desc>O6</desc>
</polygon>
<polygon fill="maroon" stroke="white"
         stroke-width="1" stroke-linejoin="round"
         points="70.000,25.981 75.000,34.641 95.000,34.641 90.000,25.981 80.000,25.981 85.000,17.321 75.000,17.321">
<desc>G6</desc>
</polygon>
<polygon fill="gold" stroke="white"
         stroke-width="1" stroke-linejoin="round"
         points="20.000,25.981 40.000,25.981 45.000,17.321 35.000,17.321 40.000,8.660 30.000,8.660">
<desc>V6</desc>
</polygon>
<polygon fill="navy" stroke="white"
         stroke-width="1" stroke-linejoin="round"
         points="55.000,17.321 60.000,25.981 70.000,25.981 75.000,17.321 85.000,17.321 80.000,8.660 70.000,8.660 65.000,17.321">
<desc>S6</desc>
</polygon>
<polygon fill="red" stroke="white"
         stroke-width="1" stroke-linejoin="round"
         points="80.000,25.981 100.000,25.981 95.000,17.321 100.000,8.660 80.000,8.660 85.000,17.321">
<desc>X6</desc>
</polygon>
<polygon fill="plum" stroke="white"
         stroke-width="1" stroke-linejoin="round"
         points="95.000,17.321 100.000,25.981 105.000,17.321 110.000,25.981 120.000,8.660 100.000,8.660">
<desc>F6</desc>
</polygon>
<polygon fill="blue" stroke="white"
         stroke-width="1" stroke-linejoin="round"
         points="35.000,17.321 65.000,17.321 70.000,8.660 40.000,8.660">
<desc>I6</desc>
</polygon>
</g>

</svg>
