<?xml version="1.0" standalone="no"?>
<!-- Created by Polyform Puzzler (http://puzzler.sourceforge.net/) -->
<svg width="340.000" height="340.000"
     viewBox="0 0 340.000 340.000"
     xmlns="http://www.w3.org/2000/svg"
     xmlns:xlink="http://www.w3.org/1999/xlink">
<g transform="translate(170.000,85.000) rotate(90)">
<polygon fill="blue" stroke="white"
         stroke-width="1" stroke-linejoin="round"
         points="65.000,103.923 70.000,112.583 85.000,86.603 80.000,77.942">
<desc>I6</desc>
</polygon>
<polygon fill="magenta" stroke="white"
         stroke-width="1" stroke-linejoin="round"
         points="70.000,112.583 90.000,112.583 85.000,103.923 90.000,95.263 85.000,86.603">
<desc>P6</desc>
</polygon>
<polygon fill="navy" stroke="white"
         stroke-width="1" stroke-linejoin="round"
         points="85.000,103.923 90.000,112.583 100.000,112.583 95.000,103.923 100.000,95.263 95.000,86.603 85.000,86.603 90.000,95.263">
<desc>S6</desc>
</polygon>
<polygon fill="blueviolet" stroke="white"
         stroke-width="1" stroke-linejoin="round"
         points="65.000,86.603 70.000,95.263 80.000,77.942 70.000,60.622 65.000,69.282 70.000,77.942">
<desc>C6</desc>
</polygon>
<polygon fill="green" stroke="white"
         stroke-width="1" stroke-linejoin="round"
         points="80.000,77.942 85.000,86.603 95.000,86.603 100.000,77.942 95.000,69.282 85.000,69.282">
<desc>O6</desc>
</polygon>
<polygon fill="red" stroke="white"
         stroke-width="1" stroke-linejoin="round"
         points="75.000,69.282 80.000,77.942 85.000,69.282 95.000,69.282 85.000,51.962 80.000,60.622 70.000,60.622">
<desc>X6</desc>
</polygon>
<polygon fill="lime" stroke="white"
         stroke-width="1" stroke-linejoin="round"
         points="90.000,60.622 95.000,69.282 100.000,60.622 90.000,43.301 80.000,43.301 75.000,51.962 85.000,51.962">
<desc>J6</desc>
</polygon>
<polygon fill="maroon" stroke="white"
         stroke-width="1" stroke-linejoin="round"
         points="65.000,51.962 70.000,60.622 80.000,60.622 85.000,51.962 75.000,51.962 80.000,43.301 75.000,34.641">
<desc>G6</desc>
</polygon>
<polygon fill="turquoise" stroke="white"
         stroke-width="1" stroke-linejoin="round"
         points="90.000,43.301 95.000,51.962 100.000,43.301 95.000,34.641 100.000,25.981 90.000,25.981 80.000,43.301">
<desc>H6</desc>
</polygon>
<polygon fill="gold" stroke="white"
         stroke-width="1" stroke-linejoin="round"
         points="65.000,34.641 70.000,43.301 75.000,34.641 80.000,43.301 85.000,34.641 75.000,17.321">
<desc>V6</desc>
</polygon>
<polygon fill="darkorange" stroke="white"
         stroke-width="1" stroke-linejoin="round"
         points="80.000,25.981 85.000,34.641 90.000,25.981 100.000,25.981 95.000,17.321 100.000,8.660 90.000,8.660">
<desc>E6</desc>
</polygon>
<polygon fill="plum" stroke="white"
         stroke-width="1" stroke-linejoin="round"
         points="65.000,17.321 70.000,25.981 75.000,17.321 80.000,25.981 90.000,8.660 70.000,8.660">
<desc>F6</desc>
</polygon>
</g>
</svg>
