<?xml version="1.0" standalone="no"?>
<!-- Created by Polyform Puzzler (http://puzzler.sourceforge.net/) -->
<svg width="130.0" height="86.6025403784" viewBox="0 0 130.0 86.6025403784"
     xmlns="http://www.w3.org/2000/svg"
     xmlns:xlink="http://www.w3.org/1999/xlink">
<g>
<polygon fill="lime" stroke="white"
         stroke-width="1" stroke-linejoin="round"
         points="25.000,69.282 30.000,77.942 50.000,77.942 55.000,69.282 50.000,60.622 45.000,69.282">
<desc>J6</desc>
</polygon>
<polygon fill="blue" stroke="white"
         stroke-width="1" stroke-linejoin="round"
         points="50.000,77.942 80.000,77.942 85.000,69.282 55.000,69.282">
<desc>I6</desc>
</polygon>
<polygon fill="plum" stroke="white"
         stroke-width="1" stroke-linejoin="round"
         points="20.000,60.622 25.000,69.282 45.000,69.282 35.000,51.962 30.000,60.622 25.000,51.962">
<desc>F6</desc>
</polygon>
<polygon fill="red" stroke="white"
         stroke-width="1" stroke-linejoin="round"
         points="40.000,60.622 45.000,69.282 50.000,60.622 60.000,60.622 50.000,43.301 45.000,51.962 35.000,51.962">
<desc>X6</desc>
</polygon>
<polygon fill="gold" stroke="white"
         stroke-width="1" stroke-linejoin="round"
         points="50.000,60.622 55.000,69.282 75.000,69.282 65.000,51.962 55.000,51.962 60.000,60.622">
<desc>V6</desc>
</polygon>
<polygon fill="green" stroke="white"
         stroke-width="1" stroke-linejoin="round"
         points="70.000,60.622 75.000,69.282 85.000,69.282 90.000,60.622 85.000,51.962 75.000,51.962">
<desc>O6</desc>
</polygon>
<polygon fill="turquoise" stroke="white"
         stroke-width="1" stroke-linejoin="round"
         points="25.000,51.962 30.000,60.622 35.000,51.962 45.000,51.962 50.000,43.301 40.000,43.301 35.000,34.641">
<desc>H6</desc>
</polygon>
<polygon fill="navy" stroke="white"
         stroke-width="1" stroke-linejoin="round"
         points="65.000,51.962 70.000,60.622 75.000,51.962 70.000,43.301 60.000,43.301 55.000,34.641 50.000,43.301 55.000,51.962">
<desc>S6</desc>
</polygon>
<polygon fill="magenta" stroke="white"
         stroke-width="1" stroke-linejoin="round"
         points="70.000,43.301 75.000,51.962 85.000,51.962 70.000,25.981 60.000,43.301">
<desc>P6</desc>
</polygon>
<polygon fill="maroon" stroke="white"
         stroke-width="1" stroke-linejoin="round"
         points="35.000,34.641 40.000,43.301 50.000,43.301 60.000,25.981 50.000,25.981 45.000,34.641 40.000,25.981">
<desc>G6</desc>
</polygon>
<polygon fill="blueviolet" stroke="white"
         stroke-width="1" stroke-linejoin="round"
         points="55.000,34.641 60.000,43.301 70.000,25.981 60.000,8.660 55.000,17.321 60.000,25.981">
<desc>C6</desc>
</polygon>
<polygon fill="darkorange" stroke="white"
         stroke-width="1" stroke-linejoin="round"
         points="40.000,25.981 45.000,34.641 50.000,25.981 60.000,25.981 55.000,17.321 60.000,8.660 50.000,8.660">
<desc>E6</desc>
</polygon>
</g>
</svg>
