<?xml version="1.0" standalone="no"?>
<!-- Created by Polyform Puzzler (http://puzzler.sourceforge.net/) -->
<svg width="140.0" height="86.6025403784" viewBox="0 0 140.0 86.6025403784"
     xmlns="http://www.w3.org/2000/svg"
     xmlns:xlink="http://www.w3.org/1999/xlink">
<g>
<polygon fill="green" stroke="white"
         stroke-width="1" stroke-linejoin="round"
         points="45.000,69.282 50.000,77.942 60.000,77.942 65.000,69.282 60.000,60.622 50.000,60.622">
<desc>O6</desc>
</polygon>
<polygon fill="darkorange" stroke="white"
         stroke-width="1" stroke-linejoin="round"
         points="60.000,77.942 70.000,77.942 80.000,60.622 75.000,51.962 70.000,60.622 60.000,60.622 65.000,69.282">
<desc>E6</desc>
</polygon>
<polygon fill="plum" stroke="white"
         stroke-width="1" stroke-linejoin="round"
         points="70.000,77.942 90.000,77.942 95.000,69.282 90.000,60.622 85.000,69.282 80.000,60.622">
<desc>F6</desc>
</polygon>
<polygon fill="blueviolet" stroke="white"
         stroke-width="1" stroke-linejoin="round"
         points="80.000,60.622 85.000,69.282 95.000,51.962 85.000,34.641 80.000,43.301 85.000,51.962">
<desc>C6</desc>
</polygon>
<polygon fill="lime" stroke="white"
         stroke-width="1" stroke-linejoin="round"
         points="45.000,51.962 50.000,60.622 70.000,60.622 75.000,51.962 55.000,51.962 50.000,43.301">
<desc>J6</desc>
</polygon>
<polygon fill="magenta" stroke="white"
         stroke-width="1" stroke-linejoin="round"
         points="75.000,51.962 80.000,60.622 85.000,51.962 80.000,43.301 85.000,34.641 65.000,34.641">
<desc>P6</desc>
</polygon>
<polygon fill="gold" stroke="white"
         stroke-width="1" stroke-linejoin="round"
         points="50.000,43.301 55.000,51.962 75.000,51.962 65.000,34.641 55.000,34.641 60.000,43.301">
<desc>V6</desc>
</polygon>
<polygon fill="navy" stroke="white"
         stroke-width="1" stroke-linejoin="round"
         points="45.000,34.641 50.000,43.301 60.000,43.301 55.000,34.641 60.000,25.981 55.000,17.321 45.000,17.321 50.000,25.981">
<desc>S6</desc>
</polygon>
<polygon fill="turquoise" stroke="white"
         stroke-width="1" stroke-linejoin="round"
         points="85.000,34.641 90.000,43.301 95.000,34.641 85.000,17.321 80.000,25.981 70.000,25.981 75.000,34.641">
<desc>H6</desc>
</polygon>
<polygon fill="red" stroke="white"
         stroke-width="1" stroke-linejoin="round"
         points="55.000,34.641 75.000,34.641 70.000,25.981 75.000,17.321 55.000,17.321 60.000,25.981">
<desc>X6</desc>
</polygon>
<polygon fill="maroon" stroke="white"
         stroke-width="1" stroke-linejoin="round"
         points="70.000,25.981 80.000,25.981 85.000,17.321 90.000,25.981 95.000,17.321 90.000,8.660 80.000,8.660">
<desc>G6</desc>
</polygon>
<polygon fill="blue" stroke="white"
         stroke-width="1" stroke-linejoin="round"
         points="45.000,17.321 75.000,17.321 80.000,8.660 50.000,8.660">
<desc>I6</desc>
</polygon>
</g>
</svg>
