<?xml version="1.0" standalone="no"?>
<!-- Created by Polyform Puzzler (http://puzzler.sourceforge.net/) -->
<svg width="140.0" height="51.9615242271" viewBox="0 0 140.0 51.9615242271"
     xmlns="http://www.w3.org/2000/svg"
     xmlns:xlink="http://www.w3.org/1999/xlink">
<g>
<polygon fill="green" stroke="white"
         stroke-width="1" stroke-linejoin="round"
         points="25.000,34.641 30.000,43.301 40.000,43.301 45.000,34.641 40.000,25.981 30.000,25.981">
<desc>O6</desc>
</polygon>
<polygon fill="blueviolet" stroke="white"
         stroke-width="1" stroke-linejoin="round"
         points="40.000,43.301 50.000,43.301 55.000,34.641 65.000,34.641 70.000,25.981 50.000,25.981">
<desc>C6</desc>
</polygon>
<polygon fill="magenta" stroke="white"
         stroke-width="1" stroke-linejoin="round"
         points="50.000,43.301 80.000,43.301 70.000,25.981 65.000,34.641 55.000,34.641">
<desc>P6</desc>
</polygon>
<polygon fill="navy" stroke="white"
         stroke-width="1" stroke-linejoin="round"
         points="75.000,34.641 80.000,43.301 90.000,43.301 85.000,34.641 90.000,25.981 85.000,17.321 75.000,17.321 80.000,25.981">
<desc>S6</desc>
</polygon>
<polygon fill="lime" stroke="white"
         stroke-width="1" stroke-linejoin="round"
         points="85.000,34.641 90.000,43.301 110.000,43.301 115.000,34.641 110.000,25.981 105.000,34.641">
<desc>J6</desc>
</polygon>
<polygon fill="darkorange" stroke="white"
         stroke-width="1" stroke-linejoin="round"
         points="20.000,25.981 25.000,34.641 30.000,25.981 40.000,25.981 35.000,17.321 40.000,8.660 30.000,8.660">
<desc>E6</desc>
</polygon>
<polygon fill="maroon" stroke="white"
         stroke-width="1" stroke-linejoin="round"
         points="40.000,25.981 45.000,34.641 50.000,25.981 45.000,17.321 55.000,17.321 50.000,8.660 40.000,8.660 35.000,17.321">
<desc>G6</desc>
</polygon>
<polygon fill="turquoise" stroke="white"
         stroke-width="1" stroke-linejoin="round"
         points="70.000,25.981 75.000,34.641 80.000,25.981 75.000,17.321 80.000,8.660 70.000,8.660 60.000,25.981">
<desc>H6</desc>
</polygon>
<polygon fill="red" stroke="white"
         stroke-width="1" stroke-linejoin="round"
         points="85.000,34.641 105.000,34.641 100.000,25.981 105.000,17.321 85.000,17.321 90.000,25.981">
<desc>X6</desc>
</polygon>
<polygon fill="gold" stroke="white"
         stroke-width="1" stroke-linejoin="round"
         points="100.000,25.981 105.000,34.641 110.000,25.981 115.000,34.641 120.000,25.981 110.000,8.660">
<desc>V6</desc>
</polygon>
<polygon fill="plum" stroke="white"
         stroke-width="1" stroke-linejoin="round"
         points="45.000,17.321 50.000,25.981 60.000,25.981 70.000,8.660 50.000,8.660 55.000,17.321">
<desc>F6</desc>
</polygon>
<polygon fill="blue" stroke="white"
         stroke-width="1" stroke-linejoin="round"
         points="75.000,17.321 105.000,17.321 110.000,8.660 80.000,8.660">
<desc>I6</desc>
</polygon>
</g>

</svg>
