<?xml version="1.0" standalone="no"?>
<!-- Created by Polyform Puzzler (http://puzzler.sourceforge.net/) -->
<svg width="150.000" height="69.282"
     viewBox="0 0 150.000 69.282"
     xmlns="http://www.w3.org/2000/svg"
     xmlns:xlink="http://www.w3.org/1999/xlink">
<g>
<polygon fill="gold" stroke="white"
         stroke-width="1" stroke-linejoin="round"
         points="10.000,60.622 30.000,60.622 35.000,51.962 25.000,51.962 30.000,43.301 20.000,43.301">
<desc>V6</desc>
</polygon>
<polygon fill="blue" stroke="white"
         stroke-width="1" stroke-linejoin="round"
         points="30.000,60.622 60.000,60.622 65.000,51.962 35.000,51.962">
<desc>I6</desc>
</polygon>
<polygon fill="maroon" stroke="white"
         stroke-width="1" stroke-linejoin="round"
         points="60.000,60.622 70.000,60.622 75.000,51.962 70.000,43.301 50.000,43.301 55.000,51.962 65.000,51.962">
<desc>G6</desc>
</polygon>
<polygon fill="magenta" stroke="white"
         stroke-width="1" stroke-linejoin="round"
         points="25.000,51.962 55.000,51.962 45.000,34.641 40.000,43.301 30.000,43.301">
<desc>P6</desc>
</polygon>
<polygon fill="darkorange" stroke="white"
         stroke-width="1" stroke-linejoin="round"
         points="70.000,43.301 75.000,51.962 80.000,43.301 70.000,25.981 60.000,25.981 65.000,34.641 60.000,43.301">
<desc>E6</desc>
</polygon>
<polygon fill="green" stroke="white"
         stroke-width="1" stroke-linejoin="round"
         points="45.000,34.641 50.000,43.301 60.000,43.301 65.000,34.641 60.000,25.981 50.000,25.981">
<desc>O6</desc>
</polygon>
<polygon fill="blueviolet" stroke="white"
         stroke-width="1" stroke-linejoin="round"
         points="75.000,34.641 80.000,43.301 85.000,34.641 80.000,25.981 85.000,17.321 80.000,8.660 70.000,25.981">
<desc>C6</desc>
</polygon>
<polygon fill="turquoise" stroke="white"
         stroke-width="1" stroke-linejoin="round"
         points="80.000,43.301 100.000,43.301 105.000,34.641 95.000,34.641 90.000,25.981 80.000,25.981 85.000,34.641">
<desc>H6</desc>
</polygon>
<polygon fill="navy" stroke="white"
         stroke-width="1" stroke-linejoin="round"
         points="90.000,25.981 95.000,34.641 105.000,34.641 110.000,25.981 120.000,25.981 115.000,17.321 105.000,17.321 100.000,25.981">
<desc>S6</desc>
</polygon>
<polygon fill="red" stroke="white"
         stroke-width="1" stroke-linejoin="round"
         points="80.000,25.981 100.000,25.981 95.000,17.321 100.000,8.660 80.000,8.660 85.000,17.321">
<desc>X6</desc>
</polygon>
<polygon fill="lime" stroke="white"
         stroke-width="1" stroke-linejoin="round"
         points="95.000,17.321 100.000,25.981 105.000,17.321 125.000,17.321 120.000,8.660 100.000,8.660">
<desc>J6</desc>
</polygon>
<polygon fill="plum" stroke="white"
         stroke-width="1" stroke-linejoin="round"
         points="115.000,17.321 120.000,25.981 130.000,25.981 140.000,8.660 120.000,8.660 125.000,17.321">
<desc>F6</desc>
</polygon>
</g>
</svg>
