<?xml version="1.0" standalone="no"?>
<!-- Created by Polyform Puzzler (http://puzzler.sourceforge.net/) -->
<svg width="140.0" height="69.2820323028" viewBox="0 0 140.0 69.2820323028"
     xmlns="http://www.w3.org/2000/svg"
     xmlns:xlink="http://www.w3.org/1999/xlink">
<g>
<polygon fill="blue" stroke="white"
         stroke-width="1" stroke-linejoin="round"
         points="40.000,60.622 70.000,60.622 75.000,51.962 45.000,51.962">
<desc>I6</desc>
</polygon>
<polygon fill="plum" stroke="white"
         stroke-width="1" stroke-linejoin="round"
         points="70.000,60.622 90.000,60.622 80.000,43.301 70.000,43.301 65.000,51.962 75.000,51.962">
<desc>F6</desc>
</polygon>
<polygon fill="green" stroke="white"
         stroke-width="1" stroke-linejoin="round"
         points="85.000,51.962 90.000,60.622 100.000,60.622 105.000,51.962 100.000,43.301 90.000,43.301">
<desc>O6</desc>
</polygon>
<polygon fill="darkorange" stroke="white"
         stroke-width="1" stroke-linejoin="round"
         points="40.000,43.301 45.000,51.962 65.000,51.962 70.000,43.301 60.000,43.301 55.000,34.641 50.000,43.301">
<desc>E6</desc>
</polygon>
<polygon fill="navy" stroke="white"
         stroke-width="1" stroke-linejoin="round"
         points="80.000,43.301 85.000,51.962 90.000,43.301 100.000,43.301 105.000,34.641 100.000,25.981 95.000,34.641 85.000,34.641">
<desc>S6</desc>
</polygon>
<polygon fill="turquoise" stroke="white"
         stroke-width="1" stroke-linejoin="round"
         points="40.000,43.301 50.000,43.301 60.000,25.981 50.000,25.981 45.000,17.321 40.000,25.981 45.000,34.641">
<desc>H6</desc>
</polygon>
<polygon fill="maroon" stroke="white"
         stroke-width="1" stroke-linejoin="round"
         points="55.000,34.641 60.000,43.301 80.000,43.301 75.000,34.641 65.000,34.641 70.000,25.981 60.000,25.981">
<desc>G6</desc>
</polygon>
<polygon fill="red" stroke="white"
         stroke-width="1" stroke-linejoin="round"
         points="75.000,34.641 80.000,43.301 90.000,25.981 80.000,25.981 75.000,17.321 65.000,34.641">
<desc>X6</desc>
</polygon>
<polygon fill="gold" stroke="white"
         stroke-width="1" stroke-linejoin="round"
         points="85.000,34.641 95.000,34.641 105.000,17.321 85.000,17.321 80.000,25.981 90.000,25.981">
<desc>V6</desc>
</polygon>
<polygon fill="blueviolet" stroke="white"
         stroke-width="1" stroke-linejoin="round"
         points="45.000,17.321 50.000,25.981 70.000,25.981 65.000,17.321 55.000,17.321 50.000,8.660 40.000,8.660">
<desc>C6</desc>
</polygon>
<polygon fill="magenta" stroke="white"
         stroke-width="1" stroke-linejoin="round"
         points="65.000,17.321 70.000,25.981 80.000,8.660 50.000,8.660 55.000,17.321">
<desc>P6</desc>
</polygon>
<polygon fill="lime" stroke="white"
         stroke-width="1" stroke-linejoin="round"
         points="75.000,17.321 80.000,25.981 85.000,17.321 105.000,17.321 100.000,8.660 80.000,8.660">
<desc>J6</desc>
</polygon>
</g>
</svg>
