<?xml version="1.0" standalone="no"?>
<!-- Created by Polyform Puzzler (http://puzzler.sourceforge.net/) -->
<svg width="140.000" height="86.603"
     viewBox="0 0 140.000 86.603"
     xmlns="http://www.w3.org/2000/svg"
     xmlns:xlink="http://www.w3.org/1999/xlink">
<g>
<polygon fill="lime" stroke="white"
         stroke-width="1" stroke-linejoin="round"
         points="15.000,69.282 20.000,77.942 30.000,77.942 25.000,69.282 35.000,51.962 25.000,51.962">
<desc>J6</desc>
</polygon>
<polygon fill="darkorange" stroke="white"
         stroke-width="1" stroke-linejoin="round"
         points="25.000,69.282 30.000,77.942 35.000,69.282 45.000,69.282 40.000,60.622 45.000,51.962 35.000,51.962">
<desc>E6</desc>
</polygon>
<polygon fill="maroon" stroke="white"
         stroke-width="1" stroke-linejoin="round"
         points="30.000,77.942 50.000,77.942 55.000,69.282 50.000,60.622 40.000,60.622 45.000,69.282 35.000,69.282">
<desc>G6</desc>
</polygon>
<polygon fill="navy" stroke="white"
         stroke-width="1" stroke-linejoin="round"
         points="55.000,69.282 60.000,77.942 65.000,69.282 75.000,69.282 80.000,60.622 75.000,51.962 70.000,60.622 60.000,60.622">
<desc>S6</desc>
</polygon>
<polygon fill="blue" stroke="white"
         stroke-width="1" stroke-linejoin="round"
         points="60.000,77.942 90.000,77.942 95.000,69.282 65.000,69.282">
<desc>I6</desc>
</polygon>
<polygon fill="plum" stroke="white"
         stroke-width="1" stroke-linejoin="round"
         points="50.000,60.622 55.000,69.282 65.000,51.962 55.000,51.962 60.000,43.301 50.000,43.301 45.000,51.962">
<desc>F6</desc>
</polygon>
<polygon fill="magenta" stroke="white"
         stroke-width="1" stroke-linejoin="round"
         points="75.000,69.282 95.000,69.282 80.000,43.301 75.000,51.962 80.000,60.622">
<desc>P6</desc>
</polygon>
<polygon fill="red" stroke="white"
         stroke-width="1" stroke-linejoin="round"
         points="65.000,51.962 70.000,60.622 80.000,43.301 70.000,43.301 65.000,34.641 55.000,51.962">
<desc>X6</desc>
</polygon>
<polygon fill="blueviolet" stroke="white"
         stroke-width="1" stroke-linejoin="round"
         points="25.000,51.962 45.000,51.962 55.000,34.641 45.000,34.641 40.000,43.301 30.000,43.301">
<desc>C6</desc>
</polygon>
<polygon fill="turquoise" stroke="white"
         stroke-width="1" stroke-linejoin="round"
         points="35.000,34.641 40.000,43.301 45.000,34.641 55.000,34.641 60.000,25.981 50.000,25.981 45.000,17.321">
<desc>H6</desc>
</polygon>
<polygon fill="gold" stroke="white"
         stroke-width="1" stroke-linejoin="round"
         points="55.000,34.641 60.000,43.301 65.000,34.641 70.000,43.301 75.000,34.641 65.000,17.321">
<desc>V6</desc>
</polygon>
<polygon fill="green" stroke="white"
         stroke-width="1" stroke-linejoin="round"
         points="45.000,17.321 50.000,25.981 60.000,25.981 65.000,17.321 60.000,8.660 50.000,8.660">
<desc>O6</desc>
</polygon>
</g>
</svg>
