<?xml version="1.0" standalone="no"?>
<!-- Created by Polyform Puzzler (http://puzzler.sourceforge.net/) -->
<svg width="270.000" height="270.000"
     viewBox="0 0 270.000 270.000"
     xmlns="http://www.w3.org/2000/svg"
     xmlns:xlink="http://www.w3.org/1999/xlink">
<g transform="translate(135.000,67.500) rotate(30)">
<polygon fill="maroon" stroke="white"
         stroke-width="1" stroke-linejoin="round"
         points="35.000,77.942 40.000,86.603 50.000,86.603 55.000,77.942 45.000,77.942 50.000,69.282 45.000,60.622">
<desc>G6</desc>
</polygon>
<polygon fill="gold" stroke="white"
         stroke-width="1" stroke-linejoin="round"
         points="45.000,77.942 65.000,77.942 70.000,69.282 60.000,69.282 65.000,60.622 55.000,60.622">
<desc>V6</desc>
</polygon>
<polygon fill="blueviolet" stroke="white"
         stroke-width="1" stroke-linejoin="round"
         points="35.000,60.622 40.000,69.282 50.000,51.962 40.000,34.641 35.000,43.301 40.000,51.962">
<desc>C6</desc>
</polygon>
<polygon fill="darkorange" stroke="white"
         stroke-width="1" stroke-linejoin="round"
         points="45.000,60.622 50.000,69.282 55.000,60.622 65.000,60.622 60.000,51.962 65.000,43.301 55.000,43.301">
<desc>E6</desc>
</polygon>
<polygon fill="plum" stroke="white"
         stroke-width="1" stroke-linejoin="round"
         points="60.000,69.282 80.000,69.282 85.000,60.622 80.000,51.962 75.000,60.622 70.000,51.962">
<desc>F6</desc>
</polygon>
<polygon fill="magenta" stroke="white"
         stroke-width="1" stroke-linejoin="round"
         points="60.000,51.962 65.000,60.622 80.000,34.641 60.000,34.641 65.000,43.301">
<desc>P6</desc>
</polygon>
<polygon fill="blue" stroke="white"
         stroke-width="1" stroke-linejoin="round"
         points="70.000,51.962 75.000,60.622 90.000,34.641 85.000,25.981">
<desc>I6</desc>
</polygon>
<polygon fill="green" stroke="white"
         stroke-width="1" stroke-linejoin="round"
         points="80.000,51.962 85.000,60.622 95.000,60.622 100.000,51.962 95.000,43.301 85.000,43.301">
<desc>O6</desc>
</polygon>
<polygon fill="red" stroke="white"
         stroke-width="1" stroke-linejoin="round"
         points="45.000,43.301 50.000,51.962 55.000,43.301 65.000,43.301 55.000,25.981 50.000,34.641 40.000,34.641">
<desc>X6</desc>
</polygon>
<polygon fill="navy" stroke="white"
         stroke-width="1" stroke-linejoin="round"
         points="85.000,43.301 95.000,43.301 100.000,34.641 95.000,25.981 100.000,17.321 90.000,17.321 85.000,25.981 90.000,34.641">
<desc>S6</desc>
</polygon>
<polygon fill="turquoise" stroke="white"
         stroke-width="1" stroke-linejoin="round"
         points="55.000,25.981 60.000,34.641 80.000,34.641 75.000,25.981 80.000,17.321 70.000,17.321 65.000,25.981">
<desc>H6</desc>
</polygon>
<polygon fill="lime" stroke="white"
         stroke-width="1" stroke-linejoin="round"
         points="75.000,25.981 80.000,34.641 90.000,17.321 100.000,17.321 95.000,8.660 85.000,8.660">
<desc>J6</desc>
</polygon>
</g>
</svg>
