<?xml version="1.0" standalone="no"?>
<!-- Created by Polyform Puzzler (http://puzzler.sourceforge.net/) -->
<svg width="140.000" height="86.603"
     viewBox="0 0 140.000 86.603"
     xmlns="http://www.w3.org/2000/svg"
     xmlns:xlink="http://www.w3.org/1999/xlink">
<g>
<polygon fill="turquoise" stroke="white"
         stroke-width="1" stroke-linejoin="round"
         points="55.000,69.282 60.000,77.942 65.000,69.282 55.000,51.962 50.000,60.622 40.000,60.622 45.000,69.282">
<desc>H6</desc>
</polygon>
<polygon fill="maroon" stroke="white"
         stroke-width="1" stroke-linejoin="round"
         points="60.000,60.622 65.000,69.282 70.000,60.622 65.000,51.962 75.000,51.962 70.000,43.301 60.000,43.301 55.000,51.962">
<desc>G6</desc>
</polygon>
<polygon fill="magenta" stroke="white"
         stroke-width="1" stroke-linejoin="round"
         points="65.000,69.282 95.000,69.282 85.000,51.962 80.000,60.622 70.000,60.622">
<desc>P6</desc>
</polygon>
<polygon fill="gold" stroke="white"
         stroke-width="1" stroke-linejoin="round"
         points="90.000,60.622 95.000,69.282 105.000,51.962 100.000,43.301 95.000,51.962 90.000,43.301 85.000,51.962">
<desc>V6</desc>
</polygon>
<polygon fill="green" stroke="white"
         stroke-width="1" stroke-linejoin="round"
         points="35.000,51.962 40.000,60.622 50.000,60.622 55.000,51.962 50.000,43.301 40.000,43.301">
<desc>O6</desc>
</polygon>
<polygon fill="plum" stroke="white"
         stroke-width="1" stroke-linejoin="round"
         points="65.000,51.962 70.000,60.622 80.000,60.622 90.000,43.301 70.000,43.301 75.000,51.962">
<desc>F6</desc>
</polygon>
<polygon fill="navy" stroke="white"
         stroke-width="1" stroke-linejoin="round"
         points="50.000,43.301 55.000,51.962 60.000,43.301 70.000,43.301 75.000,34.641 70.000,25.981 65.000,34.641 55.000,34.641">
<desc>S6</desc>
</polygon>
<polygon fill="red" stroke="white"
         stroke-width="1" stroke-linejoin="round"
         points="90.000,43.301 95.000,51.962 105.000,34.641 95.000,34.641 90.000,25.981 80.000,43.301">
<desc>X6</desc>
</polygon>
<polygon fill="blueviolet" stroke="white"
         stroke-width="1" stroke-linejoin="round"
         points="40.000,43.301 50.000,43.301 55.000,34.641 65.000,34.641 70.000,25.981 50.000,25.981">
<desc>C6</desc>
</polygon>
<polygon fill="darkorange" stroke="white"
         stroke-width="1" stroke-linejoin="round"
         points="70.000,43.301 80.000,43.301 90.000,25.981 85.000,17.321 80.000,25.981 70.000,25.981 75.000,34.641">
<desc>E6</desc>
</polygon>
<polygon fill="blue" stroke="white"
         stroke-width="1" stroke-linejoin="round"
         points="45.000,17.321 50.000,25.981 80.000,25.981 75.000,17.321">
<desc>I6</desc>
</polygon>
<polygon fill="lime" stroke="white"
         stroke-width="1" stroke-linejoin="round"
         points="75.000,17.321 80.000,25.981 85.000,17.321 80.000,8.660 60.000,8.660 55.000,17.321">
<desc>J6</desc>
</polygon>
</g>
</svg>
