<?xml version="1.0" standalone="no"?>
<!-- Created by Polyform Puzzler (http://puzzler.sourceforge.net/) -->
<svg width="400.000" height="400.000"
     viewBox="0 0 400.000 400.000"
     xmlns="http://www.w3.org/2000/svg"
     xmlns:xlink="http://www.w3.org/1999/xlink">
<g transform="translate(200.000,100.000) rotate(30)">
<polygon fill="lime" stroke="white"
         stroke-width="1" stroke-linejoin="round"
         points="65.000,103.923 70.000,112.583 80.000,112.583 70.000,95.263 75.000,86.603 65.000,86.603 60.000,95.263">
<desc>j6</desc>
</polygon>
<polygon fill="lime" stroke="white"
         stroke-width="1" stroke-linejoin="round"
         points="75.000,103.923 80.000,112.583 90.000,112.583 95.000,103.923 85.000,103.923 75.000,86.603 70.000,95.263">
<desc>J6</desc>
</polygon>
<polygon fill="blue" stroke="white"
         stroke-width="1" stroke-linejoin="round"
         points="80.000,95.263 85.000,103.923 95.000,103.923 80.000,77.942 70.000,77.942">
<desc>I6</desc>
</polygon>
<polygon fill="magenta" stroke="white"
         stroke-width="1" stroke-linejoin="round"
         points="85.000,86.603 90.000,95.263 105.000,69.282 85.000,69.282 90.000,77.942">
<desc>P6</desc>
</polygon>
<polygon fill="blue" stroke="white"
         stroke-width="1" stroke-linejoin="round"
         points="90.000,95.263 100.000,95.263 115.000,69.282 105.000,69.282">
<desc>i6</desc>
</polygon>
<polygon fill="turquoise" stroke="white"
         stroke-width="1" stroke-linejoin="round"
         points="80.000,77.942 85.000,86.603 90.000,77.942 85.000,69.282 90.000,60.622 80.000,60.622 70.000,77.942">
<desc>h6</desc>
</polygon>
<polygon fill="turquoise" stroke="white"
         stroke-width="1" stroke-linejoin="round"
         points="110.000,77.942 130.000,77.942 135.000,69.282 125.000,69.282 120.000,60.622 110.000,60.622 115.000,69.282">
<desc>H6</desc>
</polygon>
<polygon fill="navy" stroke="white"
         stroke-width="1" stroke-linejoin="round"
         points="135.000,69.282 140.000,77.942 150.000,77.942 155.000,69.282 145.000,69.282 140.000,60.622 130.000,60.622 125.000,69.282">
<desc>S6</desc>
</polygon>
<polygon fill="magenta" stroke="white"
         stroke-width="1" stroke-linejoin="round"
         points="85.000,69.282 115.000,69.282 110.000,60.622 100.000,60.622 95.000,51.962">
<desc>p6</desc>
</polygon>
<polygon fill="maroon" stroke="white"
         stroke-width="1" stroke-linejoin="round"
         points="120.000,60.622 125.000,69.282 130.000,60.622 125.000,51.962 135.000,51.962 130.000,43.301 120.000,43.301 115.000,51.962">
<desc>g6</desc>
</polygon>
<polygon fill="green" stroke="white"
         stroke-width="1" stroke-linejoin="round"
         points="140.000,60.622 145.000,69.282 155.000,69.282 160.000,60.622 155.000,51.962 145.000,51.962">
<desc>O6</desc>
</polygon>
<polygon fill="darkorange" stroke="white"
         stroke-width="1" stroke-linejoin="round"
         points="75.000,51.962 80.000,60.622 90.000,60.622 85.000,51.962 90.000,43.301 80.000,43.301 75.000,34.641 70.000,43.301">
<desc>E6</desc>
</polygon>
<polygon fill="gold" stroke="white"
         stroke-width="1" stroke-linejoin="round"
         points="85.000,51.962 90.000,60.622 95.000,51.962 100.000,60.622 105.000,51.962 95.000,34.641">
<desc>V6</desc>
</polygon>
<polygon fill="red" stroke="white"
         stroke-width="1" stroke-linejoin="round"
         points="100.000,60.622 120.000,60.622 115.000,51.962 120.000,43.301 100.000,43.301 105.000,51.962">
<desc>X6</desc>
</polygon>
<polygon fill="navy" stroke="white"
         stroke-width="1" stroke-linejoin="round"
         points="125.000,51.962 130.000,60.622 140.000,60.622 145.000,51.962 155.000,51.962 150.000,43.301 140.000,43.301 135.000,51.962">
<desc>s6</desc>
</polygon>
<polygon fill="blueviolet" stroke="white"
         stroke-width="1" stroke-linejoin="round"
         points="75.000,34.641 80.000,43.301 90.000,43.301 80.000,25.981 60.000,25.981 65.000,34.641">
<desc>C6</desc>
</polygon>
<polygon fill="maroon" stroke="white"
         stroke-width="1" stroke-linejoin="round"
         points="85.000,34.641 90.000,43.301 95.000,34.641 100.000,43.301 110.000,43.301 100.000,25.981 90.000,25.981">
<desc>G6</desc>
</polygon>
<polygon fill="plum" stroke="white"
         stroke-width="1" stroke-linejoin="round"
         points="80.000,25.981 85.000,34.641 95.000,17.321 90.000,8.660 80.000,8.660 85.000,17.321 75.000,17.321">
<desc>F6</desc>
</polygon>
<polygon fill="plum" stroke="white"
         stroke-width="1" stroke-linejoin="round"
         points="60.000,25.981 80.000,25.981 75.000,17.321 85.000,17.321 80.000,8.660 70.000,8.660">
<desc>f6</desc>
</polygon>
</g>
</svg>
