<?xml version="1.0" standalone="no"?>
<!-- Created by Polyform Puzzler (http://puzzler.sourceforge.net/) -->
<svg width="305.000" height="181.865"
     viewBox="0 0 305.000 181.865"
     xmlns="http://www.w3.org/2000/svg"
     xmlns:xlink="http://www.w3.org/1999/xlink">
<g>
<polygon fill="maroon" stroke="white"
         stroke-width="1" stroke-linejoin="round"
         points="10.000,173.205 30.000,173.205 35.000,164.545 25.000,164.545 30.000,155.885 25.000,147.224">
<desc>G7</desc>
</polygon>
<polygon fill="maroon" stroke="white"
         stroke-width="1" stroke-linejoin="round"
         points="30.000,173.205 60.000,173.205 55.000,164.545 45.000,164.545 50.000,155.885 40.000,155.885">
<desc>g7</desc>
</polygon>
<polygon fill="blueviolet" stroke="white"
         stroke-width="1" stroke-linejoin="round"
         points="55.000,164.545 60.000,173.205 70.000,173.205 65.000,164.545 70.000,155.885 65.000,147.224 60.000,155.885 50.000,155.885 45.000,164.545">
<desc>W7</desc>
</polygon>
<polygon fill="yellowgreen" stroke="white"
         stroke-width="1" stroke-linejoin="round"
         points="65.000,164.545 70.000,173.205 90.000,173.205 95.000,164.545 75.000,164.545 80.000,155.885 70.000,155.885">
<desc>j7</desc>
</polygon>
<polygon fill="plum" stroke="white"
         stroke-width="1" stroke-linejoin="round"
         points="90.000,173.205 110.000,173.205 115.000,164.545 105.000,164.545 110.000,155.885 90.000,155.885 95.000,164.545">
<desc>b7</desc>
</polygon>
<polygon fill="magenta" stroke="white"
         stroke-width="1" stroke-linejoin="round"
         points="110.000,173.205 140.000,173.205 145.000,164.545 125.000,164.545 120.000,155.885">
<desc>P7</desc>
</polygon>
<polygon fill="peru" stroke="white"
         stroke-width="1" stroke-linejoin="round"
         points="140.000,173.205 150.000,173.205 155.000,164.545 145.000,147.224 140.000,155.885 130.000,155.885 135.000,164.545 145.000,164.545">
<desc>a7</desc>
</polygon>
<polygon fill="blue" stroke="white"
         stroke-width="1" stroke-linejoin="round"
         points="150.000,173.205 190.000,173.205 185.000,164.545 155.000,164.545">
<desc>I7</desc>
</polygon>
<polygon fill="darkorange" stroke="white"
         stroke-width="1" stroke-linejoin="round"
         points="185.000,164.545 190.000,173.205 200.000,173.205 185.000,147.224 175.000,147.224 180.000,155.885 175.000,164.545">
<desc>E7</desc>
</polygon>
<polygon fill="orangered" stroke="white"
         stroke-width="1" stroke-linejoin="round"
         points="25.000,164.545 35.000,164.545 45.000,147.224 35.000,147.224 40.000,138.564 30.000,138.564 25.000,147.224 30.000,155.885">
<desc>z7</desc>
</polygon>
<polygon fill="tan" stroke="white"
         stroke-width="1" stroke-linejoin="round"
         points="75.000,164.545 95.000,164.545 90.000,155.885 100.000,155.885 105.000,147.224 85.000,147.224">
<desc>u7</desc>
</polygon>
<polygon fill="gold" stroke="white"
         stroke-width="1" stroke-linejoin="round"
         points="105.000,164.545 115.000,164.545 120.000,155.885 125.000,164.545 135.000,164.545 125.000,147.224 115.000,147.224">
<desc>V7</desc>
</polygon>
<polygon fill="yellowgreen" stroke="white"
         stroke-width="1" stroke-linejoin="round"
         points="150.000,155.885 155.000,164.545 175.000,164.545 180.000,155.885 175.000,147.224 165.000,147.224 170.000,155.885">
<desc>J7</desc>
</polygon>
<polygon fill="yellow" stroke="white"
         stroke-width="1" stroke-linejoin="round"
         points="100.000,155.885 110.000,155.885 120.000,138.564 115.000,129.904 110.000,138.564 100.000,138.564 95.000,147.224 105.000,147.224">
<desc>y7</desc>
</polygon>
<polygon fill="darkorange" stroke="white"
         stroke-width="1" stroke-linejoin="round"
         points="35.000,147.224 45.000,147.224 50.000,138.564 60.000,138.564 55.000,129.904 60.000,121.244 50.000,121.244">
<desc>e7</desc>
</polygon>
<polygon fill="lightcoral" stroke="white"
         stroke-width="1" stroke-linejoin="round"
         points="80.000,138.564 85.000,147.224 95.000,147.224 100.000,138.564 90.000,138.564 80.000,121.244 70.000,138.564">
<desc>q7</desc>
</polygon>
<polygon fill="blueviolet" stroke="white"
         stroke-width="1" stroke-linejoin="round"
         points="115.000,147.224 125.000,147.224 130.000,138.564 140.000,138.564 135.000,129.904 125.000,129.904 120.000,121.244 115.000,129.904 120.000,138.564">
<desc>w7</desc>
</polygon>
<polygon fill="gray" stroke="white"
         stroke-width="1" stroke-linejoin="round"
         points="160.000,138.564 165.000,147.224 185.000,147.224 180.000,138.564 170.000,138.564 165.000,129.904 155.000,129.904 150.000,138.564">
<desc>N7</desc>
</polygon>
<polygon fill="steelblue" stroke="white"
         stroke-width="1" stroke-linejoin="round"
         points="30.000,138.564 40.000,138.564 50.000,121.244 60.000,121.244 55.000,112.583 45.000,112.583">
<desc>l7</desc>
</polygon>
<polygon fill="olive" stroke="white"
         stroke-width="1" stroke-linejoin="round"
         points="85.000,129.904 90.000,138.564 100.000,138.564 90.000,121.244 95.000,112.583 90.000,103.923 80.000,121.244">
<desc>r7</desc>
</polygon>
<polygon fill="darkseagreen" stroke="white"
         stroke-width="1" stroke-linejoin="round"
         points="95.000,129.904 100.000,138.564 110.000,138.564 115.000,129.904 105.000,129.904 110.000,121.244 100.000,121.244 95.000,112.583 90.000,121.244">
<desc>F7</desc>
</polygon>
<polygon fill="turquoise" stroke="white"
         stroke-width="1" stroke-linejoin="round"
         points="165.000,129.904 170.000,138.564 180.000,138.564 165.000,112.583 160.000,121.244 150.000,121.244 155.000,129.904">
<desc>H7</desc>
</polygon>
<polygon fill="turquoise" stroke="white"
         stroke-width="1" stroke-linejoin="round"
         points="70.000,121.244 75.000,129.904 90.000,103.923 80.000,103.923 75.000,112.583 65.000,112.583 60.000,121.244">
<desc>h7</desc>
</polygon>
<polygon fill="navy" stroke="white"
         stroke-width="1" stroke-linejoin="round"
         points="105.000,129.904 115.000,129.904 120.000,121.244 115.000,112.583 125.000,112.583 120.000,103.923 110.000,103.923 105.000,112.583 110.000,121.244">
<desc>s7</desc>
</polygon>
<polygon fill="lightcoral" stroke="white"
         stroke-width="1" stroke-linejoin="round"
         points="120.000,121.244 125.000,129.904 135.000,112.583 145.000,112.583 140.000,103.923 130.000,103.923 125.000,112.583 115.000,112.583">
<desc>Q7</desc>
</polygon>
<polygon fill="olive" stroke="white"
         stroke-width="1" stroke-linejoin="round"
         points="125.000,129.904 135.000,129.904 140.000,121.244 160.000,121.244 155.000,112.583 135.000,112.583">
<desc>R7</desc>
</polygon>
<polygon fill="indigo" stroke="white"
         stroke-width="1" stroke-linejoin="round"
         points="55.000,112.583 60.000,121.244 65.000,112.583 75.000,112.583 70.000,103.923 60.000,103.923 55.000,95.263 45.000,112.583">
<desc>X7</desc>
</polygon>
<polygon fill="orangered" stroke="white"
         stroke-width="1" stroke-linejoin="round"
         points="95.000,112.583 100.000,121.244 110.000,121.244 105.000,112.583 110.000,103.923 105.000,95.263 95.000,95.263 100.000,103.923 90.000,103.923">
<desc>Z7</desc>
</polygon>
<polygon fill="yellow" stroke="white"
         stroke-width="1" stroke-linejoin="round"
         points="155.000,112.583 160.000,121.244 165.000,112.583 155.000,95.263 145.000,95.263 150.000,103.923 140.000,103.923 145.000,112.583">
<desc>Y7</desc>
</polygon>
<polygon fill="magenta" stroke="white"
         stroke-width="1" stroke-linejoin="round"
         points="70.000,103.923 75.000,112.583 80.000,103.923 100.000,103.923 95.000,95.263 65.000,95.263">
<desc>p7</desc>
</polygon>
<polygon fill="indigo" stroke="white"
         stroke-width="1" stroke-linejoin="round"
         points="120.000,103.923 125.000,112.583 135.000,95.263 125.000,95.263 120.000,86.603 110.000,86.603 115.000,95.263 110.000,103.923">
<desc>x7</desc>
</polygon>
<polygon fill="peru" stroke="white"
         stroke-width="1" stroke-linejoin="round"
         points="55.000,95.263 60.000,103.923 70.000,103.923 65.000,95.263 75.000,95.263 80.000,86.603 70.000,86.603 65.000,77.942">
<desc>A7</desc>
</polygon>
<polygon fill="teal" stroke="white"
         stroke-width="1" stroke-linejoin="round"
         points="105.000,95.263 110.000,103.923 115.000,95.263 105.000,77.942 100.000,86.603 90.000,86.603 85.000,95.263">
<desc>t7</desc>
</polygon>
<polygon fill="red" stroke="white"
         stroke-width="1" stroke-linejoin="round"
         points="130.000,103.923 150.000,103.923 145.000,95.263 155.000,95.263 145.000,77.942">
<desc>M7</desc>
</polygon>
<polygon fill="gray" stroke="white"
         stroke-width="1" stroke-linejoin="round"
         points="75.000,95.263 85.000,95.263 90.000,86.603 85.000,77.942 90.000,69.282 85.000,60.622 75.000,77.942 80.000,86.603">
<desc>n7</desc>
</polygon>
<polygon fill="navy" stroke="white"
         stroke-width="1" stroke-linejoin="round"
         points="120.000,86.603 125.000,95.263 135.000,95.263 140.000,86.603 130.000,86.603 135.000,77.942 130.000,69.282 120.000,69.282 125.000,77.942">
<desc>S7</desc>
</polygon>
<polygon fill="steelblue" stroke="white"
         stroke-width="1" stroke-linejoin="round"
         points="65.000,77.942 70.000,86.603 80.000,86.603 75.000,77.942 85.000,60.622 80.000,51.962">
<desc>L7</desc>
</polygon>
<polygon fill="lime" stroke="white"
         stroke-width="1" stroke-linejoin="round"
         points="130.000,86.603 140.000,86.603 145.000,77.942 135.000,60.622 125.000,60.622 120.000,69.282 130.000,69.282 135.000,77.942">
<desc>C7</desc>
</polygon>
<polygon fill="darkseagreen" stroke="white"
         stroke-width="1" stroke-linejoin="round"
         points="85.000,60.622 90.000,69.282 100.000,69.282 95.000,60.622 100.000,51.962 90.000,51.962 95.000,43.301 85.000,43.301 80.000,51.962">
<desc>f7</desc>
</polygon>
<polygon fill="teal" stroke="white"
         stroke-width="1" stroke-linejoin="round"
         points="110.000,69.282 120.000,69.282 125.000,60.622 135.000,60.622 125.000,43.301 115.000,43.301 120.000,51.962">
<desc>T7</desc>
</polygon>
<polygon fill="tan" stroke="white"
         stroke-width="1" stroke-linejoin="round"
         points="110.000,51.962 115.000,60.622 120.000,51.962 115.000,43.301 125.000,43.301 115.000,25.981 105.000,43.301">
<desc>U7</desc>
</polygon>
<polygon fill="plum" stroke="white"
         stroke-width="1" stroke-linejoin="round"
         points="90.000,51.962 100.000,51.962 110.000,34.641 100.000,34.641 95.000,25.981 85.000,43.301 95.000,43.301">
<desc>B7</desc>
</polygon>
<polygon fill="green" stroke="white"
         stroke-width="1" stroke-linejoin="round"
         points="95.000,25.981 100.000,34.641 110.000,34.641 115.000,25.981 105.000,8.660">
<desc>D7</desc>
</polygon>
</g>
</svg>
