<?xml version="1.0" standalone="no"?>
<!-- Created by Polyform Puzzler (http://puzzler.sourceforge.net/) -->
<svg width="200.000" height="86.603"
     viewBox="0 0 200.000 86.603"
     xmlns="http://www.w3.org/2000/svg"
     xmlns:xlink="http://www.w3.org/1999/xlink">
<g>
<polygon fill="green" stroke="white"
         stroke-width="1" stroke-linejoin="round"
         points="45.000,69.282 50.000,77.942 60.000,77.942 65.000,69.282 60.000,60.622 50.000,60.622">
<desc>O6</desc>
</polygon>
<polygon fill="blue" stroke="white"
         stroke-width="1" stroke-linejoin="round"
         points="135.000,69.282 140.000,77.942 150.000,77.942 135.000,51.962 125.000,51.962">
<desc>I6</desc>
</polygon>
<polygon fill="magenta" stroke="white"
         stroke-width="1" stroke-linejoin="round"
         points="145.000,69.282 150.000,77.942 155.000,69.282 150.000,60.622 155.000,51.962 135.000,51.962">
<desc>p6</desc>
</polygon>
<polygon fill="maroon" stroke="white"
         stroke-width="1" stroke-linejoin="round"
         points="60.000,60.622 65.000,69.282 75.000,69.282 80.000,60.622 70.000,43.301 65.000,51.962 70.000,60.622">
<desc>g6</desc>
</polygon>
<polygon fill="lime" stroke="white"
         stroke-width="1" stroke-linejoin="round"
         points="120.000,60.622 125.000,69.282 135.000,69.282 125.000,51.962 130.000,43.301 120.000,43.301 115.000,51.962">
<desc>j6</desc>
</polygon>
<polygon fill="plum" stroke="white"
         stroke-width="1" stroke-linejoin="round"
         points="45.000,51.962 50.000,60.622 70.000,60.622 60.000,43.301 55.000,51.962 50.000,43.301">
<desc>f6</desc>
</polygon>
<polygon fill="blue" stroke="white"
         stroke-width="1" stroke-linejoin="round"
         points="75.000,51.962 80.000,60.622 85.000,51.962 70.000,25.981 65.000,34.641">
<desc>i6</desc>
</polygon>
<polygon fill="turquoise" stroke="white"
         stroke-width="1" stroke-linejoin="round"
         points="80.000,60.622 90.000,60.622 95.000,51.962 105.000,51.962 100.000,43.301 80.000,43.301 85.000,51.962">
<desc>h6</desc>
</polygon>
<polygon fill="lime" stroke="white"
         stroke-width="1" stroke-linejoin="round"
         points="105.000,51.962 110.000,60.622 120.000,60.622 115.000,51.962 125.000,34.641 115.000,34.641">
<desc>J6</desc>
</polygon>
<polygon fill="gold" stroke="white"
         stroke-width="1" stroke-linejoin="round"
         points="50.000,43.301 55.000,51.962 60.000,43.301 65.000,51.962 70.000,43.301 60.000,25.981">
<desc>V6</desc>
</polygon>
<polygon fill="navy" stroke="white"
         stroke-width="1" stroke-linejoin="round"
         points="100.000,43.301 105.000,51.962 110.000,43.301 105.000,34.641 95.000,34.641 90.000,25.981 85.000,34.641 90.000,43.301">
<desc>s6</desc>
</polygon>
<polygon fill="plum" stroke="white"
         stroke-width="1" stroke-linejoin="round"
         points="125.000,51.962 145.000,51.962 135.000,34.641 125.000,34.641 120.000,43.301 130.000,43.301">
<desc>F6</desc>
</polygon>
<polygon fill="turquoise" stroke="white"
         stroke-width="1" stroke-linejoin="round"
         points="140.000,43.301 145.000,51.962 155.000,51.962 150.000,43.301 155.000,34.641 150.000,25.981 145.000,34.641 135.000,34.641">
<desc>H6</desc>
</polygon>
<polygon fill="blueviolet" stroke="white"
         stroke-width="1" stroke-linejoin="round"
         points="45.000,34.641 50.000,43.301 60.000,25.981 50.000,8.660 45.000,17.321 50.000,25.981">
<desc>C6</desc>
</polygon>
<polygon fill="darkorange" stroke="white"
         stroke-width="1" stroke-linejoin="round"
         points="75.000,34.641 80.000,43.301 90.000,43.301 85.000,34.641 90.000,25.981 80.000,25.981 75.000,17.321 70.000,25.981">
<desc>E6</desc>
</polygon>
<polygon fill="navy" stroke="white"
         stroke-width="1" stroke-linejoin="round"
         points="105.000,34.641 110.000,43.301 115.000,34.641 125.000,34.641 130.000,25.981 125.000,17.321 120.000,25.981 110.000,25.981">
<desc>S6</desc>
</polygon>
<polygon fill="magenta" stroke="white"
         stroke-width="1" stroke-linejoin="round"
         points="60.000,25.981 65.000,34.641 75.000,17.321 65.000,17.321 60.000,8.660 50.000,8.660">
<desc>P6</desc>
</polygon>
<polygon fill="red" stroke="white"
         stroke-width="1" stroke-linejoin="round"
         points="125.000,34.641 145.000,34.641 140.000,25.981 145.000,17.321 125.000,17.321 130.000,25.981">
<desc>X6</desc>
</polygon>
<polygon fill="maroon" stroke="white"
         stroke-width="1" stroke-linejoin="round"
         points="140.000,25.981 145.000,34.641 155.000,17.321 150.000,8.660 140.000,8.660 135.000,17.321 145.000,17.321">
<desc>G6</desc>
</polygon>
</g>
</svg>
