<?xml version="1.0" standalone="no"?>
<!-- Created by Polyform Puzzler (http://puzzler.sourceforge.net/) -->
<svg width="190.0" height="69.2820323028" viewBox="0 0 190.0 69.2820323028"
     xmlns="http://www.w3.org/2000/svg"
     xmlns:xlink="http://www.w3.org/1999/xlink">
<g>
<polygon fill="plum" stroke="white"
         stroke-width="1" stroke-linejoin="round"
         points="40.000,60.622 60.000,60.622 65.000,51.962 60.000,43.301 55.000,51.962 50.000,43.301">
<desc>F6</desc>
</polygon>
<polygon fill="blue" stroke="white"
         stroke-width="1" stroke-linejoin="round"
         points="60.000,60.622 90.000,60.622 95.000,51.962 65.000,51.962">
<desc>I6</desc>
</polygon>
<polygon fill="maroon" stroke="white"
         stroke-width="1" stroke-linejoin="round"
         points="90.000,60.622 100.000,60.622 105.000,51.962 100.000,43.301 80.000,43.301 85.000,51.962 95.000,51.962">
<desc>g6</desc>
</polygon>
<polygon fill="lime" stroke="white"
         stroke-width="1" stroke-linejoin="round"
         points="100.000,60.622 110.000,60.622 115.000,51.962 105.000,34.641 95.000,34.641 105.000,51.962">
<desc>j6</desc>
</polygon>
<polygon fill="navy" stroke="white"
         stroke-width="1" stroke-linejoin="round"
         points="110.000,60.622 120.000,60.622 125.000,51.962 120.000,43.301 125.000,34.641 115.000,34.641 110.000,43.301 115.000,51.962">
<desc>s6</desc>
</polygon>
<polygon fill="magenta" stroke="white"
         stroke-width="1" stroke-linejoin="round"
         points="120.000,60.622 150.000,60.622 145.000,51.962 135.000,51.962 130.000,43.301">
<desc>p6</desc>
</polygon>
<polygon fill="turquoise" stroke="white"
         stroke-width="1" stroke-linejoin="round"
         points="50.000,43.301 55.000,51.962 60.000,43.301 70.000,43.301 60.000,25.981 50.000,25.981 55.000,34.641">
<desc>H6</desc>
</polygon>
<polygon fill="gold" stroke="white"
         stroke-width="1" stroke-linejoin="round"
         points="60.000,43.301 65.000,51.962 85.000,51.962 75.000,34.641 65.000,34.641 70.000,43.301">
<desc>V6</desc>
</polygon>
<polygon fill="maroon" stroke="white"
         stroke-width="1" stroke-linejoin="round"
         points="120.000,43.301 125.000,51.962 130.000,43.301 135.000,51.962 145.000,51.962 135.000,34.641 125.000,34.641">
<desc>G6</desc>
</polygon>
<polygon fill="turquoise" stroke="white"
         stroke-width="1" stroke-linejoin="round"
         points="75.000,34.641 80.000,43.301 100.000,43.301 95.000,34.641 100.000,25.981 90.000,25.981 85.000,34.641">
<desc>h6</desc>
</polygon>
<polygon fill="darkorange" stroke="white"
         stroke-width="1" stroke-linejoin="round"
         points="105.000,34.641 110.000,43.301 115.000,34.641 125.000,34.641 120.000,25.981 100.000,25.981 95.000,34.641">
<desc>E6</desc>
</polygon>
<polygon fill="plum" stroke="white"
         stroke-width="1" stroke-linejoin="round"
         points="60.000,25.981 65.000,34.641 75.000,34.641 85.000,17.321 65.000,17.321 70.000,25.981">
<desc>f6</desc>
</polygon>
<polygon fill="lime" stroke="white"
         stroke-width="1" stroke-linejoin="round"
         points="75.000,34.641 85.000,34.641 95.000,17.321 90.000,8.660 80.000,8.660 85.000,17.321">
<desc>J6</desc>
</polygon>
<polygon fill="navy" stroke="white"
         stroke-width="1" stroke-linejoin="round"
         points="120.000,25.981 125.000,34.641 135.000,34.641 130.000,25.981 135.000,17.321 130.000,8.660 120.000,8.660 125.000,17.321">
<desc>S6</desc>
</polygon>
<polygon fill="magenta" stroke="white"
         stroke-width="1" stroke-linejoin="round"
         points="130.000,25.981 135.000,34.641 150.000,8.660 130.000,8.660 135.000,17.321">
<desc>P6</desc>
</polygon>
<polygon fill="blueviolet" stroke="white"
         stroke-width="1" stroke-linejoin="round"
         points="45.000,17.321 50.000,25.981 70.000,25.981 65.000,17.321 55.000,17.321 50.000,8.660 40.000,8.660">
<desc>C6</desc>
</polygon>
<polygon fill="red" stroke="white"
         stroke-width="1" stroke-linejoin="round"
         points="90.000,25.981 110.000,25.981 105.000,17.321 110.000,8.660 90.000,8.660 95.000,17.321">
<desc>X6</desc>
</polygon>
<polygon fill="green" stroke="white"
         stroke-width="1" stroke-linejoin="round"
         points="105.000,17.321 110.000,25.981 120.000,25.981 125.000,17.321 120.000,8.660 110.000,8.660">
<desc>O6</desc>
</polygon>
<polygon fill="blue" stroke="white"
         stroke-width="1" stroke-linejoin="round"
         points="50.000,8.660 55.000,17.321 85.000,17.321 80.000,8.660">
<desc>i6</desc>
</polygon>
</g>
</svg>
