<?xml version="1.0" standalone="no"?>
<!-- Created by Polyform Puzzler (http://puzzler.sourceforge.net/) -->
<svg width="185.000" height="112.583"
     viewBox="0 0 185.000 112.583"
     xmlns="http://www.w3.org/2000/svg"
     xmlns:xlink="http://www.w3.org/1999/xlink">
<g>
<polygon fill="darkorange" stroke="white"
         stroke-width="1" stroke-linejoin="round"
         points="15.000,95.263 20.000,103.923 25.000,95.263 35.000,95.263 30.000,86.603 35.000,77.942 25.000,77.942">
<desc>E6</desc>
</polygon>
<polygon fill="blueviolet" stroke="white"
         stroke-width="1" stroke-linejoin="round"
         points="20.000,103.923 40.000,103.923 50.000,86.603 40.000,86.603 35.000,95.263 25.000,95.263">
<desc>C6</desc>
</polygon>
<polygon fill="blue" stroke="white"
         stroke-width="1" stroke-linejoin="round"
         points="40.000,103.923 50.000,103.923 65.000,77.942 55.000,77.942">
<desc>i6</desc>
</polygon>
<polygon fill="magenta" stroke="white"
         stroke-width="1" stroke-linejoin="round"
         points="85.000,95.263 90.000,103.923 95.000,95.263 105.000,95.263 110.000,86.603 80.000,86.603">
<desc>P6</desc>
</polygon>
<polygon fill="blue" stroke="white"
         stroke-width="1" stroke-linejoin="round"
         points="90.000,103.923 120.000,103.923 125.000,95.263 95.000,95.263">
<desc>I6</desc>
</polygon>
<polygon fill="maroon" stroke="white"
         stroke-width="1" stroke-linejoin="round"
         points="30.000,86.603 35.000,95.263 45.000,77.942 40.000,69.282 30.000,69.282 25.000,77.942 35.000,77.942">
<desc>G6</desc>
</polygon>
<polygon fill="navy" stroke="white"
         stroke-width="1" stroke-linejoin="round"
         points="60.000,86.603 65.000,95.263 75.000,95.263 70.000,86.603 75.000,77.942 70.000,69.282 60.000,69.282 65.000,77.942">
<desc>S6</desc>
</polygon>
<polygon fill="turquoise" stroke="white"
         stroke-width="1" stroke-linejoin="round"
         points="70.000,86.603 75.000,95.263 80.000,86.603 90.000,86.603 80.000,69.282 70.000,69.282 75.000,77.942">
<desc>H6</desc>
</polygon>
<polygon fill="magenta" stroke="white"
         stroke-width="1" stroke-linejoin="round"
         points="105.000,95.263 125.000,95.263 110.000,69.282 105.000,77.942 110.000,86.603">
<desc>p6</desc>
</polygon>
<polygon fill="turquoise" stroke="white"
         stroke-width="1" stroke-linejoin="round"
         points="40.000,86.603 50.000,86.603 55.000,77.942 65.000,77.942 60.000,69.282 40.000,69.282 45.000,77.942">
<desc>h6</desc>
</polygon>
<polygon fill="lime" stroke="white"
         stroke-width="1" stroke-linejoin="round"
         points="85.000,77.942 90.000,86.603 95.000,77.942 85.000,60.622 75.000,60.622 70.000,69.282 80.000,69.282">
<desc>J6</desc>
</polygon>
<polygon fill="red" stroke="white"
         stroke-width="1" stroke-linejoin="round"
         points="90.000,86.603 110.000,86.603 105.000,77.942 110.000,69.282 90.000,69.282 95.000,77.942">
<desc>X6</desc>
</polygon>
<polygon fill="lime" stroke="white"
         stroke-width="1" stroke-linejoin="round"
         points="45.000,60.622 50.000,69.282 70.000,69.282 75.000,60.622 55.000,60.622 50.000,51.962">
<desc>j6</desc>
</polygon>
<polygon fill="navy" stroke="white"
         stroke-width="1" stroke-linejoin="round"
         points="85.000,60.622 90.000,69.282 95.000,60.622 90.000,51.962 80.000,51.962 75.000,43.301 70.000,51.962 75.000,60.622">
<desc>s6</desc>
</polygon>
<polygon fill="gold" stroke="white"
         stroke-width="1" stroke-linejoin="round"
         points="50.000,51.962 55.000,60.622 75.000,60.622 65.000,43.301 55.000,43.301 60.000,51.962">
<desc>V6</desc>
</polygon>
<polygon fill="plum" stroke="white"
         stroke-width="1" stroke-linejoin="round"
         points="65.000,43.301 70.000,51.962 75.000,43.301 80.000,51.962 90.000,34.641 70.000,34.641">
<desc>F6</desc>
</polygon>
<polygon fill="green" stroke="white"
         stroke-width="1" stroke-linejoin="round"
         points="50.000,34.641 55.000,43.301 65.000,43.301 70.000,34.641 65.000,25.981 55.000,25.981">
<desc>O6</desc>
</polygon>
<polygon fill="plum" stroke="white"
         stroke-width="1" stroke-linejoin="round"
         points="65.000,25.981 70.000,34.641 90.000,34.641 80.000,17.321 75.000,25.981 70.000,17.321">
<desc>f6</desc>
</polygon>
<polygon fill="maroon" stroke="white"
         stroke-width="1" stroke-linejoin="round"
         points="55.000,25.981 65.000,25.981 70.000,17.321 75.000,25.981 80.000,17.321 75.000,8.660 65.000,8.660">
<desc>g6</desc>
</polygon>
</g>
</svg>
