<?xml version="1.0" standalone="no"?>
<!-- Created by Polyform Puzzler (http://puzzler.sourceforge.net/) -->
<svg width="200.000" height="121.244"
     viewBox="0 0 200.000 121.244"
     xmlns="http://www.w3.org/2000/svg"
     xmlns:xlink="http://www.w3.org/1999/xlink">
<g>
<polygon fill="brown" stroke="white"
         stroke-width="1" stroke-linejoin="round"
         points="15.000,103.923 20.000,112.583 30.000,112.583 25.000,103.923 30.000,95.263 20.000,95.263">
<desc>C4</desc>
</polygon>
<polygon fill="steelblue" stroke="white"
         stroke-width="1" stroke-linejoin="round"
         points="25.000,103.923 30.000,112.583 40.000,112.583 35.000,103.923">
<desc>D2</desc>
</polygon>
<polygon fill="plum" stroke="white"
         stroke-width="1" stroke-linejoin="round"
         points="35.000,103.923 40.000,112.583 60.000,112.583 55.000,103.923">
<desc>i4</desc>
</polygon>
<polygon fill="plum" stroke="white"
         stroke-width="1" stroke-linejoin="round"
         points="55.000,103.923 60.000,112.583 70.000,112.583 80.000,95.263 60.000,95.263 65.000,103.923">
<desc>f6</desc>
</polygon>
<polygon fill="tomato" stroke="white"
         stroke-width="1" stroke-linejoin="round"
         points="70.000,112.583 90.000,112.583 80.000,95.263">
<desc>T4</desc>
</polygon>
<polygon fill="darkseagreen" stroke="white"
         stroke-width="1" stroke-linejoin="round"
         points="85.000,103.923 90.000,112.583 95.000,103.923 90.000,95.263 95.000,86.603 85.000,86.603 80.000,95.263">
<desc>l5</desc>
</polygon>
<polygon fill="red" stroke="white"
         stroke-width="1" stroke-linejoin="round"
         points="90.000,112.583 110.000,112.583 105.000,103.923 110.000,95.263 90.000,95.263 95.000,103.923">
<desc>X6</desc>
</polygon>
<polygon fill="lime" stroke="white"
         stroke-width="1" stroke-linejoin="round"
         points="105.000,103.923 110.000,112.583 130.000,112.583 135.000,103.923 115.000,103.923 110.000,95.263">
<desc>j6</desc>
</polygon>
<polygon fill="olive" stroke="white"
         stroke-width="1" stroke-linejoin="round"
         points="25.000,103.923 35.000,103.923 40.000,95.263 35.000,86.603 25.000,86.603 20.000,95.263 30.000,95.263">
<desc>C5</desc>
</polygon>
<polygon fill="magenta" stroke="white"
         stroke-width="1" stroke-linejoin="round"
         points="35.000,103.923 65.000,103.923 55.000,86.603 50.000,95.263 40.000,95.263">
<desc>P6</desc>
</polygon>
<polygon fill="indigo" stroke="white"
         stroke-width="1" stroke-linejoin="round"
         points="110.000,95.263 115.000,103.923 135.000,103.923 125.000,86.603 120.000,95.263">
<desc>p5</desc>
</polygon>
<polygon fill="green" stroke="white"
         stroke-width="1" stroke-linejoin="round"
         points="35.000,86.603 40.000,95.263 50.000,95.263 55.000,86.603 50.000,77.942 40.000,77.942">
<desc>O6</desc>
</polygon>
<polygon fill="maroon" stroke="white"
         stroke-width="1" stroke-linejoin="round"
         points="55.000,86.603 60.000,95.263 70.000,95.263 75.000,86.603 65.000,69.282 60.000,77.942 65.000,86.603">
<desc>g6</desc>
</polygon>
<polygon fill="turquoise" stroke="white"
         stroke-width="1" stroke-linejoin="round"
         points="70.000,95.263 80.000,95.263 85.000,86.603 95.000,86.603 90.000,77.942 70.000,77.942 75.000,86.603">
<desc>h6</desc>
</polygon>
<polygon fill="navy" stroke="white"
         stroke-width="1" stroke-linejoin="round"
         points="90.000,95.263 100.000,95.263 105.000,86.603 100.000,77.942 105.000,69.282 95.000,69.282 90.000,77.942 95.000,86.603">
<desc>s6</desc>
</polygon>
<polygon fill="magenta" stroke="white"
         stroke-width="1" stroke-linejoin="round"
         points="100.000,95.263 120.000,95.263 105.000,69.282 100.000,77.942 105.000,86.603">
<desc>p6</desc>
</polygon>
<polygon fill="blue" stroke="white"
         stroke-width="1" stroke-linejoin="round"
         points="115.000,86.603 120.000,95.263 125.000,86.603 110.000,60.622 105.000,69.282">
<desc>i6</desc>
</polygon>
<polygon fill="blueviolet" stroke="white"
         stroke-width="1" stroke-linejoin="round"
         points="25.000,86.603 35.000,86.603 40.000,77.942 50.000,77.942 55.000,69.282 35.000,69.282">
<desc>C6</desc>
</polygon>
<polygon fill="darkseagreen" stroke="white"
         stroke-width="1" stroke-linejoin="round"
         points="50.000,77.942 55.000,86.603 65.000,86.603 60.000,77.942 65.000,69.282 60.000,60.622">
<desc>L5</desc>
</polygon>
<polygon fill="blue" stroke="white"
         stroke-width="1" stroke-linejoin="round"
         points="65.000,69.282 70.000,77.942 80.000,77.942 65.000,51.962 55.000,51.962">
<desc>I6</desc>
</polygon>
<polygon fill="indigo" stroke="white"
         stroke-width="1" stroke-linejoin="round"
         points="75.000,69.282 80.000,77.942 90.000,77.942 85.000,69.282 90.000,60.622 70.000,60.622">
<desc>P5</desc>
</polygon>
<polygon fill="navy" stroke="white"
         stroke-width="1" stroke-linejoin="round"
         points="85.000,69.282 90.000,77.942 95.000,69.282 105.000,69.282 110.000,60.622 105.000,51.962 100.000,60.622 90.000,60.622">
<desc>S6</desc>
</polygon>
<polygon fill="plum" stroke="white"
         stroke-width="1" stroke-linejoin="round"
         points="35.000,69.282 55.000,69.282 60.000,60.622 55.000,51.962 50.000,60.622 45.000,51.962">
<desc>F6</desc>
</polygon>
<polygon fill="darkorange" stroke="white"
         stroke-width="1" stroke-linejoin="round"
         points="45.000,51.962 50.000,60.622 55.000,51.962 65.000,51.962 60.000,43.301 65.000,34.641 55.000,34.641">
<desc>E6</desc>
</polygon>
<polygon fill="orangered" stroke="white"
         stroke-width="1" stroke-linejoin="round"
         points="65.000,51.962 70.000,60.622 80.000,60.622 65.000,34.641 60.000,43.301">
<desc>I5</desc>
</polygon>
<polygon fill="gold" stroke="white"
         stroke-width="1" stroke-linejoin="round"
         points="75.000,51.962 80.000,60.622 100.000,60.622 90.000,43.301 80.000,43.301 85.000,51.962">
<desc>V6</desc>
</polygon>
<polygon fill="lime" stroke="white"
         stroke-width="1" stroke-linejoin="round"
         points="95.000,51.962 100.000,60.622 105.000,51.962 95.000,34.641 85.000,34.641 80.000,43.301 90.000,43.301">
<desc>J6</desc>
</polygon>
<polygon fill="plum" stroke="white"
         stroke-width="1" stroke-linejoin="round"
         points="70.000,43.301 75.000,51.962 85.000,51.962 75.000,34.641 65.000,34.641">
<desc>I4</desc>
</polygon>
<polygon fill="turquoise" stroke="white"
         stroke-width="1" stroke-linejoin="round"
         points="75.000,34.641 80.000,43.301 85.000,34.641 95.000,34.641 85.000,17.321 75.000,17.321 80.000,25.981">
<desc>H6</desc>
</polygon>
<polygon fill="maroon" stroke="white"
         stroke-width="1" stroke-linejoin="round"
         points="55.000,34.641 75.000,34.641 80.000,25.981 75.000,17.321 65.000,17.321 70.000,25.981 60.000,25.981">
<desc>G6</desc>
</polygon>
<polygon fill="gray" stroke="white"
         stroke-width="1" stroke-linejoin="round"
         points="60.000,25.981 70.000,25.981 65.000,17.321">
<desc>T1</desc>
</polygon>
<polygon fill="teal" stroke="white"
         stroke-width="1" stroke-linejoin="round"
         points="65.000,17.321 85.000,17.321 80.000,8.660 70.000,8.660">
<desc>I3</desc>
</polygon>
</g>
</svg>
