<?xml version="1.0" standalone="no"?>
<!-- Created by Polyform Puzzler (http://puzzler.sourceforge.net/) -->
<svg width="245.000" height="147.224"
     viewBox="0 0 245.000 147.224"
     xmlns="http://www.w3.org/2000/svg"
     xmlns:xlink="http://www.w3.org/1999/xlink">
<g>
<polygon fill="yellowgreen" stroke="white"
         stroke-width="1" stroke-linejoin="round"
         points="45.000,129.904 50.000,138.564 60.000,138.564 50.000,121.244 60.000,121.244 55.000,112.583 45.000,112.583 40.000,121.244">
<desc>j7</desc>
</polygon>
<polygon fill="tan" stroke="white"
         stroke-width="1" stroke-linejoin="round"
         points="55.000,129.904 60.000,138.564 80.000,138.564 70.000,121.244 65.000,129.904 60.000,121.244 50.000,121.244">
<desc>u7</desc>
</polygon>
<polygon fill="tan" stroke="white"
         stroke-width="1" stroke-linejoin="round"
         points="75.000,129.904 80.000,138.564 100.000,138.564 95.000,129.904 85.000,129.904 90.000,121.244 70.000,121.244">
<desc>U7</desc>
</polygon>
<polygon fill="steelblue" stroke="white"
         stroke-width="1" stroke-linejoin="round"
         points="95.000,129.904 100.000,138.564 130.000,138.564 125.000,129.904 105.000,129.904 100.000,121.244">
<desc>l7</desc>
</polygon>
<polygon fill="teal" stroke="white"
         stroke-width="1" stroke-linejoin="round"
         points="125.000,129.904 130.000,138.564 135.000,129.904 125.000,112.583 120.000,121.244 110.000,121.244 105.000,129.904">
<desc>t7</desc>
</polygon>
<polygon fill="plum" stroke="white"
         stroke-width="1" stroke-linejoin="round"
         points="130.000,138.564 150.000,138.564 155.000,129.904 145.000,129.904 150.000,121.244 130.000,121.244 135.000,129.904">
<desc>b7</desc>
</polygon>
<polygon fill="orangered" stroke="white"
         stroke-width="1" stroke-linejoin="round"
         points="150.000,138.564 160.000,138.564 165.000,129.904 160.000,121.244 165.000,112.583 155.000,112.583 145.000,129.904 155.000,129.904">
<desc>z7</desc>
</polygon>
<polygon fill="indigo" stroke="white"
         stroke-width="1" stroke-linejoin="round"
         points="60.000,121.244 65.000,129.904 70.000,121.244 80.000,121.244 75.000,112.583 80.000,103.923 60.000,103.923 65.000,112.583">
<desc>x7</desc>
</polygon>
<polygon fill="yellow" stroke="white"
         stroke-width="1" stroke-linejoin="round"
         points="85.000,129.904 95.000,129.904 105.000,112.583 100.000,103.923 95.000,112.583 85.000,112.583 80.000,121.244 90.000,121.244">
<desc>y7</desc>
</polygon>
<polygon fill="blueviolet" stroke="white"
         stroke-width="1" stroke-linejoin="round"
         points="100.000,121.244 105.000,129.904 110.000,121.244 120.000,121.244 125.000,112.583 115.000,112.583 110.000,103.923 100.000,103.923 105.000,112.583">
<desc>W7</desc>
</polygon>
<polygon fill="gold" stroke="white"
         stroke-width="1" stroke-linejoin="round"
         points="160.000,121.244 165.000,129.904 175.000,112.583 170.000,103.923 150.000,103.923 155.000,112.583 165.000,112.583">
<desc>V7</desc>
</polygon>
<polygon fill="peru" stroke="white"
         stroke-width="1" stroke-linejoin="round"
         points="35.000,112.583 40.000,121.244 45.000,112.583 55.000,112.583 50.000,103.923 40.000,103.923 45.000,95.263 35.000,95.263 30.000,103.923">
<desc>a7</desc>
</polygon>
<polygon fill="teal" stroke="white"
         stroke-width="1" stroke-linejoin="round"
         points="55.000,112.583 60.000,121.244 65.000,112.583 60.000,103.923 65.000,95.263 45.000,95.263 40.000,103.923 50.000,103.923">
<desc>T7</desc>
</polygon>
<polygon fill="navy" stroke="white"
         stroke-width="1" stroke-linejoin="round"
         points="75.000,112.583 80.000,121.244 85.000,112.583 95.000,112.583 100.000,103.923 95.000,95.263 85.000,95.263 90.000,103.923 80.000,103.923">
<desc>S7</desc>
</polygon>
<polygon fill="orangered" stroke="white"
         stroke-width="1" stroke-linejoin="round"
         points="125.000,112.583 130.000,121.244 140.000,121.244 145.000,112.583 135.000,112.583 140.000,103.923 120.000,103.923 115.000,112.583">
<desc>Z7</desc>
</polygon>
<polygon fill="darkseagreen" stroke="white"
         stroke-width="1" stroke-linejoin="round"
         points="140.000,121.244 150.000,121.244 155.000,112.583 145.000,95.263 135.000,95.263 140.000,103.923 135.000,112.583 145.000,112.583">
<desc>f7</desc>
</polygon>
<polygon fill="turquoise" stroke="white"
         stroke-width="1" stroke-linejoin="round"
         points="110.000,103.923 115.000,112.583 130.000,86.603 120.000,86.603 115.000,95.263 105.000,95.263 100.000,103.923">
<desc>h7</desc>
</polygon>
<polygon fill="darkorange" stroke="white"
         stroke-width="1" stroke-linejoin="round"
         points="170.000,103.923 175.000,112.583 180.000,103.923 165.000,77.942 160.000,86.603 165.000,95.263 160.000,103.923">
<desc>e7</desc>
</polygon>
<polygon fill="maroon" stroke="white"
         stroke-width="1" stroke-linejoin="round"
         points="60.000,103.923 70.000,103.923 80.000,86.603 50.000,86.603 55.000,95.263 65.000,95.263">
<desc>g7</desc>
</polygon>
<polygon fill="indigo" stroke="white"
         stroke-width="1" stroke-linejoin="round"
         points="95.000,95.263 100.000,103.923 110.000,86.603 100.000,86.603 95.000,77.942 90.000,86.603 80.000,86.603 85.000,95.263">
<desc>X7</desc>
</polygon>
<polygon fill="blueviolet" stroke="white"
         stroke-width="1" stroke-linejoin="round"
         points="145.000,95.263 150.000,103.923 155.000,95.263 150.000,86.603 155.000,77.942 145.000,77.942 140.000,86.603 130.000,86.603 135.000,95.263">
<desc>w7</desc>
</polygon>
<polygon fill="gray" stroke="white"
         stroke-width="1" stroke-linejoin="round"
         points="150.000,103.923 160.000,103.923 165.000,95.263 160.000,86.603 165.000,77.942 160.000,69.282 150.000,86.603 155.000,95.263">
<desc>n7</desc>
</polygon>
<polygon fill="magenta" stroke="white"
         stroke-width="1" stroke-linejoin="round"
         points="35.000,95.263 55.000,95.263 50.000,86.603 60.000,69.282 50.000,69.282">
<desc>p7</desc>
</polygon>
<polygon fill="yellow" stroke="white"
         stroke-width="1" stroke-linejoin="round"
         points="105.000,95.263 115.000,95.263 120.000,86.603 130.000,86.603 125.000,77.942 105.000,77.942 100.000,86.603 110.000,86.603">
<desc>Y7</desc>
</polygon>
<polygon fill="olive" stroke="white"
         stroke-width="1" stroke-linejoin="round"
         points="50.000,86.603 60.000,86.603 65.000,77.942 85.000,77.942 80.000,69.282 60.000,69.282">
<desc>R7</desc>
</polygon>
<polygon fill="steelblue" stroke="white"
         stroke-width="1" stroke-linejoin="round"
         points="60.000,86.603 90.000,86.603 95.000,77.942 90.000,69.282 85.000,77.942 65.000,77.942">
<desc>L7</desc>
</polygon>
<polygon fill="red" stroke="white"
         stroke-width="1" stroke-linejoin="round"
         points="95.000,77.942 100.000,86.603 115.000,60.622 95.000,60.622 100.000,69.282 90.000,69.282">
<desc>M7</desc>
</polygon>
<polygon fill="olive" stroke="white"
         stroke-width="1" stroke-linejoin="round"
         points="125.000,77.942 130.000,86.603 140.000,86.603 130.000,69.282 110.000,69.282 105.000,77.942">
<desc>r7</desc>
</polygon>
<polygon fill="lightcoral" stroke="white"
         stroke-width="1" stroke-linejoin="round"
         points="135.000,77.942 140.000,86.603 150.000,69.282 140.000,69.282 135.000,60.622 125.000,60.622 120.000,69.282 130.000,69.282">
<desc>q7</desc>
</polygon>
<polygon fill="darkorange" stroke="white"
         stroke-width="1" stroke-linejoin="round"
         points="80.000,69.282 85.000,77.942 90.000,69.282 100.000,69.282 95.000,60.622 100.000,51.962 95.000,43.301">
<desc>E7</desc>
</polygon>
<polygon fill="navy" stroke="white"
         stroke-width="1" stroke-linejoin="round"
         points="145.000,77.942 155.000,77.942 160.000,69.282 155.000,60.622 145.000,60.622 140.000,51.962 135.000,60.622 140.000,69.282 150.000,69.282">
<desc>s7</desc>
</polygon>
<polygon fill="magenta" stroke="white"
         stroke-width="1" stroke-linejoin="round"
         points="50.000,69.282 80.000,69.282 85.000,60.622 65.000,60.622 60.000,51.962">
<desc>P7</desc>
</polygon>
<polygon fill="lightcoral" stroke="white"
         stroke-width="1" stroke-linejoin="round"
         points="110.000,69.282 120.000,69.282 125.000,60.622 120.000,51.962 125.000,43.301 105.000,43.301 115.000,60.622">
<desc>Q7</desc>
</polygon>
<polygon fill="lime" stroke="white"
         stroke-width="1" stroke-linejoin="round"
         points="60.000,51.962 65.000,60.622 85.000,60.622 90.000,51.962 85.000,43.301 80.000,51.962 70.000,51.962 65.000,43.301">
<desc>C7</desc>
</polygon>
<polygon fill="gray" stroke="white"
         stroke-width="1" stroke-linejoin="round"
         points="120.000,51.962 125.000,60.622 135.000,60.622 130.000,51.962 135.000,43.301 125.000,25.981 120.000,34.641 125.000,43.301">
<desc>N7</desc>
</polygon>
<polygon fill="maroon" stroke="white"
         stroke-width="1" stroke-linejoin="round"
         points="130.000,51.962 135.000,60.622 140.000,51.962 145.000,60.622 155.000,60.622 140.000,34.641">
<desc>G7</desc>
</polygon>
<polygon fill="green" stroke="white"
         stroke-width="1" stroke-linejoin="round"
         points="65.000,43.301 70.000,51.962 80.000,51.962 85.000,43.301 75.000,25.981">
<desc>D7</desc>
</polygon>
<polygon fill="darkseagreen" stroke="white"
         stroke-width="1" stroke-linejoin="round"
         points="85.000,43.301 90.000,51.962 95.000,43.301 100.000,51.962 105.000,43.301 115.000,43.301 110.000,34.641 90.000,34.641">
<desc>F7</desc>
</polygon>
<polygon fill="plum" stroke="white"
         stroke-width="1" stroke-linejoin="round"
         points="80.000,34.641 85.000,43.301 90.000,34.641 100.000,34.641 90.000,17.321 85.000,25.981 80.000,17.321 75.000,25.981">
<desc>B7</desc>
</polygon>
<polygon fill="turquoise" stroke="white"
         stroke-width="1" stroke-linejoin="round"
         points="110.000,34.641 115.000,43.301 125.000,43.301 110.000,17.321 105.000,25.981 95.000,25.981 100.000,34.641">
<desc>H7</desc>
</polygon>
<polygon fill="blue" stroke="white"
         stroke-width="1" stroke-linejoin="round"
         points="130.000,34.641 135.000,43.301 140.000,34.641 125.000,8.660 115.000,8.660">
<desc>I7</desc>
</polygon>
<polygon fill="yellowgreen" stroke="white"
         stroke-width="1" stroke-linejoin="round"
         points="115.000,25.981 120.000,34.641 125.000,25.981 115.000,8.660 105.000,8.660 100.000,17.321 105.000,25.981 110.000,17.321">
<desc>J7</desc>
</polygon>
<polygon fill="peru" stroke="white"
         stroke-width="1" stroke-linejoin="round"
         points="80.000,17.321 85.000,25.981 90.000,17.321 95.000,25.981 105.000,25.981 100.000,17.321 105.000,8.660 85.000,8.660">
<desc>A7</desc>
</polygon>
</g>
</svg>
