<?xml version="1.0" standalone="no"?>
<!-- Created by Polyform Puzzler (http://puzzler.sourceforge.net/) -->
<svg width="200.000" height="121.244"
     viewBox="0 0 200.000 121.244"
     xmlns="http://www.w3.org/2000/svg"
     xmlns:xlink="http://www.w3.org/1999/xlink">
<g>
<polygon fill="green" stroke="white"
         stroke-width="1" stroke-linejoin="round"
         points="85.000,103.923 90.000,112.583 100.000,112.583 105.000,103.923 100.000,95.263 90.000,95.263">
<desc>O6</desc>
</polygon>
<polygon fill="lime" stroke="white"
         stroke-width="1" stroke-linejoin="round"
         points="100.000,112.583 110.000,112.583 115.000,103.923 105.000,86.603 95.000,86.603 105.000,103.923">
<desc>j6</desc>
</polygon>
<polygon fill="darkorange" stroke="white"
         stroke-width="1" stroke-linejoin="round"
         points="80.000,95.263 85.000,103.923 90.000,95.263 100.000,95.263 95.000,86.603 75.000,86.603 70.000,95.263">
<desc>E6</desc>
</polygon>
<polygon fill="red" stroke="white"
         stroke-width="1" stroke-linejoin="round"
         points="110.000,95.263 115.000,103.923 120.000,95.263 130.000,95.263 120.000,77.942 115.000,86.603 105.000,86.603">
<desc>X6</desc>
</polygon>
<polygon fill="navy" stroke="white"
         stroke-width="1" stroke-linejoin="round"
         points="55.000,86.603 60.000,95.263 70.000,95.263 75.000,86.603 85.000,86.603 80.000,77.942 70.000,77.942 65.000,86.603">
<desc>s6</desc>
</polygon>
<polygon fill="lime" stroke="white"
         stroke-width="1" stroke-linejoin="round"
         points="125.000,86.603 130.000,95.263 140.000,95.263 145.000,86.603 135.000,86.603 125.000,69.282 120.000,77.942">
<desc>J6</desc>
</polygon>
<polygon fill="blue" stroke="white"
         stroke-width="1" stroke-linejoin="round"
         points="50.000,77.942 55.000,86.603 70.000,60.622 65.000,51.962">
<desc>I6</desc>
</polygon>
<polygon fill="magenta" stroke="white"
         stroke-width="1" stroke-linejoin="round"
         points="55.000,86.603 65.000,86.603 70.000,77.942 80.000,77.942 70.000,60.622">
<desc>p6</desc>
</polygon>
<polygon fill="maroon" stroke="white"
         stroke-width="1" stroke-linejoin="round"
         points="130.000,77.942 135.000,86.603 145.000,86.603 150.000,77.942 140.000,60.622 135.000,69.282 140.000,77.942">
<desc>g6</desc>
</polygon>
<polygon fill="navy" stroke="white"
         stroke-width="1" stroke-linejoin="round"
         points="125.000,69.282 130.000,77.942 140.000,77.942 135.000,69.282 140.000,60.622 135.000,51.962 125.000,51.962 130.000,60.622">
<desc>S6</desc>
</polygon>
<polygon fill="plum" stroke="white"
         stroke-width="1" stroke-linejoin="round"
         points="55.000,51.962 60.000,60.622 65.000,51.962 70.000,60.622 75.000,51.962 70.000,43.301 50.000,43.301">
<desc>f6</desc>
</polygon>
<polygon fill="turquoise" stroke="white"
         stroke-width="1" stroke-linejoin="round"
         points="135.000,51.962 140.000,60.622 150.000,43.301 145.000,34.641 140.000,43.301 130.000,43.301 125.000,51.962">
<desc>H6</desc>
</polygon>
<polygon fill="maroon" stroke="white"
         stroke-width="1" stroke-linejoin="round"
         points="70.000,43.301 75.000,51.962 85.000,34.641 80.000,25.981 70.000,25.981 65.000,34.641 75.000,34.641">
<desc>G6</desc>
</polygon>
<polygon fill="magenta" stroke="white"
         stroke-width="1" stroke-linejoin="round"
         points="120.000,43.301 125.000,51.962 130.000,43.301 140.000,43.301 145.000,34.641 115.000,34.641">
<desc>P6</desc>
</polygon>
<polygon fill="gold" stroke="white"
         stroke-width="1" stroke-linejoin="round"
         points="50.000,43.301 70.000,43.301 75.000,34.641 65.000,34.641 70.000,25.981 60.000,25.981">
<desc>V6</desc>
</polygon>
<polygon fill="turquoise" stroke="white"
         stroke-width="1" stroke-linejoin="round"
         points="80.000,25.981 85.000,34.641 105.000,34.641 100.000,25.981 105.000,17.321 95.000,17.321 90.000,25.981">
<desc>h6</desc>
</polygon>
<polygon fill="plum" stroke="white"
         stroke-width="1" stroke-linejoin="round"
         points="100.000,25.981 105.000,34.641 115.000,34.641 110.000,25.981 120.000,25.981 110.000,8.660">
<desc>F6</desc>
</polygon>
<polygon fill="blue" stroke="white"
         stroke-width="1" stroke-linejoin="round"
         points="110.000,25.981 115.000,34.641 145.000,34.641 140.000,25.981">
<desc>i6</desc>
</polygon>
<polygon fill="blueviolet" stroke="white"
         stroke-width="1" stroke-linejoin="round"
         points="80.000,25.981 90.000,25.981 95.000,17.321 105.000,17.321 110.000,8.660 90.000,8.660">
<desc>C6</desc>
</polygon>
</g>
</svg>
