<?xml version="1.0" standalone="no"?>
<!-- Created by Polyform Puzzler (http://puzzler.sourceforge.net/) -->
<svg width="250.000" height="103.923"
     viewBox="0 0 250.000 103.923"
     xmlns="http://www.w3.org/2000/svg"
     xmlns:xlink="http://www.w3.org/1999/xlink">
<g>
<polygon fill="lime" stroke="white"
         stroke-width="1" stroke-linejoin="round"
         points="55.000,86.603 60.000,95.263 70.000,95.263 80.000,77.942 75.000,69.282 65.000,69.282 70.000,77.942 65.000,86.603">
<desc>C7</desc>
</polygon>
<polygon fill="darkorange" stroke="white"
         stroke-width="1" stroke-linejoin="round"
         points="70.000,95.263 100.000,95.263 105.000,86.603 95.000,86.603 90.000,77.942 85.000,86.603 75.000,86.603">
<desc>E7</desc>
</polygon>
<polygon fill="turquoise" stroke="white"
         stroke-width="1" stroke-linejoin="round"
         points="100.000,95.263 130.000,95.263 125.000,86.603 130.000,77.942 120.000,77.942 115.000,86.603 105.000,86.603">
<desc>H7</desc>
</polygon>
<polygon fill="gold" stroke="white"
         stroke-width="1" stroke-linejoin="round"
         points="125.000,86.603 130.000,95.263 150.000,95.263 145.000,86.603 135.000,86.603 140.000,77.942 135.000,69.282">
<desc>V7</desc>
</polygon>
<polygon fill="blueviolet" stroke="white"
         stroke-width="1" stroke-linejoin="round"
         points="145.000,86.603 150.000,95.263 160.000,95.263 155.000,86.603 160.000,77.942 155.000,69.282 150.000,77.942 140.000,77.942 135.000,86.603">
<desc>W7</desc>
</polygon>
<polygon fill="yellowgreen" stroke="white"
         stroke-width="1" stroke-linejoin="round"
         points="155.000,86.603 160.000,95.263 170.000,95.263 180.000,77.942 175.000,69.282 165.000,86.603 160.000,77.942">
<desc>j7</desc>
</polygon>
<polygon fill="lightcoral" stroke="white"
         stroke-width="1" stroke-linejoin="round"
         points="170.000,95.263 190.000,95.263 185.000,86.603 190.000,77.942 185.000,69.282 175.000,69.282 180.000,77.942">
<desc>q7</desc>
</polygon>
<polygon fill="olive" stroke="white"
         stroke-width="1" stroke-linejoin="round"
         points="185.000,86.603 190.000,95.263 200.000,77.942 190.000,60.622 180.000,60.622 190.000,77.942">
<desc>r7</desc>
</polygon>
<polygon fill="green" stroke="white"
         stroke-width="1" stroke-linejoin="round"
         points="50.000,77.942 55.000,86.603 65.000,86.603 70.000,77.942 65.000,69.282 45.000,69.282">
<desc>D7</desc>
</polygon>
<polygon fill="darkseagreen" stroke="white"
         stroke-width="1" stroke-linejoin="round"
         points="75.000,86.603 85.000,86.603 95.000,69.282 90.000,60.622 80.000,60.622 85.000,69.282 75.000,69.282 80.000,77.942">
<desc>F7</desc>
</polygon>
<polygon fill="navy" stroke="white"
         stroke-width="1" stroke-linejoin="round"
         points="90.000,77.942 95.000,86.603 105.000,86.603 110.000,77.942 100.000,77.942 105.000,69.282 100.000,60.622 90.000,60.622 95.000,69.282">
<desc>S7</desc>
</polygon>
<polygon fill="yellow" stroke="white"
         stroke-width="1" stroke-linejoin="round"
         points="105.000,86.603 115.000,86.603 120.000,77.942 130.000,77.942 125.000,69.282 105.000,69.282 100.000,77.942 110.000,77.942">
<desc>Y7</desc>
</polygon>
<polygon fill="teal" stroke="white"
         stroke-width="1" stroke-linejoin="round"
         points="160.000,77.942 165.000,86.603 175.000,69.282 185.000,69.282 180.000,60.622 160.000,60.622 165.000,69.282">
<desc>t7</desc>
</polygon>
<polygon fill="darkorange" stroke="white"
         stroke-width="1" stroke-linejoin="round"
         points="125.000,69.282 130.000,77.942 135.000,69.282 145.000,69.282 140.000,60.622 110.000,60.622 115.000,69.282">
<desc>e7</desc>
</polygon>
<polygon fill="navy" stroke="white"
         stroke-width="1" stroke-linejoin="round"
         points="135.000,69.282 140.000,77.942 150.000,77.942 155.000,69.282 160.000,77.942 165.000,69.282 160.000,60.622 150.000,60.622 145.000,69.282">
<desc>s7</desc>
</polygon>
<polygon fill="maroon" stroke="white"
         stroke-width="1" stroke-linejoin="round"
         points="195.000,69.282 200.000,77.942 215.000,51.962 205.000,51.962 200.000,60.622 195.000,51.962 190.000,60.622">
<desc>g7</desc>
</polygon>
<polygon fill="plum" stroke="white"
         stroke-width="1" stroke-linejoin="round"
         points="40.000,60.622 45.000,69.282 65.000,69.282 60.000,60.622 65.000,51.962 45.000,51.962 50.000,60.622">
<desc>B7</desc>
</polygon>
<polygon fill="steelblue" stroke="white"
         stroke-width="1" stroke-linejoin="round"
         points="60.000,60.622 65.000,69.282 75.000,69.282 70.000,60.622 80.000,43.301 75.000,34.641">
<desc>L7</desc>
</polygon>
<polygon fill="yellowgreen" stroke="white"
         stroke-width="1" stroke-linejoin="round"
         points="70.000,60.622 75.000,69.282 85.000,69.282 80.000,60.622 100.000,60.622 95.000,51.962 75.000,51.962">
<desc>J7</desc>
</polygon>
<polygon fill="teal" stroke="white"
         stroke-width="1" stroke-linejoin="round"
         points="100.000,60.622 105.000,69.282 115.000,69.282 110.000,60.622 120.000,43.301 110.000,43.301 105.000,51.962 95.000,51.962">
<desc>T7</desc>
</polygon>
<polygon fill="yellow" stroke="white"
         stroke-width="1" stroke-linejoin="round"
         points="140.000,60.622 145.000,69.282 150.000,60.622 160.000,60.622 165.000,51.962 155.000,51.962 160.000,43.301 150.000,43.301">
<desc>y7</desc>
</polygon>
<polygon fill="peru" stroke="white"
         stroke-width="1" stroke-linejoin="round"
         points="35.000,51.962 40.000,60.622 50.000,60.622 45.000,51.962 55.000,51.962 60.000,43.301 50.000,43.301 45.000,34.641">
<desc>A7</desc>
</polygon>
<polygon fill="tan" stroke="white"
         stroke-width="1" stroke-linejoin="round"
         points="135.000,51.962 140.000,60.622 150.000,43.301 140.000,43.301 145.000,34.641 140.000,25.981 130.000,43.301">
<desc>u7</desc>
</polygon>
<polygon fill="orangered" stroke="white"
         stroke-width="1" stroke-linejoin="round"
         points="160.000,60.622 170.000,60.622 175.000,51.962 170.000,43.301 175.000,34.641 165.000,34.641 155.000,51.962 165.000,51.962">
<desc>z7</desc>
</polygon>
<polygon fill="plum" stroke="white"
         stroke-width="1" stroke-linejoin="round"
         points="170.000,60.622 190.000,60.622 195.000,51.962 185.000,51.962 190.000,43.301 170.000,43.301 175.000,51.962">
<desc>b7</desc>
</polygon>
<polygon fill="turquoise" stroke="white"
         stroke-width="1" stroke-linejoin="round"
         points="195.000,51.962 200.000,60.622 205.000,51.962 215.000,51.962 200.000,25.981 195.000,34.641 200.000,43.301">
<desc>h7</desc>
</polygon>
<polygon fill="peru" stroke="white"
         stroke-width="1" stroke-linejoin="round"
         points="55.000,51.962 65.000,51.962 70.000,43.301 60.000,25.981 55.000,34.641 45.000,34.641 50.000,43.301 60.000,43.301">
<desc>a7</desc>
</polygon>
<polygon fill="magenta" stroke="white"
         stroke-width="1" stroke-linejoin="round"
         points="75.000,51.962 105.000,51.962 110.000,43.301 90.000,43.301 85.000,34.641">
<desc>P7</desc>
</polygon>
<polygon fill="gray" stroke="white"
         stroke-width="1" stroke-linejoin="round"
         points="185.000,51.962 195.000,51.962 200.000,43.301 195.000,34.641 200.000,25.981 195.000,17.321 185.000,34.641 190.000,43.301">
<desc>n7</desc>
</polygon>
<polygon fill="red" stroke="white"
         stroke-width="1" stroke-linejoin="round"
         points="65.000,34.641 70.000,43.301 75.000,34.641 80.000,43.301 90.000,25.981 60.000,25.981">
<desc>M7</desc>
</polygon>
<polygon fill="steelblue" stroke="white"
         stroke-width="1" stroke-linejoin="round"
         points="85.000,34.641 90.000,43.301 120.000,43.301 115.000,34.641 95.000,34.641 90.000,25.981">
<desc>l7</desc>
</polygon>
<polygon fill="orangered" stroke="white"
         stroke-width="1" stroke-linejoin="round"
         points="115.000,34.641 120.000,43.301 125.000,34.641 130.000,43.301 140.000,25.981 135.000,17.321 130.000,25.981 120.000,25.981">
<desc>Z7</desc>
</polygon>
<polygon fill="lightcoral" stroke="white"
         stroke-width="1" stroke-linejoin="round"
         points="140.000,43.301 150.000,43.301 155.000,34.641 150.000,25.981 155.000,17.321 135.000,17.321 145.000,34.641">
<desc>Q7</desc>
</polygon>
<polygon fill="blueviolet" stroke="white"
         stroke-width="1" stroke-linejoin="round"
         points="150.000,43.301 160.000,43.301 165.000,34.641 175.000,34.641 170.000,25.981 160.000,25.981 155.000,17.321 150.000,25.981 155.000,34.641">
<desc>w7</desc>
</polygon>
<polygon fill="indigo" stroke="white"
         stroke-width="1" stroke-linejoin="round"
         points="170.000,43.301 190.000,43.301 185.000,34.641 190.000,25.981 185.000,17.321 180.000,25.981 170.000,25.981 175.000,34.641">
<desc>x7</desc>
</polygon>
<polygon fill="olive" stroke="white"
         stroke-width="1" stroke-linejoin="round"
         points="45.000,34.641 55.000,34.641 60.000,25.981 80.000,25.981 75.000,17.321 55.000,17.321">
<desc>R7</desc>
</polygon>
<polygon fill="gray" stroke="white"
         stroke-width="1" stroke-linejoin="round"
         points="90.000,25.981 95.000,34.641 105.000,34.641 110.000,25.981 100.000,25.981 95.000,17.321 75.000,17.321 80.000,25.981">
<desc>N7</desc>
</polygon>
<polygon fill="indigo" stroke="white"
         stroke-width="1" stroke-linejoin="round"
         points="105.000,34.641 115.000,34.641 120.000,25.981 130.000,25.981 120.000,8.660 115.000,17.321 105.000,17.321 110.000,25.981">
<desc>X7</desc>
</polygon>
<polygon fill="maroon" stroke="white"
         stroke-width="1" stroke-linejoin="round"
         points="95.000,17.321 100.000,25.981 110.000,25.981 105.000,17.321 115.000,17.321 120.000,8.660 90.000,8.660">
<desc>G7</desc>
</polygon>
<polygon fill="magenta" stroke="white"
         stroke-width="1" stroke-linejoin="round"
         points="125.000,17.321 130.000,25.981 135.000,17.321 155.000,17.321 150.000,8.660 120.000,8.660">
<desc>p7</desc>
</polygon>
<polygon fill="tan" stroke="white"
         stroke-width="1" stroke-linejoin="round"
         points="155.000,17.321 160.000,25.981 180.000,25.981 175.000,17.321 165.000,17.321 170.000,8.660 150.000,8.660">
<desc>U7</desc>
</polygon>
<polygon fill="darkseagreen" stroke="white"
         stroke-width="1" stroke-linejoin="round"
         points="175.000,17.321 180.000,25.981 185.000,17.321 190.000,25.981 195.000,17.321 190.000,8.660 170.000,8.660 165.000,17.321">
<desc>f7</desc>
</polygon>
<polygon fill="blue" stroke="white"
         stroke-width="1" stroke-linejoin="round"
         points="55.000,17.321 95.000,17.321 90.000,8.660 60.000,8.660">
<desc>I7</desc>
</polygon>
</g>
</svg>
