<?xml version="1.0" standalone="no"?>
<!-- Created by Polyform Puzzler (http://puzzler.sourceforge.net/) -->
<svg width="560.000" height="560.000"
     viewBox="0 0 560.000 560.000"
     xmlns="http://www.w3.org/2000/svg"
     xmlns:xlink="http://www.w3.org/1999/xlink">
<g transform="translate(280.000,140.000) rotate(30)">
<polygon fill="green" stroke="white"
         stroke-width="1" stroke-linejoin="round"
         points="45.000,103.923 50.000,112.583 60.000,112.583 65.000,103.923 60.000,95.263 50.000,95.263">
<desc>O6</desc>
</polygon>
<polygon fill="navy" stroke="white"
         stroke-width="1" stroke-linejoin="round"
         points="60.000,95.263 65.000,103.923 75.000,103.923 80.000,95.263 90.000,95.263 85.000,86.603 75.000,86.603 70.000,95.263">
<desc>s6</desc>
</polygon>
<polygon fill="lime" stroke="white"
         stroke-width="1" stroke-linejoin="round"
         points="45.000,86.603 50.000,95.263 70.000,95.263 75.000,86.603 55.000,86.603 50.000,77.942">
<desc>j6</desc>
</polygon>
<polygon fill="turquoise" stroke="white"
         stroke-width="1" stroke-linejoin="round"
         points="85.000,86.603 90.000,95.263 95.000,86.603 105.000,86.603 100.000,77.942 90.000,77.942 85.000,69.282 80.000,77.942">
<desc>h6</desc>
</polygon>
<polygon fill="maroon" stroke="white"
         stroke-width="1" stroke-linejoin="round"
         points="50.000,77.942 55.000,86.603 65.000,86.603 70.000,77.942 60.000,77.942 65.000,69.282 60.000,60.622">
<desc>G6</desc>
</polygon>
<polygon fill="plum" stroke="white"
         stroke-width="1" stroke-linejoin="round"
         points="65.000,86.603 85.000,86.603 75.000,69.282 65.000,69.282 60.000,77.942 70.000,77.942">
<desc>F6</desc>
</polygon>
<polygon fill="darkorange" stroke="white"
         stroke-width="1" stroke-linejoin="round"
         points="100.000,77.942 105.000,86.603 110.000,77.942 120.000,77.942 115.000,69.282 95.000,69.282 90.000,77.942">
<desc>E6</desc>
</polygon>
<polygon fill="blueviolet" stroke="white"
         stroke-width="1" stroke-linejoin="round"
         points="45.000,69.282 50.000,77.942 60.000,60.622 50.000,43.301 45.000,51.962 50.000,60.622">
<desc>C6</desc>
</polygon>
<polygon fill="magenta" stroke="white"
         stroke-width="1" stroke-linejoin="round"
         points="75.000,69.282 80.000,77.942 90.000,60.622 80.000,60.622 75.000,51.962 65.000,51.962">
<desc>P6</desc>
</polygon>
<polygon fill="lime" stroke="white"
         stroke-width="1" stroke-linejoin="round"
         points="85.000,69.282 90.000,77.942 95.000,69.282 115.000,69.282 110.000,60.622 90.000,60.622">
<desc>J6</desc>
</polygon>
<polygon fill="blue" stroke="white"
         stroke-width="1" stroke-linejoin="round"
         points="115.000,69.282 120.000,77.942 125.000,69.282 110.000,43.301 105.000,51.962">
<desc>i6</desc>
</polygon>
<polygon fill="blue" stroke="white"
         stroke-width="1" stroke-linejoin="round"
         points="60.000,60.622 65.000,69.282 75.000,69.282 60.000,43.301 50.000,43.301">
<desc>I6</desc>
</polygon>
<polygon fill="plum" stroke="white"
         stroke-width="1" stroke-linejoin="round"
         points="120.000,60.622 125.000,69.282 135.000,69.282 145.000,51.962 125.000,51.962 130.000,60.622">
<desc>f6</desc>
</polygon>
<polygon fill="red" stroke="white"
         stroke-width="1" stroke-linejoin="round"
         points="90.000,60.622 110.000,60.622 105.000,51.962 110.000,43.301 90.000,43.301 95.000,51.962">
<desc>X6</desc>
</polygon>
<polygon fill="gold" stroke="white"
         stroke-width="1" stroke-linejoin="round"
         points="115.000,51.962 120.000,60.622 130.000,60.622 125.000,51.962 135.000,51.962 130.000,43.301 110.000,43.301">
<desc>V6</desc>
</polygon>
<polygon fill="maroon" stroke="white"
         stroke-width="1" stroke-linejoin="round"
         points="140.000,60.622 150.000,60.622 155.000,51.962 150.000,43.301 130.000,43.301 135.000,51.962 145.000,51.962">
<desc>g6</desc>
</polygon>
<polygon fill="turquoise" stroke="white"
         stroke-width="1" stroke-linejoin="round"
         points="90.000,43.301 110.000,43.301 115.000,34.641 105.000,34.641 100.000,25.981 90.000,25.981 95.000,34.641">
<desc>H6</desc>
</polygon>
<polygon fill="magenta" stroke="white"
         stroke-width="1" stroke-linejoin="round"
         points="110.000,43.301 140.000,43.301 135.000,34.641 125.000,34.641 120.000,25.981">
<desc>p6</desc>
</polygon>
<polygon fill="navy" stroke="white"
         stroke-width="1" stroke-linejoin="round"
         points="100.000,25.981 105.000,34.641 115.000,34.641 120.000,25.981 110.000,25.981 105.000,17.321 95.000,17.321 90.000,25.981">
<desc>S6</desc>
</polygon>
</g>
</svg>
