<?xml version="1.0" standalone="no"?>
<!-- Created by Polyform Puzzler (http://puzzler.sourceforge.net/) -->
<svg width="210.000" height="121.244"
     viewBox="0 0 210.000 121.244"
     xmlns="http://www.w3.org/2000/svg"
     xmlns:xlink="http://www.w3.org/1999/xlink">
<g>
<polygon fill="plum" stroke="white"
         stroke-width="1" stroke-linejoin="round"
         points="95.000,103.923 100.000,112.583 110.000,95.263 100.000,95.263 105.000,86.603 95.000,86.603 90.000,95.263">
<desc>f6</desc>
</polygon>
<polygon fill="green" stroke="white"
         stroke-width="1" stroke-linejoin="round"
         points="115.000,103.923 120.000,112.583 130.000,112.583 135.000,103.923 130.000,95.263 120.000,95.263">
<desc>O6</desc>
</polygon>
<polygon fill="darkorange" stroke="white"
         stroke-width="1" stroke-linejoin="round"
         points="85.000,86.603 90.000,95.263 95.000,86.603 105.000,86.603 100.000,77.942 80.000,77.942 75.000,86.603">
<desc>E6</desc>
</polygon>
<polygon fill="navy" stroke="white"
         stroke-width="1" stroke-linejoin="round"
         points="100.000,95.263 110.000,95.263 115.000,86.603 110.000,77.942 115.000,69.282 105.000,69.282 100.000,77.942 105.000,86.603">
<desc>s6</desc>
</polygon>
<polygon fill="gold" stroke="white"
         stroke-width="1" stroke-linejoin="round"
         points="55.000,86.603 75.000,86.603 80.000,77.942 70.000,77.942 75.000,69.282 65.000,69.282">
<desc>V6</desc>
</polygon>
<polygon fill="navy" stroke="white"
         stroke-width="1" stroke-linejoin="round"
         points="110.000,77.942 115.000,86.603 120.000,77.942 130.000,77.942 135.000,69.282 130.000,60.622 125.000,69.282 115.000,69.282">
<desc>S6</desc>
</polygon>
<polygon fill="magenta" stroke="white"
         stroke-width="1" stroke-linejoin="round"
         points="115.000,86.603 145.000,86.603 135.000,69.282 130.000,77.942 120.000,77.942">
<desc>P6</desc>
</polygon>
<polygon fill="blue" stroke="white"
         stroke-width="1" stroke-linejoin="round"
         points="70.000,77.942 100.000,77.942 105.000,69.282 75.000,69.282">
<desc>I6</desc>
</polygon>
<polygon fill="turquoise" stroke="white"
         stroke-width="1" stroke-linejoin="round"
         points="65.000,69.282 85.000,69.282 90.000,60.622 80.000,60.622 75.000,51.962 65.000,51.962 70.000,60.622">
<desc>H6</desc>
</polygon>
<polygon fill="maroon" stroke="white"
         stroke-width="1" stroke-linejoin="round"
         points="85.000,69.282 95.000,69.282 100.000,60.622 95.000,51.962 75.000,51.962 80.000,60.622 90.000,60.622">
<desc>g6</desc>
</polygon>
<polygon fill="red" stroke="white"
         stroke-width="1" stroke-linejoin="round"
         points="95.000,69.282 115.000,69.282 110.000,60.622 115.000,51.962 95.000,51.962 100.000,60.622">
<desc>X6</desc>
</polygon>
<polygon fill="lime" stroke="white"
         stroke-width="1" stroke-linejoin="round"
         points="110.000,60.622 115.000,69.282 125.000,69.282 135.000,51.962 130.000,43.301 120.000,60.622">
<desc>j6</desc>
</polygon>
<polygon fill="turquoise" stroke="white"
         stroke-width="1" stroke-linejoin="round"
         points="110.000,60.622 120.000,60.622 130.000,43.301 120.000,43.301 115.000,34.641 110.000,43.301 115.000,51.962">
<desc>h6</desc>
</polygon>
<polygon fill="blueviolet" stroke="white"
         stroke-width="1" stroke-linejoin="round"
         points="60.000,43.301 65.000,51.962 85.000,51.962 80.000,43.301 70.000,43.301 65.000,34.641 55.000,34.641">
<desc>C6</desc>
</polygon>
<polygon fill="blue" stroke="white"
         stroke-width="1" stroke-linejoin="round"
         points="80.000,43.301 85.000,51.962 115.000,51.962 110.000,43.301">
<desc>i6</desc>
</polygon>
<polygon fill="magenta" stroke="white"
         stroke-width="1" stroke-linejoin="round"
         points="130.000,43.301 135.000,51.962 145.000,34.641 115.000,34.641 120.000,43.301">
<desc>p6</desc>
</polygon>
<polygon fill="lime" stroke="white"
         stroke-width="1" stroke-linejoin="round"
         points="65.000,34.641 70.000,43.301 90.000,43.301 95.000,34.641 90.000,25.981 85.000,34.641">
<desc>J6</desc>
</polygon>
<polygon fill="maroon" stroke="white"
         stroke-width="1" stroke-linejoin="round"
         points="90.000,43.301 110.000,43.301 115.000,34.641 110.000,25.981 100.000,25.981 105.000,34.641 95.000,34.641">
<desc>G6</desc>
</polygon>
<polygon fill="plum" stroke="white"
         stroke-width="1" stroke-linejoin="round"
         points="90.000,25.981 95.000,34.641 105.000,34.641 100.000,25.981 110.000,25.981 100.000,8.660">
<desc>F6</desc>
</polygon>
</g>
</svg>
