<?xml version="1.0" standalone="no"?>
<!-- Created by Polyform Puzzler (http://puzzler.sourceforge.net/) -->
<svg width="160.0" height="69.2820323028" viewBox="0 0 160.0 69.2820323028"
     xmlns="http://www.w3.org/2000/svg"
     xmlns:xlink="http://www.w3.org/1999/xlink">
<g>
<polygon fill="green" stroke="white"
         stroke-width="1" stroke-linejoin="round"
         points="35.000,51.962 40.000,60.622 50.000,60.622 55.000,51.962 50.000,43.301 40.000,43.301">
<desc>O6</desc>
</polygon>
<polygon fill="darkorange" stroke="white"
         stroke-width="1" stroke-linejoin="round"
         points="50.000,60.622 60.000,60.622 70.000,43.301 65.000,34.641 60.000,43.301 50.000,43.301 55.000,51.962">
<desc>E6</desc>
</polygon>
<polygon fill="plum" stroke="white"
         stroke-width="1" stroke-linejoin="round"
         points="60.000,60.622 80.000,60.622 85.000,51.962 80.000,43.301 75.000,51.962 70.000,43.301">
<desc>F6</desc>
</polygon>
<polygon fill="maroon" stroke="white"
         stroke-width="1" stroke-linejoin="round"
         points="80.000,60.622 100.000,60.622 105.000,51.962 100.000,43.301 90.000,43.301 95.000,51.962 85.000,51.962">
<desc>G6</desc>
</polygon>
<polygon fill="turquoise" stroke="white"
         stroke-width="1" stroke-linejoin="round"
         points="100.000,60.622 120.000,60.622 125.000,51.962 115.000,51.962 110.000,43.301 100.000,43.301 105.000,51.962">
<desc>H6</desc>
</polygon>
<polygon fill="blueviolet" stroke="white"
         stroke-width="1" stroke-linejoin="round"
         points="30.000,43.301 35.000,51.962 40.000,43.301 35.000,34.641 40.000,25.981 35.000,17.321 25.000,34.641">
<desc>C6</desc>
</polygon>
<polygon fill="blue" stroke="white"
         stroke-width="1" stroke-linejoin="round"
         points="70.000,43.301 75.000,51.962 80.000,43.301 65.000,17.321 60.000,25.981">
<desc>i6</desc>
</polygon>
<polygon fill="blue" stroke="white"
         stroke-width="1" stroke-linejoin="round"
         points="80.000,43.301 85.000,51.962 95.000,51.962 80.000,25.981 70.000,25.981">
<desc>I6</desc>
</polygon>
<polygon fill="lime" stroke="white"
         stroke-width="1" stroke-linejoin="round"
         points="110.000,43.301 115.000,51.962 125.000,51.962 135.000,34.641 130.000,25.981 120.000,43.301">
<desc>j6</desc>
</polygon>
<polygon fill="lime" stroke="white"
         stroke-width="1" stroke-linejoin="round"
         points="35.000,34.641 40.000,43.301 60.000,43.301 65.000,34.641 60.000,25.981 55.000,34.641">
<desc>J6</desc>
</polygon>
<polygon fill="navy" stroke="white"
         stroke-width="1" stroke-linejoin="round"
         points="85.000,34.641 90.000,43.301 95.000,34.641 105.000,34.641 110.000,25.981 105.000,17.321 100.000,25.981 90.000,25.981">
<desc>S6</desc>
</polygon>
<polygon fill="magenta" stroke="white"
         stroke-width="1" stroke-linejoin="round"
         points="90.000,43.301 120.000,43.301 110.000,25.981 105.000,34.641 95.000,34.641">
<desc>P6</desc>
</polygon>
<polygon fill="gold" stroke="white"
         stroke-width="1" stroke-linejoin="round"
         points="115.000,34.641 120.000,43.301 130.000,25.981 125.000,17.321 120.000,25.981 115.000,17.321 110.000,25.981">
<desc>V6</desc>
</polygon>
<polygon fill="navy" stroke="white"
         stroke-width="1" stroke-linejoin="round"
         points="35.000,34.641 45.000,34.641 50.000,25.981 45.000,17.321 50.000,8.660 40.000,8.660 35.000,17.321 40.000,25.981">
<desc>s6</desc>
</polygon>
<polygon fill="turquoise" stroke="white"
         stroke-width="1" stroke-linejoin="round"
         points="45.000,34.641 55.000,34.641 65.000,17.321 55.000,17.321 50.000,8.660 45.000,17.321 50.000,25.981">
<desc>h6</desc>
</polygon>
<polygon fill="red" stroke="white"
         stroke-width="1" stroke-linejoin="round"
         points="80.000,25.981 85.000,34.641 95.000,17.321 85.000,17.321 80.000,8.660 70.000,25.981">
<desc>X6</desc>
</polygon>
<polygon fill="magenta" stroke="white"
         stroke-width="1" stroke-linejoin="round"
         points="65.000,17.321 70.000,25.981 80.000,8.660 50.000,8.660 55.000,17.321">
<desc>p6</desc>
</polygon>
<polygon fill="maroon" stroke="white"
         stroke-width="1" stroke-linejoin="round"
         points="90.000,25.981 100.000,25.981 105.000,17.321 100.000,8.660 80.000,8.660 85.000,17.321 95.000,17.321">
<desc>g6</desc>
</polygon>
<polygon fill="plum" stroke="white"
         stroke-width="1" stroke-linejoin="round"
         points="105.000,17.321 110.000,25.981 115.000,17.321 120.000,25.981 125.000,17.321 120.000,8.660 100.000,8.660">
<desc>f6</desc>
</polygon>
</g>
</svg>
