<?xml version="1.0" standalone="no"?>
<!-- Created by Polyform Puzzler (http://puzzler.sourceforge.net/) -->
<svg width="400.000" height="400.000"
     viewBox="0 0 400.000 400.000"
     xmlns="http://www.w3.org/2000/svg"
     xmlns:xlink="http://www.w3.org/1999/xlink">
<g transform="translate(200.000,100.000) rotate(30)">
<polygon fill="blueviolet" stroke="white"
         stroke-width="1" stroke-linejoin="round"
         points="65.000,103.923 70.000,112.583 80.000,95.263 70.000,77.942 65.000,86.603 70.000,95.263">
<desc>C6</desc>
</polygon>
<polygon fill="lime" stroke="white"
         stroke-width="1" stroke-linejoin="round"
         points="70.000,112.583 80.000,112.583 90.000,95.263 85.000,86.603 75.000,86.603 80.000,95.263">
<desc>J6</desc>
</polygon>
<polygon fill="darkorange" stroke="white"
         stroke-width="1" stroke-linejoin="round"
         points="85.000,103.923 95.000,103.923 105.000,86.603 100.000,77.942 95.000,86.603 85.000,86.603 90.000,95.263">
<desc>E6</desc>
</polygon>
<polygon fill="turquoise" stroke="white"
         stroke-width="1" stroke-linejoin="round"
         points="100.000,95.263 110.000,95.263 120.000,77.942 110.000,77.942 105.000,69.282 100.000,77.942 105.000,86.603">
<desc>h6</desc>
</polygon>
<polygon fill="maroon" stroke="white"
         stroke-width="1" stroke-linejoin="round"
         points="70.000,77.942 75.000,86.603 85.000,86.603 90.000,77.942 85.000,69.282 80.000,77.942 75.000,69.282 65.000,69.282">
<desc>G6</desc>
</polygon>
<polygon fill="blue" stroke="white"
         stroke-width="1" stroke-linejoin="round"
         points="85.000,86.603 95.000,86.603 110.000,60.622 100.000,60.622">
<desc>i6</desc>
</polygon>
<polygon fill="maroon" stroke="white"
         stroke-width="1" stroke-linejoin="round"
         points="115.000,86.603 125.000,86.603 130.000,77.942 125.000,69.282 105.000,69.282 110.000,77.942 120.000,77.942">
<desc>g6</desc>
</polygon>
<polygon fill="gold" stroke="white"
         stroke-width="1" stroke-linejoin="round"
         points="75.000,69.282 80.000,77.942 85.000,69.282 90.000,77.942 95.000,69.282 85.000,51.962">
<desc>V6</desc>
</polygon>
<polygon fill="blue" stroke="white"
         stroke-width="1" stroke-linejoin="round"
         points="125.000,69.282 130.000,77.942 140.000,77.942 125.000,51.962 115.000,51.962">
<desc>I6</desc>
</polygon>
<polygon fill="navy" stroke="white"
         stroke-width="1" stroke-linejoin="round"
         points="135.000,69.282 140.000,77.942 145.000,69.282 155.000,69.282 160.000,60.622 155.000,51.962 150.000,60.622 140.000,60.622">
<desc>S6</desc>
</polygon>
<polygon fill="navy" stroke="white"
         stroke-width="1" stroke-linejoin="round"
         points="65.000,69.282 75.000,69.282 80.000,60.622 75.000,51.962 80.000,43.301 70.000,43.301 65.000,51.962 70.000,60.622">
<desc>s6</desc>
</polygon>
<polygon fill="plum" stroke="white"
         stroke-width="1" stroke-linejoin="round"
         points="90.000,60.622 95.000,69.282 105.000,51.962 95.000,51.962 100.000,43.301 90.000,43.301 85.000,51.962">
<desc>f6</desc>
</polygon>
<polygon fill="plum" stroke="white"
         stroke-width="1" stroke-linejoin="round"
         points="105.000,69.282 125.000,69.282 115.000,51.962 105.000,51.962 100.000,60.622 110.000,60.622">
<desc>F6</desc>
</polygon>
<polygon fill="turquoise" stroke="white"
         stroke-width="1" stroke-linejoin="round"
         points="130.000,60.622 135.000,69.282 140.000,60.622 150.000,60.622 155.000,51.962 145.000,51.962 140.000,43.301">
<desc>H6</desc>
</polygon>
<polygon fill="lime" stroke="white"
         stroke-width="1" stroke-linejoin="round"
         points="75.000,51.962 80.000,60.622 90.000,43.301 100.000,43.301 95.000,34.641 85.000,34.641">
<desc>j6</desc>
</polygon>
<polygon fill="red" stroke="white"
         stroke-width="1" stroke-linejoin="round"
         points="125.000,51.962 130.000,60.622 140.000,43.301 130.000,43.301 125.000,34.641 115.000,51.962">
<desc>X6</desc>
</polygon>
<polygon fill="magenta" stroke="white"
         stroke-width="1" stroke-linejoin="round"
         points="95.000,51.962 115.000,51.962 100.000,25.981 95.000,34.641 100.000,43.301">
<desc>p6</desc>
</polygon>
<polygon fill="magenta" stroke="white"
         stroke-width="1" stroke-linejoin="round"
         points="110.000,43.301 115.000,51.962 125.000,34.641 115.000,34.641 110.000,25.981 100.000,25.981">
<desc>P6</desc>
</polygon>
<polygon fill="green" stroke="white"
         stroke-width="1" stroke-linejoin="round"
         points="65.000,17.321 70.000,25.981 80.000,25.981 85.000,17.321 80.000,8.660 70.000,8.660">
<desc>O6</desc>
</polygon>
</g>
</svg>
