<?xml version="1.0" standalone="no"?>
<!-- Created by Polyform Puzzler (http://puzzler.sourceforge.net/) -->
<svg width="340.000" height="340.000"
     viewBox="0 0 340.000 340.000"
     xmlns="http://www.w3.org/2000/svg"
     xmlns:xlink="http://www.w3.org/1999/xlink">
<g transform="translate(170.000,85.000) rotate(30)">
<polygon fill="green" stroke="white"
         stroke-width="1" stroke-linejoin="round"
         points="55.000,86.603 60.000,95.263 70.000,95.263 75.000,86.603 70.000,77.942 60.000,77.942">
<desc>O6</desc>
</polygon>
<polygon fill="darkorange" stroke="white"
         stroke-width="1" stroke-linejoin="round"
         points="70.000,95.263 80.000,95.263 90.000,77.942 85.000,69.282 80.000,77.942 70.000,77.942 75.000,86.603">
<desc>E6</desc>
</polygon>
<polygon fill="blueviolet" stroke="white"
         stroke-width="1" stroke-linejoin="round"
         points="50.000,77.942 55.000,86.603 65.000,69.282 55.000,51.962 50.000,60.622 55.000,69.282">
<desc>C6</desc>
</polygon>
<polygon fill="lime" stroke="white"
         stroke-width="1" stroke-linejoin="round"
         points="85.000,86.603 95.000,86.603 105.000,69.282 100.000,60.622 90.000,60.622 95.000,69.282">
<desc>J6</desc>
</polygon>
<polygon fill="red" stroke="white"
         stroke-width="1" stroke-linejoin="round"
         points="60.000,77.942 80.000,77.942 75.000,69.282 80.000,60.622 60.000,60.622 65.000,69.282">
<desc>X6</desc>
</polygon>
<polygon fill="gold" stroke="white"
         stroke-width="1" stroke-linejoin="round"
         points="75.000,69.282 80.000,77.942 85.000,69.282 90.000,77.942 95.000,69.282 85.000,51.962">
<desc>V6</desc>
</polygon>
<polygon fill="turquoise" stroke="white"
         stroke-width="1" stroke-linejoin="round"
         points="100.000,77.942 110.000,77.942 115.000,69.282 125.000,69.282 120.000,60.622 100.000,60.622 105.000,69.282">
<desc>h6</desc>
</polygon>
<polygon fill="maroon" stroke="white"
         stroke-width="1" stroke-linejoin="round"
         points="120.000,60.622 125.000,69.282 135.000,51.962 130.000,43.301 120.000,43.301 115.000,51.962 125.000,51.962">
<desc>G6</desc>
</polygon>
<polygon fill="turquoise" stroke="white"
         stroke-width="1" stroke-linejoin="round"
         points="55.000,51.962 60.000,60.622 70.000,60.622 65.000,51.962 70.000,43.301 65.000,34.641 60.000,43.301 50.000,43.301">
<desc>H6</desc>
</polygon>
<polygon fill="maroon" stroke="white"
         stroke-width="1" stroke-linejoin="round"
         points="65.000,51.962 70.000,60.622 80.000,60.622 90.000,43.301 80.000,43.301 75.000,51.962 70.000,43.301">
<desc>g6</desc>
</polygon>
<polygon fill="plum" stroke="white"
         stroke-width="1" stroke-linejoin="round"
         points="85.000,51.962 90.000,60.622 110.000,60.622 100.000,43.301 95.000,51.962 90.000,43.301">
<desc>f6</desc>
</polygon>
<polygon fill="plum" stroke="white"
         stroke-width="1" stroke-linejoin="round"
         points="105.000,51.962 110.000,60.622 120.000,60.622 125.000,51.962 115.000,51.962 120.000,43.301 100.000,43.301">
<desc>F6</desc>
</polygon>
<polygon fill="blue" stroke="white"
         stroke-width="1" stroke-linejoin="round"
         points="70.000,43.301 75.000,51.962 80.000,43.301 65.000,17.321 60.000,25.981">
<desc>i6</desc>
</polygon>
<polygon fill="magenta" stroke="white"
         stroke-width="1" stroke-linejoin="round"
         points="90.000,43.301 95.000,51.962 105.000,34.641 95.000,34.641 90.000,25.981 80.000,25.981">
<desc>P6</desc>
</polygon>
<polygon fill="navy" stroke="white"
         stroke-width="1" stroke-linejoin="round"
         points="50.000,43.301 60.000,43.301 65.000,34.641 60.000,25.981 65.000,17.321 55.000,17.321 50.000,25.981 55.000,34.641">
<desc>s6</desc>
</polygon>
<polygon fill="blue" stroke="white"
         stroke-width="1" stroke-linejoin="round"
         points="75.000,34.641 80.000,43.301 90.000,43.301 75.000,17.321 65.000,17.321">
<desc>I6</desc>
</polygon>
<polygon fill="magenta" stroke="white"
         stroke-width="1" stroke-linejoin="round"
         points="100.000,43.301 130.000,43.301 125.000,34.641 115.000,34.641 110.000,25.981">
<desc>p6</desc>
</polygon>
<polygon fill="navy" stroke="white"
         stroke-width="1" stroke-linejoin="round"
         points="90.000,25.981 95.000,34.641 105.000,34.641 110.000,25.981 100.000,25.981 95.000,17.321 85.000,17.321 80.000,25.981">
<desc>S6</desc>
</polygon>
<polygon fill="lime" stroke="white"
         stroke-width="1" stroke-linejoin="round"
         points="75.000,17.321 80.000,25.981 85.000,17.321 80.000,8.660 60.000,8.660 55.000,17.321">
<desc>j6</desc>
</polygon>
</g>
</svg>
