<?xml version="1.0" standalone="no"?>
<!-- Created by Polyform Puzzler (http://puzzler.sourceforge.net/) -->
<svg width="350.000" height="350.000"
     viewBox="0 0 350.000 350.000"
     xmlns="http://www.w3.org/2000/svg"
     xmlns:xlink="http://www.w3.org/1999/xlink">
<g transform="translate(175.000,87.500) rotate(30)">
<polygon fill="navy" stroke="white"
         stroke-width="1" stroke-linejoin="round"
         points="45.000,95.263 50.000,103.923 60.000,103.923 65.000,95.263 75.000,95.263 70.000,86.603 60.000,86.603 55.000,95.263">
<desc>s6</desc>
</polygon>
<polygon fill="lime" stroke="white"
         stroke-width="1" stroke-linejoin="round"
         points="30.000,86.603 35.000,95.263 55.000,95.263 60.000,86.603 40.000,86.603 35.000,77.942">
<desc>j6</desc>
</polygon>
<polygon fill="red" stroke="white"
         stroke-width="1" stroke-linejoin="round"
         points="70.000,86.603 75.000,95.263 85.000,77.942 75.000,77.942 70.000,69.282 60.000,86.603">
<desc>X6</desc>
</polygon>
<polygon fill="plum" stroke="white"
         stroke-width="1" stroke-linejoin="round"
         points="35.000,77.942 40.000,86.603 50.000,86.603 55.000,77.942 45.000,77.942 50.000,69.282 30.000,69.282">
<desc>F6</desc>
</polygon>
<polygon fill="gold" stroke="white"
         stroke-width="1" stroke-linejoin="round"
         points="50.000,86.603 60.000,86.603 70.000,69.282 50.000,69.282 45.000,77.942 55.000,77.942">
<desc>V6</desc>
</polygon>
<polygon fill="darkorange" stroke="white"
         stroke-width="1" stroke-linejoin="round"
         points="80.000,86.603 90.000,86.603 100.000,69.282 95.000,60.622 90.000,69.282 80.000,69.282 85.000,77.942">
<desc>E6</desc>
</polygon>
<polygon fill="maroon" stroke="white"
         stroke-width="1" stroke-linejoin="round"
         points="70.000,69.282 75.000,77.942 85.000,77.942 80.000,69.282 90.000,69.282 95.000,60.622 75.000,60.622">
<desc>G6</desc>
</polygon>
<polygon fill="magenta" stroke="white"
         stroke-width="1" stroke-linejoin="round"
         points="95.000,77.942 105.000,77.942 110.000,69.282 120.000,69.282 110.000,51.962">
<desc>p6</desc>
</polygon>
<polygon fill="blueviolet" stroke="white"
         stroke-width="1" stroke-linejoin="round"
         points="30.000,69.282 50.000,69.282 60.000,51.962 50.000,51.962 45.000,60.622 35.000,60.622">
<desc>C6</desc>
</polygon>
<polygon fill="magenta" stroke="white"
         stroke-width="1" stroke-linejoin="round"
         points="50.000,69.282 70.000,69.282 65.000,60.622 70.000,51.962 65.000,43.301">
<desc>P6</desc>
</polygon>
<polygon fill="lime" stroke="white"
         stroke-width="1" stroke-linejoin="round"
         points="65.000,60.622 70.000,69.282 75.000,60.622 95.000,60.622 90.000,51.962 70.000,51.962">
<desc>J6</desc>
</polygon>
<polygon fill="blue" stroke="white"
         stroke-width="1" stroke-linejoin="round"
         points="95.000,60.622 100.000,69.282 105.000,60.622 90.000,34.641 85.000,43.301">
<desc>i6</desc>
</polygon>
<polygon fill="navy" stroke="white"
         stroke-width="1" stroke-linejoin="round"
         points="115.000,60.622 120.000,69.282 125.000,60.622 135.000,60.622 140.000,51.962 135.000,43.301 130.000,51.962 120.000,51.962">
<desc>S6</desc>
</polygon>
<polygon fill="blue" stroke="white"
         stroke-width="1" stroke-linejoin="round"
         points="100.000,51.962 105.000,60.622 120.000,34.641 115.000,25.981">
<desc>I6</desc>
</polygon>
<polygon fill="turquoise" stroke="white"
         stroke-width="1" stroke-linejoin="round"
         points="110.000,51.962 115.000,60.622 120.000,51.962 130.000,51.962 135.000,43.301 125.000,43.301 120.000,34.641">
<desc>H6</desc>
</polygon>
<polygon fill="turquoise" stroke="white"
         stroke-width="1" stroke-linejoin="round"
         points="65.000,43.301 70.000,51.962 90.000,51.962 85.000,43.301 90.000,34.641 80.000,34.641 75.000,43.301">
<desc>h6</desc>
</polygon>
<polygon fill="plum" stroke="white"
         stroke-width="1" stroke-linejoin="round"
         points="95.000,43.301 100.000,51.962 110.000,34.641 100.000,34.641 105.000,25.981 95.000,25.981 90.000,34.641">
<desc>f6</desc>
</polygon>
<polygon fill="green" stroke="white"
         stroke-width="1" stroke-linejoin="round"
         points="120.000,34.641 125.000,43.301 135.000,43.301 140.000,34.641 135.000,25.981 125.000,25.981">
<desc>O6</desc>
</polygon>
<polygon fill="maroon" stroke="white"
         stroke-width="1" stroke-linejoin="round"
         points="100.000,34.641 110.000,34.641 115.000,25.981 120.000,34.641 125.000,25.981 120.000,17.321 110.000,17.321">
<desc>g6</desc>
</polygon>
</g>
</svg>
