<?xml version="1.0" standalone="no"?>
<!-- Created by Polyform Puzzler (http://puzzler.sourceforge.net/) -->
<svg width="400.000" height="400.000"
     viewBox="0 0 400.000 400.000"
     xmlns="http://www.w3.org/2000/svg"
     xmlns:xlink="http://www.w3.org/1999/xlink">
<g transform="translate(200.000,100.000) rotate(30)">
<polygon fill="maroon" stroke="white"
         stroke-width="1" stroke-linejoin="round"
         points="25.000,103.923 30.000,112.583 40.000,112.583 45.000,103.923 35.000,103.923 40.000,95.263 35.000,86.603">
<desc>G6</desc>
</polygon>
<polygon fill="magenta" stroke="white"
         stroke-width="1" stroke-linejoin="round"
         points="35.000,103.923 55.000,103.923 50.000,95.263 55.000,86.603 50.000,77.942">
<desc>P6</desc>
</polygon>
<polygon fill="turquoise" stroke="white"
         stroke-width="1" stroke-linejoin="round"
         points="50.000,95.263 55.000,103.923 60.000,95.263 70.000,95.263 75.000,86.603 65.000,86.603 60.000,77.942">
<desc>H6</desc>
</polygon>
<polygon fill="plum" stroke="white"
         stroke-width="1" stroke-linejoin="round"
         points="25.000,86.603 30.000,95.263 35.000,86.603 40.000,95.263 50.000,77.942 30.000,77.942">
<desc>F6</desc>
</polygon>
<polygon fill="darkorange" stroke="white"
         stroke-width="1" stroke-linejoin="round"
         points="50.000,77.942 55.000,86.603 60.000,77.942 70.000,77.942 65.000,69.282 45.000,69.282 40.000,77.942">
<desc>E6</desc>
</polygon>
<polygon fill="gold" stroke="white"
         stroke-width="1" stroke-linejoin="round"
         points="60.000,77.942 65.000,86.603 85.000,86.603 75.000,69.282 65.000,69.282 70.000,77.942">
<desc>V6</desc>
</polygon>
<polygon fill="red" stroke="white"
         stroke-width="1" stroke-linejoin="round"
         points="80.000,77.942 85.000,86.603 90.000,77.942 100.000,77.942 90.000,60.622 85.000,69.282 75.000,69.282">
<desc>X6</desc>
</polygon>
<polygon fill="navy" stroke="white"
         stroke-width="1" stroke-linejoin="round"
         points="95.000,69.282 100.000,77.942 105.000,69.282 115.000,69.282 120.000,60.622 115.000,51.962 110.000,60.622 100.000,60.622">
<desc>S6</desc>
</polygon>
<polygon fill="blueviolet" stroke="white"
         stroke-width="1" stroke-linejoin="round"
         points="55.000,69.282 75.000,69.282 85.000,51.962 75.000,51.962 70.000,60.622 60.000,60.622">
<desc>C6</desc>
</polygon>
<polygon fill="blue" stroke="white"
         stroke-width="1" stroke-linejoin="round"
         points="75.000,69.282 85.000,69.282 100.000,43.301 90.000,43.301">
<desc>i6</desc>
</polygon>
<polygon fill="blue" stroke="white"
         stroke-width="1" stroke-linejoin="round"
         points="90.000,60.622 95.000,69.282 110.000,43.301 105.000,34.641">
<desc>I6</desc>
</polygon>
<polygon fill="lime" stroke="white"
         stroke-width="1" stroke-linejoin="round"
         points="100.000,60.622 110.000,60.622 120.000,43.301 115.000,34.641 105.000,34.641 110.000,43.301">
<desc>J6</desc>
</polygon>
<polygon fill="green" stroke="white"
         stroke-width="1" stroke-linejoin="round"
         points="115.000,51.962 120.000,60.622 130.000,60.622 135.000,51.962 130.000,43.301 120.000,43.301">
<desc>O6</desc>
</polygon>
<polygon fill="plum" stroke="white"
         stroke-width="1" stroke-linejoin="round"
         points="130.000,43.301 135.000,51.962 145.000,51.962 155.000,34.641 135.000,34.641 140.000,43.301">
<desc>f6</desc>
</polygon>
<polygon fill="maroon" stroke="white"
         stroke-width="1" stroke-linejoin="round"
         points="115.000,34.641 120.000,43.301 140.000,43.301 135.000,34.641 125.000,34.641 130.000,25.981 120.000,25.981">
<desc>g6</desc>
</polygon>
<polygon fill="turquoise" stroke="white"
         stroke-width="1" stroke-linejoin="round"
         points="150.000,43.301 160.000,43.301 165.000,34.641 175.000,34.641 170.000,25.981 150.000,25.981 155.000,34.641">
<desc>h6</desc>
</polygon>
<polygon fill="magenta" stroke="white"
         stroke-width="1" stroke-linejoin="round"
         points="125.000,34.641 155.000,34.641 150.000,25.981 140.000,25.981 135.000,17.321">
<desc>p6</desc>
</polygon>
<polygon fill="lime" stroke="white"
         stroke-width="1" stroke-linejoin="round"
         points="170.000,25.981 175.000,34.641 180.000,25.981 175.000,17.321 155.000,17.321 150.000,25.981">
<desc>j6</desc>
</polygon>
<polygon fill="navy" stroke="white"
         stroke-width="1" stroke-linejoin="round"
         points="135.000,17.321 140.000,25.981 150.000,25.981 155.000,17.321 165.000,17.321 160.000,8.660 150.000,8.660 145.000,17.321">
<desc>s6</desc>
</polygon>
</g>
</svg>
