<?xml version="1.0" standalone="no"?>
<!-- Created by Polyform Puzzler (http://puzzler.sourceforge.net/) -->
<svg width="230.000" height="138.564"
     viewBox="0 0 230.000 138.564"
     xmlns="http://www.w3.org/2000/svg"
     xmlns:xlink="http://www.w3.org/1999/xlink">
<g>
<polygon fill="maroon" stroke="white"
         stroke-width="1" stroke-linejoin="round"
         points="75.000,121.244 80.000,129.904 90.000,129.904 85.000,121.244 95.000,121.244 100.000,112.583 70.000,112.583">
<desc>G7</desc>
</polygon>
<polygon fill="turquoise" stroke="white"
         stroke-width="1" stroke-linejoin="round"
         points="85.000,121.244 90.000,129.904 110.000,129.904 105.000,121.244 110.000,112.583 100.000,112.583 95.000,121.244">
<desc>H6</desc>
</polygon>
<polygon fill="gold" stroke="white"
         stroke-width="1" stroke-linejoin="round"
         points="105.000,121.244 110.000,129.904 130.000,129.904 125.000,121.244 115.000,121.244 120.000,112.583 115.000,103.923">
<desc>V7</desc>
</polygon>
<polygon fill="indigo" stroke="white"
         stroke-width="1" stroke-linejoin="round"
         points="125.000,121.244 130.000,129.904 140.000,112.583 130.000,112.583 125.000,103.923 115.000,103.923 120.000,112.583 115.000,121.244">
<desc>X7</desc>
</polygon>
<polygon fill="tan" stroke="white"
         stroke-width="1" stroke-linejoin="round"
         points="130.000,129.904 150.000,129.904 160.000,112.583 150.000,112.583 145.000,121.244 140.000,112.583">
<desc>U7</desc>
</polygon>
<polygon fill="red" stroke="white"
         stroke-width="1" stroke-linejoin="round"
         points="140.000,112.583 145.000,121.244 155.000,103.923 145.000,103.923 140.000,95.263 130.000,112.583">
<desc>X6</desc>
</polygon>
<polygon fill="maroon" stroke="white"
         stroke-width="1" stroke-linejoin="round"
         points="65.000,103.923 70.000,112.583 80.000,112.583 85.000,103.923 80.000,95.263 75.000,103.923 70.000,95.263 60.000,95.263">
<desc>G6</desc>
</polygon>
<polygon fill="turquoise" stroke="white"
         stroke-width="1" stroke-linejoin="round"
         points="80.000,112.583 90.000,112.583 95.000,103.923 105.000,103.923 110.000,95.263 100.000,95.263 95.000,86.603">
<desc>H7</desc>
</polygon>
<polygon fill="plum" stroke="white"
         stroke-width="1" stroke-linejoin="round"
         points="90.000,112.583 110.000,112.583 115.000,103.923 95.000,103.923">
<desc>I4</desc>
</polygon>
<polygon fill="magenta" stroke="white"
         stroke-width="1" stroke-linejoin="round"
         points="125.000,103.923 130.000,112.583 140.000,95.263 110.000,95.263 105.000,103.923">
<desc>P7</desc>
</polygon>
<polygon fill="orangered" stroke="white"
         stroke-width="1" stroke-linejoin="round"
         points="150.000,112.583 160.000,112.583 170.000,95.263 160.000,95.263 165.000,86.603 155.000,86.603 150.000,95.263 155.000,103.923">
<desc>Z7</desc>
</polygon>
<polygon fill="teal" stroke="white"
         stroke-width="1" stroke-linejoin="round"
         points="70.000,95.263 75.000,103.923 80.000,95.263 75.000,86.603 65.000,86.603">
<desc>I3</desc>
</polygon>
<polygon fill="orangered" stroke="white"
         stroke-width="1" stroke-linejoin="round"
         points="80.000,95.263 85.000,103.923 90.000,95.263 80.000,77.942 70.000,77.942">
<desc>I5</desc>
</polygon>
<polygon fill="blueviolet" stroke="white"
         stroke-width="1" stroke-linejoin="round"
         points="140.000,95.263 145.000,103.923 155.000,103.923 150.000,95.263 155.000,86.603 150.000,77.942 145.000,86.603 135.000,86.603 130.000,95.263">
<desc>W7</desc>
</polygon>
<polygon fill="plum" stroke="white"
         stroke-width="1" stroke-linejoin="round"
         points="55.000,86.603 60.000,95.263 70.000,95.263 65.000,86.603 75.000,86.603 65.000,69.282 60.000,77.942 50.000,77.942">
<desc>B7</desc>
</polygon>
<polygon fill="blue" stroke="white"
         stroke-width="1" stroke-linejoin="round"
         points="85.000,86.603 90.000,95.263 95.000,86.603 80.000,60.622 75.000,69.282">
<desc>I6</desc>
</polygon>
<polygon fill="tomato" stroke="white"
         stroke-width="1" stroke-linejoin="round"
         points="95.000,86.603 100.000,95.263 110.000,77.942 90.000,77.942">
<desc>T4</desc>
</polygon>
<polygon fill="red" stroke="white"
         stroke-width="1" stroke-linejoin="round"
         points="100.000,95.263 130.000,95.263 120.000,77.942 115.000,86.603 110.000,77.942">
<desc>M7</desc>
</polygon>
<polygon fill="indigo" stroke="white"
         stroke-width="1" stroke-linejoin="round"
         points="125.000,86.603 130.000,95.263 140.000,77.942 135.000,69.282 130.000,77.942 120.000,77.942">
<desc>P5</desc>
</polygon>
<polygon fill="yellow" stroke="white"
         stroke-width="1" stroke-linejoin="round"
         points="160.000,95.263 170.000,95.263 180.000,77.942 175.000,69.282 170.000,77.942 165.000,69.282 160.000,77.942 165.000,86.603">
<desc>Y7</desc>
</polygon>
<polygon fill="teal" stroke="white"
         stroke-width="1" stroke-linejoin="round"
         points="135.000,86.603 145.000,86.603 155.000,69.282 145.000,69.282 140.000,60.622 130.000,60.622 140.000,77.942">
<desc>T7</desc>
</polygon>
<polygon fill="navy" stroke="white"
         stroke-width="1" stroke-linejoin="round"
         points="150.000,77.942 155.000,86.603 165.000,86.603 160.000,77.942 165.000,69.282 160.000,60.622 150.000,60.622 145.000,69.282 155.000,69.282">
<desc>S7</desc>
</polygon>
<polygon fill="green" stroke="white"
         stroke-width="1" stroke-linejoin="round"
         points="45.000,69.282 50.000,77.942 60.000,77.942 65.000,69.282 60.000,60.622 50.000,60.622">
<desc>O6</desc>
</polygon>
<polygon fill="lightcoral" stroke="white"
         stroke-width="1" stroke-linejoin="round"
         points="65.000,69.282 70.000,77.942 80.000,77.942 75.000,69.282 85.000,51.962 65.000,51.962 70.000,60.622">
<desc>Q7</desc>
</polygon>
<polygon fill="lime" stroke="white"
         stroke-width="1" stroke-linejoin="round"
         points="85.000,69.282 90.000,77.942 100.000,77.942 90.000,60.622 95.000,51.962 85.000,51.962 80.000,60.622">
<desc>J6</desc>
</polygon>
<polygon fill="gold" stroke="white"
         stroke-width="1" stroke-linejoin="round"
         points="165.000,69.282 170.000,77.942 175.000,69.282 180.000,77.942 185.000,69.282 175.000,51.962">
<desc>V6</desc>
</polygon>
<polygon fill="peru" stroke="white"
         stroke-width="1" stroke-linejoin="round"
         points="60.000,60.622 65.000,69.282 70.000,60.622 65.000,51.962 75.000,51.962 70.000,43.301 60.000,43.301 50.000,60.622">
<desc>A7</desc>
</polygon>
<polygon fill="darkseagreen" stroke="white"
         stroke-width="1" stroke-linejoin="round"
         points="90.000,60.622 95.000,69.282 100.000,60.622 110.000,60.622 115.000,51.962 95.000,51.962">
<desc>L5</desc>
</polygon>
<polygon fill="steelblue" stroke="white"
         stroke-width="1" stroke-linejoin="round"
         points="140.000,60.622 145.000,69.282 150.000,60.622 145.000,51.962 115.000,51.962 120.000,60.622">
<desc>L7</desc>
</polygon>
<polygon fill="olive" stroke="white"
         stroke-width="1" stroke-linejoin="round"
         points="160.000,60.622 165.000,69.282 175.000,51.962 165.000,34.641 155.000,34.641 165.000,51.962">
<desc>R7</desc>
</polygon>
<polygon fill="yellowgreen" stroke="white"
         stroke-width="1" stroke-linejoin="round"
         points="145.000,51.962 150.000,60.622 160.000,60.622 165.000,51.962 155.000,34.641 145.000,34.641 155.000,51.962">
<desc>J7</desc>
</polygon>
<polygon fill="brown" stroke="white"
         stroke-width="1" stroke-linejoin="round"
         points="70.000,43.301 75.000,51.962 80.000,43.301 75.000,34.641 65.000,34.641 60.000,43.301">
<desc>C4</desc>
</polygon>
<polygon fill="blue" stroke="white"
         stroke-width="1" stroke-linejoin="round"
         points="75.000,51.962 115.000,51.962 110.000,43.301 80.000,43.301">
<desc>I7</desc>
</polygon>
<polygon fill="gray" stroke="white"
         stroke-width="1" stroke-linejoin="round"
         points="110.000,43.301 115.000,51.962 125.000,51.962 130.000,43.301 120.000,43.301 115.000,34.641 95.000,34.641 100.000,43.301">
<desc>N7</desc>
</polygon>
<polygon fill="magenta" stroke="white"
         stroke-width="1" stroke-linejoin="round"
         points="125.000,51.962 155.000,51.962 145.000,34.641 140.000,43.301 130.000,43.301">
<desc>P6</desc>
</polygon>
<polygon fill="green" stroke="white"
         stroke-width="1" stroke-linejoin="round"
         points="75.000,34.641 80.000,43.301 100.000,43.301 90.000,25.981 80.000,25.981">
<desc>D7</desc>
</polygon>
<polygon fill="navy" stroke="white"
         stroke-width="1" stroke-linejoin="round"
         points="115.000,34.641 120.000,43.301 130.000,43.301 135.000,34.641 125.000,34.641 120.000,25.981 110.000,25.981 105.000,34.641">
<desc>S6</desc>
</polygon>
<polygon fill="darkseagreen" stroke="white"
         stroke-width="1" stroke-linejoin="round"
         points="130.000,43.301 140.000,43.301 145.000,34.641 135.000,17.321 125.000,17.321 130.000,25.981 125.000,34.641 135.000,34.641">
<desc>F7</desc>
</polygon>
<polygon fill="blueviolet" stroke="white"
         stroke-width="1" stroke-linejoin="round"
         points="65.000,34.641 75.000,34.641 80.000,25.981 90.000,25.981 95.000,17.321 75.000,17.321">
<desc>C6</desc>
</polygon>
<polygon fill="lime" stroke="white"
         stroke-width="1" stroke-linejoin="round"
         points="90.000,25.981 95.000,34.641 105.000,34.641 115.000,17.321 110.000,8.660 100.000,8.660 105.000,17.321 100.000,25.981">
<desc>C7</desc>
</polygon>
<polygon fill="darkorange" stroke="white"
         stroke-width="1" stroke-linejoin="round"
         points="120.000,25.981 125.000,34.641 130.000,25.981 120.000,8.660 110.000,8.660 115.000,17.321 110.000,25.981">
<desc>E6</desc>
</polygon>
<polygon fill="gray" stroke="white"
         stroke-width="1" stroke-linejoin="round"
         points="140.000,25.981 145.000,34.641 150.000,25.981">
<desc>T1</desc>
</polygon>
<polygon fill="plum" stroke="white"
         stroke-width="1" stroke-linejoin="round"
         points="145.000,34.641 165.000,34.641 155.000,17.321 145.000,17.321 140.000,25.981 150.000,25.981">
<desc>F6</desc>
</polygon>
<polygon fill="olive" stroke="white"
         stroke-width="1" stroke-linejoin="round"
         points="90.000,25.981 100.000,25.981 105.000,17.321 100.000,8.660 90.000,8.660 85.000,17.321 95.000,17.321">
<desc>C5</desc>
</polygon>
<polygon fill="darkorange" stroke="white"
         stroke-width="1" stroke-linejoin="round"
         points="135.000,17.321 140.000,25.981 145.000,17.321 155.000,17.321 150.000,8.660 120.000,8.660 125.000,17.321">
<desc>E7</desc>
</polygon>
<polygon fill="steelblue" stroke="white"
         stroke-width="1" stroke-linejoin="round"
         points="75.000,17.321 85.000,17.321 90.000,8.660 80.000,8.660">
<desc>D2</desc>
</polygon>
</g>
</svg>
