<?xml version="1.0" standalone="no"?>
<!-- Created by Polyform Puzzler (http://puzzler.sourceforge.net/) -->
<svg width="100.000" height="51.962"
     viewBox="0 0 100.000 51.962"
     xmlns="http://www.w3.org/2000/svg"
     xmlns:xlink="http://www.w3.org/1999/xlink">
<g>
<polygon fill="steelblue" stroke="white"
         stroke-width="1" stroke-linejoin="round"
         points="15.000,34.641 20.000,43.301 25.000,34.641 20.000,25.981">
<desc>D2</desc>
</polygon>
<polygon fill="tomato" stroke="white"
         stroke-width="1" stroke-linejoin="round"
         points="20.000,43.301 40.000,43.301 30.000,25.981">
<desc>T4</desc>
</polygon>
<polygon fill="plum" stroke="white"
         stroke-width="1" stroke-linejoin="round"
         points="35.000,34.641 40.000,43.301 60.000,43.301 55.000,34.641">
<desc>I4</desc>
</polygon>
<polygon fill="darkseagreen" stroke="white"
         stroke-width="1" stroke-linejoin="round"
         points="55.000,34.641 60.000,43.301 70.000,43.301 60.000,25.981 50.000,25.981 45.000,34.641">
<desc>L5</desc>
</polygon>
<polygon fill="gray" stroke="white"
         stroke-width="1" stroke-linejoin="round"
         points="65.000,34.641 70.000,43.301 75.000,34.641">
<desc>T1</desc>
</polygon>
<polygon fill="brown" stroke="white"
         stroke-width="1" stroke-linejoin="round"
         points="20.000,25.981 25.000,34.641 30.000,25.981 40.000,25.981 35.000,17.321 25.000,17.321">
<desc>C4</desc>
</polygon>
<polygon fill="olive" stroke="white"
         stroke-width="1" stroke-linejoin="round"
         points="30.000,25.981 35.000,34.641 45.000,34.641 50.000,25.981 45.000,17.321 35.000,17.321 40.000,25.981">
<desc>C5</desc>
</polygon>
<polygon fill="orangered" stroke="white"
         stroke-width="1" stroke-linejoin="round"
         points="60.000,25.981 65.000,34.641 75.000,34.641 60.000,8.660 55.000,17.321">
<desc>I5</desc>
</polygon>
<polygon fill="indigo" stroke="white"
         stroke-width="1" stroke-linejoin="round"
         points="45.000,17.321 50.000,25.981 60.000,25.981 55.000,17.321 60.000,8.660 40.000,8.660">
<desc>P5</desc>
</polygon>
<polygon fill="teal" stroke="white"
         stroke-width="1" stroke-linejoin="round"
         points="25.000,17.321 45.000,17.321 40.000,8.660 30.000,8.660">
<desc>I3</desc>
</polygon>
</g>
</svg>
