<?xml version="1.0" standalone="no"?>
<!-- Created by Polyform Puzzler (http://puzzler.sourceforge.net/) -->
<svg width="680.000" height="680.000"
     viewBox="0 0 680.000 680.000"
     xmlns="http://www.w3.org/2000/svg"
     xmlns:xlink="http://www.w3.org/1999/xlink">
<g transform="translate(340.000,170.000) rotate(90)">
<polygon fill="darkorange" stroke="white"
         stroke-width="1" stroke-linejoin="round"
         points="110.000,181.865 120.000,181.865 125.000,173.205 135.000,173.205 130.000,164.545 135.000,155.885 125.000,155.885">
<desc>E7</desc>
</polygon>
<polygon fill="maroon" stroke="white"
         stroke-width="1" stroke-linejoin="round"
         points="120.000,181.865 140.000,181.865 145.000,173.205 140.000,164.545 130.000,164.545 135.000,173.205 125.000,173.205">
<desc>G6</desc>
</polygon>
<polygon fill="red" stroke="white"
         stroke-width="1" stroke-linejoin="round"
         points="140.000,181.865 160.000,181.865 155.000,173.205 160.000,164.545 140.000,164.545 145.000,173.205">
<desc>X6</desc>
</polygon>
<polygon fill="green" stroke="white"
         stroke-width="1" stroke-linejoin="round"
         points="155.000,173.205 160.000,181.865 170.000,181.865 175.000,173.205 170.000,164.545 160.000,164.545">
<desc>O6</desc>
</polygon>
<polygon fill="navy" stroke="white"
         stroke-width="1" stroke-linejoin="round"
         points="170.000,181.865 180.000,181.865 185.000,173.205 180.000,164.545 185.000,155.885 175.000,155.885 170.000,164.545 175.000,173.205">
<desc>S6</desc>
</polygon>
<polygon fill="maroon" stroke="white"
         stroke-width="1" stroke-linejoin="round"
         points="180.000,181.865 210.000,181.865 205.000,173.205 195.000,173.205 200.000,164.545 190.000,164.545">
<desc>G7</desc>
</polygon>
<polygon fill="plum" stroke="white"
         stroke-width="1" stroke-linejoin="round"
         points="205.000,173.205 210.000,181.865 230.000,181.865 220.000,164.545 215.000,173.205 210.000,164.545">
<desc>F6</desc>
</polygon>
<polygon fill="brown" stroke="white"
         stroke-width="1" stroke-linejoin="round"
         points="180.000,164.545 185.000,173.205 190.000,164.545 200.000,164.545 195.000,155.885 185.000,155.885">
<desc>C4</desc>
</polygon>
<polygon fill="peru" stroke="white"
         stroke-width="1" stroke-linejoin="round"
         points="195.000,173.205 205.000,173.205 210.000,164.545 215.000,173.205 220.000,164.545 215.000,155.885 195.000,155.885 200.000,164.545">
<desc>A7</desc>
</polygon>
<polygon fill="tomato" stroke="white"
         stroke-width="1" stroke-linejoin="round"
         points="130.000,164.545 150.000,164.545 140.000,147.224">
<desc>T4</desc>
</polygon>
<polygon fill="olive" stroke="white"
         stroke-width="1" stroke-linejoin="round"
         points="145.000,155.885 150.000,164.545 170.000,164.545 180.000,147.224 170.000,147.224 165.000,155.885">
<desc>R7</desc>
</polygon>
<polygon fill="gold" stroke="white"
         stroke-width="1" stroke-linejoin="round"
         points="125.000,155.885 135.000,155.885 140.000,147.224 145.000,155.885 155.000,155.885 145.000,138.564 135.000,138.564">
<desc>V7</desc>
</polygon>
<polygon fill="magenta" stroke="white"
         stroke-width="1" stroke-linejoin="round"
         points="150.000,147.224 155.000,155.885 160.000,147.224 145.000,121.244 135.000,138.564 145.000,138.564">
<desc>P7</desc>
</polygon>
<polygon fill="yellow" stroke="white"
         stroke-width="1" stroke-linejoin="round"
         points="155.000,155.885 165.000,155.885 175.000,138.564 170.000,129.904 165.000,138.564 160.000,129.904 155.000,138.564 160.000,147.224">
<desc>Y7</desc>
</polygon>
<polygon fill="blue" stroke="white"
         stroke-width="1" stroke-linejoin="round"
         points="175.000,155.885 215.000,155.885 210.000,147.224 180.000,147.224">
<desc>I7</desc>
</polygon>
<polygon fill="indigo" stroke="white"
         stroke-width="1" stroke-linejoin="round"
         points="170.000,147.224 190.000,147.224 185.000,138.564 190.000,129.904 185.000,121.244 180.000,129.904 170.000,129.904 175.000,138.564">
<desc>X7</desc>
</polygon>
<polygon fill="darkseagreen" stroke="white"
         stroke-width="1" stroke-linejoin="round"
         points="185.000,138.564 190.000,147.224 210.000,147.224 205.000,138.564 195.000,138.564 190.000,129.904">
<desc>L5</desc>
</polygon>
<polygon fill="gold" stroke="white"
         stroke-width="1" stroke-linejoin="round"
         points="150.000,129.904 155.000,138.564 165.000,121.244 160.000,112.583 155.000,121.244 150.000,112.583 145.000,121.244">
<desc>V6</desc>
</polygon>
<polygon fill="blueviolet" stroke="white"
         stroke-width="1" stroke-linejoin="round"
         points="160.000,129.904 165.000,138.564 170.000,129.904 180.000,129.904 185.000,121.244 175.000,121.244 170.000,112.583 160.000,112.583 165.000,121.244">
<desc>W7</desc>
</polygon>
<polygon fill="steelblue" stroke="white"
         stroke-width="1" stroke-linejoin="round"
         points="190.000,129.904 195.000,138.564 205.000,138.564 190.000,112.583 180.000,112.583 175.000,121.244 185.000,121.244">
<desc>L7</desc>
</polygon>
<polygon fill="darkorange" stroke="white"
         stroke-width="1" stroke-linejoin="round"
         points="150.000,112.583 155.000,121.244 160.000,112.583 170.000,112.583 165.000,103.923 170.000,95.263 160.000,95.263">
<desc>E6</desc>
</polygon>
<polygon fill="plum" stroke="white"
         stroke-width="1" stroke-linejoin="round"
         points="170.000,112.583 175.000,121.244 180.000,112.583 190.000,112.583 180.000,95.263 170.000,95.263 175.000,103.923 165.000,103.923">
<desc>B7</desc>
</polygon>
<polygon fill="lime" stroke="white"
         stroke-width="1" stroke-linejoin="round"
         points="155.000,86.603 160.000,95.263 170.000,95.263 165.000,86.603 170.000,77.942 180.000,77.942 175.000,69.282 165.000,69.282">
<desc>C7</desc>
</polygon>
<polygon fill="olive" stroke="white"
         stroke-width="1" stroke-linejoin="round"
         points="170.000,95.263 180.000,95.263 185.000,86.603 180.000,77.942 170.000,77.942 165.000,86.603 175.000,86.603">
<desc>C5</desc>
</polygon>
<polygon fill="lime" stroke="white"
         stroke-width="1" stroke-linejoin="round"
         points="150.000,77.942 155.000,86.603 165.000,69.282 175.000,69.282 170.000,60.622 160.000,60.622">
<desc>J6</desc>
</polygon>
<polygon fill="red" stroke="white"
         stroke-width="1" stroke-linejoin="round"
         points="180.000,77.942 185.000,86.603 200.000,60.622 180.000,60.622 185.000,69.282 175.000,69.282">
<desc>M7</desc>
</polygon>
<polygon fill="indigo" stroke="white"
         stroke-width="1" stroke-linejoin="round"
         points="145.000,69.282 150.000,77.942 160.000,60.622 155.000,51.962 150.000,60.622 140.000,60.622">
<desc>P5</desc>
</polygon>
<polygon fill="gray" stroke="white"
         stroke-width="1" stroke-linejoin="round"
         points="170.000,60.622 175.000,69.282 185.000,69.282 180.000,60.622 185.000,51.962 175.000,34.641 170.000,43.301 175.000,51.962">
<desc>N7</desc>
</polygon>
<polygon fill="darkseagreen" stroke="white"
         stroke-width="1" stroke-linejoin="round"
         points="135.000,51.962 140.000,60.622 145.000,51.962 150.000,60.622 155.000,51.962 165.000,51.962 160.000,43.301 140.000,43.301">
<desc>F7</desc>
</polygon>
<polygon fill="gray" stroke="white"
         stroke-width="1" stroke-linejoin="round"
         points="140.000,60.622 150.000,60.622 145.000,51.962">
<desc>T1</desc>
</polygon>
<polygon fill="yellowgreen" stroke="white"
         stroke-width="1" stroke-linejoin="round"
         points="155.000,51.962 160.000,60.622 170.000,60.622 175.000,51.962 165.000,34.641 155.000,34.641 165.000,51.962">
<desc>J7</desc>
</polygon>
<polygon fill="lightcoral" stroke="white"
         stroke-width="1" stroke-linejoin="round"
         points="180.000,60.622 190.000,60.622 195.000,51.962 190.000,43.301 195.000,34.641 175.000,34.641 185.000,51.962">
<desc>Q7</desc>
</polygon>
<polygon fill="orangered" stroke="white"
         stroke-width="1" stroke-linejoin="round"
         points="190.000,60.622 200.000,60.622 210.000,43.301 200.000,43.301 205.000,34.641 195.000,34.641 190.000,43.301 195.000,51.962">
<desc>Z7</desc>
</polygon>
<polygon fill="teal" stroke="white"
         stroke-width="1" stroke-linejoin="round"
         points="130.000,43.301 135.000,51.962 140.000,43.301 135.000,34.641 125.000,34.641">
<desc>I3</desc>
</polygon>
<polygon fill="turquoise" stroke="white"
         stroke-width="1" stroke-linejoin="round"
         points="135.000,34.641 140.000,43.301 150.000,43.301 145.000,34.641 150.000,25.981 120.000,25.981 125.000,34.641">
<desc>H7</desc>
</polygon>
<polygon fill="navy" stroke="white"
         stroke-width="1" stroke-linejoin="round"
         points="145.000,34.641 150.000,43.301 160.000,43.301 155.000,34.641 165.000,34.641 170.000,25.981 165.000,17.321 160.000,25.981 150.000,25.981">
<desc>S7</desc>
</polygon>
<polygon fill="turquoise" stroke="white"
         stroke-width="1" stroke-linejoin="round"
         points="165.000,34.641 170.000,43.301 175.000,34.641 185.000,34.641 175.000,17.321 165.000,17.321 170.000,25.981">
<desc>H6</desc>
</polygon>
<polygon fill="teal" stroke="white"
         stroke-width="1" stroke-linejoin="round"
         points="200.000,43.301 210.000,43.301 220.000,25.981 210.000,25.981 205.000,17.321 195.000,17.321 205.000,34.641">
<desc>T7</desc>
</polygon>
<polygon fill="tan" stroke="white"
         stroke-width="1" stroke-linejoin="round"
         points="180.000,25.981 185.000,34.641 205.000,34.641 195.000,17.321 190.000,25.981 185.000,17.321 175.000,17.321">
<desc>U7</desc>
</polygon>
<polygon fill="blueviolet" stroke="white"
         stroke-width="1" stroke-linejoin="round"
         points="115.000,17.321 120.000,25.981 140.000,25.981 135.000,17.321 125.000,17.321 120.000,8.660 110.000,8.660">
<desc>C6</desc>
</polygon>
<polygon fill="orangered" stroke="white"
         stroke-width="1" stroke-linejoin="round"
         points="135.000,17.321 140.000,25.981 160.000,25.981 165.000,17.321">
<desc>I5</desc>
</polygon>
<polygon fill="magenta" stroke="white"
         stroke-width="1" stroke-linejoin="round"
         points="185.000,17.321 190.000,25.981 195.000,17.321 205.000,17.321 210.000,8.660 180.000,8.660">
<desc>P6</desc>
</polygon>
<polygon fill="green" stroke="white"
         stroke-width="1" stroke-linejoin="round"
         points="205.000,17.321 210.000,25.981 220.000,25.981 230.000,8.660 210.000,8.660">
<desc>D7</desc>
</polygon>
<polygon fill="steelblue" stroke="white"
         stroke-width="1" stroke-linejoin="round"
         points="120.000,8.660 125.000,17.321 135.000,17.321 130.000,8.660">
<desc>D2</desc>
</polygon>
<polygon fill="plum" stroke="white"
         stroke-width="1" stroke-linejoin="round"
         points="130.000,8.660 135.000,17.321 155.000,17.321 150.000,8.660">
<desc>I4</desc>
</polygon>
<polygon fill="blue" stroke="white"
         stroke-width="1" stroke-linejoin="round"
         points="150.000,8.660 155.000,17.321 185.000,17.321 180.000,8.660">
<desc>I6</desc>
</polygon>
</g>
</svg>
