<?xml version="1.0" standalone="no"?>
<!-- Created by Polyform Puzzler (http://puzzler.sourceforge.net/) -->
<svg width="155.000" height="60.622"
     viewBox="0 0 155.000 60.622"
     xmlns="http://www.w3.org/2000/svg"
     xmlns:xlink="http://www.w3.org/1999/xlink">
<g>
<polygon fill="blueviolet" stroke="white"
         stroke-width="1" stroke-linejoin="round"
         points="10.000,51.962 20.000,51.962 25.000,43.301 35.000,43.301 40.000,34.641 20.000,34.641">
<desc>C6</desc>
</polygon>
<polygon fill="steelblue" stroke="white"
         stroke-width="1" stroke-linejoin="round"
         points="20.000,51.962 30.000,51.962 35.000,43.301 25.000,43.301">
<desc>D2</desc>
</polygon>
<polygon fill="teal" stroke="white"
         stroke-width="1" stroke-linejoin="round"
         points="30.000,51.962 40.000,51.962 45.000,43.301 40.000,34.641">
<desc>I3</desc>
</polygon>
<polygon fill="red" stroke="white"
         stroke-width="1" stroke-linejoin="round"
         points="40.000,51.962 60.000,51.962 55.000,43.301 60.000,34.641 40.000,34.641 45.000,43.301">
<desc>X6</desc>
</polygon>
<polygon fill="navy" stroke="white"
         stroke-width="1" stroke-linejoin="round"
         points="55.000,43.301 60.000,51.962 70.000,51.962 65.000,43.301 70.000,34.641 65.000,25.981 55.000,25.981 60.000,34.641">
<desc>S6</desc>
</polygon>
<polygon fill="lime" stroke="white"
         stroke-width="1" stroke-linejoin="round"
         points="65.000,43.301 70.000,51.962 90.000,51.962 95.000,43.301 75.000,43.301 70.000,34.641">
<desc>J6</desc>
</polygon>
<polygon fill="blue" stroke="white"
         stroke-width="1" stroke-linejoin="round"
         points="90.000,51.962 120.000,51.962 125.000,43.301 95.000,43.301">
<desc>I6</desc>
</polygon>
<polygon fill="green" stroke="white"
         stroke-width="1" stroke-linejoin="round"
         points="70.000,34.641 75.000,43.301 85.000,43.301 90.000,34.641 85.000,25.981 75.000,25.981">
<desc>O6</desc>
</polygon>
<polygon fill="indigo" stroke="white"
         stroke-width="1" stroke-linejoin="round"
         points="85.000,43.301 105.000,43.301 95.000,25.981 85.000,25.981 90.000,34.641">
<desc>P5</desc>
</polygon>
<polygon fill="orangered" stroke="white"
         stroke-width="1" stroke-linejoin="round"
         points="100.000,34.641 105.000,43.301 125.000,43.301 130.000,34.641">
<desc>I5</desc>
</polygon>
<polygon fill="maroon" stroke="white"
         stroke-width="1" stroke-linejoin="round"
         points="20.000,34.641 30.000,34.641 35.000,25.981 40.000,34.641 45.000,25.981 40.000,17.321 30.000,17.321">
<desc>G6</desc>
</polygon>
<polygon fill="gray" stroke="white"
         stroke-width="1" stroke-linejoin="round"
         points="30.000,34.641 40.000,34.641 35.000,25.981">
<desc>T1</desc>
</polygon>
<polygon fill="tomato" stroke="white"
         stroke-width="1" stroke-linejoin="round"
         points="40.000,34.641 60.000,34.641 50.000,17.321">
<desc>T4</desc>
</polygon>
<polygon fill="magenta" stroke="white"
         stroke-width="1" stroke-linejoin="round"
         points="65.000,25.981 70.000,34.641 85.000,8.660 65.000,8.660 70.000,17.321">
<desc>P6</desc>
</polygon>
<polygon fill="darkseagreen" stroke="white"
         stroke-width="1" stroke-linejoin="round"
         points="95.000,25.981 100.000,34.641 120.000,34.641 115.000,25.981 105.000,25.981 100.000,17.321">
<desc>L5</desc>
</polygon>
<polygon fill="brown" stroke="white"
         stroke-width="1" stroke-linejoin="round"
         points="115.000,25.981 120.000,34.641 130.000,34.641 135.000,25.981 130.000,17.321 125.000,25.981">
<desc>C4</desc>
</polygon>
<polygon fill="darkorange" stroke="white"
         stroke-width="1" stroke-linejoin="round"
         points="40.000,17.321 45.000,25.981 50.000,17.321 60.000,17.321 55.000,8.660 35.000,8.660 30.000,17.321">
<desc>E6</desc>
</polygon>
<polygon fill="olive" stroke="white"
         stroke-width="1" stroke-linejoin="round"
         points="50.000,17.321 55.000,25.981 65.000,25.981 70.000,17.321 65.000,8.660 55.000,8.660 60.000,17.321">
<desc>C5</desc>
</polygon>
<polygon fill="gold" stroke="white"
         stroke-width="1" stroke-linejoin="round"
         points="75.000,25.981 95.000,25.981 100.000,17.321 90.000,17.321 95.000,8.660 85.000,8.660">
<desc>V6</desc>
</polygon>
<polygon fill="turquoise" stroke="white"
         stroke-width="1" stroke-linejoin="round"
         points="100.000,17.321 105.000,25.981 125.000,25.981 120.000,17.321 125.000,8.660 115.000,8.660 110.000,17.321">
<desc>H6</desc>
</polygon>
<polygon fill="plum" stroke="white"
         stroke-width="1" stroke-linejoin="round"
         points="120.000,17.321 125.000,25.981 130.000,17.321 135.000,25.981 145.000,8.660 125.000,8.660">
<desc>F6</desc>
</polygon>
<polygon fill="plum" stroke="white"
         stroke-width="1" stroke-linejoin="round"
         points="90.000,17.321 110.000,17.321 115.000,8.660 95.000,8.660">
<desc>I4</desc>
</polygon>
</g>
</svg>
