<?xml version="1.0" standalone="no"?>
<!-- Created by Polyform Puzzler (http://puzzler.sourceforge.net/) -->
<svg width="120.000" height="51.962"
     viewBox="0 0 120.000 51.962"
     xmlns="http://www.w3.org/2000/svg"
     xmlns:xlink="http://www.w3.org/1999/xlink">
<g>
<polygon fill="plum" stroke="white"
         stroke-width="1" stroke-linejoin="round"
         points="45.000,34.641 50.000,43.301 60.000,43.301 50.000,25.981 40.000,25.981">
<desc>I4</desc>
</polygon>
<polygon fill="brown" stroke="white"
         stroke-width="1" stroke-linejoin="round"
         points="55.000,34.641 60.000,43.301 70.000,43.301 75.000,34.641 70.000,25.981 65.000,34.641">
<desc>C4</desc>
</polygon>
<polygon fill="steelblue" stroke="white"
         stroke-width="1" stroke-linejoin="round"
         points="20.000,25.981 25.000,34.641 30.000,25.981 25.000,17.321">
<desc>D2</desc>
</polygon>
<polygon fill="tomato" stroke="white"
         stroke-width="1" stroke-linejoin="round"
         points="25.000,34.641 45.000,34.641 35.000,17.321">
<desc>T4</desc>
</polygon>
<polygon fill="darkseagreen" stroke="white"
         stroke-width="1" stroke-linejoin="round"
         points="50.000,25.981 55.000,34.641 60.000,25.981 55.000,17.321 35.000,17.321 40.000,25.981">
<desc>L5</desc>
</polygon>
<polygon fill="olive" stroke="white"
         stroke-width="1" stroke-linejoin="round"
         points="60.000,25.981 65.000,34.641 70.000,25.981 75.000,34.641 80.000,25.981 75.000,17.321 65.000,17.321">
<desc>C5</desc>
</polygon>
<polygon fill="indigo" stroke="white"
         stroke-width="1" stroke-linejoin="round"
         points="75.000,34.641 95.000,34.641 85.000,17.321 75.000,17.321 80.000,25.981">
<desc>P5</desc>
</polygon>
<polygon fill="teal" stroke="white"
         stroke-width="1" stroke-linejoin="round"
         points="90.000,25.981 95.000,34.641 100.000,25.981 95.000,17.321 85.000,17.321">
<desc>I3</desc>
</polygon>
<polygon fill="gray" stroke="white"
         stroke-width="1" stroke-linejoin="round"
         points="25.000,17.321 30.000,25.981 35.000,17.321">
<desc>T1</desc>
</polygon>
<polygon fill="orangered" stroke="white"
         stroke-width="1" stroke-linejoin="round"
         points="45.000,17.321 75.000,17.321 70.000,8.660 50.000,8.660">
<desc>I5</desc>
</polygon>
</g>
</svg>
