<?xml version="1.0" standalone="no"?>
<!-- Created by Polyform Puzzler (http://puzzler.sourceforge.net/) -->
<svg width="150.000" height="103.923"
     viewBox="0 0 150.000 103.923"
     xmlns="http://www.w3.org/2000/svg"
     xmlns:xlink="http://www.w3.org/1999/xlink">
<g>
<polygon fill="green" stroke="white"
         stroke-width="1" stroke-linejoin="round"
         points="55.000,86.603 60.000,95.263 70.000,95.263 75.000,86.603 70.000,77.942 60.000,77.942">
<desc>O6</desc>
</polygon>
<polygon fill="brown" stroke="white"
         stroke-width="1" stroke-linejoin="round"
         points="70.000,95.263 80.000,95.263 85.000,86.603 80.000,77.942 70.000,77.942 75.000,86.603">
<desc>C4</desc>
</polygon>
<polygon fill="steelblue" stroke="white"
         stroke-width="1" stroke-linejoin="round"
         points="80.000,95.263 90.000,95.263 95.000,86.603 85.000,86.603">
<desc>D2</desc>
</polygon>
<polygon fill="blueviolet" stroke="white"
         stroke-width="1" stroke-linejoin="round"
         points="50.000,77.942 55.000,86.603 60.000,77.942 55.000,69.282 60.000,60.622 55.000,51.962 45.000,69.282">
<desc>C6</desc>
</polygon>
<polygon fill="plum" stroke="white"
         stroke-width="1" stroke-linejoin="round"
         points="80.000,77.942 85.000,86.603 95.000,69.282 90.000,60.622">
<desc>I4</desc>
</polygon>
<polygon fill="teal" stroke="white"
         stroke-width="1" stroke-linejoin="round"
         points="85.000,86.603 95.000,86.603 100.000,77.942 95.000,69.282">
<desc>I3</desc>
</polygon>
<polygon fill="lime" stroke="white"
         stroke-width="1" stroke-linejoin="round"
         points="55.000,69.282 60.000,77.942 80.000,77.942 85.000,69.282 80.000,60.622 75.000,69.282">
<desc>J6</desc>
</polygon>
<polygon fill="orangered" stroke="white"
         stroke-width="1" stroke-linejoin="round"
         points="95.000,69.282 100.000,77.942 115.000,51.962 105.000,51.962">
<desc>I5</desc>
</polygon>
<polygon fill="plum" stroke="white"
         stroke-width="1" stroke-linejoin="round"
         points="40.000,60.622 45.000,69.282 55.000,51.962 45.000,51.962 50.000,43.301 40.000,43.301 35.000,51.962">
<desc>F6</desc>
</polygon>
<polygon fill="indigo" stroke="white"
         stroke-width="1" stroke-linejoin="round"
         points="55.000,69.282 75.000,69.282 65.000,51.962 55.000,51.962 60.000,60.622">
<desc>P5</desc>
</polygon>
<polygon fill="gold" stroke="white"
         stroke-width="1" stroke-linejoin="round"
         points="70.000,60.622 75.000,69.282 80.000,60.622 85.000,69.282 90.000,60.622 80.000,43.301">
<desc>V6</desc>
</polygon>
<polygon fill="tomato" stroke="white"
         stroke-width="1" stroke-linejoin="round"
         points="90.000,60.622 95.000,69.282 105.000,51.962 85.000,51.962">
<desc>T4</desc>
</polygon>
<polygon fill="red" stroke="white"
         stroke-width="1" stroke-linejoin="round"
         points="65.000,51.962 70.000,60.622 80.000,43.301 70.000,43.301 65.000,34.641 55.000,51.962">
<desc>X6</desc>
</polygon>
<polygon fill="olive" stroke="white"
         stroke-width="1" stroke-linejoin="round"
         points="45.000,51.962 55.000,51.962 60.000,43.301 55.000,34.641 45.000,34.641 40.000,43.301 50.000,43.301">
<desc>C5</desc>
</polygon>
<polygon fill="darkseagreen" stroke="white"
         stroke-width="1" stroke-linejoin="round"
         points="80.000,43.301 85.000,51.962 90.000,43.301 85.000,34.641 65.000,34.641 70.000,43.301">
<desc>L5</desc>
</polygon>
<polygon fill="magenta" stroke="white"
         stroke-width="1" stroke-linejoin="round"
         points="85.000,51.962 105.000,51.962 90.000,25.981 85.000,34.641 90.000,43.301">
<desc>P6</desc>
</polygon>
<polygon fill="blue" stroke="white"
         stroke-width="1" stroke-linejoin="round"
         points="100.000,43.301 105.000,51.962 115.000,51.962 100.000,25.981 90.000,25.981">
<desc>I6</desc>
</polygon>
<polygon fill="darkorange" stroke="white"
         stroke-width="1" stroke-linejoin="round"
         points="55.000,34.641 60.000,43.301 65.000,34.641 75.000,34.641 70.000,25.981 50.000,25.981 45.000,34.641">
<desc>E6</desc>
</polygon>
<polygon fill="navy" stroke="white"
         stroke-width="1" stroke-linejoin="round"
         points="70.000,25.981 75.000,34.641 85.000,34.641 90.000,25.981 100.000,25.981 95.000,17.321 85.000,17.321 80.000,25.981">
<desc>S6</desc>
</polygon>
<polygon fill="maroon" stroke="white"
         stroke-width="1" stroke-linejoin="round"
         points="50.000,25.981 60.000,25.981 65.000,17.321 70.000,25.981 75.000,17.321 70.000,8.660 60.000,8.660">
<desc>G6</desc>
</polygon>
<polygon fill="gray" stroke="white"
         stroke-width="1" stroke-linejoin="round"
         points="60.000,25.981 70.000,25.981 65.000,17.321">
<desc>T1</desc>
</polygon>
<polygon fill="turquoise" stroke="white"
         stroke-width="1" stroke-linejoin="round"
         points="70.000,25.981 80.000,25.981 85.000,17.321 95.000,17.321 90.000,8.660 70.000,8.660 75.000,17.321">
<desc>H6</desc>
</polygon>
</g>
</svg>
