<?xml version="1.0" standalone="no"?>
<!-- Created by Polyform Puzzler (http://puzzler.sourceforge.net/) -->
<svg width="140.000" height="34.641"
     viewBox="0 0 140.000 34.641"
     xmlns="http://www.w3.org/2000/svg"
     xmlns:xlink="http://www.w3.org/1999/xlink">
<g>
<polygon fill="indigo" stroke="white"
         stroke-width="1" stroke-linejoin="round"
         points="20.000,25.981 40.000,25.981 30.000,8.660 20.000,8.660 25.000,17.321">
<desc>P5</desc>
</polygon>
<polygon fill="tomato" stroke="white"
         stroke-width="1" stroke-linejoin="round"
         points="35.000,17.321 40.000,25.981 50.000,8.660 30.000,8.660">
<desc>T4</desc>
</polygon>
<polygon fill="darkseagreen" stroke="white"
         stroke-width="1" stroke-linejoin="round"
         points="40.000,25.981 50.000,25.981 55.000,17.321 65.000,17.321 60.000,8.660 50.000,8.660">
<desc>L5</desc>
</polygon>
<polygon fill="gray" stroke="white"
         stroke-width="1" stroke-linejoin="round"
         points="50.000,25.981 60.000,25.981 55.000,17.321">
<desc>T1</desc>
</polygon>
<polygon fill="olive" stroke="white"
         stroke-width="1" stroke-linejoin="round"
         points="55.000,17.321 60.000,25.981 70.000,25.981 75.000,17.321 70.000,8.660 60.000,8.660 65.000,17.321">
<desc>C5</desc>
</polygon>
<polygon fill="orangered" stroke="white"
         stroke-width="1" stroke-linejoin="round"
         points="70.000,25.981 100.000,25.981 95.000,17.321 75.000,17.321">
<desc>I5</desc>
</polygon>
<polygon fill="steelblue" stroke="white"
         stroke-width="1" stroke-linejoin="round"
         points="95.000,17.321 100.000,25.981 110.000,25.981 105.000,17.321">
<desc>D2</desc>
</polygon>
<polygon fill="brown" stroke="white"
         stroke-width="1" stroke-linejoin="round"
         points="105.000,17.321 110.000,25.981 120.000,25.981 115.000,17.321 120.000,8.660 110.000,8.660">
<desc>C4</desc>
</polygon>
<polygon fill="plum" stroke="white"
         stroke-width="1" stroke-linejoin="round"
         points="70.000,8.660 75.000,17.321 95.000,17.321 90.000,8.660">
<desc>I4</desc>
</polygon>
<polygon fill="teal" stroke="white"
         stroke-width="1" stroke-linejoin="round"
         points="90.000,8.660 95.000,17.321 105.000,17.321 110.000,8.660">
<desc>I3</desc>
</polygon>
</g>
</svg>
