<?xml version="1.0" standalone="no"?>
<!-- Created by Polyform Puzzler (http://puzzler.sourceforge.net/) -->
<svg width="400.000" height="400.000"
     viewBox="0 0 400.000 400.000"
     xmlns="http://www.w3.org/2000/svg"
     xmlns:xlink="http://www.w3.org/1999/xlink">
<g transform="translate(200.000,100.000) rotate(90)">
<polygon fill="plum" stroke="white"
         stroke-width="1" stroke-linejoin="round"
         points="60.000,95.263 70.000,95.263 80.000,77.942 70.000,77.942">
<desc>I4</desc>
</polygon>
<polygon fill="gold" stroke="white"
         stroke-width="1" stroke-linejoin="round"
         points="70.000,95.263 90.000,95.263 95.000,86.603 85.000,86.603 90.000,77.942 80.000,77.942">
<desc>V6</desc>
</polygon>
<polygon fill="olive" stroke="white"
         stroke-width="1" stroke-linejoin="round"
         points="90.000,95.263 100.000,95.263 105.000,86.603 100.000,77.942 90.000,77.942 85.000,86.603 95.000,86.603">
<desc>C5</desc>
</polygon>
<polygon fill="navy" stroke="white"
         stroke-width="1" stroke-linejoin="round"
         points="100.000,95.263 110.000,95.263 115.000,86.603 110.000,77.942 115.000,69.282 105.000,69.282 100.000,77.942 105.000,86.603">
<desc>S6</desc>
</polygon>
<polygon fill="magenta" stroke="white"
         stroke-width="1" stroke-linejoin="round"
         points="110.000,95.263 130.000,95.263 115.000,69.282 110.000,77.942 115.000,86.603">
<desc>P6</desc>
</polygon>
<polygon fill="blue" stroke="white"
         stroke-width="1" stroke-linejoin="round"
         points="125.000,86.603 130.000,95.263 140.000,95.263 125.000,69.282 115.000,69.282">
<desc>I6</desc>
</polygon>
<polygon fill="tomato" stroke="white"
         stroke-width="1" stroke-linejoin="round"
         points="70.000,77.942 90.000,77.942 80.000,60.622">
<desc>T4</desc>
</polygon>
<polygon fill="lime" stroke="white"
         stroke-width="1" stroke-linejoin="round"
         points="85.000,69.282 90.000,77.942 100.000,77.942 105.000,69.282 95.000,69.282 85.000,51.962 80.000,60.622">
<desc>J6</desc>
</polygon>
<polygon fill="green" stroke="white"
         stroke-width="1" stroke-linejoin="round"
         points="90.000,60.622 95.000,69.282 105.000,69.282 110.000,60.622 105.000,51.962 95.000,51.962">
<desc>O6</desc>
</polygon>
<polygon fill="indigo" stroke="white"
         stroke-width="1" stroke-linejoin="round"
         points="105.000,69.282 125.000,69.282 115.000,51.962 105.000,51.962 110.000,60.622">
<desc>P5</desc>
</polygon>
<polygon fill="red" stroke="white"
         stroke-width="1" stroke-linejoin="round"
         points="85.000,51.962 90.000,60.622 95.000,51.962 105.000,51.962 95.000,34.641 90.000,43.301 80.000,43.301">
<desc>X6</desc>
</polygon>
<polygon fill="orangered" stroke="white"
         stroke-width="1" stroke-linejoin="round"
         points="100.000,43.301 105.000,51.962 110.000,43.301 100.000,25.981 90.000,25.981">
<desc>I5</desc>
</polygon>
<polygon fill="turquoise" stroke="white"
         stroke-width="1" stroke-linejoin="round"
         points="105.000,51.962 115.000,51.962 125.000,34.641 115.000,34.641 110.000,25.981 105.000,34.641 110.000,43.301">
<desc>H6</desc>
</polygon>
<polygon fill="maroon" stroke="white"
         stroke-width="1" stroke-linejoin="round"
         points="75.000,34.641 80.000,43.301 90.000,43.301 95.000,34.641 90.000,25.981 85.000,34.641 80.000,25.981 70.000,25.981">
<desc>G6</desc>
</polygon>
<polygon fill="gray" stroke="white"
         stroke-width="1" stroke-linejoin="round"
         points="80.000,25.981 85.000,34.641 90.000,25.981">
<desc>T1</desc>
</polygon>
<polygon fill="darkorange" stroke="white"
         stroke-width="1" stroke-linejoin="round"
         points="100.000,25.981 105.000,34.641 110.000,25.981 120.000,25.981 115.000,17.321 120.000,8.660 110.000,8.660">
<desc>E6</desc>
</polygon>
<polygon fill="brown" stroke="white"
         stroke-width="1" stroke-linejoin="round"
         points="110.000,25.981 115.000,34.641 125.000,34.641 130.000,25.981 125.000,17.321 120.000,25.981">
<desc>C4</desc>
</polygon>
<polygon fill="blueviolet" stroke="white"
         stroke-width="1" stroke-linejoin="round"
         points="65.000,17.321 70.000,25.981 90.000,25.981 85.000,17.321 75.000,17.321 70.000,8.660 60.000,8.660">
<desc>C6</desc>
</polygon>
<polygon fill="darkseagreen" stroke="white"
         stroke-width="1" stroke-linejoin="round"
         points="85.000,17.321 90.000,25.981 100.000,25.981 110.000,8.660 100.000,8.660 95.000,17.321">
<desc>L5</desc>
</polygon>
<polygon fill="plum" stroke="white"
         stroke-width="1" stroke-linejoin="round"
         points="115.000,17.321 120.000,25.981 125.000,17.321 130.000,25.981 140.000,8.660 120.000,8.660">
<desc>F6</desc>
</polygon>
<polygon fill="steelblue" stroke="white"
         stroke-width="1" stroke-linejoin="round"
         points="70.000,8.660 75.000,17.321 85.000,17.321 80.000,8.660">
<desc>D2</desc>
</polygon>
<polygon fill="teal" stroke="white"
         stroke-width="1" stroke-linejoin="round"
         points="80.000,8.660 85.000,17.321 95.000,17.321 100.000,8.660">
<desc>I3</desc>
</polygon>
</g>
</svg>
