<?xml version="1.0" standalone="no"?>
<!-- Created by Polyform Puzzler (http://puzzler.sourceforge.net/) -->
<svg width="480.000" height="480.000"
     viewBox="0 0 480.000 480.000"
     xmlns="http://www.w3.org/2000/svg"
     xmlns:xlink="http://www.w3.org/1999/xlink">
<g transform="translate(240.000,120.000) rotate(90)">
<polygon fill="teal" stroke="white"
         stroke-width="1" stroke-linejoin="round"
         points="105.000,173.205 110.000,181.865 120.000,181.865 125.000,173.205">
<desc>I3</desc>
</polygon>
<polygon fill="plum" stroke="white"
         stroke-width="1" stroke-linejoin="round"
         points="120.000,181.865 130.000,181.865 140.000,164.545 130.000,164.545">
<desc>I4</desc>
</polygon>
<polygon fill="maroon" stroke="white"
         stroke-width="1" stroke-linejoin="round"
         points="100.000,164.545 105.000,173.205 115.000,173.205 120.000,164.545 110.000,147.224 105.000,155.885 110.000,164.545">
<desc>G6</desc>
</polygon>
<polygon fill="turquoise" stroke="white"
         stroke-width="1" stroke-linejoin="round"
         points="115.000,173.205 125.000,173.205 130.000,164.545 140.000,164.545 145.000,155.885 135.000,155.885 130.000,147.224">
<desc>H7</desc>
</polygon>
<polygon fill="turquoise" stroke="white"
         stroke-width="1" stroke-linejoin="round"
         points="95.000,155.885 100.000,164.545 110.000,164.545 105.000,155.885 110.000,147.224 105.000,138.564 100.000,147.224 90.000,147.224">
<desc>H6</desc>
</polygon>
<polygon fill="maroon" stroke="white"
         stroke-width="1" stroke-linejoin="round"
         points="115.000,155.885 120.000,164.545 135.000,138.564 125.000,138.564 120.000,147.224 115.000,138.564 110.000,147.224">
<desc>G7</desc>
</polygon>
<polygon fill="blue" stroke="white"
         stroke-width="1" stroke-linejoin="round"
         points="130.000,147.224 135.000,155.885 150.000,129.904 145.000,121.244">
<desc>I6</desc>
</polygon>
<polygon fill="orangered" stroke="white"
         stroke-width="1" stroke-linejoin="round"
         points="135.000,155.885 145.000,155.885 155.000,138.564 150.000,129.904">
<desc>I5</desc>
</polygon>
<polygon fill="plum" stroke="white"
         stroke-width="1" stroke-linejoin="round"
         points="85.000,138.564 90.000,147.224 100.000,147.224 105.000,138.564 95.000,138.564 100.000,129.904 80.000,129.904">
<desc>F6</desc>
</polygon>
<polygon fill="darkseagreen" stroke="white"
         stroke-width="1" stroke-linejoin="round"
         points="105.000,138.564 110.000,147.224 115.000,138.564 120.000,147.224 125.000,138.564 120.000,129.904 100.000,129.904 95.000,138.564">
<desc>F7</desc>
</polygon>
<polygon fill="darkseagreen" stroke="white"
         stroke-width="1" stroke-linejoin="round"
         points="120.000,129.904 125.000,138.564 135.000,138.564 145.000,121.244 135.000,121.244 130.000,129.904">
<desc>L5</desc>
</polygon>
<polygon fill="blue" stroke="white"
         stroke-width="1" stroke-linejoin="round"
         points="150.000,129.904 155.000,138.564 175.000,103.923 165.000,103.923">
<desc>I7</desc>
</polygon>
<polygon fill="darkorange" stroke="white"
         stroke-width="1" stroke-linejoin="round"
         points="75.000,121.244 80.000,129.904 110.000,129.904 105.000,121.244 95.000,121.244 90.000,112.583 85.000,121.244">
<desc>E7</desc>
</polygon>
<polygon fill="gray" stroke="white"
         stroke-width="1" stroke-linejoin="round"
         points="105.000,121.244 110.000,129.904 120.000,129.904 110.000,112.583 100.000,112.583 95.000,103.923 90.000,112.583 95.000,121.244">
<desc>N7</desc>
</polygon>
<polygon fill="yellowgreen" stroke="white"
         stroke-width="1" stroke-linejoin="round"
         points="115.000,121.244 120.000,129.904 130.000,129.904 135.000,121.244 125.000,121.244 135.000,103.923 125.000,103.923">
<desc>J7</desc>
</polygon>
<polygon fill="lime" stroke="white"
         stroke-width="1" stroke-linejoin="round"
         points="145.000,121.244 150.000,129.904 155.000,121.244 150.000,112.583 130.000,112.583 125.000,121.244">
<desc>J6</desc>
</polygon>
<polygon fill="plum" stroke="white"
         stroke-width="1" stroke-linejoin="round"
         points="70.000,112.583 75.000,121.244 85.000,121.244 80.000,112.583 90.000,112.583 80.000,95.263 75.000,103.923 65.000,103.923">
<desc>B7</desc>
</polygon>
<polygon fill="gray" stroke="white"
         stroke-width="1" stroke-linejoin="round"
         points="80.000,112.583 85.000,121.244 90.000,112.583">
<desc>T1</desc>
</polygon>
<polygon fill="red" stroke="white"
         stroke-width="1" stroke-linejoin="round"
         points="110.000,112.583 115.000,121.244 125.000,103.923 115.000,103.923 120.000,95.263 100.000,95.263">
<desc>M7</desc>
</polygon>
<polygon fill="red" stroke="white"
         stroke-width="1" stroke-linejoin="round"
         points="150.000,112.583 155.000,121.244 165.000,103.923 155.000,103.923 150.000,95.263 140.000,112.583">
<desc>X6</desc>
</polygon>
<polygon fill="tan" stroke="white"
         stroke-width="1" stroke-linejoin="round"
         points="85.000,103.923 90.000,112.583 95.000,103.923 100.000,112.583 110.000,112.583 100.000,95.263 80.000,95.263">
<desc>U7</desc>
</polygon>
<polygon fill="navy" stroke="white"
         stroke-width="1" stroke-linejoin="round"
         points="130.000,112.583 140.000,112.583 145.000,103.923 140.000,95.263 145.000,86.603 135.000,86.603 130.000,95.263 135.000,103.923">
<desc>S6</desc>
</polygon>
<polygon fill="green" stroke="white"
         stroke-width="1" stroke-linejoin="round"
         points="60.000,95.263 65.000,103.923 75.000,103.923 80.000,95.263 75.000,86.603 65.000,86.603">
<desc>O6</desc>
</polygon>
<polygon fill="navy" stroke="white"
         stroke-width="1" stroke-linejoin="round"
         points="120.000,95.263 125.000,103.923 135.000,103.923 130.000,95.263 135.000,86.603 130.000,77.942 120.000,77.942 115.000,86.603 125.000,86.603">
<desc>S7</desc>
</polygon>
<polygon fill="gold" stroke="white"
         stroke-width="1" stroke-linejoin="round"
         points="140.000,95.263 145.000,103.923 150.000,95.263 155.000,103.923 160.000,95.263 150.000,77.942">
<desc>V6</desc>
</polygon>
<polygon fill="gold" stroke="white"
         stroke-width="1" stroke-linejoin="round"
         points="155.000,103.923 175.000,103.923 180.000,95.263 170.000,77.942 165.000,86.603 170.000,95.263 160.000,95.263">
<desc>V7</desc>
</polygon>
<polygon fill="peru" stroke="white"
         stroke-width="1" stroke-linejoin="round"
         points="75.000,86.603 80.000,95.263 85.000,86.603 80.000,77.942 90.000,77.942 85.000,69.282 75.000,69.282 65.000,86.603">
<desc>A7</desc>
</polygon>
<polygon fill="indigo" stroke="white"
         stroke-width="1" stroke-linejoin="round"
         points="80.000,95.263 100.000,95.263 90.000,77.942 80.000,77.942 85.000,86.603">
<desc>P5</desc>
</polygon>
<polygon fill="olive" stroke="white"
         stroke-width="1" stroke-linejoin="round"
         points="95.000,86.603 100.000,95.263 110.000,95.263 100.000,77.942 105.000,69.282 100.000,60.622 90.000,77.942">
<desc>R7</desc>
</polygon>
<polygon fill="steelblue" stroke="white"
         stroke-width="1" stroke-linejoin="round"
         points="105.000,86.603 110.000,95.263 120.000,95.263 115.000,86.603 125.000,69.282 120.000,60.622">
<desc>L7</desc>
</polygon>
<polygon fill="orangered" stroke="white"
         stroke-width="1" stroke-linejoin="round"
         points="155.000,86.603 160.000,95.263 170.000,95.263 165.000,86.603 170.000,77.942 165.000,69.282 155.000,69.282 160.000,77.942 150.000,77.942">
<desc>Z7</desc>
</polygon>
<polygon fill="magenta" stroke="white"
         stroke-width="1" stroke-linejoin="round"
         points="100.000,77.942 105.000,86.603 120.000,60.622 100.000,60.622 105.000,69.282">
<desc>P6</desc>
</polygon>
<polygon fill="indigo" stroke="white"
         stroke-width="1" stroke-linejoin="round"
         points="130.000,77.942 135.000,86.603 140.000,77.942 135.000,69.282 140.000,60.622 120.000,60.622 125.000,69.282 120.000,77.942">
<desc>X7</desc>
</polygon>
<polygon fill="blueviolet" stroke="white"
         stroke-width="1" stroke-linejoin="round"
         points="135.000,86.603 145.000,86.603 150.000,77.942 160.000,77.942 155.000,69.282 145.000,69.282 140.000,60.622 135.000,69.282 140.000,77.942">
<desc>W7</desc>
</polygon>
<polygon fill="brown" stroke="white"
         stroke-width="1" stroke-linejoin="round"
         points="85.000,69.282 90.000,77.942 95.000,69.282 90.000,60.622 80.000,60.622 75.000,69.282">
<desc>C4</desc>
</polygon>
<polygon fill="lightcoral" stroke="white"
         stroke-width="1" stroke-linejoin="round"
         points="90.000,60.622 95.000,69.282 100.000,60.622 120.000,60.622 110.000,43.301 105.000,51.962 95.000,51.962">
<desc>Q7</desc>
</polygon>
<polygon fill="teal" stroke="white"
         stroke-width="1" stroke-linejoin="round"
         points="140.000,60.622 145.000,69.282 150.000,60.622 140.000,43.301 135.000,51.962 125.000,51.962 120.000,60.622">
<desc>T7</desc>
</polygon>
<polygon fill="magenta" stroke="white"
         stroke-width="1" stroke-linejoin="round"
         points="145.000,69.282 165.000,69.282 150.000,43.301 140.000,43.301 150.000,60.622">
<desc>P7</desc>
</polygon>
<polygon fill="blueviolet" stroke="white"
         stroke-width="1" stroke-linejoin="round"
         points="80.000,60.622 90.000,60.622 95.000,51.962 105.000,51.962 110.000,43.301 90.000,43.301">
<desc>C6</desc>
</polygon>
<polygon fill="tomato" stroke="white"
         stroke-width="1" stroke-linejoin="round"
         points="115.000,51.962 120.000,60.622 130.000,43.301 110.000,43.301">
<desc>T4</desc>
</polygon>
<polygon fill="yellow" stroke="white"
         stroke-width="1" stroke-linejoin="round"
         points="125.000,51.962 135.000,51.962 140.000,43.301 150.000,43.301 145.000,34.641 125.000,34.641 120.000,43.301 130.000,43.301">
<desc>Y7</desc>
</polygon>
<polygon fill="steelblue" stroke="white"
         stroke-width="1" stroke-linejoin="round"
         points="90.000,43.301 100.000,43.301 105.000,34.641 95.000,34.641">
<desc>D2</desc>
</polygon>
<polygon fill="olive" stroke="white"
         stroke-width="1" stroke-linejoin="round"
         points="100.000,43.301 110.000,43.301 115.000,34.641 110.000,25.981 100.000,25.981 95.000,34.641 105.000,34.641">
<desc>C5</desc>
</polygon>
<polygon fill="lime" stroke="white"
         stroke-width="1" stroke-linejoin="round"
         points="110.000,43.301 120.000,43.301 125.000,34.641 115.000,17.321 105.000,17.321 100.000,25.981 110.000,25.981 115.000,34.641">
<desc>C7</desc>
</polygon>
<polygon fill="green" stroke="white"
         stroke-width="1" stroke-linejoin="round"
         points="120.000,25.981 125.000,34.641 145.000,34.641 135.000,17.321 125.000,17.321">
<desc>D7</desc>
</polygon>
<polygon fill="darkorange" stroke="white"
         stroke-width="1" stroke-linejoin="round"
         points="115.000,17.321 120.000,25.981 125.000,17.321 135.000,17.321 130.000,8.660 110.000,8.660 105.000,17.321">
<desc>E6</desc>
</polygon>
</g>
</svg>
