<?xml version="1.0" standalone="no"?>
<!-- Created by Polyform Puzzler (http://puzzler.sourceforge.net/) -->
<svg width="190.000" height="190.000"
     viewBox="0 0 190.000 190.000"
     xmlns="http://www.w3.org/2000/svg"
     xmlns:xlink="http://www.w3.org/1999/xlink">
<g transform="translate(95.000,47.500) rotate(30)">
<polygon fill="steelblue" stroke="white"
         stroke-width="1" stroke-linejoin="round"
         points="10.000,51.962 20.000,51.962 25.000,43.301 15.000,43.301">
<desc>D2</desc>
</polygon>
<polygon fill="tomato" stroke="white"
         stroke-width="1" stroke-linejoin="round"
         points="20.000,51.962 40.000,51.962 30.000,34.641">
<desc>T4</desc>
</polygon>
<polygon fill="gray" stroke="white"
         stroke-width="1" stroke-linejoin="round"
         points="35.000,43.301 40.000,51.962 45.000,43.301">
<desc>T1</desc>
</polygon>
<polygon fill="darkseagreen" stroke="white"
         stroke-width="1" stroke-linejoin="round"
         points="15.000,43.301 25.000,43.301 30.000,34.641 40.000,34.641 35.000,25.981 25.000,25.981">
<desc>L5</desc>
</polygon>
<polygon fill="orangered" stroke="white"
         stroke-width="1" stroke-linejoin="round"
         points="30.000,34.641 35.000,43.301 55.000,43.301 60.000,34.641">
<desc>I5</desc>
</polygon>
<polygon fill="olive" stroke="white"
         stroke-width="1" stroke-linejoin="round"
         points="35.000,25.981 40.000,34.641 50.000,34.641 55.000,25.981 45.000,25.981 50.000,17.321 40.000,17.321">
<desc>C5</desc>
</polygon>
<polygon fill="indigo" stroke="white"
         stroke-width="1" stroke-linejoin="round"
         points="50.000,34.641 70.000,34.641 75.000,25.981 65.000,25.981 60.000,17.321">
<desc>P5</desc>
</polygon>
<polygon fill="plum" stroke="white"
         stroke-width="1" stroke-linejoin="round"
         points="45.000,25.981 55.000,25.981 65.000,8.660 55.000,8.660">
<desc>I4</desc>
</polygon>
<polygon fill="brown" stroke="white"
         stroke-width="1" stroke-linejoin="round"
         points="60.000,17.321 65.000,25.981 75.000,25.981 70.000,17.321 75.000,8.660 65.000,8.660">
<desc>C4</desc>
</polygon>
<polygon fill="teal" stroke="white"
         stroke-width="1" stroke-linejoin="round"
         points="70.000,17.321 75.000,25.981 85.000,8.660 75.000,8.660">
<desc>I3</desc>
</polygon>
</g>
</svg>
