<?xml version="1.0" standalone="no"?>
<!-- Created by Polyform Puzzler (http://puzzler.sourceforge.net/) -->
<svg width="220.000" height="220.000"
     viewBox="0 0 220.000 220.000"
     xmlns="http://www.w3.org/2000/svg"
     xmlns:xlink="http://www.w3.org/1999/xlink">
<g transform="translate(110.000,55.000) rotate(90)">
<polygon fill="teal" stroke="white"
         stroke-width="1" stroke-linejoin="round"
         points="40.000,60.622 50.000,60.622 55.000,51.962 50.000,43.301">
<desc>I3</desc>
</polygon>
<polygon fill="orangered" stroke="white"
         stroke-width="1" stroke-linejoin="round"
         points="50.000,60.622 60.000,60.622 70.000,43.301 65.000,34.641">
<desc>I5</desc>
</polygon>
<polygon fill="darkseagreen" stroke="white"
         stroke-width="1" stroke-linejoin="round"
         points="40.000,43.301 45.000,51.962 50.000,43.301 45.000,34.641 50.000,25.981 40.000,25.981 35.000,34.641">
<desc>L5</desc>
</polygon>
<polygon fill="plum" stroke="white"
         stroke-width="1" stroke-linejoin="round"
         points="65.000,51.962 75.000,51.962 85.000,34.641 75.000,34.641">
<desc>I4</desc>
</polygon>
<polygon fill="olive" stroke="white"
         stroke-width="1" stroke-linejoin="round"
         points="45.000,34.641 50.000,43.301 60.000,43.301 65.000,34.641 55.000,34.641 60.000,25.981 50.000,25.981">
<desc>C5</desc>
</polygon>
<polygon fill="indigo" stroke="white"
         stroke-width="1" stroke-linejoin="round"
         points="65.000,34.641 70.000,43.301 75.000,34.641 85.000,34.641 75.000,17.321">
<desc>P5</desc>
</polygon>
<polygon fill="gray" stroke="white"
         stroke-width="1" stroke-linejoin="round"
         points="55.000,34.641 65.000,34.641 60.000,25.981">
<desc>T1</desc>
</polygon>
<polygon fill="tomato" stroke="white"
         stroke-width="1" stroke-linejoin="round"
         points="60.000,25.981 65.000,34.641 75.000,17.321 55.000,17.321">
<desc>T4</desc>
</polygon>
<polygon fill="brown" stroke="white"
         stroke-width="1" stroke-linejoin="round"
         points="40.000,25.981 50.000,25.981 55.000,17.321 50.000,8.660 40.000,8.660 45.000,17.321">
<desc>C4</desc>
</polygon>
<polygon fill="steelblue" stroke="white"
         stroke-width="1" stroke-linejoin="round"
         points="50.000,8.660 55.000,17.321 65.000,17.321 60.000,8.660">
<desc>D2</desc>
</polygon>
</g>
</svg>
