<?xml version="1.0" standalone="no"?>
<!-- Created by Polyform Puzzler (http://puzzler.sourceforge.net/) -->
<svg width="130.000" height="69.282"
     viewBox="0 0 130.000 69.282"
     xmlns="http://www.w3.org/2000/svg"
     xmlns:xlink="http://www.w3.org/1999/xlink">
<g>
<polygon fill="tomato" stroke="white"
         stroke-width="1" stroke-linejoin="round"
         points="40.000,60.622 60.000,60.622 50.000,43.301">
<desc>T4</desc>
</polygon>
<polygon fill="teal" stroke="white"
         stroke-width="1" stroke-linejoin="round"
         points="55.000,51.962 60.000,60.622 70.000,43.301 60.000,43.301">
<desc>I3</desc>
</polygon>
<polygon fill="olive" stroke="white"
         stroke-width="1" stroke-linejoin="round"
         points="65.000,51.962 70.000,60.622 80.000,60.622 75.000,51.962 85.000,51.962 80.000,43.301 70.000,43.301">
<desc>C5</desc>
</polygon>
<polygon fill="steelblue" stroke="white"
         stroke-width="1" stroke-linejoin="round"
         points="75.000,51.962 80.000,60.622 90.000,60.622 85.000,51.962">
<desc>D2</desc>
</polygon>
<polygon fill="plum" stroke="white"
         stroke-width="1" stroke-linejoin="round"
         points="50.000,43.301 55.000,51.962 65.000,34.641 60.000,25.981">
<desc>I4</desc>
</polygon>
<polygon fill="brown" stroke="white"
         stroke-width="1" stroke-linejoin="round"
         points="65.000,34.641 70.000,43.301 80.000,43.301 75.000,34.641 80.000,25.981 70.000,25.981">
<desc>C4</desc>
</polygon>
<polygon fill="orangered" stroke="white"
         stroke-width="1" stroke-linejoin="round"
         points="50.000,25.981 55.000,34.641 60.000,25.981 50.000,8.660 40.000,8.660">
<desc>I5</desc>
</polygon>
<polygon fill="darkseagreen" stroke="white"
         stroke-width="1" stroke-linejoin="round"
         points="55.000,17.321 60.000,25.981 80.000,25.981 75.000,17.321 65.000,17.321 60.000,8.660">
<desc>L5</desc>
</polygon>
<polygon fill="indigo" stroke="white"
         stroke-width="1" stroke-linejoin="round"
         points="75.000,17.321 80.000,25.981 90.000,8.660 70.000,8.660 65.000,17.321">
<desc>P5</desc>
</polygon>
<polygon fill="gray" stroke="white"
         stroke-width="1" stroke-linejoin="round"
         points="50.000,8.660 55.000,17.321 60.000,8.660">
<desc>T1</desc>
</polygon>
</g>
</svg>
