<?xml version="1.0" standalone="no"?>
<!-- Created by Polyform Puzzler (http://puzzler.sourceforge.net/) -->
<svg width="259.808" height="259.808"
     viewBox="0 0 259.808 259.808"
     xmlns="http://www.w3.org/2000/svg"
     xmlns:xlink="http://www.w3.org/1999/xlink">
<g transform="translate(129.904,129.904) rotate(60)">
<path stroke="black" stroke-width="2" stroke-linecap="round"
      fill="none" d="M 16.400,60.622 l 5.400,0.000 M 21.800,60.622 a 5.543,5.543 0 0,1 4.800,2.771 M 28.400,66.511 l -1.800,-3.118 M 33.200,69.282 a 5.543,5.543 0 0,1 -4.800,-2.771 M 33.200,69.282 l 3.600,0.000 M 36.800,69.282 a 5.543,5.543 0 0,1 4.800,2.771 M 43.400,75.171 l -1.800,-3.118 M 48.200,77.942 a 5.543,5.543 0 0,1 -4.800,-2.771 M 48.200,77.942 l 3.600,0.000 M 51.800,77.942 a 5.543,5.543 0 0,1 4.800,2.771 M 59.300,85.390 l -2.700,-4.677">
<desc>I06</desc>
</path>
</g>
</svg>
