<?xml version="1.0" standalone="no"?>
<!-- Created by Polyform Puzzler (http://puzzler.sourceforge.net/) -->
<svg width="190.526" height="190.526"
     viewBox="0 0 190.526 190.526"
     xmlns="http://www.w3.org/2000/svg"
     xmlns:xlink="http://www.w3.org/1999/xlink">
<g transform="translate(95.263,95.263) rotate(-120)">
<path stroke="black" stroke-width="2" stroke-linecap="round"
      fill="none" d="M 11.600,54.733 a 5.543,5.543 0 0,1 0.000,-5.543 M 13.400,46.073 a 5.543,5.543 0 0,1 4.800,-2.771 M 13.400,46.073 l -1.800,3.118 M 13.400,57.850 l -1.800,-3.118 M 18.200,43.301 l 5.400,0.000 M 18.200,60.622 a 5.543,5.543 0 0,1 -4.800,-2.771 M 18.200,60.622 l 3.600,0.000 M 21.800,60.622 a 5.543,5.543 0 0,1 4.800,2.771 M 28.400,66.511 l -1.800,-3.118 M 33.200,69.282 a 5.543,5.543 0 0,1 -4.800,-2.771 M 33.200,69.282 l 5.400,0.000">
<desc>J06</desc>
</path>
</g>
</svg>
