<?xml version="1.0" standalone="no"?>
<!-- Created by Polyform Puzzler (http://puzzler.sourceforge.net/) -->
<svg width="242.487" height="242.487"
     viewBox="0 0 242.487 242.487"
     xmlns="http://www.w3.org/2000/svg"
     xmlns:xlink="http://www.w3.org/1999/xlink">
<g transform="matrix(1,0,0,-1,0,121.244) translate(121.244,0.000) rotate(60)">
<path stroke="black" stroke-width="2" stroke-linecap="round"
      fill="none" d="M 11.600,63.393 a 5.543,5.543 0 0,1 0.000,-5.543 M 13.400,66.511 l -1.800,-3.118 M 14.300,53.174 l -2.700,4.677 M 18.200,69.282 a 5.543,5.543 0 0,1 -4.800,-2.771 M 18.200,69.282 l 3.600,0.000 M 21.800,69.282 a 5.543,5.543 0 0,1 4.800,2.771 M 28.400,75.171 l -1.800,-3.118 M 33.200,77.942 a 5.543,5.543 0 0,1 -4.800,-2.771 M 33.200,77.942 l 3.600,0.000 M 36.800,77.942 a 5.543,5.543 0 0,1 4.800,2.771 M 44.300,85.390 l -2.700,-4.677">
<desc>L06</desc>
</path>
</g>
</svg>
