<?xml version="1.0" standalone="no"?>
<!-- Created by Polyform Puzzler (http://puzzler.sourceforge.net/) -->
<svg width="60.000" height="77.942"
     viewBox="0 0 60.000 77.942"
     xmlns="http://www.w3.org/2000/svg"
     xmlns:xlink="http://www.w3.org/1999/xlink">
<g>
<path stroke="black" stroke-width="2" stroke-linecap="round"
      fill="none" d="M 11.600,54.733 a 5.543,5.543 0 0,1 0.000,-5.543 M 13.400,46.073 a 5.543,5.543 0 0,1 4.800,-2.771 M 13.400,46.073 l -1.800,3.118 M 13.400,57.850 l -1.800,-3.118 M 18.200,43.301 l 3.600,0.000 M 18.200,60.622 a 5.543,5.543 0 0,1 -4.800,-2.771 M 18.200,60.622 l 3.600,0.000 M 21.800,43.301 a 5.543,5.543 0 0,1 4.800,2.771 M 26.600,57.850 a 5.543,5.543 0 0,1 -4.800,2.771 M 28.400,49.190 a 5.543,5.543 0 0,1 0.000,5.543 M 28.400,49.190 l -1.800,-3.118 M 28.400,54.733 l -1.800,3.118">
<desc>O06</desc>
</path>
</g>
</svg>
