<?xml version="1.0" standalone="no"?>
<!-- Created by Polyform Puzzler (http://puzzler.sourceforge.net/) -->
<svg width="173.205" height="173.205"
     viewBox="0 0 173.205 173.205"
     xmlns="http://www.w3.org/2000/svg"
     xmlns:xlink="http://www.w3.org/1999/xlink">
<g transform="translate(86.603,86.603) rotate(60)">
<path stroke="black" stroke-width="2" stroke-linecap="round"
      fill="none" d="M 13.400,54.733 a 5.543,5.543 0 0,1 4.800,-2.771 M 13.400,54.733 l -2.700,4.677 M 18.200,51.962 l 3.600,0.000 M 21.800,51.962 a 5.543,5.543 0 0,1 4.800,2.771 M 28.400,57.850 a 5.543,5.543 0 0,1 0.000,5.543 M 28.400,57.850 l -1.800,-3.118 M 28.400,63.393 a 5.543,5.543 0 0,1 4.800,-2.771 M 28.400,63.393 l -2.700,4.677 M 33.200,60.622 a 5.543,5.543 0 0,1 -4.800,-2.771 M 33.200,60.622 l 3.600,0.000 M 41.600,57.850 a 5.543,5.543 0 0,1 -4.800,2.771 M 44.300,53.174 l -2.700,4.677">
<desc>R16</desc>
</path>
</g>
</svg>
