<?xml version="1.0" standalone="no"?>
<!-- Created by Polyform Puzzler (http://puzzler.sourceforge.net/) -->
<svg width="225.167" height="225.167"
     viewBox="0 0 225.167 225.167"
     xmlns="http://www.w3.org/2000/svg"
     xmlns:xlink="http://www.w3.org/1999/xlink">
<g transform="translate(112.583,112.583) rotate(-150)">
<path stroke="black" stroke-width="2" stroke-linecap="round"
      fill="none" d="M 11.600,54.733 a 5.543,5.543 0 0,1 0.000,-5.543 M 13.400,57.850 l -1.800,-3.118 M 14.300,44.514 l -2.700,4.677 M 18.200,60.622 a 5.543,5.543 0 0,1 -4.800,-2.771 M 18.200,60.622 l 3.600,0.000 M 21.800,60.622 a 5.543,5.543 0 0,1 4.800,2.771 M 26.600,80.714 a 5.543,5.543 0 0,1 0.000,-5.543 M 28.400,66.511 a 5.543,5.543 0 0,1 0.000,5.543 M 28.400,66.511 l -1.800,-3.118 M 28.400,72.053 l -1.800,3.118 M 29.300,85.390 l -2.700,-4.677">
<desc>S16</desc>
</path>
</g>
</svg>
