<?xml version="1.0" standalone="no"?>
<!-- Created by Polyform Puzzler (http://puzzler.sourceforge.net/) -->
<svg width="75.000" height="86.603"
     viewBox="0 0 75.000 86.603"
     xmlns="http://www.w3.org/2000/svg"
     xmlns:xlink="http://www.w3.org/1999/xlink">
<g transform="matrix(1,0,0,-1,0,86.603) translate(0.000,0.000) rotate(0)">
<path stroke="black" stroke-width="2" stroke-linecap="round"
      fill="none" d="M 16.400,51.962 l 5.400,0.000 M 26.600,49.190 a 5.543,5.543 0 0,1 -4.800,2.771 M 28.400,46.073 a 5.543,5.543 0 0,1 4.800,-2.771 M 28.400,46.073 l -1.800,3.118 M 33.200,43.301 l 3.600,0.000 M 36.800,43.301 a 5.543,5.543 0 0,1 4.800,2.771 M 43.400,49.190 l -1.800,-3.118 M 48.200,51.962 a 5.543,5.543 0 0,1 -4.800,-2.771 M 48.200,51.962 l 5.400,0.000">
<desc>U5</desc>
</path>
</g>
</svg>
