<?xml version="1.0" encoding="UTF-8" standalone="no"?>
<!-- Created by Polyform Puzzler (http://puzzler.sourceforge.net/) -->

<svg
   xmlns:dc="http://purl.org/dc/elements/1.1/"
   xmlns:cc="http://creativecommons.org/ns#"
   xmlns:rdf="http://www.w3.org/1999/02/22-rdf-syntax-ns#"
   xmlns:svg="http://www.w3.org/2000/svg"
   xmlns="http://www.w3.org/2000/svg"
   xmlns:sodipodi="http://sodipodi.sourceforge.net/DTD/sodipodi-0.dtd"
   xmlns:inkscape="http://www.inkscape.org/namespaces/inkscape"
   width="155.885"
   height="155.885"
   viewBox="0 0 155.885 155.885"
   id="svg3053"
   version="1.1"
   inkscape:version="0.48.2 r9819"
   sodipodi:docname="C5.svg">
  <metadata
     id="metadata3065">
    <rdf:RDF>
      <cc:Work
         rdf:about="">
        <dc:format>image/svg+xml</dc:format>
        <dc:type
           rdf:resource="http://purl.org/dc/dcmitype/StillImage" />
        <dc:title></dc:title>
      </cc:Work>
    </rdf:RDF>
  </metadata>
  <defs
     id="defs3063" />
  <sodipodi:namedview
     pagecolor="#ffffff"
     bordercolor="#666666"
     borderopacity="1"
     objecttolerance="10"
     gridtolerance="10"
     guidetolerance="10"
     inkscape:pageopacity="0"
     inkscape:pageshadow="2"
     inkscape:window-width="858"
     inkscape:window-height="739"
     id="namedview3061"
     showgrid="false"
     inkscape:zoom="30.169717"
     inkscape:cx="25.374499"
     inkscape:cy="57.942998"
     inkscape:window-x="0"
     inkscape:window-y="24"
     inkscape:window-maximized="0"
     inkscape:current-layer="svg3053" />
  <g
     transform="translate(5.3745,45.3745)"
     id="g3055">
    <path
       d="m 11.6,54.733 a 5.543,5.543 0 0 1 0,-5.543 m 1.8,8.66 -1.8,-3.118 m 2.7,-10.218 -2.7,4.677 m 6.6,11.431 a 5.543,5.543 0 0 1 -4.8,-2.771 m 4.8,2.771 3.6,0 m 4.8,-2.772 a 5.543,5.543 0 0 1 -4.8,2.771 M 28.4,49.19 a 5.543,5.543 0 0 1 0,5.543 m 0,-5.543 -2.7,-4.677 m 2.7,10.22 -1.8,3.118"
       id="path3057"
       inkscape:connector-curvature="0"
       style="fill:none;stroke:#000000;stroke-width:2;stroke-linecap:round">
      <desc
         id="desc3059">C5</desc>
    </path>
  </g>
</svg>
