<?xml version="1.0" encoding="UTF-8" standalone="no"?>
<!-- Created by Polyform Puzzler (http://puzzler.sourceforge.net/) -->

<svg
   xmlns:dc="http://purl.org/dc/elements/1.1/"
   xmlns:cc="http://creativecommons.org/ns#"
   xmlns:rdf="http://www.w3.org/1999/02/22-rdf-syntax-ns#"
   xmlns:svg="http://www.w3.org/2000/svg"
   xmlns="http://www.w3.org/2000/svg"
   xmlns:sodipodi="http://sodipodi.sourceforge.net/DTD/sodipodi-0.dtd"
   xmlns:inkscape="http://www.inkscape.org/namespaces/inkscape"
   width="75.000"
   height="86.603"
   viewBox="0 0 75.000 86.603"
   id="svg3154"
   version="1.1"
   inkscape:version="0.48.2 r9819"
   sodipodi:docname="U5.svg">
  <metadata
     id="metadata3166">
    <rdf:RDF>
      <cc:Work
         rdf:about="">
        <dc:format>image/svg+xml</dc:format>
        <dc:type
           rdf:resource="http://purl.org/dc/dcmitype/StillImage" />
        <dc:title></dc:title>
      </cc:Work>
    </rdf:RDF>
  </metadata>
  <defs
     id="defs3164" />
  <sodipodi:namedview
     pagecolor="#ffffff"
     bordercolor="#666666"
     borderopacity="1"
     objecttolerance="10"
     gridtolerance="10"
     guidetolerance="10"
     inkscape:pageopacity="0"
     inkscape:pageshadow="2"
     inkscape:window-width="640"
     inkscape:window-height="480"
     id="namedview3162"
     showgrid="false"
     inkscape:zoom="2.7250789"
     inkscape:cx="37.5"
     inkscape:cy="43.301498"
     inkscape:window-x="0"
     inkscape:window-y="24"
     inkscape:window-maximized="0"
     inkscape:current-layer="svg3154" />
  <g
     transform="translate(0,-8.66)"
     id="g3156">
    <path
       d="m 16.4,51.962 5.4,0 m 4.8,-2.772 a 5.543,5.543 0 0 1 -4.8,2.771 m 6.6,-5.888 a 5.543,5.543 0 0 1 4.8,-2.771 m -4.8,2.771 -1.8,3.118 m 6.6,-5.89 3.6,0 m 0,0 a 5.543,5.543 0 0 1 4.8,2.771 m 1.8,3.118 -1.8,-3.118 m 6.6,5.89 a 5.543,5.543 0 0 1 -4.8,-2.771 m 4.8,2.771 5.4,0"
       id="path3158"
       inkscape:connector-curvature="0"
       style="fill:none;stroke:#000000;stroke-width:2;stroke-linecap:round">
      <desc
         id="desc3160">U5</desc>
    </path>
  </g>
</svg>
