<?xml version="1.0" encoding="UTF-8" standalone="no"?>
<!-- Created by Polyform Puzzler (http://puzzler.sourceforge.net/) -->

<svg
   xmlns:dc="http://purl.org/dc/elements/1.1/"
   xmlns:cc="http://creativecommons.org/ns#"
   xmlns:rdf="http://www.w3.org/1999/02/22-rdf-syntax-ns#"
   xmlns:svg="http://www.w3.org/2000/svg"
   xmlns="http://www.w3.org/2000/svg"
   xmlns:sodipodi="http://sodipodi.sourceforge.net/DTD/sodipodi-0.dtd"
   xmlns:inkscape="http://www.inkscape.org/namespaces/inkscape"
   width="60.000"
   height="95.263"
   viewBox="0 0 60.000 95.263"
   id="svg3680"
   version="1.1"
   inkscape:version="0.48.2 r9819"
   sodipodi:docname="H5.svg">
  <metadata
     id="metadata3692">
    <rdf:RDF>
      <cc:Work
         rdf:about="">
        <dc:format>image/svg+xml</dc:format>
        <dc:type
           rdf:resource="http://purl.org/dc/dcmitype/StillImage" />
        <dc:title></dc:title>
      </cc:Work>
    </rdf:RDF>
  </metadata>
  <defs
     id="defs3690" />
  <sodipodi:namedview
     pagecolor="#ffffff"
     bordercolor="#666666"
     borderopacity="1"
     objecttolerance="10"
     gridtolerance="10"
     guidetolerance="10"
     inkscape:pageopacity="0"
     inkscape:pageshadow="2"
     inkscape:window-width="640"
     inkscape:window-height="480"
     id="namedview3688"
     showgrid="false"
     inkscape:zoom="2.4773522"
     inkscape:cx="30"
     inkscape:cy="47.6315"
     inkscape:window-x="0"
     inkscape:window-y="24"
     inkscape:window-maximized="0"
     inkscape:current-layer="svg3680" />
  <g
     id="g3682">
    <path
       stroke="black"
       stroke-width="2"
       stroke-linecap="round"
       fill="none"
       d="M 11.600,54.733 a 5.543,5.543 0 0,1 0.000,-5.543 M 13.400,57.850 a 5.543,5.543 0 0,1 0.000,5.543 M 13.400,57.850 l -1.800,-3.118 M 13.400,63.393 a 5.543,5.543 0 0,1 4.800,-2.771 M 13.400,63.393 l -2.700,4.677 M 14.300,44.514 l -2.700,4.677 M 18.200,60.622 a 5.543,5.543 0 0,1 -4.800,-2.771 M 18.200,60.622 l 3.600,0.000 M 21.800,60.622 a 5.543,5.543 0 0,1 4.800,2.771 M 29.300,68.070 l -2.700,-4.677"
       id="path3684">
      <desc
         id="desc3686">H5</desc>
    </path>
  </g>
</svg>
