<?xml version="1.0" encoding="UTF-8" standalone="no"?>
<!-- Created by Polyform Puzzler (http://puzzler.sourceforge.net/) -->

<svg
   xmlns:dc="http://purl.org/dc/elements/1.1/"
   xmlns:cc="http://creativecommons.org/ns#"
   xmlns:rdf="http://www.w3.org/1999/02/22-rdf-syntax-ns#"
   xmlns:svg="http://www.w3.org/2000/svg"
   xmlns="http://www.w3.org/2000/svg"
   xmlns:sodipodi="http://sodipodi.sourceforge.net/DTD/sodipodi-0.dtd"
   xmlns:inkscape="http://www.inkscape.org/namespaces/inkscape"
   width="173.205"
   height="173.205"
   viewBox="0 0 173.205 173.205"
   id="svg3595"
   version="1.1"
   inkscape:version="0.48.2 r9819"
   sodipodi:docname="W5.svg">
  <metadata
     id="metadata3607">
    <rdf:RDF>
      <cc:Work
         rdf:about="">
        <dc:format>image/svg+xml</dc:format>
        <dc:type
           rdf:resource="http://purl.org/dc/dcmitype/StillImage" />
        <dc:title></dc:title>
      </cc:Work>
    </rdf:RDF>
  </metadata>
  <defs
     id="defs3605" />
  <sodipodi:namedview
     pagecolor="#ffffff"
     bordercolor="#666666"
     borderopacity="1"
     objecttolerance="10"
     gridtolerance="10"
     guidetolerance="10"
     inkscape:pageopacity="0"
     inkscape:pageshadow="2"
     inkscape:window-width="640"
     inkscape:window-height="480"
     id="namedview3603"
     showgrid="false"
     inkscape:zoom="1.3625473"
     inkscape:cx="86.602501"
     inkscape:cy="86.602501"
     inkscape:window-x="0"
     inkscape:window-y="24"
     inkscape:window-maximized="0"
     inkscape:current-layer="svg3595" />
  <g
     transform="matrix(1,0,0,-1,11.726235,167.20919)"
     id="g3597">
    <path
       d="m 13.4,49.19 -2.7,-4.677 m 7.5,7.449 a 5.543,5.543 0 0 1 -4.8,-2.771 m 4.8,2.771 3.6,0 m 0,0 a 5.543,5.543 0 0 1 4.8,2.771 m 1.8,3.117 -1.8,-3.118 m 6.6,5.89 a 5.543,5.543 0 0 1 -4.8,-2.771 m 4.8,2.771 3.6,0 m 4.8,-2.772 a 5.543,5.543 0 0 1 -4.8,2.771 m 7.5,-7.447 -2.7,4.677"
       id="path3599"
       inkscape:connector-curvature="0"
       style="fill:none;stroke:#000000;stroke-width:2;stroke-linecap:round">
      <desc
         id="desc3601">W5</desc>
    </path>
  </g>
</svg>
