<?xml version="1.0" encoding="UTF-8" standalone="no"?>
<!-- Created by Polyform Puzzler (http://puzzler.sourceforge.net/) -->

<svg
   xmlns:dc="http://purl.org/dc/elements/1.1/"
   xmlns:cc="http://creativecommons.org/ns#"
   xmlns:rdf="http://www.w3.org/1999/02/22-rdf-syntax-ns#"
   xmlns:svg="http://www.w3.org/2000/svg"
   xmlns="http://www.w3.org/2000/svg"
   xmlns:sodipodi="http://sodipodi.sourceforge.net/DTD/sodipodi-0.dtd"
   xmlns:inkscape="http://www.inkscape.org/namespaces/inkscape"
   width="207.846"
   height="207.846"
   viewBox="0 0 207.846 207.846"
   id="svg4034"
   version="1.1"
   inkscape:version="0.48.2 r9819"
   sodipodi:docname="I5.svg">
  <metadata
     id="metadata4046">
    <rdf:RDF>
      <cc:Work
         rdf:about="">
        <dc:format>image/svg+xml</dc:format>
        <dc:type
           rdf:resource="http://purl.org/dc/dcmitype/StillImage" />
        <dc:title></dc:title>
      </cc:Work>
    </rdf:RDF>
  </metadata>
  <defs
     id="defs4044" />
  <sodipodi:namedview
     pagecolor="#ffffff"
     bordercolor="#666666"
     borderopacity="1"
     objecttolerance="10"
     gridtolerance="10"
     guidetolerance="10"
     inkscape:pageopacity="0"
     inkscape:pageshadow="2"
     inkscape:window-width="640"
     inkscape:window-height="480"
     id="namedview4042"
     showgrid="false"
     inkscape:zoom="1.1354561"
     inkscape:cx="103.923"
     inkscape:cy="103.923"
     inkscape:window-x="0"
     inkscape:window-y="24"
     inkscape:window-maximized="0"
     inkscape:current-layer="svg4034" />
  <g
     transform="matrix(0.5,0.8660254,0.8660254,-0.5,6.4232627,160.2145)"
     id="g4036">
    <path
       d="m 13.4,49.19 -2.7,-4.677 m 7.5,7.449 a 5.543,5.543 0 0 1 -4.8,-2.771 m 4.8,2.771 3.6,0 m 0,0 a 5.543,5.543 0 0 1 4.8,2.771 m 1.8,3.117 -1.8,-3.118 m 6.6,5.89 a 5.543,5.543 0 0 1 -4.8,-2.771 m 4.8,2.771 3.6,0 m 0,0 a 5.543,5.543 0 0 1 4.8,2.771 m 2.7,4.677 -2.7,-4.677"
       id="path4038"
       inkscape:connector-curvature="0"
       style="fill:none;stroke:#000000;stroke-width:2;stroke-linecap:round">
      <desc
         id="desc4040">I5</desc>
    </path>
  </g>
</svg>
